{
  "asset": {
    "version": "2.0",
    "generator": "XBG to GLTF Converter with Textures"
  },
  "scene": 0,
  "scenes": [
    {
      "name": "Scene",
      "nodes": [
        7
      ]
    }
  ],
  "nodes": [
    {
      "name": "Turret_Tripod",
      "children": [
        1,
        5
      ]
    },
    {
      "name": "Turret_Axis",
      "translation": [
        -0.00024124000628944486,
        1.0253666639328003,
        1.236519694328308
      ],
      "children": [
        2,
        3,
        4
      ]
    },
    {
      "name": "GunMount",
      "translation": [
        0.001063709962181747,
        -0.00018279999494552612,
        0.2060183733701706
      ]
    },
    {
      "name": "WeaponPlacement",
      "translation": [
        0.00024124000628944486,
        -0.00018279999494552612,
        0.2060183733701706
      ]
    },
    {
      "name": "Gunner_PH",
      "translation": [
        -0.006758760195225477,
        -1.0253667831420898,
        -1.236519694328308
      ]
    },
    {
      "name": "Turret_Tripod_Prim",
      "translation": [
        0.0,
        1.0253666639328003,
        0.0
      ]
    },
    {
      "name": "MeshNode_LOD0",
      "mesh": 0,
      "skin": 0
    },
    {
      "name": "Correction_Root",
      "rotation": [
        -0.70710678,
        0.0,
        0.0,
        0.70710678
      ],
      "children": [
        0,
        6
      ]
    }
  ],
  "meshes": [
    {
      "name": "Mesh_LOD0",
      "primitives": [
        {
          "attributes": {
            "POSITION": 1,
            "JOINTS_0": 3,
            "WEIGHTS_0": 4,
            "TEXCOORD_0": 2
          },
          "indices": 5,
          "material": 0
        },
        {
          "attributes": {
            "POSITION": 1,
            "JOINTS_0": 3,
            "WEIGHTS_0": 4,
            "TEXCOORD_0": 2
          },
          "indices": 6,
          "material": 0
        }
      ]
    }
  ],
  "skins": [
    {
      "inverseBindMatrices": 0,
      "joints": [
        0,
        1,
        2,
        3,
        4,
        5
      ],
      "name": "Armature",
      "skeleton": 0
    }
  ],
  "materials": [
    {
      "name": "GRAPHICS\\_MATERIALS\\SDORE2-M-2007111262160701.xbm",
      "pbrMetallicRoughness": {
        "baseColorFactor": [
          1.0,
          1.0,
          1.0,
          1.0
        ],
        "metallicFactor": 0.0,
        "roughnessFactor": 1.0,
        "baseColorTexture": {
          "index": 0,
          "texCoord": 0
        }
      },
      "doubleSided": true
    }
  ],
  "textures": [
    {
      "sampler": 0,
      "source": 0
    }
  ],
  "images": [
    {
      "name": "dirt_03_d",
      "mimeType": "image/png",
      "uri": "data:image/png;base64,"
    }
  ],
  "samplers": [
    {
      "magFilter": 9729,
      "minFilter": 9987,
      "wrapS": 10497,
      "wrapT": 10497
    }
  ],
  "accessors": [
    {
      "bufferView": 0,
      "componentType": 5126,
      "count": 6,
      "type": "MAT4"
    },
    {
      "bufferView": 1,
      "componentType": 5126,
      "count": 684,
      "type": "VEC3",
      "min": [
        -0.10864589363336563,
        -0.10834070853888988,
        -0.09601123072206974
      ],
      "max": [
        0.10858485661447048,
        0.10791344940662384,
        1.4189886152744293
      ]
    },
    {
      "bufferView": 2,
      "componentType": 5126,
      "count": 684,
      "type": "VEC2"
    },
    {
      "bufferView": 3,
      "componentType": 5123,
      "count": 684,
      "type": "VEC4"
    },
    {
      "bufferView": 4,
      "componentType": 5126,
      "count": 684,
      "type": "VEC4"
    },
    {
      "bufferView": 5,
      "componentType": 5123,
      "count": 636,
      "type": "SCALAR"
    },
    {
      "bufferView": 6,
      "componentType": 5123,
      "count": 1254,
      "type": "SCALAR"
    }
  ],
  "bufferViews": [
    {
      "buffer": 0,
      "byteOffset": 0,
      "byteLength": 384
    },
    {
      "buffer": 0,
      "byteOffset": 384,
      "byteLength": 8208,
      "target": 34962
    },
    {
      "buffer": 0,
      "byteOffset": 8592,
      "byteLength": 5472,
      "target": 34962
    },
    {
      "buffer": 0,
      "byteOffset": 14064,
      "byteLength": 5472,
      "target": 34962
    },
    {
      "buffer": 0,
      "byteOffset": 19536,
      "byteLength": 10944,
      "target": 34962
    },
    {
      "buffer": 0,
      "byteOffset": 30480,
      "byteLength": 1272,
      "target": 34963
    },
    {
      "buffer": 0,
      "byteOffset": 31752,
      "byteLength": 2508,
      "target": 34963
    }
  ],
  "buffers": [
    {
      "byteLength": 34260,
      "uri": "turret_tripod.bin"
    }
  ]
}