{
  "asset": {
    "version": "2.0",
    "generator": "XBG to GLTF Converter with Textures"
  },
  "scene": 0,
  "scenes": [
    {
      "name": "Scene",
      "nodes": [
        7
      ]
    }
  ],
  "nodes": [
    {
      "name": "Crossbow_06",
      "children": [
        1,
        2,
        3,
        4,
        5
      ]
    },
    {
      "name": "Rope_Bone",
      "translation": [
        0.1400732845067978,
        0.025242099538445473,
        0.20831765234470367
      ],
      "rotation": [
        0.0,
        0.0,
        -0.7071067690849299,
        0.707106793288165
      ]
    },
    {
      "name": "M30_FRAME",
      "translation": [
        -0.35052797198295593,
        0.02537669986486435,
        -0.11072511225938797
      ],
      "rotation": [
        0.008717028825759601,
        0.006158274992247792,
        -0.7094883321474564,
        0.7046363570073526
      ]
    },
    {
      "name": "M30_FX_CASING",
      "translation": [
        0.16752831637859344,
        -0.12195899337530136,
        0.24436348676681519
      ],
      "rotation": [
        0.9618320538092396,
        0.0,
        0.0,
        0.27364045801946013
      ]
    },
    {
      "name": "M30_CLIP",
      "translation": [
        0.2456986904144287,
        -0.1325313299894333,
        0.09591194242238998
      ],
      "rotation": [
        0.0,
        0.0,
        -0.7071067690849299,
        0.707106793288165
      ]
    },
    {
      "name": "M30_FX_FIRE",
      "translation": [
        0.9622049331665039,
        0.01981976069509983,
        0.1834176778793335
      ],
      "rotation": [
        0.008716623968066163,
        0.006158051127836521,
        -0.7094363571005027,
        0.7046886930331597
      ]
    },
    {
      "name": "MeshNode_LOD0",
      "mesh": 0,
      "skin": 0
    },
    {
      "name": "Correction_Root",
      "rotation": [
        -0.70710678,
        0.0,
        0.0,
        0.70710678
      ],
      "children": [
        0,
        6
      ]
    }
  ],
  "meshes": [
    {
      "name": "Mesh_LOD0",
      "primitives": [
        {
          "attributes": {
            "POSITION": 1,
            "JOINTS_0": 3,
            "WEIGHTS_0": 4,
            "TEXCOORD_0": 2
          },
          "indices": 5,
          "material": 0
        },
        {
          "attributes": {
            "POSITION": 1,
            "JOINTS_0": 3,
            "WEIGHTS_0": 4,
            "TEXCOORD_0": 2
          },
          "indices": 6,
          "material": 1
        },
        {
          "attributes": {
            "POSITION": 1,
            "JOINTS_0": 3,
            "WEIGHTS_0": 4,
            "TEXCOORD_0": 2
          },
          "indices": 7,
          "material": 2
        }
      ]
    }
  ],
  "skins": [
    {
      "inverseBindMatrices": 0,
      "joints": [
        0,
        1,
        2,
        3,
        4,
        5
      ],
      "name": "Armature",
      "skeleton": 0
    }
  ],
  "materials": [
    {
      "name": "GRAPHICS\\_MATERIALS\\GRASSAM-M-2009072369524109.xbm",
      "pbrMetallicRoughness": {
        "baseColorFactor": [
          1.0,
          1.0,
          1.0,
          1.0
        ],
        "metallicFactor": 0.0,
        "roughnessFactor": 1.0,
        "baseColorTexture": {
          "index": 0,
          "texCoord": 0
        }
      },
      "doubleSided": true
    },
    {
      "name": "GRAPHICS\\_MATERIALS\\GRASSAM-M-2009073162027124.xbm",
      "pbrMetallicRoughness": {
        "baseColorFactor": [
          1.0,
          1.0,
          1.0,
          1.0
        ],
        "metallicFactor": 0.0,
        "roughnessFactor": 1.0,
        "baseColorTexture": {
          "index": 1,
          "texCoord": 0
        }
      },
      "doubleSided": true
    },
    {
      "name": "GRAPHICS\\_MATERIALS\\GRASSAM-M-2009073164881805.xbm",
      "pbrMetallicRoughness": {
        "baseColorFactor": [
          1.0,
          1.0,
          1.0,
          1.0
        ],
        "metallicFactor": 0.0,
        "roughnessFactor": 1.0,
        "baseColorTexture": {
          "index": 2,
          "texCoord": 0
        }
      },
      "doubleSided": true
    }
  ],
  "textures": [
    {
      "sampler": 0,
      "source": 0
    },
    {
      "sampler": 0,
      "source": 1
    },
    {
      "sampler": 0,
      "source": 2
    }
  ],
  "images": [
    {
      "name": "crossbow_cloth_d",
      "mimeType": "image/png",
      "uri": "data:image/png;base64,"
    },
    {
      "name": "crossbow_06_d",
      "mimeType": "image/png",
      "uri": "data:image/png;base64,"
    },
    {
      "name": "crossbow_straps_d",
      "mimeType": "image/png",
      "uri": "data:image/png;base64,"
    }
  ],
  "samplers": [
    {
      "magFilter": 9729,
      "minFilter": 9987,
      "wrapS": 10497,
      "wrapT": 10497
    }
  ],
  "accessors": [
    {
      "bufferView": 0,
      "componentType": 5126,
      "count": 6,
      "type": "MAT4"
    },
    {
      "bufferView": 1,
      "componentType": 5126,
      "count": 955,
      "type": "VEC3",
      "min": [
        -0.3539231540635228,
        -0.3232520520687103,
        -0.1363261817023158
      ],
      "max": [
        0.9439680157229304,
        0.37434003688395023,
        0.25672170147299767
      ]
    },
    {
      "bufferView": 2,
      "componentType": 5126,
      "count": 955,
      "type": "VEC2"
    },
    {
      "bufferView": 3,
      "componentType": 5123,
      "count": 955,
      "type": "VEC4"
    },
    {
      "bufferView": 4,
      "componentType": 5126,
      "count": 955,
      "type": "VEC4"
    },
    {
      "bufferView": 5,
      "componentType": 5123,
      "count": 168,
      "type": "SCALAR"
    },
    {
      "bufferView": 6,
      "componentType": 5123,
      "count": 2586,
      "type": "SCALAR"
    },
    {
      "bufferView": 7,
      "componentType": 5123,
      "count": 588,
      "type": "SCALAR"
    }
  ],
  "bufferViews": [
    {
      "buffer": 0,
      "byteOffset": 0,
      "byteLength": 384
    },
    {
      "buffer": 0,
      "byteOffset": 384,
      "byteLength": 11460,
      "target": 34962
    },
    {
      "buffer": 0,
      "byteOffset": 11844,
      "byteLength": 7640,
      "target": 34962
    },
    {
      "buffer": 0,
      "byteOffset": 19484,
      "byteLength": 7640,
      "target": 34962
    },
    {
      "buffer": 0,
      "byteOffset": 27124,
      "byteLength": 15280,
      "target": 34962
    },
    {
      "buffer": 0,
      "byteOffset": 42404,
      "byteLength": 336,
      "target": 34963
    },
    {
      "buffer": 0,
      "byteOffset": 42740,
      "byteLength": 5172,
      "target": 34963
    },
    {
      "buffer": 0,
      "byteOffset": 47912,
      "byteLength": 1176,
      "target": 34963
    }
  ],
  "buffers": [
    {
      "byteLength": 49088,
      "uri": "crossbow_06.bin"
    }
  ]
}