{
  "asset": {
    "version": "2.0",
    "generator": "XBG to GLTF Converter with Textures"
  },
  "scene": 0,
  "scenes": [
    {
      "name": "Scene",
      "nodes": [
        30
      ]
    }
  ],
  "nodes": [
    {
      "name": "HelFireWasp",
      "children": [
        1,
        2
      ]
    },
    {
      "name": "HelFireWasp_Body"
    },
    {
      "name": "Root",
      "children": [
        3
      ]
    },
    {
      "name": "Pelvis",
      "translation": [
        0.0,
        -0.03765077143907547,
        0.2754993736743927
      ],
      "rotation": [
        -0.5540196330268745,
        -0.4393884868248998,
        0.5540196899546649,
        0.4393884265941437
      ],
      "children": [
        4,
        5,
        7,
        10,
        13,
        16,
        19,
        21,
        23,
        24,
        26,
        28
      ]
    },
    {
      "name": "Engine_Bone_L_Wing01",
      "translation": [
        0.032903239130973816,
        -0.024641970172524452,
        0.025800030678510666
      ],
      "rotation": [
        -0.333241258185633,
        -0.6899504725972364,
        -0.18915980620903666,
        0.6141149670462588
      ]
    },
    {
      "name": "Engine_Bone_Tail01",
      "translation": [
        -0.016258029267191887,
        0.015945749357342748,
        0.0
      ],
      "rotation": [
        -2.0745079400593043e-05,
        8.494822597742137e-06,
        -0.8199635732311928,
        0.5724157039000711
      ],
      "children": [
        6
      ]
    },
    {
      "name": "Engine_Bone_Tail02",
      "translation": [
        0.08707953989505757,
        -1.999999987845058e-08,
        0.0
      ],
      "rotation": [
        1.4153427323333472e-07,
        7.666620454122718e-08,
        -0.5897276356555804,
        0.8076022014234812
      ]
    },
    {
      "name": "Engine_Bone_L_Thigh01",
      "translation": [
        0.034643761813640594,
        0.031052539125084905,
        0.008159999735653399
      ],
      "rotation": [
        0.00657574677883854,
        -0.0011427609931527532,
        0.9861022630823086,
        0.16600536255061935
      ],
      "children": [
        8
      ]
    },
    {
      "name": "Engine_Bone_L_Calf01",
      "translation": [
        0.08089873194694522,
        -1.6653345369377348e-15,
        -9.999999940960014e-09
      ],
      "rotation": [
        -0.019525207375230082,
        0.026041777447905274,
        0.9446785016880922,
        -0.32637879917755236
      ],
      "children": [
        9
      ]
    },
    {
      "name": "Engine_Bone_L_Foot01",
      "translation": [
        0.10333870351314547,
        2.999999895725303e-08,
        9.999999937490567e-09
      ],
      "rotation": [
        0.004524615598431816,
        0.006316992954849449,
        0.9637991223406016,
        0.266516181927441
      ]
    },
    {
      "name": "Engine_Bone_R_Thigh01",
      "translation": [
        0.03464376926422119,
        0.031052520498633412,
        -0.00815736036747694
      ],
      "rotation": [
        -0.006719320351132749,
        0.001131988206306219,
        0.9861148354573814,
        0.16592498494072874
      ],
      "children": [
        11
      ]
    },
    {
      "name": "Engine_Bone_R_Calf01",
      "translation": [
        0.08089893311262097,
        -1.999999943436137e-08,
        -9.999999940960014e-09
      ],
      "rotation": [
        0.019291957740585168,
        -0.025268333899883307,
        0.944579998633291,
        -0.32673836299149633
      ],
      "children": [
        12
      ]
    },
    {
      "name": "Engine_Bone_R_Foot01",
      "translation": [
        0.10333915799856187,
        -2.999999895725303e-08,
        9.99999993922529e-09
      ],
      "rotation": [
        -0.004666804307370979,
        -0.005974658613955509,
        0.9635906070689269,
        0.2672745149851373
      ]
    },
    {
      "name": "Engine_Bone_LB_Arm01",
      "translation": [
        0.05494233965873718,
        0.03818779066205025,
        0.016759490594267845
      ],
      "rotation": [
        0.09586834439414972,
        -0.017095091512066486,
        0.9801859431121879,
        0.17248923245836117
      ],
      "children": [
        14
      ]
    },
    {
      "name": "Engine_Bone_LB_ForeArm01",
      "translation": [
        0.11305108666419986,
        3.999999970139001e-08,
        -9.999999942694737e-09
      ],
      "rotation": [
        0.0178648344935223,
        -0.03213215856272947,
        0.9597251151580013,
        -0.2785248200960434
      ],
      "children": [
        15
      ]
    },
    {
      "name": "Engine_Bone_LB_Hand01",
      "translation": [
        0.09404814243316648,
        -9.999999994736442e-09,
        9.999999942694737e-09
      ],
      "rotation": [
        0.034646869395694925,
        -0.00389692164414346,
        0.5742418803203297,
        0.8179429511734699
      ]
    },
    {
      "name": "Engine_Bone_RB_Arm01",
      "translation": [
        0.054942350834608085,
        0.038187768310308456,
        -0.01675998978316784
      ],
      "rotation": [
        -0.0958970288542998,
        0.016646708913376416,
        0.9801982867712239,
        0.1724469934509993
      ],
      "children": [
        17
      ]
    },
    {
      "name": "Engine_Bone_RB_ForeArm01",
      "translation": [
        0.11304888129234315,
        -4.163336342344337e-16,
        -2.999999892255856e-08
      ],
      "rotation": [
        0.0012010948505833472,
        -0.03450805594313194,
        0.9596168765494695,
        -0.2791830970664694
      ],
      "children": [
        18
      ]
    },
    {
      "name": "Engine_Bone_RB_Hand01",
      "translation": [
        0.09404609352350232,
        1.999999987845058e-08,
        9.99999993922529e-09
      ],
      "rotation": [
        0.03383224012493288,
        -0.027284106056332205,
        0.5736443369571317,
        0.8179505680074395
      ]
    },
    {
      "name": "Engine_Bone_LF_Arm01",
      "translation": [
        0.09849237650632858,
        0.023884179070591954,
        0.014308949932456017
      ],
      "rotation": [
        0.045652345647825186,
        -0.049315590053407375,
        0.6777867058800955,
        0.7321809999806032
      ],
      "children": [
        20
      ]
    },
    {
      "name": "Engine_Bone_LF_ForeArm01",
      "translation": [
        0.05413063988089559,
        1.0408340855860843e-17,
        -1.9999999885389474e-08
      ],
      "rotation": [
        0.03775612955728185,
        -0.05453263147886179,
        0.20603793594415182,
        0.9762935192479026
      ]
    },
    {
      "name": "Engine_Bone_RF_Arm01",
      "translation": [
        0.09849240630865097,
        0.023884179070591954,
        -0.014299949631094933
      ],
      "rotation": [
        -0.04565810745446682,
        0.04932289938253434,
        0.6777864095845221,
        0.7321804229376178
      ],
      "children": [
        22
      ]
    },
    {
      "name": "Engine_Bone_RF_ForeArm01",
      "translation": [
        0.05413075909018519,
        -9.99999992881695e-09,
        -9.99999993922529e-09
      ],
      "rotation": [
        0.019522180347928696,
        0.06652863168572937,
        0.20288784366177465,
        0.9767442595250744
      ]
    },
    {
      "name": "Engine_Bone_Head01",
      "translation": [
        0.11521138995885849,
        -0.0026982100680470467,
        3.999999975690116e-08
      ],
      "rotation": [
        -1.0074863188894899e-08,
        7.556147968569973e-08,
        0.5037431684708691,
        0.8638534714978714
      ]
    },
    {
      "name": "Engine_Bone_L_Antenna01",
      "translation": [
        0.14163769781589508,
        0.023425759747624397,
        0.020407430827617642
      ],
      "rotation": [
        0.00741292245891809,
        0.07889190946769735,
        -0.09774817385408505,
        0.992051616452363
      ],
      "children": [
        25
      ]
    },
    {
      "name": "Engine_Bone_L_Antenna02",
      "translation": [
        0.0614633783698082,
        9.999999661669534e-09,
        0.0
      ],
      "rotation": [
        0.054855983175237474,
        -0.17692161934745654,
        0.15607015642873712,
        0.9702224837381961
      ]
    },
    {
      "name": "Engine_Bone_R_Antenna01",
      "translation": [
        0.14163775742053986,
        0.023425739258527756,
        -0.02039992995560169
      ],
      "rotation": [
        -0.008064194608692779,
        -0.07874003077900893,
        -0.0975831973674067,
        0.9920748439057299
      ],
      "children": [
        27
      ]
    },
    {
      "name": "Engine_Bone_R_Antenna02",
      "translation": [
        0.06146200001239774,
        3.999999956261213e-08,
        6.938893903907228e-18
      ],
      "rotation": [
        0.0440313285725586,
        0.19172176369397032,
        0.1374430481565011,
        0.9707797978310515
      ]
    },
    {
      "name": "Engine_Bone_R_Wing01",
      "translation": [
        0.03290326893329622,
        -0.024641990661621038,
        -0.025799969211220745
      ],
      "rotation": [
        0.2778993366151648,
        0.7039211517567087,
        -0.12770339768066147,
        0.6410607194035068
      ]
    },
    {
      "name": "MeshNode_LOD0",
      "mesh": 0,
      "skin": 0
    },
    {
      "name": "Correction_Root",
      "rotation": [
        -0.70710678,
        0.0,
        0.0,
        0.70710678
      ],
      "children": [
        0,
        29
      ]
    }
  ],
  "meshes": [
    {
      "name": "Mesh_LOD0",
      "primitives": [
        {
          "attributes": {
            "POSITION": 1,
            "JOINTS_0": 3,
            "WEIGHTS_0": 4,
            "TEXCOORD_0": 2
          },
          "indices": 5,
          "material": 0
        }
      ]
    }
  ],
  "skins": [
    {
      "inverseBindMatrices": 0,
      "joints": [
        0,
        1,
        2,
        3,
        4,
        5,
        6,
        7,
        8,
        9,
        10,
        11,
        12,
        13,
        14,
        15,
        16,
        17,
        18,
        19,
        20,
        21,
        22,
        23,
        24,
        25,
        26,
        27,
        28
      ],
      "name": "Armature",
      "skeleton": 0
    }
  ],
  "materials": [
    {
      "name": "GRAPHICS\\_MATERIALS\\CSEAUT-M-2008061933634925.xbm",
      "pbrMetallicRoughness": {
        "baseColorFactor": [
          1.0,
          1.0,
          1.0,
          1.0
        ],
        "metallicFactor": 0.0,
        "roughnessFactor": 1.0,
        "baseColorTexture": {
          "index": 0,
          "texCoord": 0
        }
      },
      "doubleSided": true
    }
  ],
  "textures": [
    {
      "sampler": 0,
      "source": 0
    }
  ],
  "images": [
    {
      "name": "helfirewasp_d",
      "mimeType": "image/png",
      "uri": "data:image/png;base64,"
    }
  ],
  "samplers": [
    {
      "magFilter": 9729,
      "minFilter": 9987,
      "wrapS": 10497,
      "wrapT": 10497
    }
  ],
  "accessors": [
    {
      "bufferView": 0,
      "componentType": 5126,
      "count": 29,
      "type": "MAT4"
    },
    {
      "bufferView": 1,
      "componentType": 5126,
      "count": 2185,
      "type": "VEC3",
      "min": [
        -0.2754295477643609,
        -0.3357646409422159,
        -0.017609179951250553
      ],
      "max": [
        0.27539902925491333,
        0.22244941536337137,
        0.429670094512403
      ]
    },
    {
      "bufferView": 2,
      "componentType": 5126,
      "count": 2185,
      "type": "VEC2"
    },
    {
      "bufferView": 3,
      "componentType": 5123,
      "count": 2185,
      "type": "VEC4"
    },
    {
      "bufferView": 4,
      "componentType": 5126,
      "count": 2185,
      "type": "VEC4"
    },
    {
      "bufferView": 5,
      "componentType": 5123,
      "count": 6408,
      "type": "SCALAR"
    }
  ],
  "bufferViews": [
    {
      "buffer": 0,
      "byteOffset": 0,
      "byteLength": 1856
    },
    {
      "buffer": 0,
      "byteOffset": 1856,
      "byteLength": 26220,
      "target": 34962
    },
    {
      "buffer": 0,
      "byteOffset": 28076,
      "byteLength": 17480,
      "target": 34962
    },
    {
      "buffer": 0,
      "byteOffset": 45556,
      "byteLength": 17480,
      "target": 34962
    },
    {
      "buffer": 0,
      "byteOffset": 63036,
      "byteLength": 34960,
      "target": 34962
    },
    {
      "buffer": 0,
      "byteOffset": 97996,
      "byteLength": 12816,
      "target": 34963
    }
  ],
  "buffers": [
    {
      "byteLength": 110812,
      "uri": "helfirewasp.bin"
    }
  ]
}