{
  "asset": {
    "version": "2.0",
    "generator": "XBG to GLTF Converter with Textures"
  },
  "scene": 0,
  "scenes": [
    {
      "name": "Scene",
      "nodes": [
        3
      ]
    }
  ],
  "nodes": [
    {
      "name": "ArthemesiaFlask",
      "children": [
        1
      ]
    },
    {
      "name": "frame_anim",
      "translation": [
        -0.11484336853027344,
        0.07105819880962372,
        -0.2001817673444748
      ],
      "rotation": [
        0.037113082671876345,
        0.23370229183690883,
        -0.31170076715719247,
        0.9202437124110825
      ]
    },
    {
      "name": "MeshNode_LOD0",
      "mesh": 0,
      "skin": 0
    },
    {
      "name": "Correction_Root",
      "rotation": [
        -0.70710678,
        0.0,
        0.0,
        0.70710678
      ],
      "children": [
        0,
        2
      ]
    }
  ],
  "meshes": [
    {
      "name": "Mesh_LOD0",
      "primitives": [
        {
          "attributes": {
            "POSITION": 1,
            "JOINTS_0": 3,
            "WEIGHTS_0": 4,
            "TEXCOORD_0": 2
          },
          "indices": 5,
          "material": 0
        }
      ]
    }
  ],
  "skins": [
    {
      "inverseBindMatrices": 0,
      "joints": [
        0,
        1
      ],
      "name": "Armature",
      "skeleton": 0
    }
  ],
  "materials": [
    {
      "name": "GRAPHICS\\_MATERIALS\\PLCOSSETTE-M-2007041960067706.xbm",
      "pbrMetallicRoughness": {
        "baseColorFactor": [
          1.0,
          1.0,
          1.0,
          1.0
        ],
        "metallicFactor": 0.0,
        "roughnessFactor": 1.0,
        "baseColorTexture": {
          "index": 0,
          "texCoord": 0
        }
      },
      "doubleSided": true
    }
  ],
  "textures": [
    {
      "sampler": 0,
      "source": 0
    }
  ],
  "images": [
    {
      "name": "arthemesiaflask02_d",
      "mimeType": "image/png",
      "uri": "data:image/png;base64,"
    }
  ],
  "samplers": [
    {
      "magFilter": 9729,
      "minFilter": 9987,
      "wrapS": 10497,
      "wrapT": 10497
    }
  ],
  "accessors": [
    {
      "bufferView": 0,
      "componentType": 5126,
      "count": 2,
      "type": "MAT4"
    },
    {
      "bufferView": 1,
      "componentType": 5126,
      "count": 317,
      "type": "VEC3",
      "min": [
        -0.07715079188346863,
        -0.0734580522403121,
        -6.103701889514923e-05
      ],
      "max": [
        0.07724234741181135,
        0.07336649671196938,
        0.31327249947935343
      ]
    },
    {
      "bufferView": 2,
      "componentType": 5126,
      "count": 317,
      "type": "VEC2"
    },
    {
      "bufferView": 3,
      "componentType": 5123,
      "count": 317,
      "type": "VEC4"
    },
    {
      "bufferView": 4,
      "componentType": 5126,
      "count": 317,
      "type": "VEC4"
    },
    {
      "bufferView": 5,
      "componentType": 5123,
      "count": 1488,
      "type": "SCALAR"
    }
  ],
  "bufferViews": [
    {
      "buffer": 0,
      "byteOffset": 0,
      "byteLength": 128
    },
    {
      "buffer": 0,
      "byteOffset": 128,
      "byteLength": 3804,
      "target": 34962
    },
    {
      "buffer": 0,
      "byteOffset": 3932,
      "byteLength": 2536,
      "target": 34962
    },
    {
      "buffer": 0,
      "byteOffset": 6468,
      "byteLength": 2536,
      "target": 34962
    },
    {
      "buffer": 0,
      "byteOffset": 9004,
      "byteLength": 5072,
      "target": 34962
    },
    {
      "buffer": 0,
      "byteOffset": 14076,
      "byteLength": 2976,
      "target": 34963
    }
  ],
  "buffers": [
    {
      "byteLength": 17052,
      "uri": "arthemesiaflask.bin"
    }
  ]
}