{
  "asset": {
    "version": "2.0",
    "generator": "XBG to GLTF Converter with Textures"
  },
  "scene": 0,
  "scenes": [
    {
      "name": "Scene",
      "nodes": [
        18
      ]
    }
  ],
  "nodes": [
    {
      "name": "BenchColonial01_BK",
      "children": [
        1
      ]
    },
    {
      "name": "BC_State",
      "translation": [
        0.0,
        0.11515015363693237,
        0.0
      ],
      "children": [
        2,
        6,
        12,
        13,
        14,
        15,
        16
      ]
    },
    {
      "name": "BenchC01_State01",
      "translation": [
        0.0,
        -0.11515015363693237,
        0.0
      ],
      "children": [
        3,
        4,
        5
      ]
    },
    {
      "name": "St1Break_FX01",
      "translation": [
        0.49124476313591003,
        -0.2878302335739136,
        0.8487260937690735
      ],
      "rotation": [
        0.0,
        0.08715573883589996,
        0.0,
        0.9961946984339799
      ]
    },
    {
      "name": "St1Break_FX02",
      "translation": [
        -0.04449230059981346,
        -0.1606360524892807,
        0.41870519518852234
      ],
      "rotation": [
        9.99999993922528e-09,
        8.135128085091693e-31,
        0.999999999999999,
        -4.37113882867378e-08
      ]
    },
    {
      "name": "St1Break_FX03",
      "translation": [
        -0.5455173254013062,
        0.3121814727783203,
        0.41870519518852234
      ],
      "rotation": [
        -0.007632596696049163,
        -0.025021124015960024,
        -0.01816508874310096,
        0.9994927295241237
      ]
    },
    {
      "name": "BenchC01_State02",
      "translation": [
        0.0,
        -0.11515001207590103,
        0.0
      ],
      "children": [
        7,
        8,
        9,
        10,
        11
      ]
    },
    {
      "name": "St2Break_FX01",
      "translation": [
        0.41475874185562134,
        -0.25742924213409424,
        0.28518834710121155
      ],
      "rotation": [
        0.0,
        -0.037831026975583194,
        0.0,
        0.9992841504787179
      ]
    },
    {
      "name": "St2Break_FX02",
      "translation": [
        -0.36180174350738525,
        -0.25742924213409424,
        0.26990920305252075
      ],
      "rotation": [
        0.0,
        -0.05436631138702006,
        0.0,
        0.9985210584590442
      ]
    },
    {
      "name": "St2Break_FX03",
      "translation": [
        0.7802260518074036,
        0.04697098955512047,
        0.024378489702939987
      ],
      "rotation": [
        0.0075202970684300294,
        -0.007695167101800367,
        -0.69889575167501,
        0.7151426136131201
      ]
    },
    {
      "name": "St2Break_FX04",
      "translation": [
        -0.031243549659848213,
        -0.03711993992328644,
        0.024378489702939987
      ],
      "rotation": [
        0.12314427505755389,
        0.06905825293247138,
        0.5039409960058239,
        0.8521208349636474
      ]
    },
    {
      "name": "St2Break_FX05",
      "translation": [
        -0.6798243522644043,
        0.06029520928859711,
        0.024378489702939987
      ],
      "rotation": [
        -0.03791473032097499,
        -0.037533010806422976,
        0.48335882758252574,
        0.8737951648338134
      ]
    },
    {
      "name": "BenchC01_State03",
      "translation": [
        -0.026000209152698517,
        -0.13442301750183105,
        -0.04203769937157631
      ],
      "rotation": [
        0.0,
        0.013896993477402694,
        0.0,
        0.9999034321234671
      ]
    },
    {
      "name": "BenchC02_State03",
      "translation": [
        0.0,
        -0.11515016108751297,
        0.0
      ]
    },
    {
      "name": "BenchC03_State03",
      "translation": [
        0.0,
        -0.09143280982971191,
        0.02449991926550865
      ],
      "rotation": [
        -0.008156072319793962,
        0.005330125782597174,
        -0.02161143340058683,
        0.9997189676053103
      ]
    },
    {
      "name": "BenchC04_State03",
      "translation": [
        0.04311610013246536,
        -0.031269680708646774,
        0.01087655033916235
      ],
      "rotation": [
        0.0,
        0.04361937988319551,
        0.0,
        0.999048221908535
      ]
    },
    {
      "name": "BenchC01_State04",
      "translation": [
        0.0,
        -0.11515016108751297,
        0.0
      ],
      "rotation": [
        -0.0015782265890895138,
        -0.03765000823019728,
        0.04185447894721528,
        0.9984128347899396
      ]
    },
    {
      "name": "MeshNode_LOD0",
      "mesh": 0,
      "skin": 0
    },
    {
      "name": "Correction_Root",
      "rotation": [
        -0.70710678,
        0.0,
        0.0,
        0.70710678
      ],
      "children": [
        0,
        17
      ]
    }
  ],
  "meshes": [
    {
      "name": "Mesh_LOD0",
      "primitives": [
        {
          "attributes": {
            "POSITION": 1,
            "JOINTS_0": 3,
            "WEIGHTS_0": 4,
            "TEXCOORD_0": 2
          },
          "indices": 5,
          "material": 0
        },
        {
          "attributes": {
            "POSITION": 1,
            "JOINTS_0": 3,
            "WEIGHTS_0": 4,
            "TEXCOORD_0": 2
          },
          "indices": 6,
          "material": 1
        },
        {
          "attributes": {
            "POSITION": 1,
            "JOINTS_0": 3,
            "WEIGHTS_0": 4,
            "TEXCOORD_0": 2
          },
          "indices": 7,
          "material": 0
        },
        {
          "attributes": {
            "POSITION": 1,
            "JOINTS_0": 3,
            "WEIGHTS_0": 4,
            "TEXCOORD_0": 2
          },
          "indices": 8,
          "material": 1
        },
        {
          "attributes": {
            "POSITION": 1,
            "JOINTS_0": 3,
            "WEIGHTS_0": 4,
            "TEXCOORD_0": 2
          },
          "indices": 9,
          "material": 0
        },
        {
          "attributes": {
            "POSITION": 1,
            "JOINTS_0": 3,
            "WEIGHTS_0": 4,
            "TEXCOORD_0": 2
          },
          "indices": 10,
          "material": 1
        },
        {
          "attributes": {
            "POSITION": 1,
            "JOINTS_0": 3,
            "WEIGHTS_0": 4,
            "TEXCOORD_0": 2
          },
          "indices": 11,
          "material": 1
        },
        {
          "attributes": {
            "POSITION": 1,
            "JOINTS_0": 3,
            "WEIGHTS_0": 4,
            "TEXCOORD_0": 2
          },
          "indices": 12,
          "material": 1
        },
        {
          "attributes": {
            "POSITION": 1,
            "JOINTS_0": 3,
            "WEIGHTS_0": 4,
            "TEXCOORD_0": 2
          },
          "indices": 13,
          "material": 0
        },
        {
          "attributes": {
            "POSITION": 1,
            "JOINTS_0": 3,
            "WEIGHTS_0": 4,
            "TEXCOORD_0": 2
          },
          "indices": 14,
          "material": 0
        },
        {
          "attributes": {
            "POSITION": 1,
            "JOINTS_0": 3,
            "WEIGHTS_0": 4,
            "TEXCOORD_0": 2
          },
          "indices": 15,
          "material": 1
        }
      ]
    }
  ],
  "skins": [
    {
      "inverseBindMatrices": 0,
      "joints": [
        0,
        1,
        2,
        3,
        4,
        5,
        6,
        7,
        8,
        9,
        10,
        11,
        12,
        13,
        14,
        15,
        16
      ],
      "name": "Armature",
      "skeleton": 0
    }
  ],
  "materials": [
    {
      "name": "GRAPHICS\\_MATERIALS\\KLAD-M-3008200742371200.xbm",
      "pbrMetallicRoughness": {
        "baseColorFactor": [
          1.0,
          1.0,
          1.0,
          1.0
        ],
        "metallicFactor": 0.0,
        "roughnessFactor": 1.0,
        "baseColorTexture": {
          "index": 0,
          "texCoord": 0
        }
      },
      "doubleSided": true
    },
    {
      "name": "GRAPHICS\\_MATERIALS\\FBOIVIN2-M-2007071838692385.xbm",
      "pbrMetallicRoughness": {
        "baseColorFactor": [
          1.0,
          1.0,
          1.0,
          1.0
        ],
        "metallicFactor": 0.0,
        "roughnessFactor": 1.0,
        "baseColorTexture": {
          "index": 1,
          "texCoord": 0
        }
      },
      "doubleSided": true
    }
  ],
  "textures": [
    {
      "sampler": 0,
      "source": 0
    },
    {
      "sampler": 0,
      "source": 1
    }
  ],
  "images": [
    {
      "name": "infra_bridges_metal_dark_d",
      "mimeType": "image/png",
      "uri": "data:image/png;base64,"
    },
    {
      "name": "paintedwood_02_d",
      "mimeType": "image/png",
      "uri": "data:image/png;base64,"
    }
  ],
  "samplers": [
    {
      "magFilter": 9729,
      "minFilter": 9987,
      "wrapS": 10497,
      "wrapT": 10497
    }
  ],
  "accessors": [
    {
      "bufferView": 0,
      "componentType": 5126,
      "count": 17,
      "type": "MAT4"
    },
    {
      "bufferView": 1,
      "componentType": 5126,
      "count": 4054,
      "type": "VEC3",
      "min": [
        -1.1504257321357727,
        -0.5037995539605618,
        -0.10852381959557533
      ],
      "max": [
        1.1965086814016104,
        0.5119785144925117,
        1.1015350800007582
      ]
    },
    {
      "bufferView": 2,
      "componentType": 5126,
      "count": 4054,
      "type": "VEC2"
    },
    {
      "bufferView": 3,
      "componentType": 5123,
      "count": 4054,
      "type": "VEC4"
    },
    {
      "bufferView": 4,
      "componentType": 5126,
      "count": 4054,
      "type": "VEC4"
    },
    {
      "bufferView": 5,
      "componentType": 5123,
      "count": 1992,
      "type": "SCALAR"
    },
    {
      "bufferView": 6,
      "componentType": 5123,
      "count": 996,
      "type": "SCALAR"
    },
    {
      "bufferView": 7,
      "componentType": 5123,
      "count": 1956,
      "type": "SCALAR"
    },
    {
      "bufferView": 8,
      "componentType": 5123,
      "count": 1140,
      "type": "SCALAR"
    },
    {
      "bufferView": 9,
      "componentType": 5123,
      "count": 792,
      "type": "SCALAR"
    },
    {
      "bufferView": 10,
      "componentType": 5123,
      "count": 390,
      "type": "SCALAR"
    },
    {
      "bufferView": 11,
      "componentType": 5123,
      "count": 54,
      "type": "SCALAR"
    },
    {
      "bufferView": 12,
      "componentType": 5123,
      "count": 84,
      "type": "SCALAR"
    },
    {
      "bufferView": 13,
      "componentType": 5123,
      "count": 660,
      "type": "SCALAR"
    },
    {
      "bufferView": 14,
      "componentType": 5123,
      "count": 258,
      "type": "SCALAR"
    },
    {
      "bufferView": 15,
      "componentType": 5123,
      "count": 150,
      "type": "SCALAR"
    }
  ],
  "bufferViews": [
    {
      "buffer": 0,
      "byteOffset": 0,
      "byteLength": 1088
    },
    {
      "buffer": 0,
      "byteOffset": 1088,
      "byteLength": 48648,
      "target": 34962
    },
    {
      "buffer": 0,
      "byteOffset": 49736,
      "byteLength": 32432,
      "target": 34962
    },
    {
      "buffer": 0,
      "byteOffset": 82168,
      "byteLength": 32432,
      "target": 34962
    },
    {
      "buffer": 0,
      "byteOffset": 114600,
      "byteLength": 64864,
      "target": 34962
    },
    {
      "buffer": 0,
      "byteOffset": 179464,
      "byteLength": 3984,
      "target": 34963
    },
    {
      "buffer": 0,
      "byteOffset": 183448,
      "byteLength": 1992,
      "target": 34963
    },
    {
      "buffer": 0,
      "byteOffset": 185440,
      "byteLength": 3912,
      "target": 34963
    },
    {
      "buffer": 0,
      "byteOffset": 189352,
      "byteLength": 2280,
      "target": 34963
    },
    {
      "buffer": 0,
      "byteOffset": 191632,
      "byteLength": 1584,
      "target": 34963
    },
    {
      "buffer": 0,
      "byteOffset": 193216,
      "byteLength": 780,
      "target": 34963
    },
    {
      "buffer": 0,
      "byteOffset": 193996,
      "byteLength": 108,
      "target": 34963
    },
    {
      "buffer": 0,
      "byteOffset": 194104,
      "byteLength": 168,
      "target": 34963
    },
    {
      "buffer": 0,
      "byteOffset": 194272,
      "byteLength": 1320,
      "target": 34963
    },
    {
      "buffer": 0,
      "byteOffset": 195592,
      "byteLength": 516,
      "target": 34963
    },
    {
      "buffer": 0,
      "byteOffset": 196108,
      "byteLength": 300,
      "target": 34963
    }
  ],
  "buffers": [
    {
      "byteLength": 196408,
      "uri": "benchcolonial01_bk.bin"
    }
  ]
}