{
  "asset": {
    "version": "2.0",
    "generator": "XBG to GLTF Converter with Textures"
  },
  "scene": 0,
  "scenes": [
    {
      "name": "Scene",
      "nodes": [
        3
      ]
    }
  ],
  "nodes": [
    {
      "name": "Emulator",
      "children": [
        1
      ]
    },
    {
      "name": "Bone_Emulator",
      "translation": [
        7.999999951380232e-08,
        0.42626628279685974,
        0.10568644106388092
      ]
    },
    {
      "name": "MeshNode_LOD0",
      "mesh": 0,
      "skin": 0
    },
    {
      "name": "Correction_Root",
      "rotation": [
        -0.70710678,
        0.0,
        0.0,
        0.70710678
      ],
      "children": [
        0,
        2
      ]
    }
  ],
  "meshes": [
    {
      "name": "Mesh_LOD0",
      "primitives": [
        {
          "attributes": {
            "POSITION": 1,
            "JOINTS_0": 3,
            "WEIGHTS_0": 4,
            "TEXCOORD_0": 2
          },
          "indices": 5,
          "material": 0
        }
      ]
    }
  ],
  "skins": [
    {
      "inverseBindMatrices": 0,
      "joints": [
        0,
        1
      ],
      "name": "Armature",
      "skeleton": 0
    }
  ],
  "materials": [
    {
      "name": "GRAPHICS\\_MATERIALS\\GRASSAM-M-2009070339016746.xbm",
      "pbrMetallicRoughness": {
        "baseColorFactor": [
          1.0,
          1.0,
          1.0,
          1.0
        ],
        "metallicFactor": 0.0,
        "roughnessFactor": 1.0,
        "baseColorTexture": {
          "index": 0,
          "texCoord": 0
        }
      },
      "doubleSided": true
    }
  ],
  "textures": [
    {
      "sampler": 0,
      "source": 0
    }
  ],
  "images": [
    {
      "name": "emulator_d",
      "mimeType": "image/png",
      "uri": "data:image/png;base64,"
    }
  ],
  "samplers": [
    {
      "magFilter": 9729,
      "minFilter": 9987,
      "wrapS": 10497,
      "wrapT": 10497
    }
  ],
  "accessors": [
    {
      "bufferView": 0,
      "componentType": 5126,
      "count": 2,
      "type": "MAT4"
    },
    {
      "bufferView": 1,
      "componentType": 5126,
      "count": 1775,
      "type": "VEC3",
      "min": [
        -0.06701864674687386,
        -0.11444441042840481,
        0.02154606766998768
      ],
      "max": [
        0.07025360874831676,
        1.395550400018692,
        0.30713827908039093
      ]
    },
    {
      "bufferView": 2,
      "componentType": 5126,
      "count": 1775,
      "type": "VEC2"
    },
    {
      "bufferView": 3,
      "componentType": 5123,
      "count": 1775,
      "type": "VEC4"
    },
    {
      "bufferView": 4,
      "componentType": 5126,
      "count": 1775,
      "type": "VEC4"
    },
    {
      "bufferView": 5,
      "componentType": 5123,
      "count": 4608,
      "type": "SCALAR"
    }
  ],
  "bufferViews": [
    {
      "buffer": 0,
      "byteOffset": 0,
      "byteLength": 128
    },
    {
      "buffer": 0,
      "byteOffset": 128,
      "byteLength": 21300,
      "target": 34962
    },
    {
      "buffer": 0,
      "byteOffset": 21428,
      "byteLength": 14200,
      "target": 34962
    },
    {
      "buffer": 0,
      "byteOffset": 35628,
      "byteLength": 14200,
      "target": 34962
    },
    {
      "buffer": 0,
      "byteOffset": 49828,
      "byteLength": 28400,
      "target": 34962
    },
    {
      "buffer": 0,
      "byteOffset": 78228,
      "byteLength": 9216,
      "target": 34963
    }
  ],
  "buffers": [
    {
      "byteLength": 87444,
      "uri": "emulator.bin"
    }
  ]
}