{
  "asset": {
    "version": "2.0",
    "generator": "XBG to GLTF Converter with Textures"
  },
  "scene": 0,
  "scenes": [
    {
      "name": "Scene",
      "nodes": [
        9
      ]
    }
  ],
  "nodes": [
    {
      "name": "ChairsTouristResolve01_BK",
      "children": [
        1
      ]
    },
    {
      "name": "CTouristResort_State",
      "translation": [
        0.2970176637172699,
        0.031414490193128586,
        0.4933478534221649
      ],
      "children": [
        2,
        6,
        7
      ]
    },
    {
      "name": "CTouristResort_State01",
      "translation": [
        -0.2970176339149475,
        -0.031414490193128586,
        -0.4933478534221649
      ],
      "children": [
        3,
        4,
        5
      ]
    },
    {
      "name": "Break_FX01",
      "translation": [
        0.03642648831009865,
        0.0,
        0.1755794733762741
      ]
    },
    {
      "name": "Break_FX02",
      "translation": [
        0.010880650021135807,
        0.603723406791687,
        0.7473044991493225
      ]
    },
    {
      "name": "Break_FX03",
      "translation": [
        -0.6882681846618652,
        -0.566886842250824,
        0.21329408884048462
      ],
      "rotation": [
        0.0,
        0.0,
        0.9995674530717891,
        0.029409297162236694
      ]
    },
    {
      "name": "CTouristResort_State02",
      "translation": [
        -0.2970176339149475,
        -0.031414490193128586,
        -0.4933478534221649
      ]
    },
    {
      "name": "CTouristResort2_State02",
      "translation": [
        0.07673714309930801,
        0.17727027833461761,
        0.1268371194601059
      ]
    },
    {
      "name": "MeshNode_LOD0",
      "mesh": 0,
      "skin": 0
    },
    {
      "name": "Correction_Root",
      "rotation": [
        -0.70710678,
        0.0,
        0.0,
        0.70710678
      ],
      "children": [
        0,
        8
      ]
    }
  ],
  "meshes": [
    {
      "name": "Mesh_LOD0",
      "primitives": [
        {
          "attributes": {
            "POSITION": 1,
            "JOINTS_0": 3,
            "WEIGHTS_0": 4,
            "TEXCOORD_0": 2
          },
          "indices": 5,
          "material": 0
        },
        {
          "attributes": {
            "POSITION": 1,
            "JOINTS_0": 3,
            "WEIGHTS_0": 4,
            "TEXCOORD_0": 2
          },
          "indices": 6,
          "material": 1
        },
        {
          "attributes": {
            "POSITION": 1,
            "JOINTS_0": 3,
            "WEIGHTS_0": 4,
            "TEXCOORD_0": 2
          },
          "indices": 7,
          "material": 0
        },
        {
          "attributes": {
            "POSITION": 1,
            "JOINTS_0": 3,
            "WEIGHTS_0": 4,
            "TEXCOORD_0": 2
          },
          "indices": 8,
          "material": 1
        },
        {
          "attributes": {
            "POSITION": 1,
            "JOINTS_0": 3,
            "WEIGHTS_0": 4,
            "TEXCOORD_0": 2
          },
          "indices": 9,
          "material": 0
        }
      ]
    }
  ],
  "skins": [
    {
      "inverseBindMatrices": 0,
      "joints": [
        0,
        1,
        2,
        3,
        4,
        5,
        6,
        7
      ],
      "name": "Armature",
      "skeleton": 0
    }
  ],
  "materials": [
    {
      "name": "GRAPHICS\\_MATERIALS\\SLABRECHE-M-2007112052213770.xbm",
      "pbrMetallicRoughness": {
        "baseColorFactor": [
          1.0,
          1.0,
          1.0,
          1.0
        ],
        "metallicFactor": 0.0,
        "roughnessFactor": 1.0,
        "baseColorTexture": {
          "index": 0,
          "texCoord": 0
        }
      },
      "doubleSided": true
    },
    {
      "name": "GRAPHICS\\_MATERIALS\\SLABRECHE-M-2007111962082265.xbm",
      "pbrMetallicRoughness": {
        "baseColorFactor": [
          1.0,
          1.0,
          1.0,
          1.0
        ],
        "metallicFactor": 0.0,
        "roughnessFactor": 1.0,
        "baseColorTexture": {
          "index": 1,
          "texCoord": 0
        }
      },
      "doubleSided": true
    }
  ],
  "textures": [
    {
      "sampler": 0,
      "source": 0
    },
    {
      "sampler": 0,
      "source": 1
    }
  ],
  "images": [
    {
      "name": "clay_01_d",
      "mimeType": "image/png",
      "uri": "data:image/png;base64,"
    },
    {
      "name": "clay02_d",
      "mimeType": "image/png",
      "uri": "data:image/png;base64,"
    }
  ],
  "samplers": [
    {
      "magFilter": 9729,
      "minFilter": 9987,
      "wrapS": 10497,
      "wrapT": 10497
    }
  ],
  "accessors": [
    {
      "bufferView": 0,
      "componentType": 5126,
      "count": 8,
      "type": "MAT4"
    },
    {
      "bufferView": 1,
      "componentType": 5126,
      "count": 6007,
      "type": "VEC3",
      "min": [
        -1.2179326750338078,
        -0.6127506326884031,
        -0.187322610989213
      ],
      "max": [
        1.2526627387851477,
        0.660969877615571,
        1.221289711073041
      ]
    },
    {
      "bufferView": 2,
      "componentType": 5126,
      "count": 6007,
      "type": "VEC2"
    },
    {
      "bufferView": 3,
      "componentType": 5123,
      "count": 6007,
      "type": "VEC4"
    },
    {
      "bufferView": 4,
      "componentType": 5126,
      "count": 6007,
      "type": "VEC4"
    },
    {
      "bufferView": 5,
      "componentType": 5123,
      "count": 1524,
      "type": "SCALAR"
    },
    {
      "bufferView": 6,
      "componentType": 5123,
      "count": 6900,
      "type": "SCALAR"
    },
    {
      "bufferView": 7,
      "componentType": 5123,
      "count": 1128,
      "type": "SCALAR"
    },
    {
      "bufferView": 8,
      "componentType": 5123,
      "count": 6618,
      "type": "SCALAR"
    },
    {
      "bufferView": 9,
      "componentType": 5123,
      "count": 396,
      "type": "SCALAR"
    }
  ],
  "bufferViews": [
    {
      "buffer": 0,
      "byteOffset": 0,
      "byteLength": 512
    },
    {
      "buffer": 0,
      "byteOffset": 512,
      "byteLength": 72084,
      "target": 34962
    },
    {
      "buffer": 0,
      "byteOffset": 72596,
      "byteLength": 48056,
      "target": 34962
    },
    {
      "buffer": 0,
      "byteOffset": 120652,
      "byteLength": 48056,
      "target": 34962
    },
    {
      "buffer": 0,
      "byteOffset": 168708,
      "byteLength": 96112,
      "target": 34962
    },
    {
      "buffer": 0,
      "byteOffset": 264820,
      "byteLength": 3048,
      "target": 34963
    },
    {
      "buffer": 0,
      "byteOffset": 267868,
      "byteLength": 13800,
      "target": 34963
    },
    {
      "buffer": 0,
      "byteOffset": 281668,
      "byteLength": 2256,
      "target": 34963
    },
    {
      "buffer": 0,
      "byteOffset": 283924,
      "byteLength": 13236,
      "target": 34963
    },
    {
      "buffer": 0,
      "byteOffset": 297160,
      "byteLength": 792,
      "target": 34963
    }
  ],
  "buffers": [
    {
      "byteLength": 297952,
      "uri": "chairstouristresolve01_bk.bin"
    }
  ]
}