{
  "asset": {
    "version": "2.0",
    "generator": "XBG to GLTF Converter with Textures"
  },
  "scene": 0,
  "scenes": [
    {
      "name": "Scene",
      "nodes": [
        6
      ]
    }
  ],
  "nodes": [
    {
      "name": "STANDARD_ISSUE_07",
      "children": [
        1,
        2,
        3,
        4
      ]
    },
    {
      "name": "STANDARD_ISSUE_FX_FIRE",
      "translation": [
        0.6463479995727539,
        0.004937590099871159,
        0.13278116285800934
      ],
      "rotation": [
        -1.697056291050108e-07,
        1.6970560899112813e-07,
        -0.7071067690849289,
        0.7071067932881252
      ]
    },
    {
      "name": "STANDARD_ISSUE_FX_CASING",
      "translation": [
        0.04555317014455795,
        0.008050300180912018,
        0.12042699754238129
      ],
      "rotation": [
        -4.3212181874667005e-16,
        0.23372016338764043,
        0.9723039057959464,
        -4.371138553828386e-08
      ]
    },
    {
      "name": "STANDARD_ISSUE_FRAME",
      "translation": [
        -0.2615373432636261,
        0.00492716021835804,
        -0.0441807396709919
      ]
    },
    {
      "name": "STANDARD_ISSUE_CLIP",
      "translation": [
        -0.16424015164375305,
        0.006526949815452099,
        0.008658469654619694
      ]
    },
    {
      "name": "MeshNode_LOD0",
      "mesh": 0,
      "skin": 0
    },
    {
      "name": "Correction_Root",
      "rotation": [
        -0.70710678,
        0.0,
        0.0,
        0.70710678
      ],
      "children": [
        0,
        5
      ]
    }
  ],
  "meshes": [
    {
      "name": "Mesh_LOD0",
      "primitives": [
        {
          "attributes": {
            "POSITION": 1,
            "JOINTS_0": 3,
            "WEIGHTS_0": 4,
            "TEXCOORD_0": 2
          },
          "indices": 5,
          "material": 0
        },
        {
          "attributes": {
            "POSITION": 1,
            "JOINTS_0": 3,
            "WEIGHTS_0": 4,
            "TEXCOORD_0": 2
          },
          "indices": 6,
          "material": 1
        },
        {
          "attributes": {
            "POSITION": 1,
            "JOINTS_0": 3,
            "WEIGHTS_0": 4,
            "TEXCOORD_0": 2
          },
          "indices": 7,
          "material": 1
        }
      ]
    }
  ],
  "skins": [
    {
      "inverseBindMatrices": 0,
      "joints": [
        0,
        1,
        2,
        3,
        4
      ],
      "name": "Armature",
      "skeleton": 0
    }
  ],
  "materials": [
    {
      "name": "GRAPHICS\\_MATERIALS\\GRASSAM-M-2009071463556557.xbm",
      "pbrMetallicRoughness": {
        "baseColorFactor": [
          1.0,
          1.0,
          1.0,
          1.0
        ],
        "metallicFactor": 0.0,
        "roughnessFactor": 1.0,
        "baseColorTexture": {
          "index": 0,
          "texCoord": 0
        }
      },
      "doubleSided": true
    },
    {
      "name": "GRAPHICS\\_MATERIALS\\GRASSAM-M-2009071534424877.xbm",
      "pbrMetallicRoughness": {
        "baseColorFactor": [
          1.0,
          1.0,
          1.0,
          1.0
        ],
        "metallicFactor": 0.0,
        "roughnessFactor": 1.0,
        "baseColorTexture": {
          "index": 1,
          "texCoord": 0
        }
      },
      "doubleSided": true
    }
  ],
  "textures": [
    {
      "sampler": 0,
      "source": 0
    },
    {
      "sampler": 0,
      "source": 1
    }
  ],
  "images": [
    {
      "name": "shotgun_3rd_06_sight_d",
      "mimeType": "image/png",
      "uri": "data:image/png;base64,"
    },
    {
      "name": "standard_issue_3rd_07_d",
      "mimeType": "image/png",
      "uri": "data:image/png;base64,"
    }
  ],
  "samplers": [
    {
      "magFilter": 9729,
      "minFilter": 9987,
      "wrapS": 10497,
      "wrapT": 10497
    }
  ],
  "accessors": [
    {
      "bufferView": 0,
      "componentType": 5126,
      "count": 5,
      "type": "MAT4"
    },
    {
      "bufferView": 1,
      "componentType": 5126,
      "count": 949,
      "type": "VEC3",
      "min": [
        -0.09515671245753765,
        -0.02334665972739458,
        -0.055116428062319756
      ],
      "max": [
        0.9344767592847347,
        0.02652058470994234,
        0.27527695521712303
      ]
    },
    {
      "bufferView": 2,
      "componentType": 5126,
      "count": 949,
      "type": "VEC2"
    },
    {
      "bufferView": 3,
      "componentType": 5123,
      "count": 949,
      "type": "VEC4"
    },
    {
      "bufferView": 4,
      "componentType": 5126,
      "count": 949,
      "type": "VEC4"
    },
    {
      "bufferView": 5,
      "componentType": 5123,
      "count": 12,
      "type": "SCALAR"
    },
    {
      "bufferView": 6,
      "componentType": 5123,
      "count": 2280,
      "type": "SCALAR"
    },
    {
      "bufferView": 7,
      "componentType": 5123,
      "count": 60,
      "type": "SCALAR"
    }
  ],
  "bufferViews": [
    {
      "buffer": 0,
      "byteOffset": 0,
      "byteLength": 320
    },
    {
      "buffer": 0,
      "byteOffset": 320,
      "byteLength": 11388,
      "target": 34962
    },
    {
      "buffer": 0,
      "byteOffset": 11708,
      "byteLength": 7592,
      "target": 34962
    },
    {
      "buffer": 0,
      "byteOffset": 19300,
      "byteLength": 7592,
      "target": 34962
    },
    {
      "buffer": 0,
      "byteOffset": 26892,
      "byteLength": 15184,
      "target": 34962
    },
    {
      "buffer": 0,
      "byteOffset": 42076,
      "byteLength": 24,
      "target": 34963
    },
    {
      "buffer": 0,
      "byteOffset": 42100,
      "byteLength": 4560,
      "target": 34963
    },
    {
      "buffer": 0,
      "byteOffset": 46660,
      "byteLength": 120,
      "target": 34963
    }
  ],
  "buffers": [
    {
      "byteLength": 46780,
      "uri": "standard_issue_07.bin"
    }
  ]
}