{
  "asset": {
    "version": "2.0",
    "generator": "XBG to GLTF Converter with Textures"
  },
  "scene": 0,
  "scenes": [
    {
      "name": "Scene",
      "nodes": [
        14
      ]
    }
  ],
  "nodes": [
    {
      "name": "BrickCoverW1_BK",
      "children": [
        1
      ]
    },
    {
      "name": "StatePrim",
      "translation": [
        0.0,
        -0.4494093954563141,
        0.0
      ],
      "children": [
        2,
        3,
        4,
        5,
        6,
        7,
        8,
        9,
        10,
        11,
        12
      ]
    },
    {
      "name": "State03_State02Prim",
      "translation": [
        0.0,
        -0.8185635805130005,
        0.23583228886127472
      ]
    },
    {
      "name": "State01_State01Prim",
      "translation": [
        0.0,
        0.4494093954563141,
        0.0
      ]
    },
    {
      "name": "State03_NMD_Node01",
      "translation": [
        0.3057849109172821,
        0.4211775064468384,
        1.006806492805481
      ]
    },
    {
      "name": "State03_NMD_Node02",
      "translation": [
        -0.36729803681373596,
        0.832283079624176,
        1.012211561203003
      ],
      "rotation": [
        -0.03520360292989176,
        -0.7062299854120946,
        0.10880454860926013,
        0.6986855415189429
      ]
    },
    {
      "name": "State03_NMD_Node03",
      "translation": [
        -0.8635076880455017,
        0.6565290093421936,
        0.49042025208473206
      ],
      "rotation": [
        0.1626722201891226,
        0.8780671862087247,
        0.10789251670729666,
        -0.4369152893795998
      ]
    },
    {
      "name": "State03_NMD_Node04",
      "translation": [
        -0.0883154571056366,
        0.24402381479740143,
        1.006806492805481
      ]
    },
    {
      "name": "State03_NMD_Node06",
      "translation": [
        -0.6005690097808838,
        -0.028122249990701675,
        1.008618950843811
      ],
      "rotation": [
        0.0,
        0.0,
        -0.13084765015404692,
        0.9914024876149767
      ]
    },
    {
      "name": "State03_NMD_Node07",
      "translation": [
        -0.08826834708452225,
        0.9824974536895752,
        1.0228115320205688
      ],
      "rotation": [
        0.09242384031129941,
        0.7147167921020088,
        0.0449358638392459,
        0.6918225991054662
      ]
    },
    {
      "name": "State03_NMD_Node08",
      "translation": [
        0.5052894353866577,
        0.04732314869761467,
        0.8855574727058411
      ],
      "rotation": [
        0.20913827551309447,
        0.9778361382226128,
        0.0022854642416460422,
        -0.00961484032641536
      ]
    },
    {
      "name": "State03_NMD_Node09",
      "translation": [
        -0.12784336507320404,
        1.5014724731445312,
        0.5611973404884338
      ]
    },
    {
      "name": "State03_NMD_Node10",
      "translation": [
        0.2150612622499466,
        -0.6803746819496155,
        0.5611973404884338
      ],
      "rotation": [
        0.14597204041683265,
        0.3444351199790263,
        -0.289778584727006,
        0.8809568558348089
      ]
    },
    {
      "name": "MeshNode_LOD0",
      "mesh": 0,
      "skin": 0
    },
    {
      "name": "Correction_Root",
      "rotation": [
        -0.70710678,
        0.0,
        0.0,
        0.70710678
      ],
      "children": [
        0,
        13
      ]
    }
  ],
  "meshes": [
    {
      "name": "Mesh_LOD0",
      "primitives": [
        {
          "attributes": {
            "POSITION": 1,
            "JOINTS_0": 3,
            "WEIGHTS_0": 4,
            "TEXCOORD_0": 2
          },
          "indices": 5,
          "material": 1
        },
        {
          "attributes": {
            "POSITION": 1,
            "JOINTS_0": 3,
            "WEIGHTS_0": 4,
            "TEXCOORD_0": 2
          },
          "indices": 6,
          "material": 1
        },
        {
          "attributes": {
            "POSITION": 1,
            "JOINTS_0": 3,
            "WEIGHTS_0": 4,
            "TEXCOORD_0": 2
          },
          "indices": 7,
          "material": 1
        },
        {
          "attributes": {
            "POSITION": 1,
            "JOINTS_0": 3,
            "WEIGHTS_0": 4,
            "TEXCOORD_0": 2
          },
          "indices": 8,
          "material": 1
        },
        {
          "attributes": {
            "POSITION": 1,
            "JOINTS_0": 3,
            "WEIGHTS_0": 4,
            "TEXCOORD_0": 2
          },
          "indices": 9,
          "material": 1
        },
        {
          "attributes": {
            "POSITION": 1,
            "JOINTS_0": 3,
            "WEIGHTS_0": 4,
            "TEXCOORD_0": 2
          },
          "indices": 10,
          "material": 1
        },
        {
          "attributes": {
            "POSITION": 1,
            "JOINTS_0": 3,
            "WEIGHTS_0": 4,
            "TEXCOORD_0": 2
          },
          "indices": 11,
          "material": 1
        },
        {
          "attributes": {
            "POSITION": 1,
            "JOINTS_0": 3,
            "WEIGHTS_0": 4,
            "TEXCOORD_0": 2
          },
          "indices": 12,
          "material": 1
        },
        {
          "attributes": {
            "POSITION": 1,
            "JOINTS_0": 3,
            "WEIGHTS_0": 4,
            "TEXCOORD_0": 2
          },
          "indices": 13,
          "material": 1
        },
        {
          "attributes": {
            "POSITION": 1,
            "JOINTS_0": 3,
            "WEIGHTS_0": 4,
            "TEXCOORD_0": 2
          },
          "indices": 14,
          "material": 1
        },
        {
          "attributes": {
            "POSITION": 1,
            "JOINTS_0": 3,
            "WEIGHTS_0": 4,
            "TEXCOORD_0": 2
          },
          "indices": 15,
          "material": 1
        }
      ]
    }
  ],
  "skins": [
    {
      "inverseBindMatrices": 0,
      "joints": [
        0,
        1,
        2,
        3,
        4,
        5,
        6,
        7,
        8,
        9,
        10,
        11,
        12
      ],
      "name": "Armature",
      "skeleton": 0
    }
  ],
  "materials": [
    {
      "name": "GRAPHICS\\_MATERIALS\\TRODRIGUE-M-2007053155132751.xbm",
      "pbrMetallicRoughness": {
        "baseColorFactor": [
          1.0,
          1.0,
          1.0,
          1.0
        ],
        "metallicFactor": 0.0,
        "roughnessFactor": 1.0,
        "baseColorTexture": {
          "index": 0,
          "texCoord": 0
        }
      },
      "doubleSided": true
    },
    {
      "name": "GRAPHICS\\_MATERIALS\\APARE-M-2008032560451390.xbm",
      "pbrMetallicRoughness": {
        "baseColorFactor": [
          1.0,
          1.0,
          1.0,
          1.0
        ],
        "metallicFactor": 0.0,
        "roughnessFactor": 1.0,
        "baseColorTexture": {
          "index": 1,
          "texCoord": 0
        }
      },
      "doubleSided": true
    }
  ],
  "textures": [
    {
      "sampler": 0,
      "source": 0
    },
    {
      "sampler": 0,
      "source": 1
    }
  ],
  "images": [
    {
      "name": "grey",
      "mimeType": "image/png",
      "uri": "data:image/png;base64,"
    },
    {
      "name": "concrete_06_d",
      "mimeType": "image/png",
      "uri": "data:image/png;base64,"
    }
  ],
  "samplers": [
    {
      "magFilter": 9729,
      "minFilter": 9987,
      "wrapS": 10497,
      "wrapT": 10497
    }
  ],
  "accessors": [
    {
      "bufferView": 0,
      "componentType": 5126,
      "count": 13,
      "type": "MAT4"
    },
    {
      "bufferView": 1,
      "componentType": 5126,
      "count": 7581,
      "type": "VEC3",
      "min": [
        -0.7301553385332227,
        -0.740318002179265,
        -0.24390392750501633
      ],
      "max": [
        0.49357585329562426,
        2.0208136215806007,
        1.1141392244026065
      ]
    },
    {
      "bufferView": 2,
      "componentType": 5126,
      "count": 7581,
      "type": "VEC2"
    },
    {
      "bufferView": 3,
      "componentType": 5123,
      "count": 7581,
      "type": "VEC4"
    },
    {
      "bufferView": 4,
      "componentType": 5126,
      "count": 7581,
      "type": "VEC4"
    },
    {
      "bufferView": 5,
      "componentType": 5123,
      "count": 5163,
      "type": "SCALAR"
    },
    {
      "bufferView": 6,
      "componentType": 5123,
      "count": 8409,
      "type": "SCALAR"
    },
    {
      "bufferView": 7,
      "componentType": 5123,
      "count": 258,
      "type": "SCALAR"
    },
    {
      "bufferView": 8,
      "componentType": 5123,
      "count": 258,
      "type": "SCALAR"
    },
    {
      "bufferView": 9,
      "componentType": 5123,
      "count": 258,
      "type": "SCALAR"
    },
    {
      "bufferView": 10,
      "componentType": 5123,
      "count": 258,
      "type": "SCALAR"
    },
    {
      "bufferView": 11,
      "componentType": 5123,
      "count": 258,
      "type": "SCALAR"
    },
    {
      "bufferView": 12,
      "componentType": 5123,
      "count": 258,
      "type": "SCALAR"
    },
    {
      "bufferView": 13,
      "componentType": 5123,
      "count": 258,
      "type": "SCALAR"
    },
    {
      "bufferView": 14,
      "componentType": 5123,
      "count": 258,
      "type": "SCALAR"
    },
    {
      "bufferView": 15,
      "componentType": 5123,
      "count": 258,
      "type": "SCALAR"
    }
  ],
  "bufferViews": [
    {
      "buffer": 0,
      "byteOffset": 0,
      "byteLength": 832
    },
    {
      "buffer": 0,
      "byteOffset": 832,
      "byteLength": 90972,
      "target": 34962
    },
    {
      "buffer": 0,
      "byteOffset": 91804,
      "byteLength": 60648,
      "target": 34962
    },
    {
      "buffer": 0,
      "byteOffset": 152452,
      "byteLength": 60648,
      "target": 34962
    },
    {
      "buffer": 0,
      "byteOffset": 213100,
      "byteLength": 121296,
      "target": 34962
    },
    {
      "buffer": 0,
      "byteOffset": 334396,
      "byteLength": 10326,
      "target": 34963
    },
    {
      "buffer": 0,
      "byteOffset": 344722,
      "byteLength": 16818,
      "target": 34963
    },
    {
      "buffer": 0,
      "byteOffset": 361540,
      "byteLength": 516,
      "target": 34963
    },
    {
      "buffer": 0,
      "byteOffset": 362056,
      "byteLength": 516,
      "target": 34963
    },
    {
      "buffer": 0,
      "byteOffset": 362572,
      "byteLength": 516,
      "target": 34963
    },
    {
      "buffer": 0,
      "byteOffset": 363088,
      "byteLength": 516,
      "target": 34963
    },
    {
      "buffer": 0,
      "byteOffset": 363604,
      "byteLength": 516,
      "target": 34963
    },
    {
      "buffer": 0,
      "byteOffset": 364120,
      "byteLength": 516,
      "target": 34963
    },
    {
      "buffer": 0,
      "byteOffset": 364636,
      "byteLength": 516,
      "target": 34963
    },
    {
      "buffer": 0,
      "byteOffset": 365152,
      "byteLength": 516,
      "target": 34963
    },
    {
      "buffer": 0,
      "byteOffset": 365668,
      "byteLength": 516,
      "target": 34963
    }
  ],
  "buffers": [
    {
      "byteLength": 366184,
      "uri": "brickcoverw1_bk.bin"
    }
  ]
}