{
  "asset": {
    "version": "2.0",
    "generator": "XBG to GLTF Converter with Textures"
  },
  "scene": 0,
  "scenes": [
    {
      "name": "Scene",
      "nodes": [
        2
      ]
    }
  ],
  "nodes": [
    {
      "name": "FencePiercableHigh01"
    },
    {
      "name": "MeshNode_LOD0",
      "mesh": 0,
      "skin": 0
    },
    {
      "name": "Correction_Root",
      "rotation": [
        -0.70710678,
        0.0,
        0.0,
        0.70710678
      ],
      "children": [
        0,
        1
      ]
    }
  ],
  "meshes": [
    {
      "name": "Mesh_LOD0",
      "primitives": [
        {
          "attributes": {
            "POSITION": 1,
            "JOINTS_0": 3,
            "WEIGHTS_0": 4,
            "TEXCOORD_0": 2
          },
          "indices": 5,
          "material": 0
        },
        {
          "attributes": {
            "POSITION": 1,
            "JOINTS_0": 3,
            "WEIGHTS_0": 4,
            "TEXCOORD_0": 2
          },
          "indices": 6,
          "material": 1
        },
        {
          "attributes": {
            "POSITION": 1,
            "JOINTS_0": 3,
            "WEIGHTS_0": 4,
            "TEXCOORD_0": 2
          },
          "indices": 7,
          "material": 2
        }
      ]
    }
  ],
  "skins": [
    {
      "inverseBindMatrices": 0,
      "joints": [
        0
      ],
      "name": "Armature",
      "skeleton": 0
    }
  ],
  "materials": [
    {
      "name": "GRAPHICS\\_MATERIALS\\SCHARBONNEAU2-M-2007071953060557.xbm",
      "pbrMetallicRoughness": {
        "baseColorFactor": [
          1.0,
          1.0,
          1.0,
          1.0
        ],
        "metallicFactor": 0.0,
        "roughnessFactor": 1.0,
        "baseColorTexture": {
          "index": 0,
          "texCoord": 0
        }
      },
      "doubleSided": true
    },
    {
      "name": "GRAPHICS\\_MATERIALS\\SFRONCEK-061201-57591208.xbm",
      "pbrMetallicRoughness": {
        "baseColorFactor": [
          1.0,
          1.0,
          1.0,
          1.0
        ],
        "metallicFactor": 0.0,
        "roughnessFactor": 1.0,
        "baseColorTexture": {
          "index": 1,
          "texCoord": 0
        }
      },
      "doubleSided": true
    },
    {
      "name": "GRAPHICS\\_MATERIALS\\SCHARBONNEAU2-M-2007070548756111.xbm",
      "pbrMetallicRoughness": {
        "baseColorFactor": [
          1.0,
          1.0,
          1.0,
          1.0
        ],
        "metallicFactor": 0.0,
        "roughnessFactor": 1.0,
        "baseColorTexture": {
          "index": 2,
          "texCoord": 0
        }
      },
      "doubleSided": true
    }
  ],
  "textures": [
    {
      "sampler": 0,
      "source": 0
    },
    {
      "sampler": 0,
      "source": 1
    },
    {
      "sampler": 0,
      "source": 2
    }
  ],
  "images": [
    {
      "name": "woodplank_01a_d",
      "mimeType": "image/png",
      "uri": "data:image/png;base64,"
    },
    {
      "name": "plywood_01_d",
      "mimeType": "image/png",
      "uri": "data:image/png;base64,"
    },
    {
      "name": "dirt_02_d",
      "mimeType": "image/png",
      "uri": "data:image/png;base64,"
    }
  ],
  "samplers": [
    {
      "magFilter": 9729,
      "minFilter": 9987,
      "wrapS": 10497,
      "wrapT": 10497
    }
  ],
  "accessors": [
    {
      "bufferView": 0,
      "componentType": 5126,
      "count": 1,
      "type": "MAT4"
    },
    {
      "bufferView": 1,
      "componentType": 5126,
      "count": 386,
      "type": "VEC3",
      "min": [
        -1.2630085134878755,
        -0.057222205214202404,
        -0.33271278999745846
      ],
      "max": [
        1.2897427277639508,
        0.010986663401126862,
        2.2202215623110533
      ]
    },
    {
      "bufferView": 2,
      "componentType": 5126,
      "count": 386,
      "type": "VEC2"
    },
    {
      "bufferView": 3,
      "componentType": 5123,
      "count": 386,
      "type": "VEC4"
    },
    {
      "bufferView": 4,
      "componentType": 5126,
      "count": 386,
      "type": "VEC4"
    },
    {
      "bufferView": 5,
      "componentType": 5123,
      "count": 480,
      "type": "SCALAR"
    },
    {
      "bufferView": 6,
      "componentType": 5123,
      "count": 132,
      "type": "SCALAR"
    },
    {
      "bufferView": 7,
      "componentType": 5123,
      "count": 132,
      "type": "SCALAR"
    }
  ],
  "bufferViews": [
    {
      "buffer": 0,
      "byteOffset": 0,
      "byteLength": 64
    },
    {
      "buffer": 0,
      "byteOffset": 64,
      "byteLength": 4632,
      "target": 34962
    },
    {
      "buffer": 0,
      "byteOffset": 4696,
      "byteLength": 3088,
      "target": 34962
    },
    {
      "buffer": 0,
      "byteOffset": 7784,
      "byteLength": 3088,
      "target": 34962
    },
    {
      "buffer": 0,
      "byteOffset": 10872,
      "byteLength": 6176,
      "target": 34962
    },
    {
      "buffer": 0,
      "byteOffset": 17048,
      "byteLength": 960,
      "target": 34963
    },
    {
      "buffer": 0,
      "byteOffset": 18008,
      "byteLength": 264,
      "target": 34963
    },
    {
      "buffer": 0,
      "byteOffset": 18272,
      "byteLength": 264,
      "target": 34963
    }
  ],
  "buffers": [
    {
      "byteLength": 18536,
      "uri": "fencepiercablehigh01.bin"
    }
  ]
}