{
  "asset": {
    "version": "2.0",
    "generator": "XBG to GLTF Converter with Textures"
  },
  "scene": 0,
  "scenes": [
    {
      "name": "Scene",
      "nodes": [
        15
      ]
    }
  ],
  "nodes": [
    {
      "name": "FenceWoodWire04_BK",
      "children": [
        1
      ]
    },
    {
      "name": "FenceWoodWire_04a_STATE",
      "translation": [
        0.01943892054259777,
        0.0037499999161809683,
        0.9856399893760681
      ],
      "children": [
        2,
        9,
        10,
        11,
        12,
        13
      ]
    },
    {
      "name": "FenceWoodWire_040a_STATE1",
      "translation": [
        -0.09829474985599518,
        0.0,
        0.0596616305410862
      ],
      "children": [
        3,
        4,
        5,
        6,
        7,
        8
      ]
    },
    {
      "name": "FW_WireFX03",
      "translation": [
        -0.9061315655708313,
        -0.09866534173488617,
        0.7449226379394531
      ]
    },
    {
      "name": "FW_WireFX04",
      "translation": [
        0.9986742734909058,
        -0.09866534173488617,
        0.6901280283927917
      ]
    },
    {
      "name": "FW_WoodFX_01",
      "translation": [
        -1.9170790910720825,
        0.0,
        -0.32596418261528015
      ],
      "rotation": [
        0.0,
        0.0,
        0.9297071556634384,
        -0.368299612690808
      ]
    },
    {
      "name": "FW_WoodFX_02",
      "translation": [
        -0.04569732025265694,
        0.0,
        0.14454543590545654
      ],
      "rotation": [
        0.0,
        0.0,
        0.9993164427388506,
        -0.036968192703587706
      ]
    },
    {
      "name": "FW_WoodFX_03",
      "translation": [
        1.9689176082611084,
        0.0,
        -0.19874610006809235
      ],
      "rotation": [
        0.0,
        0.0,
        0.9635371150908998,
        0.2675747145047642
      ]
    },
    {
      "name": "FW_WoodFX_04",
      "translation": [
        -0.07202267646789551,
        0.0,
        -0.5667791366577148
      ]
    },
    {
      "name": "FenceWoodWire_042b_STATE2",
      "translation": [
        1.6503249406814575,
        -0.0426013208925724,
        -0.1559588611125946
      ],
      "rotation": [
        -0.019091878638195208,
        -0.0348119373234391,
        -0.0006651499035718316,
        0.9992112823449856
      ]
    },
    {
      "name": "FenceWood3e_STATE02",
      "translation": [
        -1.074831485748291,
        -0.09027832001447678,
        0.814775288105011
      ],
      "rotation": [
        7.417988793280205e-08,
        -0.026120096730273486,
        8.619494545791433e-09,
        0.9996588120687957
      ]
    },
    {
      "name": "FenceWood1e_STATE02",
      "translation": [
        -1.9856417179107666,
        0.04847265034914017,
        -0.1300097554922104
      ],
      "rotation": [
        -0.02747532421163148,
        0.02662682972047081,
        0.004351957809580939,
        0.9992583144321504
      ]
    },
    {
      "name": "FenceWood2e_STATE02",
      "translation": [
        -0.11517386883497238,
        -0.14741821587085724,
        0.30368247628211975
      ],
      "rotation": [
        -0.017110293982687718,
        -0.04018878250647472,
        0.0006882941917001578,
        0.9990453572544176
      ]
    },
    {
      "name": "FenceWood8e_STATE02",
      "translation": [
        -0.5837859511375427,
        -0.17500610649585724,
        -1.3556679487228394
      ]
    },
    {
      "name": "MeshNode_LOD0",
      "mesh": 0,
      "skin": 0
    },
    {
      "name": "Correction_Root",
      "rotation": [
        -0.70710678,
        0.0,
        0.0,
        0.70710678
      ],
      "children": [
        0,
        14
      ]
    }
  ],
  "meshes": [
    {
      "name": "Mesh_LOD0",
      "primitives": [
        {
          "attributes": {
            "POSITION": 1,
            "JOINTS_0": 3,
            "WEIGHTS_0": 4,
            "TEXCOORD_0": 2
          },
          "indices": 5,
          "material": 0
        },
        {
          "attributes": {
            "POSITION": 1,
            "JOINTS_0": 3,
            "WEIGHTS_0": 4,
            "TEXCOORD_0": 2
          },
          "indices": 6,
          "material": 1
        },
        {
          "attributes": {
            "POSITION": 1,
            "JOINTS_0": 3,
            "WEIGHTS_0": 4,
            "TEXCOORD_0": 2
          },
          "indices": 7,
          "material": 2
        },
        {
          "attributes": {
            "POSITION": 1,
            "JOINTS_0": 3,
            "WEIGHTS_0": 4,
            "TEXCOORD_0": 2
          },
          "indices": 8,
          "material": 0
        },
        {
          "attributes": {
            "POSITION": 1,
            "JOINTS_0": 3,
            "WEIGHTS_0": 4,
            "TEXCOORD_0": 2
          },
          "indices": 9,
          "material": 1
        },
        {
          "attributes": {
            "POSITION": 1,
            "JOINTS_0": 3,
            "WEIGHTS_0": 4,
            "TEXCOORD_0": 2
          },
          "indices": 10,
          "material": 2
        },
        {
          "attributes": {
            "POSITION": 1,
            "JOINTS_0": 3,
            "WEIGHTS_0": 4,
            "TEXCOORD_0": 2
          },
          "indices": 11,
          "material": 0
        },
        {
          "attributes": {
            "POSITION": 1,
            "JOINTS_0": 3,
            "WEIGHTS_0": 4,
            "TEXCOORD_0": 2
          },
          "indices": 12,
          "material": 1
        },
        {
          "attributes": {
            "POSITION": 1,
            "JOINTS_0": 3,
            "WEIGHTS_0": 4,
            "TEXCOORD_0": 2
          },
          "indices": 13,
          "material": 2
        },
        {
          "attributes": {
            "POSITION": 1,
            "JOINTS_0": 3,
            "WEIGHTS_0": 4,
            "TEXCOORD_0": 2
          },
          "indices": 14,
          "material": 0
        },
        {
          "attributes": {
            "POSITION": 1,
            "JOINTS_0": 3,
            "WEIGHTS_0": 4,
            "TEXCOORD_0": 2
          },
          "indices": 15,
          "material": 1
        },
        {
          "attributes": {
            "POSITION": 1,
            "JOINTS_0": 3,
            "WEIGHTS_0": 4,
            "TEXCOORD_0": 2
          },
          "indices": 16,
          "material": 2
        },
        {
          "attributes": {
            "POSITION": 1,
            "JOINTS_0": 3,
            "WEIGHTS_0": 4,
            "TEXCOORD_0": 2
          },
          "indices": 17,
          "material": 0
        },
        {
          "attributes": {
            "POSITION": 1,
            "JOINTS_0": 3,
            "WEIGHTS_0": 4,
            "TEXCOORD_0": 2
          },
          "indices": 18,
          "material": 1
        }
      ]
    }
  ],
  "skins": [
    {
      "inverseBindMatrices": 0,
      "joints": [
        0,
        1,
        2,
        3,
        4,
        5,
        6,
        7,
        8,
        9,
        10,
        11,
        12,
        13
      ],
      "name": "Armature",
      "skeleton": 0
    }
  ],
  "materials": [
    {
      "name": "GRAPHICS\\_MATERIALS\\CBERGERONLYONNAIS-M-2007072343331135.xbm",
      "pbrMetallicRoughness": {
        "baseColorFactor": [
          1.0,
          1.0,
          1.0,
          1.0
        ],
        "metallicFactor": 0.0,
        "roughnessFactor": 1.0,
        "baseColorTexture": {
          "index": 0,
          "texCoord": 0
        }
      },
      "doubleSided": true
    },
    {
      "name": "GRAPHICS\\_MATERIALS\\CBERGERONLYONNAIS-M-2007072342101994.xbm",
      "pbrMetallicRoughness": {
        "baseColorFactor": [
          1.0,
          1.0,
          1.0,
          1.0
        ],
        "metallicFactor": 0.0,
        "roughnessFactor": 1.0,
        "baseColorTexture": {
          "index": 1,
          "texCoord": 0
        }
      },
      "doubleSided": true
    },
    {
      "name": "GRAPHICS\\_MATERIALS\\CBERGERONLYONNAIS-M-2007072336401343.xbm",
      "pbrMetallicRoughness": {
        "baseColorFactor": [
          1.0,
          1.0,
          1.0,
          1.0
        ],
        "metallicFactor": 0.0,
        "roughnessFactor": 1.0,
        "baseColorTexture": {
          "index": 2,
          "texCoord": 0
        }
      },
      "doubleSided": true
    }
  ],
  "textures": [
    {
      "sampler": 0,
      "source": 0
    },
    {
      "sampler": 0,
      "source": 1
    },
    {
      "sampler": 0,
      "source": 2
    }
  ],
  "images": [
    {
      "name": "woodrough_01_d",
      "mimeType": "image/png",
      "uri": "data:image/png;base64,"
    },
    {
      "name": "barklineb_d",
      "mimeType": "image/png",
      "uri": "data:image/png;base64,"
    },
    {
      "name": "metalrust_01_d",
      "mimeType": "image/png",
      "uri": "data:image/png;base64,"
    }
  ],
  "samplers": [
    {
      "magFilter": 9729,
      "minFilter": 9987,
      "wrapS": 10497,
      "wrapT": 10497
    }
  ],
  "accessors": [
    {
      "bufferView": 0,
      "componentType": 5126,
      "count": 14,
      "type": "MAT4"
    },
    {
      "bufferView": 1,
      "componentType": 5126,
      "count": 1537,
      "type": "VEC3",
      "min": [
        -2.093325600028038,
        -0.17230750434100628,
        -1.6456190664321184
      ],
      "max": [
        2.0932340444996953,
        0.28199102729558945,
        1.783318581059575
      ]
    },
    {
      "bufferView": 2,
      "componentType": 5126,
      "count": 1537,
      "type": "VEC2"
    },
    {
      "bufferView": 3,
      "componentType": 5123,
      "count": 1537,
      "type": "VEC4"
    },
    {
      "bufferView": 4,
      "componentType": 5126,
      "count": 1537,
      "type": "VEC4"
    },
    {
      "bufferView": 5,
      "componentType": 5123,
      "count": 144,
      "type": "SCALAR"
    },
    {
      "bufferView": 6,
      "componentType": 5123,
      "count": 456,
      "type": "SCALAR"
    },
    {
      "bufferView": 7,
      "componentType": 5123,
      "count": 2862,
      "type": "SCALAR"
    },
    {
      "bufferView": 8,
      "componentType": 5123,
      "count": 72,
      "type": "SCALAR"
    },
    {
      "bufferView": 9,
      "componentType": 5123,
      "count": 156,
      "type": "SCALAR"
    },
    {
      "bufferView": 10,
      "componentType": 5123,
      "count": 42,
      "type": "SCALAR"
    },
    {
      "bufferView": 11,
      "componentType": 5123,
      "count": 90,
      "type": "SCALAR"
    },
    {
      "bufferView": 12,
      "componentType": 5123,
      "count": 150,
      "type": "SCALAR"
    },
    {
      "bufferView": 13,
      "componentType": 5123,
      "count": 768,
      "type": "SCALAR"
    },
    {
      "bufferView": 14,
      "componentType": 5123,
      "count": 75,
      "type": "SCALAR"
    },
    {
      "bufferView": 15,
      "componentType": 5123,
      "count": 165,
      "type": "SCALAR"
    },
    {
      "bufferView": 16,
      "componentType": 5123,
      "count": 330,
      "type": "SCALAR"
    },
    {
      "bufferView": 17,
      "componentType": 5123,
      "count": 93,
      "type": "SCALAR"
    },
    {
      "bufferView": 18,
      "componentType": 5123,
      "count": 105,
      "type": "SCALAR"
    }
  ],
  "bufferViews": [
    {
      "buffer": 0,
      "byteOffset": 0,
      "byteLength": 896
    },
    {
      "buffer": 0,
      "byteOffset": 896,
      "byteLength": 18444,
      "target": 34962
    },
    {
      "buffer": 0,
      "byteOffset": 19340,
      "byteLength": 12296,
      "target": 34962
    },
    {
      "buffer": 0,
      "byteOffset": 31636,
      "byteLength": 12296,
      "target": 34962
    },
    {
      "buffer": 0,
      "byteOffset": 43932,
      "byteLength": 24592,
      "target": 34962
    },
    {
      "buffer": 0,
      "byteOffset": 68524,
      "byteLength": 288,
      "target": 34963
    },
    {
      "buffer": 0,
      "byteOffset": 68812,
      "byteLength": 912,
      "target": 34963
    },
    {
      "buffer": 0,
      "byteOffset": 69724,
      "byteLength": 5724,
      "target": 34963
    },
    {
      "buffer": 0,
      "byteOffset": 75448,
      "byteLength": 144,
      "target": 34963
    },
    {
      "buffer": 0,
      "byteOffset": 75592,
      "byteLength": 312,
      "target": 34963
    },
    {
      "buffer": 0,
      "byteOffset": 75904,
      "byteLength": 84,
      "target": 34963
    },
    {
      "buffer": 0,
      "byteOffset": 75988,
      "byteLength": 180,
      "target": 34963
    },
    {
      "buffer": 0,
      "byteOffset": 76168,
      "byteLength": 300,
      "target": 34963
    },
    {
      "buffer": 0,
      "byteOffset": 76468,
      "byteLength": 1536,
      "target": 34963
    },
    {
      "buffer": 0,
      "byteOffset": 78004,
      "byteLength": 150,
      "target": 34963
    },
    {
      "buffer": 0,
      "byteOffset": 78154,
      "byteLength": 330,
      "target": 34963
    },
    {
      "buffer": 0,
      "byteOffset": 78484,
      "byteLength": 660,
      "target": 34963
    },
    {
      "buffer": 0,
      "byteOffset": 79144,
      "byteLength": 186,
      "target": 34963
    },
    {
      "buffer": 0,
      "byteOffset": 79330,
      "byteLength": 210,
      "target": 34963
    }
  ],
  "buffers": [
    {
      "byteLength": 79540,
      "uri": "fencewoodwire04_bk.bin"
    }
  ]
}