{
  "asset": {
    "version": "2.0",
    "generator": "XBG to GLTF Converter with Textures"
  },
  "scene": 0,
  "scenes": [
    {
      "name": "Scene",
      "nodes": [
        3
      ]
    }
  ],
  "nodes": [
    {
      "name": "FenceDustTown_Blanket01",
      "children": [
        1
      ]
    },
    {
      "name": "ceDustTown_Blanket01_LOD0"
    },
    {
      "name": "MeshNode_LOD0",
      "mesh": 0,
      "skin": 0
    },
    {
      "name": "Correction_Root",
      "rotation": [
        -0.70710678,
        0.0,
        0.0,
        0.70710678
      ],
      "children": [
        0,
        2
      ]
    }
  ],
  "meshes": [
    {
      "name": "Mesh_LOD0",
      "primitives": [
        {
          "attributes": {
            "POSITION": 1,
            "JOINTS_0": 3,
            "WEIGHTS_0": 4,
            "TEXCOORD_0": 2
          },
          "indices": 5,
          "material": 0
        }
      ]
    }
  ],
  "skins": [
    {
      "inverseBindMatrices": 0,
      "joints": [
        0,
        1
      ],
      "name": "Armature",
      "skeleton": 0
    }
  ],
  "materials": [
    {
      "name": "GRAPHICS\\_MATERIALS\\JCOOK-M-2111200766944596.xbm",
      "pbrMetallicRoughness": {
        "baseColorFactor": [
          1.0,
          1.0,
          1.0,
          1.0
        ],
        "metallicFactor": 0.0,
        "roughnessFactor": 1.0,
        "baseColorTexture": {
          "index": 0,
          "texCoord": 0
        }
      },
      "doubleSided": true
    }
  ],
  "textures": [
    {
      "sampler": 0,
      "source": 0
    }
  ],
  "images": [
    {
      "name": "fabricburlap_01_d",
      "mimeType": "image/png",
      "uri": "data:image/png;base64,"
    }
  ],
  "samplers": [
    {
      "magFilter": 9729,
      "minFilter": 9987,
      "wrapS": 10497,
      "wrapT": 10497
    }
  ],
  "accessors": [
    {
      "bufferView": 0,
      "componentType": 5126,
      "count": 2,
      "type": "MAT4"
    },
    {
      "bufferView": 1,
      "componentType": 5126,
      "count": 253,
      "type": "VEC3",
      "min": [
        -6.041016871109605,
        1.9386883126571774,
        0.5131382178515196
      ],
      "max": [
        -5.783165984787047,
        5.538560131564736,
        3.5652638291940093
      ]
    },
    {
      "bufferView": 2,
      "componentType": 5126,
      "count": 253,
      "type": "VEC2"
    },
    {
      "bufferView": 3,
      "componentType": 5123,
      "count": 253,
      "type": "VEC4"
    },
    {
      "bufferView": 4,
      "componentType": 5126,
      "count": 253,
      "type": "VEC4"
    },
    {
      "bufferView": 5,
      "componentType": 5123,
      "count": 966,
      "type": "SCALAR"
    }
  ],
  "bufferViews": [
    {
      "buffer": 0,
      "byteOffset": 0,
      "byteLength": 128
    },
    {
      "buffer": 0,
      "byteOffset": 128,
      "byteLength": 3036,
      "target": 34962
    },
    {
      "buffer": 0,
      "byteOffset": 3164,
      "byteLength": 2024,
      "target": 34962
    },
    {
      "buffer": 0,
      "byteOffset": 5188,
      "byteLength": 2024,
      "target": 34962
    },
    {
      "buffer": 0,
      "byteOffset": 7212,
      "byteLength": 4048,
      "target": 34962
    },
    {
      "buffer": 0,
      "byteOffset": 11260,
      "byteLength": 1932,
      "target": 34963
    }
  ],
  "buffers": [
    {
      "byteLength": 13192,
      "uri": "fencedusttown_blanket01.bin"
    }
  ]
}