{
  "asset": {
    "version": "2.0",
    "generator": "XBG to GLTF Converter with Textures"
  },
  "scene": 0,
  "scenes": [
    {
      "name": "Scene",
      "nodes": [
        24
      ]
    }
  ],
  "nodes": [
    {
      "name": "WallEroded10_BK",
      "children": [
        1
      ]
    },
    {
      "name": "WallEroded10a_STATE",
      "translation": [
        0.001557620009407401,
        0.0,
        0.008985900320112705
      ],
      "children": [
        2,
        3
      ]
    },
    {
      "name": "WallEroded100a_STATE1"
    },
    {
      "name": "WallEroded101a_STATE2",
      "children": [
        4,
        8,
        11,
        15,
        19
      ]
    },
    {
      "name": "llEroded10_ST2_BKb0_STATE",
      "translation": [
        2.164804697036743,
        -0.0020263700280338526,
        0.8601152896881104
      ],
      "children": [
        5,
        7
      ]
    },
    {
      "name": "Eroded10_ST2_BK0b_STATE01",
      "children": [
        6
      ]
    },
    {
      "name": "WallEroded10_ST2_BKb0_FX"
    },
    {
      "name": "Eroded10_ST2_BK1b_STATE02",
      "translation": [
        0.013847660273313522,
        0.0014794899616390467,
        0.15050025284290314
      ],
      "rotation": [
        0.21824148375400476,
        -0.05320885798339697,
        0.21454142110262206,
        0.9505321934972897
      ]
    },
    {
      "name": "oded10_BASE_ST2_BKb_STATE",
      "translation": [
        0.0,
        0.0,
        -0.198466494679451
      ],
      "children": [
        9,
        10
      ]
    },
    {
      "name": "ed10_BASE_ST2_BK0b_STATE1"
    },
    {
      "name": "ed10_BASE_ST2_BK1b_STATE2",
      "translation": [
        -0.014287110418081284,
        -0.002644039923325181,
        -0.07456138730049133
      ]
    },
    {
      "name": "llEroded10_ST2_BKb1_STATE",
      "translation": [
        0.7250878810882568,
        -0.0022998000495135784,
        0.8298327922821045
      ],
      "children": [
        12,
        14
      ]
    },
    {
      "name": "roded10_ST2_BK0b0_STATE01",
      "children": [
        13
      ]
    },
    {
      "name": "WallEroded10_ST2_BKb1_FX",
      "translation": [
        0.0,
        2.4399998892477015e-06,
        0.0
      ]
    },
    {
      "name": "roded10_ST2_BK1b0_STATE02",
      "translation": [
        0.002578119980171323,
        0.0036450200714170933,
        0.2687772214412689
      ],
      "rotation": [
        -0.21130899026391972,
        -0.046846174744353083,
        -0.21130903492823938,
        0.9531539427171478
      ]
    },
    {
      "name": "llEroded10_ST2_BKb2_STATE",
      "translation": [
        -0.6807470321655273,
        -0.02344970963895321,
        0.4708980321884155
      ],
      "children": [
        16,
        18
      ]
    },
    {
      "name": "roded10_ST2_BK0b1_STATE01",
      "children": [
        17
      ]
    },
    {
      "name": "WallEroded10_ST2_BKb2_FX"
    },
    {
      "name": "roded10_ST2_BK1b1_STATE02",
      "translation": [
        -0.012597659602761269,
        0.0016259800177067518,
        0.06670994311571121
      ],
      "rotation": [
        0.20517804186011415,
        0.045046982585734634,
        0.25456888029494495,
        0.9439636783297752
      ]
    },
    {
      "name": "allEroded10_ST2_BKb_STATE",
      "translation": [
        -2.2038207054138184,
        -0.009117430076003075,
        0.05491852015256882
      ],
      "children": [
        20,
        22
      ]
    },
    {
      "name": "roded10_ST2_BK0b2_STATE01",
      "children": [
        21
      ]
    },
    {
      "name": "WallEroded10_ST2_BKb_FX"
    },
    {
      "name": "roded10_ST2_BK1b2_STATE02",
      "translation": [
        -0.036384280771017075,
        0.002228999976068735,
        0.18922121822834015
      ],
      "rotation": [
        -0.25660478518173946,
        -0.0337827196505976,
        -0.12607869207389236,
        0.9576621927158561
      ]
    },
    {
      "name": "MeshNode_LOD0",
      "mesh": 0,
      "skin": 0
    },
    {
      "name": "Correction_Root",
      "rotation": [
        -0.70710678,
        0.0,
        0.0,
        0.70710678
      ],
      "children": [
        0,
        23
      ]
    }
  ],
  "meshes": [
    {
      "name": "Mesh_LOD0",
      "primitives": [
        {
          "attributes": {
            "POSITION": 1,
            "JOINTS_0": 3,
            "WEIGHTS_0": 4,
            "TEXCOORD_0": 2
          },
          "indices": 5,
          "material": 0
        },
        {
          "attributes": {
            "POSITION": 1,
            "JOINTS_0": 3,
            "WEIGHTS_0": 4,
            "TEXCOORD_0": 2
          },
          "indices": 6,
          "material": 2
        },
        {
          "attributes": {
            "POSITION": 1,
            "JOINTS_0": 3,
            "WEIGHTS_0": 4,
            "TEXCOORD_0": 2
          },
          "indices": 7,
          "material": 0
        },
        {
          "attributes": {
            "POSITION": 1,
            "JOINTS_0": 3,
            "WEIGHTS_0": 4,
            "TEXCOORD_0": 2
          },
          "indices": 8,
          "material": 2
        },
        {
          "attributes": {
            "POSITION": 1,
            "JOINTS_0": 3,
            "WEIGHTS_0": 4,
            "TEXCOORD_0": 2
          },
          "indices": 9,
          "material": 0
        },
        {
          "attributes": {
            "POSITION": 1,
            "JOINTS_0": 3,
            "WEIGHTS_0": 4,
            "TEXCOORD_0": 2
          },
          "indices": 10,
          "material": 1
        },
        {
          "attributes": {
            "POSITION": 1,
            "JOINTS_0": 3,
            "WEIGHTS_0": 4,
            "TEXCOORD_0": 2
          },
          "indices": 11,
          "material": 2
        },
        {
          "attributes": {
            "POSITION": 1,
            "JOINTS_0": 3,
            "WEIGHTS_0": 4,
            "TEXCOORD_0": 2
          },
          "indices": 12,
          "material": 0
        },
        {
          "attributes": {
            "POSITION": 1,
            "JOINTS_0": 3,
            "WEIGHTS_0": 4,
            "TEXCOORD_0": 2
          },
          "indices": 13,
          "material": 1
        },
        {
          "attributes": {
            "POSITION": 1,
            "JOINTS_0": 3,
            "WEIGHTS_0": 4,
            "TEXCOORD_0": 2
          },
          "indices": 14,
          "material": 2
        },
        {
          "attributes": {
            "POSITION": 1,
            "JOINTS_0": 3,
            "WEIGHTS_0": 4,
            "TEXCOORD_0": 2
          },
          "indices": 15,
          "material": 0
        },
        {
          "attributes": {
            "POSITION": 1,
            "JOINTS_0": 3,
            "WEIGHTS_0": 4,
            "TEXCOORD_0": 2
          },
          "indices": 16,
          "material": 0
        },
        {
          "attributes": {
            "POSITION": 1,
            "JOINTS_0": 3,
            "WEIGHTS_0": 4,
            "TEXCOORD_0": 2
          },
          "indices": 17,
          "material": 2
        },
        {
          "attributes": {
            "POSITION": 1,
            "JOINTS_0": 3,
            "WEIGHTS_0": 4,
            "TEXCOORD_0": 2
          },
          "indices": 18,
          "material": 0
        },
        {
          "attributes": {
            "POSITION": 1,
            "JOINTS_0": 3,
            "WEIGHTS_0": 4,
            "TEXCOORD_0": 2
          },
          "indices": 19,
          "material": 1
        },
        {
          "attributes": {
            "POSITION": 1,
            "JOINTS_0": 3,
            "WEIGHTS_0": 4,
            "TEXCOORD_0": 2
          },
          "indices": 20,
          "material": 2
        },
        {
          "attributes": {
            "POSITION": 1,
            "JOINTS_0": 3,
            "WEIGHTS_0": 4,
            "TEXCOORD_0": 2
          },
          "indices": 21,
          "material": 0
        },
        {
          "attributes": {
            "POSITION": 1,
            "JOINTS_0": 3,
            "WEIGHTS_0": 4,
            "TEXCOORD_0": 2
          },
          "indices": 22,
          "material": 1
        },
        {
          "attributes": {
            "POSITION": 1,
            "JOINTS_0": 3,
            "WEIGHTS_0": 4,
            "TEXCOORD_0": 2
          },
          "indices": 23,
          "material": 2
        },
        {
          "attributes": {
            "POSITION": 1,
            "JOINTS_0": 3,
            "WEIGHTS_0": 4,
            "TEXCOORD_0": 2
          },
          "indices": 24,
          "material": 0
        },
        {
          "attributes": {
            "POSITION": 1,
            "JOINTS_0": 3,
            "WEIGHTS_0": 4,
            "TEXCOORD_0": 2
          },
          "indices": 25,
          "material": 1
        },
        {
          "attributes": {
            "POSITION": 1,
            "JOINTS_0": 3,
            "WEIGHTS_0": 4,
            "TEXCOORD_0": 2
          },
          "indices": 26,
          "material": 2
        },
        {
          "attributes": {
            "POSITION": 1,
            "JOINTS_0": 3,
            "WEIGHTS_0": 4,
            "TEXCOORD_0": 2
          },
          "indices": 27,
          "material": 0
        },
        {
          "attributes": {
            "POSITION": 1,
            "JOINTS_0": 3,
            "WEIGHTS_0": 4,
            "TEXCOORD_0": 2
          },
          "indices": 28,
          "material": 2
        },
        {
          "attributes": {
            "POSITION": 1,
            "JOINTS_0": 3,
            "WEIGHTS_0": 4,
            "TEXCOORD_0": 2
          },
          "indices": 29,
          "material": 0
        },
        {
          "attributes": {
            "POSITION": 1,
            "JOINTS_0": 3,
            "WEIGHTS_0": 4,
            "TEXCOORD_0": 2
          },
          "indices": 30,
          "material": 1
        },
        {
          "attributes": {
            "POSITION": 1,
            "JOINTS_0": 3,
            "WEIGHTS_0": 4,
            "TEXCOORD_0": 2
          },
          "indices": 31,
          "material": 2
        }
      ]
    }
  ],
  "skins": [
    {
      "inverseBindMatrices": 0,
      "joints": [
        0,
        1,
        2,
        3,
        4,
        5,
        6,
        7,
        8,
        9,
        10,
        11,
        12,
        13,
        14,
        15,
        16,
        17,
        18,
        19,
        20,
        21,
        22
      ],
      "name": "Armature",
      "skeleton": 0
    }
  ],
  "materials": [
    {
      "name": "GRAPHICS\\_MATERIALS\\CBERGERONLYONNAIS-M-2007021451797708.xbm",
      "pbrMetallicRoughness": {
        "baseColorFactor": [
          1.0,
          1.0,
          1.0,
          1.0
        ],
        "metallicFactor": 0.0,
        "roughnessFactor": 1.0,
        "baseColorTexture": {
          "index": 0,
          "texCoord": 0
        }
      },
      "doubleSided": true
    },
    {
      "name": "GRAPHICS\\_MATERIALS\\CBERGERONLYONNAIS-M-2007021451790274.xbm",
      "pbrMetallicRoughness": {
        "baseColorFactor": [
          1.0,
          1.0,
          1.0,
          1.0
        ],
        "metallicFactor": 0.0,
        "roughnessFactor": 1.0,
        "baseColorTexture": {
          "index": 1,
          "texCoord": 0
        }
      },
      "doubleSided": true
    },
    {
      "name": "GRAPHICS\\_MATERIALS\\CBERGERONLYONNAIS-M-2007021451802753.xbm",
      "pbrMetallicRoughness": {
        "baseColorFactor": [
          1.0,
          1.0,
          1.0,
          1.0
        ],
        "metallicFactor": 0.0,
        "roughnessFactor": 1.0,
        "baseColorTexture": {
          "index": 2,
          "texCoord": 0
        }
      },
      "doubleSided": true
    }
  ],
  "textures": [
    {
      "sampler": 0,
      "source": 0
    },
    {
      "sampler": 0,
      "source": 1
    },
    {
      "sampler": 0,
      "source": 2
    }
  ],
  "images": [
    {
      "name": "clay_01_d",
      "mimeType": "image/png",
      "uri": "data:image/png;base64,"
    },
    {
      "name": "mudstones_d",
      "mimeType": "image/png",
      "uri": "data:image/png;base64,"
    },
    {
      "name": "clay_01_d",
      "mimeType": "image/png",
      "uri": "data:image/png;base64,"
    }
  ],
  "samplers": [
    {
      "magFilter": 9729,
      "minFilter": 9987,
      "wrapS": 10497,
      "wrapT": 10497
    }
  ],
  "accessors": [
    {
      "bufferView": 0,
      "componentType": 5126,
      "count": 23,
      "type": "MAT4"
    },
    {
      "bufferView": 1,
      "componentType": 5126,
      "count": 3671,
      "type": "VEC3",
      "min": [
        -2.9881282970309258,
        -0.366466261446476,
        -1.151402324438095
      ],
      "max": [
        3.0022888854146004,
        0.36902981624007225,
        1.1512802504003048
      ]
    },
    {
      "bufferView": 2,
      "componentType": 5126,
      "count": 3671,
      "type": "VEC2"
    },
    {
      "bufferView": 3,
      "componentType": 5123,
      "count": 3671,
      "type": "VEC4"
    },
    {
      "bufferView": 4,
      "componentType": 5126,
      "count": 3671,
      "type": "VEC4"
    },
    {
      "bufferView": 5,
      "componentType": 5123,
      "count": 810,
      "type": "SCALAR"
    },
    {
      "bufferView": 6,
      "componentType": 5123,
      "count": 987,
      "type": "SCALAR"
    },
    {
      "bufferView": 7,
      "componentType": 5123,
      "count": 135,
      "type": "SCALAR"
    },
    {
      "bufferView": 8,
      "componentType": 5123,
      "count": 360,
      "type": "SCALAR"
    },
    {
      "bufferView": 9,
      "componentType": 5123,
      "count": 135,
      "type": "SCALAR"
    },
    {
      "bufferView": 10,
      "componentType": 5123,
      "count": 249,
      "type": "SCALAR"
    },
    {
      "bufferView": 11,
      "componentType": 5123,
      "count": 360,
      "type": "SCALAR"
    },
    {
      "bufferView": 12,
      "componentType": 5123,
      "count": 1305,
      "type": "SCALAR"
    },
    {
      "bufferView": 13,
      "componentType": 5123,
      "count": 942,
      "type": "SCALAR"
    },
    {
      "bufferView": 14,
      "componentType": 5123,
      "count": 414,
      "type": "SCALAR"
    },
    {
      "bufferView": 15,
      "componentType": 5123,
      "count": 2637,
      "type": "SCALAR"
    },
    {
      "bufferView": 16,
      "componentType": 5123,
      "count": 69,
      "type": "SCALAR"
    },
    {
      "bufferView": 17,
      "componentType": 5123,
      "count": 300,
      "type": "SCALAR"
    },
    {
      "bufferView": 18,
      "componentType": 5123,
      "count": 78,
      "type": "SCALAR"
    },
    {
      "bufferView": 19,
      "componentType": 5123,
      "count": 258,
      "type": "SCALAR"
    },
    {
      "bufferView": 20,
      "componentType": 5123,
      "count": 300,
      "type": "SCALAR"
    },
    {
      "bufferView": 21,
      "componentType": 5123,
      "count": 156,
      "type": "SCALAR"
    },
    {
      "bufferView": 22,
      "componentType": 5123,
      "count": 12,
      "type": "SCALAR"
    },
    {
      "bufferView": 23,
      "componentType": 5123,
      "count": 321,
      "type": "SCALAR"
    },
    {
      "bufferView": 24,
      "componentType": 5123,
      "count": 159,
      "type": "SCALAR"
    },
    {
      "bufferView": 25,
      "componentType": 5123,
      "count": 222,
      "type": "SCALAR"
    },
    {
      "bufferView": 26,
      "componentType": 5123,
      "count": 321,
      "type": "SCALAR"
    },
    {
      "bufferView": 27,
      "componentType": 5123,
      "count": 252,
      "type": "SCALAR"
    },
    {
      "bufferView": 28,
      "componentType": 5123,
      "count": 321,
      "type": "SCALAR"
    },
    {
      "bufferView": 29,
      "componentType": 5123,
      "count": 246,
      "type": "SCALAR"
    },
    {
      "bufferView": 30,
      "componentType": 5123,
      "count": 255,
      "type": "SCALAR"
    },
    {
      "bufferView": 31,
      "componentType": 5123,
      "count": 315,
      "type": "SCALAR"
    }
  ],
  "bufferViews": [
    {
      "buffer": 0,
      "byteOffset": 0,
      "byteLength": 1472
    },
    {
      "buffer": 0,
      "byteOffset": 1472,
      "byteLength": 44052,
      "target": 34962
    },
    {
      "buffer": 0,
      "byteOffset": 45524,
      "byteLength": 29368,
      "target": 34962
    },
    {
      "buffer": 0,
      "byteOffset": 74892,
      "byteLength": 29368,
      "target": 34962
    },
    {
      "buffer": 0,
      "byteOffset": 104260,
      "byteLength": 58736,
      "target": 34962
    },
    {
      "buffer": 0,
      "byteOffset": 162996,
      "byteLength": 1620,
      "target": 34963
    },
    {
      "buffer": 0,
      "byteOffset": 164616,
      "byteLength": 1974,
      "target": 34963
    },
    {
      "buffer": 0,
      "byteOffset": 166590,
      "byteLength": 270,
      "target": 34963
    },
    {
      "buffer": 0,
      "byteOffset": 166860,
      "byteLength": 720,
      "target": 34963
    },
    {
      "buffer": 0,
      "byteOffset": 167580,
      "byteLength": 270,
      "target": 34963
    },
    {
      "buffer": 0,
      "byteOffset": 167850,
      "byteLength": 498,
      "target": 34963
    },
    {
      "buffer": 0,
      "byteOffset": 168348,
      "byteLength": 720,
      "target": 34963
    },
    {
      "buffer": 0,
      "byteOffset": 169068,
      "byteLength": 2610,
      "target": 34963
    },
    {
      "buffer": 0,
      "byteOffset": 171678,
      "byteLength": 1884,
      "target": 34963
    },
    {
      "buffer": 0,
      "byteOffset": 173562,
      "byteLength": 828,
      "target": 34963
    },
    {
      "buffer": 0,
      "byteOffset": 174390,
      "byteLength": 5274,
      "target": 34963
    },
    {
      "buffer": 0,
      "byteOffset": 179664,
      "byteLength": 138,
      "target": 34963
    },
    {
      "buffer": 0,
      "byteOffset": 179802,
      "byteLength": 600,
      "target": 34963
    },
    {
      "buffer": 0,
      "byteOffset": 180402,
      "byteLength": 156,
      "target": 34963
    },
    {
      "buffer": 0,
      "byteOffset": 180558,
      "byteLength": 516,
      "target": 34963
    },
    {
      "buffer": 0,
      "byteOffset": 181074,
      "byteLength": 600,
      "target": 34963
    },
    {
      "buffer": 0,
      "byteOffset": 181674,
      "byteLength": 312,
      "target": 34963
    },
    {
      "buffer": 0,
      "byteOffset": 181986,
      "byteLength": 24,
      "target": 34963
    },
    {
      "buffer": 0,
      "byteOffset": 182010,
      "byteLength": 642,
      "target": 34963
    },
    {
      "buffer": 0,
      "byteOffset": 182652,
      "byteLength": 318,
      "target": 34963
    },
    {
      "buffer": 0,
      "byteOffset": 182970,
      "byteLength": 444,
      "target": 34963
    },
    {
      "buffer": 0,
      "byteOffset": 183414,
      "byteLength": 642,
      "target": 34963
    },
    {
      "buffer": 0,
      "byteOffset": 184056,
      "byteLength": 504,
      "target": 34963
    },
    {
      "buffer": 0,
      "byteOffset": 184560,
      "byteLength": 642,
      "target": 34963
    },
    {
      "buffer": 0,
      "byteOffset": 185202,
      "byteLength": 492,
      "target": 34963
    },
    {
      "buffer": 0,
      "byteOffset": 185694,
      "byteLength": 510,
      "target": 34963
    },
    {
      "buffer": 0,
      "byteOffset": 186204,
      "byteLength": 630,
      "target": 34963
    }
  ],
  "buffers": [
    {
      "byteLength": 186834,
      "uri": "walleroded10_bk.bin"
    }
  ]
}