{
  "asset": {
    "version": "2.0",
    "generator": "XBG to GLTF Converter with Textures"
  },
  "scene": 0,
  "scenes": [
    {
      "name": "Scene",
      "nodes": [
        7
      ]
    }
  ],
  "nodes": [
    {
      "name": "BoomBoxRadio",
      "children": [
        1
      ]
    },
    {
      "name": "states",
      "children": [
        2,
        5
      ]
    },
    {
      "name": "BoomBoxRadio_New",
      "children": [
        3,
        4
      ]
    },
    {
      "name": "FX_ElectronicStuff2",
      "translation": [
        0.12063250690698624,
        -0.002914960030466318,
        0.0
      ]
    },
    {
      "name": "FX_ElectronicStuff1",
      "translation": [
        -0.13149356842041016,
        -0.00044130999594926834,
        0.0
      ]
    },
    {
      "name": "BoomBoxRadio_Broken"
    },
    {
      "name": "MeshNode_LOD0",
      "mesh": 0,
      "skin": 0
    },
    {
      "name": "Correction_Root",
      "rotation": [
        -0.70710678,
        0.0,
        0.0,
        0.70710678
      ],
      "children": [
        0,
        6
      ]
    }
  ],
  "meshes": [
    {
      "name": "Mesh_LOD0",
      "primitives": [
        {
          "attributes": {
            "POSITION": 1,
            "JOINTS_0": 3,
            "WEIGHTS_0": 4,
            "TEXCOORD_0": 2
          },
          "indices": 5,
          "material": 0
        },
        {
          "attributes": {
            "POSITION": 1,
            "JOINTS_0": 3,
            "WEIGHTS_0": 4,
            "TEXCOORD_0": 2
          },
          "indices": 6,
          "material": 1
        },
        {
          "attributes": {
            "POSITION": 1,
            "JOINTS_0": 3,
            "WEIGHTS_0": 4,
            "TEXCOORD_0": 2
          },
          "indices": 7,
          "material": 0
        },
        {
          "attributes": {
            "POSITION": 1,
            "JOINTS_0": 3,
            "WEIGHTS_0": 4,
            "TEXCOORD_0": 2
          },
          "indices": 8,
          "material": 1
        }
      ]
    }
  ],
  "skins": [
    {
      "inverseBindMatrices": 0,
      "joints": [
        0,
        1,
        2,
        3,
        4,
        5
      ],
      "name": "Armature",
      "skeleton": 0
    }
  ],
  "materials": [
    {
      "name": "GRAPHICS\\_MATERIALS\\PFERNANDEZ-M-2007020854796548.xbm",
      "pbrMetallicRoughness": {
        "baseColorFactor": [
          1.0,
          1.0,
          1.0,
          1.0
        ],
        "metallicFactor": 0.0,
        "roughnessFactor": 1.0,
        "baseColorTexture": {
          "index": 0,
          "texCoord": 0
        }
      },
      "doubleSided": true
    },
    {
      "name": "GRAPHICS\\_MATERIALS\\PFERNANDEZ-M-2007020754071024.xbm",
      "pbrMetallicRoughness": {
        "baseColorFactor": [
          1.0,
          1.0,
          1.0,
          1.0
        ],
        "metallicFactor": 0.0,
        "roughnessFactor": 1.0,
        "baseColorTexture": {
          "index": 1,
          "texCoord": 0
        }
      },
      "doubleSided": true
    }
  ],
  "textures": [
    {
      "sampler": 0,
      "source": 0
    },
    {
      "sampler": 0,
      "source": 1
    }
  ],
  "images": [
    {
      "name": "metalburned_02_d",
      "mimeType": "image/png",
      "uri": "data:image/png;base64,"
    },
    {
      "name": "rusted_metal_d",
      "mimeType": "image/png",
      "uri": "data:image/png;base64,"
    }
  ],
  "samplers": [
    {
      "magFilter": 9729,
      "minFilter": 9987,
      "wrapS": 10497,
      "wrapT": 10497
    }
  ],
  "accessors": [
    {
      "bufferView": 0,
      "componentType": 5126,
      "count": 6,
      "type": "MAT4"
    },
    {
      "bufferView": 1,
      "componentType": 5126,
      "count": 2469,
      "type": "VEC3",
      "min": [
        -0.28559221141040325,
        -0.08148442022502422,
        -0.16992706060409546
      ],
      "max": [
        0.281807916238904,
        0.07608264405280352,
        0.5609912406653166
      ]
    },
    {
      "bufferView": 2,
      "componentType": 5126,
      "count": 2469,
      "type": "VEC2"
    },
    {
      "bufferView": 3,
      "componentType": 5123,
      "count": 2469,
      "type": "VEC4"
    },
    {
      "bufferView": 4,
      "componentType": 5126,
      "count": 2469,
      "type": "VEC4"
    },
    {
      "bufferView": 5,
      "componentType": 5123,
      "count": 747,
      "type": "SCALAR"
    },
    {
      "bufferView": 6,
      "componentType": 5123,
      "count": 2370,
      "type": "SCALAR"
    },
    {
      "bufferView": 7,
      "componentType": 5123,
      "count": 483,
      "type": "SCALAR"
    },
    {
      "bufferView": 8,
      "componentType": 5123,
      "count": 2370,
      "type": "SCALAR"
    }
  ],
  "bufferViews": [
    {
      "buffer": 0,
      "byteOffset": 0,
      "byteLength": 384
    },
    {
      "buffer": 0,
      "byteOffset": 384,
      "byteLength": 29628,
      "target": 34962
    },
    {
      "buffer": 0,
      "byteOffset": 30012,
      "byteLength": 19752,
      "target": 34962
    },
    {
      "buffer": 0,
      "byteOffset": 49764,
      "byteLength": 19752,
      "target": 34962
    },
    {
      "buffer": 0,
      "byteOffset": 69516,
      "byteLength": 39504,
      "target": 34962
    },
    {
      "buffer": 0,
      "byteOffset": 109020,
      "byteLength": 1494,
      "target": 34963
    },
    {
      "buffer": 0,
      "byteOffset": 110514,
      "byteLength": 4740,
      "target": 34963
    },
    {
      "buffer": 0,
      "byteOffset": 115254,
      "byteLength": 966,
      "target": 34963
    },
    {
      "buffer": 0,
      "byteOffset": 116220,
      "byteLength": 4740,
      "target": 34963
    }
  ],
  "buffers": [
    {
      "byteLength": 120960,
      "uri": "boomboxradio.bin"
    }
  ]
}