{
  "asset": {
    "version": "2.0",
    "generator": "XBG to GLTF Converter with Textures"
  },
  "scene": 0,
  "scenes": [
    {
      "name": "Scene",
      "nodes": [
        2
      ]
    }
  ],
  "nodes": [
    {
      "name": "Root",
      "rotation": [
        0.0,
        0.0,
        0.7071072459221436,
        0.7071063164506459
      ]
    },
    {
      "name": "MeshNode_LOD0",
      "mesh": 0,
      "skin": 0
    },
    {
      "name": "Correction_Root",
      "rotation": [
        -0.70710678,
        0.0,
        0.0,
        0.70710678
      ],
      "children": [
        0,
        1
      ]
    }
  ],
  "meshes": [
    {
      "name": "Mesh_LOD0",
      "primitives": [
        {
          "attributes": {
            "POSITION": 1,
            "JOINTS_0": 3,
            "WEIGHTS_0": 4,
            "TEXCOORD_0": 2
          },
          "indices": 5,
          "material": 0
        },
        {
          "attributes": {
            "POSITION": 1,
            "JOINTS_0": 3,
            "WEIGHTS_0": 4,
            "TEXCOORD_0": 2
          },
          "indices": 6,
          "material": 1
        }
      ]
    }
  ],
  "skins": [
    {
      "inverseBindMatrices": 0,
      "joints": [
        0
      ],
      "name": "Armature",
      "skeleton": 0
    }
  ],
  "materials": [
    {
      "name": "GRAPHICS\\_MATERIALS\\CSEAUT-M-2009080540755818.xbm",
      "pbrMetallicRoughness": {
        "baseColorFactor": [
          1.0,
          1.0,
          1.0,
          1.0
        ],
        "metallicFactor": 0.0,
        "roughnessFactor": 1.0,
        "baseColorTexture": {
          "index": 0,
          "texCoord": 0
        }
      },
      "doubleSided": true
    },
    {
      "name": "GRAPHICS\\_MATERIALS\\CSEAUT-M-2009080540633300.xbm",
      "pbrMetallicRoughness": {
        "baseColorFactor": [
          1.0,
          1.0,
          1.0,
          1.0
        ],
        "metallicFactor": 0.0,
        "roughnessFactor": 1.0,
        "baseColorTexture": {
          "index": 1,
          "texCoord": 0
        }
      },
      "doubleSided": true
    }
  ],
  "textures": [
    {
      "sampler": 0,
      "source": 0
    },
    {
      "sampler": 0,
      "source": 1
    }
  ],
  "images": [
    {
      "name": "dlc_2_corpsenior_access_d",
      "mimeType": "image/png",
      "uri": "data:image/png;base64,"
    },
    {
      "name": "dlc_2_corpsenior_lowpart_d",
      "mimeType": "image/png",
      "uri": "data:image/png;base64,"
    }
  ],
  "samplers": [
    {
      "magFilter": 9729,
      "minFilter": 9987,
      "wrapS": 10497,
      "wrapT": 10497
    }
  ],
  "accessors": [
    {
      "bufferView": 0,
      "componentType": 5126,
      "count": 1,
      "type": "MAT4"
    },
    {
      "bufferView": 1,
      "componentType": 5126,
      "count": 1855,
      "type": "VEC3",
      "min": [
        -0.3317056791856885,
        -0.21823786105960608,
        -0.600421154871583
      ],
      "max": [
        0.3316751606762409,
        0.2182073425501585,
        0.6003906363621354
      ]
    },
    {
      "bufferView": 2,
      "componentType": 5126,
      "count": 1855,
      "type": "VEC2"
    },
    {
      "bufferView": 3,
      "componentType": 5123,
      "count": 1855,
      "type": "VEC4"
    },
    {
      "bufferView": 4,
      "componentType": 5126,
      "count": 1855,
      "type": "VEC4"
    },
    {
      "bufferView": 5,
      "componentType": 5123,
      "count": 2220,
      "type": "SCALAR"
    },
    {
      "bufferView": 6,
      "componentType": 5123,
      "count": 6846,
      "type": "SCALAR"
    }
  ],
  "bufferViews": [
    {
      "buffer": 0,
      "byteOffset": 0,
      "byteLength": 64
    },
    {
      "buffer": 0,
      "byteOffset": 64,
      "byteLength": 22260,
      "target": 34962
    },
    {
      "buffer": 0,
      "byteOffset": 22324,
      "byteLength": 14840,
      "target": 34962
    },
    {
      "buffer": 0,
      "byteOffset": 37164,
      "byteLength": 14840,
      "target": 34962
    },
    {
      "buffer": 0,
      "byteOffset": 52004,
      "byteLength": 29680,
      "target": 34962
    },
    {
      "buffer": 0,
      "byteOffset": 81684,
      "byteLength": 4440,
      "target": 34963
    },
    {
      "buffer": 0,
      "byteOffset": 86124,
      "byteLength": 13692,
      "target": 34963
    }
  ],
  "buffers": [
    {
      "byteLength": 99816,
      "uri": "corp_legsen_03.bin"
    }
  ]
}