{
  "asset": {
    "version": "2.0",
    "generator": "XBG to GLTF Converter with Textures"
  },
  "scene": 0,
  "scenes": [
    {
      "name": "Scene",
      "nodes": [
        2
      ]
    }
  ],
  "nodes": [
    {
      "name": "Root",
      "rotation": [
        0.0,
        0.0,
        0.7071072459221436,
        0.7071063164506459
      ]
    },
    {
      "name": "MeshNode_LOD0",
      "mesh": 0,
      "skin": 0
    },
    {
      "name": "Correction_Root",
      "rotation": [
        -0.70710678,
        0.0,
        0.0,
        0.70710678
      ],
      "children": [
        0,
        1
      ]
    }
  ],
  "meshes": [
    {
      "name": "Mesh_LOD0",
      "primitives": [
        {
          "attributes": {
            "POSITION": 1,
            "JOINTS_0": 3,
            "WEIGHTS_0": 4,
            "TEXCOORD_0": 2
          },
          "indices": 5,
          "material": 0
        },
        {
          "attributes": {
            "POSITION": 1,
            "JOINTS_0": 3,
            "WEIGHTS_0": 4,
            "TEXCOORD_0": 2
          },
          "indices": 6,
          "material": 1
        },
        {
          "attributes": {
            "POSITION": 1,
            "JOINTS_0": 3,
            "WEIGHTS_0": 4,
            "TEXCOORD_0": 2
          },
          "indices": 7,
          "material": 2
        }
      ]
    }
  ],
  "skins": [
    {
      "inverseBindMatrices": 0,
      "joints": [
        0
      ],
      "name": "Armature",
      "skeleton": 0
    }
  ],
  "materials": [
    {
      "name": "GRAPHICS\\_MATERIALS\\CSEAUT-M-2009042241645733.xbm",
      "pbrMetallicRoughness": {
        "baseColorFactor": [
          1.0,
          1.0,
          1.0,
          1.0
        ],
        "metallicFactor": 0.0,
        "roughnessFactor": 1.0,
        "baseColorTexture": {
          "index": 0,
          "texCoord": 0
        }
      },
      "doubleSided": true
    },
    {
      "name": "GRAPHICS\\_MATERIALS\\CSEAUT-M-2009042241790501.xbm",
      "pbrMetallicRoughness": {
        "baseColorFactor": [
          1.0,
          1.0,
          1.0,
          1.0
        ],
        "metallicFactor": 0.0,
        "roughnessFactor": 1.0,
        "baseColorTexture": {
          "index": 1,
          "texCoord": 0
        }
      },
      "doubleSided": true
    },
    {
      "name": "GRAPHICS\\_MATERIALS\\VGAULT-M-2009081440066586.xbm",
      "pbrMetallicRoughness": {
        "baseColorFactor": [
          1.0,
          1.0,
          1.0,
          1.0
        ],
        "metallicFactor": 0.0,
        "roughnessFactor": 1.0,
        "baseColorTexture": {
          "index": 2,
          "texCoord": 0
        }
      },
      "doubleSided": true
    }
  ],
  "textures": [
    {
      "sampler": 0,
      "source": 0
    },
    {
      "sampler": 0,
      "source": 1
    },
    {
      "sampler": 0,
      "source": 2
    }
  ],
  "images": [
    {
      "name": "corp_glass_d",
      "mimeType": "image/png",
      "uri": "data:image/png;base64,"
    },
    {
      "name": "corp_mask_03_d",
      "mimeType": "image/png",
      "uri": "data:image/png;base64,"
    },
    {
      "name": "corp_civil_maskmecha_d",
      "mimeType": "image/png",
      "uri": "data:image/png;base64,"
    }
  ],
  "samplers": [
    {
      "magFilter": 9729,
      "minFilter": 9987,
      "wrapS": 10497,
      "wrapT": 10497
    }
  ],
  "accessors": [
    {
      "bufferView": 0,
      "componentType": 5126,
      "count": 1,
      "type": "MAT4"
    },
    {
      "bufferView": 1,
      "componentType": 5126,
      "count": 872,
      "type": "VEC3",
      "min": [
        -0.08099612407386303,
        -0.2037720875814557,
        -0.14047669898718596
      ],
      "max": [
        0.08749656658619642,
        0.06897183135151863,
        0.11804559454321861
      ]
    },
    {
      "bufferView": 2,
      "componentType": 5126,
      "count": 872,
      "type": "VEC2"
    },
    {
      "bufferView": 3,
      "componentType": 5123,
      "count": 872,
      "type": "VEC4"
    },
    {
      "bufferView": 4,
      "componentType": 5126,
      "count": 872,
      "type": "VEC4"
    },
    {
      "bufferView": 5,
      "componentType": 5123,
      "count": 288,
      "type": "SCALAR"
    },
    {
      "bufferView": 6,
      "componentType": 5123,
      "count": 2760,
      "type": "SCALAR"
    },
    {
      "bufferView": 7,
      "componentType": 5123,
      "count": 618,
      "type": "SCALAR"
    }
  ],
  "bufferViews": [
    {
      "buffer": 0,
      "byteOffset": 0,
      "byteLength": 64
    },
    {
      "buffer": 0,
      "byteOffset": 64,
      "byteLength": 10464,
      "target": 34962
    },
    {
      "buffer": 0,
      "byteOffset": 10528,
      "byteLength": 6976,
      "target": 34962
    },
    {
      "buffer": 0,
      "byteOffset": 17504,
      "byteLength": 6976,
      "target": 34962
    },
    {
      "buffer": 0,
      "byteOffset": 24480,
      "byteLength": 13952,
      "target": 34962
    },
    {
      "buffer": 0,
      "byteOffset": 38432,
      "byteLength": 576,
      "target": 34963
    },
    {
      "buffer": 0,
      "byteOffset": 39008,
      "byteLength": 5520,
      "target": 34963
    },
    {
      "buffer": 0,
      "byteOffset": 44528,
      "byteLength": 1236,
      "target": 34963
    }
  ],
  "buffers": [
    {
      "byteLength": 45764,
      "uri": "corp_headgen_male_lvl1_4_alt.bin"
    }
  ]
}