{
  "asset": {
    "version": "2.0",
    "generator": "XBG to GLTF Converter with Textures"
  },
  "scene": 0,
  "scenes": [
    {
      "name": "Scene",
      "nodes": [
        7
      ]
    }
  ],
  "nodes": [
    {
      "name": "Bird02",
      "children": [
        1
      ]
    },
    {
      "name": "Pelvis",
      "rotation": [
        0.0,
        0.0,
        0.7071067690849299,
        0.707106793288165
      ],
      "children": [
        2,
        4
      ]
    },
    {
      "name": "L_Wing01",
      "rotation": [
        0.0,
        0.0,
        0.7071069478988704,
        0.7071066144741852
      ],
      "children": [
        3
      ]
    },
    {
      "name": "L_Wing02",
      "translation": [
        0.3406475782394409,
        2.6469779601696886e-23,
        0.0
      ],
      "rotation": [
        0.0,
        0.0,
        0.18387660077736295,
        0.98294933525923
      ]
    },
    {
      "name": "R_Wing01",
      "rotation": [
        0.0,
        0.0,
        -0.7071069478988844,
        0.7071066144741712
      ],
      "children": [
        5
      ]
    },
    {
      "name": "R_Wing02",
      "translation": [
        0.3406475782394409,
        9.999999939225317e-09,
        0.0
      ],
      "rotation": [
        0.0,
        0.0,
        -0.18387663151918224,
        0.9829493295084742
      ]
    },
    {
      "name": "MeshNode_LOD0",
      "mesh": 0,
      "skin": 0
    },
    {
      "name": "Correction_Root",
      "rotation": [
        -0.70710678,
        0.0,
        0.0,
        0.70710678
      ],
      "children": [
        0,
        6
      ]
    }
  ],
  "meshes": [
    {
      "name": "Mesh_LOD0",
      "primitives": [
        {
          "attributes": {
            "POSITION": 1,
            "JOINTS_0": 3,
            "WEIGHTS_0": 4,
            "TEXCOORD_0": 2
          },
          "indices": 5,
          "material": 0
        }
      ]
    }
  ],
  "skins": [
    {
      "inverseBindMatrices": 0,
      "joints": [
        0,
        1,
        2,
        3,
        4,
        5
      ],
      "name": "Armature",
      "skeleton": 0
    }
  ],
  "materials": [
    {
      "name": "GRAPHICS\\_MATERIALS\\YCLOUTIER-M-2007101639506695.xbm",
      "pbrMetallicRoughness": {
        "baseColorFactor": [
          1.0,
          1.0,
          1.0,
          1.0
        ],
        "metallicFactor": 0.0,
        "roughnessFactor": 1.0,
        "baseColorTexture": {
          "index": 0,
          "texCoord": 0
        }
      },
      "doubleSided": true
    }
  ],
  "textures": [
    {
      "sampler": 0,
      "source": 0
    }
  ],
  "images": [
    {
      "name": "c_cm_gene_white",
      "mimeType": "image/png",
      "uri": "data:image/png;base64,"
    }
  ],
  "samplers": [
    {
      "magFilter": 9729,
      "minFilter": 9987,
      "wrapS": 10497,
      "wrapT": 10497
    }
  ],
  "accessors": [
    {
      "bufferView": 0,
      "componentType": 5126,
      "count": 6,
      "type": "MAT4"
    },
    {
      "bufferView": 1,
      "componentType": 5126,
      "count": 59,
      "type": "VEC3",
      "min": [
        -0.6843470558524132,
        -0.3730582594871521,
        -0.1285134432837367
      ],
      "max": [
        0.6843165373429656,
        0.28644672967493534,
        0.06369212921708822
      ]
    },
    {
      "bufferView": 2,
      "componentType": 5126,
      "count": 59,
      "type": "VEC2"
    },
    {
      "bufferView": 3,
      "componentType": 5123,
      "count": 59,
      "type": "VEC4"
    },
    {
      "bufferView": 4,
      "componentType": 5126,
      "count": 59,
      "type": "VEC4"
    },
    {
      "bufferView": 5,
      "componentType": 5123,
      "count": 282,
      "type": "SCALAR"
    }
  ],
  "bufferViews": [
    {
      "buffer": 0,
      "byteOffset": 0,
      "byteLength": 384
    },
    {
      "buffer": 0,
      "byteOffset": 384,
      "byteLength": 708,
      "target": 34962
    },
    {
      "buffer": 0,
      "byteOffset": 1092,
      "byteLength": 472,
      "target": 34962
    },
    {
      "buffer": 0,
      "byteOffset": 1564,
      "byteLength": 472,
      "target": 34962
    },
    {
      "buffer": 0,
      "byteOffset": 2036,
      "byteLength": 944,
      "target": 34962
    },
    {
      "buffer": 0,
      "byteOffset": 2980,
      "byteLength": 564,
      "target": 34963
    }
  ],
  "buffers": [
    {
      "byteLength": 3544,
      "uri": "bird02.bin"
    }
  ]
}