{
  "asset": {
    "version": "2.0",
    "generator": "XBG to GLTF Converter with Textures"
  },
  "scene": 0,
  "scenes": [
    {
      "name": "Scene",
      "nodes": [
        5
      ]
    }
  ],
  "nodes": [
    {
      "name": "BottleBeer_AnimReady",
      "children": [
        1,
        2,
        3
      ]
    },
    {
      "name": "DeathFX14",
      "translation": [
        0.010263370350003242,
        0.029015110805630684,
        0.04472691938281059
      ],
      "rotation": [
        0.1185593419457371,
        -0.037490553100789505,
        0.9152675016929822,
        -0.38317560100633935
      ]
    },
    {
      "name": "OL_BottleBeer_AnimReady01",
      "translation": [
        -0.018045660108327866,
        0.027117900550365448,
        -0.0677274689078331
      ],
      "rotation": [
        0.11855934914519972,
        -0.03749060120145895,
        0.9152674999482167,
        -0.38317559823976033
      ]
    },
    {
      "name": "BottleBeer_AnimReady_LOD0"
    },
    {
      "name": "MeshNode_LOD0",
      "mesh": 0,
      "skin": 0
    },
    {
      "name": "Correction_Root",
      "rotation": [
        -0.70710678,
        0.0,
        0.0,
        0.70710678
      ],
      "children": [
        0,
        4
      ]
    }
  ],
  "meshes": [
    {
      "name": "Mesh_LOD0",
      "primitives": [
        {
          "attributes": {
            "POSITION": 1,
            "JOINTS_0": 3,
            "WEIGHTS_0": 4,
            "TEXCOORD_0": 2
          },
          "indices": 5,
          "material": 0
        }
      ]
    }
  ],
  "skins": [
    {
      "inverseBindMatrices": 0,
      "joints": [
        0,
        1,
        2,
        3
      ],
      "name": "Armature",
      "skeleton": 0
    }
  ],
  "materials": [
    {
      "name": "GRAPHICS\\_MATERIALS\\MADESLONGCHAMPS-M-1909200757503126.xbm",
      "pbrMetallicRoughness": {
        "baseColorFactor": [
          1.0,
          1.0,
          1.0,
          1.0
        ],
        "metallicFactor": 0.0,
        "roughnessFactor": 1.0,
        "baseColorTexture": {
          "index": 0,
          "texCoord": 0
        }
      },
      "doubleSided": true
    }
  ],
  "textures": [
    {
      "sampler": 0,
      "source": 0
    }
  ],
  "images": [
    {
      "name": "red",
      "mimeType": "image/png",
      "uri": "data:image/png;base64,"
    }
  ],
  "samplers": [
    {
      "magFilter": 9729,
      "minFilter": 9987,
      "wrapS": 10497,
      "wrapT": 10497
    }
  ],
  "accessors": [
    {
      "bufferView": 0,
      "componentType": 5126,
      "count": 4,
      "type": "MAT4"
    },
    {
      "bufferView": 1,
      "componentType": 5126,
      "count": 138,
      "type": "VEC3",
      "min": [
        -0.05371257662773132,
        -0.007843256928026676,
        -0.07721182890236378
      ],
      "max": [
        0.05383465066552162,
        0.0678121279925108,
        0.1696218755096197
      ]
    },
    {
      "bufferView": 2,
      "componentType": 5126,
      "count": 138,
      "type": "VEC2"
    },
    {
      "bufferView": 3,
      "componentType": 5123,
      "count": 138,
      "type": "VEC4"
    },
    {
      "bufferView": 4,
      "componentType": 5126,
      "count": 138,
      "type": "VEC4"
    },
    {
      "bufferView": 5,
      "componentType": 5123,
      "count": 456,
      "type": "SCALAR"
    }
  ],
  "bufferViews": [
    {
      "buffer": 0,
      "byteOffset": 0,
      "byteLength": 256
    },
    {
      "buffer": 0,
      "byteOffset": 256,
      "byteLength": 1656,
      "target": 34962
    },
    {
      "buffer": 0,
      "byteOffset": 1912,
      "byteLength": 1104,
      "target": 34962
    },
    {
      "buffer": 0,
      "byteOffset": 3016,
      "byteLength": 1104,
      "target": 34962
    },
    {
      "buffer": 0,
      "byteOffset": 4120,
      "byteLength": 2208,
      "target": 34962
    },
    {
      "buffer": 0,
      "byteOffset": 6328,
      "byteLength": 912,
      "target": 34963
    }
  ],
  "buffers": [
    {
      "byteLength": 7240,
      "uri": "bottlebeer_animready.bin"
    }
  ]
}