{
  "asset": {
    "version": "2.0",
    "generator": "XBG to GLTF Converter with Textures"
  },
  "scene": 0,
  "scenes": [
    {
      "name": "Scene",
      "nodes": [
        43
      ]
    }
  ],
  "nodes": [
    {
      "name": "Wildebeest",
      "children": [
        1
      ]
    },
    {
      "name": "Hips",
      "translation": [
        0.0,
        -0.3543192148208618,
        1.271236777305603
      ],
      "rotation": [
        0.042204370875550054,
        -0.04220367224103182,
        0.7058461906332794,
        0.7058461564947494
      ],
      "children": [
        2,
        29,
        32,
        37
      ]
    },
    {
      "name": "Spine",
      "translation": [
        0.3570542037487029,
        5.000000058430445e-08,
        2.900000024563809e-07
      ],
      "rotation": [
        -4.7641100862767065e-07,
        0.21753932766029116,
        1.501020979592662e-07,
        0.9760515564870839
      ],
      "children": [
        3,
        17,
        23
      ]
    },
    {
      "name": "Neck",
      "translation": [
        0.5591205954551697,
        -1.1999999571798986e-07,
        1.1000000199601345e-07
      ],
      "rotation": [
        4.7630852148817275e-06,
        -0.19577011704201677,
        -3.99057649493146e-05,
        0.9806498149993188
      ],
      "children": [
        4
      ]
    },
    {
      "name": "Neck1",
      "translation": [
        0.3271960616111753,
        -0.00015284000255633146,
        -1.199999957179898e-07
      ],
      "rotation": [
        5.357933694967365e-05,
        -0.15164105595926486,
        2.6858666271725935e-05,
        0.9884356259035921
      ],
      "children": [
        5
      ]
    },
    {
      "name": "Head",
      "translation": [
        0.2711807489395137,
        -1.6539999705855735e-05,
        2.699999869237857e-07
      ],
      "rotation": [
        1.9657147600272138e-05,
        0.6808847794099008,
        0.00027683415481126016,
        0.7323904970330939
      ],
      "children": [
        6,
        7,
        9,
        11,
        13,
        15
      ]
    },
    {
      "name": "HeadNub",
      "translation": [
        0.64096599817276,
        9.489999683864989e-06,
        -4.2999999982917814e-07
      ],
      "rotation": [
        0.00011384760861862016,
        0.013156837938099313,
        0.00048054650524322165,
        0.9999133231081826
      ]
    },
    {
      "name": "RightEar",
      "translation": [
        0.04435268044471785,
        -0.09574761241674423,
        0.04149911180138521
      ],
      "rotation": [
        -0.38752992927456503,
        0.6577257841277514,
        0.48819685639028504,
        -0.42294343339759255
      ],
      "children": [
        8
      ]
    },
    {
      "name": "RightEarNub",
      "translation": [
        0.23592162132263172,
        -1.0300000214957805e-06,
        4.5999999537249536e-07
      ],
      "rotation": [
        -1.3877787807814457e-17,
        2.7755575615628914e-17,
        -1.5407439555097887e-33,
        1.0
      ]
    },
    {
      "name": "LeftEar",
      "translation": [
        0.057673860341309946,
        0.09592626243829727,
        0.04037293046712942
      ],
      "rotation": [
        0.37090877919193843,
        0.667553417347316,
        -0.4991849821908291,
        -0.40940622773198876
      ],
      "children": [
        10
      ]
    },
    {
      "name": "LeftEarNub",
      "translation": [
        0.24115189909934986,
        1.0600000448501845e-06,
        2.2000000396427133e-07
      ],
      "rotation": [
        -2.7755575615628914e-17,
        -1.3877787807814457e-17,
        -1.3877787807814457e-17,
        1.0
      ]
    },
    {
      "name": "Jaw",
      "translation": [
        0.1220489665865897,
        3.9599999581696574e-05,
        0.08432824909687042
      ],
      "rotation": [
        5.914676007749359e-05,
        0.21307214597388702,
        -0.0002108031567485846,
        0.9770364438820961
      ],
      "children": [
        12
      ]
    },
    {
      "name": "JawNub",
      "translation": [
        0.5012682080268759,
        -2.7999999474548603e-07,
        9.99999993922529e-09
      ],
      "rotation": [
        -6.703524094293348e-15,
        -2.7764249233008798e-15,
        -1.7629665190535809e-13,
        1.0
      ]
    },
    {
      "name": "RightEye",
      "translation": [
        0.26381880044937156,
        -0.08038233220577239,
        0.17582204937934853
      ],
      "rotation": [
        0.042779327579267994,
        -0.5275376466391276,
        -0.33407297989773044,
        0.779916153543939
      ],
      "children": [
        14
      ]
    },
    {
      "name": "RightEyeNub",
      "translation": [
        0.07500548660755135,
        2.2000000393651575e-07,
        2.6000000730164174e-07
      ],
      "rotation": [
        -1.3877787807814457e-17,
        6.938893903907228e-18,
        0.0,
        1.0
      ]
    },
    {
      "name": "LeftEye",
      "translation": [
        0.2638747096061701,
        0.08047305047512056,
        0.17579142749309606
      ],
      "rotation": [
        -0.05050130257839986,
        -0.5304669834615022,
        0.3289813787933346,
        0.7796317445942806
      ],
      "children": [
        16
      ]
    },
    {
      "name": "LeftEyeNub",
      "translation": [
        0.07500060647726059,
        -2.09999996114707e-07,
        5.99999978589949e-08
      ],
      "rotation": [
        -1.3877787807814457e-17,
        -1.3877787807814457e-17,
        -1.3183898417423736e-16,
        1.0
      ]
    },
    {
      "name": "RightShoulder",
      "translation": [
        0.5033385753631592,
        -0.13954040408134458,
        0.06856250762939475
      ],
      "rotation": [
        -1.6205189787731272e-06,
        0.32737752260318864,
        -1.6205189837789333e-06,
        0.9448936224194481
      ],
      "children": [
        18
      ]
    },
    {
      "name": "RightArm",
      "translation": [
        0.3094694316435254,
        9.99999993922529e-09,
        -1.5000045072710577e-07
      ],
      "rotation": [
        1.4474982923679812e-08,
        0.7239816766538397,
        1.0208063568157544e-06,
        0.6898192023048162
      ],
      "children": [
        19
      ]
    },
    {
      "name": "RightForeArm",
      "translation": [
        0.2394605576992037,
        -1.0300000213014915e-06,
        3.8600001061595e-06
      ],
      "rotation": [
        -7.892476763235787e-07,
        -0.5443087157743812,
        3.42370199486911e-06,
        0.8388849873014175
      ],
      "children": [
        20
      ]
    },
    {
      "name": "RightHand",
      "translation": [
        0.3599952757422702,
        -7.99999995415579e-08,
        4.499994259443696e-07
      ],
      "rotation": [
        1.370756078857008e-07,
        0.1257565777844422,
        -1.0256703886956942e-05,
        0.9920611286804494
      ],
      "children": [
        21
      ]
    },
    {
      "name": "RightFingerBase",
      "translation": [
        0.3522254526621751,
        1.0000000116860974e-07,
        1.6000002500682342e-07
      ],
      "rotation": [
        1.2027153975201299e-06,
        -0.25108879726169864,
        1.2099969870678691e-05,
        0.9679640570505795
      ],
      "children": [
        22
      ]
    },
    {
      "name": "RightHandMiddle1",
      "translation": [
        0.14382024109025252,
        -9.999999911469715e-09,
        -2.499994949944906e-07
      ],
      "rotation": [
        -4.1689949554775905e-13,
        -2.7755575615628926e-17,
        3.580025138948259e-12,
        1.0
      ]
    },
    {
      "name": "LeftShoulder",
      "translation": [
        0.5033385157585144,
        0.13953658938407898,
        0.0685631111264231
      ],
      "rotation": [
        1.758014895398481e-06,
        0.3273769844486525,
        1.1752836994327206e-06,
        0.9448938088742219
      ],
      "children": [
        24
      ]
    },
    {
      "name": "LeftArm",
      "translation": [
        0.30947023630228243,
        9.99999993922529e-09,
        -7.999680451398206e-08
      ],
      "rotation": [
        5.719585816792111e-07,
        0.7239823939306301,
        2.3167088116551522e-07,
        0.6898184495054428
      ],
      "children": [
        25
      ]
    },
    {
      "name": "LeftForeArm",
      "translation": [
        0.2394609898291583,
        1.1199999789546222e-06,
        3.8100015352648953e-06
      ],
      "rotation": [
        -4.436131889033674e-06,
        -0.5443085486450887,
        -3.804725812597977e-06,
        0.8388850957298754
      ],
      "children": [
        26
      ]
    },
    {
      "name": "LeftHand",
      "translation": [
        0.3599953055302892,
        2.999999892949745e-08,
        3.299994271177553e-07
      ],
      "rotation": [
        -1.5625187408953208e-05,
        0.1257562521532582,
        9.437993908441434e-06,
        0.9920611698434447
      ],
      "children": [
        27
      ]
    },
    {
      "name": "LeftFingerBase",
      "translation": [
        0.3522248864157479,
        -2.999999892949745e-08,
        4.000024173000938e-08
      ],
      "rotation": [
        -2.6465631860703718e-05,
        -0.2510971145400895,
        -6.8197957866167426e-06,
        0.9679618992102438
      ],
      "children": [
        28
      ]
    },
    {
      "name": "LeftHandMiddle1",
      "translation": [
        0.1438212543727502,
        -1.999999987845058e-08,
        -3.4000002685496966e-07
      ],
      "rotation": [
        6.771871756142723e-13,
        1.249000902703301e-16,
        6.631316987170905e-13,
        1.0
      ]
    },
    {
      "name": "Tail",
      "translation": [
        -0.296421855688095,
        -2.117582368135751e-22,
        0.00921539030969143
      ],
      "rotation": [
        0.08117982896163821,
        5.200000235535002e-07,
        0.9966994709386622,
        -2.8212999017766756e-07
      ],
      "children": [
        30
      ]
    },
    {
      "name": "Tail1",
      "translation": [
        0.4748743772506713,
        1.999999987845058e-08,
        -2.699999868127634e-07
      ],
      "rotation": [
        -4.774406789333773e-07,
        0.02354369754764401,
        4.0728420955529385e-08,
        0.9997228087352792
      ],
      "children": [
        31
      ]
    },
    {
      "name": "TailNub",
      "translation": [
        0.5838449001312254,
        3.999999975690137e-08,
        1.3300000316629479e-06
      ],
      "rotation": [
        0.0,
        -2.168404344971009e-19,
        -3.7636717871162765e-23,
        1.0
      ]
    },
    {
      "name": "LeftUpLeg",
      "translation": [
        -0.12926271557807917,
        0.15274383127689364,
        -0.08500602841377258
      ],
      "rotation": [
        -1.8997006593652785e-07,
        0.5936564200910706,
        1.4247754535649023e-07,
        0.8047186184528092
      ],
      "children": [
        33
      ]
    },
    {
      "name": "LeftLeg",
      "translation": [
        0.36793750524520874,
        -2.9999998901741876e-08,
        -9.000000042447276e-08
      ],
      "rotation": [
        2.3359536390351775e-08,
        0.4671906494883975,
        -6.213636452985311e-07,
        0.8841566020961574
      ],
      "children": [
        34
      ]
    },
    {
      "name": "LeftFoot",
      "translation": [
        0.4004802107810974,
        -4.44999977844418e-06,
        -2.699999867017411e-07
      ],
      "rotation": [
        -1.7192073920078976e-06,
        -0.3166128123481711,
        -3.3244345310358383e-07,
        0.9485548624375479
      ],
      "children": [
        35
      ]
    },
    {
      "name": "LeftToeBase",
      "translation": [
        0.36865875124931446,
        9.999999966980866e-09,
        -2.099999962257293e-07
      ],
      "rotation": [
        -1.3495848902448302e-06,
        -0.15459174212894258,
        -1.5474620652954385e-06,
        0.9879784376499937
      ],
      "children": [
        36
      ]
    },
    {
      "name": "LeftFootMiddle1",
      "translation": [
        0.13846440613669,
        -2.7755575615628914e-17,
        -4.999359448643048e-08
      ],
      "rotation": [
        7.9861086743913e-12,
        -6.938893903907231e-17,
        -3.8668119476198775e-12,
        1.0
      ]
    },
    {
      "name": "RightUpLeg",
      "translation": [
        -0.12926268577575678,
        -0.15274010598659515,
        -0.08500573039054893
      ],
      "rotation": [
        -4.096229389780928e-07,
        0.5936564200911293,
        -7.480070943802015e-07,
        0.804718618452349
      ],
      "children": [
        38
      ]
    },
    {
      "name": "RightLeg",
      "translation": [
        0.3679375648498534,
        9.99999993922529e-09,
        -5.000000061899934e-08
      ],
      "rotation": [
        -1.214695464294611e-06,
        0.4671906298940119,
        -5.746443963564074e-07,
        0.8841566124490788
      ],
      "children": [
        39
      ]
    },
    {
      "name": "RightFoot",
      "translation": [
        0.40048032998437194,
        4.7600001380210255e-06,
        -3.200000606717879e-07
      ],
      "rotation": [
        -4.3376220642317395e-07,
        -0.31661278015709987,
        1.1049788813217977e-06,
        0.9485548731832983
      ],
      "children": [
        40
      ]
    },
    {
      "name": "RightToeBase",
      "translation": [
        0.3686586916354738,
        7.999999951380232e-08,
        -6.999988722000694e-08
      ],
      "rotation": [
        -3.092007479781309e-08,
        -0.1545917421287501,
        1.2676557301545237e-06,
        0.9879784376513437
      ],
      "children": [
        41
      ]
    },
    {
      "name": "RightFootMiddle1",
      "translation": [
        0.1384642869231228,
        -9.999999911469715e-09,
        -1.9996169609015624e-08
      ],
      "rotation": [
        -4.239866633525886e-12,
        -4.163336342344337e-17,
        -1.3214186110155511e-12,
        1.0
      ]
    },
    {
      "name": "MeshNode_LOD0",
      "mesh": 0,
      "skin": 0
    },
    {
      "name": "Correction_Root",
      "rotation": [
        -0.70710678,
        0.0,
        0.0,
        0.70710678
      ],
      "children": [
        0,
        42
      ]
    }
  ],
  "meshes": [
    {
      "name": "Mesh_LOD0",
      "primitives": [
        {
          "attributes": {
            "POSITION": 1,
            "JOINTS_0": 3,
            "WEIGHTS_0": 4,
            "TEXCOORD_0": 2
          },
          "indices": 5,
          "material": 0
        },
        {
          "attributes": {
            "POSITION": 1,
            "JOINTS_0": 3,
            "WEIGHTS_0": 4,
            "TEXCOORD_0": 2
          },
          "indices": 6,
          "material": 1
        },
        {
          "attributes": {
            "POSITION": 1,
            "JOINTS_0": 3,
            "WEIGHTS_0": 4,
            "TEXCOORD_0": 2
          },
          "indices": 7,
          "material": 2
        }
      ]
    }
  ],
  "skins": [
    {
      "inverseBindMatrices": 0,
      "joints": [
        0,
        1,
        2,
        3,
        4,
        5,
        6,
        7,
        8,
        9,
        10,
        11,
        12,
        13,
        14,
        15,
        16,
        17,
        18,
        19,
        20,
        21,
        22,
        23,
        24,
        25,
        26,
        27,
        28,
        29,
        30,
        31,
        32,
        33,
        34,
        35,
        36,
        37,
        38,
        39,
        40,
        41
      ],
      "name": "Armature",
      "skeleton": 0
    }
  ],
  "materials": [
    {
      "name": "GRAPHICS\\_MATERIALS\\CROMAGNOLI-M-2008060656036583.xbm",
      "pbrMetallicRoughness": {
        "baseColorFactor": [
          1.0,
          1.0,
          1.0,
          1.0
        ],
        "metallicFactor": 0.0,
        "roughnessFactor": 1.0,
        "baseColorTexture": {
          "index": 0,
          "texCoord": 0
        }
      },
      "doubleSided": true
    },
    {
      "name": "GRAPHICS\\_MATERIALS\\AAMANCIO-M-2007111741943427.xbm",
      "pbrMetallicRoughness": {
        "baseColorFactor": [
          1.0,
          1.0,
          1.0,
          1.0
        ],
        "metallicFactor": 0.0,
        "roughnessFactor": 1.0,
        "baseColorTexture": {
          "index": 1,
          "texCoord": 0
        }
      },
      "doubleSided": true
    },
    {
      "name": "GRAPHICS\\_MATERIALS\\AAMANCIO-M-2007111045529727.xbm",
      "pbrMetallicRoughness": {
        "baseColorFactor": [
          1.0,
          1.0,
          1.0,
          1.0
        ],
        "metallicFactor": 0.0,
        "roughnessFactor": 1.0,
        "baseColorTexture": {
          "index": 2,
          "texCoord": 0
        }
      },
      "doubleSided": true
    }
  ],
  "textures": [
    {
      "sampler": 0,
      "source": 0
    },
    {
      "sampler": 0,
      "source": 1
    },
    {
      "sampler": 0,
      "source": 2
    }
  ],
  "images": [
    {
      "name": "c_wildebeest_d",
      "mimeType": "image/png",
      "uri": "data:image/png;base64,"
    },
    {
      "name": "c_wildebeest_d",
      "mimeType": "image/png",
      "uri": "data:image/png;base64,"
    },
    {
      "name": "c_wildebeest_d",
      "mimeType": "image/png",
      "uri": "data:image/png;base64,"
    }
  ],
  "samplers": [
    {
      "magFilter": 9729,
      "minFilter": 9987,
      "wrapS": 10497,
      "wrapT": 10497
    }
  ],
  "accessors": [
    {
      "bufferView": 0,
      "componentType": 5126,
      "count": 42,
      "type": "MAT4"
    },
    {
      "bufferView": 1,
      "componentType": 5126,
      "count": 1665,
      "type": "VEC3",
      "min": [
        -0.3724478892982006,
        -1.7030549012124538,
        -0.006897183135151863
      ],
      "max": [
        0.37238685227930546,
        1.4759971909224987,
        1.5574205741286278
      ]
    },
    {
      "bufferView": 2,
      "componentType": 5126,
      "count": 1665,
      "type": "VEC2"
    },
    {
      "bufferView": 3,
      "componentType": 5123,
      "count": 1665,
      "type": "VEC4"
    },
    {
      "bufferView": 4,
      "componentType": 5126,
      "count": 1665,
      "type": "VEC4"
    },
    {
      "bufferView": 5,
      "componentType": 5123,
      "count": 258,
      "type": "SCALAR"
    },
    {
      "bufferView": 6,
      "componentType": 5123,
      "count": 120,
      "type": "SCALAR"
    },
    {
      "bufferView": 7,
      "componentType": 5123,
      "count": 8046,
      "type": "SCALAR"
    }
  ],
  "bufferViews": [
    {
      "buffer": 0,
      "byteOffset": 0,
      "byteLength": 2688
    },
    {
      "buffer": 0,
      "byteOffset": 2688,
      "byteLength": 19980,
      "target": 34962
    },
    {
      "buffer": 0,
      "byteOffset": 22668,
      "byteLength": 13320,
      "target": 34962
    },
    {
      "buffer": 0,
      "byteOffset": 35988,
      "byteLength": 13320,
      "target": 34962
    },
    {
      "buffer": 0,
      "byteOffset": 49308,
      "byteLength": 26640,
      "target": 34962
    },
    {
      "buffer": 0,
      "byteOffset": 75948,
      "byteLength": 516,
      "target": 34963
    },
    {
      "buffer": 0,
      "byteOffset": 76464,
      "byteLength": 240,
      "target": 34963
    },
    {
      "buffer": 0,
      "byteOffset": 76704,
      "byteLength": 16092,
      "target": 34963
    }
  ],
  "buffers": [
    {
      "byteLength": 92796,
      "uri": "wildebeest.bin"
    }
  ]
}