{
  "asset": {
    "version": "2.0",
    "generator": "XBG to GLTF Converter with Textures"
  },
  "scene": 0,
  "scenes": [
    {
      "name": "Scene",
      "nodes": [
        4
      ]
    }
  ],
  "nodes": [
    {
      "name": "Molotov",
      "children": [
        1,
        2
      ]
    },
    {
      "name": "FX_FIRE01",
      "translation": [
        1.8999999440438842e-07,
        0.04577216878533363,
        0.45117467641830444
      ]
    },
    {
      "name": "FRAME"
    },
    {
      "name": "MeshNode_LOD0",
      "mesh": 0,
      "skin": 0
    },
    {
      "name": "Correction_Root",
      "rotation": [
        -0.70710678,
        0.0,
        0.0,
        0.70710678
      ],
      "children": [
        0,
        3
      ]
    }
  ],
  "meshes": [
    {
      "name": "Mesh_LOD0",
      "primitives": [
        {
          "attributes": {
            "POSITION": 1,
            "JOINTS_0": 3,
            "WEIGHTS_0": 4,
            "TEXCOORD_0": 2
          },
          "indices": 5,
          "material": 0
        },
        {
          "attributes": {
            "POSITION": 1,
            "JOINTS_0": 3,
            "WEIGHTS_0": 4,
            "TEXCOORD_0": 2
          },
          "indices": 6,
          "material": 1
        }
      ]
    }
  ],
  "skins": [
    {
      "inverseBindMatrices": 0,
      "joints": [
        0,
        1,
        2
      ],
      "name": "Armature",
      "skeleton": 0
    }
  ],
  "materials": [
    {
      "name": "GRAPHICS\\_MATERIALS\\PFERNANDEZ-M-2007042542316895.xbm",
      "pbrMetallicRoughness": {
        "baseColorFactor": [
          1.0,
          1.0,
          1.0,
          1.0
        ],
        "metallicFactor": 0.0,
        "roughnessFactor": 1.0,
        "baseColorTexture": {
          "index": 0,
          "texCoord": 0
        }
      },
      "doubleSided": true
    },
    {
      "name": "GRAPHICS\\_MATERIALS\\PFERNANDEZ-M-2007042554381472.xbm",
      "pbrMetallicRoughness": {
        "baseColorFactor": [
          1.0,
          1.0,
          1.0,
          1.0
        ],
        "metallicFactor": 0.0,
        "roughnessFactor": 1.0,
        "baseColorTexture": {
          "index": 1,
          "texCoord": 0
        }
      },
      "doubleSided": true
    }
  ],
  "textures": [
    {
      "sampler": 0,
      "source": 0
    },
    {
      "sampler": 0,
      "source": 1
    }
  ],
  "images": [
    {
      "name": "dirtbeam_d",
      "mimeType": "image/png",
      "uri": "data:image/png;base64,"
    },
    {
      "name": "dirtbeam_d",
      "mimeType": "image/png",
      "uri": "data:image/png;base64,"
    }
  ],
  "samplers": [
    {
      "magFilter": 9729,
      "minFilter": 9987,
      "wrapS": 10497,
      "wrapT": 10497
    }
  ],
  "accessors": [
    {
      "bufferView": 0,
      "componentType": 5126,
      "count": 3,
      "type": "MAT4"
    },
    {
      "bufferView": 1,
      "componentType": 5126,
      "count": 683,
      "type": "VEC3",
      "min": [
        -0.05490279849618673,
        -0.05697805713862181,
        0.0001831110566854477
      ],
      "max": [
        0.05853450112044811,
        0.06280709244310856,
        0.4614398628473282
      ]
    },
    {
      "bufferView": 2,
      "componentType": 5126,
      "count": 683,
      "type": "VEC2"
    },
    {
      "bufferView": 3,
      "componentType": 5123,
      "count": 683,
      "type": "VEC4"
    },
    {
      "bufferView": 4,
      "componentType": 5126,
      "count": 683,
      "type": "VEC4"
    },
    {
      "bufferView": 5,
      "componentType": 5123,
      "count": 525,
      "type": "SCALAR"
    },
    {
      "bufferView": 6,
      "componentType": 5123,
      "count": 2160,
      "type": "SCALAR"
    }
  ],
  "bufferViews": [
    {
      "buffer": 0,
      "byteOffset": 0,
      "byteLength": 192
    },
    {
      "buffer": 0,
      "byteOffset": 192,
      "byteLength": 8196,
      "target": 34962
    },
    {
      "buffer": 0,
      "byteOffset": 8388,
      "byteLength": 5464,
      "target": 34962
    },
    {
      "buffer": 0,
      "byteOffset": 13852,
      "byteLength": 5464,
      "target": 34962
    },
    {
      "buffer": 0,
      "byteOffset": 19316,
      "byteLength": 10928,
      "target": 34962
    },
    {
      "buffer": 0,
      "byteOffset": 30244,
      "byteLength": 1050,
      "target": 34963
    },
    {
      "buffer": 0,
      "byteOffset": 31294,
      "byteLength": 4320,
      "target": 34963
    }
  ],
  "buffers": [
    {
      "byteLength": 35614,
      "uri": "molotov.bin"
    }
  ]
}