{
  "asset": {
    "version": "2.0",
    "generator": "XBG to GLTF Converter with Textures"
  },
  "scene": 0,
  "scenes": [
    {
      "name": "Scene",
      "nodes": [
        7
      ]
    }
  ],
  "nodes": [
    {
      "name": "olotov_AnimReady_LeftHand",
      "children": [
        1,
        5
      ]
    },
    {
      "name": "FRAME02",
      "translation": [
        -0.02799006924033165,
        -0.06014169007539749,
        -0.07764261960983276
      ],
      "rotation": [
        -0.16788673334955598,
        0.07654283067981361,
        -0.664358972781163,
        0.7242806047438766
      ],
      "children": [
        2,
        3,
        4
      ]
    },
    {
      "name": "COL_FRAME01",
      "translation": [
        0.0014845799887553135,
        -0.0004719299904536456,
        0.2498239278793335
      ],
      "rotation": [
        6.938893903907228e-17,
        -5.898059818321144e-17,
        1.9949319973733282e-16,
        1.0
      ]
    },
    {
      "name": "COL_FRAME02",
      "translation": [
        0.0014845399418846536,
        -0.0004719200078398024,
        0.004801259841769934
      ],
      "rotation": [
        6.938893903907228e-17,
        -5.898059818321144e-17,
        1.9949319973733282e-16,
        1.0
      ]
    },
    {
      "name": "FRAME02_LOD0",
      "rotation": [
        6.938893903907228e-17,
        -5.898059818321144e-17,
        1.9949319973733282e-16,
        1.0
      ]
    },
    {
      "name": "FX_FIRE02",
      "translation": [
        0.16555330157279968,
        0.006481789983808994,
        0.3270251452922821
      ],
      "rotation": [
        -0.16788673334955598,
        0.07654283067981361,
        -0.664358972781163,
        0.7242806047438766
      ]
    },
    {
      "name": "MeshNode_LOD0",
      "mesh": 0,
      "skin": 0
    },
    {
      "name": "Correction_Root",
      "rotation": [
        -0.70710678,
        0.0,
        0.0,
        0.70710678
      ],
      "children": [
        0,
        6
      ]
    }
  ],
  "meshes": [
    {
      "name": "Mesh_LOD0",
      "primitives": [
        {
          "attributes": {
            "POSITION": 1,
            "JOINTS_0": 3,
            "WEIGHTS_0": 4,
            "TEXCOORD_0": 2
          },
          "indices": 5,
          "material": 0
        },
        {
          "attributes": {
            "POSITION": 1,
            "JOINTS_0": 3,
            "WEIGHTS_0": 4,
            "TEXCOORD_0": 2
          },
          "indices": 6,
          "material": 1
        },
        {
          "attributes": {
            "POSITION": 1,
            "JOINTS_0": 3,
            "WEIGHTS_0": 4,
            "TEXCOORD_0": 2
          },
          "indices": 7,
          "material": 2
        }
      ]
    }
  ],
  "skins": [
    {
      "inverseBindMatrices": 0,
      "joints": [
        0,
        1,
        2,
        3,
        4,
        5
      ],
      "name": "Armature",
      "skeleton": 0
    }
  ],
  "materials": [
    {
      "name": "GRAPHICS\\_MATERIALS\\PFERNANDEZ-M-2007042554381472.xbm",
      "pbrMetallicRoughness": {
        "baseColorFactor": [
          1.0,
          1.0,
          1.0,
          1.0
        ],
        "metallicFactor": 0.0,
        "roughnessFactor": 1.0,
        "baseColorTexture": {
          "index": 0,
          "texCoord": 0
        }
      },
      "doubleSided": true
    },
    {
      "name": "GRAPHICS\\_MATERIALS\\PFERNANDEZ-M-2007042553657431.xbm",
      "pbrMetallicRoughness": {
        "baseColorFactor": [
          1.0,
          1.0,
          1.0,
          1.0
        ],
        "metallicFactor": 0.0,
        "roughnessFactor": 1.0,
        "baseColorTexture": {
          "index": 1,
          "texCoord": 0
        }
      },
      "doubleSided": true
    },
    {
      "name": "GRAPHICS\\_MATERIALS\\PFERNANDEZ-M-2007042542316895.xbm",
      "pbrMetallicRoughness": {
        "baseColorFactor": [
          1.0,
          1.0,
          1.0,
          1.0
        ],
        "metallicFactor": 0.0,
        "roughnessFactor": 1.0,
        "baseColorTexture": {
          "index": 2,
          "texCoord": 0
        }
      },
      "doubleSided": true
    }
  ],
  "textures": [
    {
      "sampler": 0,
      "source": 0
    },
    {
      "sampler": 0,
      "source": 1
    },
    {
      "sampler": 0,
      "source": 2
    }
  ],
  "images": [
    {
      "name": "dirtbeam_d",
      "mimeType": "image/png",
      "uri": "data:image/png;base64,"
    },
    {
      "name": "molotov_label_d",
      "mimeType": "image/png",
      "uri": "data:image/png;base64,"
    },
    {
      "name": "dirtbeam_d",
      "mimeType": "image/png",
      "uri": "data:image/png;base64,"
    }
  ],
  "samplers": [
    {
      "magFilter": 9729,
      "minFilter": 9987,
      "wrapS": 10497,
      "wrapT": 10497
    }
  ],
  "accessors": [
    {
      "bufferView": 0,
      "componentType": 5126,
      "count": 6,
      "type": "MAT4"
    },
    {
      "bufferView": 1,
      "componentType": 5126,
      "count": 718,
      "type": "VEC3",
      "min": [
        -0.055116428062319756,
        -0.05719168670475483,
        0.0001831110566854477
      ],
      "max": [
        0.058748130686581135,
        0.06302072200924158,
        0.4614398628473282
      ]
    },
    {
      "bufferView": 2,
      "componentType": 5126,
      "count": 718,
      "type": "VEC2"
    },
    {
      "bufferView": 3,
      "componentType": 5123,
      "count": 718,
      "type": "VEC4"
    },
    {
      "bufferView": 4,
      "componentType": 5126,
      "count": 718,
      "type": "VEC4"
    },
    {
      "bufferView": 5,
      "componentType": 5123,
      "count": 1980,
      "type": "SCALAR"
    },
    {
      "bufferView": 6,
      "componentType": 5123,
      "count": 150,
      "type": "SCALAR"
    },
    {
      "bufferView": 7,
      "componentType": 5123,
      "count": 525,
      "type": "SCALAR"
    }
  ],
  "bufferViews": [
    {
      "buffer": 0,
      "byteOffset": 0,
      "byteLength": 384
    },
    {
      "buffer": 0,
      "byteOffset": 384,
      "byteLength": 8616,
      "target": 34962
    },
    {
      "buffer": 0,
      "byteOffset": 9000,
      "byteLength": 5744,
      "target": 34962
    },
    {
      "buffer": 0,
      "byteOffset": 14744,
      "byteLength": 5744,
      "target": 34962
    },
    {
      "buffer": 0,
      "byteOffset": 20488,
      "byteLength": 11488,
      "target": 34962
    },
    {
      "buffer": 0,
      "byteOffset": 31976,
      "byteLength": 3960,
      "target": 34963
    },
    {
      "buffer": 0,
      "byteOffset": 35936,
      "byteLength": 300,
      "target": 34963
    },
    {
      "buffer": 0,
      "byteOffset": 36236,
      "byteLength": 1050,
      "target": 34963
    }
  ],
  "buffers": [
    {
      "byteLength": 37286,
      "uri": "molotov_animready_lefthand.bin"
    }
  ]
}