{
  "asset": {
    "version": "2.0",
    "generator": "XBG to GLTF Converter with Textures"
  },
  "scene": 0,
  "scenes": [
    {
      "name": "Scene",
      "nodes": [
        11
      ]
    }
  ],
  "nodes": [
    {
      "name": "TURRET_Browning",
      "children": [
        1,
        3,
        4,
        5,
        6,
        7,
        8,
        9
      ]
    },
    {
      "name": "ACCESSORY04",
      "translation": [
        -0.00023910999880172312,
        0.28884199261665344,
        0.03476602956652641
      ],
      "rotation": [
        1.4142136350869848e-08,
        -1.414213467471208e-08,
        -0.707106769084929,
        0.7071067932881655
      ],
      "children": [
        2
      ]
    },
    {
      "name": "FX_FIRE",
      "translation": [
        -0.6007342338562012,
        -0.0007397499866783621,
        0.00031135999597609737
      ],
      "rotation": [
        -2.121320070485033e-08,
        2.8284272282700195e-08,
        0.7071067690849289,
        0.7071067932881651
      ]
    },
    {
      "name": "FRAME"
    },
    {
      "name": "CLIP_BULLET",
      "translation": [
        -0.041675541549921036,
        -0.09587936103343964,
        0.0807570368051529
      ]
    },
    {
      "name": "ACCESSORY02",
      "translation": [
        -0.0002492200001142919,
        -0.025427719578146935,
        0.09420190751552582
      ]
    },
    {
      "name": "ACCESSORY",
      "translation": [
        -0.00027429001056589186,
        -0.5405119061470032,
        0.08577308803796768
      ]
    },
    {
      "name": "ACCESSORY03",
      "translation": [
        0.035368259996175766,
        -0.33663424849510193,
        0.030034460127353668
      ],
      "rotation": [
        1.4142136350869848e-08,
        -1.414213467471208e-08,
        -0.707106769084929,
        0.7071067932881655
      ]
    },
    {
      "name": "FX_CASING",
      "translation": [
        0.04061039164662361,
        -0.10841254144906998,
        0.07559613138437271
      ],
      "rotation": [
        0.09229589241369979,
        -0.09229588779358466,
        -0.7010574331482028,
        0.7010573521377997
      ]
    },
    {
      "name": "Weapon_Break"
    },
    {
      "name": "MeshNode_LOD0",
      "mesh": 0,
      "skin": 0
    },
    {
      "name": "Correction_Root",
      "rotation": [
        -0.70710678,
        0.0,
        0.0,
        0.70710678
      ],
      "children": [
        0,
        10
      ]
    }
  ],
  "meshes": [
    {
      "name": "Mesh_LOD0",
      "primitives": [
        {
          "attributes": {
            "POSITION": 1,
            "JOINTS_0": 3,
            "WEIGHTS_0": 4,
            "TEXCOORD_0": 2
          },
          "indices": 5,
          "material": 2
        },
        {
          "attributes": {
            "POSITION": 1,
            "JOINTS_0": 3,
            "WEIGHTS_0": 4,
            "TEXCOORD_0": 2
          },
          "indices": 6,
          "material": 0
        },
        {
          "attributes": {
            "POSITION": 1,
            "JOINTS_0": 3,
            "WEIGHTS_0": 4,
            "TEXCOORD_0": 2
          },
          "indices": 7,
          "material": 1
        },
        {
          "attributes": {
            "POSITION": 1,
            "JOINTS_0": 3,
            "WEIGHTS_0": 4,
            "TEXCOORD_0": 2
          },
          "indices": 8,
          "material": 2
        },
        {
          "attributes": {
            "POSITION": 1,
            "JOINTS_0": 3,
            "WEIGHTS_0": 4,
            "TEXCOORD_0": 2
          },
          "indices": 9,
          "material": 2
        },
        {
          "attributes": {
            "POSITION": 1,
            "JOINTS_0": 3,
            "WEIGHTS_0": 4,
            "TEXCOORD_0": 2
          },
          "indices": 10,
          "material": 2
        },
        {
          "attributes": {
            "POSITION": 1,
            "JOINTS_0": 3,
            "WEIGHTS_0": 4,
            "TEXCOORD_0": 2
          },
          "indices": 11,
          "material": 1
        },
        {
          "attributes": {
            "POSITION": 1,
            "JOINTS_0": 3,
            "WEIGHTS_0": 4,
            "TEXCOORD_0": 2
          },
          "indices": 12,
          "material": 2
        },
        {
          "attributes": {
            "POSITION": 1,
            "JOINTS_0": 3,
            "WEIGHTS_0": 4,
            "TEXCOORD_0": 2
          },
          "indices": 13,
          "material": 1
        },
        {
          "attributes": {
            "POSITION": 1,
            "JOINTS_0": 3,
            "WEIGHTS_0": 4,
            "TEXCOORD_0": 2
          },
          "indices": 14,
          "material": 2
        }
      ]
    }
  ],
  "skins": [
    {
      "inverseBindMatrices": 0,
      "joints": [
        0,
        1,
        2,
        3,
        4,
        5,
        6,
        7,
        8,
        9
      ],
      "name": "Armature",
      "skeleton": 0
    }
  ],
  "materials": [
    {
      "name": "GRAPHICS\\_MATERIALS\\SDORE2-M-2007073162836218.xbm",
      "pbrMetallicRoughness": {
        "baseColorFactor": [
          1.0,
          1.0,
          1.0,
          1.0
        ],
        "metallicFactor": 0.0,
        "roughnessFactor": 1.0,
        "baseColorTexture": {
          "index": 0,
          "texCoord": 0
        }
      },
      "doubleSided": true
    },
    {
      "name": "GRAPHICS\\_MATERIALS\\JPCORMIER-M-2007091352297556.xbm",
      "pbrMetallicRoughness": {
        "baseColorFactor": [
          1.0,
          1.0,
          1.0,
          1.0
        ],
        "metallicFactor": 0.0,
        "roughnessFactor": 1.0,
        "baseColorTexture": {
          "index": 1,
          "texCoord": 0
        }
      },
      "doubleSided": true
    },
    {
      "name": "GRAPHICS\\_MATERIALS\\JPCORMIER-M-2007091232346389.xbm",
      "pbrMetallicRoughness": {
        "baseColorFactor": [
          1.0,
          1.0,
          1.0,
          1.0
        ],
        "metallicFactor": 0.0,
        "roughnessFactor": 1.0,
        "baseColorTexture": {
          "index": 2,
          "texCoord": 0
        }
      },
      "doubleSided": true
    }
  ],
  "textures": [
    {
      "sampler": 0,
      "source": 0
    },
    {
      "sampler": 0,
      "source": 1
    },
    {
      "sampler": 0,
      "source": 2
    }
  ],
  "images": [
    {
      "name": "metalbrushed_d",
      "mimeType": "image/png",
      "uri": "data:image/png;base64,"
    },
    {
      "name": "browning_state02_m",
      "mimeType": "image/png",
      "uri": "data:image/png;base64,"
    },
    {
      "name": "dirtrust_03_d",
      "mimeType": "image/png",
      "uri": "data:image/png;base64,"
    }
  ],
  "samplers": [
    {
      "magFilter": 9729,
      "minFilter": 9987,
      "wrapS": 10497,
      "wrapT": 10497
    }
  ],
  "accessors": [
    {
      "bufferView": 0,
      "componentType": 5126,
      "count": 10,
      "type": "MAT4"
    },
    {
      "bufferView": 1,
      "componentType": 5126,
      "count": 8615,
      "type": "VEC3",
      "min": [
        -0.6006042659282684,
        -0.5910824909806252,
        -0.0514542069286108
      ],
      "max": [
        0.6572771379724145,
        0.23001800570636988,
        0.1280556656420231
      ]
    },
    {
      "bufferView": 2,
      "componentType": 5126,
      "count": 8615,
      "type": "VEC2"
    },
    {
      "bufferView": 3,
      "componentType": 5123,
      "count": 8615,
      "type": "VEC4"
    },
    {
      "bufferView": 4,
      "componentType": 5126,
      "count": 8615,
      "type": "VEC4"
    },
    {
      "bufferView": 5,
      "componentType": 5123,
      "count": 1248,
      "type": "SCALAR"
    },
    {
      "bufferView": 6,
      "componentType": 5123,
      "count": 966,
      "type": "SCALAR"
    },
    {
      "bufferView": 7,
      "componentType": 5123,
      "count": 3186,
      "type": "SCALAR"
    },
    {
      "bufferView": 8,
      "componentType": 5123,
      "count": 12771,
      "type": "SCALAR"
    },
    {
      "bufferView": 9,
      "componentType": 5123,
      "count": 870,
      "type": "SCALAR"
    },
    {
      "bufferView": 10,
      "componentType": 5123,
      "count": 2664,
      "type": "SCALAR"
    },
    {
      "bufferView": 11,
      "componentType": 5123,
      "count": 402,
      "type": "SCALAR"
    },
    {
      "bufferView": 12,
      "componentType": 5123,
      "count": 54,
      "type": "SCALAR"
    },
    {
      "bufferView": 13,
      "componentType": 5123,
      "count": 438,
      "type": "SCALAR"
    },
    {
      "bufferView": 14,
      "componentType": 5123,
      "count": 648,
      "type": "SCALAR"
    }
  ],
  "bufferViews": [
    {
      "buffer": 0,
      "byteOffset": 0,
      "byteLength": 640
    },
    {
      "buffer": 0,
      "byteOffset": 640,
      "byteLength": 103380,
      "target": 34962
    },
    {
      "buffer": 0,
      "byteOffset": 104020,
      "byteLength": 68920,
      "target": 34962
    },
    {
      "buffer": 0,
      "byteOffset": 172940,
      "byteLength": 68920,
      "target": 34962
    },
    {
      "buffer": 0,
      "byteOffset": 241860,
      "byteLength": 137840,
      "target": 34962
    },
    {
      "buffer": 0,
      "byteOffset": 379700,
      "byteLength": 2496,
      "target": 34963
    },
    {
      "buffer": 0,
      "byteOffset": 382196,
      "byteLength": 1932,
      "target": 34963
    },
    {
      "buffer": 0,
      "byteOffset": 384128,
      "byteLength": 6372,
      "target": 34963
    },
    {
      "buffer": 0,
      "byteOffset": 390500,
      "byteLength": 25542,
      "target": 34963
    },
    {
      "buffer": 0,
      "byteOffset": 416042,
      "byteLength": 1740,
      "target": 34963
    },
    {
      "buffer": 0,
      "byteOffset": 417782,
      "byteLength": 5328,
      "target": 34963
    },
    {
      "buffer": 0,
      "byteOffset": 423110,
      "byteLength": 804,
      "target": 34963
    },
    {
      "buffer": 0,
      "byteOffset": 423914,
      "byteLength": 108,
      "target": 34963
    },
    {
      "buffer": 0,
      "byteOffset": 424022,
      "byteLength": 876,
      "target": 34963
    },
    {
      "buffer": 0,
      "byteOffset": 424898,
      "byteLength": 1296,
      "target": 34963
    }
  ],
  "buffers": [
    {
      "byteLength": 426194,
      "uri": "turret_browning.bin"
    }
  ]
}