{
  "asset": {
    "version": "2.0",
    "generator": "XBG to GLTF Converter with Textures"
  },
  "scene": 0,
  "scenes": [
    {
      "name": "Scene",
      "nodes": [
        6
      ]
    }
  ],
  "nodes": [
    {
      "name": "M60_02",
      "children": [
        1,
        2,
        3,
        4
      ]
    },
    {
      "name": "FX_FIRE",
      "translation": [
        0.8114385604858398,
        0.005397699773311615,
        0.09454832971096039
      ],
      "rotation": [
        -1.697056291050108e-07,
        1.6970560899112813e-07,
        -0.7071067690849289,
        0.7071067932881252
      ]
    },
    {
      "name": "FRAME",
      "translation": [
        -0.22459684312343597,
        0.004231229890137911,
        -0.02694839984178543
      ]
    },
    {
      "name": "CLIP",
      "translation": [
        0.11233244836330414,
        -0.10120265930891037,
        0.06403172016143799
      ]
    },
    {
      "name": "FX_CASING",
      "translation": [
        0.04298665001988411,
        -0.07708080857992172,
        0.15284721553325653
      ],
      "rotation": [
        -4.999999977062047e-08,
        0.30070587753597616,
        0.9537169261449177,
        7.54978995945654e-08
      ]
    },
    {
      "name": "MeshNode_LOD0",
      "mesh": 0,
      "skin": 0
    },
    {
      "name": "Correction_Root",
      "rotation": [
        -0.70710678,
        0.0,
        0.0,
        0.70710678
      ],
      "children": [
        0,
        5
      ]
    }
  ],
  "meshes": [
    {
      "name": "Mesh_LOD0",
      "primitives": [
        {
          "attributes": {
            "POSITION": 1,
            "JOINTS_0": 3,
            "WEIGHTS_0": 4,
            "TEXCOORD_0": 2
          },
          "indices": 5,
          "material": 0
        },
        {
          "attributes": {
            "POSITION": 1,
            "JOINTS_0": 3,
            "WEIGHTS_0": 4,
            "TEXCOORD_0": 2
          },
          "indices": 6,
          "material": 0
        }
      ]
    }
  ],
  "skins": [
    {
      "inverseBindMatrices": 0,
      "joints": [
        0,
        1,
        2,
        3,
        4
      ],
      "name": "Armature",
      "skeleton": 0
    }
  ],
  "materials": [
    {
      "name": "GRAPHICS\\_MATERIALS\\SGAGNON-M-2009021942592678.xbm",
      "pbrMetallicRoughness": {
        "baseColorFactor": [
          1.0,
          1.0,
          1.0,
          1.0
        ],
        "metallicFactor": 0.0,
        "roughnessFactor": 1.0,
        "baseColorTexture": {
          "index": 0,
          "texCoord": 0
        }
      },
      "doubleSided": true
    }
  ],
  "textures": [
    {
      "sampler": 0,
      "source": 0
    }
  ],
  "images": [
    {
      "name": "m60_3rd_02_d",
      "mimeType": "image/png",
      "uri": "data:image/png;base64,"
    }
  ],
  "samplers": [
    {
      "magFilter": 9729,
      "minFilter": 9987,
      "wrapS": 10497,
      "wrapT": 10497
    }
  ],
  "accessors": [
    {
      "bufferView": 0,
      "componentType": 5126,
      "count": 5,
      "type": "MAT4"
    },
    {
      "bufferView": 1,
      "componentType": 5126,
      "count": 1279,
      "type": "VEC3",
      "min": [
        -0.10745567176491022,
        -0.14661091938614845,
        -0.056764427572488785
      ],
      "max": [
        0.9900509649887681,
        0.054841761477291584,
        0.2370677813887596
      ]
    },
    {
      "bufferView": 2,
      "componentType": 5126,
      "count": 1279,
      "type": "VEC2"
    },
    {
      "bufferView": 3,
      "componentType": 5123,
      "count": 1279,
      "type": "VEC4"
    },
    {
      "bufferView": 4,
      "componentType": 5126,
      "count": 1279,
      "type": "VEC4"
    },
    {
      "bufferView": 5,
      "componentType": 5123,
      "count": 2754,
      "type": "SCALAR"
    },
    {
      "bufferView": 6,
      "componentType": 5123,
      "count": 156,
      "type": "SCALAR"
    }
  ],
  "bufferViews": [
    {
      "buffer": 0,
      "byteOffset": 0,
      "byteLength": 320
    },
    {
      "buffer": 0,
      "byteOffset": 320,
      "byteLength": 15348,
      "target": 34962
    },
    {
      "buffer": 0,
      "byteOffset": 15668,
      "byteLength": 10232,
      "target": 34962
    },
    {
      "buffer": 0,
      "byteOffset": 25900,
      "byteLength": 10232,
      "target": 34962
    },
    {
      "buffer": 0,
      "byteOffset": 36132,
      "byteLength": 20464,
      "target": 34962
    },
    {
      "buffer": 0,
      "byteOffset": 56596,
      "byteLength": 5508,
      "target": 34963
    },
    {
      "buffer": 0,
      "byteOffset": 62104,
      "byteLength": 312,
      "target": 34963
    }
  ],
  "buffers": [
    {
      "byteLength": 62416,
      "uri": "m60_02.bin"
    }
  ]
}