{
  "asset": {
    "version": "2.0",
    "generator": "XBG to GLTF Converter with Textures"
  },
  "scene": 0,
  "scenes": [
    {
      "name": "Scene",
      "nodes": [
        14
      ]
    }
  ],
  "nodes": [
    {
      "name": "Slinger",
      "children": [
        1,
        2
      ]
    },
    {
      "name": "Slinger_Frame"
    },
    {
      "name": "linger_Constrain_To_R_Amr",
      "translation": [
        -0.5071163177490234,
        -0.004639709834009409,
        -0.048594050109386444
      ],
      "rotation": [
        -0.5967974641288672,
        -0.03306708037706616,
        -0.05191118600330144,
        0.8000278643073411
      ],
      "children": [
        3,
        6,
        9,
        10,
        11
      ]
    },
    {
      "name": "Slinger_R_Arm01",
      "translation": [
        0.3468265533447267,
        0.07651439309120184,
        -0.06027214974164963
      ],
      "rotation": [
        0.6377626328378392,
        0.7418116013521409,
        -0.10237634139317016,
        0.1802594192909853
      ],
      "children": [
        4
      ]
    },
    {
      "name": "Slinger_R_Arm02",
      "translation": [
        0.20750348269939428,
        9.999999911469715e-09,
        1.0000000189025471e-08
      ],
      "rotation": [
        0.0006870070872000955,
        0.005743078548068244,
        0.6379582310030899,
        0.7700492455468869
      ],
      "children": [
        5
      ]
    },
    {
      "name": "Slinger_R_Rope",
      "translation": [
        0.09287323802709581,
        0.005590479820966832,
        0.03569867834448815
      ],
      "rotation": [
        -0.015773039663295782,
        0.004378310029679615,
        0.8030981571301579,
        0.5956218527802633
      ]
    },
    {
      "name": "Slinger_L_Arm01",
      "translation": [
        0.35237038135528576,
        -0.06524600088596343,
        0.0031456500291824376
      ],
      "rotation": [
        -0.12802329049882055,
        -0.1670791352049108,
        -0.7272477738467844,
        0.6533033528906066
      ],
      "children": [
        7
      ]
    },
    {
      "name": "Slinger_L_Arm02",
      "translation": [
        0.22028487920761103,
        1.9999999850695005e-08,
        9.99999993922529e-09
      ],
      "rotation": [
        0.04268590937501087,
        -0.035455725712316734,
        0.5921174238330894,
        0.8039389036880716
      ],
      "children": [
        8
      ]
    },
    {
      "name": "Slinger_L_Rope",
      "translation": [
        0.09340587258338927,
        0.01607925072312355,
        -0.0354079306125641
      ],
      "rotation": [
        0.5422562877783865,
        0.840098249594016,
        0.0027045186036067483,
        -0.013628461865478229
      ]
    },
    {
      "name": "Slinger_R_Hook",
      "translation": [
        0.1724579930305482,
        0.025504909455776284,
        -0.09120389819145205
      ],
      "rotation": [
        0.768024213219911,
        -0.2201231104078735,
        -0.2097888595946605,
        0.5636251373032009
      ]
    },
    {
      "name": "Slinger_L_Hook",
      "translation": [
        0.1728034168481828,
        -0.06865902990102764,
        -0.048662859946489334
      ],
      "rotation": [
        0.21841208909293147,
        0.2852184208439524,
        0.10690660164354593,
        0.9271017153505254
      ]
    },
    {
      "name": "Slinger_Rope_Stretch",
      "translation": [
        0.41976827383041393,
        -0.0021397001110016883,
        -0.04800679162144661
      ],
      "rotation": [
        0.6771568523315299,
        0.7034423826613576,
        -0.10152237155025426,
        0.1905796919116092
      ],
      "children": [
        12
      ]
    },
    {
      "name": "Slinger_Projectile",
      "rotation": [
        -5.3776427755281014e-17,
        7.632783294297951e-17,
        2.7408630920433547e-16,
        1.0
      ]
    },
    {
      "name": "MeshNode_LOD0",
      "mesh": 0,
      "skin": 0
    },
    {
      "name": "Correction_Root",
      "rotation": [
        -0.70710678,
        0.0,
        0.0,
        0.70710678
      ],
      "children": [
        0,
        13
      ]
    }
  ],
  "meshes": [
    {
      "name": "Mesh_LOD0",
      "primitives": [
        {
          "attributes": {
            "POSITION": 1,
            "JOINTS_0": 3,
            "WEIGHTS_0": 4,
            "TEXCOORD_0": 2
          },
          "indices": 5,
          "material": 0
        },
        {
          "attributes": {
            "POSITION": 1,
            "JOINTS_0": 3,
            "WEIGHTS_0": 4,
            "TEXCOORD_0": 2
          },
          "indices": 6,
          "material": 1
        }
      ]
    }
  ],
  "skins": [
    {
      "inverseBindMatrices": 0,
      "joints": [
        0,
        1,
        2,
        3,
        4,
        5,
        6,
        7,
        8,
        9,
        10,
        11,
        12
      ],
      "name": "Armature",
      "skeleton": 0
    }
  ],
  "materials": [
    {
      "name": "GRAPHICS\\_MATERIALS\\CSEAUT-M-2008070354748847.xbm",
      "pbrMetallicRoughness": {
        "baseColorFactor": [
          1.0,
          1.0,
          1.0,
          1.0
        ],
        "metallicFactor": 0.0,
        "roughnessFactor": 1.0,
        "baseColorTexture": {
          "index": 0,
          "texCoord": 0
        }
      },
      "doubleSided": true
    },
    {
      "name": "GRAPHICS\\_MATERIALS\\CSEAUT-M-2008070354407519.xbm",
      "pbrMetallicRoughness": {
        "baseColorFactor": [
          1.0,
          1.0,
          1.0,
          1.0
        ],
        "metallicFactor": 0.0,
        "roughnessFactor": 1.0,
        "baseColorTexture": {
          "index": 1,
          "texCoord": 0
        }
      },
      "doubleSided": true
    }
  ],
  "textures": [
    {
      "sampler": 0,
      "source": 0
    },
    {
      "sampler": 0,
      "source": 1
    }
  ],
  "images": [
    {
      "name": "slinger_d",
      "mimeType": "image/png",
      "uri": "data:image/png;base64,"
    },
    {
      "name": "slinger_d",
      "mimeType": "image/png",
      "uri": "data:image/png;base64,"
    }
  ],
  "samplers": [
    {
      "magFilter": 9729,
      "minFilter": 9987,
      "wrapS": 10497,
      "wrapT": 10497
    }
  ],
  "accessors": [
    {
      "bufferView": 0,
      "componentType": 5126,
      "count": 13,
      "type": "MAT4"
    },
    {
      "bufferView": 1,
      "componentType": 5126,
      "count": 6582,
      "type": "VEC3",
      "min": [
        -0.4543290501460433,
        -0.1419721059501171,
        -0.43598742596805096
      ],
      "max": [
        0.012329477816820145,
        0.04562517162412405,
        0.40198980644345284
      ]
    },
    {
      "bufferView": 2,
      "componentType": 5126,
      "count": 6582,
      "type": "VEC2"
    },
    {
      "bufferView": 3,
      "componentType": 5123,
      "count": 6582,
      "type": "VEC4"
    },
    {
      "bufferView": 4,
      "componentType": 5126,
      "count": 6582,
      "type": "VEC4"
    },
    {
      "bufferView": 5,
      "componentType": 5123,
      "count": 1056,
      "type": "SCALAR"
    },
    {
      "bufferView": 6,
      "componentType": 5123,
      "count": 24630,
      "type": "SCALAR"
    }
  ],
  "bufferViews": [
    {
      "buffer": 0,
      "byteOffset": 0,
      "byteLength": 832
    },
    {
      "buffer": 0,
      "byteOffset": 832,
      "byteLength": 78984,
      "target": 34962
    },
    {
      "buffer": 0,
      "byteOffset": 79816,
      "byteLength": 52656,
      "target": 34962
    },
    {
      "buffer": 0,
      "byteOffset": 132472,
      "byteLength": 52656,
      "target": 34962
    },
    {
      "buffer": 0,
      "byteOffset": 185128,
      "byteLength": 105312,
      "target": 34962
    },
    {
      "buffer": 0,
      "byteOffset": 290440,
      "byteLength": 2112,
      "target": 34963
    },
    {
      "buffer": 0,
      "byteOffset": 292552,
      "byteLength": 49260,
      "target": 34963
    }
  ],
  "buffers": [
    {
      "byteLength": 341812,
      "uri": "slinger.bin"
    }
  ]
}