{
  "asset": {
    "version": "2.0",
    "generator": "XBG to GLTF Converter with Textures"
  },
  "scene": 0,
  "scenes": [
    {
      "name": "Scene",
      "nodes": [
        7
      ]
    }
  ],
  "nodes": [
    {
      "name": "CarBurned01_BK",
      "children": [
        1
      ]
    },
    {
      "name": "statePrim",
      "translation": [
        1.2560839653015137,
        -1.6230639219284058,
        0.0
      ],
      "children": [
        2,
        3,
        4,
        5
      ]
    },
    {
      "name": "State01Prim_Base",
      "translation": [
        -1.1460448503494263,
        1.4708551168441772,
        0.6503303647041321
      ]
    },
    {
      "name": "State01_DoorPrim",
      "translation": [
        -0.22559814155101776,
        1.085828185081482,
        0.41236990690231323
      ]
    },
    {
      "name": "State02Door",
      "translation": [
        0.5439315438270569,
        1.1557599306106567,
        0.4388166666030884
      ],
      "rotation": [
        -0.05185984057605055,
        -0.03893971802560735,
        -0.0020236715140382134,
        0.997892860005051
      ]
    },
    {
      "name": "State01Prim_Base0102_",
      "translation": [
        -1.5483906269073486,
        1.4708551168441772,
        0.6503303647041321
      ]
    },
    {
      "name": "MeshNode_LOD0",
      "mesh": 0,
      "skin": 0
    },
    {
      "name": "Correction_Root",
      "rotation": [
        -0.70710678,
        0.0,
        0.0,
        0.70710678
      ],
      "children": [
        0,
        6
      ]
    }
  ],
  "meshes": [
    {
      "name": "Mesh_LOD0",
      "primitives": [
        {
          "attributes": {
            "POSITION": 1,
            "JOINTS_0": 3,
            "WEIGHTS_0": 4,
            "TEXCOORD_0": 2
          },
          "indices": 5,
          "material": 1
        },
        {
          "attributes": {
            "POSITION": 1,
            "JOINTS_0": 3,
            "WEIGHTS_0": 4,
            "TEXCOORD_0": 2
          },
          "indices": 6,
          "material": 1
        },
        {
          "attributes": {
            "POSITION": 1,
            "JOINTS_0": 3,
            "WEIGHTS_0": 4,
            "TEXCOORD_0": 2
          },
          "indices": 7,
          "material": 0
        },
        {
          "attributes": {
            "POSITION": 1,
            "JOINTS_0": 3,
            "WEIGHTS_0": 4,
            "TEXCOORD_0": 2
          },
          "indices": 8,
          "material": 1
        }
      ]
    }
  ],
  "skins": [
    {
      "inverseBindMatrices": 0,
      "joints": [
        0,
        1,
        2,
        3,
        4,
        5
      ],
      "name": "Armature",
      "skeleton": 0
    }
  ],
  "materials": [
    {
      "name": "GRAPHICS\\_MATERIALS\\JOMALLEY-M-1409200735935957.xbm",
      "pbrMetallicRoughness": {
        "baseColorFactor": [
          1.0,
          1.0,
          1.0,
          1.0
        ],
        "metallicFactor": 0.0,
        "roughnessFactor": 1.0,
        "baseColorTexture": {
          "index": 0,
          "texCoord": 0
        }
      },
      "doubleSided": true
    },
    {
      "name": "GRAPHICS\\_MATERIALS\\HLEVASSEUR-M-2008070446632350.xbm",
      "pbrMetallicRoughness": {
        "baseColorFactor": [
          1.0,
          1.0,
          1.0,
          1.0
        ],
        "metallicFactor": 0.0,
        "roughnessFactor": 1.0,
        "baseColorTexture": {
          "index": 1,
          "texCoord": 0
        }
      },
      "doubleSided": true
    }
  ],
  "textures": [
    {
      "sampler": 0,
      "source": 0
    },
    {
      "sampler": 0,
      "source": 1
    }
  ],
  "images": [
    {
      "name": "metalburnedpaint_d",
      "mimeType": "image/png",
      "uri": "data:image/png;base64,"
    },
    {
      "name": "metalgrainy_01_d",
      "mimeType": "image/png",
      "uri": "data:image/png;base64,"
    }
  ],
  "samplers": [
    {
      "magFilter": 9729,
      "minFilter": 9987,
      "wrapS": 10497,
      "wrapT": 10497
    }
  ],
  "accessors": [
    {
      "bufferView": 0,
      "componentType": 5126,
      "count": 6,
      "type": "MAT4"
    },
    {
      "bufferView": 1,
      "componentType": 5126,
      "count": 6462,
      "type": "VEC3",
      "min": [
        -1.2709738444536924,
        -2.639728993177414,
        -0.6771446876227856
      ],
      "max": [
        0.9365214994177222,
        2.510086365044117,
        0.9422894977033138
      ]
    },
    {
      "bufferView": 2,
      "componentType": 5126,
      "count": 6462,
      "type": "VEC2"
    },
    {
      "bufferView": 3,
      "componentType": 5123,
      "count": 6462,
      "type": "VEC4"
    },
    {
      "bufferView": 4,
      "componentType": 5126,
      "count": 6462,
      "type": "VEC4"
    },
    {
      "bufferView": 5,
      "componentType": 5123,
      "count": 13782,
      "type": "SCALAR"
    },
    {
      "bufferView": 6,
      "componentType": 5123,
      "count": 864,
      "type": "SCALAR"
    },
    {
      "bufferView": 7,
      "componentType": 5123,
      "count": 9,
      "type": "SCALAR"
    },
    {
      "bufferView": 8,
      "componentType": 5123,
      "count": 3,
      "type": "SCALAR"
    }
  ],
  "bufferViews": [
    {
      "buffer": 0,
      "byteOffset": 0,
      "byteLength": 384
    },
    {
      "buffer": 0,
      "byteOffset": 384,
      "byteLength": 77544,
      "target": 34962
    },
    {
      "buffer": 0,
      "byteOffset": 77928,
      "byteLength": 51696,
      "target": 34962
    },
    {
      "buffer": 0,
      "byteOffset": 129624,
      "byteLength": 51696,
      "target": 34962
    },
    {
      "buffer": 0,
      "byteOffset": 181320,
      "byteLength": 103392,
      "target": 34962
    },
    {
      "buffer": 0,
      "byteOffset": 284712,
      "byteLength": 27564,
      "target": 34963
    },
    {
      "buffer": 0,
      "byteOffset": 312276,
      "byteLength": 1728,
      "target": 34963
    },
    {
      "buffer": 0,
      "byteOffset": 314004,
      "byteLength": 18,
      "target": 34963
    },
    {
      "buffer": 0,
      "byteOffset": 314022,
      "byteLength": 6,
      "target": 34963
    }
  ],
  "buffers": [
    {
      "byteLength": 314028,
      "uri": "carburned01_bk.bin"
    }
  ]
}