{
  "asset": {
    "version": "2.0",
    "generator": "XBG to GLTF Converter with Textures"
  },
  "scene": 0,
  "scenes": [
    {
      "name": "Scene",
      "nodes": [
        12
      ]
    }
  ],
  "nodes": [
    {
      "name": "F_Plant_Pitching_Micro_01",
      "children": [
        1
      ]
    },
    {
      "name": "Engine_point_Root",
      "translation": [
        0.0,
        0.0,
        -0.18396909534931183
      ],
      "rotation": [
        -1.5999999902759612e-07,
        3.999999975689903e-08,
        0.9999999999999466,
        -2.821299744936827e-07
      ],
      "children": [
        2,
        7,
        8,
        9,
        10
      ]
    },
    {
      "name": "Manip_Engine_point_head",
      "translation": [
        -8.602678370551488e-23,
        1.9852334701272664e-23,
        1.503205180168152
      ],
      "rotation": [
        -3.308722450212111e-24,
        0.0,
        2.646978039055779e-23,
        1.0
      ],
      "children": [
        3,
        4,
        5,
        6
      ]
    },
    {
      "name": "Manip_Engine_point_Mouth",
      "translation": [
        0.023867189884185788,
        -0.008086849935352802,
        0.13680969178676627
      ],
      "rotation": [
        -3.308722450212111e-24,
        0.0,
        2.646978039055779e-23,
        1.0
      ]
    },
    {
      "name": "anip_Engine_point_Spike03",
      "translation": [
        -0.2262251079082489,
        -0.35032629966735845,
        0.6590010523796082
      ],
      "rotation": [
        -5.119176988742649e-08,
        -1.0664952594457167e-07,
        0.42659816840191406,
        0.9044412654872169
      ]
    },
    {
      "name": "anip_Engine_point_Spike02",
      "translation": [
        0.4170685410499572,
        0.0005170400254428387,
        0.6590010523796082
      ],
      "rotation": [
        -8.0612949720533e-08,
        -8.733070599908745e-08,
        0.6717746890796279,
        0.7407555380231425
      ]
    },
    {
      "name": "anip_Engine_point_Spike01",
      "translation": [
        -0.19976592063903806,
        0.36610242724418635,
        0.6590010523796082
      ],
      "rotation": [
        6.094106226396198e-08,
        -1.015684401492388e-07,
        -0.5078421854810733,
        0.8614501231329607
      ]
    },
    {
      "name": "Engine_point_squash01",
      "translation": [
        0.9697419404983522,
        0.00024040999414864925,
        1.1008074283599854
      ],
      "rotation": [
        -1.1999999419297993e-07,
        -4.86247468009236e-19,
        0.9999999872915838,
        -0.00015942652800456428
      ]
    },
    {
      "name": "Engine_point_squash02",
      "translation": [
        -0.005048369988799095,
        0.9697029590606691,
        1.1008074283599851
      ],
      "rotation": [
        8.491174695383559e-08,
        -8.491175644840966e-08,
        -0.7075980305123347,
        0.7066151903370397
      ]
    },
    {
      "name": "Engine_point_squash03",
      "translation": [
        -0.9697342514991761,
        -0.0012021500151604414,
        1.1008074283599854
      ],
      "rotation": [
        -3.308722450212111e-24,
        0.0,
        2.646978039055779e-23,
        1.0
      ]
    },
    {
      "name": "Engine_point_squash04",
      "translation": [
        -0.0007214599754661323,
        -0.9697381258010863,
        1.1008074283599851
      ],
      "rotation": [
        8.489345759480636e-08,
        -8.489345987652625e-08,
        -0.7074455618767389,
        0.706767838105902
      ]
    },
    {
      "name": "MeshNode_LOD0",
      "mesh": 0,
      "skin": 0
    },
    {
      "name": "Correction_Root",
      "rotation": [
        -0.70710678,
        0.0,
        0.0,
        0.70710678
      ],
      "children": [
        0,
        11
      ]
    }
  ],
  "meshes": [
    {
      "name": "Mesh_LOD0",
      "primitives": [
        {
          "attributes": {
            "POSITION": 1,
            "JOINTS_0": 3,
            "WEIGHTS_0": 4,
            "TEXCOORD_0": 2
          },
          "indices": 5,
          "material": 0
        }
      ]
    }
  ],
  "skins": [
    {
      "inverseBindMatrices": 0,
      "joints": [
        0,
        1,
        2,
        3,
        4,
        5,
        6,
        7,
        8,
        9,
        10
      ],
      "name": "Armature",
      "skeleton": 0
    }
  ],
  "materials": [
    {
      "name": "GRAPHICS\\_MATERIALS\\SSEAUT-M-2009041657149387.xbm",
      "pbrMetallicRoughness": {
        "baseColorFactor": [
          1.0,
          1.0,
          1.0,
          1.0
        ],
        "metallicFactor": 0.0,
        "roughnessFactor": 1.0,
        "baseColorTexture": {
          "index": 0,
          "texCoord": 0
        }
      },
      "doubleSided": true
    }
  ],
  "textures": [
    {
      "sampler": 0,
      "source": 0
    }
  ],
  "images": [
    {
      "name": "rf_plant_pitching_02_d",
      "mimeType": "image/png",
      "uri": "data:image/png;base64,"
    }
  ],
  "samplers": [
    {
      "magFilter": 9729,
      "minFilter": 9987,
      "wrapS": 10497,
      "wrapT": 10497
    }
  ],
  "accessors": [
    {
      "bufferView": 0,
      "componentType": 5126,
      "count": 11,
      "type": "MAT4"
    },
    {
      "bufferView": 1,
      "componentType": 5126,
      "count": 1614,
      "type": "VEC3",
      "min": [
        -1.9575487514957786,
        -2.1538438042625785,
        -0.1892452770844102
      ],
      "max": [
        2.0480971690267324,
        1.9619434168562293,
        1.7987914653494954
      ]
    },
    {
      "bufferView": 2,
      "componentType": 5126,
      "count": 1614,
      "type": "VEC2"
    },
    {
      "bufferView": 3,
      "componentType": 5123,
      "count": 1614,
      "type": "VEC4"
    },
    {
      "bufferView": 4,
      "componentType": 5126,
      "count": 1614,
      "type": "VEC4"
    },
    {
      "bufferView": 5,
      "componentType": 5123,
      "count": 6873,
      "type": "SCALAR"
    }
  ],
  "bufferViews": [
    {
      "buffer": 0,
      "byteOffset": 0,
      "byteLength": 704
    },
    {
      "buffer": 0,
      "byteOffset": 704,
      "byteLength": 19368,
      "target": 34962
    },
    {
      "buffer": 0,
      "byteOffset": 20072,
      "byteLength": 12912,
      "target": 34962
    },
    {
      "buffer": 0,
      "byteOffset": 32984,
      "byteLength": 12912,
      "target": 34962
    },
    {
      "buffer": 0,
      "byteOffset": 45896,
      "byteLength": 25824,
      "target": 34962
    },
    {
      "buffer": 0,
      "byteOffset": 71720,
      "byteLength": 13746,
      "target": 34963
    }
  ],
  "buffers": [
    {
      "byteLength": 85466,
      "uri": "rf_plant_pitching_micro_01.bin"
    }
  ]
}