{
  "asset": {
    "version": "2.0",
    "generator": "XBG to GLTF Converter with Textures"
  },
  "scene": 0,
  "scenes": [
    {
      "name": "Scene",
      "nodes": [
        14
      ]
    }
  ],
  "nodes": [
    {
      "name": "RF_Plant_Pitching_01",
      "children": [
        1
      ]
    },
    {
      "name": "Engine_point_Root",
      "rotation": [
        0.0,
        0.0,
        0.9999999999999991,
        -4.37113882867378e-08
      ],
      "children": [
        2,
        3,
        4,
        5,
        6,
        7,
        8,
        9,
        10,
        11,
        12
      ]
    },
    {
      "name": "Manip_Engine_point_head",
      "translation": [
        0.0,
        0.0,
        5.235164642333984
      ],
      "rotation": [
        0.0,
        0.0,
        0.006262272585671513,
        0.9999803917787903
      ]
    },
    {
      "name": "anip_Engine_point_Spike01",
      "translation": [
        -0.2721257805824279,
        0.4806909561157227,
        7.265572547912598
      ],
      "rotation": [
        0.0,
        0.0,
        -0.4852424008983023,
        0.8743796728941332
      ]
    },
    {
      "name": "anip_Engine_point_Spike02",
      "translation": [
        0.5523480176925659,
        0.0070552797988057145,
        7.265572547912598
      ],
      "rotation": [
        0.0,
        0.0,
        0.7115209103346088,
        0.7026649231010536
      ]
    },
    {
      "name": "anip_Engine_point_Spike03",
      "translation": [
        -0.290067195892334,
        -0.4700292348861695,
        7.265572547912598
      ],
      "rotation": [
        0.0,
        0.0,
        0.4406466484850438,
        0.8976806398596877
      ]
    },
    {
      "name": "Engine_point_Mouth02",
      "translation": [
        -0.2459750920534134,
        -0.3985815048217774,
        5.816729545593262
      ],
      "rotation": [
        0.0,
        0.0,
        0.42821270851467297,
        0.9036779715509987
      ]
    },
    {
      "name": "Engine_point_Mouth01",
      "translation": [
        0.4683898687362671,
        0.0058666300028562554,
        5.816729545593262
      ],
      "rotation": [
        0.0,
        0.0,
        0.7425712946487619,
        0.6697670284238105
      ]
    },
    {
      "name": "Engine_point_Mouth03",
      "translation": [
        -0.23076073825359344,
        0.4076226949691773,
        5.816729545593262
      ],
      "rotation": [
        0.0,
        0.0,
        -0.48390242274865136,
        0.8751219602192517
      ]
    },
    {
      "name": "Engine_point_squash04",
      "translation": [
        2.7749221324920654,
        -1.1000000199601345e-07,
        3.249587059020996
      ],
      "rotation": [
        0.0,
        -0.04361937988319551,
        -6.623749239554474e-24,
        0.999048221908535
      ]
    },
    {
      "name": "Engine_point_squash01",
      "translation": [
        4.999999987376214e-07,
        -2.7749218940734868,
        3.249587059020996
      ],
      "rotation": [
        -0.03082870632650596,
        0.03085841051978997,
        0.7060936092876609,
        0.706773771596146
      ]
    },
    {
      "name": "Engine_point_squash03",
      "translation": [
        -2.7749221324920654,
        4.199999921183917e-07,
        3.249587059020996
      ],
      "rotation": [
        0.0006660634678442133,
        0.04361429531016052,
        0.015255172132072472,
        0.9989317440783
      ]
    },
    {
      "name": "Engine_point_squash02",
      "translation": [
        4.199999921183917e-07,
        2.774922132492066,
        3.249587059020996
      ],
      "rotation": [
        0.030465836377749005,
        0.031216714542052756,
        -0.7149789335821096,
        0.697783973683902
      ]
    },
    {
      "name": "MeshNode_LOD0",
      "mesh": 0,
      "skin": 0
    },
    {
      "name": "Correction_Root",
      "rotation": [
        -0.70710678,
        0.0,
        0.0,
        0.70710678
      ],
      "children": [
        0,
        13
      ]
    }
  ],
  "meshes": [
    {
      "name": "Mesh_LOD0",
      "primitives": [
        {
          "attributes": {
            "POSITION": 1,
            "JOINTS_0": 3,
            "WEIGHTS_0": 4,
            "TEXCOORD_0": 2
          },
          "indices": 5,
          "material": 0
        }
      ]
    }
  ],
  "skins": [
    {
      "inverseBindMatrices": 0,
      "joints": [
        0,
        1,
        2,
        3,
        4,
        5,
        6,
        7,
        8,
        9,
        10,
        11,
        12
      ],
      "name": "Armature",
      "skeleton": 0
    }
  ],
  "materials": [
    {
      "name": "GRAPHICS\\_MATERIALS\\SSEAUT-M-2009041554688701.xbm",
      "pbrMetallicRoughness": {
        "baseColorFactor": [
          1.0,
          1.0,
          1.0,
          1.0
        ],
        "metallicFactor": 0.0,
        "roughnessFactor": 1.0,
        "baseColorTexture": {
          "index": 0,
          "texCoord": 0
        }
      },
      "doubleSided": true
    }
  ],
  "textures": [
    {
      "sampler": 0,
      "source": 0
    }
  ],
  "images": [
    {
      "name": "rf_plant_pitching_01b_d",
      "mimeType": "image/png",
      "uri": "data:image/png;base64,"
    }
  ],
  "samplers": [
    {
      "magFilter": 9729,
      "minFilter": 9987,
      "wrapS": 10497,
      "wrapT": 10497
    }
  ],
  "accessors": [
    {
      "bufferView": 0,
      "componentType": 5126,
      "count": 13,
      "type": "MAT4"
    },
    {
      "bufferView": 1,
      "componentType": 5126,
      "count": 1749,
      "type": "VEC3",
      "min": [
        -5.2469862923026085,
        -6.058290347456932,
        -0.5486007258296013
      ],
      "max": [
        5.799249239265919,
        5.501632735133171,
        7.3542283326387405
      ]
    },
    {
      "bufferView": 2,
      "componentType": 5126,
      "count": 1749,
      "type": "VEC2"
    },
    {
      "bufferView": 3,
      "componentType": 5123,
      "count": 1749,
      "type": "VEC4"
    },
    {
      "bufferView": 4,
      "componentType": 5126,
      "count": 1749,
      "type": "VEC4"
    },
    {
      "bufferView": 5,
      "componentType": 5123,
      "count": 7569,
      "type": "SCALAR"
    }
  ],
  "bufferViews": [
    {
      "buffer": 0,
      "byteOffset": 0,
      "byteLength": 832
    },
    {
      "buffer": 0,
      "byteOffset": 832,
      "byteLength": 20988,
      "target": 34962
    },
    {
      "buffer": 0,
      "byteOffset": 21820,
      "byteLength": 13992,
      "target": 34962
    },
    {
      "buffer": 0,
      "byteOffset": 35812,
      "byteLength": 13992,
      "target": 34962
    },
    {
      "buffer": 0,
      "byteOffset": 49804,
      "byteLength": 27984,
      "target": 34962
    },
    {
      "buffer": 0,
      "byteOffset": 77788,
      "byteLength": 15138,
      "target": 34963
    }
  ],
  "buffers": [
    {
      "byteLength": 92926,
      "uri": "rf_plant_pitching_01.bin"
    }
  ]
}