{
  "asset": {
    "version": "2.0",
    "generator": "XBG to GLTF Converter with Textures"
  },
  "scene": 0,
  "scenes": [
    {
      "name": "Scene",
      "nodes": [
        31
      ]
    }
  ],
  "nodes": [
    {
      "name": "ChariotBox02",
      "children": [
        1
      ]
    },
    {
      "name": "ChariotBoxWood02a_STATE",
      "translation": [
        0.028505859896540642,
        -0.004157709889113903,
        0.5506314635276794
      ],
      "children": [
        2,
        3
      ]
    },
    {
      "name": "ChariotBoxWood020a_STATE1"
    },
    {
      "name": "ChariotBoxWood021a_STATE2",
      "children": [
        4,
        7,
        14,
        22
      ]
    },
    {
      "name": "riotBoxWood02b_BASE_STATE",
      "translation": [
        0.0,
        1.251857876777649,
        -0.20765243470668793
      ],
      "children": [
        5,
        6
      ]
    },
    {
      "name": "ChariotBoxWood020b_STATE1"
    },
    {
      "name": "ChariotBoxWood021b_STATE2",
      "translation": [
        -0.8615282773971558,
        -0.0007421899936161935,
        -0.09499324858188629
      ]
    },
    {
      "name": "Object09b_STATE",
      "translation": [
        -0.3479028344154358,
        2.914421319961548,
        0.38181036710739136
      ],
      "children": [
        8,
        11,
        12,
        13
      ]
    },
    {
      "name": "Object090b_STATE1",
      "children": [
        9,
        10
      ]
    },
    {
      "name": "Object09b_FX",
      "translation": [
        -0.43680357933044434,
        0.0,
        -0.05480452999472618
      ]
    },
    {
      "name": "Object09b_FX01",
      "translation": [
        0.3456358313560486,
        0.0,
        0.1528809368610382
      ]
    },
    {
      "name": "Object091b_STATE2",
      "translation": [
        -0.11174072325229645,
        0.1682727038860321,
        0.38538894057273865
      ],
      "rotation": [
        0.0,
        0.08715573883589996,
        0.0,
        0.9961946984339799
      ]
    },
    {
      "name": "Object092b_STATE2",
      "translation": [
        0.023182369768619537,
        0.11292479932308197,
        -0.2273002564907074
      ],
      "rotation": [
        -0.1561112862876162,
        0.08352068878232426,
        0.028731715161678453,
        0.9837825213884139
      ]
    },
    {
      "name": "Object095b_STATE2",
      "translation": [
        -0.04952621087431908,
        0.08747558295726776,
        0.05041443184018135
      ],
      "rotation": [
        0.0,
        -0.300705849875221,
        0.0,
        0.9537169348663265
      ]
    },
    {
      "name": "Object28b_STATE",
      "translation": [
        -1.0731201171875,
        1.2183959484100342,
        0.1842777281999588
      ],
      "children": [
        15,
        19,
        20,
        21
      ]
    },
    {
      "name": "Object280b_STATE1",
      "children": [
        16,
        17,
        18
      ]
    },
    {
      "name": "Object28b0_FX",
      "translation": [
        -0.15378791093826294,
        -1.234152913093567,
        0.2890258729457855
      ]
    },
    {
      "name": "Object28b1_FX",
      "translation": [
        -0.15378791093826294,
        -0.20540595054626465,
        0.23374724388122559
      ]
    },
    {
      "name": "Object28b_FX",
      "translation": [
        -0.15378791093826294,
        1.159358024597168,
        0.21854354441165924
      ]
    },
    {
      "name": "Object281b_STATE2",
      "translation": [
        -0.19343993067741394,
        -0.31914472579956055,
        0.46438154578208923
      ],
      "rotation": [
        0.08715573883589996,
        0.0,
        0.0,
        0.9961946984339799
      ]
    },
    {
      "name": "Object284b_STATE2",
      "translation": [
        -0.08681059628725052,
        1.097503900527954,
        0.1510199010372162
      ],
      "rotation": [
        -0.1305261728157091,
        0.0,
        0.0,
        0.9914448639284402
      ]
    },
    {
      "name": "Object285b_STATE2",
      "translation": [
        0.015184019692242146,
        -1.2552460432052612,
        0.17079314589500427
      ],
      "rotation": [
        0.08508979511344429,
        0.21561597245948214,
        -0.018863953606649952,
        0.9725809120268735
      ]
    },
    {
      "name": "Object27b_STATE",
      "translation": [
        0.3470825254917145,
        -0.017348630353808403,
        0.577656090259552
      ],
      "children": [
        23,
        27,
        28,
        29
      ]
    },
    {
      "name": "Object270b_STATE1",
      "children": [
        24,
        25,
        26
      ]
    },
    {
      "name": "Object27b0_FX"
    },
    {
      "name": "Object27b1_FX",
      "translation": [
        -0.019543379545211792,
        1.156373381614685,
        0.1809883862733841
      ]
    },
    {
      "name": "Object27b_FX",
      "translation": [
        0.0,
        2.4633615016937256,
        0.09987892210483551
      ]
    },
    {
      "name": "Object271b_STATE2",
      "translation": [
        0.010705569759011269,
        2.0913121700286865,
        0.26947638392448425
      ],
      "rotation": [
        -0.1305261728157091,
        0.0,
        0.0,
        0.9914448639284402
      ]
    },
    {
      "name": "Object273b_STATE2",
      "translation": [
        0.1421048641204834,
        0.054256610572338104,
        0.09765510261058807
      ],
      "rotation": [
        -0.08815688455299647,
        0.3620704348601759,
        0.09982064112634487,
        0.922588317313477
      ]
    },
    {
      "name": "Object275b_STATE2",
      "translation": [
        0.09287597239017487,
        0.9313378930091858,
        0.004603649955242872
      ]
    },
    {
      "name": "MeshNode_LOD0",
      "mesh": 0,
      "skin": 0
    },
    {
      "name": "Correction_Root",
      "rotation": [
        -0.70710678,
        0.0,
        0.0,
        0.70710678
      ],
      "children": [
        0,
        30
      ]
    }
  ],
  "meshes": [
    {
      "name": "Mesh_LOD0",
      "primitives": [
        {
          "attributes": {
            "POSITION": 1,
            "JOINTS_0": 3,
            "WEIGHTS_0": 4,
            "TEXCOORD_0": 2
          },
          "indices": 5,
          "material": 0
        },
        {
          "attributes": {
            "POSITION": 1,
            "JOINTS_0": 3,
            "WEIGHTS_0": 4,
            "TEXCOORD_0": 2
          },
          "indices": 6,
          "material": 1
        },
        {
          "attributes": {
            "POSITION": 1,
            "JOINTS_0": 3,
            "WEIGHTS_0": 4,
            "TEXCOORD_0": 2
          },
          "indices": 7,
          "material": 2
        },
        {
          "attributes": {
            "POSITION": 1,
            "JOINTS_0": 3,
            "WEIGHTS_0": 4,
            "TEXCOORD_0": 2
          },
          "indices": 8,
          "material": 0
        },
        {
          "attributes": {
            "POSITION": 1,
            "JOINTS_0": 3,
            "WEIGHTS_0": 4,
            "TEXCOORD_0": 2
          },
          "indices": 9,
          "material": 1
        },
        {
          "attributes": {
            "POSITION": 1,
            "JOINTS_0": 3,
            "WEIGHTS_0": 4,
            "TEXCOORD_0": 2
          },
          "indices": 10,
          "material": 2
        },
        {
          "attributes": {
            "POSITION": 1,
            "JOINTS_0": 3,
            "WEIGHTS_0": 4,
            "TEXCOORD_0": 2
          },
          "indices": 11,
          "material": 0
        },
        {
          "attributes": {
            "POSITION": 1,
            "JOINTS_0": 3,
            "WEIGHTS_0": 4,
            "TEXCOORD_0": 2
          },
          "indices": 12,
          "material": 0
        },
        {
          "attributes": {
            "POSITION": 1,
            "JOINTS_0": 3,
            "WEIGHTS_0": 4,
            "TEXCOORD_0": 2
          },
          "indices": 13,
          "material": 1
        },
        {
          "attributes": {
            "POSITION": 1,
            "JOINTS_0": 3,
            "WEIGHTS_0": 4,
            "TEXCOORD_0": 2
          },
          "indices": 14,
          "material": 0
        },
        {
          "attributes": {
            "POSITION": 1,
            "JOINTS_0": 3,
            "WEIGHTS_0": 4,
            "TEXCOORD_0": 2
          },
          "indices": 15,
          "material": 0
        },
        {
          "attributes": {
            "POSITION": 1,
            "JOINTS_0": 3,
            "WEIGHTS_0": 4,
            "TEXCOORD_0": 2
          },
          "indices": 16,
          "material": 0
        },
        {
          "attributes": {
            "POSITION": 1,
            "JOINTS_0": 3,
            "WEIGHTS_0": 4,
            "TEXCOORD_0": 2
          },
          "indices": 17,
          "material": 0
        },
        {
          "attributes": {
            "POSITION": 1,
            "JOINTS_0": 3,
            "WEIGHTS_0": 4,
            "TEXCOORD_0": 2
          },
          "indices": 18,
          "material": 1
        },
        {
          "attributes": {
            "POSITION": 1,
            "JOINTS_0": 3,
            "WEIGHTS_0": 4,
            "TEXCOORD_0": 2
          },
          "indices": 19,
          "material": 0
        },
        {
          "attributes": {
            "POSITION": 1,
            "JOINTS_0": 3,
            "WEIGHTS_0": 4,
            "TEXCOORD_0": 2
          },
          "indices": 20,
          "material": 0
        },
        {
          "attributes": {
            "POSITION": 1,
            "JOINTS_0": 3,
            "WEIGHTS_0": 4,
            "TEXCOORD_0": 2
          },
          "indices": 21,
          "material": 0
        },
        {
          "attributes": {
            "POSITION": 1,
            "JOINTS_0": 3,
            "WEIGHTS_0": 4,
            "TEXCOORD_0": 2
          },
          "indices": 22,
          "material": 0
        },
        {
          "attributes": {
            "POSITION": 1,
            "JOINTS_0": 3,
            "WEIGHTS_0": 4,
            "TEXCOORD_0": 2
          },
          "indices": 23,
          "material": 1
        },
        {
          "attributes": {
            "POSITION": 1,
            "JOINTS_0": 3,
            "WEIGHTS_0": 4,
            "TEXCOORD_0": 2
          },
          "indices": 24,
          "material": 0
        },
        {
          "attributes": {
            "POSITION": 1,
            "JOINTS_0": 3,
            "WEIGHTS_0": 4,
            "TEXCOORD_0": 2
          },
          "indices": 25,
          "material": 0
        },
        {
          "attributes": {
            "POSITION": 1,
            "JOINTS_0": 3,
            "WEIGHTS_0": 4,
            "TEXCOORD_0": 2
          },
          "indices": 26,
          "material": 0
        }
      ]
    }
  ],
  "skins": [
    {
      "inverseBindMatrices": 0,
      "joints": [
        0,
        1,
        2,
        3,
        4,
        5,
        6,
        7,
        8,
        9,
        10,
        11,
        12,
        13,
        14,
        15,
        16,
        17,
        18,
        19,
        20,
        21,
        22,
        23,
        24,
        25,
        26,
        27,
        28,
        29
      ],
      "name": "Armature",
      "skeleton": 0
    }
  ],
  "materials": [
    {
      "name": "GRAPHICS\\_MATERIALS\\JARRIOLA-M-2704200747920566.xbm",
      "pbrMetallicRoughness": {
        "baseColorFactor": [
          1.0,
          1.0,
          1.0,
          1.0
        ],
        "metallicFactor": 0.0,
        "roughnessFactor": 1.0,
        "baseColorTexture": {
          "index": 0,
          "texCoord": 0
        }
      },
      "doubleSided": true
    },
    {
      "name": "GRAPHICS\\_MATERIALS\\JARRIOLA-M-2704200747909987.xbm",
      "pbrMetallicRoughness": {
        "baseColorFactor": [
          1.0,
          1.0,
          1.0,
          1.0
        ],
        "metallicFactor": 0.0,
        "roughnessFactor": 1.0,
        "baseColorTexture": {
          "index": 1,
          "texCoord": 0
        }
      },
      "doubleSided": true
    },
    {
      "name": "GRAPHICS\\_MATERIALS\\JDUROCHER-M-2007102961601533.xbm",
      "pbrMetallicRoughness": {
        "baseColorFactor": [
          1.0,
          1.0,
          1.0,
          1.0
        ],
        "metallicFactor": 0.0,
        "roughnessFactor": 1.0,
        "baseColorTexture": {
          "index": 2,
          "texCoord": 0
        }
      },
      "doubleSided": true
    }
  ],
  "textures": [
    {
      "sampler": 0,
      "source": 0
    },
    {
      "sampler": 0,
      "source": 1
    },
    {
      "sampler": 0,
      "source": 2
    }
  ],
  "images": [
    {
      "name": "woodmoss_02_d",
      "mimeType": "image/png",
      "uri": "data:image/png;base64,"
    },
    {
      "name": "dirtrust_05_d",
      "mimeType": "image/png",
      "uri": "data:image/png;base64,"
    },
    {
      "name": "cement_01_d",
      "mimeType": "image/png",
      "uri": "data:image/png;base64,"
    }
  ],
  "samplers": [
    {
      "magFilter": 9729,
      "minFilter": 9987,
      "wrapS": 10497,
      "wrapT": 10497
    }
  ],
  "accessors": [
    {
      "bufferView": 0,
      "componentType": 5126,
      "count": 30,
      "type": "MAT4"
    },
    {
      "bufferView": 1,
      "componentType": 5126,
      "count": 7984,
      "type": "VEC3",
      "min": [
        -1.3097323514521122,
        -3.2040772698819637,
        -0.6767784655094147
      ],
      "max": [
        1.155430767685175,
        3.2039551958441734,
        1.1025727093219757
      ]
    },
    {
      "bufferView": 2,
      "componentType": 5126,
      "count": 7984,
      "type": "VEC2"
    },
    {
      "bufferView": 3,
      "componentType": 5123,
      "count": 7984,
      "type": "VEC4"
    },
    {
      "bufferView": 4,
      "componentType": 5126,
      "count": 7984,
      "type": "VEC4"
    },
    {
      "bufferView": 5,
      "componentType": 5123,
      "count": 3240,
      "type": "SCALAR"
    },
    {
      "bufferView": 6,
      "componentType": 5123,
      "count": 4968,
      "type": "SCALAR"
    },
    {
      "bufferView": 7,
      "componentType": 5123,
      "count": 1008,
      "type": "SCALAR"
    },
    {
      "bufferView": 8,
      "componentType": 5123,
      "count": 1032,
      "type": "SCALAR"
    },
    {
      "bufferView": 9,
      "componentType": 5123,
      "count": 3528,
      "type": "SCALAR"
    },
    {
      "bufferView": 10,
      "componentType": 5123,
      "count": 1008,
      "type": "SCALAR"
    },
    {
      "bufferView": 11,
      "componentType": 5123,
      "count": 240,
      "type": "SCALAR"
    },
    {
      "bufferView": 12,
      "componentType": 5123,
      "count": 300,
      "type": "SCALAR"
    },
    {
      "bufferView": 13,
      "componentType": 5123,
      "count": 432,
      "type": "SCALAR"
    },
    {
      "bufferView": 14,
      "componentType": 5123,
      "count": 36,
      "type": "SCALAR"
    },
    {
      "bufferView": 15,
      "componentType": 5123,
      "count": 120,
      "type": "SCALAR"
    },
    {
      "bufferView": 16,
      "componentType": 5123,
      "count": 36,
      "type": "SCALAR"
    },
    {
      "bufferView": 17,
      "componentType": 5123,
      "count": 984,
      "type": "SCALAR"
    },
    {
      "bufferView": 18,
      "componentType": 5123,
      "count": 456,
      "type": "SCALAR"
    },
    {
      "bufferView": 19,
      "componentType": 5123,
      "count": 180,
      "type": "SCALAR"
    },
    {
      "bufferView": 20,
      "componentType": 5123,
      "count": 180,
      "type": "SCALAR"
    },
    {
      "bufferView": 21,
      "componentType": 5123,
      "count": 36,
      "type": "SCALAR"
    },
    {
      "bufferView": 22,
      "componentType": 5123,
      "count": 924,
      "type": "SCALAR"
    },
    {
      "bufferView": 23,
      "componentType": 5123,
      "count": 552,
      "type": "SCALAR"
    },
    {
      "bufferView": 24,
      "componentType": 5123,
      "count": 180,
      "type": "SCALAR"
    },
    {
      "bufferView": 25,
      "componentType": 5123,
      "count": 180,
      "type": "SCALAR"
    },
    {
      "bufferView": 26,
      "componentType": 5123,
      "count": 36,
      "type": "SCALAR"
    }
  ],
  "bufferViews": [
    {
      "buffer": 0,
      "byteOffset": 0,
      "byteLength": 1920
    },
    {
      "buffer": 0,
      "byteOffset": 1920,
      "byteLength": 95808,
      "target": 34962
    },
    {
      "buffer": 0,
      "byteOffset": 97728,
      "byteLength": 63872,
      "target": 34962
    },
    {
      "buffer": 0,
      "byteOffset": 161600,
      "byteLength": 63872,
      "target": 34962
    },
    {
      "buffer": 0,
      "byteOffset": 225472,
      "byteLength": 127744,
      "target": 34962
    },
    {
      "buffer": 0,
      "byteOffset": 353216,
      "byteLength": 6480,
      "target": 34963
    },
    {
      "buffer": 0,
      "byteOffset": 359696,
      "byteLength": 9936,
      "target": 34963
    },
    {
      "buffer": 0,
      "byteOffset": 369632,
      "byteLength": 2016,
      "target": 34963
    },
    {
      "buffer": 0,
      "byteOffset": 371648,
      "byteLength": 2064,
      "target": 34963
    },
    {
      "buffer": 0,
      "byteOffset": 373712,
      "byteLength": 7056,
      "target": 34963
    },
    {
      "buffer": 0,
      "byteOffset": 380768,
      "byteLength": 2016,
      "target": 34963
    },
    {
      "buffer": 0,
      "byteOffset": 382784,
      "byteLength": 480,
      "target": 34963
    },
    {
      "buffer": 0,
      "byteOffset": 383264,
      "byteLength": 600,
      "target": 34963
    },
    {
      "buffer": 0,
      "byteOffset": 383864,
      "byteLength": 864,
      "target": 34963
    },
    {
      "buffer": 0,
      "byteOffset": 384728,
      "byteLength": 72,
      "target": 34963
    },
    {
      "buffer": 0,
      "byteOffset": 384800,
      "byteLength": 240,
      "target": 34963
    },
    {
      "buffer": 0,
      "byteOffset": 385040,
      "byteLength": 72,
      "target": 34963
    },
    {
      "buffer": 0,
      "byteOffset": 385112,
      "byteLength": 1968,
      "target": 34963
    },
    {
      "buffer": 0,
      "byteOffset": 387080,
      "byteLength": 912,
      "target": 34963
    },
    {
      "buffer": 0,
      "byteOffset": 387992,
      "byteLength": 360,
      "target": 34963
    },
    {
      "buffer": 0,
      "byteOffset": 388352,
      "byteLength": 360,
      "target": 34963
    },
    {
      "buffer": 0,
      "byteOffset": 388712,
      "byteLength": 72,
      "target": 34963
    },
    {
      "buffer": 0,
      "byteOffset": 388784,
      "byteLength": 1848,
      "target": 34963
    },
    {
      "buffer": 0,
      "byteOffset": 390632,
      "byteLength": 1104,
      "target": 34963
    },
    {
      "buffer": 0,
      "byteOffset": 391736,
      "byteLength": 360,
      "target": 34963
    },
    {
      "buffer": 0,
      "byteOffset": 392096,
      "byteLength": 360,
      "target": 34963
    },
    {
      "buffer": 0,
      "byteOffset": 392456,
      "byteLength": 72,
      "target": 34963
    }
  ],
  "buffers": [
    {
      "byteLength": 392528,
      "uri": "chariotbox02.bin"
    }
  ]
}