{
  "asset": {
    "version": "2.0",
    "generator": "XBG to GLTF Converter with Textures"
  },
  "scene": 0,
  "scenes": [
    {
      "name": "Scene",
      "nodes": [
        35
      ]
    }
  ],
  "nodes": [
    {
      "name": "chariotbox01",
      "children": [
        1
      ]
    },
    {
      "name": "Carta_STATE",
      "translation": [
        -0.016865229234099388,
        -1.1479589939117432,
        0.9284428954124451
      ],
      "children": [
        2,
        3
      ]
    },
    {
      "name": "Cart0a_STATE1"
    },
    {
      "name": "Cart1a_STATE2",
      "children": [
        4,
        10,
        19,
        28
      ]
    },
    {
      "name": "Object05b_STATE",
      "translation": [
        0.012246089987456799,
        2.909677743911743,
        0.27873915433883667
      ],
      "children": [
        5,
        8,
        9
      ]
    },
    {
      "name": "Object050b_STATE1",
      "translation": [
        0.0,
        0.0,
        0.469886839389801
      ],
      "children": [
        6,
        7
      ]
    },
    {
      "name": "Object05b_FX",
      "translation": [
        -0.4132521450519562,
        4.879999778495403e-06,
        -0.38847365975379944
      ]
    },
    {
      "name": "Object05b_FX01",
      "translation": [
        0.429947167634964,
        4.879999778495403e-06,
        -0.38847365975379944
      ]
    },
    {
      "name": "Object051b_STATE2",
      "translation": [
        -0.005224610213190317,
        0.11301756650209427,
        0.25572165846824646
      ]
    },
    {
      "name": "Object053b_STATE2",
      "translation": [
        0.002578119980171323,
        0.11999999731779099,
        -0.19900229573249817
      ]
    },
    {
      "name": "Object04b_STATE",
      "translation": [
        -0.71180659532547,
        0.0,
        0.2900567650794983
      ],
      "children": [
        11,
        15,
        16,
        17,
        18
      ]
    },
    {
      "name": "Object040b_STATE1",
      "translation": [
        0.0,
        0.0,
        0.6152938008308411
      ],
      "children": [
        12,
        13,
        14
      ]
    },
    {
      "name": "Object04b_FX",
      "translation": [
        0.0,
        0.19029052555561066,
        -0.6152938604354858
      ]
    },
    {
      "name": "Object04b_FX01",
      "translation": [
        0.0,
        1.2518128156661987,
        -0.6152938604354858
      ]
    },
    {
      "name": "Object04b_FX02",
      "translation": [
        0.0,
        2.3133351802825928,
        -0.6152938604354858
      ]
    },
    {
      "name": "Object047b_STATE2",
      "translation": [
        -0.11735838651657104,
        1.8524850606918335,
        -0.17546096444129944
      ],
      "rotation": [
        -0.07022160484233102,
        -0.06335604364897139,
        -0.004469040904802041,
        0.9955073910434521
      ]
    },
    {
      "name": "Object0413b_STATE2",
      "translation": [
        -0.11735838651657104,
        0.8174220323562622,
        -0.4038470387458801
      ],
      "rotation": [
        0.05806311592153824,
        -0.4284075200400717,
        0.027598796410181013,
        0.9012957216025662
      ]
    },
    {
      "name": "Object0414b_STATE2",
      "translation": [
        -0.11735838651657104,
        0.476406991481781,
        0.40384694933891296
      ],
      "rotation": [
        -0.07514423686898172,
        0.19366023973151344,
        0.03332002372894641,
        0.9776189601287605
      ]
    },
    {
      "name": "Object081b_STATE2",
      "translation": [
        0.01741942949593067,
        -1.985815405845642,
        0.14981086552143097
      ],
      "rotation": [
        -0.14092444088262493,
        0.0036162145496482887,
        -0.02539605499484158,
        0.9896879636257875
      ]
    },
    {
      "name": "Object06b_STATE",
      "translation": [
        0.7371923923492432,
        -0.01761475019156933,
        0.30159813165664673
      ],
      "children": [
        20,
        24,
        25,
        26,
        27
      ]
    },
    {
      "name": "Object060b_STATE1",
      "translation": [
        0.0,
        0.0,
        0.6367393136024475
      ],
      "children": [
        21,
        22,
        23
      ]
    },
    {
      "name": "Object06b_FX",
      "translation": [
        0.0,
        0.0,
        -0.6367394328117371
      ]
    },
    {
      "name": "Object06b_FX01",
      "translation": [
        0.0,
        1.039113998413086,
        -0.6367394328117371
      ]
    },
    {
      "name": "Object06b_FX02",
      "translation": [
        0.0,
        2.078227996826172,
        -0.6367394328117371
      ]
    },
    {
      "name": "Object063b_STATE2",
      "translation": [
        0.23612670600414276,
        0.22701705992221832,
        0.38165342807769775
      ],
      "rotation": [
        -0.03730462169502929,
        -0.03657835398977415,
        -0.04354419990676276,
        0.9976844650862584
      ]
    },
    {
      "name": "Object064b_STATE2",
      "translation": [
        0.17359168827533722,
        1.689005970954895,
        -0.030357209965586662
      ],
      "rotation": [
        -0.0027043603639322206,
        -0.04736818130202951,
        -0.056935326818759686,
        0.9972498736003975
      ]
    },
    {
      "name": "Object0611b_STATE2",
      "translation": [
        0.1367473602294922,
        1.858776330947876,
        0.5776026844978333
      ],
      "rotation": [
        -0.015858709472377726,
        -0.19986918184126148,
        0.025019030500970874,
        0.9793747288927243
      ]
    },
    {
      "name": "Object091b_STATE2",
      "translation": [
        -0.0197607409209013,
        -1.9678832292556763,
        0.13780716061592102
      ],
      "rotation": [
        0.12437183240116723,
        0.48412289935648045,
        0.18063105496074688,
        0.8470708866069337
      ]
    },
    {
      "name": "Object07b_STATE",
      "translation": [
        0.0,
        1.234780192375183,
        -0.33752182126045227
      ],
      "children": [
        29,
        33
      ]
    },
    {
      "name": "Object070b_STATE1",
      "translation": [
        0.0,
        0.0,
        0.5797593593597412
      ],
      "children": [
        30,
        31,
        32
      ]
    },
    {
      "name": "Object07b_FX",
      "translation": [
        0.03003700077533722,
        -1.5358543395996094,
        -0.28244444727897644
      ]
    },
    {
      "name": "Object07b_FX01",
      "translation": [
        0.030995139852166176,
        -0.13773101568222046,
        -0.28244444727897644
      ]
    },
    {
      "name": "Object07b_FX02",
      "translation": [
        0.07424057275056839,
        1.0026640892028809,
        -0.28244444727897644
      ]
    },
    {
      "name": "Object071b_STATE2",
      "translation": [
        -0.10707519203424454,
        0.1368456929922104,
        0.483489990234375
      ]
    },
    {
      "name": "MeshNode_LOD0",
      "mesh": 0,
      "skin": 0
    },
    {
      "name": "Correction_Root",
      "rotation": [
        -0.70710678,
        0.0,
        0.0,
        0.70710678
      ],
      "children": [
        0,
        34
      ]
    }
  ],
  "meshes": [
    {
      "name": "Mesh_LOD0",
      "primitives": [
        {
          "attributes": {
            "POSITION": 1,
            "JOINTS_0": 3,
            "WEIGHTS_0": 4,
            "TEXCOORD_0": 2
          },
          "indices": 5,
          "material": 0
        },
        {
          "attributes": {
            "POSITION": 1,
            "JOINTS_0": 3,
            "WEIGHTS_0": 4,
            "TEXCOORD_0": 2
          },
          "indices": 6,
          "material": 1
        },
        {
          "attributes": {
            "POSITION": 1,
            "JOINTS_0": 3,
            "WEIGHTS_0": 4,
            "TEXCOORD_0": 2
          },
          "indices": 7,
          "material": 2
        },
        {
          "attributes": {
            "POSITION": 1,
            "JOINTS_0": 3,
            "WEIGHTS_0": 4,
            "TEXCOORD_0": 2
          },
          "indices": 8,
          "material": 0
        },
        {
          "attributes": {
            "POSITION": 1,
            "JOINTS_0": 3,
            "WEIGHTS_0": 4,
            "TEXCOORD_0": 2
          },
          "indices": 9,
          "material": 2
        },
        {
          "attributes": {
            "POSITION": 1,
            "JOINTS_0": 3,
            "WEIGHTS_0": 4,
            "TEXCOORD_0": 2
          },
          "indices": 10,
          "material": 0
        },
        {
          "attributes": {
            "POSITION": 1,
            "JOINTS_0": 3,
            "WEIGHTS_0": 4,
            "TEXCOORD_0": 2
          },
          "indices": 11,
          "material": 0
        },
        {
          "attributes": {
            "POSITION": 1,
            "JOINTS_0": 3,
            "WEIGHTS_0": 4,
            "TEXCOORD_0": 2
          },
          "indices": 12,
          "material": 0
        },
        {
          "attributes": {
            "POSITION": 1,
            "JOINTS_0": 3,
            "WEIGHTS_0": 4,
            "TEXCOORD_0": 2
          },
          "indices": 13,
          "material": 2
        },
        {
          "attributes": {
            "POSITION": 1,
            "JOINTS_0": 3,
            "WEIGHTS_0": 4,
            "TEXCOORD_0": 2
          },
          "indices": 14,
          "material": 0
        },
        {
          "attributes": {
            "POSITION": 1,
            "JOINTS_0": 3,
            "WEIGHTS_0": 4,
            "TEXCOORD_0": 2
          },
          "indices": 15,
          "material": 0
        },
        {
          "attributes": {
            "POSITION": 1,
            "JOINTS_0": 3,
            "WEIGHTS_0": 4,
            "TEXCOORD_0": 2
          },
          "indices": 16,
          "material": 0
        },
        {
          "attributes": {
            "POSITION": 1,
            "JOINTS_0": 3,
            "WEIGHTS_0": 4,
            "TEXCOORD_0": 2
          },
          "indices": 17,
          "material": 0
        },
        {
          "attributes": {
            "POSITION": 1,
            "JOINTS_0": 3,
            "WEIGHTS_0": 4,
            "TEXCOORD_0": 2
          },
          "indices": 18,
          "material": 0
        },
        {
          "attributes": {
            "POSITION": 1,
            "JOINTS_0": 3,
            "WEIGHTS_0": 4,
            "TEXCOORD_0": 2
          },
          "indices": 19,
          "material": 2
        },
        {
          "attributes": {
            "POSITION": 1,
            "JOINTS_0": 3,
            "WEIGHTS_0": 4,
            "TEXCOORD_0": 2
          },
          "indices": 20,
          "material": 0
        },
        {
          "attributes": {
            "POSITION": 1,
            "JOINTS_0": 3,
            "WEIGHTS_0": 4,
            "TEXCOORD_0": 2
          },
          "indices": 21,
          "material": 0
        },
        {
          "attributes": {
            "POSITION": 1,
            "JOINTS_0": 3,
            "WEIGHTS_0": 4,
            "TEXCOORD_0": 2
          },
          "indices": 22,
          "material": 0
        },
        {
          "attributes": {
            "POSITION": 1,
            "JOINTS_0": 3,
            "WEIGHTS_0": 4,
            "TEXCOORD_0": 2
          },
          "indices": 23,
          "material": 0
        },
        {
          "attributes": {
            "POSITION": 1,
            "JOINTS_0": 3,
            "WEIGHTS_0": 4,
            "TEXCOORD_0": 2
          },
          "indices": 24,
          "material": 0
        },
        {
          "attributes": {
            "POSITION": 1,
            "JOINTS_0": 3,
            "WEIGHTS_0": 4,
            "TEXCOORD_0": 2
          },
          "indices": 25,
          "material": 1
        },
        {
          "attributes": {
            "POSITION": 1,
            "JOINTS_0": 3,
            "WEIGHTS_0": 4,
            "TEXCOORD_0": 2
          },
          "indices": 26,
          "material": 2
        },
        {
          "attributes": {
            "POSITION": 1,
            "JOINTS_0": 3,
            "WEIGHTS_0": 4,
            "TEXCOORD_0": 2
          },
          "indices": 27,
          "material": 0
        },
        {
          "attributes": {
            "POSITION": 1,
            "JOINTS_0": 3,
            "WEIGHTS_0": 4,
            "TEXCOORD_0": 2
          },
          "indices": 28,
          "material": 1
        },
        {
          "attributes": {
            "POSITION": 1,
            "JOINTS_0": 3,
            "WEIGHTS_0": 4,
            "TEXCOORD_0": 2
          },
          "indices": 29,
          "material": 2
        }
      ]
    }
  ],
  "skins": [
    {
      "inverseBindMatrices": 0,
      "joints": [
        0,
        1,
        2,
        3,
        4,
        5,
        6,
        7,
        8,
        9,
        10,
        11,
        12,
        13,
        14,
        15,
        16,
        17,
        18,
        19,
        20,
        21,
        22,
        23,
        24,
        25,
        26,
        27,
        28,
        29,
        30,
        31,
        32,
        33
      ],
      "name": "Armature",
      "skeleton": 0
    }
  ],
  "materials": [
    {
      "name": "GRAPHICS\\_MATERIALS\\JARRIOLA-M-2704200747920566.xbm",
      "pbrMetallicRoughness": {
        "baseColorFactor": [
          1.0,
          1.0,
          1.0,
          1.0
        ],
        "metallicFactor": 0.0,
        "roughnessFactor": 1.0,
        "baseColorTexture": {
          "index": 0,
          "texCoord": 0
        }
      },
      "doubleSided": true
    },
    {
      "name": "GRAPHICS\\_MATERIALS\\JDUROCHER-M-2007102961601533.xbm",
      "pbrMetallicRoughness": {
        "baseColorFactor": [
          1.0,
          1.0,
          1.0,
          1.0
        ],
        "metallicFactor": 0.0,
        "roughnessFactor": 1.0,
        "baseColorTexture": {
          "index": 1,
          "texCoord": 0
        }
      },
      "doubleSided": true
    },
    {
      "name": "GRAPHICS\\_MATERIALS\\SDORE2-M-2008011749603053.xbm",
      "pbrMetallicRoughness": {
        "baseColorFactor": [
          1.0,
          1.0,
          1.0,
          1.0
        ],
        "metallicFactor": 0.0,
        "roughnessFactor": 1.0,
        "baseColorTexture": {
          "index": 2,
          "texCoord": 0
        }
      },
      "doubleSided": true
    }
  ],
  "textures": [
    {
      "sampler": 0,
      "source": 0
    },
    {
      "sampler": 0,
      "source": 1
    },
    {
      "sampler": 0,
      "source": 2
    }
  ],
  "images": [
    {
      "name": "woodmoss_02_d",
      "mimeType": "image/png",
      "uri": "data:image/png;base64,"
    },
    {
      "name": "cement_01_d",
      "mimeType": "image/png",
      "uri": "data:image/png;base64,"
    },
    {
      "name": "dirtrust_02_d",
      "mimeType": "image/png",
      "uri": "data:image/png;base64,"
    }
  ],
  "samplers": [
    {
      "magFilter": 9729,
      "minFilter": 9987,
      "wrapS": 10497,
      "wrapT": 10497
    }
  ],
  "accessors": [
    {
      "bufferView": 0,
      "componentType": 5126,
      "count": 34,
      "type": "MAT4"
    },
    {
      "bufferView": 1,
      "componentType": 5126,
      "count": 13685,
      "type": "VEC3",
      "min": [
        -1.330484937876463,
        -3.2063966765999794,
        -1.1446882523596287
      ],
      "max": [
        1.4374217949807644,
        3.206274602562189,
        0.8094729445874691
      ]
    },
    {
      "bufferView": 2,
      "componentType": 5126,
      "count": 13685,
      "type": "VEC2"
    },
    {
      "bufferView": 3,
      "componentType": 5123,
      "count": 13685,
      "type": "VEC4"
    },
    {
      "bufferView": 4,
      "componentType": 5126,
      "count": 13685,
      "type": "VEC4"
    },
    {
      "bufferView": 5,
      "componentType": 5123,
      "count": 3660,
      "type": "SCALAR"
    },
    {
      "bufferView": 6,
      "componentType": 5123,
      "count": 1728,
      "type": "SCALAR"
    },
    {
      "bufferView": 7,
      "componentType": 5123,
      "count": 7662,
      "type": "SCALAR"
    },
    {
      "bufferView": 8,
      "componentType": 5123,
      "count": 372,
      "type": "SCALAR"
    },
    {
      "bufferView": 9,
      "componentType": 5123,
      "count": 1872,
      "type": "SCALAR"
    },
    {
      "bufferView": 10,
      "componentType": 5123,
      "count": 36,
      "type": "SCALAR"
    },
    {
      "bufferView": 11,
      "componentType": 5123,
      "count": 72,
      "type": "SCALAR"
    },
    {
      "bufferView": 12,
      "componentType": 5123,
      "count": 1200,
      "type": "SCALAR"
    },
    {
      "bufferView": 13,
      "componentType": 5123,
      "count": 1176,
      "type": "SCALAR"
    },
    {
      "bufferView": 14,
      "componentType": 5123,
      "count": 36,
      "type": "SCALAR"
    },
    {
      "bufferView": 15,
      "componentType": 5123,
      "count": 180,
      "type": "SCALAR"
    },
    {
      "bufferView": 16,
      "componentType": 5123,
      "count": 180,
      "type": "SCALAR"
    },
    {
      "bufferView": 17,
      "componentType": 5123,
      "count": 180,
      "type": "SCALAR"
    },
    {
      "bufferView": 18,
      "componentType": 5123,
      "count": 996,
      "type": "SCALAR"
    },
    {
      "bufferView": 19,
      "componentType": 5123,
      "count": 1056,
      "type": "SCALAR"
    },
    {
      "bufferView": 20,
      "componentType": 5123,
      "count": 36,
      "type": "SCALAR"
    },
    {
      "bufferView": 21,
      "componentType": 5123,
      "count": 216,
      "type": "SCALAR"
    },
    {
      "bufferView": 22,
      "componentType": 5123,
      "count": 180,
      "type": "SCALAR"
    },
    {
      "bufferView": 23,
      "componentType": 5123,
      "count": 180,
      "type": "SCALAR"
    },
    {
      "bufferView": 24,
      "componentType": 5123,
      "count": 1092,
      "type": "SCALAR"
    },
    {
      "bufferView": 25,
      "componentType": 5123,
      "count": 1728,
      "type": "SCALAR"
    },
    {
      "bufferView": 26,
      "componentType": 5123,
      "count": 3558,
      "type": "SCALAR"
    },
    {
      "bufferView": 27,
      "componentType": 5123,
      "count": 756,
      "type": "SCALAR"
    },
    {
      "bufferView": 28,
      "componentType": 5123,
      "count": 1728,
      "type": "SCALAR"
    },
    {
      "bufferView": 29,
      "componentType": 5123,
      "count": 3558,
      "type": "SCALAR"
    }
  ],
  "bufferViews": [
    {
      "buffer": 0,
      "byteOffset": 0,
      "byteLength": 2176
    },
    {
      "buffer": 0,
      "byteOffset": 2176,
      "byteLength": 164220,
      "target": 34962
    },
    {
      "buffer": 0,
      "byteOffset": 166396,
      "byteLength": 109480,
      "target": 34962
    },
    {
      "buffer": 0,
      "byteOffset": 275876,
      "byteLength": 109480,
      "target": 34962
    },
    {
      "buffer": 0,
      "byteOffset": 385356,
      "byteLength": 218960,
      "target": 34962
    },
    {
      "buffer": 0,
      "byteOffset": 604316,
      "byteLength": 7320,
      "target": 34963
    },
    {
      "buffer": 0,
      "byteOffset": 611636,
      "byteLength": 3456,
      "target": 34963
    },
    {
      "buffer": 0,
      "byteOffset": 615092,
      "byteLength": 15324,
      "target": 34963
    },
    {
      "buffer": 0,
      "byteOffset": 630416,
      "byteLength": 744,
      "target": 34963
    },
    {
      "buffer": 0,
      "byteOffset": 631160,
      "byteLength": 3744,
      "target": 34963
    },
    {
      "buffer": 0,
      "byteOffset": 634904,
      "byteLength": 72,
      "target": 34963
    },
    {
      "buffer": 0,
      "byteOffset": 634976,
      "byteLength": 144,
      "target": 34963
    },
    {
      "buffer": 0,
      "byteOffset": 635120,
      "byteLength": 2400,
      "target": 34963
    },
    {
      "buffer": 0,
      "byteOffset": 637520,
      "byteLength": 2352,
      "target": 34963
    },
    {
      "buffer": 0,
      "byteOffset": 639872,
      "byteLength": 72,
      "target": 34963
    },
    {
      "buffer": 0,
      "byteOffset": 639944,
      "byteLength": 360,
      "target": 34963
    },
    {
      "buffer": 0,
      "byteOffset": 640304,
      "byteLength": 360,
      "target": 34963
    },
    {
      "buffer": 0,
      "byteOffset": 640664,
      "byteLength": 360,
      "target": 34963
    },
    {
      "buffer": 0,
      "byteOffset": 641024,
      "byteLength": 1992,
      "target": 34963
    },
    {
      "buffer": 0,
      "byteOffset": 643016,
      "byteLength": 2112,
      "target": 34963
    },
    {
      "buffer": 0,
      "byteOffset": 645128,
      "byteLength": 72,
      "target": 34963
    },
    {
      "buffer": 0,
      "byteOffset": 645200,
      "byteLength": 432,
      "target": 34963
    },
    {
      "buffer": 0,
      "byteOffset": 645632,
      "byteLength": 360,
      "target": 34963
    },
    {
      "buffer": 0,
      "byteOffset": 645992,
      "byteLength": 360,
      "target": 34963
    },
    {
      "buffer": 0,
      "byteOffset": 646352,
      "byteLength": 2184,
      "target": 34963
    },
    {
      "buffer": 0,
      "byteOffset": 648536,
      "byteLength": 3456,
      "target": 34963
    },
    {
      "buffer": 0,
      "byteOffset": 651992,
      "byteLength": 7116,
      "target": 34963
    },
    {
      "buffer": 0,
      "byteOffset": 659108,
      "byteLength": 1512,
      "target": 34963
    },
    {
      "buffer": 0,
      "byteOffset": 660620,
      "byteLength": 3456,
      "target": 34963
    },
    {
      "buffer": 0,
      "byteOffset": 664076,
      "byteLength": 7116,
      "target": 34963
    }
  ],
  "buffers": [
    {
      "byteLength": 671192,
      "uri": "chariotbox01.bin"
    }
  ]
}