{
  "asset": {
    "version": "2.0",
    "generator": "XBG to GLTF Converter with Textures"
  },
  "scene": 0,
  "scenes": [
    {
      "name": "Scene",
      "nodes": [
        4
      ]
    }
  ],
  "nodes": [
    {
      "name": "LadderWood01",
      "children": [
        1,
        2
      ]
    },
    {
      "name": "EntryPointBottom",
      "translation": [
        0.0,
        -0.5,
        0.0
      ]
    },
    {
      "name": "EntryPointTop",
      "translation": [
        0.0,
        0.49999991059303284,
        9.236363410949707
      ]
    },
    {
      "name": "MeshNode_LOD0",
      "mesh": 0,
      "skin": 0
    },
    {
      "name": "Correction_Root",
      "rotation": [
        -0.70710678,
        0.0,
        0.0,
        0.70710678
      ],
      "children": [
        0,
        3
      ]
    }
  ],
  "meshes": [
    {
      "name": "Mesh_LOD0",
      "primitives": [
        {
          "attributes": {
            "POSITION": 1,
            "JOINTS_0": 3,
            "WEIGHTS_0": 4,
            "TEXCOORD_0": 2
          },
          "indices": 5,
          "material": 0
        }
      ]
    }
  ],
  "skins": [
    {
      "inverseBindMatrices": 0,
      "joints": [
        0,
        1,
        2
      ],
      "name": "Armature",
      "skeleton": 0
    }
  ],
  "materials": [
    {
      "name": "GRAPHICS\\_MATERIALS\\MADESLONGCHAMPS-M-1909200757503126.xbm",
      "pbrMetallicRoughness": {
        "baseColorFactor": [
          1.0,
          1.0,
          1.0,
          1.0
        ],
        "metallicFactor": 0.0,
        "roughnessFactor": 1.0,
        "baseColorTexture": {
          "index": 0,
          "texCoord": 0
        }
      },
      "doubleSided": true
    }
  ],
  "textures": [
    {
      "sampler": 0,
      "source": 0
    }
  ],
  "images": [
    {
      "name": "red",
      "mimeType": "image/png",
      "uri": "data:image/png;base64,"
    }
  ],
  "samplers": [
    {
      "magFilter": 9729,
      "minFilter": 9987,
      "wrapS": 10497,
      "wrapT": 10497
    }
  ],
  "accessors": [
    {
      "bufferView": 0,
      "componentType": 5126,
      "count": 3,
      "type": "MAT4"
    },
    {
      "bufferView": 1,
      "componentType": 5126,
      "count": 1908,
      "type": "VEC3",
      "min": [
        -0.3003021329641342,
        -0.025025177747011185,
        -0.11841181665658951
      ],
      "max": [
        0.29999694786965847,
        0.02471999265253544,
        9.418012015521526
      ]
    },
    {
      "bufferView": 2,
      "componentType": 5126,
      "count": 1908,
      "type": "VEC2"
    },
    {
      "bufferView": 3,
      "componentType": 5123,
      "count": 1908,
      "type": "VEC4"
    },
    {
      "bufferView": 4,
      "componentType": 5126,
      "count": 1908,
      "type": "VEC4"
    },
    {
      "bufferView": 5,
      "componentType": 5123,
      "count": 3048,
      "type": "SCALAR"
    }
  ],
  "bufferViews": [
    {
      "buffer": 0,
      "byteOffset": 0,
      "byteLength": 192
    },
    {
      "buffer": 0,
      "byteOffset": 192,
      "byteLength": 22896,
      "target": 34962
    },
    {
      "buffer": 0,
      "byteOffset": 23088,
      "byteLength": 15264,
      "target": 34962
    },
    {
      "buffer": 0,
      "byteOffset": 38352,
      "byteLength": 15264,
      "target": 34962
    },
    {
      "buffer": 0,
      "byteOffset": 53616,
      "byteLength": 30528,
      "target": 34962
    },
    {
      "buffer": 0,
      "byteOffset": 84144,
      "byteLength": 6096,
      "target": 34963
    }
  ],
  "buffers": [
    {
      "byteLength": 90240,
      "uri": "ladderwood01.bin"
    }
  ]
}