{
  "asset": {
    "version": "2.0",
    "generator": "XBG to GLTF Converter with Textures"
  },
  "scene": 0,
  "scenes": [
    {
      "name": "Scene",
      "nodes": [
        7
      ]
    }
  ],
  "nodes": [
    {
      "name": "Turret_Sandbags",
      "children": [
        1,
        5
      ]
    },
    {
      "name": "Turret_Axis",
      "translation": [
        -0.00024124000628944486,
        -1.999999987845058e-08,
        1.236519694328308
      ],
      "children": [
        2,
        3,
        4
      ]
    },
    {
      "name": "GunMount",
      "translation": [
        0.00024124000628944486,
        -0.00018276000628247857,
        0.2060183733701706
      ]
    },
    {
      "name": "WeaponPlacement",
      "translation": [
        0.00024124000628944486,
        -0.00018276000628247857,
        0.2060183733701706
      ]
    },
    {
      "name": "GunnerPh",
      "translation": [
        -0.006776010151952505,
        -1.0253667831420898,
        -1.2374382019042969
      ]
    },
    {
      "name": "Turret_Sandbags_Prim"
    },
    {
      "name": "MeshNode_LOD0",
      "mesh": 0,
      "skin": 0
    },
    {
      "name": "Correction_Root",
      "rotation": [
        -0.70710678,
        0.0,
        0.0,
        0.70710678
      ],
      "children": [
        0,
        6
      ]
    }
  ],
  "meshes": [
    {
      "name": "Mesh_LOD0",
      "primitives": [
        {
          "attributes": {
            "POSITION": 1,
            "JOINTS_0": 3,
            "WEIGHTS_0": 4,
            "TEXCOORD_0": 2
          },
          "indices": 5,
          "material": 0
        },
        {
          "attributes": {
            "POSITION": 1,
            "JOINTS_0": 3,
            "WEIGHTS_0": 4,
            "TEXCOORD_0": 2
          },
          "indices": 6,
          "material": 1
        },
        {
          "attributes": {
            "POSITION": 1,
            "JOINTS_0": 3,
            "WEIGHTS_0": 4,
            "TEXCOORD_0": 2
          },
          "indices": 7,
          "material": 2
        }
      ]
    }
  ],
  "skins": [
    {
      "inverseBindMatrices": 0,
      "joints": [
        0,
        1,
        2,
        3,
        4,
        5
      ],
      "name": "Armature",
      "skeleton": 0
    }
  ],
  "materials": [
    {
      "name": "GRAPHICS\\_MATERIALS\\JFCARRIER2-M-2511200764030559.xbm",
      "pbrMetallicRoughness": {
        "baseColorFactor": [
          1.0,
          1.0,
          1.0,
          1.0
        ],
        "metallicFactor": 0.0,
        "roughnessFactor": 1.0,
        "baseColorTexture": {
          "index": 0,
          "texCoord": 0
        }
      },
      "doubleSided": true
    },
    {
      "name": "GRAPHICS\\_MATERIALS\\MADESLONGCHAMPS-M-0302200755506510.xbm",
      "pbrMetallicRoughness": {
        "baseColorFactor": [
          1.0,
          1.0,
          1.0,
          1.0
        ],
        "metallicFactor": 0.0,
        "roughnessFactor": 1.0,
        "baseColorTexture": {
          "index": 1,
          "texCoord": 0
        }
      },
      "doubleSided": true
    },
    {
      "name": "GRAPHICS\\_MATERIALS\\HLEVASSEUR-M-2008022050117751.xbm",
      "pbrMetallicRoughness": {
        "baseColorFactor": [
          1.0,
          1.0,
          1.0,
          1.0
        ],
        "metallicFactor": 0.0,
        "roughnessFactor": 1.0,
        "baseColorTexture": {
          "index": 2,
          "texCoord": 0
        }
      },
      "doubleSided": true
    }
  ],
  "textures": [
    {
      "sampler": 0,
      "source": 0
    },
    {
      "sampler": 0,
      "source": 1
    },
    {
      "sampler": 0,
      "source": 2
    }
  ],
  "images": [
    {
      "name": "metalburnedsmall_d",
      "mimeType": "image/png",
      "uri": "data:image/png;base64,"
    },
    {
      "name": "metalgreenrust_d",
      "mimeType": "image/png",
      "uri": "data:image/png;base64,"
    },
    {
      "name": "clay02_d",
      "mimeType": "image/png",
      "uri": "data:image/png;base64,"
    }
  ],
  "samplers": [
    {
      "magFilter": 9729,
      "minFilter": 9987,
      "wrapS": 10497,
      "wrapT": 10497
    }
  ],
  "accessors": [
    {
      "bufferView": 0,
      "componentType": 5126,
      "count": 6,
      "type": "MAT4"
    },
    {
      "bufferView": 1,
      "componentType": 5126,
      "count": 3927,
      "type": "VEC3",
      "min": [
        -2.0453505031764507,
        -1.11761833447963,
        -0.09604174923151731
      ],
      "max": [
        1.9982909616082907,
        0.4999847402796149,
        1.4555497895926237
      ]
    },
    {
      "bufferView": 2,
      "componentType": 5126,
      "count": 3927,
      "type": "VEC2"
    },
    {
      "bufferView": 3,
      "componentType": 5123,
      "count": 3927,
      "type": "VEC4"
    },
    {
      "bufferView": 4,
      "componentType": 5126,
      "count": 3927,
      "type": "VEC4"
    },
    {
      "bufferView": 5,
      "componentType": 5123,
      "count": 636,
      "type": "SCALAR"
    },
    {
      "bufferView": 6,
      "componentType": 5123,
      "count": 1476,
      "type": "SCALAR"
    },
    {
      "bufferView": 7,
      "componentType": 5123,
      "count": 11106,
      "type": "SCALAR"
    }
  ],
  "bufferViews": [
    {
      "buffer": 0,
      "byteOffset": 0,
      "byteLength": 384
    },
    {
      "buffer": 0,
      "byteOffset": 384,
      "byteLength": 47124,
      "target": 34962
    },
    {
      "buffer": 0,
      "byteOffset": 47508,
      "byteLength": 31416,
      "target": 34962
    },
    {
      "buffer": 0,
      "byteOffset": 78924,
      "byteLength": 31416,
      "target": 34962
    },
    {
      "buffer": 0,
      "byteOffset": 110340,
      "byteLength": 62832,
      "target": 34962
    },
    {
      "buffer": 0,
      "byteOffset": 173172,
      "byteLength": 1272,
      "target": 34963
    },
    {
      "buffer": 0,
      "byteOffset": 174444,
      "byteLength": 2952,
      "target": 34963
    },
    {
      "buffer": 0,
      "byteOffset": 177396,
      "byteLength": 22212,
      "target": 34963
    }
  ],
  "buffers": [
    {
      "byteLength": 199608,
      "uri": "turret_sandbags.bin"
    }
  ]
}