{
  "asset": {
    "version": "2.0",
    "generator": "XBG to GLTF Converter with Textures"
  },
  "scene": 0,
  "scenes": [
    {
      "name": "Scene",
      "nodes": [
        4
      ]
    }
  ],
  "nodes": [
    {
      "name": "Fighting_Staff",
      "children": [
        1,
        2
      ]
    },
    {
      "name": "Fighting_Staff_Frame"
    },
    {
      "name": "Fighting_Staff_FX",
      "translation": [
        0.513366162776947,
        0.4030485451221466,
        2.508277177810669
      ],
      "rotation": [
        0.986374798652315,
        -0.11110705169878822,
        -0.07838344607313646,
        0.09260677636729328
      ]
    },
    {
      "name": "MeshNode_LOD0",
      "mesh": 0,
      "skin": 0
    },
    {
      "name": "Correction_Root",
      "rotation": [
        -0.70710678,
        0.0,
        0.0,
        0.70710678
      ],
      "children": [
        0,
        3
      ]
    }
  ],
  "meshes": [
    {
      "name": "Mesh_LOD0",
      "primitives": [
        {
          "attributes": {
            "POSITION": 1,
            "JOINTS_0": 3,
            "WEIGHTS_0": 4,
            "TEXCOORD_0": 2
          },
          "indices": 5,
          "material": 0
        }
      ]
    }
  ],
  "skins": [
    {
      "inverseBindMatrices": 0,
      "joints": [
        0,
        1,
        2
      ],
      "name": "Armature",
      "skeleton": 0
    }
  ],
  "materials": [
    {
      "name": "GRAPHICS\\_MATERIALS\\XRANG-M-2008102942608571.xbm",
      "pbrMetallicRoughness": {
        "baseColorFactor": [
          1.0,
          1.0,
          1.0,
          1.0
        ],
        "metallicFactor": 0.0,
        "roughnessFactor": 1.0,
        "baseColorTexture": {
          "index": 0,
          "texCoord": 0
        }
      },
      "doubleSided": true
    }
  ],
  "textures": [
    {
      "sampler": 0,
      "source": 0
    }
  ],
  "images": [
    {
      "name": "fighting_staff_01_d",
      "mimeType": "image/png",
      "uri": "data:image/png;base64,"
    }
  ],
  "samplers": [
    {
      "magFilter": 9729,
      "minFilter": 9987,
      "wrapS": 10497,
      "wrapT": 10497
    }
  ],
  "accessors": [
    {
      "bufferView": 0,
      "componentType": 5126,
      "count": 3,
      "type": "MAT4"
    },
    {
      "bufferView": 1,
      "componentType": 5126,
      "count": 221,
      "type": "VEC3",
      "min": [
        -0.04065065458416939,
        -0.22498245164752007,
        -0.656880397349596
      ],
      "max": [
        0.6676229126751423,
        0.5719168670475483,
        3.2448499985039234
      ]
    },
    {
      "bufferView": 2,
      "componentType": 5126,
      "count": 221,
      "type": "VEC2"
    },
    {
      "bufferView": 3,
      "componentType": 5123,
      "count": 221,
      "type": "VEC4"
    },
    {
      "bufferView": 4,
      "componentType": 5126,
      "count": 221,
      "type": "VEC4"
    },
    {
      "bufferView": 5,
      "componentType": 5123,
      "count": 894,
      "type": "SCALAR"
    }
  ],
  "bufferViews": [
    {
      "buffer": 0,
      "byteOffset": 0,
      "byteLength": 192
    },
    {
      "buffer": 0,
      "byteOffset": 192,
      "byteLength": 2652,
      "target": 34962
    },
    {
      "buffer": 0,
      "byteOffset": 2844,
      "byteLength": 1768,
      "target": 34962
    },
    {
      "buffer": 0,
      "byteOffset": 4612,
      "byteLength": 1768,
      "target": 34962
    },
    {
      "buffer": 0,
      "byteOffset": 6380,
      "byteLength": 3536,
      "target": 34962
    },
    {
      "buffer": 0,
      "byteOffset": 9916,
      "byteLength": 1788,
      "target": 34963
    }
  ],
  "buffers": [
    {
      "byteLength": 11704,
      "uri": "fighting_staff.bin"
    }
  ]
}