{
  "asset": {
    "version": "2.0",
    "generator": "XBG to GLTF Converter with Textures"
  },
  "scene": 0,
  "scenes": [
    {
      "name": "Scene",
      "nodes": [
        4
      ]
    }
  ],
  "nodes": [
    {
      "name": "Fighting_Staff_04",
      "children": [
        1,
        2
      ]
    },
    {
      "name": "Fighting_Staff_Frame"
    },
    {
      "name": "Fighting_Staff_FX",
      "translation": [
        0.5133660435676575,
        0.40304872393608093,
        2.50827693939209
      ],
      "rotation": [
        0.9863747997844647,
        -0.11110705181366316,
        -0.07838343128936064,
        0.09260677668582266
      ]
    },
    {
      "name": "MeshNode_LOD0",
      "mesh": 0,
      "skin": 0
    },
    {
      "name": "Correction_Root",
      "rotation": [
        -0.70710678,
        0.0,
        0.0,
        0.70710678
      ],
      "children": [
        0,
        3
      ]
    }
  ],
  "meshes": [
    {
      "name": "Mesh_LOD0",
      "primitives": [
        {
          "attributes": {
            "POSITION": 1,
            "JOINTS_0": 3,
            "WEIGHTS_0": 4,
            "TEXCOORD_0": 2
          },
          "indices": 5,
          "material": 0
        }
      ]
    }
  ],
  "skins": [
    {
      "inverseBindMatrices": 0,
      "joints": [
        0,
        1,
        2
      ],
      "name": "Armature",
      "skeleton": 0
    }
  ],
  "materials": [
    {
      "name": "GRAPHICS\\_MATERIALS\\GRASSAM-M-2009032652659098.xbm",
      "pbrMetallicRoughness": {
        "baseColorFactor": [
          1.0,
          1.0,
          1.0,
          1.0
        ],
        "metallicFactor": 0.0,
        "roughnessFactor": 1.0,
        "baseColorTexture": {
          "index": 0,
          "texCoord": 0
        }
      },
      "doubleSided": true
    }
  ],
  "textures": [
    {
      "sampler": 0,
      "source": 0
    }
  ],
  "images": [
    {
      "name": "fighting_staff_04_d",
      "mimeType": "image/png",
      "uri": "data:image/png;base64,"
    }
  ],
  "samplers": [
    {
      "magFilter": 9729,
      "minFilter": 9987,
      "wrapS": 10497,
      "wrapT": 10497
    }
  ],
  "accessors": [
    {
      "bufferView": 0,
      "componentType": 5126,
      "count": 3,
      "type": "MAT4"
    },
    {
      "bufferView": 1,
      "componentType": 5126,
      "count": 742,
      "type": "VEC3",
      "min": [
        -0.11633655801415443,
        -0.33558152988553047,
        -0.8951689191162586
      ],
      "max": [
        0.7563707381486893,
        0.7549058496952057,
        3.1888180151581764
      ]
    },
    {
      "bufferView": 2,
      "componentType": 5126,
      "count": 742,
      "type": "VEC2"
    },
    {
      "bufferView": 3,
      "componentType": 5123,
      "count": 742,
      "type": "VEC4"
    },
    {
      "bufferView": 4,
      "componentType": 5126,
      "count": 742,
      "type": "VEC4"
    },
    {
      "bufferView": 5,
      "componentType": 5123,
      "count": 2904,
      "type": "SCALAR"
    }
  ],
  "bufferViews": [
    {
      "buffer": 0,
      "byteOffset": 0,
      "byteLength": 192
    },
    {
      "buffer": 0,
      "byteOffset": 192,
      "byteLength": 8904,
      "target": 34962
    },
    {
      "buffer": 0,
      "byteOffset": 9096,
      "byteLength": 5936,
      "target": 34962
    },
    {
      "buffer": 0,
      "byteOffset": 15032,
      "byteLength": 5936,
      "target": 34962
    },
    {
      "buffer": 0,
      "byteOffset": 20968,
      "byteLength": 11872,
      "target": 34962
    },
    {
      "buffer": 0,
      "byteOffset": 32840,
      "byteLength": 5808,
      "target": 34963
    }
  ],
  "buffers": [
    {
      "byteLength": 38648,
      "uri": "fighting_staff_04.bin"
    }
  ]
}