{
  "asset": {
    "version": "2.0",
    "generator": "XBG to GLTF Converter with Textures"
  },
  "scene": 0,
  "scenes": [
    {
      "name": "Scene",
      "nodes": [
        12
      ]
    }
  ],
  "nodes": [
    {
      "name": "Small_Drone_Bomb",
      "children": [
        1
      ]
    },
    {
      "name": "Point06_root01",
      "children": [
        2
      ]
    },
    {
      "name": "Point06_Pelvis",
      "translation": [
        7.999999951380232e-08,
        0.027543330565094948,
        0.4425716996192932
      ],
      "children": [
        3,
        4
      ]
    },
    {
      "name": "Point11_refragdoll",
      "translation": [
        -1.0000000116860974e-07,
        -0.02992245927453041,
        0.29968181252479553
      ],
      "rotation": [
        -7.999999951367778e-08,
        1.7400000160678443e-06,
        0.9999999999984432,
        -2.821299744924101e-07
      ]
    },
    {
      "name": "Point06_Spine",
      "children": [
        5,
        8
      ]
    },
    {
      "name": "Point07_Wing_left",
      "translation": [
        0.17875754833221436,
        -0.029922889545559883,
        -0.010874270461499691
      ],
      "rotation": [
        -1.0303872506615696e-07,
        -0.264201943924039,
        5.416137696830828e-07,
        0.964467382976975
      ],
      "children": [
        6
      ]
    },
    {
      "name": "Point08",
      "translation": [
        0.6298215985298159,
        0.0008926099981181319,
        0.05068140849471087
      ],
      "rotation": [
        -7.086498939654926e-07,
        -0.020575482027235116,
        2.9609383921023607e-07,
        0.9997883023614336
      ],
      "children": [
        7
      ]
    },
    {
      "name": "Point09_Helice_Left",
      "rotation": [
        1.0587911840678753e-22,
        -2.7755575615628914e-17,
        -5.293955920339376e-23,
        1.0
      ]
    },
    {
      "name": "Point05_Wing_Right",
      "translation": [
        -0.17875772714614868,
        -0.02992291934788227,
        -0.010874610394239426
      ],
      "rotation": [
        0.26420193350580673,
        1.7299999693959519e-06,
        0.9644673858294642,
        -2.821299559856426e-07
      ],
      "children": [
        9
      ]
    },
    {
      "name": "Point06",
      "translation": [
        0.6298373341560364,
        -0.0008917200029827657,
        0.05068001896142965
      ],
      "rotation": [
        -2.8993863609161767e-07,
        0.9997882978522151,
        -1.0197841958439602e-06,
        0.020575701121624303
      ],
      "children": [
        10
      ]
    },
    {
      "name": "Point10_Helice_Right",
      "translation": [
        1.5800000255472568e-05,
        0.0,
        -2.429999995001708e-06
      ],
      "rotation": [
        -1.0587911840678754e-22,
        -1.3877787807814457e-17,
        -5.293955920339377e-23,
        1.0
      ]
    },
    {
      "name": "MeshNode_LOD0",
      "mesh": 0,
      "skin": 0
    },
    {
      "name": "Correction_Root",
      "rotation": [
        -0.70710678,
        0.0,
        0.0,
        0.70710678
      ],
      "children": [
        0,
        11
      ]
    }
  ],
  "meshes": [
    {
      "name": "Mesh_LOD0",
      "primitives": [
        {
          "attributes": {
            "POSITION": 1,
            "JOINTS_0": 3,
            "WEIGHTS_0": 4,
            "TEXCOORD_0": 2
          },
          "indices": 5,
          "material": 0
        }
      ]
    }
  ],
  "skins": [
    {
      "inverseBindMatrices": 0,
      "joints": [
        0,
        1,
        2,
        3,
        4,
        5,
        6,
        7,
        8,
        9,
        10
      ],
      "name": "Armature",
      "skeleton": 0
    }
  ],
  "materials": [
    {
      "name": "GRAPHICS\\_MATERIALS\\DLAJEUNESSE-M-2009062260627022.xbm",
      "pbrMetallicRoughness": {
        "baseColorFactor": [
          1.0,
          1.0,
          1.0,
          1.0
        ],
        "metallicFactor": 0.0,
        "roughnessFactor": 1.0,
        "baseColorTexture": {
          "index": 0,
          "texCoord": 0
        }
      },
      "doubleSided": true
    }
  ],
  "textures": [
    {
      "sampler": 0,
      "source": 0
    }
  ],
  "images": [
    {
      "name": "sentry_gun_d",
      "mimeType": "image/png",
      "uri": "data:image/png;base64,"
    }
  ],
  "samplers": [
    {
      "magFilter": 9729,
      "minFilter": 9987,
      "wrapS": 10497,
      "wrapT": 10497
    }
  ],
  "accessors": [
    {
      "bufferView": 0,
      "componentType": 5126,
      "count": 11,
      "type": "MAT4"
    },
    {
      "bufferView": 1,
      "componentType": 5126,
      "count": 3876,
      "type": "VEC3",
      "min": [
        -1.21475875005126,
        -0.4502090513706207,
        -0.07458723708987236
      ],
      "max": [
        1.2146977130323648,
        0.44538712687790394,
        1.0945768598467112
      ]
    },
    {
      "bufferView": 2,
      "componentType": 5126,
      "count": 3876,
      "type": "VEC2"
    },
    {
      "bufferView": 3,
      "componentType": 5123,
      "count": 3876,
      "type": "VEC4"
    },
    {
      "bufferView": 4,
      "componentType": 5126,
      "count": 3876,
      "type": "VEC4"
    },
    {
      "bufferView": 5,
      "componentType": 5123,
      "count": 11127,
      "type": "SCALAR"
    }
  ],
  "bufferViews": [
    {
      "buffer": 0,
      "byteOffset": 0,
      "byteLength": 704
    },
    {
      "buffer": 0,
      "byteOffset": 704,
      "byteLength": 46512,
      "target": 34962
    },
    {
      "buffer": 0,
      "byteOffset": 47216,
      "byteLength": 31008,
      "target": 34962
    },
    {
      "buffer": 0,
      "byteOffset": 78224,
      "byteLength": 31008,
      "target": 34962
    },
    {
      "buffer": 0,
      "byteOffset": 109232,
      "byteLength": 62016,
      "target": 34962
    },
    {
      "buffer": 0,
      "byteOffset": 171248,
      "byteLength": 22254,
      "target": 34963
    }
  ],
  "buffers": [
    {
      "byteLength": 193502,
      "uri": "small_drone_bomb.bin"
    }
  ]
}