{
  "asset": {
    "version": "2.0",
    "generator": "XBG to GLTF Converter with Textures"
  },
  "scene": 0,
  "scenes": [
    {
      "name": "Scene",
      "nodes": [
        13
      ]
    }
  ],
  "nodes": [
    {
      "name": "_Exo_Episoth_01_Breakable",
      "children": [
        1
      ]
    },
    {
      "name": "pisoth_01_Breakable_STATE",
      "children": [
        2,
        5,
        8,
        11
      ]
    },
    {
      "name": "isoth_01_Breakable_STATE1",
      "children": [
        3,
        4
      ]
    },
    {
      "name": "SwitchFX1",
      "translation": [
        -0.06600789725780487,
        0.12349572777748108,
        5.432857990264893
      ],
      "rotation": [
        0.6223388381184822,
        0.14573762369869592,
        0.022257205996272764,
        0.7687389249954785
      ]
    },
    {
      "name": "SwtichFX1_2",
      "translation": [
        0.8823091983795166,
        0.30113187432289124,
        7.480667591094971
      ],
      "rotation": [
        -0.0512737296523651,
        0.05022378257628524,
        -0.7125396132495599,
        0.6979511987555409
      ]
    },
    {
      "name": "isoth_01_Breakable_STATE2",
      "children": [
        6,
        7
      ]
    },
    {
      "name": "SwitchFX2",
      "translation": [
        0.09129103273153305,
        0.12349572777748108,
        5.772902488708496
      ],
      "rotation": [
        0.6188659645768433,
        0.08710136199356618,
        0.06932393286619319,
        0.7775683008617293
      ]
    },
    {
      "name": "SwitchFX2_2",
      "translation": [
        0.446835994720459,
        0.6965079307556152,
        8.589420318603516
      ],
      "rotation": [
        0.6406453207261625,
        0.06478628140803719,
        -0.05438550895854014,
        0.7631634991557628
      ]
    },
    {
      "name": "isoth_01_Breakable_STATE3",
      "children": [
        9,
        10
      ]
    },
    {
      "name": "SwitchFX3",
      "translation": [
        -0.18473315238952637,
        -0.07784177362918854,
        4.389796257019043
      ],
      "rotation": [
        0.6218367227197252,
        0.131862149220281,
        0.03346742376474711,
        0.771240167315615
      ]
    },
    {
      "name": "SwitchFX3_2",
      "translation": [
        0.1449810266494751,
        0.3232891261577606,
        7.232110500335693
      ],
      "rotation": [
        0.6302247567376432,
        0.11989108410728044,
        -0.051751767563777376,
        0.7653526220271183
      ]
    },
    {
      "name": "isoth_01_Breakable_STATE4"
    },
    {
      "name": "MeshNode_LOD0",
      "mesh": 0,
      "skin": 0
    },
    {
      "name": "Correction_Root",
      "rotation": [
        -0.70710678,
        0.0,
        0.0,
        0.70710678
      ],
      "children": [
        0,
        12
      ]
    }
  ],
  "meshes": [
    {
      "name": "Mesh_LOD0",
      "primitives": [
        {
          "attributes": {
            "POSITION": 1,
            "JOINTS_0": 3,
            "WEIGHTS_0": 4,
            "TEXCOORD_0": 2
          },
          "indices": 5,
          "material": 0
        },
        {
          "attributes": {
            "POSITION": 1,
            "JOINTS_0": 3,
            "WEIGHTS_0": 4,
            "TEXCOORD_0": 2
          },
          "indices": 6,
          "material": 1
        },
        {
          "attributes": {
            "POSITION": 1,
            "JOINTS_0": 3,
            "WEIGHTS_0": 4,
            "TEXCOORD_0": 2
          },
          "indices": 7,
          "material": 2
        },
        {
          "attributes": {
            "POSITION": 1,
            "JOINTS_0": 3,
            "WEIGHTS_0": 4,
            "TEXCOORD_0": 2
          },
          "indices": 8,
          "material": 0
        },
        {
          "attributes": {
            "POSITION": 1,
            "JOINTS_0": 3,
            "WEIGHTS_0": 4,
            "TEXCOORD_0": 2
          },
          "indices": 9,
          "material": 1
        },
        {
          "attributes": {
            "POSITION": 1,
            "JOINTS_0": 3,
            "WEIGHTS_0": 4,
            "TEXCOORD_0": 2
          },
          "indices": 10,
          "material": 2
        },
        {
          "attributes": {
            "POSITION": 1,
            "JOINTS_0": 3,
            "WEIGHTS_0": 4,
            "TEXCOORD_0": 2
          },
          "indices": 11,
          "material": 3
        },
        {
          "attributes": {
            "POSITION": 1,
            "JOINTS_0": 3,
            "WEIGHTS_0": 4,
            "TEXCOORD_0": 2
          },
          "indices": 12,
          "material": 0
        },
        {
          "attributes": {
            "POSITION": 1,
            "JOINTS_0": 3,
            "WEIGHTS_0": 4,
            "TEXCOORD_0": 2
          },
          "indices": 13,
          "material": 1
        },
        {
          "attributes": {
            "POSITION": 1,
            "JOINTS_0": 3,
            "WEIGHTS_0": 4,
            "TEXCOORD_0": 2
          },
          "indices": 14,
          "material": 2
        },
        {
          "attributes": {
            "POSITION": 1,
            "JOINTS_0": 3,
            "WEIGHTS_0": 4,
            "TEXCOORD_0": 2
          },
          "indices": 15,
          "material": 3
        },
        {
          "attributes": {
            "POSITION": 1,
            "JOINTS_0": 3,
            "WEIGHTS_0": 4,
            "TEXCOORD_0": 2
          },
          "indices": 16,
          "material": 0
        },
        {
          "attributes": {
            "POSITION": 1,
            "JOINTS_0": 3,
            "WEIGHTS_0": 4,
            "TEXCOORD_0": 2
          },
          "indices": 17,
          "material": 1
        },
        {
          "attributes": {
            "POSITION": 1,
            "JOINTS_0": 3,
            "WEIGHTS_0": 4,
            "TEXCOORD_0": 2
          },
          "indices": 18,
          "material": 2
        },
        {
          "attributes": {
            "POSITION": 1,
            "JOINTS_0": 3,
            "WEIGHTS_0": 4,
            "TEXCOORD_0": 2
          },
          "indices": 19,
          "material": 3
        }
      ]
    }
  ],
  "skins": [
    {
      "inverseBindMatrices": 0,
      "joints": [
        0,
        1,
        2,
        3,
        4,
        5,
        6,
        7,
        8,
        9,
        10,
        11
      ],
      "name": "Armature",
      "skeleton": 0
    }
  ],
  "materials": [
    {
      "name": "GRAPHICS\\_MATERIALS\\SPRIMEAU-M-2008092639708272.xbm",
      "pbrMetallicRoughness": {
        "baseColorFactor": [
          1.0,
          1.0,
          1.0,
          1.0
        ],
        "metallicFactor": 0.0,
        "roughnessFactor": 1.0,
        "baseColorTexture": {
          "index": 0,
          "texCoord": 0
        }
      },
      "doubleSided": true
    },
    {
      "name": "GRAPHICS\\_MATERIALS\\SPRIMEAU-M-2008092637666506.xbm",
      "pbrMetallicRoughness": {
        "baseColorFactor": [
          1.0,
          1.0,
          1.0,
          1.0
        ],
        "metallicFactor": 0.0,
        "roughnessFactor": 1.0,
        "baseColorTexture": {
          "index": 1,
          "texCoord": 0
        }
      },
      "doubleSided": true
    },
    {
      "name": "GRAPHICS\\_MATERIALS\\SPRIMEAU-M-2008092636565215.xbm",
      "pbrMetallicRoughness": {
        "baseColorFactor": [
          1.0,
          1.0,
          1.0,
          1.0
        ],
        "metallicFactor": 0.0,
        "roughnessFactor": 1.0,
        "baseColorTexture": {
          "index": 2,
          "texCoord": 0
        }
      },
      "doubleSided": true
    },
    {
      "name": "GRAPHICS\\_MATERIALS\\XPERREAULT-M-2009042142052660.xbm",
      "pbrMetallicRoughness": {
        "baseColorFactor": [
          1.0,
          1.0,
          1.0,
          1.0
        ],
        "metallicFactor": 0.0,
        "roughnessFactor": 1.0,
        "baseColorTexture": {
          "index": 3,
          "texCoord": 0
        }
      },
      "doubleSided": true
    }
  ],
  "textures": [
    {
      "sampler": 0,
      "source": 0
    },
    {
      "sampler": 0,
      "source": 1
    },
    {
      "sampler": 0,
      "source": 2
    },
    {
      "sampler": 0,
      "source": 3
    }
  ],
  "images": [
    {
      "name": "rf_plant_episoth_leaf_01_d",
      "mimeType": "image/png",
      "uri": "data:image/png;base64,"
    },
    {
      "name": "rf_tree_bark_02_d",
      "mimeType": "image/png",
      "uri": "data:image/png;base64,"
    },
    {
      "name": "rf_plant_episoth_01_d",
      "mimeType": "image/png",
      "uri": "data:image/png;base64,"
    },
    {
      "name": "rf_plant_episoth_01_exploded_d",
      "mimeType": "image/png",
      "uri": "data:image/png;base64,"
    }
  ],
  "samplers": [
    {
      "magFilter": 9729,
      "minFilter": 9987,
      "wrapS": 10497,
      "wrapT": 10497
    }
  ],
  "accessors": [
    {
      "bufferView": 0,
      "componentType": 5126,
      "count": 12,
      "type": "MAT4"
    },
    {
      "bufferView": 1,
      "componentType": 5126,
      "count": 8620,
      "type": "VEC3",
      "min": [
        -3.2754905819892883,
        -3.2251960784196854,
        -0.19483016431331635
      ],
      "max": [
        3.5093844383955,
        3.4239326119422913,
        15.031708717346191
      ]
    },
    {
      "bufferView": 2,
      "componentType": 5126,
      "count": 8620,
      "type": "VEC2"
    },
    {
      "bufferView": 3,
      "componentType": 5123,
      "count": 8620,
      "type": "VEC4"
    },
    {
      "bufferView": 4,
      "componentType": 5126,
      "count": 8620,
      "type": "VEC4"
    },
    {
      "bufferView": 5,
      "componentType": 5123,
      "count": 3675,
      "type": "SCALAR"
    },
    {
      "bufferView": 6,
      "componentType": 5123,
      "count": 1269,
      "type": "SCALAR"
    },
    {
      "bufferView": 7,
      "componentType": 5123,
      "count": 2784,
      "type": "SCALAR"
    },
    {
      "bufferView": 8,
      "componentType": 5123,
      "count": 2286,
      "type": "SCALAR"
    },
    {
      "bufferView": 9,
      "componentType": 5123,
      "count": 1269,
      "type": "SCALAR"
    },
    {
      "bufferView": 10,
      "componentType": 5123,
      "count": 2859,
      "type": "SCALAR"
    },
    {
      "bufferView": 11,
      "componentType": 5123,
      "count": 357,
      "type": "SCALAR"
    },
    {
      "bufferView": 12,
      "componentType": 5123,
      "count": 2052,
      "type": "SCALAR"
    },
    {
      "bufferView": 13,
      "componentType": 5123,
      "count": 1461,
      "type": "SCALAR"
    },
    {
      "bufferView": 14,
      "componentType": 5123,
      "count": 2592,
      "type": "SCALAR"
    },
    {
      "bufferView": 15,
      "componentType": 5123,
      "count": 1446,
      "type": "SCALAR"
    },
    {
      "bufferView": 16,
      "componentType": 5123,
      "count": 1923,
      "type": "SCALAR"
    },
    {
      "bufferView": 17,
      "componentType": 5123,
      "count": 1941,
      "type": "SCALAR"
    },
    {
      "bufferView": 18,
      "componentType": 5123,
      "count": 1353,
      "type": "SCALAR"
    },
    {
      "bufferView": 19,
      "componentType": 5123,
      "count": 273,
      "type": "SCALAR"
    }
  ],
  "bufferViews": [
    {
      "buffer": 0,
      "byteOffset": 0,
      "byteLength": 768
    },
    {
      "buffer": 0,
      "byteOffset": 768,
      "byteLength": 103440,
      "target": 34962
    },
    {
      "buffer": 0,
      "byteOffset": 104208,
      "byteLength": 68960,
      "target": 34962
    },
    {
      "buffer": 0,
      "byteOffset": 173168,
      "byteLength": 68960,
      "target": 34962
    },
    {
      "buffer": 0,
      "byteOffset": 242128,
      "byteLength": 137920,
      "target": 34962
    },
    {
      "buffer": 0,
      "byteOffset": 380048,
      "byteLength": 7350,
      "target": 34963
    },
    {
      "buffer": 0,
      "byteOffset": 387398,
      "byteLength": 2538,
      "target": 34963
    },
    {
      "buffer": 0,
      "byteOffset": 389936,
      "byteLength": 5568,
      "target": 34963
    },
    {
      "buffer": 0,
      "byteOffset": 395504,
      "byteLength": 4572,
      "target": 34963
    },
    {
      "buffer": 0,
      "byteOffset": 400076,
      "byteLength": 2538,
      "target": 34963
    },
    {
      "buffer": 0,
      "byteOffset": 402614,
      "byteLength": 5718,
      "target": 34963
    },
    {
      "buffer": 0,
      "byteOffset": 408332,
      "byteLength": 714,
      "target": 34963
    },
    {
      "buffer": 0,
      "byteOffset": 409046,
      "byteLength": 4104,
      "target": 34963
    },
    {
      "buffer": 0,
      "byteOffset": 413150,
      "byteLength": 2922,
      "target": 34963
    },
    {
      "buffer": 0,
      "byteOffset": 416072,
      "byteLength": 5184,
      "target": 34963
    },
    {
      "buffer": 0,
      "byteOffset": 421256,
      "byteLength": 2892,
      "target": 34963
    },
    {
      "buffer": 0,
      "byteOffset": 424148,
      "byteLength": 3846,
      "target": 34963
    },
    {
      "buffer": 0,
      "byteOffset": 427994,
      "byteLength": 3882,
      "target": 34963
    },
    {
      "buffer": 0,
      "byteOffset": 431876,
      "byteLength": 2706,
      "target": 34963
    },
    {
      "buffer": 0,
      "byteOffset": 434582,
      "byteLength": 546,
      "target": 34963
    }
  ],
  "buffers": [
    {
      "byteLength": 435128,
      "uri": "rf_exo_episoth_01_breakable.bin"
    }
  ]
}