{
  "asset": {
    "version": "2.0",
    "generator": "XBG to GLTF Converter with Textures"
  },
  "scene": 0,
  "scenes": [
    {
      "name": "Scene",
      "nodes": [
        13
      ]
    }
  ],
  "nodes": [
    {
      "name": "MGL140",
      "children": [
        1,
        2,
        3,
        4,
        5,
        11
      ]
    },
    {
      "name": "FRAME",
      "translation": [
        0.0,
        -0.153171569108963,
        -0.0013614799827337265
      ]
    },
    {
      "name": "ACCESSORY",
      "translation": [
        0.0,
        0.15791404247283936,
        0.1490291953086853
      ]
    },
    {
      "name": "SCOPE_HI",
      "translation": [
        -0.00045777999912388623,
        0.15460476279258728,
        0.22438327968120575
      ]
    },
    {
      "name": "FX_FIRE",
      "translation": [
        1.999999987845058e-08,
        0.5765294432640076,
        0.09504695981740952
      ]
    },
    {
      "name": "CLIP",
      "translation": [
        1.999999987845058e-08,
        0.31622740626335144,
        0.04801715910434723
      ],
      "children": [
        6
      ]
    },
    {
      "name": "BARIL",
      "children": [
        7,
        8,
        9,
        10
      ]
    },
    {
      "name": "Grenade_Placement_01",
      "translation": [
        1.999999987845058e-08,
        -0.18011346459388733,
        0.05166240036487579
      ]
    },
    {
      "name": "Grenade_Placement_02",
      "translation": [
        0.05166241154074669,
        -0.1831139475107193,
        0.0
      ]
    },
    {
      "name": "Grenade_Placement_04",
      "translation": [
        -0.0516623891890049,
        -0.1831139475107193,
        0.0
      ]
    },
    {
      "name": "Grenade_Placement_03",
      "translation": [
        0.0,
        -0.1831139475107193,
        -0.0516623891890049
      ]
    },
    {
      "name": "Weapon_Break"
    },
    {
      "name": "MeshNode_LOD0",
      "mesh": 0,
      "skin": 0
    },
    {
      "name": "Correction_Root",
      "rotation": [
        -0.70710678,
        0.0,
        0.0,
        0.70710678
      ],
      "children": [
        0,
        12
      ]
    }
  ],
  "meshes": [
    {
      "name": "Mesh_LOD0",
      "primitives": [
        {
          "attributes": {
            "POSITION": 1,
            "JOINTS_0": 3,
            "WEIGHTS_0": 4,
            "TEXCOORD_0": 2
          },
          "indices": 5,
          "material": 4
        },
        {
          "attributes": {
            "POSITION": 1,
            "JOINTS_0": 3,
            "WEIGHTS_0": 4,
            "TEXCOORD_0": 2
          },
          "indices": 6,
          "material": 5
        },
        {
          "attributes": {
            "POSITION": 1,
            "JOINTS_0": 3,
            "WEIGHTS_0": 4,
            "TEXCOORD_0": 2
          },
          "indices": 7,
          "material": 6
        },
        {
          "attributes": {
            "POSITION": 1,
            "JOINTS_0": 3,
            "WEIGHTS_0": 4,
            "TEXCOORD_0": 2
          },
          "indices": 8,
          "material": 3
        },
        {
          "attributes": {
            "POSITION": 1,
            "JOINTS_0": 3,
            "WEIGHTS_0": 4,
            "TEXCOORD_0": 2
          },
          "indices": 9,
          "material": 4
        },
        {
          "attributes": {
            "POSITION": 1,
            "JOINTS_0": 3,
            "WEIGHTS_0": 4,
            "TEXCOORD_0": 2
          },
          "indices": 10,
          "material": 5
        },
        {
          "attributes": {
            "POSITION": 1,
            "JOINTS_0": 3,
            "WEIGHTS_0": 4,
            "TEXCOORD_0": 2
          },
          "indices": 11,
          "material": 6
        },
        {
          "attributes": {
            "POSITION": 1,
            "JOINTS_0": 3,
            "WEIGHTS_0": 4,
            "TEXCOORD_0": 2
          },
          "indices": 12,
          "material": 1
        },
        {
          "attributes": {
            "POSITION": 1,
            "JOINTS_0": 3,
            "WEIGHTS_0": 4,
            "TEXCOORD_0": 2
          },
          "indices": 13,
          "material": 2
        },
        {
          "attributes": {
            "POSITION": 1,
            "JOINTS_0": 3,
            "WEIGHTS_0": 4,
            "TEXCOORD_0": 2
          },
          "indices": 14,
          "material": 4
        },
        {
          "attributes": {
            "POSITION": 1,
            "JOINTS_0": 3,
            "WEIGHTS_0": 4,
            "TEXCOORD_0": 2
          },
          "indices": 15,
          "material": 6
        },
        {
          "attributes": {
            "POSITION": 1,
            "JOINTS_0": 3,
            "WEIGHTS_0": 4,
            "TEXCOORD_0": 2
          },
          "indices": 16,
          "material": 0
        },
        {
          "attributes": {
            "POSITION": 1,
            "JOINTS_0": 3,
            "WEIGHTS_0": 4,
            "TEXCOORD_0": 2
          },
          "indices": 17,
          "material": 6
        }
      ]
    }
  ],
  "skins": [
    {
      "inverseBindMatrices": 0,
      "joints": [
        0,
        1,
        2,
        3,
        4,
        5,
        6,
        7,
        8,
        9,
        10,
        11
      ],
      "name": "Armature",
      "skeleton": 0
    }
  ],
  "materials": [
    {
      "name": "GRAPHICS\\_MATERIALS\\SDORE2-M-2008022955508114.xbm",
      "pbrMetallicRoughness": {
        "baseColorFactor": [
          1.0,
          1.0,
          1.0,
          1.0
        ],
        "metallicFactor": 0.0,
        "roughnessFactor": 1.0,
        "baseColorTexture": {
          "index": 0,
          "texCoord": 0
        }
      },
      "doubleSided": true
    },
    {
      "name": "GRAPHICS\\_MATERIALS\\SDORE2-M-2008030540043254.xbm",
      "pbrMetallicRoughness": {
        "baseColorFactor": [
          1.0,
          1.0,
          1.0,
          1.0
        ],
        "metallicFactor": 0.0,
        "roughnessFactor": 1.0,
        "baseColorTexture": {
          "index": 1,
          "texCoord": 0
        }
      },
      "doubleSided": true
    },
    {
      "name": "GRAPHICS\\_MATERIALS\\SDORE2-M-2007080252561063.xbm",
      "pbrMetallicRoughness": {
        "baseColorFactor": [
          1.0,
          1.0,
          1.0,
          1.0
        ],
        "metallicFactor": 0.0,
        "roughnessFactor": 1.0,
        "baseColorTexture": {
          "index": 2,
          "texCoord": 0
        }
      },
      "doubleSided": true
    },
    {
      "name": "GRAPHICS\\_MATERIALS\\SDORE2-M-2008022858577422.xbm",
      "pbrMetallicRoughness": {
        "baseColorFactor": [
          1.0,
          1.0,
          1.0,
          1.0
        ],
        "metallicFactor": 0.0,
        "roughnessFactor": 1.0,
        "baseColorTexture": {
          "index": 3,
          "texCoord": 0
        }
      },
      "doubleSided": true
    },
    {
      "name": "GRAPHICS\\_MATERIALS\\SDORE2-M-2008022162991313.xbm",
      "pbrMetallicRoughness": {
        "baseColorFactor": [
          1.0,
          1.0,
          1.0,
          1.0
        ],
        "metallicFactor": 0.0,
        "roughnessFactor": 1.0,
        "baseColorTexture": {
          "index": 4,
          "texCoord": 0
        }
      },
      "doubleSided": true
    },
    {
      "name": "GRAPHICS\\_MATERIALS\\SDORE2-M-2008022258615943.xbm",
      "pbrMetallicRoughness": {
        "baseColorFactor": [
          1.0,
          1.0,
          1.0,
          1.0
        ],
        "metallicFactor": 0.0,
        "roughnessFactor": 1.0,
        "baseColorTexture": {
          "index": 5,
          "texCoord": 0
        }
      },
      "doubleSided": true
    },
    {
      "name": "GRAPHICS\\_MATERIALS\\SDORE2-M-2008021937757094.xbm",
      "pbrMetallicRoughness": {
        "baseColorFactor": [
          1.0,
          1.0,
          1.0,
          1.0
        ],
        "metallicFactor": 0.0,
        "roughnessFactor": 1.0,
        "baseColorTexture": {
          "index": 6,
          "texCoord": 0
        }
      },
      "doubleSided": true
    }
  ],
  "textures": [
    {
      "sampler": 0,
      "source": 0
    },
    {
      "sampler": 0,
      "source": 1
    },
    {
      "sampler": 0,
      "source": 2
    },
    {
      "sampler": 0,
      "source": 3
    },
    {
      "sampler": 0,
      "source": 4
    },
    {
      "sampler": 0,
      "source": 5
    },
    {
      "sampler": 0,
      "source": 6
    }
  ],
  "images": [
    {
      "name": "grey",
      "mimeType": "image/png",
      "uri": "data:image/png;base64,"
    },
    {
      "name": "dragunov_lens01_d",
      "mimeType": "image/png",
      "uri": "data:image/png;base64,"
    },
    {
      "name": "dragunov_crosshair_d",
      "mimeType": "image/png",
      "uri": "data:image/png;base64,"
    },
    {
      "name": "mgl140_lens_d",
      "mimeType": "image/png",
      "uri": "data:image/png;base64,"
    },
    {
      "name": "dirtrust_03_d",
      "mimeType": "image/png",
      "uri": "data:image/png;base64,"
    },
    {
      "name": "mgl140_state02_m",
      "mimeType": "image/png",
      "uri": "data:image/png;base64,"
    },
    {
      "name": "dirtrust_03_d",
      "mimeType": "image/png",
      "uri": "data:image/png;base64,"
    }
  ],
  "samplers": [
    {
      "magFilter": 9729,
      "minFilter": 9987,
      "wrapS": 10497,
      "wrapT": 10497
    }
  ],
  "accessors": [
    {
      "bufferView": 0,
      "componentType": 5126,
      "count": 12,
      "type": "MAT4"
    },
    {
      "bufferView": 1,
      "componentType": 5126,
      "count": 13074,
      "type": "VEC3",
      "min": [
        -0.08526871539652348,
        -0.19229712802916765,
        -0.21649830602109432
      ],
      "max": [
        0.0852381968870759,
        0.45075838454067707,
        0.16980498656630516
      ]
    },
    {
      "bufferView": 2,
      "componentType": 5126,
      "count": 13074,
      "type": "VEC2"
    },
    {
      "bufferView": 3,
      "componentType": 5123,
      "count": 13074,
      "type": "VEC4"
    },
    {
      "bufferView": 4,
      "componentType": 5126,
      "count": 13074,
      "type": "VEC4"
    },
    {
      "bufferView": 5,
      "componentType": 5123,
      "count": 2937,
      "type": "SCALAR"
    },
    {
      "bufferView": 6,
      "componentType": 5123,
      "count": 1608,
      "type": "SCALAR"
    },
    {
      "bufferView": 7,
      "componentType": 5123,
      "count": 2589,
      "type": "SCALAR"
    },
    {
      "bufferView": 8,
      "componentType": 5123,
      "count": 252,
      "type": "SCALAR"
    },
    {
      "bufferView": 9,
      "componentType": 5123,
      "count": 8415,
      "type": "SCALAR"
    },
    {
      "bufferView": 10,
      "componentType": 5123,
      "count": 3255,
      "type": "SCALAR"
    },
    {
      "bufferView": 11,
      "componentType": 5123,
      "count": 4956,
      "type": "SCALAR"
    },
    {
      "bufferView": 12,
      "componentType": 5123,
      "count": 216,
      "type": "SCALAR"
    },
    {
      "bufferView": 13,
      "componentType": 5123,
      "count": 54,
      "type": "SCALAR"
    },
    {
      "bufferView": 14,
      "componentType": 5123,
      "count": 5340,
      "type": "SCALAR"
    },
    {
      "bufferView": 15,
      "componentType": 5123,
      "count": 2760,
      "type": "SCALAR"
    },
    {
      "bufferView": 16,
      "componentType": 5123,
      "count": 3084,
      "type": "SCALAR"
    },
    {
      "bufferView": 17,
      "componentType": 5123,
      "count": 1899,
      "type": "SCALAR"
    }
  ],
  "bufferViews": [
    {
      "buffer": 0,
      "byteOffset": 0,
      "byteLength": 768
    },
    {
      "buffer": 0,
      "byteOffset": 768,
      "byteLength": 156888,
      "target": 34962
    },
    {
      "buffer": 0,
      "byteOffset": 157656,
      "byteLength": 104592,
      "target": 34962
    },
    {
      "buffer": 0,
      "byteOffset": 262248,
      "byteLength": 104592,
      "target": 34962
    },
    {
      "buffer": 0,
      "byteOffset": 366840,
      "byteLength": 209184,
      "target": 34962
    },
    {
      "buffer": 0,
      "byteOffset": 576024,
      "byteLength": 5874,
      "target": 34963
    },
    {
      "buffer": 0,
      "byteOffset": 581898,
      "byteLength": 3216,
      "target": 34963
    },
    {
      "buffer": 0,
      "byteOffset": 585114,
      "byteLength": 5178,
      "target": 34963
    },
    {
      "buffer": 0,
      "byteOffset": 590292,
      "byteLength": 504,
      "target": 34963
    },
    {
      "buffer": 0,
      "byteOffset": 590796,
      "byteLength": 16830,
      "target": 34963
    },
    {
      "buffer": 0,
      "byteOffset": 607626,
      "byteLength": 6510,
      "target": 34963
    },
    {
      "buffer": 0,
      "byteOffset": 614136,
      "byteLength": 9912,
      "target": 34963
    },
    {
      "buffer": 0,
      "byteOffset": 624048,
      "byteLength": 432,
      "target": 34963
    },
    {
      "buffer": 0,
      "byteOffset": 624480,
      "byteLength": 108,
      "target": 34963
    },
    {
      "buffer": 0,
      "byteOffset": 624588,
      "byteLength": 10680,
      "target": 34963
    },
    {
      "buffer": 0,
      "byteOffset": 635268,
      "byteLength": 5520,
      "target": 34963
    },
    {
      "buffer": 0,
      "byteOffset": 640788,
      "byteLength": 6168,
      "target": 34963
    },
    {
      "buffer": 0,
      "byteOffset": 646956,
      "byteLength": 3798,
      "target": 34963
    }
  ],
  "buffers": [
    {
      "byteLength": 650754,
      "uri": "mgl140.bin"
    }
  ]
}