{
  "asset": {
    "version": "2.0",
    "generator": "XBG to GLTF Converter with Textures"
  },
  "scene": 0,
  "scenes": [
    {
      "name": "Scene",
      "nodes": [
        2
      ]
    }
  ],
  "nodes": [
    {
      "name": "RB_Rock_Crumbles_01"
    },
    {
      "name": "MeshNode_LOD0",
      "mesh": 0,
      "skin": 0
    },
    {
      "name": "Correction_Root",
      "rotation": [
        -0.70710678,
        0.0,
        0.0,
        0.70710678
      ],
      "children": [
        0,
        1
      ]
    }
  ],
  "meshes": [
    {
      "name": "Mesh_LOD0",
      "primitives": [
        {
          "attributes": {
            "POSITION": 1,
            "JOINTS_0": 3,
            "WEIGHTS_0": 4,
            "TEXCOORD_0": 2
          },
          "indices": 5,
          "material": 0
        }
      ]
    }
  ],
  "skins": [
    {
      "inverseBindMatrices": 0,
      "joints": [
        0
      ],
      "name": "Armature",
      "skeleton": 0
    }
  ],
  "materials": [
    {
      "name": "GRAPHICS\\_MATERIALS\\MTREMBLAY-M-0404200852114646.xbm",
      "pbrMetallicRoughness": {
        "baseColorFactor": [
          1.0,
          1.0,
          1.0,
          1.0
        ],
        "metallicFactor": 0.0,
        "roughnessFactor": 1.0,
        "baseColorTexture": {
          "index": 0,
          "texCoord": 0
        }
      },
      "doubleSided": true
    }
  ],
  "textures": [
    {
      "sampler": 0,
      "source": 0
    }
  ],
  "images": [
    {
      "name": "oft_cliff_flat_01_d",
      "mimeType": "image/png",
      "uri": "data:image/png;base64,"
    }
  ],
  "samplers": [
    {
      "magFilter": 9729,
      "minFilter": 9987,
      "wrapS": 10497,
      "wrapT": 10497
    }
  ],
  "accessors": [
    {
      "bufferView": 0,
      "componentType": 5126,
      "count": 1,
      "type": "MAT4"
    },
    {
      "bufferView": 1,
      "componentType": 5126,
      "count": 345,
      "type": "VEC3",
      "min": [
        -0.6277657393366098,
        -0.9398785354569554,
        -0.09063997305929661
      ],
      "max": [
        0.5048677017912269,
        0.7652516243979335,
        0.27585680689662695
      ]
    },
    {
      "bufferView": 2,
      "componentType": 5126,
      "count": 345,
      "type": "VEC2"
    },
    {
      "bufferView": 3,
      "componentType": 5123,
      "count": 345,
      "type": "VEC4"
    },
    {
      "bufferView": 4,
      "componentType": 5126,
      "count": 345,
      "type": "VEC4"
    },
    {
      "bufferView": 5,
      "componentType": 5123,
      "count": 1650,
      "type": "SCALAR"
    }
  ],
  "bufferViews": [
    {
      "buffer": 0,
      "byteOffset": 0,
      "byteLength": 64
    },
    {
      "buffer": 0,
      "byteOffset": 64,
      "byteLength": 4140,
      "target": 34962
    },
    {
      "buffer": 0,
      "byteOffset": 4204,
      "byteLength": 2760,
      "target": 34962
    },
    {
      "buffer": 0,
      "byteOffset": 6964,
      "byteLength": 2760,
      "target": 34962
    },
    {
      "buffer": 0,
      "byteOffset": 9724,
      "byteLength": 5520,
      "target": 34962
    },
    {
      "buffer": 0,
      "byteOffset": 15244,
      "byteLength": 3300,
      "target": 34963
    }
  ],
  "buffers": [
    {
      "byteLength": 18544,
      "uri": "rb_rock_crumbles_01.bin"
    }
  ]
}