{
  "asset": {
    "version": "2.0",
    "generator": "XBG to GLTF Converter with Textures"
  },
  "scene": 0,
  "scenes": [
    {
      "name": "Scene",
      "nodes": [
        6
      ]
    }
  ],
  "nodes": [
    {
      "name": "PotteryBowl01",
      "children": [
        1
      ]
    },
    {
      "name": "PotteryBowl01_STATES",
      "translation": [
        0.002475509885698557,
        -0.0004890100099146366,
        0.04334742948412895
      ],
      "children": [
        2,
        3,
        4
      ]
    },
    {
      "name": "Break2",
      "translation": [
        0.0652075931429863,
        -0.16502434015274048,
        0.04249968007206917
      ]
    },
    {
      "name": "Break1",
      "translation": [
        -0.07116934657096863,
        0.16358321905136108,
        0.042499691247940063
      ]
    },
    {
      "name": "PotteryBowl01_State1",
      "translation": [
        -0.002475509885698557,
        0.0004890100099146366,
        -0.014418600127100945
      ]
    },
    {
      "name": "MeshNode_LOD0",
      "mesh": 0,
      "skin": 0
    },
    {
      "name": "Correction_Root",
      "rotation": [
        -0.70710678,
        0.0,
        0.0,
        0.70710678
      ],
      "children": [
        0,
        5
      ]
    }
  ],
  "meshes": [
    {
      "name": "Mesh_LOD0",
      "primitives": [
        {
          "attributes": {
            "POSITION": 1,
            "JOINTS_0": 3,
            "WEIGHTS_0": 4,
            "TEXCOORD_0": 2
          },
          "indices": 5,
          "material": 0
        },
        {
          "attributes": {
            "POSITION": 1,
            "JOINTS_0": 3,
            "WEIGHTS_0": 4,
            "TEXCOORD_0": 2
          },
          "indices": 6,
          "material": 0
        },
        {
          "attributes": {
            "POSITION": 1,
            "JOINTS_0": 3,
            "WEIGHTS_0": 4,
            "TEXCOORD_0": 2
          },
          "indices": 7,
          "material": 1
        }
      ]
    }
  ],
  "skins": [
    {
      "inverseBindMatrices": 0,
      "joints": [
        0,
        1,
        2,
        3,
        4
      ],
      "name": "Armature",
      "skeleton": 0
    }
  ],
  "materials": [
    {
      "name": "GRAPHICS\\_MATERIALS\\JFCARRIER2-M-2703200859967539.xbm",
      "pbrMetallicRoughness": {
        "baseColorFactor": [
          1.0,
          1.0,
          1.0,
          1.0
        ],
        "metallicFactor": 0.0,
        "roughnessFactor": 1.0,
        "baseColorTexture": {
          "index": 0,
          "texCoord": 0
        }
      },
      "doubleSided": true
    },
    {
      "name": "GRAPHICS\\_MATERIALS\\JFCARRIER2-M-2603200852451570.xbm",
      "pbrMetallicRoughness": {
        "baseColorFactor": [
          1.0,
          1.0,
          1.0,
          1.0
        ],
        "metallicFactor": 0.0,
        "roughnessFactor": 1.0,
        "baseColorTexture": {
          "index": 1,
          "texCoord": 0
        }
      },
      "doubleSided": true
    }
  ],
  "textures": [
    {
      "sampler": 0,
      "source": 0
    },
    {
      "sampler": 0,
      "source": 1
    }
  ],
  "images": [
    {
      "name": "africanpattern03_d",
      "mimeType": "image/png",
      "uri": "data:image/png;base64,"
    },
    {
      "name": "africanpattern05_d",
      "mimeType": "image/png",
      "uri": "data:image/png;base64,"
    }
  ],
  "samplers": [
    {
      "magFilter": 9729,
      "minFilter": 9987,
      "wrapS": 10497,
      "wrapT": 10497
    }
  ],
  "accessors": [
    {
      "bufferView": 0,
      "componentType": 5126,
      "count": 5,
      "type": "MAT4"
    },
    {
      "bufferView": 1,
      "componentType": 5126,
      "count": 402,
      "type": "VEC3",
      "min": [
        -0.31348612904548645,
        -0.3133335364982486,
        -0.05691702011972666
      ],
      "max": [
        0.31275368481874466,
        0.31290627736598253,
        0.11380352173000574
      ]
    },
    {
      "bufferView": 2,
      "componentType": 5126,
      "count": 402,
      "type": "VEC2"
    },
    {
      "bufferView": 3,
      "componentType": 5123,
      "count": 402,
      "type": "VEC4"
    },
    {
      "bufferView": 4,
      "componentType": 5126,
      "count": 402,
      "type": "VEC4"
    },
    {
      "bufferView": 5,
      "componentType": 5123,
      "count": 408,
      "type": "SCALAR"
    },
    {
      "bufferView": 6,
      "componentType": 5123,
      "count": 408,
      "type": "SCALAR"
    },
    {
      "bufferView": 7,
      "componentType": 5123,
      "count": 948,
      "type": "SCALAR"
    }
  ],
  "bufferViews": [
    {
      "buffer": 0,
      "byteOffset": 0,
      "byteLength": 320
    },
    {
      "buffer": 0,
      "byteOffset": 320,
      "byteLength": 4824,
      "target": 34962
    },
    {
      "buffer": 0,
      "byteOffset": 5144,
      "byteLength": 3216,
      "target": 34962
    },
    {
      "buffer": 0,
      "byteOffset": 8360,
      "byteLength": 3216,
      "target": 34962
    },
    {
      "buffer": 0,
      "byteOffset": 11576,
      "byteLength": 6432,
      "target": 34962
    },
    {
      "buffer": 0,
      "byteOffset": 18008,
      "byteLength": 816,
      "target": 34963
    },
    {
      "buffer": 0,
      "byteOffset": 18824,
      "byteLength": 816,
      "target": 34963
    },
    {
      "buffer": 0,
      "byteOffset": 19640,
      "byteLength": 1896,
      "target": 34963
    }
  ],
  "buffers": [
    {
      "byteLength": 21536,
      "uri": "potterybowl01.bin"
    }
  ]
}