{
  "asset": {
    "version": "2.0",
    "generator": "XBG to GLTF Converter with Textures"
  },
  "scene": 0,
  "scenes": [
    {
      "name": "Scene",
      "nodes": [
        19
      ]
    }
  ],
  "nodes": [
    {
      "name": "PKM",
      "children": [
        1,
        2,
        3,
        4,
        5,
        6,
        7,
        8,
        9,
        10,
        11,
        12,
        13,
        14,
        15,
        16,
        17
      ]
    },
    {
      "name": "FRAME",
      "translation": [
        -0.01639080047607422,
        -0.1670728325843811,
        -0.03231731057167053
      ]
    },
    {
      "name": "CLIP",
      "translation": [
        -0.014558910392224789,
        0.33406174182891846,
        -0.07247839123010635
      ]
    },
    {
      "name": "SLIDE",
      "translation": [
        -0.05265938118100166,
        0.28467872738838196,
        0.09081119298934937
      ]
    },
    {
      "name": "CASING",
      "translation": [
        -0.016694599762558937,
        0.3977765440940857,
        0.13209396600723267
      ]
    },
    {
      "name": "FX_FIRE",
      "translation": [
        -0.01639080047607422,
        0.9697862863540649,
        0.11421763151884079
      ]
    },
    {
      "name": "FX_CASING",
      "translation": [
        0.00469622015953064,
        0.32254019379615784,
        0.12338168174028397
      ],
      "rotation": [
        0.18301267881501462,
        -0.18301272011593323,
        -0.6830127224141156,
        0.6830126804897119
      ]
    },
    {
      "name": "BULLETS",
      "translation": [
        -0.04632117971777916,
        0.33470287919044495,
        0.08804987370967865
      ]
    },
    {
      "name": "Bullet_01",
      "translation": [
        -0.05445535108447075,
        0.32664987444877625,
        0.04243092983961105
      ],
      "rotation": [
        0.6605377831192184,
        -1.099999981280819e-06,
        0.7507928056857575,
        -1.1165949532852566e-06
      ]
    },
    {
      "name": "Bullet_02",
      "translation": [
        -0.055427368730306625,
        0.32664984464645386,
        0.054673660546541214
      ],
      "rotation": [
        4.6914102427894445e-07,
        0.9198843755145915,
        -1.3154346890874634e-06,
        -0.39218966799519284
      ]
    },
    {
      "name": "Bullet_03",
      "translation": [
        -0.053970061242580414,
        0.32664987444877625,
        0.06668570637702942
      ],
      "rotation": [
        7.337236188669835e-08,
        -0.524088261946898,
        -1.5722648132528686e-08,
        0.8516639558473013
      ]
    },
    {
      "name": "Bullet_04",
      "translation": [
        -0.05168024078011513,
        0.32664987444877625,
        0.07887955754995346
      ],
      "rotation": [
        -3.8585657336400636e-08,
        -0.5512236952965152,
        -8.268355601026861e-08,
        0.8343574999624839
      ]
    },
    {
      "name": "Bullet_05",
      "translation": [
        -0.05097514018416405,
        0.32664987444877625,
        0.0914730429649353
      ],
      "rotation": [
        0.6958311740005648,
        -9.09999957525469e-07,
        0.718205386561763,
        -1.355013508273332e-06
      ]
    },
    {
      "name": "Bullet_06",
      "translation": [
        -0.05355916917324066,
        0.32664984464645386,
        0.10354874283075333
      ],
      "rotation": [
        0.714947472129093,
        1.3500000724862325e-06,
        0.699178169062485,
        9.099629650141592e-07
      ]
    },
    {
      "name": "Bullet_07",
      "translation": [
        -0.05118994042277336,
        0.32664987444877625,
        0.11495790630578995
      ],
      "rotation": [
        -1.3477151247200447e-07,
        -0.518351975705974,
        -1.7105614670156832e-07,
        0.855167369163292
      ]
    },
    {
      "name": "Bullet_08",
      "translation": [
        -0.042913880199193954,
        0.32664987444877625,
        0.12405336648225784
      ],
      "rotation": [
        -8.721930216455218e-09,
        -0.2907311367792228,
        -1.5612257891481366e-06,
        0.9568047899674329
      ]
    },
    {
      "name": "Bullet_09",
      "translation": [
        -0.03141742944717407,
        0.32664984464645386,
        0.12740924954414368
      ],
      "rotation": [
        3.1757193123215424e-08,
        -0.05670966705386647,
        1.4733069846464073e-06,
        0.9983907119261816
      ]
    },
    {
      "name": "Bullet_10",
      "translation": [
        -0.019021930173039436,
        0.32664987444877625,
        0.12784278392791748
      ],
      "rotation": [
        -8.357644455397579e-08,
        0.002509930613729846,
        -2.9735621692197426e-08,
        0.9999968501191924
      ]
    },
    {
      "name": "MeshNode_LOD0",
      "mesh": 0,
      "skin": 0
    },
    {
      "name": "Correction_Root",
      "rotation": [
        -0.70710678,
        0.0,
        0.0,
        0.70710678
      ],
      "children": [
        0,
        18
      ]
    }
  ],
  "meshes": [
    {
      "name": "Mesh_LOD0",
      "primitives": [
        {
          "attributes": {
            "POSITION": 1,
            "JOINTS_0": 3,
            "WEIGHTS_0": 4,
            "TEXCOORD_0": 2
          },
          "indices": 5,
          "material": 0
        },
        {
          "attributes": {
            "POSITION": 1,
            "JOINTS_0": 3,
            "WEIGHTS_0": 4,
            "TEXCOORD_0": 2
          },
          "indices": 6,
          "material": 1
        },
        {
          "attributes": {
            "POSITION": 1,
            "JOINTS_0": 3,
            "WEIGHTS_0": 4,
            "TEXCOORD_0": 2
          },
          "indices": 7,
          "material": 2
        },
        {
          "attributes": {
            "POSITION": 1,
            "JOINTS_0": 3,
            "WEIGHTS_0": 4,
            "TEXCOORD_0": 2
          },
          "indices": 8,
          "material": 3
        },
        {
          "attributes": {
            "POSITION": 1,
            "JOINTS_0": 3,
            "WEIGHTS_0": 4,
            "TEXCOORD_0": 2
          },
          "indices": 9,
          "material": 4
        },
        {
          "attributes": {
            "POSITION": 1,
            "JOINTS_0": 3,
            "WEIGHTS_0": 4,
            "TEXCOORD_0": 2
          },
          "indices": 10,
          "material": 5
        }
      ]
    }
  ],
  "skins": [
    {
      "inverseBindMatrices": 0,
      "joints": [
        0,
        1,
        2,
        3,
        4,
        5,
        6,
        7,
        8,
        9,
        10,
        11,
        12,
        13,
        14,
        15,
        16,
        17
      ],
      "name": "Armature",
      "skeleton": 0
    }
  ],
  "materials": [
    {
      "name": "GRAPHICS\\_MATERIALS\\SDORE2-M-2007073066669286.xbm",
      "pbrMetallicRoughness": {
        "baseColorFactor": [
          1.0,
          1.0,
          1.0,
          1.0
        ],
        "metallicFactor": 0.0,
        "roughnessFactor": 1.0,
        "baseColorTexture": {
          "index": 0,
          "texCoord": 0
        }
      },
      "doubleSided": true
    },
    {
      "name": "GRAPHICS\\_MATERIALS\\SDORE2-M-2007072757598005.xbm",
      "pbrMetallicRoughness": {
        "baseColorFactor": [
          1.0,
          1.0,
          1.0,
          1.0
        ],
        "metallicFactor": 0.0,
        "roughnessFactor": 1.0,
        "baseColorTexture": {
          "index": 1,
          "texCoord": 0
        }
      },
      "doubleSided": true
    },
    {
      "name": "GRAPHICS\\_MATERIALS\\SDORE2-M-2007072757557421.xbm",
      "pbrMetallicRoughness": {
        "baseColorFactor": [
          1.0,
          1.0,
          1.0,
          1.0
        ],
        "metallicFactor": 0.0,
        "roughnessFactor": 1.0,
        "baseColorTexture": {
          "index": 2,
          "texCoord": 0
        }
      },
      "doubleSided": true
    },
    {
      "name": "GRAPHICS\\_MATERIALS\\PFERNANDEZ-M-2007041859897860.xbm",
      "pbrMetallicRoughness": {
        "baseColorFactor": [
          1.0,
          1.0,
          1.0,
          1.0
        ],
        "metallicFactor": 0.0,
        "roughnessFactor": 1.0,
        "baseColorTexture": {
          "index": 3,
          "texCoord": 0
        }
      },
      "doubleSided": true
    },
    {
      "name": "GRAPHICS\\_MATERIALS\\PFERNANDEZ-M-2007041859686857.xbm",
      "pbrMetallicRoughness": {
        "baseColorFactor": [
          1.0,
          1.0,
          1.0,
          1.0
        ],
        "metallicFactor": 0.0,
        "roughnessFactor": 1.0,
        "baseColorTexture": {
          "index": 4,
          "texCoord": 0
        }
      },
      "doubleSided": true
    },
    {
      "name": "GRAPHICS\\_MATERIALS\\JCOOK-M-0111200759561118.xbm",
      "pbrMetallicRoughness": {
        "baseColorFactor": [
          1.0,
          1.0,
          1.0,
          1.0
        ],
        "metallicFactor": 0.0,
        "roughnessFactor": 1.0,
        "baseColorTexture": {
          "index": 5,
          "texCoord": 0
        }
      },
      "doubleSided": true
    }
  ],
  "textures": [
    {
      "sampler": 0,
      "source": 0
    },
    {
      "sampler": 0,
      "source": 1
    },
    {
      "sampler": 0,
      "source": 2
    },
    {
      "sampler": 0,
      "source": 3
    },
    {
      "sampler": 0,
      "source": 4
    },
    {
      "sampler": 0,
      "source": 5
    }
  ],
  "images": [
    {
      "name": "metalbrushed_d",
      "mimeType": "image/png",
      "uri": "data:image/png;base64,"
    },
    {
      "name": "dirt_02_d",
      "mimeType": "image/png",
      "uri": "data:image/png;base64,"
    },
    {
      "name": "dirtrust_03_d",
      "mimeType": "image/png",
      "uri": "data:image/png;base64,"
    },
    {
      "name": "dirt_02_d",
      "mimeType": "image/png",
      "uri": "data:image/png;base64,"
    },
    {
      "name": "dirtrust_03_d",
      "mimeType": "image/png",
      "uri": "data:image/png;base64,"
    },
    {
      "name": "metalburnedsmall_d",
      "mimeType": "image/png",
      "uri": "data:image/png;base64,"
    }
  ],
  "samplers": [
    {
      "magFilter": 9729,
      "minFilter": 9987,
      "wrapS": 10497,
      "wrapT": 10497
    }
  ],
  "accessors": [
    {
      "bufferView": 0,
      "componentType": 5126,
      "count": 18,
      "type": "MAT4"
    },
    {
      "bufferView": 1,
      "componentType": 5126,
      "count": 8257,
      "type": "VEC3",
      "min": [
        -0.11090426333248615,
        -0.20651875343173742,
        -0.06634723953902721
      ],
      "max": [
        0.07379375584423542,
        0.969756156206131,
        0.18979461025446653
      ]
    },
    {
      "bufferView": 2,
      "componentType": 5126,
      "count": 8257,
      "type": "VEC2"
    },
    {
      "bufferView": 3,
      "componentType": 5123,
      "count": 8257,
      "type": "VEC4"
    },
    {
      "bufferView": 4,
      "componentType": 5126,
      "count": 8257,
      "type": "VEC4"
    },
    {
      "bufferView": 5,
      "componentType": 5123,
      "count": 1038,
      "type": "SCALAR"
    },
    {
      "bufferView": 6,
      "componentType": 5123,
      "count": 168,
      "type": "SCALAR"
    },
    {
      "bufferView": 7,
      "componentType": 5123,
      "count": 150,
      "type": "SCALAR"
    },
    {
      "bufferView": 8,
      "componentType": 5123,
      "count": 2478,
      "type": "SCALAR"
    },
    {
      "bufferView": 9,
      "componentType": 5123,
      "count": 15627,
      "type": "SCALAR"
    },
    {
      "bufferView": 10,
      "componentType": 5123,
      "count": 2469,
      "type": "SCALAR"
    }
  ],
  "bufferViews": [
    {
      "buffer": 0,
      "byteOffset": 0,
      "byteLength": 1152
    },
    {
      "buffer": 0,
      "byteOffset": 1152,
      "byteLength": 99084,
      "target": 34962
    },
    {
      "buffer": 0,
      "byteOffset": 100236,
      "byteLength": 66056,
      "target": 34962
    },
    {
      "buffer": 0,
      "byteOffset": 166292,
      "byteLength": 66056,
      "target": 34962
    },
    {
      "buffer": 0,
      "byteOffset": 232348,
      "byteLength": 132112,
      "target": 34962
    },
    {
      "buffer": 0,
      "byteOffset": 364460,
      "byteLength": 2076,
      "target": 34963
    },
    {
      "buffer": 0,
      "byteOffset": 366536,
      "byteLength": 336,
      "target": 34963
    },
    {
      "buffer": 0,
      "byteOffset": 366872,
      "byteLength": 300,
      "target": 34963
    },
    {
      "buffer": 0,
      "byteOffset": 367172,
      "byteLength": 4956,
      "target": 34963
    },
    {
      "buffer": 0,
      "byteOffset": 372128,
      "byteLength": 31254,
      "target": 34963
    },
    {
      "buffer": 0,
      "byteOffset": 403382,
      "byteLength": 4938,
      "target": 34963
    }
  ],
  "buffers": [
    {
      "byteLength": 408320,
      "uri": "pkm.bin"
    }
  ]
}