{
  "asset": {
    "version": "2.0",
    "generator": "XBG to GLTF Converter with Textures"
  },
  "scene": 0,
  "scenes": [
    {
      "name": "Scene",
      "nodes": [
        8
      ]
    }
  ],
  "nodes": [
    {
      "name": "Automatic_Anti_Air",
      "children": [
        1
      ]
    },
    {
      "name": "Bone_Base",
      "children": [
        2
      ]
    },
    {
      "name": "FIRING_Body",
      "translation": [
        -0.0003440899890847504,
        0.03194595128297806,
        0.6036221385002136
      ],
      "children": [
        3,
        6
      ]
    },
    {
      "name": "FIRING_Weapon",
      "translation": [
        0.0,
        -0.35587432980537415,
        0.7616236209869385
      ],
      "children": [
        4,
        5
      ]
    },
    {
      "name": "FK_FIRE_Right",
      "translation": [
        0.3386591970920563,
        0.9327824711799622,
        0.3518872857093811
      ]
    },
    {
      "name": "FK_FIRE_Left",
      "translation": [
        -0.3810165226459503,
        0.9327824711799622,
        0.3518872857093811
      ]
    },
    {
      "name": "FIRING_Shield",
      "translation": [
        9.99999993922529e-09,
        0.24233826994895935,
        0.3291504979133606
      ],
      "rotation": [
        -0.0026071048368774444,
        0.0,
        0.0,
        0.9999966014964099
      ]
    },
    {
      "name": "MeshNode_LOD0",
      "mesh": 0,
      "skin": 0
    },
    {
      "name": "Correction_Root",
      "rotation": [
        -0.70710678,
        0.0,
        0.0,
        0.70710678
      ],
      "children": [
        0,
        7
      ]
    }
  ],
  "meshes": [
    {
      "name": "Mesh_LOD0",
      "primitives": [
        {
          "attributes": {
            "POSITION": 1,
            "JOINTS_0": 3,
            "WEIGHTS_0": 4,
            "TEXCOORD_0": 2
          },
          "indices": 5,
          "material": 0
        },
        {
          "attributes": {
            "POSITION": 1,
            "JOINTS_0": 3,
            "WEIGHTS_0": 4,
            "TEXCOORD_0": 2
          },
          "indices": 6,
          "material": 1
        }
      ]
    }
  ],
  "skins": [
    {
      "inverseBindMatrices": 0,
      "joints": [
        0,
        1,
        2,
        3,
        4,
        5,
        6
      ],
      "name": "Armature",
      "skeleton": 0
    }
  ],
  "materials": [
    {
      "name": "GRAPHICS\\_MATERIALS\\DLAJEUNESSE-M-2009063069051813.xbm",
      "pbrMetallicRoughness": {
        "baseColorFactor": [
          1.0,
          1.0,
          1.0,
          1.0
        ],
        "metallicFactor": 0.0,
        "roughnessFactor": 1.0,
        "baseColorTexture": {
          "index": 0,
          "texCoord": 0
        }
      },
      "doubleSided": true
    },
    {
      "name": "GRAPHICS\\_MATERIALS\\DLAJEUNESSE-M-2009062957032222.xbm",
      "pbrMetallicRoughness": {
        "baseColorFactor": [
          1.0,
          1.0,
          1.0,
          1.0
        ],
        "metallicFactor": 0.0,
        "roughnessFactor": 1.0,
        "baseColorTexture": {
          "index": 1,
          "texCoord": 0
        }
      },
      "doubleSided": true
    }
  ],
  "textures": [
    {
      "sampler": 0,
      "source": 0
    },
    {
      "sampler": 0,
      "source": 1
    }
  ],
  "images": [
    {
      "name": "automatic_anti_air_d",
      "mimeType": "image/png",
      "uri": "data:image/png;base64,"
    },
    {
      "name": "automatic_turret_d",
      "mimeType": "image/png",
      "uri": "data:image/png;base64,"
    }
  ],
  "samplers": [
    {
      "magFilter": 9729,
      "minFilter": 9987,
      "wrapS": 10497,
      "wrapT": 10497
    }
  ],
  "accessors": [
    {
      "bufferView": 0,
      "componentType": 5126,
      "count": 7,
      "type": "MAT4"
    },
    {
      "bufferView": 1,
      "componentType": 5126,
      "count": 4176,
      "type": "VEC3",
      "min": [
        -1.1763969836756587,
        -0.9528183834627271,
        -9.155552834272385e-05
      ],
      "max": [
        0.8816797379404306,
        0.8794824052602053,
        2.2284615598618984
      ]
    },
    {
      "bufferView": 2,
      "componentType": 5126,
      "count": 4176,
      "type": "VEC2"
    },
    {
      "bufferView": 3,
      "componentType": 5123,
      "count": 4176,
      "type": "VEC4"
    },
    {
      "bufferView": 4,
      "componentType": 5126,
      "count": 4176,
      "type": "VEC4"
    },
    {
      "bufferView": 5,
      "componentType": 5123,
      "count": 3168,
      "type": "SCALAR"
    },
    {
      "bufferView": 6,
      "componentType": 5123,
      "count": 8772,
      "type": "SCALAR"
    }
  ],
  "bufferViews": [
    {
      "buffer": 0,
      "byteOffset": 0,
      "byteLength": 448
    },
    {
      "buffer": 0,
      "byteOffset": 448,
      "byteLength": 50112,
      "target": 34962
    },
    {
      "buffer": 0,
      "byteOffset": 50560,
      "byteLength": 33408,
      "target": 34962
    },
    {
      "buffer": 0,
      "byteOffset": 83968,
      "byteLength": 33408,
      "target": 34962
    },
    {
      "buffer": 0,
      "byteOffset": 117376,
      "byteLength": 66816,
      "target": 34962
    },
    {
      "buffer": 0,
      "byteOffset": 184192,
      "byteLength": 6336,
      "target": 34963
    },
    {
      "buffer": 0,
      "byteOffset": 190528,
      "byteLength": 17544,
      "target": 34963
    }
  ],
  "buffers": [
    {
      "byteLength": 208072,
      "uri": "automatic_anti_air.bin"
    }
  ]
}