{
  "asset": {
    "version": "2.0",
    "generator": "XBG to GLTF Converter with Textures"
  },
  "scene": 0,
  "scenes": [
    {
      "name": "Scene",
      "nodes": [
        10
      ]
    }
  ],
  "nodes": [
    {
      "name": "Automatic_Turret",
      "children": [
        1
      ]
    },
    {
      "name": "Bone_Base",
      "children": [
        2
      ]
    },
    {
      "name": "FIRING_Body",
      "translation": [
        -0.0003440899890847504,
        0.03194595128297806,
        0.6036221385002136
      ],
      "children": [
        3,
        8
      ]
    },
    {
      "name": "FIRING_Weapon",
      "translation": [
        0.0,
        -0.41940543055534363,
        0.7029931545257568
      ],
      "children": [
        4,
        5,
        6,
        7
      ]
    },
    {
      "name": "FIRING_Machinegun_Left",
      "translation": [
        -0.547057032585144,
        1.0023157596588135,
        0.5091277956962585
      ]
    },
    {
      "name": "FIRING_Machinegun_Right",
      "translation": [
        0.5689112544059753,
        1.0283981561660767,
        0.5091269016265869
      ]
    },
    {
      "name": "FX_FIRE_Left",
      "translation": [
        -0.547057032585144,
        1.6583949327468872,
        0.5091277956962585
      ]
    },
    {
      "name": "FX_FIRE_Right",
      "translation": [
        0.5689112544059753,
        1.6844772100448608,
        0.5091269016265869
      ]
    },
    {
      "name": "FIRING_Shield",
      "translation": [
        9.99999993922529e-09,
        0.24233826994895935,
        0.329150527715683
      ],
      "rotation": [
        -0.0026071048368774444,
        0.0,
        0.0,
        0.9999966014964099
      ]
    },
    {
      "name": "MeshNode_LOD0",
      "mesh": 0,
      "skin": 0
    },
    {
      "name": "Correction_Root",
      "rotation": [
        -0.70710678,
        0.0,
        0.0,
        0.70710678
      ],
      "children": [
        0,
        9
      ]
    }
  ],
  "meshes": [
    {
      "name": "Mesh_LOD0",
      "primitives": [
        {
          "attributes": {
            "POSITION": 1,
            "JOINTS_0": 3,
            "WEIGHTS_0": 4,
            "TEXCOORD_0": 2
          },
          "indices": 5,
          "material": 0
        },
        {
          "attributes": {
            "POSITION": 1,
            "JOINTS_0": 3,
            "WEIGHTS_0": 4,
            "TEXCOORD_0": 2
          },
          "indices": 6,
          "material": 1
        }
      ]
    }
  ],
  "skins": [
    {
      "inverseBindMatrices": 0,
      "joints": [
        0,
        1,
        2,
        3,
        4,
        5,
        6,
        7,
        8
      ],
      "name": "Armature",
      "skeleton": 0
    }
  ],
  "materials": [
    {
      "name": "GRAPHICS\\_MATERIALS\\DLAJEUNESSE-M-2009062957032222.xbm",
      "pbrMetallicRoughness": {
        "baseColorFactor": [
          1.0,
          1.0,
          1.0,
          1.0
        ],
        "metallicFactor": 0.0,
        "roughnessFactor": 1.0,
        "baseColorTexture": {
          "index": 0,
          "texCoord": 0
        }
      },
      "doubleSided": true
    },
    {
      "name": "GRAPHICS\\_MATERIALS\\SGAGNON-M-2008102458765492.xbm",
      "pbrMetallicRoughness": {
        "baseColorFactor": [
          1.0,
          1.0,
          1.0,
          1.0
        ],
        "metallicFactor": 0.0,
        "roughnessFactor": 1.0,
        "baseColorTexture": {
          "index": 1,
          "texCoord": 0
        }
      },
      "doubleSided": true
    }
  ],
  "textures": [
    {
      "sampler": 0,
      "source": 0
    },
    {
      "sampler": 0,
      "source": 1
    }
  ],
  "images": [
    {
      "name": "automatic_turret_d",
      "mimeType": "image/png",
      "uri": "data:image/png;base64,"
    },
    {
      "name": "rail_gun_01_d",
      "mimeType": "image/png",
      "uri": "data:image/png;base64,"
    }
  ],
  "samplers": [
    {
      "magFilter": 9729,
      "minFilter": 9987,
      "wrapS": 10497,
      "wrapT": 10497
    }
  ],
  "accessors": [
    {
      "bufferView": 0,
      "componentType": 5126,
      "count": 9,
      "type": "MAT4"
    },
    {
      "bufferView": 1,
      "componentType": 5126,
      "count": 5100,
      "type": "VEC3",
      "min": [
        -1.3076876113191247,
        -0.9528183834627271,
        -9.155552834272385e-05
      ],
      "max": [
        1.1078218929469585,
        1.2663960680365562,
        2.5165868075564504
      ]
    },
    {
      "bufferView": 2,
      "componentType": 5126,
      "count": 5100,
      "type": "VEC2"
    },
    {
      "bufferView": 3,
      "componentType": 5123,
      "count": 5100,
      "type": "VEC4"
    },
    {
      "bufferView": 4,
      "componentType": 5126,
      "count": 5100,
      "type": "VEC4"
    },
    {
      "bufferView": 5,
      "componentType": 5123,
      "count": 11574,
      "type": "SCALAR"
    },
    {
      "bufferView": 6,
      "componentType": 5123,
      "count": 1440,
      "type": "SCALAR"
    }
  ],
  "bufferViews": [
    {
      "buffer": 0,
      "byteOffset": 0,
      "byteLength": 576
    },
    {
      "buffer": 0,
      "byteOffset": 576,
      "byteLength": 61200,
      "target": 34962
    },
    {
      "buffer": 0,
      "byteOffset": 61776,
      "byteLength": 40800,
      "target": 34962
    },
    {
      "buffer": 0,
      "byteOffset": 102576,
      "byteLength": 40800,
      "target": 34962
    },
    {
      "buffer": 0,
      "byteOffset": 143376,
      "byteLength": 81600,
      "target": 34962
    },
    {
      "buffer": 0,
      "byteOffset": 224976,
      "byteLength": 23148,
      "target": 34963
    },
    {
      "buffer": 0,
      "byteOffset": 248124,
      "byteLength": 2880,
      "target": 34963
    }
  ],
  "buffers": [
    {
      "byteLength": 251004,
      "uri": "automatic_turret.bin"
    }
  ]
}