{
  "asset": {
    "version": "2.0",
    "generator": "XBG to GLTF Converter with Textures"
  },
  "scene": 0,
  "scenes": [
    {
      "name": "Scene",
      "nodes": [
        7
      ]
    }
  ],
  "nodes": [
    {
      "name": "Corp_Repulsor",
      "children": [
        1
      ]
    },
    {
      "name": "Corp_Repulsor_HEAD_BONE",
      "translation": [
        -2.68299991148524e-05,
        -5.99999978589949e-08,
        1.2057099342346191
      ],
      "children": [
        2,
        3,
        4,
        5
      ]
    },
    {
      "name": "rp_Repulsor_ANTENA04_BONE",
      "translation": [
        0.3476606607437134,
        0.0,
        -0.07534270733594894
      ]
    },
    {
      "name": "rp_Repulsor_ANTENA03_BONE",
      "translation": [
        0.000629010028205812,
        0.3476606607437134,
        -0.07609832286834717
      ]
    },
    {
      "name": "rp_Repulsor_ANTENA02_BONE",
      "translation": [
        -0.3476606607437134,
        0.00125792995095253,
        -0.07534240186214447
      ]
    },
    {
      "name": "rp_Repulsor_ANTENA01_BONE",
      "translation": [
        -0.0006289199809543788,
        -0.3476606607437134,
        -0.07609832286834717
      ]
    },
    {
      "name": "MeshNode_LOD0",
      "mesh": 0,
      "skin": 0
    },
    {
      "name": "Correction_Root",
      "rotation": [
        -0.70710678,
        0.0,
        0.0,
        0.70710678
      ],
      "children": [
        0,
        6
      ]
    }
  ],
  "meshes": [
    {
      "name": "Mesh_LOD0",
      "primitives": [
        {
          "attributes": {
            "POSITION": 1,
            "JOINTS_0": 3,
            "WEIGHTS_0": 4,
            "TEXCOORD_0": 2
          },
          "indices": 5,
          "material": 0
        },
        {
          "attributes": {
            "POSITION": 1,
            "JOINTS_0": 3,
            "WEIGHTS_0": 4,
            "TEXCOORD_0": 2
          },
          "indices": 6,
          "material": 1
        }
      ]
    }
  ],
  "skins": [
    {
      "inverseBindMatrices": 0,
      "joints": [
        0,
        1,
        2,
        3,
        4,
        5
      ],
      "name": "Armature",
      "skeleton": 0
    }
  ],
  "materials": [
    {
      "name": "GRAPHICS\\_MATERIALS\\SLABRECHE-M-2009011462006859.xbm",
      "pbrMetallicRoughness": {
        "baseColorFactor": [
          1.0,
          1.0,
          1.0,
          1.0
        ],
        "metallicFactor": 0.0,
        "roughnessFactor": 1.0,
        "baseColorTexture": {
          "index": 0,
          "texCoord": 0
        }
      },
      "doubleSided": true
    },
    {
      "name": "GRAPHICS\\_MATERIALS\\DLAJEUNESSE-M-2009041451819994.xbm",
      "pbrMetallicRoughness": {
        "baseColorFactor": [
          1.0,
          1.0,
          1.0,
          1.0
        ],
        "metallicFactor": 0.0,
        "roughnessFactor": 1.0,
        "baseColorTexture": {
          "index": 1,
          "texCoord": 0
        }
      },
      "doubleSided": true
    }
  ],
  "textures": [
    {
      "sampler": 0,
      "source": 0
    },
    {
      "sampler": 0,
      "source": 1
    }
  ],
  "images": [
    {
      "name": "corp_helipad_small_lights_01_d",
      "mimeType": "image/png",
      "uri": "data:image/png;base64,"
    },
    {
      "name": "corp_repulsor_d",
      "mimeType": "image/png",
      "uri": "data:image/png;base64,"
    }
  ],
  "samplers": [
    {
      "magFilter": 9729,
      "minFilter": 9987,
      "wrapS": 10497,
      "wrapT": 10497
    }
  ],
  "accessors": [
    {
      "bufferView": 0,
      "componentType": 5126,
      "count": 6,
      "type": "MAT4"
    },
    {
      "bufferView": 1,
      "componentType": 5126,
      "count": 2411,
      "type": "VEC3",
      "min": [
        -0.7520371098071337,
        -0.7520371098071337,
        -0.02697836235165596
      ],
      "max": [
        0.7519760727882385,
        0.7519760727882385,
        1.2432630378752947
      ]
    },
    {
      "bufferView": 2,
      "componentType": 5126,
      "count": 2411,
      "type": "VEC2"
    },
    {
      "bufferView": 3,
      "componentType": 5123,
      "count": 2411,
      "type": "VEC4"
    },
    {
      "bufferView": 4,
      "componentType": 5126,
      "count": 2411,
      "type": "VEC4"
    },
    {
      "bufferView": 5,
      "componentType": 5123,
      "count": 96,
      "type": "SCALAR"
    },
    {
      "bufferView": 6,
      "componentType": 5123,
      "count": 5652,
      "type": "SCALAR"
    }
  ],
  "bufferViews": [
    {
      "buffer": 0,
      "byteOffset": 0,
      "byteLength": 384
    },
    {
      "buffer": 0,
      "byteOffset": 384,
      "byteLength": 28932,
      "target": 34962
    },
    {
      "buffer": 0,
      "byteOffset": 29316,
      "byteLength": 19288,
      "target": 34962
    },
    {
      "buffer": 0,
      "byteOffset": 48604,
      "byteLength": 19288,
      "target": 34962
    },
    {
      "buffer": 0,
      "byteOffset": 67892,
      "byteLength": 38576,
      "target": 34962
    },
    {
      "buffer": 0,
      "byteOffset": 106468,
      "byteLength": 192,
      "target": 34963
    },
    {
      "buffer": 0,
      "byteOffset": 106660,
      "byteLength": 11304,
      "target": 34963
    }
  ],
  "buffers": [
    {
      "byteLength": 117964,
      "uri": "corp_repulsor.bin"
    }
  ]
}