{
  "asset": {
    "version": "2.0",
    "generator": "XBG to GLTF Converter with Textures"
  },
  "scene": 0,
  "scenes": [
    {
      "name": "Scene",
      "nodes": [
        14
      ]
    }
  ],
  "nodes": [
    {
      "name": "BOW_STANDARD",
      "children": [
        1,
        2,
        10,
        11,
        12
      ]
    },
    {
      "name": "BOW_STANDARD_ARROW",
      "translation": [
        -0.31474414467811584,
        0.0268202293664217,
        0.21444950997829437
      ],
      "rotation": [
        -0.09036038613430075,
        -0.00512530435015629,
        -0.7263610964641953,
        0.6813283266042081
      ]
    },
    {
      "name": "Bow_Root_BONE",
      "translation": [
        0.05442070960998535,
        -0.030282890424132347,
        -0.04644469916820526
      ],
      "rotation": [
        -0.0675188018785509,
        0.06026994187948323,
        -0.03184253042995792,
        0.9953867583791832
      ],
      "children": [
        3,
        7
      ]
    },
    {
      "name": "Bow_Up_01_BONE",
      "translation": [
        -0.006008800119161606,
        1.9999999874981134e-08,
        -0.0005061699775978992
      ],
      "rotation": [
        0.4939112218958301,
        0.5060155993384984,
        0.506014869991705,
        -0.49391184884673245
      ],
      "children": [
        4
      ]
    },
    {
      "name": "Bow_Up_02_BONE",
      "translation": [
        0.7025473117828369,
        -1.3000000363694308e-07,
        9.99999993922529e-09
      ],
      "rotation": [
        -2.1002837945851224e-18,
        -4.140398974512815e-09,
        -0.08280779290478055,
        0.9965655369488947
      ],
      "children": [
        5
      ]
    },
    {
      "name": "Bow_Up_03_BONE",
      "translation": [
        0.6780549287796018,
        1.1999999569023423e-07,
        5.551115123125783e-17
      ],
      "rotation": [
        9.237787265936033e-10,
        9.237789029223755e-10,
        -0.09237811920024093,
        0.9957239994561877
      ],
      "children": [
        6
      ]
    },
    {
      "name": "Bow_Up_Rope_BONE",
      "translation": [
        0.6795455813407898,
        -1.599999990831158e-07,
        9.999999942694737e-09
      ],
      "rotation": [
        -0.13181868141453698,
        0.6947119226942641,
        0.6947107304661734,
        -0.13181874136261237
      ]
    },
    {
      "name": "Bow_Down_01_BONE",
      "rotation": [
        -0.3643315135524166,
        0.6060220154545038,
        0.6060219305250033,
        0.3643313231420629
      ],
      "children": [
        8
      ]
    },
    {
      "name": "Bow_Down_02_BONE",
      "translation": [
        0.3408271670341491,
        1.9999999906206156e-08,
        3.469446951953614e-18
      ],
      "rotation": [
        -8.126064324303026e-09,
        1.2189096604181732e-08,
        0.4063032616793168,
        0.9137382883237128
      ],
      "children": [
        9
      ]
    },
    {
      "name": "Bow_Down_Rope_BONE",
      "translation": [
        0.28361576795578003,
        1.999999982293943e-08,
        6.938893903907228e-18
      ],
      "rotation": [
        0.4182043755728738,
        0.5701799248487538,
        -0.5701797980794527,
        -0.4182043669253821
      ]
    },
    {
      "name": "_STANDARD_ARROW_PLACEMENT",
      "translation": [
        -0.31474414467811584,
        0.0268202293664217,
        0.21444950997829437
      ],
      "rotation": [
        -0.090360224165406,
        -0.005125776944910324,
        -0.7263609171138781,
        0.6813285362858653
      ]
    },
    {
      "name": "BOW_STANDARD_FRAME",
      "translation": [
        -0.14372068643569946,
        -0.01597690023481846,
        -0.02330777980387211
      ],
      "rotation": [
        -0.09036018607407616,
        -0.005125783824078076,
        -0.7263607981359331,
        0.6813286678898206
      ]
    },
    {
      "name": "Bow_Rope_Stretch_BONE",
      "translation": [
        -0.31474414467811584,
        0.0268202293664217,
        0.21444950997829437
      ],
      "rotation": [
        -0.48539654209353283,
        0.5775092200566404,
        0.47814748075761093,
        0.4497202090478937
      ]
    },
    {
      "name": "MeshNode_LOD0",
      "mesh": 0,
      "skin": 0
    },
    {
      "name": "Correction_Root",
      "rotation": [
        -0.70710678,
        0.0,
        0.0,
        0.70710678
      ],
      "children": [
        0,
        13
      ]
    }
  ],
  "meshes": [
    {
      "name": "Mesh_LOD0",
      "primitives": [
        {
          "attributes": {
            "POSITION": 1,
            "JOINTS_0": 3,
            "WEIGHTS_0": 4,
            "TEXCOORD_0": 2
          },
          "indices": 5,
          "material": 0
        },
        {
          "attributes": {
            "POSITION": 1,
            "JOINTS_0": 3,
            "WEIGHTS_0": 4,
            "TEXCOORD_0": 2
          },
          "indices": 6,
          "material": 1
        },
        {
          "attributes": {
            "POSITION": 1,
            "JOINTS_0": 3,
            "WEIGHTS_0": 4,
            "TEXCOORD_0": 2
          },
          "indices": 7,
          "material": 2
        },
        {
          "attributes": {
            "POSITION": 1,
            "JOINTS_0": 3,
            "WEIGHTS_0": 4,
            "TEXCOORD_0": 2
          },
          "indices": 8,
          "material": 3
        }
      ]
    }
  ],
  "skins": [
    {
      "inverseBindMatrices": 0,
      "joints": [
        0,
        1,
        2,
        3,
        4,
        5,
        6,
        7,
        8,
        9,
        10,
        11,
        12
      ],
      "name": "Armature",
      "skeleton": 0
    }
  ],
  "materials": [
    {
      "name": "GRAPHICS\\_MATERIALS\\JDAPRATO-M-2008030349546014.xbm",
      "pbrMetallicRoughness": {
        "baseColorFactor": [
          1.0,
          1.0,
          1.0,
          1.0
        ],
        "metallicFactor": 0.0,
        "roughnessFactor": 1.0,
        "baseColorTexture": {
          "index": 0,
          "texCoord": 0
        }
      },
      "doubleSided": true
    },
    {
      "name": "GRAPHICS\\_MATERIALS\\JDAPRATO-M-2008030350877608.xbm",
      "pbrMetallicRoughness": {
        "baseColorFactor": [
          1.0,
          1.0,
          1.0,
          1.0
        ],
        "metallicFactor": 0.0,
        "roughnessFactor": 1.0,
        "baseColorTexture": {
          "index": 1,
          "texCoord": 0
        }
      },
      "doubleSided": true
    },
    {
      "name": "GRAPHICS\\_MATERIALS\\JDAPRATO-M-2008030349515842.xbm",
      "pbrMetallicRoughness": {
        "baseColorFactor": [
          1.0,
          1.0,
          1.0,
          1.0
        ],
        "metallicFactor": 0.0,
        "roughnessFactor": 1.0,
        "baseColorTexture": {
          "index": 2,
          "texCoord": 0
        }
      },
      "doubleSided": true
    },
    {
      "name": "GRAPHICS\\_MATERIALS\\JDAPRATO-M-2008030349112451.xbm",
      "pbrMetallicRoughness": {
        "baseColorFactor": [
          1.0,
          1.0,
          1.0,
          1.0
        ],
        "metallicFactor": 0.0,
        "roughnessFactor": 1.0,
        "baseColorTexture": {
          "index": 3,
          "texCoord": 0
        }
      },
      "doubleSided": true
    }
  ],
  "textures": [
    {
      "sampler": 0,
      "source": 0
    },
    {
      "sampler": 0,
      "source": 1
    },
    {
      "sampler": 0,
      "source": 2
    },
    {
      "sampler": 0,
      "source": 3
    }
  ],
  "images": [
    {
      "name": "rope_original_template_d",
      "mimeType": "image/png",
      "uri": "data:image/png;base64,"
    },
    {
      "name": "bow_1st_d",
      "mimeType": "image/png",
      "uri": "data:image/png;base64,"
    },
    {
      "name": "bow_1st_d",
      "mimeType": "image/png",
      "uri": "data:image/png;base64,"
    },
    {
      "name": "arrow_original_template_d",
      "mimeType": "image/png",
      "uri": "data:image/png;base64,"
    }
  ],
  "samplers": [
    {
      "magFilter": 9729,
      "minFilter": 9987,
      "wrapS": 10497,
      "wrapT": 10497
    }
  ],
  "accessors": [
    {
      "bufferView": 0,
      "componentType": 5126,
      "count": 13,
      "type": "MAT4"
    },
    {
      "bufferView": 1,
      "componentType": 5126,
      "count": 848,
      "type": "VEC3",
      "min": [
        -0.45292519871145487,
        -0.0932950833812356,
        -0.5750602735206485
      ],
      "max": [
        1.3525498202070594,
        0.3274941248819232,
        2.097903376445174
      ]
    },
    {
      "bufferView": 2,
      "componentType": 5126,
      "count": 848,
      "type": "VEC2"
    },
    {
      "bufferView": 3,
      "componentType": 5123,
      "count": 848,
      "type": "VEC4"
    },
    {
      "bufferView": 4,
      "componentType": 5126,
      "count": 848,
      "type": "VEC4"
    },
    {
      "bufferView": 5,
      "componentType": 5123,
      "count": 102,
      "type": "SCALAR"
    },
    {
      "bufferView": 6,
      "componentType": 5123,
      "count": 654,
      "type": "SCALAR"
    },
    {
      "bufferView": 7,
      "componentType": 5123,
      "count": 1044,
      "type": "SCALAR"
    },
    {
      "bufferView": 8,
      "componentType": 5123,
      "count": 648,
      "type": "SCALAR"
    }
  ],
  "bufferViews": [
    {
      "buffer": 0,
      "byteOffset": 0,
      "byteLength": 832
    },
    {
      "buffer": 0,
      "byteOffset": 832,
      "byteLength": 10176,
      "target": 34962
    },
    {
      "buffer": 0,
      "byteOffset": 11008,
      "byteLength": 6784,
      "target": 34962
    },
    {
      "buffer": 0,
      "byteOffset": 17792,
      "byteLength": 6784,
      "target": 34962
    },
    {
      "buffer": 0,
      "byteOffset": 24576,
      "byteLength": 13568,
      "target": 34962
    },
    {
      "buffer": 0,
      "byteOffset": 38144,
      "byteLength": 204,
      "target": 34963
    },
    {
      "buffer": 0,
      "byteOffset": 38348,
      "byteLength": 1308,
      "target": 34963
    },
    {
      "buffer": 0,
      "byteOffset": 39656,
      "byteLength": 2088,
      "target": 34963
    },
    {
      "buffer": 0,
      "byteOffset": 41744,
      "byteLength": 1296,
      "target": 34963
    }
  ],
  "buffers": [
    {
      "byteLength": 43040,
      "uri": "bow_standard.bin"
    }
  ]
}