{
  "asset": {
    "version": "2.0",
    "generator": "XBG to GLTF Converter with Textures"
  },
  "scene": 0,
  "scenes": [
    {
      "name": "Scene",
      "nodes": [
        4
      ]
    }
  ],
  "nodes": [
    {
      "name": "machette_states123",
      "children": [
        1,
        2
      ]
    },
    {
      "name": "FX_FIRE",
      "translation": [
        0.08555184304714203,
        0.012252850458025932,
        0.11267699301242828
      ],
      "rotation": [
        -0.07652272280929649,
        0.0520827284848065,
        -0.6762845515567487,
        0.730801524071592
      ]
    },
    {
      "name": "FRAME",
      "translation": [
        0.06405942887067795,
        0.015858039259910583,
        0.2949962019920349
      ],
      "rotation": [
        -0.07652272280929649,
        0.0520827284848065,
        -0.6762845515567487,
        0.730801524071592
      ]
    },
    {
      "name": "MeshNode_LOD0",
      "mesh": 0,
      "skin": 0
    },
    {
      "name": "Correction_Root",
      "rotation": [
        -0.70710678,
        0.0,
        0.0,
        0.70710678
      ],
      "children": [
        0,
        3
      ]
    }
  ],
  "meshes": [
    {
      "name": "Mesh_LOD0",
      "primitives": [
        {
          "attributes": {
            "POSITION": 1,
            "JOINTS_0": 3,
            "WEIGHTS_0": 4,
            "TEXCOORD_0": 2
          },
          "indices": 5,
          "material": 0
        },
        {
          "attributes": {
            "POSITION": 1,
            "JOINTS_0": 3,
            "WEIGHTS_0": 4,
            "TEXCOORD_0": 2
          },
          "indices": 6,
          "material": 1
        }
      ]
    }
  ],
  "skins": [
    {
      "inverseBindMatrices": 0,
      "joints": [
        0,
        1,
        2
      ],
      "name": "Armature",
      "skeleton": 0
    }
  ],
  "materials": [
    {
      "name": "GRAPHICS\\_MATERIALS\\SDORE2-M-2007071362373206.xbm",
      "pbrMetallicRoughness": {
        "baseColorFactor": [
          1.0,
          1.0,
          1.0,
          1.0
        ],
        "metallicFactor": 0.0,
        "roughnessFactor": 1.0,
        "baseColorTexture": {
          "index": 0,
          "texCoord": 0
        }
      },
      "doubleSided": true
    },
    {
      "name": "GRAPHICS\\_MATERIALS\\SDORE2-M-2007071363997789.xbm",
      "pbrMetallicRoughness": {
        "baseColorFactor": [
          1.0,
          1.0,
          1.0,
          1.0
        ],
        "metallicFactor": 0.0,
        "roughnessFactor": 1.0,
        "baseColorTexture": {
          "index": 1,
          "texCoord": 0
        }
      },
      "doubleSided": true
    }
  ],
  "textures": [
    {
      "sampler": 0,
      "source": 0
    },
    {
      "sampler": 0,
      "source": 1
    }
  ],
  "images": [
    {
      "name": "metal_04_d",
      "mimeType": "image/png",
      "uri": "data:image/png;base64,"
    },
    {
      "name": "dirt_02_d",
      "mimeType": "image/png",
      "uri": "data:image/png;base64,"
    }
  ],
  "samplers": [
    {
      "magFilter": 9729,
      "minFilter": 9987,
      "wrapS": 10497,
      "wrapT": 10497
    }
  ],
  "accessors": [
    {
      "bufferView": 0,
      "componentType": 5126,
      "count": 3,
      "type": "MAT4"
    },
    {
      "bufferView": 1,
      "componentType": 5126,
      "count": 993,
      "type": "VEC3",
      "min": [
        -0.013336588628590107,
        -0.03180028684437275,
        -0.38706625532358885
      ],
      "max": [
        0.01315347757190466,
        0.032502212561666965,
        0.24359874241054058
      ]
    },
    {
      "bufferView": 2,
      "componentType": 5126,
      "count": 993,
      "type": "VEC2"
    },
    {
      "bufferView": 3,
      "componentType": 5123,
      "count": 993,
      "type": "VEC4"
    },
    {
      "bufferView": 4,
      "componentType": 5126,
      "count": 993,
      "type": "VEC4"
    },
    {
      "bufferView": 5,
      "componentType": 5123,
      "count": 2466,
      "type": "SCALAR"
    },
    {
      "bufferView": 6,
      "componentType": 5123,
      "count": 936,
      "type": "SCALAR"
    }
  ],
  "bufferViews": [
    {
      "buffer": 0,
      "byteOffset": 0,
      "byteLength": 192
    },
    {
      "buffer": 0,
      "byteOffset": 192,
      "byteLength": 11916,
      "target": 34962
    },
    {
      "buffer": 0,
      "byteOffset": 12108,
      "byteLength": 7944,
      "target": 34962
    },
    {
      "buffer": 0,
      "byteOffset": 20052,
      "byteLength": 7944,
      "target": 34962
    },
    {
      "buffer": 0,
      "byteOffset": 27996,
      "byteLength": 15888,
      "target": 34962
    },
    {
      "buffer": 0,
      "byteOffset": 43884,
      "byteLength": 4932,
      "target": 34963
    },
    {
      "buffer": 0,
      "byteOffset": 48816,
      "byteLength": 1872,
      "target": 34963
    }
  ],
  "buffers": [
    {
      "byteLength": 50688,
      "uri": "machette_states123.bin"
    }
  ]
}