{
  "asset": {
    "version": "2.0",
    "generator": "XBG to GLTF Converter with Textures"
  },
  "scene": 0,
  "scenes": [
    {
      "name": "Scene",
      "nodes": [
        6
      ]
    }
  ],
  "nodes": [
    {
      "name": "HutMd01Roof_02a_BK",
      "children": [
        1
      ]
    },
    {
      "name": "StatePrim",
      "translation": [
        -5.898272514343262,
        -9.770000360731501e-06,
        0.0
      ],
      "children": [
        2,
        3
      ]
    },
    {
      "name": "State02Prim",
      "translation": [
        0.0,
        0.0,
        0.9491894245147705
      ]
    },
    {
      "name": "State01Prim",
      "translation": [
        0.0,
        0.0,
        0.4395800828933716
      ],
      "children": [
        4
      ]
    },
    {
      "name": "Roof_FX",
      "translation": [
        5.848914623260498,
        -0.2776757776737213,
        4.860927581787109
      ]
    },
    {
      "name": "MeshNode_LOD0",
      "mesh": 0,
      "skin": 0
    },
    {
      "name": "Correction_Root",
      "rotation": [
        -0.70710678,
        0.0,
        0.0,
        0.70710678
      ],
      "children": [
        0,
        5
      ]
    }
  ],
  "meshes": [
    {
      "name": "Mesh_LOD0",
      "primitives": [
        {
          "attributes": {
            "POSITION": 1,
            "JOINTS_0": 3,
            "WEIGHTS_0": 4,
            "TEXCOORD_0": 2
          },
          "indices": 5,
          "material": 1
        },
        {
          "attributes": {
            "POSITION": 1,
            "JOINTS_0": 3,
            "WEIGHTS_0": 4,
            "TEXCOORD_0": 2
          },
          "indices": 6,
          "material": 0
        },
        {
          "attributes": {
            "POSITION": 1,
            "JOINTS_0": 3,
            "WEIGHTS_0": 4,
            "TEXCOORD_0": 2
          },
          "indices": 7,
          "material": 1
        }
      ]
    }
  ],
  "skins": [
    {
      "inverseBindMatrices": 0,
      "joints": [
        0,
        1,
        2,
        3,
        4
      ],
      "name": "Armature",
      "skeleton": 0
    }
  ],
  "materials": [
    {
      "name": "GRAPHICS\\_MATERIALS\\PFERNANDEZ-M-2007012367571260.xbm",
      "pbrMetallicRoughness": {
        "baseColorFactor": [
          1.0,
          1.0,
          1.0,
          1.0
        ],
        "metallicFactor": 0.0,
        "roughnessFactor": 1.0,
        "baseColorTexture": {
          "index": 0,
          "texCoord": 0
        }
      },
      "doubleSided": true
    },
    {
      "name": "GRAPHICS\\_MATERIALS\\CBERGERONLYONNAIS-M-2007081651484880.xbm",
      "pbrMetallicRoughness": {
        "baseColorFactor": [
          1.0,
          1.0,
          1.0,
          1.0
        ],
        "metallicFactor": 0.0,
        "roughnessFactor": 1.0,
        "baseColorTexture": {
          "index": 1,
          "texCoord": 0
        }
      },
      "doubleSided": true
    }
  ],
  "textures": [
    {
      "sampler": 0,
      "source": 0
    },
    {
      "sampler": 0,
      "source": 1
    }
  ],
  "images": [
    {
      "name": "dirt_02_d",
      "mimeType": "image/png",
      "uri": "data:image/png;base64,"
    },
    {
      "name": "strawmill_d",
      "mimeType": "image/png",
      "uri": "data:image/png;base64,"
    }
  ],
  "samplers": [
    {
      "magFilter": 9729,
      "minFilter": 9987,
      "wrapS": 10497,
      "wrapT": 10497
    }
  ],
  "accessors": [
    {
      "bufferView": 0,
      "componentType": 5126,
      "count": 5,
      "type": "MAT4"
    },
    {
      "bufferView": 1,
      "componentType": 5126,
      "count": 4449,
      "type": "VEC3",
      "min": [
        1.2280037831515074,
        -4.964049191214144,
        0.7989745773375034
      ],
      "max": [
        10.469252591952682,
        4.408124023117125,
        8.47047333419323
      ]
    },
    {
      "bufferView": 2,
      "componentType": 5126,
      "count": 4449,
      "type": "VEC2"
    },
    {
      "bufferView": 3,
      "componentType": 5123,
      "count": 4449,
      "type": "VEC4"
    },
    {
      "bufferView": 4,
      "componentType": 5126,
      "count": 4449,
      "type": "VEC4"
    },
    {
      "bufferView": 5,
      "componentType": 5123,
      "count": 6,
      "type": "SCALAR"
    },
    {
      "bufferView": 6,
      "componentType": 5123,
      "count": 1272,
      "type": "SCALAR"
    },
    {
      "bufferView": 7,
      "componentType": 5123,
      "count": 17550,
      "type": "SCALAR"
    }
  ],
  "bufferViews": [
    {
      "buffer": 0,
      "byteOffset": 0,
      "byteLength": 320
    },
    {
      "buffer": 0,
      "byteOffset": 320,
      "byteLength": 53388,
      "target": 34962
    },
    {
      "buffer": 0,
      "byteOffset": 53708,
      "byteLength": 35592,
      "target": 34962
    },
    {
      "buffer": 0,
      "byteOffset": 89300,
      "byteLength": 35592,
      "target": 34962
    },
    {
      "buffer": 0,
      "byteOffset": 124892,
      "byteLength": 71184,
      "target": 34962
    },
    {
      "buffer": 0,
      "byteOffset": 196076,
      "byteLength": 12,
      "target": 34963
    },
    {
      "buffer": 0,
      "byteOffset": 196088,
      "byteLength": 2544,
      "target": 34963
    },
    {
      "buffer": 0,
      "byteOffset": 198632,
      "byteLength": 35100,
      "target": 34963
    }
  ],
  "buffers": [
    {
      "byteLength": 233732,
      "uri": "hutmd01roof_02a_bk.bin"
    }
  ]
}