{
  "asset": {
    "version": "2.0",
    "generator": "XBG to GLTF Converter with Textures"
  },
  "scene": 0,
  "scenes": [
    {
      "name": "Scene",
      "nodes": [
        6
      ]
    }
  ],
  "nodes": [
    {
      "name": "Scorpion_Rwing_Breakable",
      "children": [
        1
      ]
    },
    {
      "name": "ion_Rwing_Breakable_STATE",
      "children": [
        2,
        4
      ]
    },
    {
      "name": "on_Rwing_Breakable_STATE1",
      "children": [
        3
      ]
    },
    {
      "name": "SwitchFX",
      "translation": [
        3.3839001655578613,
        2.4296016693115234,
        2.1413536071777344
      ]
    },
    {
      "name": "on_Rwing_Breakable_STATE2"
    },
    {
      "name": "MeshNode_LOD0",
      "mesh": 0,
      "skin": 0
    },
    {
      "name": "Correction_Root",
      "rotation": [
        -0.70710678,
        0.0,
        0.0,
        0.70710678
      ],
      "children": [
        0,
        5
      ]
    }
  ],
  "meshes": [
    {
      "name": "Mesh_LOD0",
      "primitives": [
        {
          "attributes": {
            "POSITION": 1,
            "JOINTS_0": 3,
            "WEIGHTS_0": 4,
            "TEXCOORD_0": 2
          },
          "indices": 5,
          "material": 0
        },
        {
          "attributes": {
            "POSITION": 1,
            "JOINTS_0": 3,
            "WEIGHTS_0": 4,
            "TEXCOORD_0": 2
          },
          "indices": 6,
          "material": 1
        },
        {
          "attributes": {
            "POSITION": 1,
            "JOINTS_0": 3,
            "WEIGHTS_0": 4,
            "TEXCOORD_0": 2
          },
          "indices": 7,
          "material": 0
        },
        {
          "attributes": {
            "POSITION": 1,
            "JOINTS_0": 3,
            "WEIGHTS_0": 4,
            "TEXCOORD_0": 2
          },
          "indices": 8,
          "material": 1
        }
      ]
    }
  ],
  "skins": [
    {
      "inverseBindMatrices": 0,
      "joints": [
        0,
        1,
        2,
        3,
        4
      ],
      "name": "Armature",
      "skeleton": 0
    }
  ],
  "materials": [
    {
      "name": "GRAPHICS\\_MATERIALS\\DLAJEUNESSE-M-2008080652289381.xbm",
      "pbrMetallicRoughness": {
        "baseColorFactor": [
          1.0,
          1.0,
          1.0,
          1.0
        ],
        "metallicFactor": 0.0,
        "roughnessFactor": 1.0,
        "baseColorTexture": {
          "index": 0,
          "texCoord": 0
        }
      },
      "doubleSided": true
    },
    {
      "name": "GRAPHICS\\_MATERIALS\\DLAJEUNESSE-M-2008072260204500.xbm",
      "pbrMetallicRoughness": {
        "baseColorFactor": [
          1.0,
          1.0,
          1.0,
          1.0
        ],
        "metallicFactor": 0.0,
        "roughnessFactor": 1.0,
        "baseColorTexture": {
          "index": 1,
          "texCoord": 0
        }
      },
      "doubleSided": true
    }
  ],
  "textures": [
    {
      "sampler": 0,
      "source": 0
    },
    {
      "sampler": 0,
      "source": 1
    }
  ],
  "images": [
    {
      "name": "corp_scorpion_gun_d",
      "mimeType": "image/png",
      "uri": "data:image/png;base64,"
    },
    {
      "name": "corp_scorpion_01_d",
      "mimeType": "image/png",
      "uri": "data:image/png;base64,"
    }
  ],
  "samplers": [
    {
      "magFilter": 9729,
      "minFilter": 9987,
      "wrapS": 10497,
      "wrapT": 10497
    }
  ],
  "accessors": [
    {
      "bufferView": 0,
      "componentType": 5126,
      "count": 5,
      "type": "MAT4"
    },
    {
      "bufferView": 1,
      "componentType": 5126,
      "count": 1316,
      "type": "VEC3",
      "min": [
        1.3701284816488624,
        0.4841761523857713,
        1.243171482346952
      ],
      "max": [
        4.720297856256366,
        3.9333780901506543,
        3.588824118487537
      ]
    },
    {
      "bufferView": 2,
      "componentType": 5126,
      "count": 1316,
      "type": "VEC2"
    },
    {
      "bufferView": 3,
      "componentType": 5123,
      "count": 1316,
      "type": "VEC4"
    },
    {
      "bufferView": 4,
      "componentType": 5126,
      "count": 1316,
      "type": "VEC4"
    },
    {
      "bufferView": 5,
      "componentType": 5123,
      "count": 2448,
      "type": "SCALAR"
    },
    {
      "bufferView": 6,
      "componentType": 5123,
      "count": 174,
      "type": "SCALAR"
    },
    {
      "bufferView": 7,
      "componentType": 5123,
      "count": 84,
      "type": "SCALAR"
    },
    {
      "bufferView": 8,
      "componentType": 5123,
      "count": 162,
      "type": "SCALAR"
    }
  ],
  "bufferViews": [
    {
      "buffer": 0,
      "byteOffset": 0,
      "byteLength": 320
    },
    {
      "buffer": 0,
      "byteOffset": 320,
      "byteLength": 15792,
      "target": 34962
    },
    {
      "buffer": 0,
      "byteOffset": 16112,
      "byteLength": 10528,
      "target": 34962
    },
    {
      "buffer": 0,
      "byteOffset": 26640,
      "byteLength": 10528,
      "target": 34962
    },
    {
      "buffer": 0,
      "byteOffset": 37168,
      "byteLength": 21056,
      "target": 34962
    },
    {
      "buffer": 0,
      "byteOffset": 58224,
      "byteLength": 4896,
      "target": 34963
    },
    {
      "buffer": 0,
      "byteOffset": 63120,
      "byteLength": 348,
      "target": 34963
    },
    {
      "buffer": 0,
      "byteOffset": 63468,
      "byteLength": 168,
      "target": 34963
    },
    {
      "buffer": 0,
      "byteOffset": 63636,
      "byteLength": 324,
      "target": 34963
    }
  ],
  "buffers": [
    {
      "byteLength": 63960,
      "uri": "scorpion_rwing_breakable.bin"
    }
  ]
}