{
  "asset": {
    "version": "2.0",
    "generator": "XBG to GLTF Converter with Textures"
  },
  "scene": 0,
  "scenes": [
    {
      "name": "Scene",
      "nodes": [
        8
      ]
    }
  ],
  "nodes": [
    {
      "name": "lldozer_Antenna_Breakable",
      "children": [
        1
      ]
    },
    {
      "name": "r_Antenna_Breakable_STATE",
      "rotation": [
        0.9999999999999684,
        -2.3999999143597204e-07,
        1.1470037561913874e-27,
        7.549790126403615e-08
      ],
      "children": [
        2,
        4,
        5
      ]
    },
    {
      "name": "_Antenna_Breakable_STATE1",
      "rotation": [
        -1.3234889800848446e-23,
        1.577721810442024e-30,
        5.293955920339415e-23,
        1.0
      ],
      "children": [
        3
      ]
    },
    {
      "name": "SwitchFX1",
      "translation": [
        0.012603759765625002,
        0.4572305083274842,
        2.726081371307373
      ],
      "rotation": [
        -1.3234889800848446e-23,
        1.577721810442024e-30,
        5.293955920339415e-23,
        1.0
      ]
    },
    {
      "name": "_Antenna_Breakable_STATE3",
      "rotation": [
        -1.3234889800848446e-23,
        1.577721810442024e-30,
        5.293955920339415e-23,
        1.0
      ]
    },
    {
      "name": "_Antenna_Breakable_STATE2",
      "rotation": [
        -1.3234889800848446e-23,
        1.577721810442024e-30,
        5.293955920339415e-23,
        1.0
      ],
      "children": [
        6
      ]
    },
    {
      "name": "SwitchFX2",
      "translation": [
        0.012603759765625002,
        0.4572305083274842,
        2.726081371307373
      ],
      "rotation": [
        -1.3234889800848446e-23,
        1.577721810442024e-30,
        5.293955920339415e-23,
        1.0
      ]
    },
    {
      "name": "MeshNode_LOD0",
      "mesh": 0,
      "skin": 0
    },
    {
      "name": "Correction_Root",
      "rotation": [
        -0.70710678,
        0.0,
        0.0,
        0.70710678
      ],
      "children": [
        0,
        7
      ]
    }
  ],
  "meshes": [
    {
      "name": "Mesh_LOD0",
      "primitives": [
        {
          "attributes": {
            "POSITION": 1,
            "JOINTS_0": 3,
            "WEIGHTS_0": 4,
            "TEXCOORD_0": 2
          },
          "indices": 5,
          "material": 0
        },
        {
          "attributes": {
            "POSITION": 1,
            "JOINTS_0": 3,
            "WEIGHTS_0": 4,
            "TEXCOORD_0": 2
          },
          "indices": 6,
          "material": 0
        },
        {
          "attributes": {
            "POSITION": 1,
            "JOINTS_0": 3,
            "WEIGHTS_0": 4,
            "TEXCOORD_0": 2
          },
          "indices": 7,
          "material": 0
        }
      ]
    }
  ],
  "skins": [
    {
      "inverseBindMatrices": 0,
      "joints": [
        0,
        1,
        2,
        3,
        4,
        5,
        6
      ],
      "name": "Armature",
      "skeleton": 0
    }
  ],
  "materials": [
    {
      "name": "GRAPHICS\\_MATERIALS\\DLAJEUNESSE-M-2009060253941267.xbm",
      "pbrMetallicRoughness": {
        "baseColorFactor": [
          1.0,
          1.0,
          1.0,
          1.0
        ],
        "metallicFactor": 0.0,
        "roughnessFactor": 1.0,
        "baseColorTexture": {
          "index": 0,
          "texCoord": 0
        }
      },
      "doubleSided": true
    }
  ],
  "textures": [
    {
      "sampler": 0,
      "source": 0
    }
  ],
  "images": [
    {
      "name": "bulldozer_part_d",
      "mimeType": "image/png",
      "uri": "data:image/png;base64,"
    }
  ],
  "samplers": [
    {
      "magFilter": 9729,
      "minFilter": 9987,
      "wrapS": 10497,
      "wrapT": 10497
    }
  ],
  "accessors": [
    {
      "bufferView": 0,
      "componentType": 5126,
      "count": 7,
      "type": "MAT4"
    },
    {
      "bufferView": 1,
      "componentType": 5126,
      "count": 3872,
      "type": "VEC3",
      "min": [
        -1.575121309608221,
        -0.5144199952483177,
        0.0028077028691768646
      ],
      "max": [
        1.607837151736021,
        1.5267799906432629,
        3.665517132729292
      ]
    },
    {
      "bufferView": 2,
      "componentType": 5126,
      "count": 3872,
      "type": "VEC2"
    },
    {
      "bufferView": 3,
      "componentType": 5123,
      "count": 3872,
      "type": "VEC4"
    },
    {
      "bufferView": 4,
      "componentType": 5126,
      "count": 3872,
      "type": "VEC4"
    },
    {
      "bufferView": 5,
      "componentType": 5123,
      "count": 2244,
      "type": "SCALAR"
    },
    {
      "bufferView": 6,
      "componentType": 5123,
      "count": 2748,
      "type": "SCALAR"
    },
    {
      "bufferView": 7,
      "componentType": 5123,
      "count": 2142,
      "type": "SCALAR"
    }
  ],
  "bufferViews": [
    {
      "buffer": 0,
      "byteOffset": 0,
      "byteLength": 448
    },
    {
      "buffer": 0,
      "byteOffset": 448,
      "byteLength": 46464,
      "target": 34962
    },
    {
      "buffer": 0,
      "byteOffset": 46912,
      "byteLength": 30976,
      "target": 34962
    },
    {
      "buffer": 0,
      "byteOffset": 77888,
      "byteLength": 30976,
      "target": 34962
    },
    {
      "buffer": 0,
      "byteOffset": 108864,
      "byteLength": 61952,
      "target": 34962
    },
    {
      "buffer": 0,
      "byteOffset": 170816,
      "byteLength": 4488,
      "target": 34963
    },
    {
      "buffer": 0,
      "byteOffset": 175304,
      "byteLength": 5496,
      "target": 34963
    },
    {
      "buffer": 0,
      "byteOffset": 180800,
      "byteLength": 4284,
      "target": 34963
    }
  ],
  "buffers": [
    {
      "byteLength": 185084,
      "uri": "bulldozer_antenna_breakable.bin"
    }
  ]
}