{
  "asset": {
    "version": "2.0",
    "generator": "XBG to GLTF Converter with Textures"
  },
  "scene": 0,
  "scenes": [
    {
      "name": "Scene",
      "nodes": [
        18
      ]
    }
  ],
  "nodes": [
    {
      "name": "WaterPump01",
      "children": [
        1
      ]
    },
    {
      "name": "StatePrim",
      "children": [
        2,
        9,
        10
      ]
    },
    {
      "name": "State02Prim",
      "children": [
        3,
        4,
        5,
        6,
        7,
        8
      ]
    },
    {
      "name": "FX_Leak301Big",
      "translation": [
        -0.14561019837856293,
        0.388772577047348,
        1.4419313669204712
      ],
      "rotation": [
        0.06863287814366438,
        0.0,
        0.0,
        0.997641983898892
      ]
    },
    {
      "name": "FX_Leak303",
      "translation": [
        -0.2311708778142929,
        0.4139300584793091,
        1.4534498453140259
      ],
      "rotation": [
        0.6532815067058613,
        -0.2705979632120047,
        -0.27059795921349433,
        0.6532815266984112
      ]
    },
    {
      "name": "FX_Leak304",
      "translation": [
        -0.21180769801139832,
        0.4861525297164917,
        1.4682258367538452
      ],
      "rotation": [
        -0.4999999552964971,
        0.500000074505776,
        0.5000001192092789,
        -0.4999998062848878
      ]
    },
    {
      "name": "FX_Leak305",
      "translation": [
        -0.0968058779835701,
        0.44579777121543884,
        1.4419313669204712
      ],
      "rotation": [
        0.6123723728684866,
        0.35355336981542634,
        0.3535533521429827,
        0.6123724851035929
      ]
    },
    {
      "name": "FX_Leak306",
      "translation": [
        0.00988479983061552,
        0.7696772813796997,
        0.8050459623336792
      ],
      "rotation": [
        -0.008289054971435079,
        0.4999771715648411,
        0.004785688132450016,
        0.8659856908002991
      ]
    },
    {
      "name": "FX_Leak308",
      "translation": [
        -0.12057968229055405,
        0.762954592704773,
        0.7334133982658386
      ],
      "rotation": [
        -0.010035621834444945,
        -0.6755276297349007,
        -0.009195952864346478,
        0.7372090220444685
      ]
    },
    {
      "name": "State03Prim"
    },
    {
      "name": "State01Prim",
      "children": [
        11,
        12,
        13,
        14,
        15,
        16
      ]
    },
    {
      "name": "FX_Leak206",
      "translation": [
        0.048940349370241165,
        0.7501509785652161,
        0.8345023989677429
      ],
      "rotation": [
        -0.01718921576619925,
        0.34196293202395156,
        -0.006256373105748649,
        0.9395353861230884
      ]
    },
    {
      "name": "FX_Leak205",
      "translation": [
        -0.11993194371461868,
        0.7501509785652161,
        0.8705025911331177
      ],
      "rotation": [
        -0.010683730237697668,
        -0.3826577065524284,
        -0.004425343587807343,
        0.9238178142135551
      ]
    },
    {
      "name": "FX_Leak204",
      "translation": [
        -0.016357120126485825,
        0.7501509785652161,
        0.9174784421920776
      ],
      "rotation": [
        -0.046080794645636455,
        0.0,
        0.0,
        0.9989377159587212
      ]
    },
    {
      "name": "FX_Leak203",
      "translation": [
        -0.07591193914413452,
        0.449246883392334,
        1.4642536640167236
      ],
      "rotation": [
        0.6123723728684866,
        0.35355336981542634,
        0.3535533521429827,
        0.6123724851035929
      ]
    },
    {
      "name": "FX_Leak202",
      "translation": [
        -0.2196582704782486,
        0.4382699728012085,
        1.4642536640167236
      ],
      "rotation": [
        0.6408564456319004,
        -0.2988361719983361,
        -0.2988361728289622,
        0.6408563816635964
      ]
    },
    {
      "name": "FX_Leak201",
      "translation": [
        -0.1399414837360382,
        0.4113290309906006,
        1.4642536640167236
      ],
      "rotation": [
        0.7538187493059548,
        -0.15347932239207987,
        -0.12746774787238208,
        0.626061803766294
      ]
    },
    {
      "name": "MeshNode_LOD0",
      "mesh": 0,
      "skin": 0
    },
    {
      "name": "Correction_Root",
      "rotation": [
        -0.70710678,
        0.0,
        0.0,
        0.70710678
      ],
      "children": [
        0,
        17
      ]
    }
  ],
  "meshes": [
    {
      "name": "Mesh_LOD0",
      "primitives": [
        {
          "attributes": {
            "POSITION": 1,
            "JOINTS_0": 3,
            "WEIGHTS_0": 4,
            "TEXCOORD_0": 2
          },
          "indices": 5,
          "material": 0
        },
        {
          "attributes": {
            "POSITION": 1,
            "JOINTS_0": 3,
            "WEIGHTS_0": 4,
            "TEXCOORD_0": 2
          },
          "indices": 6,
          "material": 1
        },
        {
          "attributes": {
            "POSITION": 1,
            "JOINTS_0": 3,
            "WEIGHTS_0": 4,
            "TEXCOORD_0": 2
          },
          "indices": 7,
          "material": 2
        },
        {
          "attributes": {
            "POSITION": 1,
            "JOINTS_0": 3,
            "WEIGHTS_0": 4,
            "TEXCOORD_0": 2
          },
          "indices": 8,
          "material": 0
        },
        {
          "attributes": {
            "POSITION": 1,
            "JOINTS_0": 3,
            "WEIGHTS_0": 4,
            "TEXCOORD_0": 2
          },
          "indices": 9,
          "material": 1
        },
        {
          "attributes": {
            "POSITION": 1,
            "JOINTS_0": 3,
            "WEIGHTS_0": 4,
            "TEXCOORD_0": 2
          },
          "indices": 10,
          "material": 2
        },
        {
          "attributes": {
            "POSITION": 1,
            "JOINTS_0": 3,
            "WEIGHTS_0": 4,
            "TEXCOORD_0": 2
          },
          "indices": 11,
          "material": 0
        },
        {
          "attributes": {
            "POSITION": 1,
            "JOINTS_0": 3,
            "WEIGHTS_0": 4,
            "TEXCOORD_0": 2
          },
          "indices": 12,
          "material": 1
        },
        {
          "attributes": {
            "POSITION": 1,
            "JOINTS_0": 3,
            "WEIGHTS_0": 4,
            "TEXCOORD_0": 2
          },
          "indices": 13,
          "material": 2
        }
      ]
    }
  ],
  "skins": [
    {
      "inverseBindMatrices": 0,
      "joints": [
        0,
        1,
        2,
        3,
        4,
        5,
        6,
        7,
        8,
        9,
        10,
        11,
        12,
        13,
        14,
        15,
        16
      ],
      "name": "Armature",
      "skeleton": 0
    }
  ],
  "materials": [
    {
      "name": "GRAPHICS\\_MATERIALS\\HLEVASSEUR-M-2008050528749127.xbm",
      "pbrMetallicRoughness": {
        "baseColorFactor": [
          1.0,
          1.0,
          1.0,
          1.0
        ],
        "metallicFactor": 0.0,
        "roughnessFactor": 1.0,
        "baseColorTexture": {
          "index": 0,
          "texCoord": 0
        }
      },
      "doubleSided": true
    },
    {
      "name": "GRAPHICS\\_MATERIALS\\JFCARRIER2-M-2204200839165154.xbm",
      "pbrMetallicRoughness": {
        "baseColorFactor": [
          1.0,
          1.0,
          1.0,
          1.0
        ],
        "metallicFactor": 0.0,
        "roughnessFactor": 1.0,
        "baseColorTexture": {
          "index": 1,
          "texCoord": 0
        }
      },
      "doubleSided": true
    },
    {
      "name": "GRAPHICS\\_MATERIALS\\JDUROCHER-M-2007110251806087.xbm",
      "pbrMetallicRoughness": {
        "baseColorFactor": [
          1.0,
          1.0,
          1.0,
          1.0
        ],
        "metallicFactor": 0.0,
        "roughnessFactor": 1.0,
        "baseColorTexture": {
          "index": 2,
          "texCoord": 0
        }
      },
      "doubleSided": true
    }
  ],
  "textures": [
    {
      "sampler": 0,
      "source": 0
    },
    {
      "sampler": 0,
      "source": 1
    },
    {
      "sampler": 0,
      "source": 2
    }
  ],
  "images": [
    {
      "name": "metalwhitetank_d",
      "mimeType": "image/png",
      "uri": "data:image/png;base64,"
    },
    {
      "name": "dirtrust_05_d",
      "mimeType": "image/png",
      "uri": "data:image/png;base64,"
    },
    {
      "name": "metalburned_02_d",
      "mimeType": "image/png",
      "uri": "data:image/png;base64,"
    }
  ],
  "samplers": [
    {
      "magFilter": 9729,
      "minFilter": 9987,
      "wrapS": 10497,
      "wrapT": 10497
    }
  ],
  "accessors": [
    {
      "bufferView": 0,
      "componentType": 5126,
      "count": 17,
      "type": "MAT4"
    },
    {
      "bufferView": 1,
      "componentType": 5126,
      "count": 20651,
      "type": "VEC3",
      "min": [
        -0.652790917083621,
        -1.2504654061049223,
        -0.009796441532671452
      ],
      "max": [
        0.6120487069711089,
        1.4625995652750134,
        2.7201147470623255
      ]
    },
    {
      "bufferView": 2,
      "componentType": 5126,
      "count": 20651,
      "type": "VEC2"
    },
    {
      "bufferView": 3,
      "componentType": 5123,
      "count": 20651,
      "type": "VEC4"
    },
    {
      "bufferView": 4,
      "componentType": 5126,
      "count": 20651,
      "type": "VEC4"
    },
    {
      "bufferView": 5,
      "componentType": 5123,
      "count": 14751,
      "type": "SCALAR"
    },
    {
      "bufferView": 6,
      "componentType": 5123,
      "count": 2325,
      "type": "SCALAR"
    },
    {
      "bufferView": 7,
      "componentType": 5123,
      "count": 504,
      "type": "SCALAR"
    },
    {
      "bufferView": 8,
      "componentType": 5123,
      "count": 15111,
      "type": "SCALAR"
    },
    {
      "bufferView": 9,
      "componentType": 5123,
      "count": 2421,
      "type": "SCALAR"
    },
    {
      "bufferView": 10,
      "componentType": 5123,
      "count": 504,
      "type": "SCALAR"
    },
    {
      "bufferView": 11,
      "componentType": 5123,
      "count": 13782,
      "type": "SCALAR"
    },
    {
      "bufferView": 12,
      "componentType": 5123,
      "count": 2325,
      "type": "SCALAR"
    },
    {
      "bufferView": 13,
      "componentType": 5123,
      "count": 468,
      "type": "SCALAR"
    }
  ],
  "bufferViews": [
    {
      "buffer": 0,
      "byteOffset": 0,
      "byteLength": 1088
    },
    {
      "buffer": 0,
      "byteOffset": 1088,
      "byteLength": 247812,
      "target": 34962
    },
    {
      "buffer": 0,
      "byteOffset": 248900,
      "byteLength": 165208,
      "target": 34962
    },
    {
      "buffer": 0,
      "byteOffset": 414108,
      "byteLength": 165208,
      "target": 34962
    },
    {
      "buffer": 0,
      "byteOffset": 579316,
      "byteLength": 330416,
      "target": 34962
    },
    {
      "buffer": 0,
      "byteOffset": 909732,
      "byteLength": 29502,
      "target": 34963
    },
    {
      "buffer": 0,
      "byteOffset": 939234,
      "byteLength": 4650,
      "target": 34963
    },
    {
      "buffer": 0,
      "byteOffset": 943884,
      "byteLength": 1008,
      "target": 34963
    },
    {
      "buffer": 0,
      "byteOffset": 944892,
      "byteLength": 30222,
      "target": 34963
    },
    {
      "buffer": 0,
      "byteOffset": 975114,
      "byteLength": 4842,
      "target": 34963
    },
    {
      "buffer": 0,
      "byteOffset": 979956,
      "byteLength": 1008,
      "target": 34963
    },
    {
      "buffer": 0,
      "byteOffset": 980964,
      "byteLength": 27564,
      "target": 34963
    },
    {
      "buffer": 0,
      "byteOffset": 1008528,
      "byteLength": 4650,
      "target": 34963
    },
    {
      "buffer": 0,
      "byteOffset": 1013178,
      "byteLength": 936,
      "target": 34963
    }
  ],
  "buffers": [
    {
      "byteLength": 1014114,
      "uri": "waterpump01.bin"
    }
  ]
}