{
  "asset": {
    "version": "2.0",
    "generator": "XBG to GLTF Converter with Textures"
  },
  "scene": 0,
  "scenes": [
    {
      "name": "Scene",
      "nodes": [
        7
      ]
    }
  ],
  "nodes": [
    {
      "name": "M30_04",
      "children": [
        1,
        2,
        3,
        4,
        5
      ]
    },
    {
      "name": "M30_FX_FIRE",
      "translation": [
        1.3454630374908447,
        0.017435209825634956,
        0.17512281239032745
      ],
      "rotation": [
        0.008716623968709406,
        0.006158058112640737,
        -0.7094363571003084,
        0.7046886929723235
      ]
    },
    {
      "name": "M30_FRAME",
      "translation": [
        -0.35052797198295593,
        0.025376690551638603,
        -0.11072511225938797
      ],
      "rotation": [
        0.010518385299709372,
        -0.001809315557942854,
        -0.003430900229956265,
        0.9999371574611632
      ]
    },
    {
      "name": "M30_CLIP",
      "translation": [
        0.2456986904144287,
        -0.1325313299894333,
        0.09591194242238998
      ]
    },
    {
      "name": "M30_FX_CASING",
      "translation": [
        0.16752831637859344,
        -0.12195900827646255,
        0.24436348676681519
      ],
      "rotation": [
        0.961824248338932,
        -0.003803276508499395,
        0.0007614535709369702,
        0.2736404037847987
      ]
    },
    {
      "name": "Rope_Bone",
      "translation": [
        0.1400732845067978,
        0.025242099538445473,
        0.20831765234470367
      ]
    },
    {
      "name": "MeshNode_LOD0",
      "mesh": 0,
      "skin": 0
    },
    {
      "name": "Correction_Root",
      "rotation": [
        -0.70710678,
        0.0,
        0.0,
        0.70710678
      ],
      "children": [
        0,
        6
      ]
    }
  ],
  "meshes": [
    {
      "name": "Mesh_LOD0",
      "primitives": [
        {
          "attributes": {
            "POSITION": 1,
            "JOINTS_0": 3,
            "WEIGHTS_0": 4,
            "TEXCOORD_0": 2
          },
          "indices": 5,
          "material": 0
        },
        {
          "attributes": {
            "POSITION": 1,
            "JOINTS_0": 3,
            "WEIGHTS_0": 4,
            "TEXCOORD_0": 2
          },
          "indices": 6,
          "material": 0
        }
      ]
    }
  ],
  "skins": [
    {
      "inverseBindMatrices": 0,
      "joints": [
        0,
        1,
        2,
        3,
        4,
        5
      ],
      "name": "Armature",
      "skeleton": 0
    }
  ],
  "materials": [
    {
      "name": "GRAPHICS\\_MATERIALS\\SGAGNON-M-2009030446867326.xbm",
      "pbrMetallicRoughness": {
        "baseColorFactor": [
          1.0,
          1.0,
          1.0,
          1.0
        ],
        "metallicFactor": 0.0,
        "roughnessFactor": 1.0,
        "baseColorTexture": {
          "index": 0,
          "texCoord": 0
        }
      },
      "doubleSided": true
    }
  ],
  "textures": [
    {
      "sampler": 0,
      "source": 0
    }
  ],
  "images": [
    {
      "name": "m60_3rd_04_d",
      "mimeType": "image/png",
      "uri": "data:image/png;base64,"
    }
  ],
  "samplers": [
    {
      "magFilter": 9729,
      "minFilter": 9987,
      "wrapS": 10497,
      "wrapT": 10497
    }
  ],
  "accessors": [
    {
      "bufferView": 0,
      "componentType": 5126,
      "count": 6,
      "type": "MAT4"
    },
    {
      "bufferView": 1,
      "componentType": 5126,
      "count": 1834,
      "type": "VEC3",
      "min": [
        -0.0952177494764328,
        -0.22882778383791447,
        -0.0908841211348772
      ],
      "max": [
        1.7459639254957438,
        0.10498367249965668,
        0.45753349363803864
      ]
    },
    {
      "bufferView": 2,
      "componentType": 5126,
      "count": 1834,
      "type": "VEC2"
    },
    {
      "bufferView": 3,
      "componentType": 5123,
      "count": 1834,
      "type": "VEC4"
    },
    {
      "bufferView": 4,
      "componentType": 5126,
      "count": 1834,
      "type": "VEC4"
    },
    {
      "bufferView": 5,
      "componentType": 5123,
      "count": 4305,
      "type": "SCALAR"
    },
    {
      "bufferView": 6,
      "componentType": 5123,
      "count": 156,
      "type": "SCALAR"
    }
  ],
  "bufferViews": [
    {
      "buffer": 0,
      "byteOffset": 0,
      "byteLength": 384
    },
    {
      "buffer": 0,
      "byteOffset": 384,
      "byteLength": 22008,
      "target": 34962
    },
    {
      "buffer": 0,
      "byteOffset": 22392,
      "byteLength": 14672,
      "target": 34962
    },
    {
      "buffer": 0,
      "byteOffset": 37064,
      "byteLength": 14672,
      "target": 34962
    },
    {
      "buffer": 0,
      "byteOffset": 51736,
      "byteLength": 29344,
      "target": 34962
    },
    {
      "buffer": 0,
      "byteOffset": 81080,
      "byteLength": 8610,
      "target": 34963
    },
    {
      "buffer": 0,
      "byteOffset": 89690,
      "byteLength": 312,
      "target": 34963
    }
  ],
  "buffers": [
    {
      "byteLength": 90002,
      "uri": "m30_04.bin"
    }
  ]
}