{
  "asset": {
    "version": "2.0",
    "generator": "XBG to GLTF Converter with Textures"
  },
  "scene": 0,
  "scenes": [
    {
      "name": "Scene",
      "nodes": [
        9
      ]
    }
  ],
  "nodes": [
    {
      "name": "Base_LockedAnimatedDoor",
      "children": [
        1
      ]
    },
    {
      "name": "Base_AnimatedDoor_State",
      "children": [
        2,
        3,
        4,
        5,
        6,
        7
      ]
    },
    {
      "name": "ocket_AnimatedDoor_State2",
      "translation": [
        0.0,
        0.0,
        1.2902238368988037
      ]
    },
    {
      "name": "ocket_AnimatedDoor_State1",
      "translation": [
        -9.99999993922529e-09,
        0.032963428646326065,
        1.2902238368988037
      ]
    },
    {
      "name": "Base_AnimatedDoor_State1"
    },
    {
      "name": "Base_AnimatedDoor_State2"
    },
    {
      "name": "ocket_AnimatedDoor_State3",
      "translation": [
        0.0,
        0.0,
        1.2902238368988037
      ]
    },
    {
      "name": "Base_AnimatedDoor_State3"
    },
    {
      "name": "MeshNode_LOD0",
      "mesh": 0,
      "skin": 0
    },
    {
      "name": "Correction_Root",
      "rotation": [
        -0.70710678,
        0.0,
        0.0,
        0.70710678
      ],
      "children": [
        0,
        8
      ]
    }
  ],
  "meshes": [
    {
      "name": "Mesh_LOD0",
      "primitives": [
        {
          "attributes": {
            "POSITION": 1,
            "JOINTS_0": 3,
            "WEIGHTS_0": 4,
            "TEXCOORD_0": 2
          },
          "indices": 5,
          "material": 1
        },
        {
          "attributes": {
            "POSITION": 1,
            "JOINTS_0": 3,
            "WEIGHTS_0": 4,
            "TEXCOORD_0": 2
          },
          "indices": 6,
          "material": 1
        },
        {
          "attributes": {
            "POSITION": 1,
            "JOINTS_0": 3,
            "WEIGHTS_0": 4,
            "TEXCOORD_0": 2
          },
          "indices": 7,
          "material": 0
        },
        {
          "attributes": {
            "POSITION": 1,
            "JOINTS_0": 3,
            "WEIGHTS_0": 4,
            "TEXCOORD_0": 2
          },
          "indices": 8,
          "material": 1
        },
        {
          "attributes": {
            "POSITION": 1,
            "JOINTS_0": 3,
            "WEIGHTS_0": 4,
            "TEXCOORD_0": 2
          },
          "indices": 9,
          "material": 0
        },
        {
          "attributes": {
            "POSITION": 1,
            "JOINTS_0": 3,
            "WEIGHTS_0": 4,
            "TEXCOORD_0": 2
          },
          "indices": 10,
          "material": 1
        },
        {
          "attributes": {
            "POSITION": 1,
            "JOINTS_0": 3,
            "WEIGHTS_0": 4,
            "TEXCOORD_0": 2
          },
          "indices": 11,
          "material": 1
        },
        {
          "attributes": {
            "POSITION": 1,
            "JOINTS_0": 3,
            "WEIGHTS_0": 4,
            "TEXCOORD_0": 2
          },
          "indices": 12,
          "material": 0
        },
        {
          "attributes": {
            "POSITION": 1,
            "JOINTS_0": 3,
            "WEIGHTS_0": 4,
            "TEXCOORD_0": 2
          },
          "indices": 13,
          "material": 1
        }
      ]
    }
  ],
  "skins": [
    {
      "inverseBindMatrices": 0,
      "joints": [
        0,
        1,
        2,
        3,
        4,
        5,
        6,
        7
      ],
      "name": "Armature",
      "skeleton": 0
    }
  ],
  "materials": [
    {
      "name": "GRAPHICS\\_MATERIALS\\HLEVASSEUR-M-2008032140141086.xbm",
      "pbrMetallicRoughness": {
        "baseColorFactor": [
          1.0,
          1.0,
          1.0,
          1.0
        ],
        "metallicFactor": 0.0,
        "roughnessFactor": 1.0,
        "baseColorTexture": {
          "index": 0,
          "texCoord": 0
        }
      },
      "doubleSided": true
    },
    {
      "name": "GRAPHICS\\_MATERIALS\\HLEVASSEUR-M-2008031945272070.xbm",
      "pbrMetallicRoughness": {
        "baseColorFactor": [
          1.0,
          1.0,
          1.0,
          1.0
        ],
        "metallicFactor": 0.0,
        "roughnessFactor": 1.0,
        "baseColorTexture": {
          "index": 1,
          "texCoord": 0
        }
      },
      "doubleSided": true
    }
  ],
  "textures": [
    {
      "sampler": 0,
      "source": 0
    },
    {
      "sampler": 0,
      "source": 1
    }
  ],
  "images": [
    {
      "name": "clay_01_d",
      "mimeType": "image/png",
      "uri": "data:image/png;base64,"
    },
    {
      "name": "dirtrust_02_d",
      "mimeType": "image/png",
      "uri": "data:image/png;base64,"
    }
  ],
  "samplers": [
    {
      "magFilter": 9729,
      "minFilter": 9987,
      "wrapS": 10497,
      "wrapT": 10497
    }
  ],
  "accessors": [
    {
      "bufferView": 0,
      "componentType": 5126,
      "count": 8,
      "type": "MAT4"
    },
    {
      "bufferView": 1,
      "componentType": 5126,
      "count": 5262,
      "type": "VEC3",
      "min": [
        -1.5159764382988214,
        -0.08899197354912758,
        -0.017944883555173874
      ],
      "max": [
        0.15060884412378073,
        1.515793327242136,
        2.182866906747222
      ]
    },
    {
      "bufferView": 2,
      "componentType": 5126,
      "count": 5262,
      "type": "VEC2"
    },
    {
      "bufferView": 3,
      "componentType": 5123,
      "count": 5262,
      "type": "VEC4"
    },
    {
      "bufferView": 4,
      "componentType": 5126,
      "count": 5262,
      "type": "VEC4"
    },
    {
      "bufferView": 5,
      "componentType": 5123,
      "count": 378,
      "type": "SCALAR"
    },
    {
      "bufferView": 6,
      "componentType": 5123,
      "count": 378,
      "type": "SCALAR"
    },
    {
      "bufferView": 7,
      "componentType": 5123,
      "count": 1566,
      "type": "SCALAR"
    },
    {
      "bufferView": 8,
      "componentType": 5123,
      "count": 3216,
      "type": "SCALAR"
    },
    {
      "bufferView": 9,
      "componentType": 5123,
      "count": 1566,
      "type": "SCALAR"
    },
    {
      "bufferView": 10,
      "componentType": 5123,
      "count": 3216,
      "type": "SCALAR"
    },
    {
      "bufferView": 11,
      "componentType": 5123,
      "count": 378,
      "type": "SCALAR"
    },
    {
      "bufferView": 12,
      "componentType": 5123,
      "count": 1566,
      "type": "SCALAR"
    },
    {
      "bufferView": 13,
      "componentType": 5123,
      "count": 3216,
      "type": "SCALAR"
    }
  ],
  "bufferViews": [
    {
      "buffer": 0,
      "byteOffset": 0,
      "byteLength": 512
    },
    {
      "buffer": 0,
      "byteOffset": 512,
      "byteLength": 63144,
      "target": 34962
    },
    {
      "buffer": 0,
      "byteOffset": 63656,
      "byteLength": 42096,
      "target": 34962
    },
    {
      "buffer": 0,
      "byteOffset": 105752,
      "byteLength": 42096,
      "target": 34962
    },
    {
      "buffer": 0,
      "byteOffset": 147848,
      "byteLength": 84192,
      "target": 34962
    },
    {
      "buffer": 0,
      "byteOffset": 232040,
      "byteLength": 756,
      "target": 34963
    },
    {
      "buffer": 0,
      "byteOffset": 232796,
      "byteLength": 756,
      "target": 34963
    },
    {
      "buffer": 0,
      "byteOffset": 233552,
      "byteLength": 3132,
      "target": 34963
    },
    {
      "buffer": 0,
      "byteOffset": 236684,
      "byteLength": 6432,
      "target": 34963
    },
    {
      "buffer": 0,
      "byteOffset": 243116,
      "byteLength": 3132,
      "target": 34963
    },
    {
      "buffer": 0,
      "byteOffset": 246248,
      "byteLength": 6432,
      "target": 34963
    },
    {
      "buffer": 0,
      "byteOffset": 252680,
      "byteLength": 756,
      "target": 34963
    },
    {
      "buffer": 0,
      "byteOffset": 253436,
      "byteLength": 3132,
      "target": 34963
    },
    {
      "buffer": 0,
      "byteOffset": 256568,
      "byteLength": 6432,
      "target": 34963
    }
  ],
  "buffers": [
    {
      "byteLength": 263000,
      "uri": "base_lockedanimateddoor.bin"
    }
  ]
}