{
  "asset": {
    "version": "2.0",
    "generator": "XBG to GLTF Converter with Textures"
  },
  "scene": 0,
  "scenes": [
    {
      "name": "Scene",
      "nodes": [
        3
      ]
    }
  ],
  "nodes": [
    {
      "name": "Axe_08",
      "children": [
        1
      ]
    },
    {
      "name": "Axe_Frame",
      "translation": [
        0.3434712886810303,
        -0.3472149968147278,
        -0.5351371765136719
      ],
      "rotation": [
        -0.3211326895884889,
        -0.15478627376712747,
        0.2527454196263725,
        0.8994635945737124
      ]
    },
    {
      "name": "MeshNode_LOD0",
      "mesh": 0,
      "skin": 0
    },
    {
      "name": "Correction_Root",
      "rotation": [
        -0.70710678,
        0.0,
        0.0,
        0.70710678
      ],
      "children": [
        0,
        2
      ]
    }
  ],
  "meshes": [
    {
      "name": "Mesh_LOD0",
      "primitives": [
        {
          "attributes": {
            "POSITION": 1,
            "JOINTS_0": 3,
            "WEIGHTS_0": 4,
            "TEXCOORD_0": 2
          },
          "indices": 5,
          "material": 0
        }
      ]
    }
  ],
  "skins": [
    {
      "inverseBindMatrices": 0,
      "joints": [
        0,
        1
      ],
      "name": "Armature",
      "skeleton": 0
    }
  ],
  "materials": [
    {
      "name": "GRAPHICS\\_MATERIALS\\SGAGNON-M-2009050847317372.xbm",
      "pbrMetallicRoughness": {
        "baseColorFactor": [
          1.0,
          1.0,
          1.0,
          1.0
        ],
        "metallicFactor": 0.0,
        "roughnessFactor": 1.0,
        "baseColorTexture": {
          "index": 0,
          "texCoord": 0
        }
      },
      "doubleSided": true
    }
  ],
  "textures": [
    {
      "sampler": 0,
      "source": 0
    }
  ],
  "images": [
    {
      "name": "axe_3rd_08_d",
      "mimeType": "image/png",
      "uri": "data:image/png;base64,"
    }
  ],
  "samplers": [
    {
      "magFilter": 9729,
      "minFilter": 9987,
      "wrapS": 10497,
      "wrapT": 10497
    }
  ],
  "accessors": [
    {
      "bufferView": 0,
      "componentType": 5126,
      "count": 2,
      "type": "MAT4"
    },
    {
      "bufferView": 1,
      "componentType": 5126,
      "count": 719,
      "type": "VEC3",
      "min": [
        -0.7438886677846313,
        -0.3727225558832288,
        -0.20746482722461224
      ],
      "max": [
        0.0633564256131649,
        0.41145054437220097,
        2.451765493489802
      ]
    },
    {
      "bufferView": 2,
      "componentType": 5126,
      "count": 719,
      "type": "VEC2"
    },
    {
      "bufferView": 3,
      "componentType": 5123,
      "count": 719,
      "type": "VEC4"
    },
    {
      "bufferView": 4,
      "componentType": 5126,
      "count": 719,
      "type": "VEC4"
    },
    {
      "bufferView": 5,
      "componentType": 5123,
      "count": 2472,
      "type": "SCALAR"
    }
  ],
  "bufferViews": [
    {
      "buffer": 0,
      "byteOffset": 0,
      "byteLength": 128
    },
    {
      "buffer": 0,
      "byteOffset": 128,
      "byteLength": 8628,
      "target": 34962
    },
    {
      "buffer": 0,
      "byteOffset": 8756,
      "byteLength": 5752,
      "target": 34962
    },
    {
      "buffer": 0,
      "byteOffset": 14508,
      "byteLength": 5752,
      "target": 34962
    },
    {
      "buffer": 0,
      "byteOffset": 20260,
      "byteLength": 11504,
      "target": 34962
    },
    {
      "buffer": 0,
      "byteOffset": 31764,
      "byteLength": 4944,
      "target": 34963
    }
  ],
  "buffers": [
    {
      "byteLength": 36708,
      "uri": "axe_08.bin"
    }
  ]
}