{
  "asset": {
    "version": "2.0",
    "generator": "XBG to GLTF Converter with Textures"
  },
  "scene": 0,
  "scenes": [
    {
      "name": "Scene",
      "nodes": [
        8
      ]
    }
  ],
  "nodes": [
    {
      "name": "Bbq01",
      "children": [
        1
      ]
    },
    {
      "name": "Bbq01_States",
      "translation": [
        0.5488861203193665,
        -0.12855418026447296,
        0.0
      ],
      "children": [
        2,
        3,
        5
      ]
    },
    {
      "name": "Bbq01_State02_A",
      "translation": [
        -0.5488861203193665,
        0.0,
        0.0
      ]
    },
    {
      "name": "Bbq01_State01",
      "translation": [
        -0.5488861203193665,
        0.0,
        0.0
      ],
      "children": [
        4
      ]
    },
    {
      "name": "Bbq01_FX1",
      "translation": [
        0.0,
        -9.99999993922529e-09,
        0.907164454460144
      ]
    },
    {
      "name": "Bbq01_State02_B",
      "translation": [
        -0.5488861203193665,
        0.0,
        0.0
      ],
      "children": [
        6
      ]
    },
    {
      "name": "Bbq01_FX2",
      "translation": [
        0.0,
        -9.99999993922529e-09,
        0.907164454460144
      ]
    },
    {
      "name": "MeshNode_LOD0",
      "mesh": 0,
      "skin": 0
    },
    {
      "name": "Correction_Root",
      "rotation": [
        -0.70710678,
        0.0,
        0.0,
        0.70710678
      ],
      "children": [
        0,
        7
      ]
    }
  ],
  "meshes": [
    {
      "name": "Mesh_LOD0",
      "primitives": [
        {
          "attributes": {
            "POSITION": 1,
            "JOINTS_0": 3,
            "WEIGHTS_0": 4,
            "TEXCOORD_0": 2
          },
          "indices": 5,
          "material": 1
        },
        {
          "attributes": {
            "POSITION": 1,
            "JOINTS_0": 3,
            "WEIGHTS_0": 4,
            "TEXCOORD_0": 2
          },
          "indices": 6,
          "material": 0
        },
        {
          "attributes": {
            "POSITION": 1,
            "JOINTS_0": 3,
            "WEIGHTS_0": 4,
            "TEXCOORD_0": 2
          },
          "indices": 7,
          "material": 1
        },
        {
          "attributes": {
            "POSITION": 1,
            "JOINTS_0": 3,
            "WEIGHTS_0": 4,
            "TEXCOORD_0": 2
          },
          "indices": 8,
          "material": 0
        },
        {
          "attributes": {
            "POSITION": 1,
            "JOINTS_0": 3,
            "WEIGHTS_0": 4,
            "TEXCOORD_0": 2
          },
          "indices": 9,
          "material": 1
        }
      ]
    }
  ],
  "skins": [
    {
      "inverseBindMatrices": 0,
      "joints": [
        0,
        1,
        2,
        3,
        4,
        5,
        6
      ],
      "name": "Armature",
      "skeleton": 0
    }
  ],
  "materials": [
    {
      "name": "GRAPHICS\\_MATERIALS\\HLEVASSEUR-M-2007081341775931.xbm",
      "pbrMetallicRoughness": {
        "baseColorFactor": [
          1.0,
          1.0,
          1.0,
          1.0
        ],
        "metallicFactor": 0.0,
        "roughnessFactor": 1.0,
        "baseColorTexture": {
          "index": 0,
          "texCoord": 0
        }
      },
      "doubleSided": true
    },
    {
      "name": "GRAPHICS\\_MATERIALS\\HLEVASSEUR-M-2007081650406716.xbm",
      "pbrMetallicRoughness": {
        "baseColorFactor": [
          1.0,
          1.0,
          1.0,
          1.0
        ],
        "metallicFactor": 0.0,
        "roughnessFactor": 1.0,
        "baseColorTexture": {
          "index": 1,
          "texCoord": 0
        }
      },
      "doubleSided": true
    },
    {
      "name": "GRAPHICS\\_MATERIALS\\TRODRIGUE-M-2007030160268765.xbm",
      "pbrMetallicRoughness": {
        "baseColorFactor": [
          1.0,
          1.0,
          1.0,
          1.0
        ],
        "metallicFactor": 0.0,
        "roughnessFactor": 1.0,
        "baseColorTexture": {
          "index": 2,
          "texCoord": 0
        }
      },
      "doubleSided": true
    }
  ],
  "textures": [
    {
      "sampler": 0,
      "source": 0
    },
    {
      "sampler": 0,
      "source": 1
    },
    {
      "sampler": 0,
      "source": 2
    }
  ],
  "images": [
    {
      "name": "dirtrust_03_d",
      "mimeType": "image/png",
      "uri": "data:image/png;base64,"
    },
    {
      "name": "metalburned_01_d",
      "mimeType": "image/png",
      "uri": "data:image/png;base64,"
    },
    {
      "name": "dirtfloor01_d",
      "mimeType": "image/png",
      "uri": "data:image/png;base64,"
    }
  ],
  "samplers": [
    {
      "magFilter": 9729,
      "minFilter": 9987,
      "wrapS": 10497,
      "wrapT": 10497
    }
  ],
  "accessors": [
    {
      "bufferView": 0,
      "componentType": 5126,
      "count": 7,
      "type": "MAT4"
    },
    {
      "bufferView": 1,
      "componentType": 5126,
      "count": 2980,
      "type": "VEC3",
      "min": [
        -0.3989379554986954,
        -0.735007781535387,
        -0.01733451336622238
      ],
      "max": [
        0.40449232421815395,
        0.7536851093173027,
        1.1868648324161768
      ]
    },
    {
      "bufferView": 2,
      "componentType": 5126,
      "count": 2980,
      "type": "VEC2"
    },
    {
      "bufferView": 3,
      "componentType": 5123,
      "count": 2980,
      "type": "VEC4"
    },
    {
      "bufferView": 4,
      "componentType": 5126,
      "count": 2980,
      "type": "VEC4"
    },
    {
      "bufferView": 5,
      "componentType": 5123,
      "count": 1782,
      "type": "SCALAR"
    },
    {
      "bufferView": 6,
      "componentType": 5123,
      "count": 2070,
      "type": "SCALAR"
    },
    {
      "bufferView": 7,
      "componentType": 5123,
      "count": 2070,
      "type": "SCALAR"
    },
    {
      "bufferView": 8,
      "componentType": 5123,
      "count": 2070,
      "type": "SCALAR"
    },
    {
      "bufferView": 9,
      "componentType": 5123,
      "count": 324,
      "type": "SCALAR"
    }
  ],
  "bufferViews": [
    {
      "buffer": 0,
      "byteOffset": 0,
      "byteLength": 448
    },
    {
      "buffer": 0,
      "byteOffset": 448,
      "byteLength": 35760,
      "target": 34962
    },
    {
      "buffer": 0,
      "byteOffset": 36208,
      "byteLength": 23840,
      "target": 34962
    },
    {
      "buffer": 0,
      "byteOffset": 60048,
      "byteLength": 23840,
      "target": 34962
    },
    {
      "buffer": 0,
      "byteOffset": 83888,
      "byteLength": 47680,
      "target": 34962
    },
    {
      "buffer": 0,
      "byteOffset": 131568,
      "byteLength": 3564,
      "target": 34963
    },
    {
      "buffer": 0,
      "byteOffset": 135132,
      "byteLength": 4140,
      "target": 34963
    },
    {
      "buffer": 0,
      "byteOffset": 139272,
      "byteLength": 4140,
      "target": 34963
    },
    {
      "buffer": 0,
      "byteOffset": 143412,
      "byteLength": 4140,
      "target": 34963
    },
    {
      "buffer": 0,
      "byteOffset": 147552,
      "byteLength": 648,
      "target": 34963
    }
  ],
  "buffers": [
    {
      "byteLength": 148200,
      "uri": "bbq01.bin"
    }
  ]
}