{
  "asset": {
    "version": "2.0",
    "generator": "XBG to GLTF Converter with Textures"
  },
  "scene": 0,
  "scenes": [
    {
      "name": "Scene",
      "nodes": [
        5
      ]
    }
  ],
  "nodes": [
    {
      "name": "CookingFire2Bowls01",
      "children": [
        1,
        2,
        3
      ]
    },
    {
      "name": "Pot03",
      "translation": [
        0.0030846400186419487,
        0.202788308262825,
        0.35339629650115967
      ]
    },
    {
      "name": "Pot05",
      "translation": [
        0.0030846400186419487,
        -0.18491019308567047,
        0.35706403851509094
      ]
    },
    {
      "name": "StaticPrim",
      "translation": [
        0.006064679939299822,
        0.10014290362596512,
        0.011719070374965668
      ]
    },
    {
      "name": "MeshNode_LOD0",
      "mesh": 0,
      "skin": 0
    },
    {
      "name": "Correction_Root",
      "rotation": [
        -0.70710678,
        0.0,
        0.0,
        0.70710678
      ],
      "children": [
        0,
        4
      ]
    }
  ],
  "meshes": [
    {
      "name": "Mesh_LOD0",
      "primitives": [
        {
          "attributes": {
            "POSITION": 1,
            "JOINTS_0": 3,
            "WEIGHTS_0": 4,
            "TEXCOORD_0": 2
          },
          "indices": 5,
          "material": 0
        },
        {
          "attributes": {
            "POSITION": 1,
            "JOINTS_0": 3,
            "WEIGHTS_0": 4,
            "TEXCOORD_0": 2
          },
          "indices": 6,
          "material": 0
        },
        {
          "attributes": {
            "POSITION": 1,
            "JOINTS_0": 3,
            "WEIGHTS_0": 4,
            "TEXCOORD_0": 2
          },
          "indices": 7,
          "material": 1
        }
      ]
    }
  ],
  "skins": [
    {
      "inverseBindMatrices": 0,
      "joints": [
        0,
        1,
        2,
        3
      ],
      "name": "Armature",
      "skeleton": 0
    }
  ],
  "materials": [
    {
      "name": "GRAPHICS\\_MATERIALS\\SLABRECHE-M-2008032550640470.xbm",
      "pbrMetallicRoughness": {
        "baseColorFactor": [
          1.0,
          1.0,
          1.0,
          1.0
        ],
        "metallicFactor": 0.0,
        "roughnessFactor": 1.0,
        "baseColorTexture": {
          "index": 0,
          "texCoord": 0
        }
      },
      "doubleSided": true
    },
    {
      "name": "GRAPHICS\\_MATERIALS\\HLEVASSEUR-M-2007081650406716.xbm",
      "pbrMetallicRoughness": {
        "baseColorFactor": [
          1.0,
          1.0,
          1.0,
          1.0
        ],
        "metallicFactor": 0.0,
        "roughnessFactor": 1.0,
        "baseColorTexture": {
          "index": 1,
          "texCoord": 0
        }
      },
      "doubleSided": true
    }
  ],
  "textures": [
    {
      "sampler": 0,
      "source": 0
    },
    {
      "sampler": 0,
      "source": 1
    }
  ],
  "images": [
    {
      "name": "metalbrushed_d",
      "mimeType": "image/png",
      "uri": "data:image/png;base64,"
    },
    {
      "name": "metalburned_01_d",
      "mimeType": "image/png",
      "uri": "data:image/png;base64,"
    }
  ],
  "samplers": [
    {
      "magFilter": 9729,
      "minFilter": 9987,
      "wrapS": 10497,
      "wrapT": 10497
    }
  ],
  "accessors": [
    {
      "bufferView": 0,
      "componentType": 5126,
      "count": 4,
      "type": "MAT4"
    },
    {
      "bufferView": 1,
      "componentType": 5126,
      "count": 1725,
      "type": "VEC3",
      "min": [
        -0.17911313194781542,
        -0.5205542156472802,
        -0.0555436871945858
      ],
      "max": [
        0.24301889073103666,
        0.32776879146695137,
        0.35196996945887804
      ]
    },
    {
      "bufferView": 2,
      "componentType": 5126,
      "count": 1725,
      "type": "VEC2"
    },
    {
      "bufferView": 3,
      "componentType": 5123,
      "count": 1725,
      "type": "VEC4"
    },
    {
      "bufferView": 4,
      "componentType": 5126,
      "count": 1725,
      "type": "VEC4"
    },
    {
      "bufferView": 5,
      "componentType": 5123,
      "count": 2100,
      "type": "SCALAR"
    },
    {
      "bufferView": 6,
      "componentType": 5123,
      "count": 2376,
      "type": "SCALAR"
    },
    {
      "bufferView": 7,
      "componentType": 5123,
      "count": 1578,
      "type": "SCALAR"
    }
  ],
  "bufferViews": [
    {
      "buffer": 0,
      "byteOffset": 0,
      "byteLength": 256
    },
    {
      "buffer": 0,
      "byteOffset": 256,
      "byteLength": 20700,
      "target": 34962
    },
    {
      "buffer": 0,
      "byteOffset": 20956,
      "byteLength": 13800,
      "target": 34962
    },
    {
      "buffer": 0,
      "byteOffset": 34756,
      "byteLength": 13800,
      "target": 34962
    },
    {
      "buffer": 0,
      "byteOffset": 48556,
      "byteLength": 27600,
      "target": 34962
    },
    {
      "buffer": 0,
      "byteOffset": 76156,
      "byteLength": 4200,
      "target": 34963
    },
    {
      "buffer": 0,
      "byteOffset": 80356,
      "byteLength": 4752,
      "target": 34963
    },
    {
      "buffer": 0,
      "byteOffset": 85108,
      "byteLength": 3156,
      "target": 34963
    }
  ],
  "buffers": [
    {
      "byteLength": 88264,
      "uri": "cookingfire2bowls01.bin"
    }
  ]
}