{
  "asset": {
    "version": "2.0",
    "generator": "XBG to GLTF Converter with Textures"
  },
  "scene": 0,
  "scenes": [
    {
      "name": "Scene",
      "nodes": [
        8
      ]
    }
  ],
  "nodes": [
    {
      "name": "CeillingLight02_Bulb",
      "children": [
        1
      ]
    },
    {
      "name": "states",
      "children": [
        2,
        3
      ]
    },
    {
      "name": "state2"
    },
    {
      "name": "state1",
      "children": [
        4,
        5,
        6
      ]
    },
    {
      "name": "FX_Glass01",
      "translation": [
        0.005277710035443306,
        0.8028417825698853,
        0.0
      ]
    },
    {
      "name": "FX_Glass02",
      "translation": [
        0.005277710035443306,
        0.013583979569375515,
        0.0
      ]
    },
    {
      "name": "FX_Glass03",
      "translation": [
        0.005277710035443306,
        -0.7406811118125916,
        0.0
      ]
    },
    {
      "name": "MeshNode_LOD0",
      "mesh": 0,
      "skin": 0
    },
    {
      "name": "Correction_Root",
      "rotation": [
        -0.70710678,
        0.0,
        0.0,
        0.70710678
      ],
      "children": [
        0,
        7
      ]
    }
  ],
  "meshes": [
    {
      "name": "Mesh_LOD0",
      "primitives": [
        {
          "attributes": {
            "POSITION": 1,
            "JOINTS_0": 3,
            "WEIGHTS_0": 4,
            "TEXCOORD_0": 2
          },
          "indices": 5,
          "material": 0
        },
        {
          "attributes": {
            "POSITION": 1,
            "JOINTS_0": 3,
            "WEIGHTS_0": 4,
            "TEXCOORD_0": 2
          },
          "indices": 6,
          "material": 1
        },
        {
          "attributes": {
            "POSITION": 1,
            "JOINTS_0": 3,
            "WEIGHTS_0": 4,
            "TEXCOORD_0": 2
          },
          "indices": 7,
          "material": 2
        }
      ]
    }
  ],
  "skins": [
    {
      "inverseBindMatrices": 0,
      "joints": [
        0,
        1,
        2,
        3,
        4,
        5,
        6
      ],
      "name": "Armature",
      "skeleton": 0
    }
  ],
  "materials": [
    {
      "name": "GRAPHICS\\_MATERIALS\\TRODRIGUE-M-2007021548235250.xbm",
      "pbrMetallicRoughness": {
        "baseColorFactor": [
          1.0,
          1.0,
          1.0,
          1.0
        ],
        "metallicFactor": 0.0,
        "roughnessFactor": 1.0,
        "baseColorTexture": {
          "index": 0,
          "texCoord": 0
        }
      },
      "doubleSided": true
    },
    {
      "name": "GRAPHICS\\_MATERIALS\\APARE-M-2008031339350676.xbm",
      "pbrMetallicRoughness": {
        "baseColorFactor": [
          1.0,
          1.0,
          1.0,
          1.0
        ],
        "metallicFactor": 0.0,
        "roughnessFactor": 1.0,
        "baseColorTexture": {
          "index": 1,
          "texCoord": 0
        }
      },
      "doubleSided": true
    },
    {
      "name": "GRAPHICS\\_MATERIALS\\SNADEAU2-M-1607200847926753.xbm",
      "pbrMetallicRoughness": {
        "baseColorFactor": [
          1.0,
          1.0,
          1.0,
          1.0
        ],
        "metallicFactor": 0.0,
        "roughnessFactor": 1.0,
        "baseColorTexture": {
          "index": 2,
          "texCoord": 0
        }
      },
      "doubleSided": true
    }
  ],
  "textures": [
    {
      "sampler": 0,
      "source": 0
    },
    {
      "sampler": 0,
      "source": 1
    },
    {
      "sampler": 0,
      "source": 2
    }
  ],
  "images": [
    {
      "name": "gradient_light_d",
      "mimeType": "image/png",
      "uri": "data:image/png;base64,"
    },
    {
      "name": "gradient_light_d",
      "mimeType": "image/png",
      "uri": "data:image/png;base64,"
    },
    {
      "name": "gradient_light_d",
      "mimeType": "image/png",
      "uri": "data:image/png;base64,"
    }
  ],
  "samplers": [
    {
      "magFilter": 9729,
      "minFilter": 9987,
      "wrapS": 10497,
      "wrapT": 10497
    }
  ],
  "accessors": [
    {
      "bufferView": 0,
      "componentType": 5126,
      "count": 7,
      "type": "MAT4"
    },
    {
      "bufferView": 1,
      "componentType": 5126,
      "count": 246,
      "type": "VEC3",
      "min": [
        -0.29523606039583683,
        -1.4392529055476189,
        -0.01666310615837574
      ],
      "max": [
        0.29523606039583683,
        1.43974120169878,
        0.19244972057640553
      ]
    },
    {
      "bufferView": 2,
      "componentType": 5126,
      "count": 246,
      "type": "VEC2"
    },
    {
      "bufferView": 3,
      "componentType": 5123,
      "count": 246,
      "type": "VEC4"
    },
    {
      "bufferView": 4,
      "componentType": 5126,
      "count": 246,
      "type": "VEC4"
    },
    {
      "bufferView": 5,
      "componentType": 5123,
      "count": 3,
      "type": "SCALAR"
    },
    {
      "bufferView": 6,
      "componentType": 5123,
      "count": 540,
      "type": "SCALAR"
    },
    {
      "bufferView": 7,
      "componentType": 5123,
      "count": 90,
      "type": "SCALAR"
    }
  ],
  "bufferViews": [
    {
      "buffer": 0,
      "byteOffset": 0,
      "byteLength": 448
    },
    {
      "buffer": 0,
      "byteOffset": 448,
      "byteLength": 2952,
      "target": 34962
    },
    {
      "buffer": 0,
      "byteOffset": 3400,
      "byteLength": 1968,
      "target": 34962
    },
    {
      "buffer": 0,
      "byteOffset": 5368,
      "byteLength": 1968,
      "target": 34962
    },
    {
      "buffer": 0,
      "byteOffset": 7336,
      "byteLength": 3936,
      "target": 34962
    },
    {
      "buffer": 0,
      "byteOffset": 11272,
      "byteLength": 6,
      "target": 34963
    },
    {
      "buffer": 0,
      "byteOffset": 11278,
      "byteLength": 1080,
      "target": 34963
    },
    {
      "buffer": 0,
      "byteOffset": 12358,
      "byteLength": 180,
      "target": 34963
    }
  ],
  "buffers": [
    {
      "byteLength": 12538,
      "uri": "ceillinglight02_bulb.bin"
    }
  ]
}