{
  "asset": {
    "version": "2.0",
    "generator": "XBG to GLTF Converter with Textures"
  },
  "scene": 0,
  "scenes": [
    {
      "name": "Scene",
      "nodes": [
        34
      ]
    }
  ],
  "nodes": [
    {
      "name": "Checkpoint03_BK",
      "children": [
        1
      ]
    },
    {
      "name": "Checkpoint03a_STATE",
      "translation": [
        -0.155232235789299,
        -0.12338622659444809,
        1.1443253755569458
      ],
      "children": [
        2,
        3
      ]
    },
    {
      "name": "Checkpoint030a_STATE1",
      "translation": [
        1.3987098932266235,
        0.0,
        0.0
      ]
    },
    {
      "name": "Checkpoint031a_STATE2",
      "children": [
        4,
        9,
        15,
        18,
        21,
        27
      ]
    },
    {
      "name": "Sandbag01b_STATE",
      "translation": [
        0.20403319597244263,
        0.14444823563098907,
        -0.93635094165802
      ],
      "children": [
        5,
        6,
        7,
        8
      ]
    },
    {
      "name": "Sandbag010b_STATE1"
    },
    {
      "name": "Sandbag011b_STATE2",
      "translation": [
        -0.025161130353808403,
        -0.4232519567012787,
        -0.10934875160455704
      ]
    },
    {
      "name": "Sandbag012b_STATE2",
      "translation": [
        -0.13124023377895355,
        -0.13301269710063934,
        0.1042538434267044
      ]
    },
    {
      "name": "Sandbag013b_STATE2",
      "translation": [
        0.03128905966877937,
        0.22751708328723907,
        -0.05050110071897507
      ]
    },
    {
      "name": "Pallet_Base_b_STATE",
      "translation": [
        -0.30552732944488525,
        0.014489750377833843,
        -0.7438775300979614
      ],
      "children": [
        10,
        12,
        13,
        14
      ]
    },
    {
      "name": "Pallet_Base_0b_STATE1",
      "translation": [
        -0.332601398229599,
        0.0,
        0.13904723525047302
      ],
      "rotation": [
        0.0,
        -0.030200057734053137,
        0.0,
        0.9995438742310715
      ],
      "children": [
        11
      ]
    },
    {
      "name": "Pallet_Base_b_FX",
      "translation": [
        0.3184804022312165,
        0.0,
        -0.019262680783867836
      ],
      "rotation": [
        0.0,
        0.03020005586971232,
        0.0,
        0.9995438742874003
      ]
    },
    {
      "name": "Pallet_Base_7b_STATE2",
      "translation": [
        0.0314045287668705,
        0.018396850675344467,
        0.12318359315395355
      ],
      "rotation": [
        0.0,
        -0.030200057734053137,
        0.0,
        0.9995438742310715
      ]
    },
    {
      "name": "Pallet_Base_11b_STATE2",
      "translation": [
        -0.07283764332532883,
        -0.2563861906528473,
        0.1451708972454071
      ],
      "rotation": [
        0.0,
        -0.030200057734053137,
        0.0,
        0.9995438742310715
      ]
    },
    {
      "name": "Pallet_Base_13b_STATE2",
      "translation": [
        -0.07235664129257202,
        0.29031091928482056,
        0.1491876244544983
      ],
      "rotation": [
        0.0,
        -0.030200057734053137,
        0.0,
        0.9995438742310715
      ]
    },
    {
      "name": "Barrel1b_STATE",
      "translation": [
        -0.026018070057034492,
        -0.8995410203933716,
        0.567689836025238
      ],
      "children": [
        16,
        17
      ]
    },
    {
      "name": "Barrel10b_STATE1",
      "translation": [
        0.003614790039137006,
        0.0,
        0.10945556312799454
      ],
      "rotation": [
        0.0,
        0.03878509159513911,
        0.0,
        0.9992475752634862
      ]
    },
    {
      "name": "Barrel11b_STATE2",
      "translation": [
        -0.0031509199179708958,
        -0.005737300030887127,
        -0.10092926025390625
      ],
      "rotation": [
        0.0,
        0.039308782488646866,
        0.0,
        0.9992271111310282
      ]
    },
    {
      "name": "Barrel2b_STATE",
      "translation": [
        -0.0927148386836052,
        0.9923095703125,
        0.5646290183067322
      ],
      "children": [
        19,
        20
      ]
    },
    {
      "name": "Barrel20b_STATE1",
      "translation": [
        0.0,
        0.0,
        0.08623778820037842
      ],
      "rotation": [
        0.0,
        -0.03143967650160084,
        0.0,
        0.9995056511803596
      ]
    },
    {
      "name": "Barrel21b_STATE2",
      "translation": [
        0.26214972138404846,
        -0.0020629900973290205,
        -0.11519180238246918
      ],
      "rotation": [
        0.01467762520877571,
        -0.008926506190305912,
        0.007244098960821438,
        0.9998261888126913
      ]
    },
    {
      "name": "PalletTop_b_STATE",
      "translation": [
        0.11317437887191772,
        0.0282709002494812,
        0.41021010279655457
      ],
      "rotation": [
        -0.012919010210946873,
        0.04988974930554154,
        0.06182688665082052,
        0.9967555107322977
      ],
      "children": [
        22,
        24,
        25,
        26
      ]
    },
    {
      "name": "PalletTop_0b_STATE1",
      "translation": [
        -0.06142714992165568,
        -0.0014941400149837275,
        0.08445292711257935
      ],
      "rotation": [
        0.014517822029582211,
        -0.11861879161145425,
        -0.12061331945533212,
        0.9854802089711231
      ],
      "children": [
        23
      ]
    },
    {
      "name": "PalletTop_b_FX",
      "translation": [
        -0.15909311175346372,
        -0.02609990909695624,
        -0.0888822525739672
      ],
      "rotation": [
        -0.0030557533742902807,
        0.06972919302685038,
        0.05848466891821937,
        0.9958453923735715
      ]
    },
    {
      "name": "PalletTop_7b_STATE2",
      "translation": [
        0.08587054163217542,
        0.0013649200554936985,
        0.11228259652853012
      ],
      "rotation": [
        -2.6020852139652106e-18,
        0.0,
        -2.168404344971009e-18,
        1.0
      ]
    },
    {
      "name": "PalletTop_10b_STATE2",
      "translation": [
        0.10146410018205643,
        -0.43350458145141607,
        0.13993361592292786
      ],
      "rotation": [
        -2.6020852139652106e-18,
        0.0,
        -2.168404344971009e-18,
        1.0
      ]
    },
    {
      "name": "PalletTop_13b_STATE2",
      "translation": [
        -0.009961670264601735,
        0.4150500893592834,
        0.14240549504756927
      ],
      "rotation": [
        -2.6020852139652106e-18,
        0.0,
        -2.168404344971009e-18,
        1.0
      ]
    },
    {
      "name": "Baseb_STATE",
      "translation": [
        0.0,
        -0.0032959000673145056,
        -0.5903660655021667
      ],
      "children": [
        28,
        29,
        30,
        31,
        32
      ]
    },
    {
      "name": "Base0b_STATE1",
      "translation": [
        0.3760741055011749,
        0.0,
        0.0
      ]
    },
    {
      "name": "Base1b_STATE2",
      "translation": [
        -0.06341308355331421,
        0.9631298780441284,
        -0.0027477999683469534
      ]
    },
    {
      "name": "Base2b_STATE2",
      "translation": [
        -0.047172851860523224,
        -0.9166991710662842,
        -0.021191410720348358
      ]
    },
    {
      "name": "Base3b_STATE2",
      "translation": [
        -0.16206543147563934,
        -0.04249268025159836,
        0.5480255484580994
      ]
    },
    {
      "name": "Base4b_STATE2",
      "translation": [
        0.159912109375,
        0.041157230734825134,
        0.5480255484580994
      ]
    },
    {
      "name": "MeshNode_LOD0",
      "mesh": 0,
      "skin": 0
    },
    {
      "name": "Correction_Root",
      "rotation": [
        -0.70710678,
        0.0,
        0.0,
        0.70710678
      ],
      "children": [
        0,
        33
      ]
    }
  ],
  "meshes": [
    {
      "name": "Mesh_LOD0",
      "primitives": [
        {
          "attributes": {
            "POSITION": 1,
            "JOINTS_0": 3,
            "WEIGHTS_0": 4,
            "TEXCOORD_0": 2
          },
          "indices": 5,
          "material": 0
        },
        {
          "attributes": {
            "POSITION": 1,
            "JOINTS_0": 3,
            "WEIGHTS_0": 4,
            "TEXCOORD_0": 2
          },
          "indices": 6,
          "material": 1
        },
        {
          "attributes": {
            "POSITION": 1,
            "JOINTS_0": 3,
            "WEIGHTS_0": 4,
            "TEXCOORD_0": 2
          },
          "indices": 7,
          "material": 2
        },
        {
          "attributes": {
            "POSITION": 1,
            "JOINTS_0": 3,
            "WEIGHTS_0": 4,
            "TEXCOORD_0": 2
          },
          "indices": 8,
          "material": 3
        },
        {
          "attributes": {
            "POSITION": 1,
            "JOINTS_0": 3,
            "WEIGHTS_0": 4,
            "TEXCOORD_0": 2
          },
          "indices": 9,
          "material": 0
        },
        {
          "attributes": {
            "POSITION": 1,
            "JOINTS_0": 3,
            "WEIGHTS_0": 4,
            "TEXCOORD_0": 2
          },
          "indices": 10,
          "material": 0
        },
        {
          "attributes": {
            "POSITION": 1,
            "JOINTS_0": 3,
            "WEIGHTS_0": 4,
            "TEXCOORD_0": 2
          },
          "indices": 11,
          "material": 0
        },
        {
          "attributes": {
            "POSITION": 1,
            "JOINTS_0": 3,
            "WEIGHTS_0": 4,
            "TEXCOORD_0": 2
          },
          "indices": 12,
          "material": 0
        },
        {
          "attributes": {
            "POSITION": 1,
            "JOINTS_0": 3,
            "WEIGHTS_0": 4,
            "TEXCOORD_0": 2
          },
          "indices": 13,
          "material": 3
        },
        {
          "attributes": {
            "POSITION": 1,
            "JOINTS_0": 3,
            "WEIGHTS_0": 4,
            "TEXCOORD_0": 2
          },
          "indices": 14,
          "material": 3
        },
        {
          "attributes": {
            "POSITION": 1,
            "JOINTS_0": 3,
            "WEIGHTS_0": 4,
            "TEXCOORD_0": 2
          },
          "indices": 15,
          "material": 3
        },
        {
          "attributes": {
            "POSITION": 1,
            "JOINTS_0": 3,
            "WEIGHTS_0": 4,
            "TEXCOORD_0": 2
          },
          "indices": 16,
          "material": 3
        },
        {
          "attributes": {
            "POSITION": 1,
            "JOINTS_0": 3,
            "WEIGHTS_0": 4,
            "TEXCOORD_0": 2
          },
          "indices": 17,
          "material": 2
        },
        {
          "attributes": {
            "POSITION": 1,
            "JOINTS_0": 3,
            "WEIGHTS_0": 4,
            "TEXCOORD_0": 2
          },
          "indices": 18,
          "material": 2
        },
        {
          "attributes": {
            "POSITION": 1,
            "JOINTS_0": 3,
            "WEIGHTS_0": 4,
            "TEXCOORD_0": 2
          },
          "indices": 19,
          "material": 1
        },
        {
          "attributes": {
            "POSITION": 1,
            "JOINTS_0": 3,
            "WEIGHTS_0": 4,
            "TEXCOORD_0": 2
          },
          "indices": 20,
          "material": 1
        },
        {
          "attributes": {
            "POSITION": 1,
            "JOINTS_0": 3,
            "WEIGHTS_0": 4,
            "TEXCOORD_0": 2
          },
          "indices": 21,
          "material": 3
        },
        {
          "attributes": {
            "POSITION": 1,
            "JOINTS_0": 3,
            "WEIGHTS_0": 4,
            "TEXCOORD_0": 2
          },
          "indices": 22,
          "material": 3
        },
        {
          "attributes": {
            "POSITION": 1,
            "JOINTS_0": 3,
            "WEIGHTS_0": 4,
            "TEXCOORD_0": 2
          },
          "indices": 23,
          "material": 3
        },
        {
          "attributes": {
            "POSITION": 1,
            "JOINTS_0": 3,
            "WEIGHTS_0": 4,
            "TEXCOORD_0": 2
          },
          "indices": 24,
          "material": 3
        },
        {
          "attributes": {
            "POSITION": 1,
            "JOINTS_0": 3,
            "WEIGHTS_0": 4,
            "TEXCOORD_0": 2
          },
          "indices": 25,
          "material": 1
        },
        {
          "attributes": {
            "POSITION": 1,
            "JOINTS_0": 3,
            "WEIGHTS_0": 4,
            "TEXCOORD_0": 2
          },
          "indices": 26,
          "material": 3
        },
        {
          "attributes": {
            "POSITION": 1,
            "JOINTS_0": 3,
            "WEIGHTS_0": 4,
            "TEXCOORD_0": 2
          },
          "indices": 27,
          "material": 1
        },
        {
          "attributes": {
            "POSITION": 1,
            "JOINTS_0": 3,
            "WEIGHTS_0": 4,
            "TEXCOORD_0": 2
          },
          "indices": 28,
          "material": 1
        },
        {
          "attributes": {
            "POSITION": 1,
            "JOINTS_0": 3,
            "WEIGHTS_0": 4,
            "TEXCOORD_0": 2
          },
          "indices": 29,
          "material": 3
        },
        {
          "attributes": {
            "POSITION": 1,
            "JOINTS_0": 3,
            "WEIGHTS_0": 4,
            "TEXCOORD_0": 2
          },
          "indices": 30,
          "material": 3
        }
      ]
    }
  ],
  "skins": [
    {
      "inverseBindMatrices": 0,
      "joints": [
        0,
        1,
        2,
        3,
        4,
        5,
        6,
        7,
        8,
        9,
        10,
        11,
        12,
        13,
        14,
        15,
        16,
        17,
        18,
        19,
        20,
        21,
        22,
        23,
        24,
        25,
        26,
        27,
        28,
        29,
        30,
        31,
        32
      ],
      "name": "Armature",
      "skeleton": 0
    }
  ],
  "materials": [
    {
      "name": "GRAPHICS\\_MATERIALS\\JARRIOLA-M-2504200751758784.xbm",
      "pbrMetallicRoughness": {
        "baseColorFactor": [
          1.0,
          1.0,
          1.0,
          1.0
        ],
        "metallicFactor": 0.0,
        "roughnessFactor": 1.0,
        "baseColorTexture": {
          "index": 0,
          "texCoord": 0
        }
      },
      "doubleSided": true
    },
    {
      "name": "GRAPHICS\\_MATERIALS\\HLEVASSEUR-M-2007081048010689.xbm",
      "pbrMetallicRoughness": {
        "baseColorFactor": [
          1.0,
          1.0,
          1.0,
          1.0
        ],
        "metallicFactor": 0.0,
        "roughnessFactor": 1.0,
        "baseColorTexture": {
          "index": 1,
          "texCoord": 0
        }
      },
      "doubleSided": true
    },
    {
      "name": "GRAPHICS\\_MATERIALS\\HLEVASSEUR-M-2007081459404147.xbm",
      "pbrMetallicRoughness": {
        "baseColorFactor": [
          1.0,
          1.0,
          1.0,
          1.0
        ],
        "metallicFactor": 0.0,
        "roughnessFactor": 1.0,
        "baseColorTexture": {
          "index": 2,
          "texCoord": 0
        }
      },
      "doubleSided": true
    },
    {
      "name": "GRAPHICS\\_MATERIALS\\SNADEAU2-M-1311200741929747.xbm",
      "pbrMetallicRoughness": {
        "baseColorFactor": [
          1.0,
          1.0,
          1.0,
          1.0
        ],
        "metallicFactor": 0.0,
        "roughnessFactor": 1.0,
        "baseColorTexture": {
          "index": 3,
          "texCoord": 0
        }
      },
      "doubleSided": true
    }
  ],
  "textures": [
    {
      "sampler": 0,
      "source": 0
    },
    {
      "sampler": 0,
      "source": 1
    },
    {
      "sampler": 0,
      "source": 2
    },
    {
      "sampler": 0,
      "source": 3
    }
  ],
  "images": [
    {
      "name": "dirtearth01_d",
      "mimeType": "image/png",
      "uri": "data:image/png;base64,"
    },
    {
      "name": "barril_02_m",
      "mimeType": "image/png",
      "uri": "data:image/png;base64,"
    },
    {
      "name": "barril_02_m",
      "mimeType": "image/png",
      "uri": "data:image/png;base64,"
    },
    {
      "name": "woodplankdirt_04_d",
      "mimeType": "image/png",
      "uri": "data:image/png;base64,"
    }
  ],
  "samplers": [
    {
      "magFilter": 9729,
      "minFilter": 9987,
      "wrapS": 10497,
      "wrapT": 10497
    }
  ],
  "accessors": [
    {
      "bufferView": 0,
      "componentType": 5126,
      "count": 33,
      "type": "MAT4"
    },
    {
      "bufferView": 1,
      "componentType": 5126,
      "count": 7605,
      "type": "VEC3",
      "min": [
        -1.8717612214386463,
        -1.3817560337483883,
        -1.1584215816110373
      ],
      "max": [
        0.5437177643179893,
        1.409405803307891,
        1.1598864700645208
      ]
    },
    {
      "bufferView": 2,
      "componentType": 5126,
      "count": 7605,
      "type": "VEC2"
    },
    {
      "bufferView": 3,
      "componentType": 5123,
      "count": 7605,
      "type": "VEC4"
    },
    {
      "bufferView": 4,
      "componentType": 5126,
      "count": 7605,
      "type": "VEC4"
    },
    {
      "bufferView": 5,
      "componentType": 5123,
      "count": 648,
      "type": "SCALAR"
    },
    {
      "bufferView": 6,
      "componentType": 5123,
      "count": 5058,
      "type": "SCALAR"
    },
    {
      "bufferView": 7,
      "componentType": 5123,
      "count": 2424,
      "type": "SCALAR"
    },
    {
      "bufferView": 8,
      "componentType": 5123,
      "count": 1056,
      "type": "SCALAR"
    },
    {
      "bufferView": 9,
      "componentType": 5123,
      "count": 648,
      "type": "SCALAR"
    },
    {
      "bufferView": 10,
      "componentType": 5123,
      "count": 216,
      "type": "SCALAR"
    },
    {
      "bufferView": 11,
      "componentType": 5123,
      "count": 216,
      "type": "SCALAR"
    },
    {
      "bufferView": 12,
      "componentType": 5123,
      "count": 216,
      "type": "SCALAR"
    },
    {
      "bufferView": 13,
      "componentType": 5123,
      "count": 492,
      "type": "SCALAR"
    },
    {
      "bufferView": 14,
      "componentType": 5123,
      "count": 48,
      "type": "SCALAR"
    },
    {
      "bufferView": 15,
      "componentType": 5123,
      "count": 36,
      "type": "SCALAR"
    },
    {
      "bufferView": 16,
      "componentType": 5123,
      "count": 36,
      "type": "SCALAR"
    },
    {
      "bufferView": 17,
      "componentType": 5123,
      "count": 2424,
      "type": "SCALAR"
    },
    {
      "bufferView": 18,
      "componentType": 5123,
      "count": 2424,
      "type": "SCALAR"
    },
    {
      "bufferView": 19,
      "componentType": 5123,
      "count": 1818,
      "type": "SCALAR"
    },
    {
      "bufferView": 20,
      "componentType": 5123,
      "count": 1818,
      "type": "SCALAR"
    },
    {
      "bufferView": 21,
      "componentType": 5123,
      "count": 492,
      "type": "SCALAR"
    },
    {
      "bufferView": 22,
      "componentType": 5123,
      "count": 48,
      "type": "SCALAR"
    },
    {
      "bufferView": 23,
      "componentType": 5123,
      "count": 36,
      "type": "SCALAR"
    },
    {
      "bufferView": 24,
      "componentType": 5123,
      "count": 36,
      "type": "SCALAR"
    },
    {
      "bufferView": 25,
      "componentType": 5123,
      "count": 3240,
      "type": "SCALAR"
    },
    {
      "bufferView": 26,
      "componentType": 5123,
      "count": 72,
      "type": "SCALAR"
    },
    {
      "bufferView": 27,
      "componentType": 5123,
      "count": 1716,
      "type": "SCALAR"
    },
    {
      "bufferView": 28,
      "componentType": 5123,
      "count": 1524,
      "type": "SCALAR"
    },
    {
      "bufferView": 29,
      "componentType": 5123,
      "count": 36,
      "type": "SCALAR"
    },
    {
      "bufferView": 30,
      "componentType": 5123,
      "count": 36,
      "type": "SCALAR"
    }
  ],
  "bufferViews": [
    {
      "buffer": 0,
      "byteOffset": 0,
      "byteLength": 2112
    },
    {
      "buffer": 0,
      "byteOffset": 2112,
      "byteLength": 91260,
      "target": 34962
    },
    {
      "buffer": 0,
      "byteOffset": 93372,
      "byteLength": 60840,
      "target": 34962
    },
    {
      "buffer": 0,
      "byteOffset": 154212,
      "byteLength": 60840,
      "target": 34962
    },
    {
      "buffer": 0,
      "byteOffset": 215052,
      "byteLength": 121680,
      "target": 34962
    },
    {
      "buffer": 0,
      "byteOffset": 336732,
      "byteLength": 1296,
      "target": 34963
    },
    {
      "buffer": 0,
      "byteOffset": 338028,
      "byteLength": 10116,
      "target": 34963
    },
    {
      "buffer": 0,
      "byteOffset": 348144,
      "byteLength": 4848,
      "target": 34963
    },
    {
      "buffer": 0,
      "byteOffset": 352992,
      "byteLength": 2112,
      "target": 34963
    },
    {
      "buffer": 0,
      "byteOffset": 355104,
      "byteLength": 1296,
      "target": 34963
    },
    {
      "buffer": 0,
      "byteOffset": 356400,
      "byteLength": 432,
      "target": 34963
    },
    {
      "buffer": 0,
      "byteOffset": 356832,
      "byteLength": 432,
      "target": 34963
    },
    {
      "buffer": 0,
      "byteOffset": 357264,
      "byteLength": 432,
      "target": 34963
    },
    {
      "buffer": 0,
      "byteOffset": 357696,
      "byteLength": 984,
      "target": 34963
    },
    {
      "buffer": 0,
      "byteOffset": 358680,
      "byteLength": 96,
      "target": 34963
    },
    {
      "buffer": 0,
      "byteOffset": 358776,
      "byteLength": 72,
      "target": 34963
    },
    {
      "buffer": 0,
      "byteOffset": 358848,
      "byteLength": 72,
      "target": 34963
    },
    {
      "buffer": 0,
      "byteOffset": 358920,
      "byteLength": 4848,
      "target": 34963
    },
    {
      "buffer": 0,
      "byteOffset": 363768,
      "byteLength": 4848,
      "target": 34963
    },
    {
      "buffer": 0,
      "byteOffset": 368616,
      "byteLength": 3636,
      "target": 34963
    },
    {
      "buffer": 0,
      "byteOffset": 372252,
      "byteLength": 3636,
      "target": 34963
    },
    {
      "buffer": 0,
      "byteOffset": 375888,
      "byteLength": 984,
      "target": 34963
    },
    {
      "buffer": 0,
      "byteOffset": 376872,
      "byteLength": 96,
      "target": 34963
    },
    {
      "buffer": 0,
      "byteOffset": 376968,
      "byteLength": 72,
      "target": 34963
    },
    {
      "buffer": 0,
      "byteOffset": 377040,
      "byteLength": 72,
      "target": 34963
    },
    {
      "buffer": 0,
      "byteOffset": 377112,
      "byteLength": 6480,
      "target": 34963
    },
    {
      "buffer": 0,
      "byteOffset": 383592,
      "byteLength": 144,
      "target": 34963
    },
    {
      "buffer": 0,
      "byteOffset": 383736,
      "byteLength": 3432,
      "target": 34963
    },
    {
      "buffer": 0,
      "byteOffset": 387168,
      "byteLength": 3048,
      "target": 34963
    },
    {
      "buffer": 0,
      "byteOffset": 390216,
      "byteLength": 72,
      "target": 34963
    },
    {
      "buffer": 0,
      "byteOffset": 390288,
      "byteLength": 72,
      "target": 34963
    }
  ],
  "buffers": [
    {
      "byteLength": 390360,
      "uri": "checkpoint03_bk.bin"
    }
  ]
}