{
  "asset": {
    "version": "2.0",
    "generator": "XBG to GLTF Converter with Textures"
  },
  "scene": 0,
  "scenes": [
    {
      "name": "Scene",
      "nodes": [
        28
      ]
    }
  ],
  "nodes": [
    {
      "name": "eckpointBarrier01_Open_BK",
      "children": [
        1
      ]
    },
    {
      "name": "eckpointBarrier01a0_STATE",
      "translation": [
        1.3000000365082087e-07,
        3.0481274127960205,
        0.875930905342102
      ],
      "children": [
        2,
        3
      ]
    },
    {
      "name": "kpointBarrier010a_STATE01"
    },
    {
      "name": "kpointBarrier011a_STATE02",
      "translation": [
        -0.00023925999994389713,
        0.0,
        0.0
      ],
      "children": [
        4,
        9,
        14,
        19
      ]
    },
    {
      "name": "BarrelMetal15b0_STATE",
      "translation": [
        -0.05595641955733299,
        2.858830451965332,
        -0.18573042750358582
      ],
      "children": [
        5,
        7,
        8
      ]
    },
    {
      "name": "BarrelMetal150b_STATE01",
      "children": [
        6
      ]
    },
    {
      "name": "moke_BarrelMetal1513b0_FX",
      "translation": [
        0.0701213926076889,
        -0.0827496275305748,
        -0.4651269316673279
      ]
    },
    {
      "name": "D_BarrelMetal151b_STATE02",
      "translation": [
        0.05393676087260246,
        -0.11310789734125137,
        0.23563475906848907
      ]
    },
    {
      "name": "BarrelMetal155b_STATE02",
      "translation": [
        -0.2634863257408142,
        -0.5707153081893921,
        -0.5197283625602722
      ]
    },
    {
      "name": "BarrelMetal16b0_STATE",
      "translation": [
        -0.5056750178337097,
        -2.86205792427063,
        -0.1857302039861679
      ],
      "children": [
        10,
        12,
        13
      ]
    },
    {
      "name": "BarrelMetal160b_STATE01",
      "children": [
        11
      ]
    },
    {
      "name": "smoke_BarrelMetal165b0_FX",
      "translation": [
        -0.011518550105392933,
        -0.05236572027206421,
        -0.46632322669029236
      ]
    },
    {
      "name": "D_BarrelMetal161b_STATE02",
      "translation": [
        0.05066161975264549,
        -0.1136791929602623,
        0.23152709007263184
      ]
    },
    {
      "name": "BarrelMetal165b_STATE02",
      "translation": [
        -0.17662838101387024,
        -0.6163183450698853,
        -0.5197277665138245
      ]
    },
    {
      "name": "BarrelMetal17b0_STATE",
      "translation": [
        0.49347472190856934,
        -3.0577123165130615,
        -0.1840026080608368
      ],
      "children": [
        15,
        17,
        18
      ]
    },
    {
      "name": "BarrelMetal170b_STATE01",
      "children": [
        16
      ]
    },
    {
      "name": "moke_BarrelMetal1711b0_FX",
      "translation": [
        0.06180664151906967,
        0.035234369337558746,
        -0.4299706816673279
      ]
    },
    {
      "name": "D_BarrelMetal171b_STATE02",
      "translation": [
        0.02025390975177288,
        0.07077149301767349,
        0.2724841237068176
      ]
    },
    {
      "name": "BarrelMetal175b_STATE02",
      "translation": [
        0.2144623100757599,
        0.6254540681838989,
        -0.5249865651130676
      ]
    },
    {
      "name": "Barreb0_STATE",
      "translation": [
        0.04247558116912842,
        0.17076659202575684,
        0.28026992082595825
      ],
      "children": [
        20,
        21,
        22,
        23
      ]
    },
    {
      "name": "D_Barre7b_STATE02",
      "translation": [
        0.017478639259934425,
        -2.0339832305908203,
        3.2745563983917236
      ],
      "rotation": [
        0.5274859091506334,
        -0.17890903463627303,
        -0.11473125359583008,
        0.8225490338243009
      ]
    },
    {
      "name": "D_Barre7g0_STATE02",
      "translation": [
        0.017478639259934425,
        -2.994905948638916,
        0.6751174926757812
      ],
      "rotation": [
        0.6234437160927785,
        0.1015996240302202,
        0.08216883358043947,
        0.7708720581860564
      ]
    },
    {
      "name": "D_Barre7z0_STATE02",
      "translation": [
        0.03023429960012436,
        -1.8475784063339233,
        4.875377178192139
      ],
      "rotation": [
        0.4853447005973419,
        0.2812260917262538,
        -0.03016083739444794,
        0.8273105389952672
      ]
    },
    {
      "name": "Barre0b_STATE01",
      "children": [
        24,
        25,
        26
      ]
    },
    {
      "name": "Wood_Barre6b0_FX",
      "translation": [
        -0.009814449585974216,
        -3.111830949783325,
        -0.1615038961172104
      ]
    },
    {
      "name": "Wood_Barre4b0_FX",
      "translation": [
        0.10972099751234055,
        -1.4189128875732422,
        5.145750522613525
      ],
      "rotation": [
        0.5371061489811012,
        -0.17401901877768222,
        -0.01155099802950956,
        0.8252883972891072
      ]
    },
    {
      "name": "Wood_Barre4b1_FX",
      "translation": [
        0.01733154058456421,
        -2.5840208530426025,
        1.7765657901763916
      ],
      "rotation": [
        0.5606622060590473,
        0.0,
        0.0,
        0.8280446187839171
      ]
    },
    {
      "name": "MeshNode_LOD0",
      "mesh": 0,
      "skin": 0
    },
    {
      "name": "Correction_Root",
      "rotation": [
        -0.70710678,
        0.0,
        0.0,
        0.70710678
      ],
      "children": [
        0,
        27
      ]
    }
  ],
  "meshes": [
    {
      "name": "Mesh_LOD0",
      "primitives": [
        {
          "attributes": {
            "POSITION": 1,
            "JOINTS_0": 3,
            "WEIGHTS_0": 4,
            "TEXCOORD_0": 2
          },
          "indices": 5,
          "material": 0
        },
        {
          "attributes": {
            "POSITION": 1,
            "JOINTS_0": 3,
            "WEIGHTS_0": 4,
            "TEXCOORD_0": 2
          },
          "indices": 6,
          "material": 1
        },
        {
          "attributes": {
            "POSITION": 1,
            "JOINTS_0": 3,
            "WEIGHTS_0": 4,
            "TEXCOORD_0": 2
          },
          "indices": 7,
          "material": 2
        },
        {
          "attributes": {
            "POSITION": 1,
            "JOINTS_0": 3,
            "WEIGHTS_0": 4,
            "TEXCOORD_0": 2
          },
          "indices": 8,
          "material": 3
        },
        {
          "attributes": {
            "POSITION": 1,
            "JOINTS_0": 3,
            "WEIGHTS_0": 4,
            "TEXCOORD_0": 2
          },
          "indices": 9,
          "material": 4
        },
        {
          "attributes": {
            "POSITION": 1,
            "JOINTS_0": 3,
            "WEIGHTS_0": 4,
            "TEXCOORD_0": 2
          },
          "indices": 10,
          "material": 1
        },
        {
          "attributes": {
            "POSITION": 1,
            "JOINTS_0": 3,
            "WEIGHTS_0": 4,
            "TEXCOORD_0": 2
          },
          "indices": 11,
          "material": 2
        },
        {
          "attributes": {
            "POSITION": 1,
            "JOINTS_0": 3,
            "WEIGHTS_0": 4,
            "TEXCOORD_0": 2
          },
          "indices": 12,
          "material": 2
        },
        {
          "attributes": {
            "POSITION": 1,
            "JOINTS_0": 3,
            "WEIGHTS_0": 4,
            "TEXCOORD_0": 2
          },
          "indices": 13,
          "material": 1
        },
        {
          "attributes": {
            "POSITION": 1,
            "JOINTS_0": 3,
            "WEIGHTS_0": 4,
            "TEXCOORD_0": 2
          },
          "indices": 14,
          "material": 1
        },
        {
          "attributes": {
            "POSITION": 1,
            "JOINTS_0": 3,
            "WEIGHTS_0": 4,
            "TEXCOORD_0": 2
          },
          "indices": 15,
          "material": 2
        },
        {
          "attributes": {
            "POSITION": 1,
            "JOINTS_0": 3,
            "WEIGHTS_0": 4,
            "TEXCOORD_0": 2
          },
          "indices": 16,
          "material": 2
        },
        {
          "attributes": {
            "POSITION": 1,
            "JOINTS_0": 3,
            "WEIGHTS_0": 4,
            "TEXCOORD_0": 2
          },
          "indices": 17,
          "material": 1
        },
        {
          "attributes": {
            "POSITION": 1,
            "JOINTS_0": 3,
            "WEIGHTS_0": 4,
            "TEXCOORD_0": 2
          },
          "indices": 18,
          "material": 0
        },
        {
          "attributes": {
            "POSITION": 1,
            "JOINTS_0": 3,
            "WEIGHTS_0": 4,
            "TEXCOORD_0": 2
          },
          "indices": 19,
          "material": 1
        },
        {
          "attributes": {
            "POSITION": 1,
            "JOINTS_0": 3,
            "WEIGHTS_0": 4,
            "TEXCOORD_0": 2
          },
          "indices": 20,
          "material": 0
        },
        {
          "attributes": {
            "POSITION": 1,
            "JOINTS_0": 3,
            "WEIGHTS_0": 4,
            "TEXCOORD_0": 2
          },
          "indices": 21,
          "material": 1
        },
        {
          "attributes": {
            "POSITION": 1,
            "JOINTS_0": 3,
            "WEIGHTS_0": 4,
            "TEXCOORD_0": 2
          },
          "indices": 22,
          "material": 3
        },
        {
          "attributes": {
            "POSITION": 1,
            "JOINTS_0": 3,
            "WEIGHTS_0": 4,
            "TEXCOORD_0": 2
          },
          "indices": 23,
          "material": 4
        },
        {
          "attributes": {
            "POSITION": 1,
            "JOINTS_0": 3,
            "WEIGHTS_0": 4,
            "TEXCOORD_0": 2
          },
          "indices": 24,
          "material": 4
        },
        {
          "attributes": {
            "POSITION": 1,
            "JOINTS_0": 3,
            "WEIGHTS_0": 4,
            "TEXCOORD_0": 2
          },
          "indices": 25,
          "material": 4
        },
        {
          "attributes": {
            "POSITION": 1,
            "JOINTS_0": 3,
            "WEIGHTS_0": 4,
            "TEXCOORD_0": 2
          },
          "indices": 26,
          "material": 3
        },
        {
          "attributes": {
            "POSITION": 1,
            "JOINTS_0": 3,
            "WEIGHTS_0": 4,
            "TEXCOORD_0": 2
          },
          "indices": 27,
          "material": 4
        }
      ]
    }
  ],
  "skins": [
    {
      "inverseBindMatrices": 0,
      "joints": [
        0,
        1,
        2,
        3,
        4,
        5,
        6,
        7,
        8,
        9,
        10,
        11,
        12,
        13,
        14,
        15,
        16,
        17,
        18,
        19,
        20,
        21,
        22,
        23,
        24,
        25,
        26
      ],
      "name": "Armature",
      "skeleton": 0
    }
  ],
  "materials": [
    {
      "name": "GRAPHICS\\_MATERIALS\\HLEVASSEUR-M-2007081048010689.xbm",
      "pbrMetallicRoughness": {
        "baseColorFactor": [
          1.0,
          1.0,
          1.0,
          1.0
        ],
        "metallicFactor": 0.0,
        "roughnessFactor": 1.0,
        "baseColorTexture": {
          "index": 0,
          "texCoord": 0
        }
      },
      "doubleSided": true
    },
    {
      "name": "GRAPHICS\\_MATERIALS\\JARRIOLA-M-2504200751758784.xbm",
      "pbrMetallicRoughness": {
        "baseColorFactor": [
          1.0,
          1.0,
          1.0,
          1.0
        ],
        "metallicFactor": 0.0,
        "roughnessFactor": 1.0,
        "baseColorTexture": {
          "index": 1,
          "texCoord": 0
        }
      },
      "doubleSided": true
    },
    {
      "name": "GRAPHICS\\_MATERIALS\\HLEVASSEUR-M-2007081459404147.xbm",
      "pbrMetallicRoughness": {
        "baseColorFactor": [
          1.0,
          1.0,
          1.0,
          1.0
        ],
        "metallicFactor": 0.0,
        "roughnessFactor": 1.0,
        "baseColorTexture": {
          "index": 2,
          "texCoord": 0
        }
      },
      "doubleSided": true
    },
    {
      "name": "GRAPHICS\\_MATERIALS\\SCHARBONNEAU2-M-2007020535926066.xbm",
      "pbrMetallicRoughness": {
        "baseColorFactor": [
          1.0,
          1.0,
          1.0,
          1.0
        ],
        "metallicFactor": 0.0,
        "roughnessFactor": 1.0,
        "baseColorTexture": {
          "index": 3,
          "texCoord": 0
        }
      },
      "doubleSided": true
    },
    {
      "name": "GRAPHICS\\_MATERIALS\\SCHARBONNEAU2-M-2007080650510538.xbm",
      "pbrMetallicRoughness": {
        "baseColorFactor": [
          1.0,
          1.0,
          1.0,
          1.0
        ],
        "metallicFactor": 0.0,
        "roughnessFactor": 1.0,
        "baseColorTexture": {
          "index": 4,
          "texCoord": 0
        }
      },
      "doubleSided": true
    }
  ],
  "textures": [
    {
      "sampler": 0,
      "source": 0
    },
    {
      "sampler": 0,
      "source": 1
    },
    {
      "sampler": 0,
      "source": 2
    },
    {
      "sampler": 0,
      "source": 3
    },
    {
      "sampler": 0,
      "source": 4
    }
  ],
  "images": [
    {
      "name": "barril_02_m",
      "mimeType": "image/png",
      "uri": "data:image/png;base64,"
    },
    {
      "name": "dirtearth01_d",
      "mimeType": "image/png",
      "uri": "data:image/png;base64,"
    },
    {
      "name": "barril_02_m",
      "mimeType": "image/png",
      "uri": "data:image/png;base64,"
    },
    {
      "name": "paint_02_d",
      "mimeType": "image/png",
      "uri": "data:image/png;base64,"
    },
    {
      "name": "woodplank_01_d",
      "mimeType": "image/png",
      "uri": "data:image/png;base64,"
    }
  ],
  "samplers": [
    {
      "magFilter": 9729,
      "minFilter": 9987,
      "wrapS": 10497,
      "wrapT": 10497
    }
  ],
  "accessors": [
    {
      "bufferView": 0,
      "componentType": 5126,
      "count": 27,
      "type": "MAT4"
    },
    {
      "bufferView": 1,
      "componentType": 5126,
      "count": 11505,
      "type": "VEC3",
      "min": [
        -1.2217474887147546,
        -3.8835718827322125,
        -0.8837855150923133
      ],
      "max": [
        1.2215338591486216,
        3.6453749164938927,
        6.437513345852494
      ]
    },
    {
      "bufferView": 2,
      "componentType": 5126,
      "count": 11505,
      "type": "VEC2"
    },
    {
      "bufferView": 3,
      "componentType": 5123,
      "count": 11505,
      "type": "VEC4"
    },
    {
      "bufferView": 4,
      "componentType": 5126,
      "count": 11505,
      "type": "VEC4"
    },
    {
      "bufferView": 5,
      "componentType": 5123,
      "count": 2763,
      "type": "SCALAR"
    },
    {
      "bufferView": 6,
      "componentType": 5123,
      "count": 5973,
      "type": "SCALAR"
    },
    {
      "bufferView": 7,
      "componentType": 5123,
      "count": 6018,
      "type": "SCALAR"
    },
    {
      "bufferView": 8,
      "componentType": 5123,
      "count": 480,
      "type": "SCALAR"
    },
    {
      "bufferView": 9,
      "componentType": 5123,
      "count": 300,
      "type": "SCALAR"
    },
    {
      "bufferView": 10,
      "componentType": 5123,
      "count": 2295,
      "type": "SCALAR"
    },
    {
      "bufferView": 11,
      "componentType": 5123,
      "count": 3009,
      "type": "SCALAR"
    },
    {
      "bufferView": 12,
      "componentType": 5123,
      "count": 3009,
      "type": "SCALAR"
    },
    {
      "bufferView": 13,
      "componentType": 5123,
      "count": 2295,
      "type": "SCALAR"
    },
    {
      "bufferView": 14,
      "componentType": 5123,
      "count": 1755,
      "type": "SCALAR"
    },
    {
      "bufferView": 15,
      "componentType": 5123,
      "count": 3009,
      "type": "SCALAR"
    },
    {
      "bufferView": 16,
      "componentType": 5123,
      "count": 3009,
      "type": "SCALAR"
    },
    {
      "bufferView": 17,
      "componentType": 5123,
      "count": 1707,
      "type": "SCALAR"
    },
    {
      "bufferView": 18,
      "componentType": 5123,
      "count": 2763,
      "type": "SCALAR"
    },
    {
      "bufferView": 19,
      "componentType": 5123,
      "count": 1923,
      "type": "SCALAR"
    },
    {
      "bufferView": 20,
      "componentType": 5123,
      "count": 2763,
      "type": "SCALAR"
    },
    {
      "bufferView": 21,
      "componentType": 5123,
      "count": 1923,
      "type": "SCALAR"
    },
    {
      "bufferView": 22,
      "componentType": 5123,
      "count": 480,
      "type": "SCALAR"
    },
    {
      "bufferView": 23,
      "componentType": 5123,
      "count": 36,
      "type": "SCALAR"
    },
    {
      "bufferView": 24,
      "componentType": 5123,
      "count": 96,
      "type": "SCALAR"
    },
    {
      "bufferView": 25,
      "componentType": 5123,
      "count": 66,
      "type": "SCALAR"
    },
    {
      "bufferView": 26,
      "componentType": 5123,
      "count": 480,
      "type": "SCALAR"
    },
    {
      "bufferView": 27,
      "componentType": 5123,
      "count": 300,
      "type": "SCALAR"
    }
  ],
  "bufferViews": [
    {
      "buffer": 0,
      "byteOffset": 0,
      "byteLength": 1728
    },
    {
      "buffer": 0,
      "byteOffset": 1728,
      "byteLength": 138060,
      "target": 34962
    },
    {
      "buffer": 0,
      "byteOffset": 139788,
      "byteLength": 92040,
      "target": 34962
    },
    {
      "buffer": 0,
      "byteOffset": 231828,
      "byteLength": 92040,
      "target": 34962
    },
    {
      "buffer": 0,
      "byteOffset": 323868,
      "byteLength": 184080,
      "target": 34962
    },
    {
      "buffer": 0,
      "byteOffset": 507948,
      "byteLength": 5526,
      "target": 34963
    },
    {
      "buffer": 0,
      "byteOffset": 513474,
      "byteLength": 11946,
      "target": 34963
    },
    {
      "buffer": 0,
      "byteOffset": 525420,
      "byteLength": 12036,
      "target": 34963
    },
    {
      "buffer": 0,
      "byteOffset": 537456,
      "byteLength": 960,
      "target": 34963
    },
    {
      "buffer": 0,
      "byteOffset": 538416,
      "byteLength": 600,
      "target": 34963
    },
    {
      "buffer": 0,
      "byteOffset": 539016,
      "byteLength": 4590,
      "target": 34963
    },
    {
      "buffer": 0,
      "byteOffset": 543606,
      "byteLength": 6018,
      "target": 34963
    },
    {
      "buffer": 0,
      "byteOffset": 549624,
      "byteLength": 6018,
      "target": 34963
    },
    {
      "buffer": 0,
      "byteOffset": 555642,
      "byteLength": 4590,
      "target": 34963
    },
    {
      "buffer": 0,
      "byteOffset": 560232,
      "byteLength": 3510,
      "target": 34963
    },
    {
      "buffer": 0,
      "byteOffset": 563742,
      "byteLength": 6018,
      "target": 34963
    },
    {
      "buffer": 0,
      "byteOffset": 569760,
      "byteLength": 6018,
      "target": 34963
    },
    {
      "buffer": 0,
      "byteOffset": 575778,
      "byteLength": 3414,
      "target": 34963
    },
    {
      "buffer": 0,
      "byteOffset": 579192,
      "byteLength": 5526,
      "target": 34963
    },
    {
      "buffer": 0,
      "byteOffset": 584718,
      "byteLength": 3846,
      "target": 34963
    },
    {
      "buffer": 0,
      "byteOffset": 588564,
      "byteLength": 5526,
      "target": 34963
    },
    {
      "buffer": 0,
      "byteOffset": 594090,
      "byteLength": 3846,
      "target": 34963
    },
    {
      "buffer": 0,
      "byteOffset": 597936,
      "byteLength": 960,
      "target": 34963
    },
    {
      "buffer": 0,
      "byteOffset": 598896,
      "byteLength": 72,
      "target": 34963
    },
    {
      "buffer": 0,
      "byteOffset": 598968,
      "byteLength": 192,
      "target": 34963
    },
    {
      "buffer": 0,
      "byteOffset": 599160,
      "byteLength": 132,
      "target": 34963
    },
    {
      "buffer": 0,
      "byteOffset": 599292,
      "byteLength": 960,
      "target": 34963
    },
    {
      "buffer": 0,
      "byteOffset": 600252,
      "byteLength": 600,
      "target": 34963
    }
  ],
  "buffers": [
    {
      "byteLength": 600852,
      "uri": "checkpointbarrier01_open_bk.bin"
    }
  ]
}