{
  "asset": {
    "version": "2.0",
    "generator": "XBG to GLTF Converter with Textures"
  },
  "scene": 0,
  "scenes": [
    {
      "name": "Scene",
      "nodes": [
        6
      ]
    }
  ],
  "nodes": [
    {
      "name": "SandBags03_BK",
      "children": [
        1
      ]
    },
    {
      "name": "StatePrim",
      "translation": [
        0.0,
        -1.2199999446238508e-06,
        0.0
      ],
      "children": [
        2,
        3,
        4
      ]
    },
    {
      "name": "dbags03_State02_Base_Prim",
      "translation": [
        0.2592724561691284,
        -0.42583006620407104,
        0.11813610047101974
      ]
    },
    {
      "name": "andbags03_BK_State01_Prim"
    },
    {
      "name": "ags03_State02_Part01_Prim",
      "translation": [
        0.4317871034145355,
        -0.3248535096645355,
        0.5615704655647278
      ]
    },
    {
      "name": "MeshNode_LOD0",
      "mesh": 0,
      "skin": 0
    },
    {
      "name": "Correction_Root",
      "rotation": [
        -0.70710678,
        0.0,
        0.0,
        0.70710678
      ],
      "children": [
        0,
        5
      ]
    }
  ],
  "meshes": [
    {
      "name": "Mesh_LOD0",
      "primitives": [
        {
          "attributes": {
            "POSITION": 1,
            "JOINTS_0": 3,
            "WEIGHTS_0": 4,
            "TEXCOORD_0": 2
          },
          "indices": 5,
          "material": 0
        },
        {
          "attributes": {
            "POSITION": 1,
            "JOINTS_0": 3,
            "WEIGHTS_0": 4,
            "TEXCOORD_0": 2
          },
          "indices": 6,
          "material": 0
        },
        {
          "attributes": {
            "POSITION": 1,
            "JOINTS_0": 3,
            "WEIGHTS_0": 4,
            "TEXCOORD_0": 2
          },
          "indices": 7,
          "material": 0
        }
      ]
    }
  ],
  "skins": [
    {
      "inverseBindMatrices": 0,
      "joints": [
        0,
        1,
        2,
        3,
        4
      ],
      "name": "Armature",
      "skeleton": 0
    }
  ],
  "materials": [
    {
      "name": "GRAPHICS\\_MATERIALS\\MADESLONGCHAMPS-M-1909200757503126.xbm",
      "pbrMetallicRoughness": {
        "baseColorFactor": [
          1.0,
          1.0,
          1.0,
          1.0
        ],
        "metallicFactor": 0.0,
        "roughnessFactor": 1.0,
        "baseColorTexture": {
          "index": 0,
          "texCoord": 0
        }
      },
      "doubleSided": true
    }
  ],
  "textures": [
    {
      "sampler": 0,
      "source": 0
    }
  ],
  "images": [
    {
      "name": "red",
      "mimeType": "image/png",
      "uri": "data:image/png;base64,"
    }
  ],
  "samplers": [
    {
      "magFilter": 9729,
      "minFilter": 9987,
      "wrapS": 10497,
      "wrapT": 10497
    }
  ],
  "accessors": [
    {
      "bufferView": 0,
      "componentType": 5126,
      "count": 5,
      "type": "MAT4"
    },
    {
      "bufferView": 1,
      "componentType": 5126,
      "count": 1324,
      "type": "VEC3",
      "min": [
        -1.7100131213665009,
        -0.7253639325499535,
        -0.14032410643994808
      ],
      "max": [
        1.4598223809152842,
        1.126377146691084,
        0.6737266145646572
      ]
    },
    {
      "bufferView": 2,
      "componentType": 5126,
      "count": 1324,
      "type": "VEC2"
    },
    {
      "bufferView": 3,
      "componentType": 5123,
      "count": 1324,
      "type": "VEC4"
    },
    {
      "bufferView": 4,
      "componentType": 5126,
      "count": 1324,
      "type": "VEC4"
    },
    {
      "bufferView": 5,
      "componentType": 5123,
      "count": 3096,
      "type": "SCALAR"
    },
    {
      "bufferView": 6,
      "componentType": 5123,
      "count": 3324,
      "type": "SCALAR"
    },
    {
      "bufferView": 7,
      "componentType": 5123,
      "count": 228,
      "type": "SCALAR"
    }
  ],
  "bufferViews": [
    {
      "buffer": 0,
      "byteOffset": 0,
      "byteLength": 320
    },
    {
      "buffer": 0,
      "byteOffset": 320,
      "byteLength": 15888,
      "target": 34962
    },
    {
      "buffer": 0,
      "byteOffset": 16208,
      "byteLength": 10592,
      "target": 34962
    },
    {
      "buffer": 0,
      "byteOffset": 26800,
      "byteLength": 10592,
      "target": 34962
    },
    {
      "buffer": 0,
      "byteOffset": 37392,
      "byteLength": 21184,
      "target": 34962
    },
    {
      "buffer": 0,
      "byteOffset": 58576,
      "byteLength": 6192,
      "target": 34963
    },
    {
      "buffer": 0,
      "byteOffset": 64768,
      "byteLength": 6648,
      "target": 34963
    },
    {
      "buffer": 0,
      "byteOffset": 71416,
      "byteLength": 456,
      "target": 34963
    }
  ],
  "buffers": [
    {
      "byteLength": 71872,
      "uri": "sandbags03_bk.bin"
    }
  ]
}