{
  "asset": {
    "version": "2.0",
    "generator": "XBG to GLTF Converter with Textures"
  },
  "scene": 0,
  "scenes": [
    {
      "name": "Scene",
      "nodes": [
        9
      ]
    }
  ],
  "nodes": [
    {
      "name": "SandBags02_BK",
      "children": [
        1
      ]
    },
    {
      "name": "StatePrim",
      "children": [
        2,
        3,
        4,
        5,
        6,
        7
      ]
    },
    {
      "name": "Sandbags07State01_",
      "translation": [
        -0.004288829863071442,
        0.0,
        0.0
      ]
    },
    {
      "name": "SandBag04_Prim",
      "translation": [
        -0.6797949075698853,
        0.061528321355581284,
        0.5557961463928223
      ]
    },
    {
      "name": "SandBag01_Prim",
      "translation": [
        -0.35414549708366394,
        0.10217773169279099,
        0.8396170139312744
      ]
    },
    {
      "name": "SandBag03_Prim",
      "translation": [
        0.2926953136920929,
        0.08710449188947678,
        0.7068639397621155
      ]
    },
    {
      "name": "SandBag05_Prim",
      "translation": [
        0.39952147006988525,
        0.03548340126872063,
        0.5693146586418152
      ]
    },
    {
      "name": "SandBag_BASE_Prim",
      "translation": [
        -0.4236083924770355,
        0.0,
        0.0
      ]
    },
    {
      "name": "MeshNode_LOD0",
      "mesh": 0,
      "skin": 0
    },
    {
      "name": "Correction_Root",
      "rotation": [
        -0.70710678,
        0.0,
        0.0,
        0.70710678
      ],
      "children": [
        0,
        8
      ]
    }
  ],
  "meshes": [
    {
      "name": "Mesh_LOD0",
      "primitives": [
        {
          "attributes": {
            "POSITION": 1,
            "JOINTS_0": 3,
            "WEIGHTS_0": 4,
            "TEXCOORD_0": 2
          },
          "indices": 5,
          "material": 0
        },
        {
          "attributes": {
            "POSITION": 1,
            "JOINTS_0": 3,
            "WEIGHTS_0": 4,
            "TEXCOORD_0": 2
          },
          "indices": 6,
          "material": 0
        },
        {
          "attributes": {
            "POSITION": 1,
            "JOINTS_0": 3,
            "WEIGHTS_0": 4,
            "TEXCOORD_0": 2
          },
          "indices": 7,
          "material": 0
        },
        {
          "attributes": {
            "POSITION": 1,
            "JOINTS_0": 3,
            "WEIGHTS_0": 4,
            "TEXCOORD_0": 2
          },
          "indices": 8,
          "material": 0
        },
        {
          "attributes": {
            "POSITION": 1,
            "JOINTS_0": 3,
            "WEIGHTS_0": 4,
            "TEXCOORD_0": 2
          },
          "indices": 9,
          "material": 0
        },
        {
          "attributes": {
            "POSITION": 1,
            "JOINTS_0": 3,
            "WEIGHTS_0": 4,
            "TEXCOORD_0": 2
          },
          "indices": 10,
          "material": 0
        }
      ]
    }
  ],
  "skins": [
    {
      "inverseBindMatrices": 0,
      "joints": [
        0,
        1,
        2,
        3,
        4,
        5,
        6,
        7
      ],
      "name": "Armature",
      "skeleton": 0
    }
  ],
  "materials": [
    {
      "name": "GRAPHICS\\_MATERIALS\\MADESLONGCHAMPS-M-1909200757503126.xbm",
      "pbrMetallicRoughness": {
        "baseColorFactor": [
          1.0,
          1.0,
          1.0,
          1.0
        ],
        "metallicFactor": 0.0,
        "roughnessFactor": 1.0,
        "baseColorTexture": {
          "index": 0,
          "texCoord": 0
        }
      },
      "doubleSided": true
    }
  ],
  "textures": [
    {
      "sampler": 0,
      "source": 0
    }
  ],
  "images": [
    {
      "name": "red",
      "mimeType": "image/png",
      "uri": "data:image/png;base64,"
    }
  ],
  "samplers": [
    {
      "magFilter": 9729,
      "minFilter": 9987,
      "wrapS": 10497,
      "wrapT": 10497
    }
  ],
  "accessors": [
    {
      "bufferView": 0,
      "componentType": 5126,
      "count": 8,
      "type": "MAT4"
    },
    {
      "bufferView": 1,
      "componentType": 5126,
      "count": 1568,
      "type": "VEC3",
      "min": [
        -2.115939815528691,
        -0.369335001334548,
        -0.14813684485852718
      ],
      "max": [
        2.266090882010758,
        0.4480727557092905,
        0.9865108178928494
      ]
    },
    {
      "bufferView": 2,
      "componentType": 5126,
      "count": 1568,
      "type": "VEC2"
    },
    {
      "bufferView": 3,
      "componentType": 5123,
      "count": 1568,
      "type": "VEC4"
    },
    {
      "bufferView": 4,
      "componentType": 5126,
      "count": 1568,
      "type": "VEC4"
    },
    {
      "bufferView": 5,
      "componentType": 5123,
      "count": 2892,
      "type": "SCALAR"
    },
    {
      "bufferView": 6,
      "componentType": 5123,
      "count": 312,
      "type": "SCALAR"
    },
    {
      "bufferView": 7,
      "componentType": 5123,
      "count": 396,
      "type": "SCALAR"
    },
    {
      "bufferView": 8,
      "componentType": 5123,
      "count": 312,
      "type": "SCALAR"
    },
    {
      "bufferView": 9,
      "componentType": 5123,
      "count": 258,
      "type": "SCALAR"
    },
    {
      "bufferView": 10,
      "componentType": 5123,
      "count": 1614,
      "type": "SCALAR"
    }
  ],
  "bufferViews": [
    {
      "buffer": 0,
      "byteOffset": 0,
      "byteLength": 512
    },
    {
      "buffer": 0,
      "byteOffset": 512,
      "byteLength": 18816,
      "target": 34962
    },
    {
      "buffer": 0,
      "byteOffset": 19328,
      "byteLength": 12544,
      "target": 34962
    },
    {
      "buffer": 0,
      "byteOffset": 31872,
      "byteLength": 12544,
      "target": 34962
    },
    {
      "buffer": 0,
      "byteOffset": 44416,
      "byteLength": 25088,
      "target": 34962
    },
    {
      "buffer": 0,
      "byteOffset": 69504,
      "byteLength": 5784,
      "target": 34963
    },
    {
      "buffer": 0,
      "byteOffset": 75288,
      "byteLength": 624,
      "target": 34963
    },
    {
      "buffer": 0,
      "byteOffset": 75912,
      "byteLength": 792,
      "target": 34963
    },
    {
      "buffer": 0,
      "byteOffset": 76704,
      "byteLength": 624,
      "target": 34963
    },
    {
      "buffer": 0,
      "byteOffset": 77328,
      "byteLength": 516,
      "target": 34963
    },
    {
      "buffer": 0,
      "byteOffset": 77844,
      "byteLength": 3228,
      "target": 34963
    }
  ],
  "buffers": [
    {
      "byteLength": 81072,
      "uri": "sandbags02_bk.bin"
    }
  ]
}