{
  "asset": {
    "version": "2.0",
    "generator": "XBG to GLTF Converter with Textures"
  },
  "scene": 0,
  "scenes": [
    {
      "name": "Scene",
      "nodes": [
        8
      ]
    }
  ],
  "nodes": [
    {
      "name": "FLARE_GUN",
      "children": [
        1,
        2,
        4,
        5,
        6
      ]
    },
    {
      "name": "FRAME",
      "translation": [
        0.0,
        -0.142020583152771,
        0.0
      ]
    },
    {
      "name": "CLIP",
      "translation": [
        0.0,
        0.08003801852464676,
        0.09595920145511627
      ],
      "children": [
        3
      ]
    },
    {
      "name": "FLARE_SNAP",
      "translation": [
        9.99999993922529e-09,
        -0.058979690074920654,
        0.04198860004544258
      ]
    },
    {
      "name": "ACCESSORY",
      "translation": [
        9.99999993922529e-09,
        -0.0019587900023907423,
        0.158974751830101
      ]
    },
    {
      "name": "FX_FIRE",
      "translation": [
        1.999999987845058e-08,
        0.14710761606693268,
        0.13794779777526855
      ]
    },
    {
      "name": "Weapon_Break"
    },
    {
      "name": "MeshNode_LOD0",
      "mesh": 0,
      "skin": 0
    },
    {
      "name": "Correction_Root",
      "rotation": [
        -0.70710678,
        0.0,
        0.0,
        0.70710678
      ],
      "children": [
        0,
        7
      ]
    }
  ],
  "meshes": [
    {
      "name": "Mesh_LOD0",
      "primitives": [
        {
          "attributes": {
            "POSITION": 1,
            "JOINTS_0": 3,
            "WEIGHTS_0": 4,
            "TEXCOORD_0": 2
          },
          "indices": 5,
          "material": 0
        },
        {
          "attributes": {
            "POSITION": 1,
            "JOINTS_0": 3,
            "WEIGHTS_0": 4,
            "TEXCOORD_0": 2
          },
          "indices": 6,
          "material": 1
        },
        {
          "attributes": {
            "POSITION": 1,
            "JOINTS_0": 3,
            "WEIGHTS_0": 4,
            "TEXCOORD_0": 2
          },
          "indices": 7,
          "material": 1
        },
        {
          "attributes": {
            "POSITION": 1,
            "JOINTS_0": 3,
            "WEIGHTS_0": 4,
            "TEXCOORD_0": 2
          },
          "indices": 8,
          "material": 1
        }
      ]
    }
  ],
  "skins": [
    {
      "inverseBindMatrices": 0,
      "joints": [
        0,
        1,
        2,
        3,
        4,
        5,
        6
      ],
      "name": "Armature",
      "skeleton": 0
    }
  ],
  "materials": [
    {
      "name": "GRAPHICS\\_MATERIALS\\JPCORMIER-M-2007092638586739.xbm",
      "pbrMetallicRoughness": {
        "baseColorFactor": [
          1.0,
          1.0,
          1.0,
          1.0
        ],
        "metallicFactor": 0.0,
        "roughnessFactor": 1.0,
        "baseColorTexture": {
          "index": 0,
          "texCoord": 0
        }
      },
      "doubleSided": true
    },
    {
      "name": "GRAPHICS\\_MATERIALS\\JPCORMIER-M-2007092050801158.xbm",
      "pbrMetallicRoughness": {
        "baseColorFactor": [
          1.0,
          1.0,
          1.0,
          1.0
        ],
        "metallicFactor": 0.0,
        "roughnessFactor": 1.0,
        "baseColorTexture": {
          "index": 1,
          "texCoord": 0
        }
      },
      "doubleSided": true
    }
  ],
  "textures": [
    {
      "sampler": 0,
      "source": 0
    },
    {
      "sampler": 0,
      "source": 1
    }
  ],
  "images": [
    {
      "name": "dirt_02_d",
      "mimeType": "image/png",
      "uri": "data:image/png;base64,"
    },
    {
      "name": "dirtrust_03_d",
      "mimeType": "image/png",
      "uri": "data:image/png;base64,"
    }
  ],
  "samplers": [
    {
      "magFilter": 9729,
      "minFilter": 9987,
      "wrapS": 10497,
      "wrapT": 10497
    }
  ],
  "accessors": [
    {
      "bufferView": 0,
      "componentType": 5126,
      "count": 7,
      "type": "MAT4"
    },
    {
      "bufferView": 1,
      "componentType": 5126,
      "count": 5529,
      "type": "VEC3",
      "min": [
        -0.0337839899584651,
        -0.08462782669812441,
        -0.0239265114068985
      ],
      "max": [
        0.033753471449017525,
        0.23139133863151073,
        0.1716971341520548
      ]
    },
    {
      "bufferView": 2,
      "componentType": 5126,
      "count": 5529,
      "type": "VEC2"
    },
    {
      "bufferView": 3,
      "componentType": 5123,
      "count": 5529,
      "type": "VEC4"
    },
    {
      "bufferView": 4,
      "componentType": 5126,
      "count": 5529,
      "type": "VEC4"
    },
    {
      "bufferView": 5,
      "componentType": 5123,
      "count": 660,
      "type": "SCALAR"
    },
    {
      "bufferView": 6,
      "componentType": 5123,
      "count": 8316,
      "type": "SCALAR"
    },
    {
      "bufferView": 7,
      "componentType": 5123,
      "count": 7452,
      "type": "SCALAR"
    },
    {
      "bufferView": 8,
      "componentType": 5123,
      "count": 660,
      "type": "SCALAR"
    }
  ],
  "bufferViews": [
    {
      "buffer": 0,
      "byteOffset": 0,
      "byteLength": 448
    },
    {
      "buffer": 0,
      "byteOffset": 448,
      "byteLength": 66348,
      "target": 34962
    },
    {
      "buffer": 0,
      "byteOffset": 66796,
      "byteLength": 44232,
      "target": 34962
    },
    {
      "buffer": 0,
      "byteOffset": 111028,
      "byteLength": 44232,
      "target": 34962
    },
    {
      "buffer": 0,
      "byteOffset": 155260,
      "byteLength": 88464,
      "target": 34962
    },
    {
      "buffer": 0,
      "byteOffset": 243724,
      "byteLength": 1320,
      "target": 34963
    },
    {
      "buffer": 0,
      "byteOffset": 245044,
      "byteLength": 16632,
      "target": 34963
    },
    {
      "buffer": 0,
      "byteOffset": 261676,
      "byteLength": 14904,
      "target": 34963
    },
    {
      "buffer": 0,
      "byteOffset": 276580,
      "byteLength": 1320,
      "target": 34963
    }
  ],
  "buffers": [
    {
      "byteLength": 277900,
      "uri": "flare_gun.bin"
    }
  ]
}