{
  "asset": {
    "version": "2.0",
    "generator": "XBG to GLTF Converter with Textures"
  },
  "scene": 0,
  "scenes": [
    {
      "name": "Scene",
      "nodes": [
        13
      ]
    }
  ],
  "nodes": [
    {
      "name": "Pipeline_MO",
      "children": [
        1
      ]
    },
    {
      "name": "StatePrim",
      "translation": [
        -2.0375781059265137,
        -0.7442675828933716,
        0.3839743435382843
      ],
      "children": [
        2,
        3,
        10,
        11
      ]
    },
    {
      "name": "State02Prim",
      "translation": [
        0.0,
        0.0,
        0.37302684783935547
      ]
    },
    {
      "name": "State01Prim",
      "translation": [
        0.0,
        0.0,
        0.1667718142271042
      ],
      "children": [
        4,
        5,
        6,
        7,
        8,
        9
      ]
    },
    {
      "name": "bigpipe_FX",
      "translation": [
        1.471627950668335,
        0.5417176485061646,
        2.254796028137207
      ],
      "rotation": [
        0.024217551441729657,
        -0.08438515097521015,
        0.5968339487880991,
        0.7975474246136716
      ]
    },
    {
      "name": "Filet01_FX01",
      "translation": [
        2.084711790084839,
        0.21724948287010193,
        1.6342945098876953
      ],
      "rotation": [
        0.46194332439097846,
        -0.5335040641712507,
        0.4521852982575565,
        0.5454449762561763
      ]
    },
    {
      "name": "Filet02_FX02",
      "translation": [
        0.7476106286048889,
        0.776592493057251,
        1.1695055961608887
      ],
      "rotation": [
        0.7359188296399778,
        0.09045049085423143,
        -0.6699161026182552,
        0.03813922787738308
      ]
    },
    {
      "name": "Filet01_FX02",
      "translation": [
        3.073512315750122,
        0.4223760962486267,
        1.06162691116333
      ],
      "rotation": [
        0.5276275882669678,
        -0.4686441283183039,
        0.5195116557921396,
        0.48175664241497873
      ]
    },
    {
      "name": "Filet02_FX03",
      "translation": [
        0.7476147413253784,
        0.7765904664993286,
        1.4855751991271973
      ],
      "rotation": [
        -0.6747313793849865,
        -0.08678211370325406,
        0.731506472662262,
        -0.04587713018772911
      ]
    },
    {
      "name": "bang_FX03",
      "translation": [
        1.958646297454834,
        0.4441962242126465,
        1.7275642156600952
      ],
      "rotation": [
        0.46194332439097846,
        -0.5335040641712507,
        0.4521852982575565,
        0.5454449762561763
      ]
    },
    {
      "name": "NMD_Node01",
      "translation": [
        2.0478906631469727,
        -0.06012694910168648,
        1.7901121377944946
      ]
    },
    {
      "name": "NMD_Node02",
      "translation": [
        3.034472703933716,
        0.3236425817012787,
        1.215836763381958
      ]
    },
    {
      "name": "MeshNode_LOD0",
      "mesh": 0,
      "skin": 0
    },
    {
      "name": "Correction_Root",
      "rotation": [
        -0.70710678,
        0.0,
        0.0,
        0.70710678
      ],
      "children": [
        0,
        12
      ]
    }
  ],
  "meshes": [
    {
      "name": "Mesh_LOD0",
      "primitives": [
        {
          "attributes": {
            "POSITION": 1,
            "JOINTS_0": 3,
            "WEIGHTS_0": 4,
            "TEXCOORD_0": 2
          },
          "indices": 5,
          "material": 0
        },
        {
          "attributes": {
            "POSITION": 1,
            "JOINTS_0": 3,
            "WEIGHTS_0": 4,
            "TEXCOORD_0": 2
          },
          "indices": 6,
          "material": 1
        },
        {
          "attributes": {
            "POSITION": 1,
            "JOINTS_0": 3,
            "WEIGHTS_0": 4,
            "TEXCOORD_0": 2
          },
          "indices": 7,
          "material": 0
        },
        {
          "attributes": {
            "POSITION": 1,
            "JOINTS_0": 3,
            "WEIGHTS_0": 4,
            "TEXCOORD_0": 2
          },
          "indices": 8,
          "material": 1
        },
        {
          "attributes": {
            "POSITION": 1,
            "JOINTS_0": 3,
            "WEIGHTS_0": 4,
            "TEXCOORD_0": 2
          },
          "indices": 9,
          "material": 0
        },
        {
          "attributes": {
            "POSITION": 1,
            "JOINTS_0": 3,
            "WEIGHTS_0": 4,
            "TEXCOORD_0": 2
          },
          "indices": 10,
          "material": 1
        },
        {
          "attributes": {
            "POSITION": 1,
            "JOINTS_0": 3,
            "WEIGHTS_0": 4,
            "TEXCOORD_0": 2
          },
          "indices": 11,
          "material": 0
        },
        {
          "attributes": {
            "POSITION": 1,
            "JOINTS_0": 3,
            "WEIGHTS_0": 4,
            "TEXCOORD_0": 2
          },
          "indices": 12,
          "material": 1
        }
      ]
    }
  ],
  "skins": [
    {
      "inverseBindMatrices": 0,
      "joints": [
        0,
        1,
        2,
        3,
        4,
        5,
        6,
        7,
        8,
        9,
        10,
        11
      ],
      "name": "Armature",
      "skeleton": 0
    }
  ],
  "materials": [
    {
      "name": "GRAPHICS\\_MATERIALS\\HLEVASSEUR-M-2007101856972451.xbm",
      "pbrMetallicRoughness": {
        "baseColorFactor": [
          1.0,
          1.0,
          1.0,
          1.0
        ],
        "metallicFactor": 0.0,
        "roughnessFactor": 1.0,
        "baseColorTexture": {
          "index": 0,
          "texCoord": 0
        }
      },
      "doubleSided": true
    },
    {
      "name": "GRAPHICS\\_MATERIALS\\HLEVASSEUR-M-2007101736006891.xbm",
      "pbrMetallicRoughness": {
        "baseColorFactor": [
          1.0,
          1.0,
          1.0,
          1.0
        ],
        "metallicFactor": 0.0,
        "roughnessFactor": 1.0,
        "baseColorTexture": {
          "index": 1,
          "texCoord": 0
        }
      },
      "doubleSided": true
    }
  ],
  "textures": [
    {
      "sampler": 0,
      "source": 0
    },
    {
      "sampler": 0,
      "source": 1
    }
  ],
  "images": [
    {
      "name": "metal_01_d",
      "mimeType": "image/png",
      "uri": "data:image/png;base64,"
    },
    {
      "name": "infra_bridges_metal_dark_d",
      "mimeType": "image/png",
      "uri": "data:image/png;base64,"
    }
  ],
  "samplers": [
    {
      "magFilter": 9729,
      "minFilter": 9987,
      "wrapS": 10497,
      "wrapT": 10497
    }
  ],
  "accessors": [
    {
      "bufferView": 0,
      "componentType": 5126,
      "count": 12,
      "type": "MAT4"
    },
    {
      "bufferView": 1,
      "componentType": 5126,
      "count": 21181,
      "type": "VEC3",
      "min": [
        -0.3206274602562189,
        0.010071108117699623,
        -1.0810876786708832
      ],
      "max": [
        3.1687368359416723,
        1.471663562580943,
        5.312967309728265
      ]
    },
    {
      "bufferView": 2,
      "componentType": 5126,
      "count": 21181,
      "type": "VEC2"
    },
    {
      "bufferView": 3,
      "componentType": 5123,
      "count": 21181,
      "type": "VEC4"
    },
    {
      "bufferView": 4,
      "componentType": 5126,
      "count": 21181,
      "type": "VEC4"
    },
    {
      "bufferView": 5,
      "componentType": 5123,
      "count": 216,
      "type": "SCALAR"
    },
    {
      "bufferView": 6,
      "componentType": 5123,
      "count": 24858,
      "type": "SCALAR"
    },
    {
      "bufferView": 7,
      "componentType": 5123,
      "count": 1416,
      "type": "SCALAR"
    },
    {
      "bufferView": 8,
      "componentType": 5123,
      "count": 24366,
      "type": "SCALAR"
    },
    {
      "bufferView": 9,
      "componentType": 5123,
      "count": 600,
      "type": "SCALAR"
    },
    {
      "bufferView": 10,
      "componentType": 5123,
      "count": 297,
      "type": "SCALAR"
    },
    {
      "bufferView": 11,
      "componentType": 5123,
      "count": 600,
      "type": "SCALAR"
    },
    {
      "bufferView": 12,
      "componentType": 5123,
      "count": 297,
      "type": "SCALAR"
    }
  ],
  "bufferViews": [
    {
      "buffer": 0,
      "byteOffset": 0,
      "byteLength": 768
    },
    {
      "buffer": 0,
      "byteOffset": 768,
      "byteLength": 254172,
      "target": 34962
    },
    {
      "buffer": 0,
      "byteOffset": 254940,
      "byteLength": 169448,
      "target": 34962
    },
    {
      "buffer": 0,
      "byteOffset": 424388,
      "byteLength": 169448,
      "target": 34962
    },
    {
      "buffer": 0,
      "byteOffset": 593836,
      "byteLength": 338896,
      "target": 34962
    },
    {
      "buffer": 0,
      "byteOffset": 932732,
      "byteLength": 432,
      "target": 34963
    },
    {
      "buffer": 0,
      "byteOffset": 933164,
      "byteLength": 49716,
      "target": 34963
    },
    {
      "buffer": 0,
      "byteOffset": 982880,
      "byteLength": 2832,
      "target": 34963
    },
    {
      "buffer": 0,
      "byteOffset": 985712,
      "byteLength": 48732,
      "target": 34963
    },
    {
      "buffer": 0,
      "byteOffset": 1034444,
      "byteLength": 1200,
      "target": 34963
    },
    {
      "buffer": 0,
      "byteOffset": 1035644,
      "byteLength": 594,
      "target": 34963
    },
    {
      "buffer": 0,
      "byteOffset": 1036238,
      "byteLength": 1200,
      "target": 34963
    },
    {
      "buffer": 0,
      "byteOffset": 1037438,
      "byteLength": 594,
      "target": 34963
    }
  ],
  "buffers": [
    {
      "byteLength": 1038032,
      "uri": "pipeline_mo.bin"
    }
  ]
}