{
  "asset": {
    "version": "2.0",
    "generator": "XBG to GLTF Converter with Textures"
  },
  "scene": 0,
  "scenes": [
    {
      "name": "Scene",
      "nodes": [
        10
      ]
    }
  ],
  "nodes": [
    {
      "name": "GRENADE_LAUNCHER_02",
      "children": [
        1,
        2,
        3,
        4,
        6,
        7,
        8
      ]
    },
    {
      "name": "COMBAT_SHOTGUN_FX_FIRE",
      "translation": [
        0.45585426688194275,
        0.009649270214140415,
        0.13937276601791382
      ],
      "rotation": [
        -1.697056291050108e-07,
        1.6970560899112813e-07,
        -0.7071067690849289,
        0.7071067932881252
      ]
    },
    {
      "name": "COMBAT_SHOTGUN_FRAME",
      "translation": [
        -0.2615373432636261,
        0.00492716021835804,
        -0.0441807396709919
      ]
    },
    {
      "name": "COMBAT_SHOTGUN_CLIP",
      "translation": [
        -0.16424015164375305,
        0.006526949815452099,
        0.008658469654619694
      ]
    },
    {
      "name": "COMBAT_SHOTGUN_PUMP",
      "translation": [
        0.2949666976928711,
        0.005441400222480297,
        0.01975923962891102
      ],
      "children": [
        5
      ]
    },
    {
      "name": "Flashlight_Bone",
      "translation": [
        0.15377789735794067,
        0.004208209924399853,
        0.08052819967269897
      ],
      "rotation": [
        5.656848856005673e-08,
        -5.656848662385607e-08,
        -0.7071061134338149,
        0.707107448938645
      ]
    },
    {
      "name": "COMBAT_SHOTGUN_CLIP_B",
      "translation": [
        0.16153809428215027,
        -0.013192540034651756,
        -0.010965259745717049
      ]
    },
    {
      "name": "COMBAT_SHOTGUN_FX_FIRE_02",
      "translation": [
        0.45585426688194275,
        0.009649259969592094,
        0.05937895178794861
      ],
      "rotation": [
        -1.697056291050108e-07,
        1.6970560899112813e-07,
        -0.7071067690849289,
        0.7071067932881252
      ]
    },
    {
      "name": "COMBAT_SHOTGUN_FX_CASING",
      "translation": [
        0.08456592261791229,
        -0.06333378702402115,
        0.18071249127388
      ],
      "rotation": [
        -1.9999999876979096e-08,
        0.30070585042850034,
        0.953716934691877,
        -4.371138841252825e-08
      ]
    },
    {
      "name": "MeshNode_LOD0",
      "mesh": 0,
      "skin": 0
    },
    {
      "name": "Correction_Root",
      "rotation": [
        -0.70710678,
        0.0,
        0.0,
        0.70710678
      ],
      "children": [
        0,
        9
      ]
    }
  ],
  "meshes": [
    {
      "name": "Mesh_LOD0",
      "primitives": [
        {
          "attributes": {
            "POSITION": 1,
            "JOINTS_0": 3,
            "WEIGHTS_0": 4,
            "TEXCOORD_0": 2
          },
          "indices": 5,
          "material": 0
        },
        {
          "attributes": {
            "POSITION": 1,
            "JOINTS_0": 3,
            "WEIGHTS_0": 4,
            "TEXCOORD_0": 2
          },
          "indices": 6,
          "material": 1
        },
        {
          "attributes": {
            "POSITION": 1,
            "JOINTS_0": 3,
            "WEIGHTS_0": 4,
            "TEXCOORD_0": 2
          },
          "indices": 7,
          "material": 0
        },
        {
          "attributes": {
            "POSITION": 1,
            "JOINTS_0": 3,
            "WEIGHTS_0": 4,
            "TEXCOORD_0": 2
          },
          "indices": 8,
          "material": 1
        }
      ]
    }
  ],
  "skins": [
    {
      "inverseBindMatrices": 0,
      "joints": [
        0,
        1,
        2,
        3,
        4,
        5,
        6,
        7,
        8
      ],
      "name": "Armature",
      "skeleton": 0
    }
  ],
  "materials": [
    {
      "name": "GRAPHICS\\_MATERIALS\\GRASSAM-M-2009031353597896.xbm",
      "pbrMetallicRoughness": {
        "baseColorFactor": [
          1.0,
          1.0,
          1.0,
          1.0
        ],
        "metallicFactor": 0.0,
        "roughnessFactor": 1.0,
        "baseColorTexture": {
          "index": 0,
          "texCoord": 0
        }
      },
      "doubleSided": true
    },
    {
      "name": "GRAPHICS\\_MATERIALS\\DPAYNE-M-1812200841647821.xbm",
      "pbrMetallicRoughness": {
        "baseColorFactor": [
          1.0,
          1.0,
          1.0,
          1.0
        ],
        "metallicFactor": 0.0,
        "roughnessFactor": 1.0,
        "baseColorTexture": {
          "index": 1,
          "texCoord": 0
        }
      },
      "doubleSided": true
    }
  ],
  "textures": [
    {
      "sampler": 0,
      "source": 0
    },
    {
      "sampler": 0,
      "source": 1
    }
  ],
  "images": [
    {
      "name": "grenade_launcher_3rd_02_d",
      "mimeType": "image/png",
      "uri": "data:image/png;base64,"
    },
    {
      "name": "iconic_grey_d",
      "mimeType": "image/png",
      "uri": "data:image/png;base64,"
    }
  ],
  "samplers": [
    {
      "magFilter": 9729,
      "minFilter": 9987,
      "wrapS": 10497,
      "wrapT": 10497
    }
  ],
  "accessors": [
    {
      "bufferView": 0,
      "componentType": 5126,
      "count": 9,
      "type": "MAT4"
    },
    {
      "bufferView": 1,
      "componentType": 5126,
      "count": 835,
      "type": "VEC3",
      "min": [
        -0.05038605909794569,
        -0.045258949510753155,
        -0.09289834275841713
      ],
      "max": [
        0.5508285770192742,
        0.052064577117562294,
        0.2644734028726816
      ]
    },
    {
      "bufferView": 2,
      "componentType": 5126,
      "count": 835,
      "type": "VEC2"
    },
    {
      "bufferView": 3,
      "componentType": 5123,
      "count": 835,
      "type": "VEC4"
    },
    {
      "bufferView": 4,
      "componentType": 5126,
      "count": 835,
      "type": "VEC4"
    },
    {
      "bufferView": 5,
      "componentType": 5123,
      "count": 1386,
      "type": "SCALAR"
    },
    {
      "bufferView": 6,
      "componentType": 5123,
      "count": 3,
      "type": "SCALAR"
    },
    {
      "bufferView": 7,
      "componentType": 5123,
      "count": 690,
      "type": "SCALAR"
    },
    {
      "bufferView": 8,
      "componentType": 5123,
      "count": 3,
      "type": "SCALAR"
    }
  ],
  "bufferViews": [
    {
      "buffer": 0,
      "byteOffset": 0,
      "byteLength": 576
    },
    {
      "buffer": 0,
      "byteOffset": 576,
      "byteLength": 10020,
      "target": 34962
    },
    {
      "buffer": 0,
      "byteOffset": 10596,
      "byteLength": 6680,
      "target": 34962
    },
    {
      "buffer": 0,
      "byteOffset": 17276,
      "byteLength": 6680,
      "target": 34962
    },
    {
      "buffer": 0,
      "byteOffset": 23956,
      "byteLength": 13360,
      "target": 34962
    },
    {
      "buffer": 0,
      "byteOffset": 37316,
      "byteLength": 2772,
      "target": 34963
    },
    {
      "buffer": 0,
      "byteOffset": 40088,
      "byteLength": 6,
      "target": 34963
    },
    {
      "buffer": 0,
      "byteOffset": 40094,
      "byteLength": 1380,
      "target": 34963
    },
    {
      "buffer": 0,
      "byteOffset": 41474,
      "byteLength": 6,
      "target": 34963
    }
  ],
  "buffers": [
    {
      "byteLength": 41480,
      "uri": "grenade_launcher_02.bin"
    }
  ]
}