{
  "asset": {
    "version": "2.0",
    "generator": "XBG to GLTF Converter with Textures"
  },
  "scene": 0,
  "scenes": [
    {
      "name": "Scene",
      "nodes": [
        11
      ]
    }
  ],
  "nodes": [
    {
      "name": "GRENADE_LAUNCHER_03",
      "children": [
        1,
        2,
        3,
        4,
        6,
        7,
        8,
        9
      ]
    },
    {
      "name": "COMBAT_SHOTGUN_FX_FIRE",
      "translation": [
        0.5049736499786377,
        -0.02280239947140217,
        0.12240208685398102
      ],
      "rotation": [
        -1.697056291050108e-07,
        1.6970560899112813e-07,
        -0.7071067690849289,
        0.7071067932881252
      ]
    },
    {
      "name": "COMBAT_SHOTGUN_FRAME",
      "translation": [
        -0.2615373432636261,
        0.00492716021835804,
        -0.0441807396709919
      ]
    },
    {
      "name": "COMBAT_SHOTGUN_CLIP",
      "translation": [
        -0.16424015164375305,
        0.006526949815452099,
        0.008658469654619694
      ]
    },
    {
      "name": "COMBAT_SHOTGUN_PUMP",
      "translation": [
        0.3020763397216797,
        0.005441389977931976,
        0.01975923962891102
      ],
      "children": [
        5
      ]
    },
    {
      "name": "Flashlight_Bone",
      "translation": [
        0.202897310256958,
        0.0031364900059998035,
        0.08071600645780563
      ],
      "rotation": [
        5.656848856005673e-08,
        -5.656848662385607e-08,
        -0.7071061134338149,
        0.707107448938645
      ]
    },
    {
      "name": "COMBAT_SHOTGUN_CLIP_B",
      "translation": [
        0.16153809428215027,
        -0.013192540034651756,
        -0.010965259745717049
      ]
    },
    {
      "name": "COMBAT_SHOTGUN_FX_FIRE_02",
      "translation": [
        0.5049736499786377,
        0.008733970113098621,
        0.06500619649887085
      ],
      "rotation": [
        -1.697056291050108e-07,
        1.6970560899112813e-07,
        -0.7071067690849289,
        0.7071067932881252
      ]
    },
    {
      "name": "COMBAT_SHOTGUN_FX_CASING",
      "translation": [
        0.08456592261791229,
        -0.06333378702402115,
        0.18071249127388
      ],
      "rotation": [
        -1.9999999876979096e-08,
        0.30070585042850034,
        0.953716934691877,
        -4.371138841252825e-08
      ]
    },
    {
      "name": "COMBAT_SHOTGUN_FX_FIRE_03",
      "translation": [
        0.5049736499786377,
        0.03953487053513527,
        0.12240207195281982
      ],
      "rotation": [
        -1.4849243508654712e-07,
        1.9091881973468112e-07,
        -0.707106769084929,
        0.7071067932881245
      ]
    },
    {
      "name": "MeshNode_LOD0",
      "mesh": 0,
      "skin": 0
    },
    {
      "name": "Correction_Root",
      "rotation": [
        -0.70710678,
        0.0,
        0.0,
        0.70710678
      ],
      "children": [
        0,
        10
      ]
    }
  ],
  "meshes": [
    {
      "name": "Mesh_LOD0",
      "primitives": [
        {
          "attributes": {
            "POSITION": 1,
            "JOINTS_0": 3,
            "WEIGHTS_0": 4,
            "TEXCOORD_0": 2
          },
          "indices": 5,
          "material": 1
        },
        {
          "attributes": {
            "POSITION": 1,
            "JOINTS_0": 3,
            "WEIGHTS_0": 4,
            "TEXCOORD_0": 2
          },
          "indices": 6,
          "material": 0
        },
        {
          "attributes": {
            "POSITION": 1,
            "JOINTS_0": 3,
            "WEIGHTS_0": 4,
            "TEXCOORD_0": 2
          },
          "indices": 7,
          "material": 1
        },
        {
          "attributes": {
            "POSITION": 1,
            "JOINTS_0": 3,
            "WEIGHTS_0": 4,
            "TEXCOORD_0": 2
          },
          "indices": 8,
          "material": 0
        }
      ]
    }
  ],
  "skins": [
    {
      "inverseBindMatrices": 0,
      "joints": [
        0,
        1,
        2,
        3,
        4,
        5,
        6,
        7,
        8,
        9
      ],
      "name": "Armature",
      "skeleton": 0
    }
  ],
  "materials": [
    {
      "name": "GRAPHICS\\_MATERIALS\\DPAYNE-M-1812200841647821.xbm",
      "pbrMetallicRoughness": {
        "baseColorFactor": [
          1.0,
          1.0,
          1.0,
          1.0
        ],
        "metallicFactor": 0.0,
        "roughnessFactor": 1.0,
        "baseColorTexture": {
          "index": 0,
          "texCoord": 0
        }
      },
      "doubleSided": true
    },
    {
      "name": "GRAPHICS\\_MATERIALS\\GRASSAM-M-2009031661426689.xbm",
      "pbrMetallicRoughness": {
        "baseColorFactor": [
          1.0,
          1.0,
          1.0,
          1.0
        ],
        "metallicFactor": 0.0,
        "roughnessFactor": 1.0,
        "baseColorTexture": {
          "index": 1,
          "texCoord": 0
        }
      },
      "doubleSided": true
    }
  ],
  "textures": [
    {
      "sampler": 0,
      "source": 0
    },
    {
      "sampler": 0,
      "source": 1
    }
  ],
  "images": [
    {
      "name": "iconic_grey_d",
      "mimeType": "image/png",
      "uri": "data:image/png;base64,"
    },
    {
      "name": "grenade_launcher_3rd_03_d",
      "mimeType": "image/png",
      "uri": "data:image/png;base64,"
    }
  ],
  "samplers": [
    {
      "magFilter": 9729,
      "minFilter": 9987,
      "wrapS": 10497,
      "wrapT": 10497
    }
  ],
  "accessors": [
    {
      "bufferView": 0,
      "componentType": 5126,
      "count": 10,
      "type": "MAT4"
    },
    {
      "bufferView": 1,
      "componentType": 5126,
      "count": 990,
      "type": "VEC3",
      "min": [
        -0.08862575143575668,
        -0.06851405370980501,
        -0.13254188653081656
      ],
      "max": [
        0.5682241274043918,
        0.07156590465456247,
        0.2639240697026253
      ]
    },
    {
      "bufferView": 2,
      "componentType": 5126,
      "count": 990,
      "type": "VEC2"
    },
    {
      "bufferView": 3,
      "componentType": 5123,
      "count": 990,
      "type": "VEC4"
    },
    {
      "bufferView": 4,
      "componentType": 5126,
      "count": 990,
      "type": "VEC4"
    },
    {
      "bufferView": 5,
      "componentType": 5123,
      "count": 1302,
      "type": "SCALAR"
    },
    {
      "bufferView": 6,
      "componentType": 5123,
      "count": 3,
      "type": "SCALAR"
    },
    {
      "bufferView": 7,
      "componentType": 5123,
      "count": 1230,
      "type": "SCALAR"
    },
    {
      "bufferView": 8,
      "componentType": 5123,
      "count": 3,
      "type": "SCALAR"
    }
  ],
  "bufferViews": [
    {
      "buffer": 0,
      "byteOffset": 0,
      "byteLength": 640
    },
    {
      "buffer": 0,
      "byteOffset": 640,
      "byteLength": 11880,
      "target": 34962
    },
    {
      "buffer": 0,
      "byteOffset": 12520,
      "byteLength": 7920,
      "target": 34962
    },
    {
      "buffer": 0,
      "byteOffset": 20440,
      "byteLength": 7920,
      "target": 34962
    },
    {
      "buffer": 0,
      "byteOffset": 28360,
      "byteLength": 15840,
      "target": 34962
    },
    {
      "buffer": 0,
      "byteOffset": 44200,
      "byteLength": 2604,
      "target": 34963
    },
    {
      "buffer": 0,
      "byteOffset": 46804,
      "byteLength": 6,
      "target": 34963
    },
    {
      "buffer": 0,
      "byteOffset": 46810,
      "byteLength": 2460,
      "target": 34963
    },
    {
      "buffer": 0,
      "byteOffset": 49270,
      "byteLength": 6,
      "target": 34963
    }
  ],
  "buffers": [
    {
      "byteLength": 49276,
      "uri": "grenade_launcher_03.bin"
    }
  ]
}