{
  "asset": {
    "version": "2.0",
    "generator": "XBG to GLTF Converter with Textures"
  },
  "scene": 0,
  "scenes": [
    {
      "name": "Scene",
      "nodes": [
        7
      ]
    }
  ],
  "nodes": [
    {
      "name": "GRENADE_LAUNCHER",
      "children": [
        1,
        2,
        3,
        4,
        5
      ]
    },
    {
      "name": "COMBAT_SHOTGUN_FX_FIRE",
      "translation": [
        0.5139966607093811,
        0.009649259969592094,
        0.13206948339939117
      ],
      "rotation": [
        -1.697056291050108e-07,
        1.6970560899112813e-07,
        -0.7071067690849289,
        0.7071067932881252
      ]
    },
    {
      "name": "COMBAT_SHOTGUN_FRAME",
      "translation": [
        -0.2615373432636261,
        0.00492716021835804,
        -0.0441807396709919
      ]
    },
    {
      "name": "COMBAT_SHOTGUN_CLIP",
      "translation": [
        -0.16424015164375305,
        0.006526949815452099,
        0.008658469654619694
      ]
    },
    {
      "name": "COMBAT_SHOTGUN_PUMP",
      "translation": [
        0.3020763397216797,
        0.005441389977931976,
        0.01975923962891102
      ]
    },
    {
      "name": "COMBAT_SHOTGUN_CLIP_B",
      "translation": [
        0.16153809428215027,
        -0.013192540034651756,
        -0.010965259745717049
      ]
    },
    {
      "name": "MeshNode_LOD0",
      "mesh": 0,
      "skin": 0
    },
    {
      "name": "Correction_Root",
      "rotation": [
        -0.70710678,
        0.0,
        0.0,
        0.70710678
      ],
      "children": [
        0,
        6
      ]
    }
  ],
  "meshes": [
    {
      "name": "Mesh_LOD0",
      "primitives": [
        {
          "attributes": {
            "POSITION": 1,
            "JOINTS_0": 3,
            "WEIGHTS_0": 4,
            "TEXCOORD_0": 2
          },
          "indices": 5,
          "material": 0
        },
        {
          "attributes": {
            "POSITION": 1,
            "JOINTS_0": 3,
            "WEIGHTS_0": 4,
            "TEXCOORD_0": 2
          },
          "indices": 6,
          "material": 1
        },
        {
          "attributes": {
            "POSITION": 1,
            "JOINTS_0": 3,
            "WEIGHTS_0": 4,
            "TEXCOORD_0": 2
          },
          "indices": 7,
          "material": 0
        },
        {
          "attributes": {
            "POSITION": 1,
            "JOINTS_0": 3,
            "WEIGHTS_0": 4,
            "TEXCOORD_0": 2
          },
          "indices": 8,
          "material": 1
        }
      ]
    }
  ],
  "skins": [
    {
      "inverseBindMatrices": 0,
      "joints": [
        0,
        1,
        2,
        3,
        4,
        5
      ],
      "name": "Armature",
      "skeleton": 0
    }
  ],
  "materials": [
    {
      "name": "GRAPHICS\\_MATERIALS\\SGAGNON-M-2009010561615295.xbm",
      "pbrMetallicRoughness": {
        "baseColorFactor": [
          1.0,
          1.0,
          1.0,
          1.0
        ],
        "metallicFactor": 0.0,
        "roughnessFactor": 1.0,
        "baseColorTexture": {
          "index": 0,
          "texCoord": 0
        }
      },
      "doubleSided": true
    },
    {
      "name": "GRAPHICS\\_MATERIALS\\DPAYNE-M-1812200841647821.xbm",
      "pbrMetallicRoughness": {
        "baseColorFactor": [
          1.0,
          1.0,
          1.0,
          1.0
        ],
        "metallicFactor": 0.0,
        "roughnessFactor": 1.0,
        "baseColorTexture": {
          "index": 1,
          "texCoord": 0
        }
      },
      "doubleSided": true
    }
  ],
  "textures": [
    {
      "sampler": 0,
      "source": 0
    },
    {
      "sampler": 0,
      "source": 1
    }
  ],
  "images": [
    {
      "name": "grenade_launcher_3rd_01_d",
      "mimeType": "image/png",
      "uri": "data:image/png;base64,"
    },
    {
      "name": "iconic_grey_d",
      "mimeType": "image/png",
      "uri": "data:image/png;base64,"
    }
  ],
  "samplers": [
    {
      "magFilter": 9729,
      "minFilter": 9987,
      "wrapS": 10497,
      "wrapT": 10497
    }
  ],
  "accessors": [
    {
      "bufferView": 0,
      "componentType": 5126,
      "count": 6,
      "type": "MAT4"
    },
    {
      "bufferView": 1,
      "componentType": 5126,
      "count": 977,
      "type": "VEC3",
      "min": [
        -0.05539109464734793,
        -0.05078279972076416,
        -0.0950956754386425
      ],
      "max": [
        0.5254371771588922,
        0.05572679825127125,
        0.2702414011582732
      ]
    },
    {
      "bufferView": 2,
      "componentType": 5126,
      "count": 977,
      "type": "VEC2"
    },
    {
      "bufferView": 3,
      "componentType": 5123,
      "count": 977,
      "type": "VEC4"
    },
    {
      "bufferView": 4,
      "componentType": 5126,
      "count": 977,
      "type": "VEC4"
    },
    {
      "bufferView": 5,
      "componentType": 5123,
      "count": 1002,
      "type": "SCALAR"
    },
    {
      "bufferView": 6,
      "componentType": 5123,
      "count": 3,
      "type": "SCALAR"
    },
    {
      "bufferView": 7,
      "componentType": 5123,
      "count": 1002,
      "type": "SCALAR"
    },
    {
      "bufferView": 8,
      "componentType": 5123,
      "count": 3,
      "type": "SCALAR"
    }
  ],
  "bufferViews": [
    {
      "buffer": 0,
      "byteOffset": 0,
      "byteLength": 384
    },
    {
      "buffer": 0,
      "byteOffset": 384,
      "byteLength": 11724,
      "target": 34962
    },
    {
      "buffer": 0,
      "byteOffset": 12108,
      "byteLength": 7816,
      "target": 34962
    },
    {
      "buffer": 0,
      "byteOffset": 19924,
      "byteLength": 7816,
      "target": 34962
    },
    {
      "buffer": 0,
      "byteOffset": 27740,
      "byteLength": 15632,
      "target": 34962
    },
    {
      "buffer": 0,
      "byteOffset": 43372,
      "byteLength": 2004,
      "target": 34963
    },
    {
      "buffer": 0,
      "byteOffset": 45376,
      "byteLength": 6,
      "target": 34963
    },
    {
      "buffer": 0,
      "byteOffset": 45382,
      "byteLength": 2004,
      "target": 34963
    },
    {
      "buffer": 0,
      "byteOffset": 47386,
      "byteLength": 6,
      "target": 34963
    }
  ],
  "buffers": [
    {
      "byteLength": 47392,
      "uri": "grenade_launcher.bin"
    }
  ]
}