{
  "asset": {
    "version": "2.0",
    "generator": "XBG to GLTF Converter with Textures"
  },
  "scene": 0,
  "scenes": [
    {
      "name": "Scene",
      "nodes": [
        13
      ]
    }
  ],
  "nodes": [
    {
      "name": "BeerBoxClosed_BK",
      "children": [
        1
      ]
    },
    {
      "name": "StatePrim",
      "translation": [
        -0.11970462650060654,
        0.0,
        0.0
      ],
      "children": [
        2,
        6,
        9
      ]
    },
    {
      "name": "State01Prim",
      "translation": [
        0.0,
        0.0,
        0.1053413674235344
      ],
      "children": [
        3,
        4,
        5
      ]
    },
    {
      "name": "BeerBoxClosed_FX_ST1",
      "translation": [
        0.12049724161624908,
        -0.008857419714331627,
        0.06512376666069031
      ]
    },
    {
      "name": "Glass_ST1",
      "translation": [
        0.12049724161624908,
        -0.008857419714331627,
        0.12865233421325684
      ]
    },
    {
      "name": "BeerBoxClosed_FX_ST02",
      "translation": [
        0.12049724161624908,
        -0.008857419714331627,
        0.04665672034025192
      ],
      "rotation": [
        0.9999999999999927,
        -7.999999951380174e-08,
        -7.999999951380171e-08,
        -4.371138828673696e-08
      ]
    },
    {
      "name": "BottleBeer01",
      "translation": [
        0.20474563539028168,
        -0.01513122022151947,
        0.03189282864332199
      ],
      "children": [
        7,
        8
      ]
    },
    {
      "name": "BeerBoxClosed_FX01",
      "translation": [
        0.008141330443322659,
        0.006273800041526556,
        0.09832088649272919
      ]
    },
    {
      "name": "BeerBoxClosed_FX03",
      "translation": [
        0.008141330443322659,
        0.006273800041526556,
        0.05439535900950432
      ]
    },
    {
      "name": "BottleBeer02",
      "translation": [
        0.049930639564991,
        -0.01513122022151947,
        0.03189282864332199
      ],
      "children": [
        10,
        11
      ]
    },
    {
      "name": "BeerBoxClosed_FX02",
      "translation": [
        0.008141330443322659,
        0.006273800041526556,
        0.07519494742155075
      ]
    },
    {
      "name": "BeerBoxClosed_FX04",
      "translation": [
        0.008141330443322659,
        0.006273800041526556,
        0.05439535900950432
      ]
    },
    {
      "name": "MeshNode_LOD0",
      "mesh": 0,
      "skin": 0
    },
    {
      "name": "Correction_Root",
      "rotation": [
        -0.70710678,
        0.0,
        0.0,
        0.70710678
      ],
      "children": [
        0,
        12
      ]
    }
  ],
  "meshes": [
    {
      "name": "Mesh_LOD0",
      "primitives": [
        {
          "attributes": {
            "POSITION": 1,
            "JOINTS_0": 3,
            "WEIGHTS_0": 4,
            "TEXCOORD_0": 2
          },
          "indices": 5,
          "material": 2
        },
        {
          "attributes": {
            "POSITION": 1,
            "JOINTS_0": 3,
            "WEIGHTS_0": 4,
            "TEXCOORD_0": 2
          },
          "indices": 6,
          "material": 3
        },
        {
          "attributes": {
            "POSITION": 1,
            "JOINTS_0": 3,
            "WEIGHTS_0": 4,
            "TEXCOORD_0": 2
          },
          "indices": 7,
          "material": 0
        },
        {
          "attributes": {
            "POSITION": 1,
            "JOINTS_0": 3,
            "WEIGHTS_0": 4,
            "TEXCOORD_0": 2
          },
          "indices": 8,
          "material": 1
        },
        {
          "attributes": {
            "POSITION": 1,
            "JOINTS_0": 3,
            "WEIGHTS_0": 4,
            "TEXCOORD_0": 2
          },
          "indices": 9,
          "material": 0
        },
        {
          "attributes": {
            "POSITION": 1,
            "JOINTS_0": 3,
            "WEIGHTS_0": 4,
            "TEXCOORD_0": 2
          },
          "indices": 10,
          "material": 1
        }
      ]
    }
  ],
  "skins": [
    {
      "inverseBindMatrices": 0,
      "joints": [
        0,
        1,
        2,
        3,
        4,
        5,
        6,
        7,
        8,
        9,
        10,
        11
      ],
      "name": "Armature",
      "skeleton": 0
    }
  ],
  "materials": [
    {
      "name": "GRAPHICS\\_MATERIALS\\PFERNANDEZ-M-2007031257196216.xbm",
      "pbrMetallicRoughness": {
        "baseColorFactor": [
          1.0,
          1.0,
          1.0,
          1.0
        ],
        "metallicFactor": 0.0,
        "roughnessFactor": 1.0,
        "baseColorTexture": {
          "index": 0,
          "texCoord": 0
        }
      },
      "doubleSided": true
    },
    {
      "name": "GRAPHICS\\_MATERIALS\\JOMALLEY-M-1411200742097863.xbm",
      "pbrMetallicRoughness": {
        "baseColorFactor": [
          1.0,
          1.0,
          1.0,
          1.0
        ],
        "metallicFactor": 0.0,
        "roughnessFactor": 1.0,
        "baseColorTexture": {
          "index": 1,
          "texCoord": 0
        }
      },
      "doubleSided": true
    },
    {
      "name": "GRAPHICS\\_MATERIALS\\SDORE2-M-2007101758698523.xbm",
      "pbrMetallicRoughness": {
        "baseColorFactor": [
          1.0,
          1.0,
          1.0,
          1.0
        ],
        "metallicFactor": 0.0,
        "roughnessFactor": 1.0,
        "baseColorTexture": {
          "index": 2,
          "texCoord": 0
        }
      },
      "doubleSided": true
    },
    {
      "name": "GRAPHICS\\_MATERIALS\\JOMALLEY-M-1411200737947823.xbm",
      "pbrMetallicRoughness": {
        "baseColorFactor": [
          1.0,
          1.0,
          1.0,
          1.0
        ],
        "metallicFactor": 0.0,
        "roughnessFactor": 1.0,
        "baseColorTexture": {
          "index": 3,
          "texCoord": 0
        }
      },
      "doubleSided": true
    }
  ],
  "textures": [
    {
      "sampler": 0,
      "source": 0
    },
    {
      "sampler": 0,
      "source": 1
    },
    {
      "sampler": 0,
      "source": 2
    },
    {
      "sampler": 0,
      "source": 3
    }
  ],
  "images": [
    {
      "name": "dirt_02_d",
      "mimeType": "image/png",
      "uri": "data:image/png;base64,"
    },
    {
      "name": "beerboxlogo_m",
      "mimeType": "image/png",
      "uri": "data:image/png;base64,"
    },
    {
      "name": "fishingboat_rope",
      "mimeType": "image/png",
      "uri": "data:image/png;base64,"
    },
    {
      "name": "woodmoss_02_d",
      "mimeType": "image/png",
      "uri": "data:image/png;base64,"
    }
  ],
  "samplers": [
    {
      "magFilter": 9729,
      "minFilter": 9987,
      "wrapS": 10497,
      "wrapT": 10497
    }
  ],
  "accessors": [
    {
      "bufferView": 0,
      "componentType": 5126,
      "count": 12,
      "type": "MAT4"
    },
    {
      "bufferView": 1,
      "componentType": 5126,
      "count": 1405,
      "type": "VEC3",
      "min": [
        -0.11688589118421078,
        -0.20145268086344004,
        -0.10486159846186638
      ],
      "max": [
        0.35786004178225994,
        0.18372142687439919,
        0.2797326575964689
      ]
    },
    {
      "bufferView": 2,
      "componentType": 5126,
      "count": 1405,
      "type": "VEC2"
    },
    {
      "bufferView": 3,
      "componentType": 5123,
      "count": 1405,
      "type": "VEC4"
    },
    {
      "bufferView": 4,
      "componentType": 5126,
      "count": 1405,
      "type": "VEC4"
    },
    {
      "bufferView": 5,
      "componentType": 5123,
      "count": 1488,
      "type": "SCALAR"
    },
    {
      "bufferView": 6,
      "componentType": 5123,
      "count": 1146,
      "type": "SCALAR"
    },
    {
      "bufferView": 7,
      "componentType": 5123,
      "count": 1074,
      "type": "SCALAR"
    },
    {
      "bufferView": 8,
      "componentType": 5123,
      "count": 198,
      "type": "SCALAR"
    },
    {
      "bufferView": 9,
      "componentType": 5123,
      "count": 1074,
      "type": "SCALAR"
    },
    {
      "bufferView": 10,
      "componentType": 5123,
      "count": 198,
      "type": "SCALAR"
    }
  ],
  "bufferViews": [
    {
      "buffer": 0,
      "byteOffset": 0,
      "byteLength": 768
    },
    {
      "buffer": 0,
      "byteOffset": 768,
      "byteLength": 16860,
      "target": 34962
    },
    {
      "buffer": 0,
      "byteOffset": 17628,
      "byteLength": 11240,
      "target": 34962
    },
    {
      "buffer": 0,
      "byteOffset": 28868,
      "byteLength": 11240,
      "target": 34962
    },
    {
      "buffer": 0,
      "byteOffset": 40108,
      "byteLength": 22480,
      "target": 34962
    },
    {
      "buffer": 0,
      "byteOffset": 62588,
      "byteLength": 2976,
      "target": 34963
    },
    {
      "buffer": 0,
      "byteOffset": 65564,
      "byteLength": 2292,
      "target": 34963
    },
    {
      "buffer": 0,
      "byteOffset": 67856,
      "byteLength": 2148,
      "target": 34963
    },
    {
      "buffer": 0,
      "byteOffset": 70004,
      "byteLength": 396,
      "target": 34963
    },
    {
      "buffer": 0,
      "byteOffset": 70400,
      "byteLength": 2148,
      "target": 34963
    },
    {
      "buffer": 0,
      "byteOffset": 72548,
      "byteLength": 396,
      "target": 34963
    }
  ],
  "buffers": [
    {
      "byteLength": 72944,
      "uri": "beerboxclosed_bk.bin"
    }
  ]
}