{
  "asset": {
    "version": "2.0",
    "generator": "XBG to GLTF Converter with Textures"
  },
  "scene": 0,
  "scenes": [
    {
      "name": "Scene",
      "nodes": [
        26
      ]
    }
  ],
  "nodes": [
    {
      "name": "FISHING_BOAT",
      "children": [
        1,
        2,
        3,
        4,
        5,
        6,
        7,
        8,
        9,
        10,
        11,
        12,
        13,
        14,
        15,
        16,
        17,
        18,
        19,
        20,
        21,
        22,
        23,
        24
      ]
    },
    {
      "name": "DRIVER_SITPOINT",
      "translation": [
        -0.03866678103804588,
        -1.126704216003418,
        1.3272554874420166
      ]
    },
    {
      "name": "Exhaust",
      "translation": [
        -0.03573044016957283,
        -2.470475196838379,
        2.5327229499816895
      ],
      "rotation": [
        -0.5000000149011614,
        0.5000000149011614,
        0.5,
        -0.49999998509883814
      ]
    },
    {
      "name": "Driver_entry02",
      "translation": [
        0.9761671423912048,
        -1.0438334941864014,
        1.102209448814392
      ],
      "rotation": [
        0.0,
        0.0,
        0.7071066498756363,
        0.7071069124974344
      ]
    },
    {
      "name": "Driver_entry01",
      "translation": [
        -1.1912145614624023,
        -1.043947458267212,
        1.102209448814392
      ],
      "rotation": [
        0.0,
        0.0,
        -0.7071069478988704,
        0.7071066144741852
      ]
    },
    {
      "name": "gunner_entry03",
      "translation": [
        3.4491231441497803,
        3.6406233310699463,
        1.3399584293365479
      ],
      "rotation": [
        0.0,
        0.0,
        0.7071066498756363,
        0.7071069124974344
      ]
    },
    {
      "name": "gunner_entry04",
      "translation": [
        -3.612025260925293,
        3.6406233310699463,
        1.3399584293365479
      ],
      "rotation": [
        0.0,
        0.0,
        -0.7071069478988704,
        0.7071066144741852
      ]
    },
    {
      "name": "Driver_entry03",
      "translation": [
        -3.6120259761810303,
        -1.3328487873077393,
        1.3399584293365479
      ],
      "rotation": [
        0.0,
        0.0,
        -0.7071069478988704,
        0.7071066144741852
      ]
    },
    {
      "name": "Driver_entry04",
      "translation": [
        3.305889129638672,
        -1.3327325582504272,
        1.3399584293365479
      ],
      "rotation": [
        0.0,
        0.0,
        0.7071066498756363,
        0.7071069124974344
      ]
    },
    {
      "name": "CHASSIS",
      "translation": [
        -0.035905808210372925,
        0.8788067698478699,
        1.6618539094924927
      ]
    },
    {
      "name": "gunner_entry05",
      "translation": [
        3.4491231441497803,
        3.6406233310699463,
        -0.45021092891693115
      ],
      "rotation": [
        0.0,
        0.0,
        0.7071067690849299,
        0.707106793288165
      ]
    },
    {
      "name": "gunner_entry06",
      "translation": [
        -3.612025022506714,
        3.6406233310699463,
        -0.45021092891693115
      ],
      "rotation": [
        0.0,
        0.0,
        -0.7071067690849299,
        0.707106793288165
      ]
    },
    {
      "name": "Driver_entry05",
      "translation": [
        3.305889129638672,
        -1.3327325582504272,
        -0.4502108693122864
      ],
      "rotation": [
        0.0,
        0.0,
        0.7071067690849299,
        0.707106793288165
      ]
    },
    {
      "name": "Driver_entry06",
      "translation": [
        -3.6120259761810303,
        -1.3328487873077393,
        -0.4502108693122864
      ],
      "rotation": [
        0.0,
        0.0,
        -0.7071067690849299,
        0.707106793288165
      ]
    },
    {
      "name": "GUNNER_POSITION02",
      "translation": [
        -0.037291958928108215,
        4.047961235046387,
        1.0685884952545166
      ]
    },
    {
      "name": "gunner_entry09",
      "translation": [
        -0.03729186952114105,
        4.0479607582092285,
        1.0685884952545166
      ]
    },
    {
      "name": "STEERING_WHEEL",
      "translation": [
        -0.037766359746456146,
        -0.6205384135246277,
        2.4680256843566895
      ]
    },
    {
      "name": "EngineSmoke",
      "translation": [
        9.99999993922529e-09,
        1.5243726968765259,
        0.9306275248527527
      ],
      "rotation": [
        0.70710676908493,
        0.0,
        0.0,
        0.7071067932881648
      ]
    },
    {
      "name": "FX_Water_Rear",
      "translation": [
        -0.04107477143406868,
        -8.014177322387695,
        0.07660991698503494
      ]
    },
    {
      "name": "FX_Water_Front",
      "translation": [
        -0.041074201464653015,
        7.695620536804199,
        0.0766104981303215
      ]
    },
    {
      "name": "FX_Water_Left",
      "translation": [
        -1.6859999895095825,
        4.369148254394531,
        -0.22034117579460144
      ],
      "rotation": [
        0.028251046509542802,
        0.1274321961901347,
        0.9679436611529751,
        0.21458793670333629
      ]
    },
    {
      "name": "FX_Water_Right",
      "translation": [
        1.6260000467300415,
        4.369148254394531,
        -0.22034117579460144
      ],
      "rotation": [
        -0.02825104696468821,
        0.12743219352003363,
        0.9679436442931333,
        -0.21458801427639015
      ]
    },
    {
      "name": "RUDDER",
      "translation": [
        -0.03682569041848183,
        -6.451271057128906,
        1.3682585954666138
      ]
    },
    {
      "name": "RepairPoint",
      "translation": [
        -0.03857358172535896,
        0.7442194819450378,
        1.0500884056091309
      ]
    },
    {
      "name": "Compass_Placement",
      "translation": [
        -0.40650805830955505,
        -0.32202422618865967,
        2.849466562271118
      ],
      "rotation": [
        0.6897331469670369,
        0.15645889923043976,
        0.1563927958820666,
        0.6894418691549142
      ]
    },
    {
      "name": "MeshNode_LOD0",
      "mesh": 0,
      "skin": 0
    },
    {
      "name": "Correction_Root",
      "rotation": [
        -0.70710678,
        0.0,
        0.0,
        0.70710678
      ],
      "children": [
        0,
        25
      ]
    }
  ],
  "meshes": [
    {
      "name": "Mesh_LOD0",
      "primitives": [
        {
          "attributes": {
            "POSITION": 1,
            "JOINTS_0": 3,
            "WEIGHTS_0": 4,
            "TEXCOORD_0": 2
          },
          "indices": 5,
          "material": 0
        },
        {
          "attributes": {
            "POSITION": 1,
            "JOINTS_0": 3,
            "WEIGHTS_0": 4,
            "TEXCOORD_0": 2
          },
          "indices": 6,
          "material": 1
        },
        {
          "attributes": {
            "POSITION": 1,
            "JOINTS_0": 3,
            "WEIGHTS_0": 4,
            "TEXCOORD_0": 2
          },
          "indices": 7,
          "material": 2
        },
        {
          "attributes": {
            "POSITION": 1,
            "JOINTS_0": 3,
            "WEIGHTS_0": 4,
            "TEXCOORD_0": 2
          },
          "indices": 8,
          "material": 3
        },
        {
          "attributes": {
            "POSITION": 1,
            "JOINTS_0": 3,
            "WEIGHTS_0": 4,
            "TEXCOORD_0": 2
          },
          "indices": 9,
          "material": 4
        },
        {
          "attributes": {
            "POSITION": 1,
            "JOINTS_0": 3,
            "WEIGHTS_0": 4,
            "TEXCOORD_0": 2
          },
          "indices": 10,
          "material": 5
        },
        {
          "attributes": {
            "POSITION": 1,
            "JOINTS_0": 3,
            "WEIGHTS_0": 4,
            "TEXCOORD_0": 2
          },
          "indices": 11,
          "material": 6
        },
        {
          "attributes": {
            "POSITION": 1,
            "JOINTS_0": 3,
            "WEIGHTS_0": 4,
            "TEXCOORD_0": 2
          },
          "indices": 12,
          "material": 7
        },
        {
          "attributes": {
            "POSITION": 1,
            "JOINTS_0": 3,
            "WEIGHTS_0": 4,
            "TEXCOORD_0": 2
          },
          "indices": 13,
          "material": 8
        },
        {
          "attributes": {
            "POSITION": 1,
            "JOINTS_0": 3,
            "WEIGHTS_0": 4,
            "TEXCOORD_0": 2
          },
          "indices": 14,
          "material": 9
        },
        {
          "attributes": {
            "POSITION": 1,
            "JOINTS_0": 3,
            "WEIGHTS_0": 4,
            "TEXCOORD_0": 2
          },
          "indices": 15,
          "material": 10
        },
        {
          "attributes": {
            "POSITION": 1,
            "JOINTS_0": 3,
            "WEIGHTS_0": 4,
            "TEXCOORD_0": 2
          },
          "indices": 16,
          "material": 3
        },
        {
          "attributes": {
            "POSITION": 1,
            "JOINTS_0": 3,
            "WEIGHTS_0": 4,
            "TEXCOORD_0": 2
          },
          "indices": 17,
          "material": 8
        }
      ]
    }
  ],
  "skins": [
    {
      "inverseBindMatrices": 0,
      "joints": [
        0,
        1,
        2,
        3,
        4,
        5,
        6,
        7,
        8,
        9,
        10,
        11,
        12,
        13,
        14,
        15,
        16,
        17,
        18,
        19,
        20,
        21,
        22,
        23,
        24
      ],
      "name": "Armature",
      "skeleton": 0
    }
  ],
  "materials": [
    {
      "name": "GRAPHICS\\_MATERIALS\\JPCORMIER-M-2007072548383842.xbm",
      "pbrMetallicRoughness": {
        "baseColorFactor": [
          1.0,
          1.0,
          1.0,
          1.0
        ],
        "metallicFactor": 0.0,
        "roughnessFactor": 1.0,
        "baseColorTexture": {
          "index": 0,
          "texCoord": 0
        }
      },
      "doubleSided": true
    },
    {
      "name": "GRAPHICS\\_MATERIALS\\SDORE2-M-2007101953622655.xbm",
      "pbrMetallicRoughness": {
        "baseColorFactor": [
          1.0,
          1.0,
          1.0,
          1.0
        ],
        "metallicFactor": 0.0,
        "roughnessFactor": 1.0,
        "baseColorTexture": {
          "index": 1,
          "texCoord": 0
        }
      },
      "doubleSided": true
    },
    {
      "name": "GRAPHICS\\_MATERIALS\\SDORE2-M-2007102241453513.xbm",
      "pbrMetallicRoughness": {
        "baseColorFactor": [
          1.0,
          1.0,
          1.0,
          1.0
        ],
        "metallicFactor": 0.0,
        "roughnessFactor": 1.0,
        "baseColorTexture": {
          "index": 2,
          "texCoord": 0
        }
      },
      "doubleSided": true
    },
    {
      "name": "GRAPHICS\\_MATERIALS\\SDORE2-M-2007102258027141.xbm",
      "pbrMetallicRoughness": {
        "baseColorFactor": [
          1.0,
          1.0,
          1.0,
          1.0
        ],
        "metallicFactor": 0.0,
        "roughnessFactor": 1.0,
        "baseColorTexture": {
          "index": 3,
          "texCoord": 0
        }
      },
      "doubleSided": true
    },
    {
      "name": "GRAPHICS\\_MATERIALS\\SDORE2-M-2007092641675906.xbm",
      "pbrMetallicRoughness": {
        "baseColorFactor": [
          1.0,
          1.0,
          1.0,
          1.0
        ],
        "metallicFactor": 0.0,
        "roughnessFactor": 1.0,
        "baseColorTexture": {
          "index": 4,
          "texCoord": 0
        }
      },
      "doubleSided": true
    },
    {
      "name": "GRAPHICS\\_MATERIALS\\SDORE2-M-2007111663543018.xbm",
      "pbrMetallicRoughness": {
        "baseColorFactor": [
          1.0,
          1.0,
          1.0,
          1.0
        ],
        "metallicFactor": 0.0,
        "roughnessFactor": 1.0,
        "baseColorTexture": {
          "index": 5,
          "texCoord": 0
        }
      },
      "doubleSided": true
    },
    {
      "name": "GRAPHICS\\_MATERIALS\\SDORE2-M-2008061158384686.xbm",
      "pbrMetallicRoughness": {
        "baseColorFactor": [
          1.0,
          1.0,
          1.0,
          1.0
        ],
        "metallicFactor": 0.0,
        "roughnessFactor": 1.0,
        "baseColorTexture": {
          "index": 6,
          "texCoord": 0
        }
      },
      "doubleSided": true
    },
    {
      "name": "GRAPHICS\\_MATERIALS\\SDORE2-M-2007111435990771.xbm",
      "pbrMetallicRoughness": {
        "baseColorFactor": [
          1.0,
          1.0,
          1.0,
          1.0
        ],
        "metallicFactor": 0.0,
        "roughnessFactor": 1.0,
        "baseColorTexture": {
          "index": 7,
          "texCoord": 0
        }
      },
      "doubleSided": true
    },
    {
      "name": "GRAPHICS\\_MATERIALS\\SDORE2-M-2007101553583149.xbm",
      "pbrMetallicRoughness": {
        "baseColorFactor": [
          1.0,
          1.0,
          1.0,
          1.0
        ],
        "metallicFactor": 0.0,
        "roughnessFactor": 1.0,
        "baseColorTexture": {
          "index": 8,
          "texCoord": 0
        }
      },
      "doubleSided": true
    },
    {
      "name": "GRAPHICS\\_MATERIALS\\SDORE2-M-2007101758698523.xbm",
      "pbrMetallicRoughness": {
        "baseColorFactor": [
          1.0,
          1.0,
          1.0,
          1.0
        ],
        "metallicFactor": 0.0,
        "roughnessFactor": 1.0,
        "baseColorTexture": {
          "index": 9,
          "texCoord": 0
        }
      },
      "doubleSided": true
    },
    {
      "name": "GRAPHICS\\_MATERIALS\\SDORE2-M-2007112260410724.xbm",
      "pbrMetallicRoughness": {
        "baseColorFactor": [
          1.0,
          1.0,
          1.0,
          1.0
        ],
        "metallicFactor": 0.0,
        "roughnessFactor": 1.0,
        "baseColorTexture": {
          "index": 10,
          "texCoord": 0
        }
      },
      "doubleSided": true
    }
  ],
  "textures": [
    {
      "sampler": 0,
      "source": 0
    },
    {
      "sampler": 0,
      "source": 1
    },
    {
      "sampler": 0,
      "source": 2
    },
    {
      "sampler": 0,
      "source": 3
    },
    {
      "sampler": 0,
      "source": 4
    },
    {
      "sampler": 0,
      "source": 5
    },
    {
      "sampler": 0,
      "source": 6
    },
    {
      "sampler": 0,
      "source": 7
    },
    {
      "sampler": 0,
      "source": 8
    },
    {
      "sampler": 0,
      "source": 9
    },
    {
      "sampler": 0,
      "source": 10
    }
  ],
  "images": [
    {
      "name": "metalrust_02_d",
      "mimeType": "image/png",
      "uri": "data:image/png;base64,"
    },
    {
      "name": "dirt_03_d",
      "mimeType": "image/png",
      "uri": "data:image/png;base64,"
    },
    {
      "name": "clay_01_d",
      "mimeType": "image/png",
      "uri": "data:image/png;base64,"
    },
    {
      "name": "metalbrushed_d",
      "mimeType": "image/png",
      "uri": "data:image/png;base64,"
    },
    {
      "name": "dirt_03_d",
      "mimeType": "image/png",
      "uri": "data:image/png;base64,"
    },
    {
      "name": "grey",
      "mimeType": "image/png",
      "uri": "data:image/png;base64,"
    },
    {
      "name": "woodplank_03_d",
      "mimeType": "image/png",
      "uri": "data:image/png;base64,"
    },
    {
      "name": "metal_01_d",
      "mimeType": "image/png",
      "uri": "data:image/png;base64,"
    },
    {
      "name": "woodplank_03_d",
      "mimeType": "image/png",
      "uri": "data:image/png;base64,"
    },
    {
      "name": "fishingboat_rope",
      "mimeType": "image/png",
      "uri": "data:image/png;base64,"
    },
    {
      "name": "dirtrust_03_d",
      "mimeType": "image/png",
      "uri": "data:image/png;base64,"
    }
  ],
  "samplers": [
    {
      "magFilter": 9729,
      "minFilter": 9987,
      "wrapS": 10497,
      "wrapT": 10497
    }
  ],
  "accessors": [
    {
      "bufferView": 0,
      "componentType": 5126,
      "count": 25,
      "type": "MAT4"
    },
    {
      "bufferView": 1,
      "componentType": 5126,
      "count": 18954,
      "type": "VEC3",
      "min": [
        -2.3003326496109366,
        -8.204565561376512,
        -1.9243140947073698
      ],
      "max": [
        2.276985989883542,
        6.7507553268224,
        2.151738027110696
      ]
    },
    {
      "bufferView": 2,
      "componentType": 5126,
      "count": 18954,
      "type": "VEC2"
    },
    {
      "bufferView": 3,
      "componentType": 5123,
      "count": 18954,
      "type": "VEC4"
    },
    {
      "bufferView": 4,
      "componentType": 5126,
      "count": 18954,
      "type": "VEC4"
    },
    {
      "bufferView": 5,
      "componentType": 5123,
      "count": 6315,
      "type": "SCALAR"
    },
    {
      "bufferView": 6,
      "componentType": 5123,
      "count": 336,
      "type": "SCALAR"
    },
    {
      "bufferView": 7,
      "componentType": 5123,
      "count": 4035,
      "type": "SCALAR"
    },
    {
      "bufferView": 8,
      "componentType": 5123,
      "count": 696,
      "type": "SCALAR"
    },
    {
      "bufferView": 9,
      "componentType": 5123,
      "count": 4608,
      "type": "SCALAR"
    },
    {
      "bufferView": 10,
      "componentType": 5123,
      "count": 144,
      "type": "SCALAR"
    },
    {
      "bufferView": 11,
      "componentType": 5123,
      "count": 13758,
      "type": "SCALAR"
    },
    {
      "bufferView": 12,
      "componentType": 5123,
      "count": 3216,
      "type": "SCALAR"
    },
    {
      "bufferView": 13,
      "componentType": 5123,
      "count": 1998,
      "type": "SCALAR"
    },
    {
      "bufferView": 14,
      "componentType": 5123,
      "count": 5232,
      "type": "SCALAR"
    },
    {
      "bufferView": 15,
      "componentType": 5123,
      "count": 15696,
      "type": "SCALAR"
    },
    {
      "bufferView": 16,
      "componentType": 5123,
      "count": 2352,
      "type": "SCALAR"
    },
    {
      "bufferView": 17,
      "componentType": 5123,
      "count": 132,
      "type": "SCALAR"
    }
  ],
  "bufferViews": [
    {
      "buffer": 0,
      "byteOffset": 0,
      "byteLength": 1600
    },
    {
      "buffer": 0,
      "byteOffset": 1600,
      "byteLength": 227448,
      "target": 34962
    },
    {
      "buffer": 0,
      "byteOffset": 229048,
      "byteLength": 151632,
      "target": 34962
    },
    {
      "buffer": 0,
      "byteOffset": 380680,
      "byteLength": 151632,
      "target": 34962
    },
    {
      "buffer": 0,
      "byteOffset": 532312,
      "byteLength": 303264,
      "target": 34962
    },
    {
      "buffer": 0,
      "byteOffset": 835576,
      "byteLength": 12630,
      "target": 34963
    },
    {
      "buffer": 0,
      "byteOffset": 848206,
      "byteLength": 672,
      "target": 34963
    },
    {
      "buffer": 0,
      "byteOffset": 848878,
      "byteLength": 8070,
      "target": 34963
    },
    {
      "buffer": 0,
      "byteOffset": 856948,
      "byteLength": 1392,
      "target": 34963
    },
    {
      "buffer": 0,
      "byteOffset": 858340,
      "byteLength": 9216,
      "target": 34963
    },
    {
      "buffer": 0,
      "byteOffset": 867556,
      "byteLength": 288,
      "target": 34963
    },
    {
      "buffer": 0,
      "byteOffset": 867844,
      "byteLength": 27516,
      "target": 34963
    },
    {
      "buffer": 0,
      "byteOffset": 895360,
      "byteLength": 6432,
      "target": 34963
    },
    {
      "buffer": 0,
      "byteOffset": 901792,
      "byteLength": 3996,
      "target": 34963
    },
    {
      "buffer": 0,
      "byteOffset": 905788,
      "byteLength": 10464,
      "target": 34963
    },
    {
      "buffer": 0,
      "byteOffset": 916252,
      "byteLength": 31392,
      "target": 34963
    },
    {
      "buffer": 0,
      "byteOffset": 947644,
      "byteLength": 4704,
      "target": 34963
    },
    {
      "buffer": 0,
      "byteOffset": 952348,
      "byteLength": 264,
      "target": 34963
    }
  ],
  "buffers": [
    {
      "byteLength": 952612,
      "uri": "fishing_boat.bin"
    }
  ]
}