{
  "asset": {
    "version": "2.0",
    "generator": "XBG to GLTF Converter with Textures"
  },
  "scene": 0,
  "scenes": [
    {
      "name": "Scene",
      "nodes": [
        40
      ]
    }
  ],
  "nodes": [
    {
      "name": "IndustrialShelter02_BK",
      "children": [
        1
      ]
    },
    {
      "name": "dustrialShelter_02a_STATE",
      "children": [
        2,
        3
      ]
    },
    {
      "name": "strialShelter_020a_STATE1",
      "translation": [
        0.266763299703598,
        -0.49037107825279236,
        2.272472620010376
      ]
    },
    {
      "name": "strialShelter_021a_STATE2",
      "translation": [
        -0.04830748960375786,
        -0.48909178376197815,
        2.678662061691284
      ],
      "children": [
        4,
        22
      ]
    },
    {
      "name": "IS2_Rightb_STATE",
      "translation": [
        2.403301239013672,
        0.0,
        -0.031711429357528687
      ],
      "children": [
        5,
        11,
        12,
        13,
        14,
        15,
        16,
        17,
        18,
        19,
        20,
        21
      ]
    },
    {
      "name": "IS2_Right0b_STATE1",
      "translation": [
        0.3151025176048279,
        -0.0012792999623343349,
        -0.3744775354862213
      ],
      "children": [
        6,
        7,
        8,
        9,
        10
      ]
    },
    {
      "name": "IS2_Right38b_Wood_FX",
      "translation": [
        -2.6632983684539795,
        -3.3462791442871094,
        -0.6747118830680847
      ]
    },
    {
      "name": "IS2_Right30b_Wood_FX",
      "translation": [
        2.3223681449890137,
        -3.1832103729248047,
        -0.5901684165000916
      ]
    },
    {
      "name": "IS2_Right37b_Wood_FX",
      "translation": [
        -2.6632983684539795,
        3.572641611099243,
        -0.2811816334724426
      ]
    },
    {
      "name": "IS2_Right29b_Wood_FX",
      "translation": [
        2.3223681449890137,
        3.4751219749450684,
        -0.20601561665534973
      ]
    },
    {
      "name": "IS2_Right37b_Base_FX02",
      "translation": [
        -0.2581581175327301,
        0.0698143020272255,
        -1.2697341442108154
      ]
    },
    {
      "name": "IS2_Right5b_STATE2",
      "translation": [
        -1.0279126167297363,
        -1.8662450313568115,
        0.9477575421333313
      ]
    },
    {
      "name": "IS2_Right8b_STATE2",
      "translation": [
        2.888481378555298,
        -1.87771475315094,
        1.089874267578125
      ]
    },
    {
      "name": "IS2_Right10b_STATE2",
      "translation": [
        0.9740551710128784,
        -1.855190396308899,
        0.964129626750946
      ]
    },
    {
      "name": "IS2_Right11b_STATE2",
      "translation": [
        -0.02125244028866291,
        -1.8604345321655273,
        0.911163330078125
      ]
    },
    {
      "name": "IS2_Right15b_STATE2",
      "translation": [
        -2.166262149810791,
        1.8508543968200684,
        1.3866246938705444
      ]
    },
    {
      "name": "IS2_Right16b_STATE2",
      "translation": [
        -1.1709667444229126,
        1.8218896389007568,
        1.4250060319900513
      ]
    },
    {
      "name": "IS2_Right24b_STATE2",
      "translation": [
        0.8591821193695068,
        1.8405200242996216,
        1.3710973262786865
      ]
    },
    {
      "name": "IS2_Right25b_STATE2",
      "translation": [
        1.850612759590149,
        1.8375829458236694,
        1.4504809379577637
      ]
    },
    {
      "name": "IS2_Right29b_STATE2",
      "translation": [
        2.6373705863952637,
        3.472602367401123,
        -0.5803112387657166
      ],
      "rotation": [
        0.0686060041519992,
        0.10289220515223223,
        -0.4462664426395565,
        0.8863140935881392
      ]
    },
    {
      "name": "IS2_Right30b_STATE2",
      "translation": [
        2.6373705863952637,
        -3.185732364654541,
        -0.9644640684127808
      ],
      "rotation": [
        0.12554031824863202,
        0.08471163927289177,
        0.9039213257045373,
        0.39998725432183363
      ]
    },
    {
      "name": "IS2_Right39b_STATE2",
      "translation": [
        -2.3459813594818115,
        0.1436425745487213,
        0.9812108874320984
      ]
    },
    {
      "name": "IS2_Leftb_STATE",
      "translation": [
        -2.7618136405944824,
        0.01581054925918579,
        0.0
      ],
      "children": [
        23,
        29,
        30,
        31,
        32,
        33,
        34,
        35,
        36,
        37,
        38
      ]
    },
    {
      "name": "IS2_Left0b_STATE1",
      "translation": [
        0.3150708079338074,
        -0.0012792999623343349,
        -0.40618896484375
      ],
      "children": [
        24,
        25,
        26,
        27,
        28
      ]
    },
    {
      "name": "IS2_Left1b_Wood_FX",
      "translation": [
        2.5019731521606445,
        3.556833505630493,
        -0.3128906190395355
      ]
    },
    {
      "name": "IS2_Left26b_Wood_FX",
      "translation": [
        -2.1490283012390137,
        3.4593138694763184,
        -0.2377294898033142
      ]
    },
    {
      "name": "IS2_Left27b_Wood_FX",
      "translation": [
        -2.1490283012390137,
        -3.1990208625793457,
        -0.6218798756599426
      ]
    },
    {
      "name": "IS2_Left2b_Wood_FX",
      "translation": [
        2.5019731521606445,
        -3.3620898723602295,
        -0.7064257860183716
      ]
    },
    {
      "name": "IS2_Left37b_Base_FX03",
      "translation": [
        0.1815940886735916,
        0.0,
        -1.2814867496490479
      ]
    },
    {
      "name": "IS2_Left4b_STATE2",
      "translation": [
        2.1501195430755615,
        -1.8811767101287842,
        0.9057543873786926
      ]
    },
    {
      "name": "IS2_Left7b_STATE2",
      "translation": [
        -0.8357617259025574,
        -1.8769115209579468,
        0.9709582328796387
      ]
    },
    {
      "name": "IS2_Left12b_STATE2",
      "translation": [
        0.15906982123851776,
        -1.8682225942611694,
        0.8754186630249023
      ]
    },
    {
      "name": "IS2_Left16b_STATE2",
      "translation": [
        -1.8990893363952637,
        1.8329662084579468,
        1.4768553972244263
      ]
    },
    {
      "name": "IS2_Left17b_STATE2",
      "translation": [
        -0.9871850609779358,
        1.8039867877960205,
        1.460152506828308
      ]
    },
    {
      "name": "IS2_Left23b_STATE2",
      "translation": [
        -0.03334961086511612,
        1.8085278272628784,
        1.3544164896011353
      ]
    },
    {
      "name": "IS2_Left25b_STATE2",
      "translation": [
        1.9729955196380615,
        1.81851065158844,
        1.2907629013061523
      ]
    },
    {
      "name": "IS2_Left26b_STATE2",
      "translation": [
        -1.8339855670928955,
        3.458017110824585,
        -0.645794689655304
      ],
      "rotation": [
        -0.14614875410334585,
        0.1232526959620962,
        0.40264552473094745,
        0.8951680823309293
      ]
    },
    {
      "name": "IS2_Left27b_STATE2",
      "translation": [
        -1.833984375,
        -3.200312376022339,
        -1.0299450159072876
      ],
      "rotation": [
        0.09682150246903118,
        -0.16784978016221797,
        0.025860866704201613,
        0.9807054927654282
      ]
    },
    {
      "name": "IS2_Left31b_STATE2",
      "translation": [
        0.4993017613887787,
        0.003994139842689037,
        1.023980736732483
      ]
    },
    {
      "name": "MeshNode_LOD0",
      "mesh": 0,
      "skin": 0
    },
    {
      "name": "Correction_Root",
      "rotation": [
        -0.70710678,
        0.0,
        0.0,
        0.70710678
      ],
      "children": [
        0,
        39
      ]
    }
  ],
  "meshes": [
    {
      "name": "Mesh_LOD0",
      "primitives": [
        {
          "attributes": {
            "POSITION": 1,
            "JOINTS_0": 3,
            "WEIGHTS_0": 4,
            "TEXCOORD_0": 2
          },
          "indices": 5,
          "material": 0
        },
        {
          "attributes": {
            "POSITION": 1,
            "JOINTS_0": 3,
            "WEIGHTS_0": 4,
            "TEXCOORD_0": 2
          },
          "indices": 6,
          "material": 1
        },
        {
          "attributes": {
            "POSITION": 1,
            "JOINTS_0": 3,
            "WEIGHTS_0": 4,
            "TEXCOORD_0": 2
          },
          "indices": 7,
          "material": 2
        },
        {
          "attributes": {
            "POSITION": 1,
            "JOINTS_0": 3,
            "WEIGHTS_0": 4,
            "TEXCOORD_0": 2
          },
          "indices": 8,
          "material": 0
        },
        {
          "attributes": {
            "POSITION": 1,
            "JOINTS_0": 3,
            "WEIGHTS_0": 4,
            "TEXCOORD_0": 2
          },
          "indices": 9,
          "material": 1
        },
        {
          "attributes": {
            "POSITION": 1,
            "JOINTS_0": 3,
            "WEIGHTS_0": 4,
            "TEXCOORD_0": 2
          },
          "indices": 10,
          "material": 2
        },
        {
          "attributes": {
            "POSITION": 1,
            "JOINTS_0": 3,
            "WEIGHTS_0": 4,
            "TEXCOORD_0": 2
          },
          "indices": 11,
          "material": 1
        },
        {
          "attributes": {
            "POSITION": 1,
            "JOINTS_0": 3,
            "WEIGHTS_0": 4,
            "TEXCOORD_0": 2
          },
          "indices": 12,
          "material": 1
        },
        {
          "attributes": {
            "POSITION": 1,
            "JOINTS_0": 3,
            "WEIGHTS_0": 4,
            "TEXCOORD_0": 2
          },
          "indices": 13,
          "material": 1
        },
        {
          "attributes": {
            "POSITION": 1,
            "JOINTS_0": 3,
            "WEIGHTS_0": 4,
            "TEXCOORD_0": 2
          },
          "indices": 14,
          "material": 2
        },
        {
          "attributes": {
            "POSITION": 1,
            "JOINTS_0": 3,
            "WEIGHTS_0": 4,
            "TEXCOORD_0": 2
          },
          "indices": 15,
          "material": 2
        },
        {
          "attributes": {
            "POSITION": 1,
            "JOINTS_0": 3,
            "WEIGHTS_0": 4,
            "TEXCOORD_0": 2
          },
          "indices": 16,
          "material": 2
        },
        {
          "attributes": {
            "POSITION": 1,
            "JOINTS_0": 3,
            "WEIGHTS_0": 4,
            "TEXCOORD_0": 2
          },
          "indices": 17,
          "material": 1
        },
        {
          "attributes": {
            "POSITION": 1,
            "JOINTS_0": 3,
            "WEIGHTS_0": 4,
            "TEXCOORD_0": 2
          },
          "indices": 18,
          "material": 1
        },
        {
          "attributes": {
            "POSITION": 1,
            "JOINTS_0": 3,
            "WEIGHTS_0": 4,
            "TEXCOORD_0": 2
          },
          "indices": 19,
          "material": 0
        },
        {
          "attributes": {
            "POSITION": 1,
            "JOINTS_0": 3,
            "WEIGHTS_0": 4,
            "TEXCOORD_0": 2
          },
          "indices": 20,
          "material": 0
        },
        {
          "attributes": {
            "POSITION": 1,
            "JOINTS_0": 3,
            "WEIGHTS_0": 4,
            "TEXCOORD_0": 2
          },
          "indices": 21,
          "material": 0
        },
        {
          "attributes": {
            "POSITION": 1,
            "JOINTS_0": 3,
            "WEIGHTS_0": 4,
            "TEXCOORD_0": 2
          },
          "indices": 22,
          "material": 0
        },
        {
          "attributes": {
            "POSITION": 1,
            "JOINTS_0": 3,
            "WEIGHTS_0": 4,
            "TEXCOORD_0": 2
          },
          "indices": 23,
          "material": 1
        },
        {
          "attributes": {
            "POSITION": 1,
            "JOINTS_0": 3,
            "WEIGHTS_0": 4,
            "TEXCOORD_0": 2
          },
          "indices": 24,
          "material": 2
        },
        {
          "attributes": {
            "POSITION": 1,
            "JOINTS_0": 3,
            "WEIGHTS_0": 4,
            "TEXCOORD_0": 2
          },
          "indices": 25,
          "material": 1
        },
        {
          "attributes": {
            "POSITION": 1,
            "JOINTS_0": 3,
            "WEIGHTS_0": 4,
            "TEXCOORD_0": 2
          },
          "indices": 26,
          "material": 1
        },
        {
          "attributes": {
            "POSITION": 1,
            "JOINTS_0": 3,
            "WEIGHTS_0": 4,
            "TEXCOORD_0": 2
          },
          "indices": 27,
          "material": 2
        },
        {
          "attributes": {
            "POSITION": 1,
            "JOINTS_0": 3,
            "WEIGHTS_0": 4,
            "TEXCOORD_0": 2
          },
          "indices": 28,
          "material": 2
        },
        {
          "attributes": {
            "POSITION": 1,
            "JOINTS_0": 3,
            "WEIGHTS_0": 4,
            "TEXCOORD_0": 2
          },
          "indices": 29,
          "material": 1
        },
        {
          "attributes": {
            "POSITION": 1,
            "JOINTS_0": 3,
            "WEIGHTS_0": 4,
            "TEXCOORD_0": 2
          },
          "indices": 30,
          "material": 1
        },
        {
          "attributes": {
            "POSITION": 1,
            "JOINTS_0": 3,
            "WEIGHTS_0": 4,
            "TEXCOORD_0": 2
          },
          "indices": 31,
          "material": 1
        },
        {
          "attributes": {
            "POSITION": 1,
            "JOINTS_0": 3,
            "WEIGHTS_0": 4,
            "TEXCOORD_0": 2
          },
          "indices": 32,
          "material": 0
        },
        {
          "attributes": {
            "POSITION": 1,
            "JOINTS_0": 3,
            "WEIGHTS_0": 4,
            "TEXCOORD_0": 2
          },
          "indices": 33,
          "material": 0
        },
        {
          "attributes": {
            "POSITION": 1,
            "JOINTS_0": 3,
            "WEIGHTS_0": 4,
            "TEXCOORD_0": 2
          },
          "indices": 34,
          "material": 0
        }
      ]
    }
  ],
  "skins": [
    {
      "inverseBindMatrices": 0,
      "joints": [
        0,
        1,
        2,
        3,
        4,
        5,
        6,
        7,
        8,
        9,
        10,
        11,
        12,
        13,
        14,
        15,
        16,
        17,
        18,
        19,
        20,
        21,
        22,
        23,
        24,
        25,
        26,
        27,
        28,
        29,
        30,
        31,
        32,
        33,
        34,
        35,
        36,
        37,
        38
      ],
      "name": "Armature",
      "skeleton": 0
    }
  ],
  "materials": [
    {
      "name": "GRAPHICS\\_MATERIALS\\FBOIVIN2-M-2007062949244856.xbm",
      "pbrMetallicRoughness": {
        "baseColorFactor": [
          1.0,
          1.0,
          1.0,
          1.0
        ],
        "metallicFactor": 0.0,
        "roughnessFactor": 1.0,
        "baseColorTexture": {
          "index": 0,
          "texCoord": 0
        }
      },
      "doubleSided": true
    },
    {
      "name": "GRAPHICS\\_MATERIALS\\SFRONCEK-061201-57572380.xbm",
      "pbrMetallicRoughness": {
        "baseColorFactor": [
          1.0,
          1.0,
          1.0,
          1.0
        ],
        "metallicFactor": 0.0,
        "roughnessFactor": 1.0,
        "baseColorTexture": {
          "index": 1,
          "texCoord": 0
        }
      },
      "doubleSided": true
    },
    {
      "name": "GRAPHICS\\_MATERIALS\\EBOISVERT-M-2007112850340168.xbm",
      "pbrMetallicRoughness": {
        "baseColorFactor": [
          1.0,
          1.0,
          1.0,
          1.0
        ],
        "metallicFactor": 0.0,
        "roughnessFactor": 1.0,
        "baseColorTexture": {
          "index": 2,
          "texCoord": 0
        }
      },
      "doubleSided": true
    }
  ],
  "textures": [
    {
      "sampler": 0,
      "source": 0
    },
    {
      "sampler": 0,
      "source": 1
    },
    {
      "sampler": 0,
      "source": 2
    }
  ],
  "images": [
    {
      "name": "woodweapons_02_d",
      "mimeType": "image/png",
      "uri": "data:image/png;base64,"
    },
    {
      "name": "dirtrust_05_d",
      "mimeType": "image/png",
      "uri": "data:image/png;base64,"
    },
    {
      "name": "metalpaint01_d",
      "mimeType": "image/png",
      "uri": "data:image/png;base64,"
    }
  ],
  "samplers": [
    {
      "magFilter": 9729,
      "minFilter": 9987,
      "wrapS": 10497,
      "wrapT": 10497
    }
  ],
  "accessors": [
    {
      "bufferView": 0,
      "componentType": 5126,
      "count": 39,
      "type": "MAT4"
    },
    {
      "bufferView": 1,
      "componentType": 5126,
      "count": 7420,
      "type": "VEC3",
      "min": [
        -5.4224677216261625,
        -4.0048219207674265,
        -2.316171756014228
      ],
      "max": [
        5.422284610569477,
        4.004638809710741,
        2.3159886449575424
      ]
    },
    {
      "bufferView": 2,
      "componentType": 5126,
      "count": 7420,
      "type": "VEC2"
    },
    {
      "bufferView": 3,
      "componentType": 5123,
      "count": 7420,
      "type": "VEC4"
    },
    {
      "bufferView": 4,
      "componentType": 5126,
      "count": 7420,
      "type": "VEC4"
    },
    {
      "bufferView": 5,
      "componentType": 5123,
      "count": 900,
      "type": "SCALAR"
    },
    {
      "bufferView": 6,
      "componentType": 5123,
      "count": 4863,
      "type": "SCALAR"
    },
    {
      "bufferView": 7,
      "componentType": 5123,
      "count": 2379,
      "type": "SCALAR"
    },
    {
      "bufferView": 8,
      "componentType": 5123,
      "count": 450,
      "type": "SCALAR"
    },
    {
      "bufferView": 9,
      "componentType": 5123,
      "count": 2529,
      "type": "SCALAR"
    },
    {
      "bufferView": 10,
      "componentType": 5123,
      "count": 1407,
      "type": "SCALAR"
    },
    {
      "bufferView": 11,
      "componentType": 5123,
      "count": 318,
      "type": "SCALAR"
    },
    {
      "bufferView": 12,
      "componentType": 5123,
      "count": 348,
      "type": "SCALAR"
    },
    {
      "bufferView": 13,
      "componentType": 5123,
      "count": 288,
      "type": "SCALAR"
    },
    {
      "bufferView": 14,
      "componentType": 5123,
      "count": 276,
      "type": "SCALAR"
    },
    {
      "bufferView": 15,
      "componentType": 5123,
      "count": 348,
      "type": "SCALAR"
    },
    {
      "bufferView": 16,
      "componentType": 5123,
      "count": 360,
      "type": "SCALAR"
    },
    {
      "bufferView": 17,
      "componentType": 5123,
      "count": 276,
      "type": "SCALAR"
    },
    {
      "bufferView": 18,
      "componentType": 5123,
      "count": 318,
      "type": "SCALAR"
    },
    {
      "bufferView": 19,
      "componentType": 5123,
      "count": 24,
      "type": "SCALAR"
    },
    {
      "bufferView": 20,
      "componentType": 5123,
      "count": 24,
      "type": "SCALAR"
    },
    {
      "bufferView": 21,
      "componentType": 5123,
      "count": 36,
      "type": "SCALAR"
    },
    {
      "bufferView": 22,
      "componentType": 5123,
      "count": 450,
      "type": "SCALAR"
    },
    {
      "bufferView": 23,
      "componentType": 5123,
      "count": 2334,
      "type": "SCALAR"
    },
    {
      "bufferView": 24,
      "componentType": 5123,
      "count": 972,
      "type": "SCALAR"
    },
    {
      "bufferView": 25,
      "componentType": 5123,
      "count": 360,
      "type": "SCALAR"
    },
    {
      "bufferView": 26,
      "componentType": 5123,
      "count": 318,
      "type": "SCALAR"
    },
    {
      "bufferView": 27,
      "componentType": 5123,
      "count": 264,
      "type": "SCALAR"
    },
    {
      "bufferView": 28,
      "componentType": 5123,
      "count": 348,
      "type": "SCALAR"
    },
    {
      "bufferView": 29,
      "componentType": 5123,
      "count": 360,
      "type": "SCALAR"
    },
    {
      "bufferView": 30,
      "componentType": 5123,
      "count": 288,
      "type": "SCALAR"
    },
    {
      "bufferView": 31,
      "componentType": 5123,
      "count": 318,
      "type": "SCALAR"
    },
    {
      "bufferView": 32,
      "componentType": 5123,
      "count": 24,
      "type": "SCALAR"
    },
    {
      "bufferView": 33,
      "componentType": 5123,
      "count": 24,
      "type": "SCALAR"
    },
    {
      "bufferView": 34,
      "componentType": 5123,
      "count": 54,
      "type": "SCALAR"
    }
  ],
  "bufferViews": [
    {
      "buffer": 0,
      "byteOffset": 0,
      "byteLength": 2496
    },
    {
      "buffer": 0,
      "byteOffset": 2496,
      "byteLength": 89040,
      "target": 34962
    },
    {
      "buffer": 0,
      "byteOffset": 91536,
      "byteLength": 59360,
      "target": 34962
    },
    {
      "buffer": 0,
      "byteOffset": 150896,
      "byteLength": 59360,
      "target": 34962
    },
    {
      "buffer": 0,
      "byteOffset": 210256,
      "byteLength": 118720,
      "target": 34962
    },
    {
      "buffer": 0,
      "byteOffset": 328976,
      "byteLength": 1800,
      "target": 34963
    },
    {
      "buffer": 0,
      "byteOffset": 330776,
      "byteLength": 9726,
      "target": 34963
    },
    {
      "buffer": 0,
      "byteOffset": 340502,
      "byteLength": 4758,
      "target": 34963
    },
    {
      "buffer": 0,
      "byteOffset": 345260,
      "byteLength": 900,
      "target": 34963
    },
    {
      "buffer": 0,
      "byteOffset": 346160,
      "byteLength": 5058,
      "target": 34963
    },
    {
      "buffer": 0,
      "byteOffset": 351218,
      "byteLength": 2814,
      "target": 34963
    },
    {
      "buffer": 0,
      "byteOffset": 354032,
      "byteLength": 636,
      "target": 34963
    },
    {
      "buffer": 0,
      "byteOffset": 354668,
      "byteLength": 696,
      "target": 34963
    },
    {
      "buffer": 0,
      "byteOffset": 355364,
      "byteLength": 576,
      "target": 34963
    },
    {
      "buffer": 0,
      "byteOffset": 355940,
      "byteLength": 552,
      "target": 34963
    },
    {
      "buffer": 0,
      "byteOffset": 356492,
      "byteLength": 696,
      "target": 34963
    },
    {
      "buffer": 0,
      "byteOffset": 357188,
      "byteLength": 720,
      "target": 34963
    },
    {
      "buffer": 0,
      "byteOffset": 357908,
      "byteLength": 552,
      "target": 34963
    },
    {
      "buffer": 0,
      "byteOffset": 358460,
      "byteLength": 636,
      "target": 34963
    },
    {
      "buffer": 0,
      "byteOffset": 359096,
      "byteLength": 48,
      "target": 34963
    },
    {
      "buffer": 0,
      "byteOffset": 359144,
      "byteLength": 48,
      "target": 34963
    },
    {
      "buffer": 0,
      "byteOffset": 359192,
      "byteLength": 72,
      "target": 34963
    },
    {
      "buffer": 0,
      "byteOffset": 359264,
      "byteLength": 900,
      "target": 34963
    },
    {
      "buffer": 0,
      "byteOffset": 360164,
      "byteLength": 4668,
      "target": 34963
    },
    {
      "buffer": 0,
      "byteOffset": 364832,
      "byteLength": 1944,
      "target": 34963
    },
    {
      "buffer": 0,
      "byteOffset": 366776,
      "byteLength": 720,
      "target": 34963
    },
    {
      "buffer": 0,
      "byteOffset": 367496,
      "byteLength": 636,
      "target": 34963
    },
    {
      "buffer": 0,
      "byteOffset": 368132,
      "byteLength": 528,
      "target": 34963
    },
    {
      "buffer": 0,
      "byteOffset": 368660,
      "byteLength": 696,
      "target": 34963
    },
    {
      "buffer": 0,
      "byteOffset": 369356,
      "byteLength": 720,
      "target": 34963
    },
    {
      "buffer": 0,
      "byteOffset": 370076,
      "byteLength": 576,
      "target": 34963
    },
    {
      "buffer": 0,
      "byteOffset": 370652,
      "byteLength": 636,
      "target": 34963
    },
    {
      "buffer": 0,
      "byteOffset": 371288,
      "byteLength": 48,
      "target": 34963
    },
    {
      "buffer": 0,
      "byteOffset": 371336,
      "byteLength": 48,
      "target": 34963
    },
    {
      "buffer": 0,
      "byteOffset": 371384,
      "byteLength": 108,
      "target": 34963
    }
  ],
  "buffers": [
    {
      "byteLength": 371492,
      "uri": "industrialshelter02_bk.bin"
    }
  ]
}