{
  "asset": {
    "version": "2.0",
    "generator": "XBG to GLTF Converter with Textures"
  },
  "scene": 0,
  "scenes": [
    {
      "name": "Scene",
      "nodes": [
        14
      ]
    }
  ],
  "nodes": [
    {
      "name": "PropaneTankKiln",
      "children": [
        1
      ]
    },
    {
      "name": "States",
      "translation": [
        0.0,
        -0.4925079345703125,
        0.0
      ],
      "children": [
        2,
        4,
        7,
        8,
        9,
        10,
        11,
        12
      ]
    },
    {
      "name": "States01",
      "translation": [
        0.0,
        -0.3680287003517151,
        0.0
      ],
      "children": [
        3
      ]
    },
    {
      "name": "FX",
      "translation": [
        0.4677085876464844,
        -0.5320972800254822,
        0.5333607196807861
      ],
      "rotation": [
        0.6755898014338779,
        0.0,
        0.0,
        0.7372777090069478
      ]
    },
    {
      "name": "States02",
      "translation": [
        0.0,
        -0.7316123843193054,
        0.0
      ],
      "children": [
        5,
        6
      ]
    },
    {
      "name": "FX_State2",
      "translation": [
        0.7975823283195496,
        0.1632244884967804,
        0.12472627311944962
      ]
    },
    {
      "name": "FX_State02_Wood",
      "translation": [
        0.7975823283195496,
        0.1632244884967804,
        0.2522645592689514
      ]
    },
    {
      "name": "State03_01",
      "translation": [
        1.0669792890548706,
        -0.5382804870605469,
        -0.5455125570297241
      ],
      "rotation": [
        0.596367935493532,
        0.3799282864545959,
        0.379928278498368,
        0.5963676553629891
      ]
    },
    {
      "name": "State03_02",
      "translation": [
        0.5196753740310669,
        -0.5437249541282654,
        0.5231570601463318
      ],
      "rotation": [
        0.07013166722484211,
        0.5327029843856838,
        -0.1100846614551917,
        0.8361760862533835
      ]
    },
    {
      "name": "State03_03",
      "translation": [
        0.7123415470123291,
        -0.1005154401063919,
        0.5315473675727844
      ],
      "rotation": [
        -0.37992830830069235,
        0.37992825665227214,
        0.5963679354935305,
        0.5963676553629891
      ]
    },
    {
      "name": "State03_04",
      "translation": [
        0.685361921787262,
        -0.8223845958709717,
        0.512639582157135
      ],
      "rotation": [
        -0.4401300818623537,
        -0.3081823876272479,
        0.6908658133500062,
        -0.4837494747129342
      ]
    },
    {
      "name": "State03_05",
      "translation": [
        1.0320910215377808,
        -0.9502639770507812,
        0.4705294966697693
      ],
      "rotation": [
        0.0,
        0.5372995639214236,
        0.0,
        0.8433914741149854
      ]
    },
    {
      "name": "State03_06",
      "translation": [
        0.7123415470123291,
        -0.4507136344909668,
        0.9133692979812622
      ],
      "rotation": [
        -0.37992830830069235,
        0.37992825665227214,
        0.5963679354935305,
        0.5963676553629891
      ]
    },
    {
      "name": "MeshNode_LOD0",
      "mesh": 0,
      "skin": 0
    },
    {
      "name": "Correction_Root",
      "rotation": [
        -0.70710678,
        0.0,
        0.0,
        0.70710678
      ],
      "children": [
        0,
        13
      ]
    }
  ],
  "meshes": [
    {
      "name": "Mesh_LOD0",
      "primitives": [
        {
          "attributes": {
            "POSITION": 1,
            "JOINTS_0": 3,
            "WEIGHTS_0": 4,
            "TEXCOORD_0": 2
          },
          "indices": 5,
          "material": 0
        },
        {
          "attributes": {
            "POSITION": 1,
            "JOINTS_0": 3,
            "WEIGHTS_0": 4,
            "TEXCOORD_0": 2
          },
          "indices": 6,
          "material": 1
        },
        {
          "attributes": {
            "POSITION": 1,
            "JOINTS_0": 3,
            "WEIGHTS_0": 4,
            "TEXCOORD_0": 2
          },
          "indices": 7,
          "material": 2
        },
        {
          "attributes": {
            "POSITION": 1,
            "JOINTS_0": 3,
            "WEIGHTS_0": 4,
            "TEXCOORD_0": 2
          },
          "indices": 8,
          "material": 0
        },
        {
          "attributes": {
            "POSITION": 1,
            "JOINTS_0": 3,
            "WEIGHTS_0": 4,
            "TEXCOORD_0": 2
          },
          "indices": 9,
          "material": 1
        },
        {
          "attributes": {
            "POSITION": 1,
            "JOINTS_0": 3,
            "WEIGHTS_0": 4,
            "TEXCOORD_0": 2
          },
          "indices": 10,
          "material": 2
        },
        {
          "attributes": {
            "POSITION": 1,
            "JOINTS_0": 3,
            "WEIGHTS_0": 4,
            "TEXCOORD_0": 2
          },
          "indices": 11,
          "material": 1
        },
        {
          "attributes": {
            "POSITION": 1,
            "JOINTS_0": 3,
            "WEIGHTS_0": 4,
            "TEXCOORD_0": 2
          },
          "indices": 12,
          "material": 1
        },
        {
          "attributes": {
            "POSITION": 1,
            "JOINTS_0": 3,
            "WEIGHTS_0": 4,
            "TEXCOORD_0": 2
          },
          "indices": 13,
          "material": 1
        },
        {
          "attributes": {
            "POSITION": 1,
            "JOINTS_0": 3,
            "WEIGHTS_0": 4,
            "TEXCOORD_0": 2
          },
          "indices": 14,
          "material": 1
        },
        {
          "attributes": {
            "POSITION": 1,
            "JOINTS_0": 3,
            "WEIGHTS_0": 4,
            "TEXCOORD_0": 2
          },
          "indices": 15,
          "material": 0
        },
        {
          "attributes": {
            "POSITION": 1,
            "JOINTS_0": 3,
            "WEIGHTS_0": 4,
            "TEXCOORD_0": 2
          },
          "indices": 16,
          "material": 1
        }
      ]
    }
  ],
  "skins": [
    {
      "inverseBindMatrices": 0,
      "joints": [
        0,
        1,
        2,
        3,
        4,
        5,
        6,
        7,
        8,
        9,
        10,
        11,
        12
      ],
      "name": "Armature",
      "skeleton": 0
    }
  ],
  "materials": [
    {
      "name": "GRAPHICS\\_MATERIALS\\JFCARRIER2-M-23112007699541.xbm",
      "pbrMetallicRoughness": {
        "baseColorFactor": [
          1.0,
          1.0,
          1.0,
          1.0
        ],
        "metallicFactor": 0.0,
        "roughnessFactor": 1.0,
        "baseColorTexture": {
          "index": 0,
          "texCoord": 0
        }
      },
      "doubleSided": true
    },
    {
      "name": "GRAPHICS\\_MATERIALS\\CBERGERONLYONNAIS-M-2007012364723277.xbm",
      "pbrMetallicRoughness": {
        "baseColorFactor": [
          1.0,
          1.0,
          1.0,
          1.0
        ],
        "metallicFactor": 0.0,
        "roughnessFactor": 1.0,
        "baseColorTexture": {
          "index": 1,
          "texCoord": 0
        }
      },
      "doubleSided": true
    },
    {
      "name": "GRAPHICS\\_MATERIALS\\JFCARRIER2-M-231120071227361.xbm",
      "pbrMetallicRoughness": {
        "baseColorFactor": [
          1.0,
          1.0,
          1.0,
          1.0
        ],
        "metallicFactor": 0.0,
        "roughnessFactor": 1.0,
        "baseColorTexture": {
          "index": 2,
          "texCoord": 0
        }
      },
      "doubleSided": true
    }
  ],
  "textures": [
    {
      "sampler": 0,
      "source": 0
    },
    {
      "sampler": 0,
      "source": 1
    },
    {
      "sampler": 0,
      "source": 2
    }
  ],
  "images": [
    {
      "name": "dirt_02_d",
      "mimeType": "image/png",
      "uri": "data:image/png;base64,"
    },
    {
      "name": "woodslick_01_d",
      "mimeType": "image/png",
      "uri": "data:image/png;base64,"
    },
    {
      "name": "plasticbarrel_m",
      "mimeType": "image/png",
      "uri": "data:image/png;base64,"
    }
  ],
  "samplers": [
    {
      "magFilter": 9729,
      "minFilter": 9987,
      "wrapS": 10497,
      "wrapT": 10497
    }
  ],
  "accessors": [
    {
      "bufferView": 0,
      "componentType": 5126,
      "count": 13,
      "type": "MAT4"
    },
    {
      "bufferView": 1,
      "componentType": 5126,
      "count": 5412,
      "type": "VEC3",
      "min": [
        -0.14734336361289024,
        -0.46461378782987595,
        -0.5263222139328718
      ],
      "max": [
        1.089632861316204,
        0.5790581982582808,
        0.7544175535440445
      ]
    },
    {
      "bufferView": 2,
      "componentType": 5126,
      "count": 5412,
      "type": "VEC2"
    },
    {
      "bufferView": 3,
      "componentType": 5123,
      "count": 5412,
      "type": "VEC4"
    },
    {
      "bufferView": 4,
      "componentType": 5126,
      "count": 5412,
      "type": "VEC4"
    },
    {
      "bufferView": 5,
      "componentType": 5123,
      "count": 1770,
      "type": "SCALAR"
    },
    {
      "bufferView": 6,
      "componentType": 5123,
      "count": 3600,
      "type": "SCALAR"
    },
    {
      "bufferView": 7,
      "componentType": 5123,
      "count": 2280,
      "type": "SCALAR"
    },
    {
      "bufferView": 8,
      "componentType": 5123,
      "count": 1770,
      "type": "SCALAR"
    },
    {
      "bufferView": 9,
      "componentType": 5123,
      "count": 3600,
      "type": "SCALAR"
    },
    {
      "bufferView": 10,
      "componentType": 5123,
      "count": 1974,
      "type": "SCALAR"
    },
    {
      "bufferView": 11,
      "componentType": 5123,
      "count": 240,
      "type": "SCALAR"
    },
    {
      "bufferView": 12,
      "componentType": 5123,
      "count": 240,
      "type": "SCALAR"
    },
    {
      "bufferView": 13,
      "componentType": 5123,
      "count": 240,
      "type": "SCALAR"
    },
    {
      "bufferView": 14,
      "componentType": 5123,
      "count": 240,
      "type": "SCALAR"
    },
    {
      "bufferView": 15,
      "componentType": 5123,
      "count": 552,
      "type": "SCALAR"
    },
    {
      "bufferView": 16,
      "componentType": 5123,
      "count": 240,
      "type": "SCALAR"
    }
  ],
  "bufferViews": [
    {
      "buffer": 0,
      "byteOffset": 0,
      "byteLength": 832
    },
    {
      "buffer": 0,
      "byteOffset": 832,
      "byteLength": 64944,
      "target": 34962
    },
    {
      "buffer": 0,
      "byteOffset": 65776,
      "byteLength": 43296,
      "target": 34962
    },
    {
      "buffer": 0,
      "byteOffset": 109072,
      "byteLength": 43296,
      "target": 34962
    },
    {
      "buffer": 0,
      "byteOffset": 152368,
      "byteLength": 86592,
      "target": 34962
    },
    {
      "buffer": 0,
      "byteOffset": 238960,
      "byteLength": 3540,
      "target": 34963
    },
    {
      "buffer": 0,
      "byteOffset": 242500,
      "byteLength": 7200,
      "target": 34963
    },
    {
      "buffer": 0,
      "byteOffset": 249700,
      "byteLength": 4560,
      "target": 34963
    },
    {
      "buffer": 0,
      "byteOffset": 254260,
      "byteLength": 3540,
      "target": 34963
    },
    {
      "buffer": 0,
      "byteOffset": 257800,
      "byteLength": 7200,
      "target": 34963
    },
    {
      "buffer": 0,
      "byteOffset": 265000,
      "byteLength": 3948,
      "target": 34963
    },
    {
      "buffer": 0,
      "byteOffset": 268948,
      "byteLength": 480,
      "target": 34963
    },
    {
      "buffer": 0,
      "byteOffset": 269428,
      "byteLength": 480,
      "target": 34963
    },
    {
      "buffer": 0,
      "byteOffset": 269908,
      "byteLength": 480,
      "target": 34963
    },
    {
      "buffer": 0,
      "byteOffset": 270388,
      "byteLength": 480,
      "target": 34963
    },
    {
      "buffer": 0,
      "byteOffset": 270868,
      "byteLength": 1104,
      "target": 34963
    },
    {
      "buffer": 0,
      "byteOffset": 271972,
      "byteLength": 480,
      "target": 34963
    }
  ],
  "buffers": [
    {
      "byteLength": 272452,
      "uri": "propanetankkiln.bin"
    }
  ]
}