{
  "asset": {
    "version": "2.0",
    "generator": "XBG to GLTF Converter with Textures"
  },
  "scene": 0,
  "scenes": [
    {
      "name": "Scene",
      "nodes": [
        2
      ]
    }
  ],
  "nodes": [
    {
      "name": "Prolemirius_F"
    },
    {
      "name": "MeshNode_LOD0",
      "mesh": 0,
      "skin": 0
    },
    {
      "name": "Correction_Root",
      "rotation": [
        -0.70710678,
        0.0,
        0.0,
        0.70710678
      ],
      "children": [
        0,
        1
      ]
    }
  ],
  "meshes": [
    {
      "name": "Mesh_LOD0",
      "primitives": [
        {
          "attributes": {
            "POSITION": 1,
            "JOINTS_0": 3,
            "WEIGHTS_0": 4,
            "TEXCOORD_0": 2
          },
          "indices": 5,
          "material": 0
        },
        {
          "attributes": {
            "POSITION": 1,
            "JOINTS_0": 3,
            "WEIGHTS_0": 4,
            "TEXCOORD_0": 2
          },
          "indices": 6,
          "material": 1
        }
      ]
    }
  ],
  "skins": [
    {
      "inverseBindMatrices": 0,
      "joints": [
        0
      ],
      "name": "Armature",
      "skeleton": 0
    }
  ],
  "materials": [
    {
      "name": "GRAPHICS\\_MATERIALS\\CSEAUT-M-2008070951045380.xbm",
      "pbrMetallicRoughness": {
        "baseColorFactor": [
          1.0,
          1.0,
          1.0,
          1.0
        ],
        "metallicFactor": 0.0,
        "roughnessFactor": 1.0,
        "baseColorTexture": {
          "index": 0,
          "texCoord": 0
        }
      },
      "doubleSided": true
    },
    {
      "name": "GRAPHICS\\_MATERIALS\\CSEAUT-M-2008061051430148.xbm",
      "pbrMetallicRoughness": {
        "baseColorFactor": [
          1.0,
          1.0,
          1.0,
          1.0
        ],
        "metallicFactor": 0.0,
        "roughnessFactor": 1.0,
        "baseColorTexture": {
          "index": 1,
          "texCoord": 0
        }
      },
      "doubleSided": true
    }
  ],
  "textures": [
    {
      "sampler": 0,
      "source": 0
    },
    {
      "sampler": 0,
      "source": 1
    }
  ],
  "images": [
    {
      "name": "prolemirius_body_f_d",
      "mimeType": "image/png",
      "uri": "data:image/png;base64,"
    },
    {
      "name": "prolemirius_eye_d",
      "mimeType": "image/png",
      "uri": "data:image/png;base64,"
    }
  ],
  "samplers": [
    {
      "magFilter": 9729,
      "minFilter": 9987,
      "wrapS": 10497,
      "wrapT": 10497
    }
  ],
  "accessors": [
    {
      "bufferView": 0,
      "componentType": 5126,
      "count": 1,
      "type": "MAT4"
    },
    {
      "bufferView": 1,
      "componentType": 5126,
      "count": 5807,
      "type": "VEC3",
      "min": [
        -1.1327249966561794,
        -0.6201971489936113,
        -0.5633411658927798
      ],
      "max": [
        1.1326334411278367,
        0.5280007319524884,
        2.4770348193123937
      ]
    },
    {
      "bufferView": 2,
      "componentType": 5126,
      "count": 5807,
      "type": "VEC2"
    },
    {
      "bufferView": 3,
      "componentType": 5123,
      "count": 5807,
      "type": "VEC4"
    },
    {
      "bufferView": 4,
      "componentType": 5126,
      "count": 5807,
      "type": "VEC4"
    },
    {
      "bufferView": 5,
      "componentType": 5123,
      "count": 28206,
      "type": "SCALAR"
    },
    {
      "bufferView": 6,
      "componentType": 5123,
      "count": 720,
      "type": "SCALAR"
    }
  ],
  "bufferViews": [
    {
      "buffer": 0,
      "byteOffset": 0,
      "byteLength": 64
    },
    {
      "buffer": 0,
      "byteOffset": 64,
      "byteLength": 69684,
      "target": 34962
    },
    {
      "buffer": 0,
      "byteOffset": 69748,
      "byteLength": 46456,
      "target": 34962
    },
    {
      "buffer": 0,
      "byteOffset": 116204,
      "byteLength": 46456,
      "target": 34962
    },
    {
      "buffer": 0,
      "byteOffset": 162660,
      "byteLength": 92912,
      "target": 34962
    },
    {
      "buffer": 0,
      "byteOffset": 255572,
      "byteLength": 56412,
      "target": 34963
    },
    {
      "buffer": 0,
      "byteOffset": 311984,
      "byteLength": 1440,
      "target": 34963
    }
  ],
  "buffers": [
    {
      "byteLength": 313424,
      "uri": "prolemirius_f.bin"
    }
  ]
}