{
  "asset": {
    "version": "2.0",
    "generator": "XBG to GLTF Converter with Textures"
  },
  "scene": 0,
  "scenes": [
    {
      "name": "Scene",
      "nodes": [
        6
      ]
    }
  ],
  "nodes": [
    {
      "name": "Rail_Gun_06",
      "children": [
        1,
        2,
        3,
        4
      ]
    },
    {
      "name": "FRAME",
      "translation": [
        -0.22459684312343597,
        0.004231229890137911,
        -0.02694839984178543
      ]
    },
    {
      "name": "CLIP",
      "translation": [
        0.11233244836330414,
        -0.12512685358524323,
        0.07235612720251083
      ]
    },
    {
      "name": "FX_CASING",
      "translation": [
        -0.17066441476345062,
        -0.06151751056313515,
        0.17143283784389496
      ],
      "rotation": [
        -4.999999977062047e-08,
        0.30070587753597616,
        0.9537169261449177,
        7.54978995945654e-08
      ]
    },
    {
      "name": "FX_FIRE",
      "translation": [
        0.9696580171585083,
        -0.00013954000314697623,
        0.1396939605474472
      ],
      "rotation": [
        -1.6970562868597252e-07,
        1.6263455811012102e-07,
        -0.7071067690849289,
        0.7071067932881269
      ]
    },
    {
      "name": "MeshNode_LOD0",
      "mesh": 0,
      "skin": 0
    },
    {
      "name": "Correction_Root",
      "rotation": [
        -0.70710678,
        0.0,
        0.0,
        0.70710678
      ],
      "children": [
        0,
        5
      ]
    }
  ],
  "meshes": [
    {
      "name": "Mesh_LOD0",
      "primitives": [
        {
          "attributes": {
            "POSITION": 1,
            "JOINTS_0": 3,
            "WEIGHTS_0": 4,
            "TEXCOORD_0": 2
          },
          "indices": 5,
          "material": 0
        },
        {
          "attributes": {
            "POSITION": 1,
            "JOINTS_0": 3,
            "WEIGHTS_0": 4,
            "TEXCOORD_0": 2
          },
          "indices": 6,
          "material": 0
        }
      ]
    }
  ],
  "skins": [
    {
      "inverseBindMatrices": 0,
      "joints": [
        0,
        1,
        2,
        3,
        4
      ],
      "name": "Armature",
      "skeleton": 0
    }
  ],
  "materials": [
    {
      "name": "GRAPHICS\\_MATERIALS\\SGAGNON-M-2009060957851206.xbm",
      "pbrMetallicRoughness": {
        "baseColorFactor": [
          1.0,
          1.0,
          1.0,
          1.0
        ],
        "metallicFactor": 0.0,
        "roughnessFactor": 1.0,
        "baseColorTexture": {
          "index": 0,
          "texCoord": 0
        }
      },
      "doubleSided": true
    }
  ],
  "textures": [
    {
      "sampler": 0,
      "source": 0
    }
  ],
  "images": [
    {
      "name": "rail_gun_3rd_06_d",
      "mimeType": "image/png",
      "uri": "data:image/png;base64,"
    }
  ],
  "samplers": [
    {
      "magFilter": 9729,
      "minFilter": 9987,
      "wrapS": 10497,
      "wrapT": 10497
    }
  ],
  "accessors": [
    {
      "bufferView": 0,
      "componentType": 5126,
      "count": 5,
      "type": "MAT4"
    },
    {
      "bufferView": 1,
      "componentType": 5126,
      "count": 1514,
      "type": "VEC3",
      "min": [
        -0.17688528075814247,
        -0.0955839715898037,
        -0.0867946408689022
      ],
      "max": [
        1.2083498630672693,
        0.13940855115652084,
        0.3532212283462286
      ]
    },
    {
      "bufferView": 2,
      "componentType": 5126,
      "count": 1514,
      "type": "VEC2"
    },
    {
      "bufferView": 3,
      "componentType": 5123,
      "count": 1514,
      "type": "VEC4"
    },
    {
      "bufferView": 4,
      "componentType": 5126,
      "count": 1514,
      "type": "VEC4"
    },
    {
      "bufferView": 5,
      "componentType": 5123,
      "count": 3102,
      "type": "SCALAR"
    },
    {
      "bufferView": 6,
      "componentType": 5123,
      "count": 108,
      "type": "SCALAR"
    }
  ],
  "bufferViews": [
    {
      "buffer": 0,
      "byteOffset": 0,
      "byteLength": 320
    },
    {
      "buffer": 0,
      "byteOffset": 320,
      "byteLength": 18168,
      "target": 34962
    },
    {
      "buffer": 0,
      "byteOffset": 18488,
      "byteLength": 12112,
      "target": 34962
    },
    {
      "buffer": 0,
      "byteOffset": 30600,
      "byteLength": 12112,
      "target": 34962
    },
    {
      "buffer": 0,
      "byteOffset": 42712,
      "byteLength": 24224,
      "target": 34962
    },
    {
      "buffer": 0,
      "byteOffset": 66936,
      "byteLength": 6204,
      "target": 34963
    },
    {
      "buffer": 0,
      "byteOffset": 73140,
      "byteLength": 216,
      "target": 34963
    }
  ],
  "buffers": [
    {
      "byteLength": 73356,
      "uri": "rail_gun_06.bin"
    }
  ]
}