{
  "asset": {
    "version": "2.0",
    "generator": "XBG to GLTF Converter with Textures"
  },
  "scene": 0,
  "scenes": [
    {
      "name": "Scene",
      "nodes": [
        8
      ]
    }
  ],
  "nodes": [
    {
      "name": "Banshee_Nest_02_Breacable",
      "children": [
        1
      ]
    },
    {
      "name": "e_Nest_02_Breacable_STATE",
      "translation": [
        0.28624293208122253,
        0.00920111034065485,
        0.0
      ],
      "children": [
        2,
        4,
        6
      ]
    },
    {
      "name": "Nest_02_Breacable_STATE01",
      "translation": [
        -0.08460167050361633,
        0.2149568349123001,
        0.0
      ],
      "children": [
        3
      ]
    },
    {
      "name": "SwichFX1",
      "translation": [
        0.6947994232177734,
        -0.004015690181404352,
        0.0
      ]
    },
    {
      "name": "_Nest_02_Breacable_STATE2",
      "translation": [
        -0.25954973697662354,
        -0.19850406050682068,
        0.0
      ],
      "children": [
        5
      ]
    },
    {
      "name": "SwichFX2",
      "translation": [
        -0.4585815966129303,
        1.5021032094955444,
        0.07705512642860413
      ]
    },
    {
      "name": "_Nest_02_Breacable_STATE3",
      "translation": [
        -0.1546923816204071,
        -0.20664824545383453,
        0.0
      ]
    },
    {
      "name": "MeshNode_LOD0",
      "mesh": 0,
      "skin": 0
    },
    {
      "name": "Correction_Root",
      "rotation": [
        -0.70710678,
        0.0,
        0.0,
        0.70710678
      ],
      "children": [
        0,
        7
      ]
    }
  ],
  "meshes": [
    {
      "name": "Mesh_LOD0",
      "primitives": [
        {
          "attributes": {
            "POSITION": 1,
            "JOINTS_0": 3,
            "WEIGHTS_0": 4,
            "TEXCOORD_0": 2
          },
          "indices": 5,
          "material": 0
        },
        {
          "attributes": {
            "POSITION": 1,
            "JOINTS_0": 3,
            "WEIGHTS_0": 4,
            "TEXCOORD_0": 2
          },
          "indices": 6,
          "material": 1
        },
        {
          "attributes": {
            "POSITION": 1,
            "JOINTS_0": 3,
            "WEIGHTS_0": 4,
            "TEXCOORD_0": 2
          },
          "indices": 7,
          "material": 0
        },
        {
          "attributes": {
            "POSITION": 1,
            "JOINTS_0": 3,
            "WEIGHTS_0": 4,
            "TEXCOORD_0": 2
          },
          "indices": 8,
          "material": 1
        },
        {
          "attributes": {
            "POSITION": 1,
            "JOINTS_0": 3,
            "WEIGHTS_0": 4,
            "TEXCOORD_0": 2
          },
          "indices": 9,
          "material": 0
        },
        {
          "attributes": {
            "POSITION": 1,
            "JOINTS_0": 3,
            "WEIGHTS_0": 4,
            "TEXCOORD_0": 2
          },
          "indices": 10,
          "material": 1
        }
      ]
    }
  ],
  "skins": [
    {
      "inverseBindMatrices": 0,
      "joints": [
        0,
        1,
        2,
        3,
        4,
        5,
        6
      ],
      "name": "Armature",
      "skeleton": 0
    }
  ],
  "materials": [
    {
      "name": "GRAPHICS\\_MATERIALS\\SLABRECHE-M-2009071738388673.xbm",
      "pbrMetallicRoughness": {
        "baseColorFactor": [
          1.0,
          1.0,
          1.0,
          1.0
        ],
        "metallicFactor": 0.0,
        "roughnessFactor": 1.0,
        "baseColorTexture": {
          "index": 0,
          "texCoord": 0
        }
      },
      "doubleSided": true
    },
    {
      "name": "GRAPHICS\\_MATERIALS\\SLABRECHE-M-2009071738037606.xbm",
      "pbrMetallicRoughness": {
        "baseColorFactor": [
          1.0,
          1.0,
          1.0,
          1.0
        ],
        "metallicFactor": 0.0,
        "roughnessFactor": 1.0,
        "baseColorTexture": {
          "index": 1,
          "texCoord": 0
        }
      },
      "doubleSided": true
    }
  ],
  "textures": [
    {
      "sampler": 0,
      "source": 0
    },
    {
      "sampler": 0,
      "source": 1
    }
  ],
  "images": [
    {
      "name": "banshee_nest_02_d",
      "mimeType": "image/png",
      "uri": "data:image/png;base64,"
    },
    {
      "name": "trunk_barkbusted_b_d",
      "mimeType": "image/png",
      "uri": "data:image/png;base64,"
    }
  ],
  "samplers": [
    {
      "magFilter": 9729,
      "minFilter": 9987,
      "wrapS": 10497,
      "wrapT": 10497
    }
  ],
  "accessors": [
    {
      "bufferView": 0,
      "componentType": 5126,
      "count": 7,
      "type": "MAT4"
    },
    {
      "bufferView": 1,
      "componentType": 5126,
      "count": 2657,
      "type": "VEC3",
      "min": [
        -6.063661605119705,
        -5.949583416804671,
        -13.939329190179706
      ],
      "max": [
        3.9769280031323433,
        3.0096133276820183,
        6.3063447922468185
      ]
    },
    {
      "bufferView": 2,
      "componentType": 5126,
      "count": 2657,
      "type": "VEC2"
    },
    {
      "bufferView": 3,
      "componentType": 5123,
      "count": 2657,
      "type": "VEC4"
    },
    {
      "bufferView": 4,
      "componentType": 5126,
      "count": 2657,
      "type": "VEC4"
    },
    {
      "bufferView": 5,
      "componentType": 5123,
      "count": 1686,
      "type": "SCALAR"
    },
    {
      "bufferView": 6,
      "componentType": 5123,
      "count": 1950,
      "type": "SCALAR"
    },
    {
      "bufferView": 7,
      "componentType": 5123,
      "count": 1314,
      "type": "SCALAR"
    },
    {
      "bufferView": 8,
      "componentType": 5123,
      "count": 1566,
      "type": "SCALAR"
    },
    {
      "bufferView": 9,
      "componentType": 5123,
      "count": 588,
      "type": "SCALAR"
    },
    {
      "bufferView": 10,
      "componentType": 5123,
      "count": 1356,
      "type": "SCALAR"
    }
  ],
  "bufferViews": [
    {
      "buffer": 0,
      "byteOffset": 0,
      "byteLength": 448
    },
    {
      "buffer": 0,
      "byteOffset": 448,
      "byteLength": 31884,
      "target": 34962
    },
    {
      "buffer": 0,
      "byteOffset": 32332,
      "byteLength": 21256,
      "target": 34962
    },
    {
      "buffer": 0,
      "byteOffset": 53588,
      "byteLength": 21256,
      "target": 34962
    },
    {
      "buffer": 0,
      "byteOffset": 74844,
      "byteLength": 42512,
      "target": 34962
    },
    {
      "buffer": 0,
      "byteOffset": 117356,
      "byteLength": 3372,
      "target": 34963
    },
    {
      "buffer": 0,
      "byteOffset": 120728,
      "byteLength": 3900,
      "target": 34963
    },
    {
      "buffer": 0,
      "byteOffset": 124628,
      "byteLength": 2628,
      "target": 34963
    },
    {
      "buffer": 0,
      "byteOffset": 127256,
      "byteLength": 3132,
      "target": 34963
    },
    {
      "buffer": 0,
      "byteOffset": 130388,
      "byteLength": 1176,
      "target": 34963
    },
    {
      "buffer": 0,
      "byteOffset": 131564,
      "byteLength": 2712,
      "target": 34963
    }
  ],
  "buffers": [
    {
      "byteLength": 134276,
      "uri": "banshee_nest_02_breacable.bin"
    }
  ]
}