{
  "asset": {
    "version": "2.0",
    "generator": "XBG to GLTF Converter with Textures"
  },
  "scene": 0,
  "scenes": [
    {
      "name": "Scene",
      "nodes": [
        36
      ]
    }
  ],
  "nodes": [
    {
      "name": "Dragon",
      "children": [
        1,
        27,
        29,
        31
      ]
    },
    {
      "name": "Dragon_Body",
      "translation": [
        0.0,
        0.0,
        0.03756659850478172
      ],
      "children": [
        2,
        3,
        4,
        5,
        6,
        7,
        8,
        9,
        10,
        11,
        12,
        15,
        18,
        22,
        26
      ]
    },
    {
      "name": "Pilot_SitPoint_01",
      "translation": [
        1.731894850730896,
        8.07852840423584,
        3.988452672958374
      ]
    },
    {
      "name": "FX_BlinkLight_Back_Left",
      "translation": [
        -2.702739715576172,
        -28.99489974975586,
        6.428802967071533
      ],
      "rotation": [
        0.70710676908493,
        0.0,
        0.0,
        0.7071067932881648
      ]
    },
    {
      "name": "FX_BlinkLight_Back_Right",
      "translation": [
        3.311009407043457,
        -28.994890213012695,
        6.428802967071533
      ],
      "rotation": [
        0.70710676908493,
        0.0,
        0.0,
        0.7071067932881648
      ]
    },
    {
      "name": "Grenade_Luncher_Right",
      "translation": [
        11.572306632995605,
        -7.808866024017334,
        3.077127695083618
      ]
    },
    {
      "name": "Grenade_Luncher_Left",
      "translation": [
        -11.040273666381836,
        -7.808866024017334,
        3.077127695083618
      ]
    },
    {
      "name": "Rocket01",
      "translation": [
        6.78885555267334,
        4.149556636810303,
        1.5362316370010376
      ]
    },
    {
      "name": "Rocket02",
      "translation": [
        -6.155270099639893,
        4.149556636810303,
        1.5362316370010376
      ]
    },
    {
      "name": "FX_FIRE_RIGHT_02",
      "translation": [
        8.89100170135498,
        4.851381301879883,
        3.5765843391418457
      ]
    },
    {
      "name": "FX_FIRE_LEFT_02",
      "translation": [
        -8.29310131072998,
        4.851381301879883,
        3.5765843391418457
      ]
    },
    {
      "name": "FX_FIRE_CENTER",
      "translation": [
        -0.07738061994314194,
        9.553618431091309,
        2.279445171356201
      ]
    },
    {
      "name": "R_Rotator_Back_Left_Pivot",
      "translation": [
        -4.364848613739014,
        -25.76380729675293,
        5.9654221534729
      ],
      "children": [
        13
      ]
    },
    {
      "name": "Rotator_Back_Left_Pivot",
      "children": [
        14
      ]
    },
    {
      "name": "ONTROLLER_Helix_Back_Left",
      "translation": [
        -4.938835144042969,
        0.01228270959109068,
        0.505619466304779
      ]
    },
    {
      "name": "_Rotator_Back_Right_Pivot",
      "translation": [
        4.953295707702637,
        -25.76380729675293,
        5.965421676635742
      ],
      "children": [
        16
      ]
    },
    {
      "name": "Rotator_Back_Right_Pivot",
      "children": [
        17
      ]
    },
    {
      "name": "NTROLLER_Helix_Back_Right",
      "translation": [
        4.938777446746826,
        0.012287599965929985,
        0.5056201219558716
      ]
    },
    {
      "name": "_Rotator_Front_Left_Pivot",
      "translation": [
        -7.627773284912109,
        -4.933122634887695,
        5.967158794403076
      ],
      "children": [
        19
      ]
    },
    {
      "name": "Rotator_Front_Left_Pivot",
      "translation": [
        1.2199999446238508e-06,
        0.0,
        -6.099999723119254e-07
      ],
      "children": [
        20,
        21
      ]
    },
    {
      "name": "FX_BlinkLight_Front_Left",
      "translation": [
        -8.5859956741333,
        -0.17233093082904816,
        1.419110655784607
      ],
      "rotation": [
        0.70710676908493,
        0.0,
        0.0,
        0.7071067932881648
      ]
    },
    {
      "name": "NTROLLER_Helix_Front_Left",
      "translation": [
        -4.929771423339844,
        0.012285159900784492,
        0.46506834030151367
      ]
    },
    {
      "name": "Rotator_Front_Right_Pivot",
      "translation": [
        8.219521522521973,
        -4.933122634887695,
        5.967158794403076
      ],
      "children": [
        23
      ]
    },
    {
      "name": "Rotator_Front_Right_Pivot",
      "translation": [
        -1.2199999446238508e-06,
        0.0,
        -6.099999723119254e-07
      ],
      "children": [
        24,
        25
      ]
    },
    {
      "name": "FX_BlinkLight_Front_Right",
      "translation": [
        8.56403923034668,
        -0.17232848703861237,
        1.419110655784607
      ],
      "rotation": [
        0.70710676908493,
        0.0,
        0.0,
        0.7071067932881648
      ]
    },
    {
      "name": "TROLLER_Helix_Front_Right",
      "translation": [
        4.926407337188721,
        0.012287599965929985,
        0.46506834030151367
      ]
    },
    {
      "name": "Pilot_EntryPoint_01",
      "translation": [
        -2.879532814025879,
        6.179622650146484,
        -0.1601828783750534
      ],
      "rotation": [
        0.0,
        0.0,
        -0.707106769084929,
        0.7071067932881658
      ]
    },
    {
      "name": "Headlight_Left_State",
      "translation": [
        7.189274787902832,
        -0.3379550874233246,
        1.7284990549087524
      ],
      "rotation": [
        0.1591467720493501,
        0.19451325916329085,
        0.8648713445641435,
        0.4345508652768706
      ],
      "children": [
        28
      ]
    },
    {
      "name": "Headlight_Left_State01",
      "rotation": [
        -2.7755575615628914e-17,
        -2.42861286636753e-17,
        3.122502256758252e-17,
        1.0
      ]
    },
    {
      "name": "Headlight_N_Left_State",
      "translation": [
        7.189274787902832,
        -0.3379550874233246,
        1.7284990549087524
      ],
      "rotation": [
        0.1591467720493501,
        0.19451325916329085,
        0.8648713445641435,
        0.4345508652768706
      ],
      "children": [
        30
      ]
    },
    {
      "name": "Headlight_N_Left_State01",
      "rotation": [
        -2.7755575615628914e-17,
        -2.42861286636753e-17,
        3.122502256758252e-17,
        1.0
      ]
    },
    {
      "name": "CONTROLLER_TURRET_01",
      "translation": [
        1.7331041097640991,
        6.538619041442871,
        2.694406032562256
      ],
      "rotation": [
        0.15883877500143803,
        0.0,
        0.0,
        0.9873045343540374
      ],
      "children": [
        32
      ]
    },
    {
      "name": "NTROLLER_Weapon_TURRET_01",
      "translation": [
        0.0,
        -0.007258010096848011,
        -0.5788884758949275
      ],
      "rotation": [
        -0.15883882077586797,
        0.0,
        0.0,
        0.9873045269897893
      ],
      "children": [
        33,
        34
      ]
    },
    {
      "name": "FX_FIRE_RIGHT_01",
      "translation": [
        0.7638223171234131,
        0.7182309627532959,
        -0.2639231681823728
      ],
      "rotation": [
        -0.17364815953701995,
        0.0,
        0.0,
        0.9848077562090003
      ]
    },
    {
      "name": "FX_FIRE_LEFT_01",
      "translation": [
        -0.7334802150726318,
        0.7182309627532959,
        -0.2639231681823728
      ],
      "rotation": [
        -0.17364815953701995,
        0.0,
        0.0,
        0.9848077562090003
      ]
    },
    {
      "name": "MeshNode_LOD0",
      "mesh": 0,
      "skin": 0
    },
    {
      "name": "Correction_Root",
      "rotation": [
        -0.70710678,
        0.0,
        0.0,
        0.70710678
      ],
      "children": [
        0,
        35
      ]
    }
  ],
  "meshes": [
    {
      "name": "Mesh_LOD0",
      "primitives": [
        {
          "attributes": {
            "POSITION": 1,
            "JOINTS_0": 3,
            "WEIGHTS_0": 4,
            "TEXCOORD_0": 2
          },
          "indices": 5,
          "material": 2
        },
        {
          "attributes": {
            "POSITION": 1,
            "JOINTS_0": 3,
            "WEIGHTS_0": 4,
            "TEXCOORD_0": 2
          },
          "indices": 6,
          "material": 4
        },
        {
          "attributes": {
            "POSITION": 1,
            "JOINTS_0": 3,
            "WEIGHTS_0": 4,
            "TEXCOORD_0": 2
          },
          "indices": 7,
          "material": 2
        },
        {
          "attributes": {
            "POSITION": 1,
            "JOINTS_0": 3,
            "WEIGHTS_0": 4,
            "TEXCOORD_0": 2
          },
          "indices": 8,
          "material": 4
        },
        {
          "attributes": {
            "POSITION": 1,
            "JOINTS_0": 3,
            "WEIGHTS_0": 4,
            "TEXCOORD_0": 2
          },
          "indices": 9,
          "material": 2
        },
        {
          "attributes": {
            "POSITION": 1,
            "JOINTS_0": 3,
            "WEIGHTS_0": 4,
            "TEXCOORD_0": 2
          },
          "indices": 10,
          "material": 4
        },
        {
          "attributes": {
            "POSITION": 1,
            "JOINTS_0": 3,
            "WEIGHTS_0": 4,
            "TEXCOORD_0": 2
          },
          "indices": 11,
          "material": 2
        },
        {
          "attributes": {
            "POSITION": 1,
            "JOINTS_0": 3,
            "WEIGHTS_0": 4,
            "TEXCOORD_0": 2
          },
          "indices": 12,
          "material": 4
        },
        {
          "attributes": {
            "POSITION": 1,
            "JOINTS_0": 3,
            "WEIGHTS_0": 4,
            "TEXCOORD_0": 2
          },
          "indices": 13,
          "material": 3
        },
        {
          "attributes": {
            "POSITION": 1,
            "JOINTS_0": 3,
            "WEIGHTS_0": 4,
            "TEXCOORD_0": 2
          },
          "indices": 14,
          "material": 4
        },
        {
          "attributes": {
            "POSITION": 1,
            "JOINTS_0": 3,
            "WEIGHTS_0": 4,
            "TEXCOORD_0": 2
          },
          "indices": 15,
          "material": 5
        },
        {
          "attributes": {
            "POSITION": 1,
            "JOINTS_0": 3,
            "WEIGHTS_0": 4,
            "TEXCOORD_0": 2
          },
          "indices": 16,
          "material": 1
        },
        {
          "attributes": {
            "POSITION": 1,
            "JOINTS_0": 3,
            "WEIGHTS_0": 4,
            "TEXCOORD_0": 2
          },
          "indices": 17,
          "material": 0
        },
        {
          "attributes": {
            "POSITION": 1,
            "JOINTS_0": 3,
            "WEIGHTS_0": 4,
            "TEXCOORD_0": 2
          },
          "indices": 18,
          "material": 3
        },
        {
          "attributes": {
            "POSITION": 1,
            "JOINTS_0": 3,
            "WEIGHTS_0": 4,
            "TEXCOORD_0": 2
          },
          "indices": 19,
          "material": 4
        },
        {
          "attributes": {
            "POSITION": 1,
            "JOINTS_0": 3,
            "WEIGHTS_0": 4,
            "TEXCOORD_0": 2
          },
          "indices": 20,
          "material": 4
        }
      ]
    }
  ],
  "skins": [
    {
      "inverseBindMatrices": 0,
      "joints": [
        0,
        1,
        2,
        3,
        4,
        5,
        6,
        7,
        8,
        9,
        10,
        11,
        12,
        13,
        14,
        15,
        16,
        17,
        18,
        19,
        20,
        21,
        22,
        23,
        24,
        25,
        26,
        27,
        28,
        29,
        30,
        31,
        32,
        33,
        34
      ],
      "name": "Armature",
      "skeleton": 0
    }
  ],
  "materials": [
    {
      "name": "GRAPHICS\\_MATERIALS\\SDORE-M-2009032051553103.xbm",
      "pbrMetallicRoughness": {
        "baseColorFactor": [
          1.0,
          1.0,
          1.0,
          1.0
        ],
        "metallicFactor": 0.0,
        "roughnessFactor": 1.0,
        "baseColorTexture": {
          "index": 0,
          "texCoord": 0
        }
      },
      "doubleSided": true
    },
    {
      "name": "GRAPHICS\\_MATERIALS\\DPAYNE-M-1812200841647821.xbm",
      "pbrMetallicRoughness": {
        "baseColorFactor": [
          1.0,
          1.0,
          1.0,
          1.0
        ],
        "metallicFactor": 0.0,
        "roughnessFactor": 1.0,
        "baseColorTexture": {
          "index": 1,
          "texCoord": 0
        }
      },
      "doubleSided": true
    },
    {
      "name": "GRAPHICS\\_MATERIALS\\JDAPRATO-M-2008090532566174.xbm",
      "pbrMetallicRoughness": {
        "baseColorFactor": [
          1.0,
          1.0,
          1.0,
          1.0
        ],
        "metallicFactor": 0.0,
        "roughnessFactor": 1.0,
        "baseColorTexture": {
          "index": 2,
          "texCoord": 0
        }
      },
      "doubleSided": true
    },
    {
      "name": "GRAPHICS\\_MATERIALS\\XPERREAULT-M-2009031662950638.xbm",
      "pbrMetallicRoughness": {
        "baseColorFactor": [
          1.0,
          1.0,
          1.0,
          1.0
        ],
        "metallicFactor": 0.0,
        "roughnessFactor": 1.0,
        "baseColorTexture": {
          "index": 3,
          "texCoord": 0
        }
      },
      "doubleSided": true
    },
    {
      "name": "GRAPHICS\\_MATERIALS\\XPERREAULT-M-2009030936326519.xbm",
      "pbrMetallicRoughness": {
        "baseColorFactor": [
          1.0,
          1.0,
          1.0,
          1.0
        ],
        "metallicFactor": 0.0,
        "roughnessFactor": 1.0,
        "baseColorTexture": {
          "index": 4,
          "texCoord": 0
        }
      },
      "doubleSided": true
    },
    {
      "name": "GRAPHICS\\_MATERIALS\\XPERREAULT-M-2009020553535359.xbm",
      "pbrMetallicRoughness": {
        "baseColorFactor": [
          1.0,
          1.0,
          1.0,
          1.0
        ],
        "metallicFactor": 0.0,
        "roughnessFactor": 1.0,
        "baseColorTexture": {
          "index": 5,
          "texCoord": 0
        }
      },
      "doubleSided": true
    }
  ],
  "textures": [
    {
      "sampler": 0,
      "source": 0
    },
    {
      "sampler": 0,
      "source": 1
    },
    {
      "sampler": 0,
      "source": 2
    },
    {
      "sampler": 0,
      "source": 3
    },
    {
      "sampler": 0,
      "source": 4
    },
    {
      "sampler": 0,
      "source": 5
    }
  ],
  "images": [
    {
      "name": "vehicle_light_halo_d",
      "mimeType": "image/png",
      "uri": "data:image/png;base64,"
    },
    {
      "name": "iconic_grey_d",
      "mimeType": "image/png",
      "uri": "data:image/png;base64,"
    },
    {
      "name": "corp_samson_01_helix_d",
      "mimeType": "image/png",
      "uri": "data:image/png;base64,"
    },
    {
      "name": "dragon_guns_d",
      "mimeType": "image/png",
      "uri": "data:image/png;base64,"
    },
    {
      "name": "dragon_exterior_d",
      "mimeType": "image/png",
      "uri": "data:image/png;base64,"
    },
    {
      "name": "corp_vehicle_samson_alpha",
      "mimeType": "image/png",
      "uri": "data:image/png;base64,"
    }
  ],
  "samplers": [
    {
      "magFilter": 9729,
      "minFilter": 9987,
      "wrapS": 10497,
      "wrapT": 10497
    }
  ],
  "accessors": [
    {
      "bufferView": 0,
      "componentType": 5126,
      "count": 35,
      "type": "MAT4"
    },
    {
      "bufferView": 1,
      "componentType": 5126,
      "count": 33048,
      "type": "VEC3",
      "min": [
        -42.612872667610645,
        -30.142124670557678,
        -40.001403814181685
      ],
      "max": [
        27.139591637067497,
        30.744468491524458,
        9.117831956595182
      ]
    },
    {
      "bufferView": 2,
      "componentType": 5126,
      "count": 33048,
      "type": "VEC2"
    },
    {
      "bufferView": 3,
      "componentType": 5123,
      "count": 33048,
      "type": "VEC4"
    },
    {
      "bufferView": 4,
      "componentType": 5126,
      "count": 33048,
      "type": "VEC4"
    },
    {
      "bufferView": 5,
      "componentType": 5123,
      "count": 12,
      "type": "SCALAR"
    },
    {
      "bufferView": 6,
      "componentType": 5123,
      "count": 3144,
      "type": "SCALAR"
    },
    {
      "bufferView": 7,
      "componentType": 5123,
      "count": 12,
      "type": "SCALAR"
    },
    {
      "bufferView": 8,
      "componentType": 5123,
      "count": 3144,
      "type": "SCALAR"
    },
    {
      "bufferView": 9,
      "componentType": 5123,
      "count": 12,
      "type": "SCALAR"
    },
    {
      "bufferView": 10,
      "componentType": 5123,
      "count": 3204,
      "type": "SCALAR"
    },
    {
      "bufferView": 11,
      "componentType": 5123,
      "count": 12,
      "type": "SCALAR"
    },
    {
      "bufferView": 12,
      "componentType": 5123,
      "count": 3204,
      "type": "SCALAR"
    },
    {
      "bufferView": 13,
      "componentType": 5123,
      "count": 9054,
      "type": "SCALAR"
    },
    {
      "bufferView": 14,
      "componentType": 5123,
      "count": 35322,
      "type": "SCALAR"
    },
    {
      "bufferView": 15,
      "componentType": 5123,
      "count": 738,
      "type": "SCALAR"
    },
    {
      "bufferView": 16,
      "componentType": 5123,
      "count": 3,
      "type": "SCALAR"
    },
    {
      "bufferView": 17,
      "componentType": 5123,
      "count": 384,
      "type": "SCALAR"
    },
    {
      "bufferView": 18,
      "componentType": 5123,
      "count": 1224,
      "type": "SCALAR"
    },
    {
      "bufferView": 19,
      "componentType": 5123,
      "count": 972,
      "type": "SCALAR"
    },
    {
      "bufferView": 20,
      "componentType": 5123,
      "count": 348,
      "type": "SCALAR"
    }
  ],
  "bufferViews": [
    {
      "buffer": 0,
      "byteOffset": 0,
      "byteLength": 2240
    },
    {
      "buffer": 0,
      "byteOffset": 2240,
      "byteLength": 396576,
      "target": 34962
    },
    {
      "buffer": 0,
      "byteOffset": 398816,
      "byteLength": 264384,
      "target": 34962
    },
    {
      "buffer": 0,
      "byteOffset": 663200,
      "byteLength": 264384,
      "target": 34962
    },
    {
      "buffer": 0,
      "byteOffset": 927584,
      "byteLength": 528768,
      "target": 34962
    },
    {
      "buffer": 0,
      "byteOffset": 1456352,
      "byteLength": 24,
      "target": 34963
    },
    {
      "buffer": 0,
      "byteOffset": 1456376,
      "byteLength": 6288,
      "target": 34963
    },
    {
      "buffer": 0,
      "byteOffset": 1462664,
      "byteLength": 24,
      "target": 34963
    },
    {
      "buffer": 0,
      "byteOffset": 1462688,
      "byteLength": 6288,
      "target": 34963
    },
    {
      "buffer": 0,
      "byteOffset": 1468976,
      "byteLength": 24,
      "target": 34963
    },
    {
      "buffer": 0,
      "byteOffset": 1469000,
      "byteLength": 6408,
      "target": 34963
    },
    {
      "buffer": 0,
      "byteOffset": 1475408,
      "byteLength": 24,
      "target": 34963
    },
    {
      "buffer": 0,
      "byteOffset": 1475432,
      "byteLength": 6408,
      "target": 34963
    },
    {
      "buffer": 0,
      "byteOffset": 1481840,
      "byteLength": 18108,
      "target": 34963
    },
    {
      "buffer": 0,
      "byteOffset": 1499948,
      "byteLength": 70644,
      "target": 34963
    },
    {
      "buffer": 0,
      "byteOffset": 1570592,
      "byteLength": 1476,
      "target": 34963
    },
    {
      "buffer": 0,
      "byteOffset": 1572068,
      "byteLength": 6,
      "target": 34963
    },
    {
      "buffer": 0,
      "byteOffset": 1572074,
      "byteLength": 768,
      "target": 34963
    },
    {
      "buffer": 0,
      "byteOffset": 1572842,
      "byteLength": 2448,
      "target": 34963
    },
    {
      "buffer": 0,
      "byteOffset": 1575290,
      "byteLength": 1944,
      "target": 34963
    },
    {
      "buffer": 0,
      "byteOffset": 1577234,
      "byteLength": 696,
      "target": 34963
    }
  ],
  "buffers": [
    {
      "byteLength": 1577930,
      "uri": "dragon.bin"
    }
  ]
}