{
  "asset": {
    "version": "2.0",
    "generator": "XBG to GLTF Converter with Textures"
  },
  "scene": 0,
  "scenes": [
    {
      "name": "Scene",
      "nodes": [
        11
      ]
    }
  ],
  "nodes": [
    {
      "name": "MedecineSuppliesSmall00",
      "children": [
        1
      ]
    },
    {
      "name": "StatePrim01",
      "translation": [
        -0.46917447447776794,
        -0.028143230825662613,
        0.020334919914603233
      ],
      "rotation": [
        0.9997619943357371,
        0.0,
        0.0,
        0.021816385627079982
      ],
      "children": [
        2,
        6,
        8
      ]
    },
    {
      "name": "State01Prim01",
      "translation": [
        0.0,
        -6.938893903907228e-18,
        0.10104584693908691
      ],
      "children": [
        3,
        4,
        5
      ]
    },
    {
      "name": "edecineSuppliesSmall00_FX",
      "translation": [
        0.4718261659145355,
        -0.026486260816454884,
        0.12616685032844543
      ]
    },
    {
      "name": "ecineSuppliesSmall00_FX01",
      "translation": [
        0.4718261659145355,
        -0.09685020148754118,
        0.0707067400217056
      ],
      "rotation": [
        0.7357766621909417,
        0.0,
        0.0,
        0.677224263722998
      ]
    },
    {
      "name": "ecineSuppliesSmall00_FX02",
      "translation": [
        0.4718261659145355,
        0.1113259866833687,
        0.08798938244581223
      ],
      "rotation": [
        -0.024202281606700744,
        -0.6768577510377435,
        0.7353785434366532,
        -0.022276270427066334
      ]
    },
    {
      "name": "AlcoolMedic03",
      "translation": [
        0.42742401361465454,
        0.05835210904479026,
        0.13683465123176572
      ],
      "rotation": [
        0.20743365305827463,
        0.0,
        0.0,
        0.9782490887186654
      ],
      "children": [
        7
      ]
    },
    {
      "name": "Object18_FX",
      "translation": [
        -0.0348040796816349,
        -0.035939838737249374,
        0.051114071160554886
      ],
      "rotation": [
        -0.20743357562247186,
        0.0,
        -0.0,
        0.9782491051386024
      ]
    },
    {
      "name": "AlcoolMedic04",
      "translation": [
        0.6014730930328369,
        -0.09434427320957184,
        0.1326022893190384
      ],
      "rotation": [
        -0.34600311816490686,
        0.0,
        0.0,
        0.9382333623465761
      ],
      "children": [
        9
      ]
    },
    {
      "name": "AlcoolMedic_FX",
      "translation": [
        0.0,
        -9.99999993922529e-09,
        0.06594148278236389
      ],
      "rotation": [
        0.34600320099610377,
        0.0,
        0.0,
        0.9382333317999578
      ]
    },
    {
      "name": "MeshNode_LOD0",
      "mesh": 0,
      "skin": 0
    },
    {
      "name": "Correction_Root",
      "rotation": [
        -0.70710678,
        0.0,
        0.0,
        0.70710678
      ],
      "children": [
        0,
        10
      ]
    }
  ],
  "meshes": [
    {
      "name": "Mesh_LOD0",
      "primitives": [
        {
          "attributes": {
            "POSITION": 1,
            "JOINTS_0": 3,
            "WEIGHTS_0": 4,
            "TEXCOORD_0": 2
          },
          "indices": 5,
          "material": 1
        },
        {
          "attributes": {
            "POSITION": 1,
            "JOINTS_0": 3,
            "WEIGHTS_0": 4,
            "TEXCOORD_0": 2
          },
          "indices": 6,
          "material": 2
        },
        {
          "attributes": {
            "POSITION": 1,
            "JOINTS_0": 3,
            "WEIGHTS_0": 4,
            "TEXCOORD_0": 2
          },
          "indices": 7,
          "material": 0
        },
        {
          "attributes": {
            "POSITION": 1,
            "JOINTS_0": 3,
            "WEIGHTS_0": 4,
            "TEXCOORD_0": 2
          },
          "indices": 8,
          "material": 2
        },
        {
          "attributes": {
            "POSITION": 1,
            "JOINTS_0": 3,
            "WEIGHTS_0": 4,
            "TEXCOORD_0": 2
          },
          "indices": 9,
          "material": 0
        }
      ]
    }
  ],
  "skins": [
    {
      "inverseBindMatrices": 0,
      "joints": [
        0,
        1,
        2,
        3,
        4,
        5,
        6,
        7,
        8,
        9
      ],
      "name": "Armature",
      "skeleton": 0
    }
  ],
  "materials": [
    {
      "name": "GRAPHICS\\_MATERIALS\\PFERNANDEZ-M-2007081464056601.xbm",
      "pbrMetallicRoughness": {
        "baseColorFactor": [
          1.0,
          1.0,
          1.0,
          1.0
        ],
        "metallicFactor": 0.0,
        "roughnessFactor": 1.0,
        "baseColorTexture": {
          "index": 0,
          "texCoord": 0
        }
      },
      "doubleSided": true
    },
    {
      "name": "GRAPHICS\\_MATERIALS\\JDUROCHER-M-2007111349509232.xbm",
      "pbrMetallicRoughness": {
        "baseColorFactor": [
          1.0,
          1.0,
          1.0,
          1.0
        ],
        "metallicFactor": 0.0,
        "roughnessFactor": 1.0,
        "baseColorTexture": {
          "index": 1,
          "texCoord": 0
        }
      },
      "doubleSided": true
    },
    {
      "name": "GRAPHICS\\_MATERIALS\\JDUROCHER-M-2007111349523514.xbm",
      "pbrMetallicRoughness": {
        "baseColorFactor": [
          1.0,
          1.0,
          1.0,
          1.0
        ],
        "metallicFactor": 0.0,
        "roughnessFactor": 1.0,
        "baseColorTexture": {
          "index": 2,
          "texCoord": 0
        }
      },
      "doubleSided": true
    }
  ],
  "textures": [
    {
      "sampler": 0,
      "source": 0
    },
    {
      "sampler": 0,
      "source": 1
    },
    {
      "sampler": 0,
      "source": 2
    }
  ],
  "images": [
    {
      "name": "plasticbump_01_d",
      "mimeType": "image/png",
      "uri": "data:image/png;base64,"
    },
    {
      "name": "medicalbox_d",
      "mimeType": "image/png",
      "uri": "data:image/png;base64,"
    },
    {
      "name": "metalpaint02_d",
      "mimeType": "image/png",
      "uri": "data:image/png;base64,"
    }
  ],
  "samplers": [
    {
      "magFilter": 9729,
      "minFilter": 9987,
      "wrapS": 10497,
      "wrapT": 10497
    }
  ],
  "accessors": [
    {
      "bufferView": 0,
      "componentType": 5126,
      "count": 10,
      "type": "MAT4"
    },
    {
      "bufferView": 1,
      "componentType": 5126,
      "count": 2281,
      "type": "VEC3",
      "min": [
        -0.1424604021012783,
        -0.22379222977906466,
        -0.08172856830060482
      ],
      "max": [
        0.6887112027034163,
        0.17017120867967606,
        0.32670064363628626
      ]
    },
    {
      "bufferView": 2,
      "componentType": 5126,
      "count": 2281,
      "type": "VEC2"
    },
    {
      "bufferView": 3,
      "componentType": 5123,
      "count": 2281,
      "type": "VEC4"
    },
    {
      "bufferView": 4,
      "componentType": 5126,
      "count": 2281,
      "type": "VEC4"
    },
    {
      "bufferView": 5,
      "componentType": 5123,
      "count": 324,
      "type": "SCALAR"
    },
    {
      "bufferView": 6,
      "componentType": 5123,
      "count": 1164,
      "type": "SCALAR"
    },
    {
      "bufferView": 7,
      "componentType": 5123,
      "count": 3960,
      "type": "SCALAR"
    },
    {
      "bufferView": 8,
      "componentType": 5123,
      "count": 72,
      "type": "SCALAR"
    },
    {
      "bufferView": 9,
      "componentType": 5123,
      "count": 990,
      "type": "SCALAR"
    }
  ],
  "bufferViews": [
    {
      "buffer": 0,
      "byteOffset": 0,
      "byteLength": 640
    },
    {
      "buffer": 0,
      "byteOffset": 640,
      "byteLength": 27372,
      "target": 34962
    },
    {
      "buffer": 0,
      "byteOffset": 28012,
      "byteLength": 18248,
      "target": 34962
    },
    {
      "buffer": 0,
      "byteOffset": 46260,
      "byteLength": 18248,
      "target": 34962
    },
    {
      "buffer": 0,
      "byteOffset": 64508,
      "byteLength": 36496,
      "target": 34962
    },
    {
      "buffer": 0,
      "byteOffset": 101004,
      "byteLength": 648,
      "target": 34963
    },
    {
      "buffer": 0,
      "byteOffset": 101652,
      "byteLength": 2328,
      "target": 34963
    },
    {
      "buffer": 0,
      "byteOffset": 103980,
      "byteLength": 7920,
      "target": 34963
    },
    {
      "buffer": 0,
      "byteOffset": 111900,
      "byteLength": 144,
      "target": 34963
    },
    {
      "buffer": 0,
      "byteOffset": 112044,
      "byteLength": 1980,
      "target": 34963
    }
  ],
  "buffers": [
    {
      "byteLength": 114024,
      "uri": "medecinesuppliessmall00.bin"
    }
  ]
}