{
  "asset": {
    "version": "2.0",
    "generator": "XBG to GLTF Converter with Textures"
  },
  "scene": 0,
  "scenes": [
    {
      "name": "Scene",
      "nodes": [
        13
      ]
    }
  ],
  "nodes": [
    {
      "name": "MedecineSuppliesBig00",
      "children": [
        1
      ]
    },
    {
      "name": "StatePrim",
      "translation": [
        -0.6467956304550171,
        0.0,
        0.0
      ],
      "rotation": [
        0.9997619995309525,
        0.0,
        0.0,
        0.021816147548819696
      ],
      "children": [
        2,
        6,
        8,
        10
      ]
    },
    {
      "name": "State01Prim",
      "translation": [
        0.0,
        -8.673617379884035e-19,
        0.10104584693908693
      ],
      "rotation": [
        1.734723475976807e-18,
        0.0,
        0.0,
        1.0
      ],
      "children": [
        3,
        4,
        5
      ]
    },
    {
      "name": "MedecineSuppliesBig00_FX",
      "translation": [
        0.6222488284111023,
        0.19261206686496735,
        0.3970294892787934
      ],
      "rotation": [
        -0.5017126739948842,
        -0.49803590176662726,
        -0.48878558887613044,
        0.5112076525361146
      ]
    },
    {
      "name": "edecineSuppliesBig00_FX01",
      "translation": [
        0.665793240070343,
        -0.007457079831510785,
        0.318209856748581
      ],
      "rotation": [
        1.734723475976807e-18,
        0.0,
        0.0,
        1.0
      ]
    },
    {
      "name": "edecineSuppliesBig00_FX02",
      "translation": [
        0.688109815120697,
        -0.24945595860481262,
        0.3739386200904847
      ],
      "rotation": [
        -0.464894103597099,
        0.5338432778401103,
        0.5239279724436984,
        0.4736921941038851
      ]
    },
    {
      "name": "MedicDebris04",
      "translation": [
        0.3973742723464966,
        -0.07801902294158936,
        0.46633231639862066
      ],
      "rotation": [
        1.734723475976807e-18,
        0.0,
        0.0,
        1.0
      ],
      "children": [
        7
      ]
    },
    {
      "name": "Object08_FX",
      "translation": [
        -0.02175232023000717,
        0.0513518415391445,
        0.048351738601923044
      ],
      "rotation": [
        1.734723475976807e-18,
        0.0,
        0.0,
        1.0
      ]
    },
    {
      "name": "MedicDebris05",
      "translation": [
        0.6029894948005676,
        -0.3007492423057556,
        0.6338204741477966
      ],
      "rotation": [
        1.734723475976807e-18,
        0.0,
        0.0,
        1.0
      ],
      "children": [
        9
      ]
    },
    {
      "name": "Object10_FX",
      "translation": [
        0.007427370175719261,
        0.08120568841695783,
        -0.03016364946961403
      ],
      "rotation": [
        1.734723475976807e-18,
        0.0,
        0.0,
        1.0
      ]
    },
    {
      "name": "MedicDebris06",
      "translation": [
        0.7463897466659546,
        -0.2049250602722168,
        0.25857946276664734
      ],
      "rotation": [
        1.734723475976807e-18,
        0.0,
        0.0,
        1.0
      ],
      "children": [
        11
      ]
    },
    {
      "name": "Object09_FX",
      "translation": [
        0.03571227937936783,
        0.18013912439346313,
        0.0028767799958586693
      ],
      "rotation": [
        1.734723475976807e-18,
        0.0,
        0.0,
        1.0
      ]
    },
    {
      "name": "MeshNode_LOD0",
      "mesh": 0,
      "skin": 0
    },
    {
      "name": "Correction_Root",
      "rotation": [
        -0.70710678,
        0.0,
        0.0,
        0.70710678
      ],
      "children": [
        0,
        12
      ]
    }
  ],
  "meshes": [
    {
      "name": "Mesh_LOD0",
      "primitives": [
        {
          "attributes": {
            "POSITION": 1,
            "JOINTS_0": 3,
            "WEIGHTS_0": 4,
            "TEXCOORD_0": 2
          },
          "indices": 5,
          "material": 1
        },
        {
          "attributes": {
            "POSITION": 1,
            "JOINTS_0": 3,
            "WEIGHTS_0": 4,
            "TEXCOORD_0": 2
          },
          "indices": 6,
          "material": 2
        },
        {
          "attributes": {
            "POSITION": 1,
            "JOINTS_0": 3,
            "WEIGHTS_0": 4,
            "TEXCOORD_0": 2
          },
          "indices": 7,
          "material": 0
        },
        {
          "attributes": {
            "POSITION": 1,
            "JOINTS_0": 3,
            "WEIGHTS_0": 4,
            "TEXCOORD_0": 2
          },
          "indices": 8,
          "material": 0
        },
        {
          "attributes": {
            "POSITION": 1,
            "JOINTS_0": 3,
            "WEIGHTS_0": 4,
            "TEXCOORD_0": 2
          },
          "indices": 9,
          "material": 2
        },
        {
          "attributes": {
            "POSITION": 1,
            "JOINTS_0": 3,
            "WEIGHTS_0": 4,
            "TEXCOORD_0": 2
          },
          "indices": 10,
          "material": 0
        },
        {
          "attributes": {
            "POSITION": 1,
            "JOINTS_0": 3,
            "WEIGHTS_0": 4,
            "TEXCOORD_0": 2
          },
          "indices": 11,
          "material": 2
        }
      ]
    }
  ],
  "skins": [
    {
      "inverseBindMatrices": 0,
      "joints": [
        0,
        1,
        2,
        3,
        4,
        5,
        6,
        7,
        8,
        9,
        10,
        11
      ],
      "name": "Armature",
      "skeleton": 0
    }
  ],
  "materials": [
    {
      "name": "GRAPHICS\\_MATERIALS\\YMOREL-M-2007111550629623.xbm",
      "pbrMetallicRoughness": {
        "baseColorFactor": [
          1.0,
          1.0,
          1.0,
          1.0
        ],
        "metallicFactor": 0.0,
        "roughnessFactor": 1.0,
        "baseColorTexture": {
          "index": 0,
          "texCoord": 0
        }
      },
      "doubleSided": true
    },
    {
      "name": "GRAPHICS\\_MATERIALS\\JDUROCHER-M-2007111349509232.xbm",
      "pbrMetallicRoughness": {
        "baseColorFactor": [
          1.0,
          1.0,
          1.0,
          1.0
        ],
        "metallicFactor": 0.0,
        "roughnessFactor": 1.0,
        "baseColorTexture": {
          "index": 1,
          "texCoord": 0
        }
      },
      "doubleSided": true
    },
    {
      "name": "GRAPHICS\\_MATERIALS\\JDUROCHER-M-2007111349523514.xbm",
      "pbrMetallicRoughness": {
        "baseColorFactor": [
          1.0,
          1.0,
          1.0,
          1.0
        ],
        "metallicFactor": 0.0,
        "roughnessFactor": 1.0,
        "baseColorTexture": {
          "index": 2,
          "texCoord": 0
        }
      },
      "doubleSided": true
    }
  ],
  "textures": [
    {
      "sampler": 0,
      "source": 0
    },
    {
      "sampler": 0,
      "source": 1
    },
    {
      "sampler": 0,
      "source": 2
    }
  ],
  "images": [
    {
      "name": "firsaid",
      "mimeType": "image/png",
      "uri": "data:image/png;base64,"
    },
    {
      "name": "medicalbox_d",
      "mimeType": "image/png",
      "uri": "data:image/png;base64,"
    },
    {
      "name": "metalpaint02_d",
      "mimeType": "image/png",
      "uri": "data:image/png;base64,"
    }
  ],
  "samplers": [
    {
      "magFilter": 9729,
      "minFilter": 9987,
      "wrapS": 10497,
      "wrapT": 10497
    }
  ],
  "accessors": [
    {
      "bufferView": 0,
      "componentType": 5126,
      "count": 12,
      "type": "MAT4"
    },
    {
      "bufferView": 1,
      "componentType": 5126,
      "count": 793,
      "type": "VEC3",
      "min": [
        -0.15301980637013912,
        -0.45954771526157856,
        -0.11743522435426712
      ],
      "max": [
        1.126377146691084,
        0.425366984680295,
        0.7995239105075598
      ]
    },
    {
      "bufferView": 2,
      "componentType": 5126,
      "count": 793,
      "type": "VEC2"
    },
    {
      "bufferView": 3,
      "componentType": 5123,
      "count": 793,
      "type": "VEC4"
    },
    {
      "bufferView": 4,
      "componentType": 5126,
      "count": 793,
      "type": "VEC4"
    },
    {
      "bufferView": 5,
      "componentType": 5123,
      "count": 318,
      "type": "SCALAR"
    },
    {
      "bufferView": 6,
      "componentType": 5123,
      "count": 1164,
      "type": "SCALAR"
    },
    {
      "bufferView": 7,
      "componentType": 5123,
      "count": 108,
      "type": "SCALAR"
    },
    {
      "bufferView": 8,
      "componentType": 5123,
      "count": 108,
      "type": "SCALAR"
    },
    {
      "bufferView": 9,
      "componentType": 5123,
      "count": 72,
      "type": "SCALAR"
    },
    {
      "bufferView": 10,
      "componentType": 5123,
      "count": 144,
      "type": "SCALAR"
    },
    {
      "bufferView": 11,
      "componentType": 5123,
      "count": 60,
      "type": "SCALAR"
    }
  ],
  "bufferViews": [
    {
      "buffer": 0,
      "byteOffset": 0,
      "byteLength": 768
    },
    {
      "buffer": 0,
      "byteOffset": 768,
      "byteLength": 9516,
      "target": 34962
    },
    {
      "buffer": 0,
      "byteOffset": 10284,
      "byteLength": 6344,
      "target": 34962
    },
    {
      "buffer": 0,
      "byteOffset": 16628,
      "byteLength": 6344,
      "target": 34962
    },
    {
      "buffer": 0,
      "byteOffset": 22972,
      "byteLength": 12688,
      "target": 34962
    },
    {
      "buffer": 0,
      "byteOffset": 35660,
      "byteLength": 636,
      "target": 34963
    },
    {
      "buffer": 0,
      "byteOffset": 36296,
      "byteLength": 2328,
      "target": 34963
    },
    {
      "buffer": 0,
      "byteOffset": 38624,
      "byteLength": 216,
      "target": 34963
    },
    {
      "buffer": 0,
      "byteOffset": 38840,
      "byteLength": 216,
      "target": 34963
    },
    {
      "buffer": 0,
      "byteOffset": 39056,
      "byteLength": 144,
      "target": 34963
    },
    {
      "buffer": 0,
      "byteOffset": 39200,
      "byteLength": 288,
      "target": 34963
    },
    {
      "buffer": 0,
      "byteOffset": 39488,
      "byteLength": 120,
      "target": 34963
    }
  ],
  "buffers": [
    {
      "byteLength": 39608,
      "uri": "medecinesuppliesbig00.bin"
    }
  ]
}