{
  "asset": {
    "version": "2.0",
    "generator": "XBG to GLTF Converter with Textures"
  },
  "scene": 0,
  "scenes": [
    {
      "name": "Scene",
      "nodes": [
        62
      ]
    }
  ],
  "nodes": [
    {
      "name": "Direhorse",
      "children": [
        1,
        2,
        3
      ]
    },
    {
      "name": "ENTRYPOINT_RIGHT",
      "translation": [
        1.1149342060089111,
        0.0,
        0.0
      ]
    },
    {
      "name": "ENTRYPOINT_LEFT",
      "translation": [
        -1.1132279634475708,
        -9.99999993922529e-09,
        0.0
      ]
    },
    {
      "name": "Pelvis",
      "translation": [
        1.97000008483883e-06,
        -0.5200483798980713,
        2.4357645511627197
      ],
      "rotation": [
        0.5475312499020999,
        -0.44745155230498684,
        0.5475282918914449,
        -0.4474476825188727
      ],
      "children": [
        4,
        8,
        53,
        57
      ]
    },
    {
      "name": "Engine_Base_Tail_01",
      "translation": [
        0.5873029828071592,
        2.000000032253979e-08,
        1.9999999878452275e-08
      ],
      "rotation": [
        4.1929591617668536e-06,
        1.7010724482236086e-05,
        0.23191170289203114,
        0.9727368409568813
      ],
      "children": [
        5
      ]
    },
    {
      "name": "Engine_Base_Tail_02",
      "translation": [
        0.3281118571758197,
        -1.900000112797784e-07,
        3.999999975690794e-08
      ],
      "rotation": [
        1.1055055076295553e-08,
        -2.9564920474714845e-08,
        0.18463994111686555,
        0.9828062332649093
      ],
      "children": [
        6
      ]
    },
    {
      "name": "Engine_Base_Tail_03",
      "translation": [
        0.2963040173053946,
        -0.006311569828515218,
        1.9999999878437028e-08
      ],
      "rotation": [
        1.5922055439804103e-08,
        -2.1736328202305367e-07,
        0.07219452392926834,
        0.9973905707969063
      ],
      "children": [
        7
      ]
    },
    {
      "name": "Engine_Base_Tail_04",
      "translation": [
        0.2667139470577131,
        3.8999998164257477e-07,
        1.9999999878477686e-08
      ],
      "rotation": [
        -3.3405521209029666e-06,
        1.4355634287268232e-08,
        -0.012693373215333528,
        0.9999194358873402
      ]
    },
    {
      "name": "Engine_Base_Spine",
      "translation": [
        -0.5572185516357422,
        -0.10860791057348207,
        -2.1200000901444565e-06
      ],
      "rotation": [
        4.2091277534597747e-07,
        -1.8480004902764324e-06,
        0.09609984607687094,
        0.9953716992060851
      ],
      "children": [
        9
      ]
    },
    {
      "name": "Engine_Base_Spine1",
      "rotation": [
        -4.776733242686377e-07,
        -1.1941967299244581e-07,
        0.9951784051872138,
        -0.09808130223845529
      ],
      "children": [
        10
      ]
    },
    {
      "name": "Engine_Base_Spine2",
      "translation": [
        0.6191542148590086,
        5.2520001191602717e-05,
        1.8000000068240868e-07
      ],
      "rotation": [
        -6.763950960859092e-05,
        0.0007484867276395162,
        0.08927091095214244,
        0.996007098192724
      ],
      "children": [
        11,
        19,
        29,
        37,
        45
      ]
    },
    {
      "name": "ngine_Base_LF_Arms_Linker",
      "translation": [
        0.6400898098945549,
        -0.43797227740287026,
        0.2778664529323578
      ],
      "rotation": [
        0.0536364307420071,
        0.6392915267020467,
        -0.30983969853316273,
        0.7017327419673447
      ],
      "children": [
        12
      ]
    },
    {
      "name": "Engine_Blend_LF_Clavicle",
      "translation": [
        0.5730223059654237,
        -0.0068773902021339595,
        0.008535630069673061
      ],
      "rotation": [
        0.7875618131997724,
        -0.5895001199959058,
        -0.17803052005687542,
        -0.023262100690651114
      ],
      "children": [
        13
      ]
    },
    {
      "name": "Engine_Blend_LF_UpperArm",
      "translation": [
        0.5195071697235121,
        3.9999999729145586e-08,
        -1.999999982293943e-08
      ],
      "rotation": [
        -0.004749968154432343,
        0.22675192244964093,
        -0.014690293850866442,
        0.9738301693489562
      ],
      "children": [
        14,
        16,
        17
      ]
    },
    {
      "name": "Engine_Blend_LF_ForeArm",
      "translation": [
        0.7597368359565503,
        -1.50000005194606e-07,
        -3.3000000598804036e-07
      ],
      "rotation": [
        0.005995228323387546,
        -0.03956348757340437,
        -0.0007241752928720034,
        0.999198810677095
      ],
      "children": [
        15
      ]
    },
    {
      "name": "Engine_Base_LF_Foot",
      "translation": [
        0.5953494310379019,
        -0.00010196999937767126,
        0.0010421000188221008
      ],
      "rotation": [
        -0.7364054255261566,
        0.30192519823336156,
        0.24780826274937215,
        0.5523941229362503
      ]
    },
    {
      "name": "Base_LF_Leg twist Root",
      "translation": [
        0.03617785125968531,
        -1.9999999767428278e-08,
        -3.9999999978945766e-08
      ],
      "rotation": [
        0.0033799823970643923,
        1.7124282780995548e-07,
        -1.5957180066066427e-07,
        0.9999942878431559
      ]
    },
    {
      "name": "Engine_LF_Leg twist D",
      "translation": [
        0.23668210208413654,
        -5.999999769246145e-08,
        -1.500000053056283e-07
      ],
      "rotation": [
        0.001689975145700506,
        9.308071961308173e-08,
        -1.130568109935505e-07,
        0.9999985719909732
      ],
      "children": [
        18
      ]
    },
    {
      "name": "Engine_LF_Leg twist U",
      "translation": [
        -0.20050436258312132,
        -2.999999831887479e-08,
        1.0000000139065435e-07
      ],
      "rotation": [
        0.0010139784781725133,
        7.228846377234286e-08,
        -2.4921342585175106e-08,
        0.9999994859236878
      ]
    },
    {
      "name": "Engine_Base_Neck",
      "translation": [
        0.626216650009155,
        1.5999999991578306e-07,
        1.99999998780169e-08
      ],
      "rotation": [
        -0.6714064421770011,
        -0.22435283467846692,
        0.2224735500357665,
        0.6703616210005904
      ],
      "children": [
        20
      ]
    },
    {
      "name": "Engine_Base_Neck1",
      "translation": [
        0.6723521351814274,
        9.99999993879161e-09,
        -1.0000000089105399e-07
      ],
      "rotation": [
        0.656907675641881,
        0.25829383382093973,
        -0.2620507768589457,
        0.6580926889794981
      ],
      "children": [
        21
      ]
    },
    {
      "name": "Engine_Base_Head",
      "translation": [
        0.759678304195404,
        -2.999999892949745e-08,
        5.000000058430487e-08
      ],
      "rotation": [
        -0.002174118068608047,
        0.0028541181016852137,
        -0.6672784086542547,
        0.7447997399060591
      ],
      "children": [
        22,
        23,
        26
      ]
    },
    {
      "name": "Engine_Base_Mouth",
      "translation": [
        1.088670492172243,
        0.009966700337827206,
        0.0005984600284136849
      ],
      "rotation": [
        -2.03663380105891e-14,
        -2.978669286050895e-14,
        1.387778780781446e-17,
        1.0
      ]
    },
    {
      "name": "engine_antenna_R01",
      "translation": [
        0.1269267499446669,
        0.021009370684637485,
        0.18162138760089871
      ],
      "rotation": [
        -0.1512886616758987,
        0.7207720920634936,
        0.6444931675117923,
        -0.2054942570976089
      ],
      "children": [
        24
      ]
    },
    {
      "name": "engine_antenna_R02",
      "translation": [
        0.6493446826934808,
        1.5999999902760464e-07,
        7.999999951380232e-08
      ],
      "rotation": [
        0.004726554865928394,
        0.0495753339416078,
        0.0062999745742157685,
        0.9987393334920074
      ],
      "children": [
        25
      ]
    },
    {
      "name": "engine_antenna_R03",
      "translation": [
        0.6488460302352905,
        6.999999879742091e-08,
        -3.999999975690116e-08
      ],
      "rotation": [
        -0.08760256838710265,
        0.128848758002828,
        -0.17581323843163404,
        0.9720151710066564
      ]
    },
    {
      "name": "engine_antenna_L01",
      "translation": [
        0.12713472545149163,
        0.02100745961068551,
        -0.17622558772563932
      ],
      "rotation": [
        -0.20843664231123474,
        0.6410350917222928,
        0.7235268455142486,
        -0.14878535977242377
      ],
      "children": [
        27
      ]
    },
    {
      "name": "engine_antenna_L02",
      "translation": [
        0.6490182876586919,
        1.3999999748381953e-07,
        6.999999868639861e-08
      ],
      "rotation": [
        -0.009527447797246505,
        0.05127465067563853,
        -0.012765445965803231,
        0.9985575503324298
      ],
      "children": [
        28
      ]
    },
    {
      "name": "engine_antenna_L03",
      "translation": [
        0.6521820425987241,
        3.999999964587886e-08,
        1.8000000068241206e-07
      ],
      "rotation": [
        0.09416229860619343,
        0.1257435806673472,
        0.18965290174903837,
        0.9692026569417102
      ]
    },
    {
      "name": "ngine_Base_RF_Arms_Linker",
      "translation": [
        0.6408764719963143,
        -0.4379734396934567,
        -0.2760424315929413
      ],
      "rotation": [
        0.5474353194128039,
        0.21217304765989778,
        0.6789684495009012,
        -0.44079362484629087
      ],
      "children": [
        30
      ]
    },
    {
      "name": "Engine_Blend_RF_Clavicle",
      "translation": [
        0.5729807019233704,
        0.00896291993558418,
        -0.006393509916961193
      ],
      "rotation": [
        0.5584354393888514,
        0.3080137767615054,
        -0.5332091866012241,
        0.5558466222665963
      ],
      "children": [
        31
      ]
    },
    {
      "name": "Engine_Blend_RF_UpperArm",
      "translation": [
        0.5194526314735395,
        -7.999999951380232e-08,
        -1.59999999527205e-07
      ],
      "rotation": [
        0.006728935991084244,
        0.22686493409230282,
        0.014005935759383591,
        0.9738022678466399
      ],
      "children": [
        32,
        34,
        35
      ]
    },
    {
      "name": "Engine_Blend_RF_ForeArm",
      "translation": [
        0.7597359418870305,
        -1.1999999621759017e-07,
        -4.400000075399646e-07
      ],
      "rotation": [
        -0.004796023566801695,
        -0.04068572147066632,
        0.0007353258684058403,
        0.9991602121392885
      ],
      "children": [
        33
      ]
    },
    {
      "name": "Engine_Base_RF_Foot",
      "translation": [
        0.5950955152511669,
        2.1690000721663605e-05,
        -0.0013249400071799755
      ],
      "rotation": [
        -0.5546304437858194,
        0.25015871089650576,
        0.30198167806728937,
        0.7339024041647888
      ]
    },
    {
      "name": "Base_RF_Leg twist Root",
      "translation": [
        0.03617779165519219,
        9.999999384113778e-09,
        2.999999937358666e-08
      ],
      "rotation": [
        -0.010576609783721897,
        9.192210859911904e-07,
        4.229673716312229e-10,
        0.9999440660980181
      ]
    },
    {
      "name": "Engine_RF_Leg twist D",
      "translation": [
        0.23668187856687029,
        -4.000000025650152e-08,
        -2.2999999749195865e-07
      ],
      "rotation": [
        -0.005288386127619649,
        4.6306927110503773e-07,
        -8.150954163571834e-09,
        0.9999860163882047
      ],
      "children": [
        36
      ]
    },
    {
      "name": "Engine_RF_Leg twist U",
      "translation": [
        -0.20050433278082558,
        2.999999848540824e-08,
        -3.4999999343199306e-07
      ],
      "rotation": [
        -0.0031730410112692704,
        2.943543307587546e-07,
        1.6739780661906845e-08,
        0.9999949658926559
      ]
    },
    {
      "name": "ngine_Base_RB_Arms_Linker",
      "translation": [
        0.13948941230774614,
        -0.2329099774360721,
        -0.27675500512123113
      ],
      "rotation": [
        0.5474356714281869,
        0.21217336011676852,
        0.6789682079527519,
        -0.4407934082253698
      ],
      "children": [
        38
      ]
    },
    {
      "name": "Engine_Blend_RB_Clavicle",
      "translation": [
        0.7141274213790894,
        -0.004796280059963465,
        0.007433380000293255
      ],
      "rotation": [
        0.5507923139434316,
        0.28673319627569205,
        -0.5428237160736101,
        0.5654681831760475
      ],
      "children": [
        39
      ]
    },
    {
      "name": "Engine_Blend_RB_UpperArm",
      "translation": [
        0.545647501945504,
        -2.0999999605919584e-07,
        1.3999997375280238e-07
      ],
      "rotation": [
        -0.008398529939456714,
        0.21045206190914595,
        -0.014674351326551954,
        0.9774579570218711
      ],
      "children": [
        40,
        42,
        43
      ]
    },
    {
      "name": "Engine_Blend_RB_ForeArm",
      "translation": [
        0.7890044450759921,
        -3.1999999799969814e-07,
        6.099999723119254e-07
      ],
      "rotation": [
        0.01424309638732961,
        -0.0016727523501790813,
        8.580846206421667e-06,
        0.9998971627278704
      ],
      "children": [
        41
      ]
    },
    {
      "name": "Engine_Base_RB_Foot",
      "translation": [
        0.568083047866822,
        4.1000001260727004e-07,
        -3.859999924316071e-05
      ],
      "rotation": [
        -0.5595782450742938,
        0.2582878228724059,
        0.33608097187340336,
        0.7121861945606608
      ]
    },
    {
      "name": "Base_RB_Leg twist Root",
      "translation": [
        0.037571609020236485,
        -9.99999993922529e-09,
        -1.9999999989472883e-08
      ],
      "rotation": [
        0.012314250768453333,
        9.539466025737544e-07,
        -2.0194555606604062e-07,
        0.999924176738947
      ]
    },
    {
      "name": "Engine_RB_Leg twist D",
      "translation": [
        0.23917546868324613,
        -7.999999951380232e-08,
        1.5999999913862695e-07
      ],
      "rotation": [
        0.006157240840890154,
        4.7408599472384773e-07,
        -1.1741324498153905e-07,
        0.9999810440128295
      ],
      "children": [
        44
      ]
    },
    {
      "name": "Engine_RB_Leg twist U",
      "translation": [
        -0.20160397887230141,
        1.999999987845058e-08,
        -4.999999984045544e-07
      ],
      "rotation": [
        0.0036943751538293193,
        2.7950563587726576e-07,
        -1.1612274193449944e-08,
        0.9999931757727872
      ]
    },
    {
      "name": "ngine_Base_LB_Arms_Linker",
      "translation": [
        0.1387028992175987,
        -0.2329088896512912,
        0.2771541774272918
      ],
      "rotation": [
        0.053636066074299556,
        0.6392917047329233,
        -0.30984005493525785,
        0.7017324494407241
      ],
      "children": [
        46
      ]
    },
    {
      "name": "Engine_Blend_LB_Clavicle",
      "translation": [
        0.7142139077186586,
        0.00759036000818103,
        -0.0042273798026145615
      ],
      "rotation": [
        0.788540298954136,
        -0.5806559878814028,
        -0.19947054784983492,
        -0.035416389683562526
      ],
      "children": [
        47
      ]
    },
    {
      "name": "Engine_Blend_LB_UpperArm",
      "translation": [
        0.545535385608666,
        -2.6000000741266405e-07,
        -6.60000014834905e-07
      ],
      "rotation": [
        0.013134356016909649,
        0.21000306823440948,
        0.013489842771007402,
        0.9775194239338331
      ],
      "children": [
        48,
        50,
        51
      ]
    },
    {
      "name": "Engine_Blend_LB_ForeArm",
      "translation": [
        0.7890126109123227,
        -4.999999987376214e-07,
        5.399999736255268e-07
      ],
      "rotation": [
        -0.03309461184693665,
        -0.0007911379414617413,
        -3.931679753611863e-06,
        0.999451910174772
      ],
      "children": [
        49
      ]
    },
    {
      "name": "Engine_Base_LB_Foot",
      "translation": [
        0.5680863261222833,
        3.099999901223782e-07,
        1.2059999789926223e-05
      ],
      "rotation": [
        -0.7043760301158327,
        0.3321994333329594,
        0.26263132503355,
        0.5696689370025644
      ]
    },
    {
      "name": "Base_LB_Leg twist Root",
      "translation": [
        0.037571981549263,
        -9.99999993922529e-09,
        3.999999975690116e-08
      ],
      "rotation": [
        0.02535327332746255,
        2.3096900731478757e-07,
        -2.613930107036332e-07,
        0.9996785541019981
      ]
    },
    {
      "name": "Engine_LB_Leg twist D",
      "translation": [
        0.23917791247367837,
        -1.599999990831158e-07,
        2.200000039920269e-07
      ],
      "rotation": [
        0.01267764273828242,
        8.93676759719987e-08,
        -1.585800807015702e-07,
        0.999919635458054
      ],
      "children": [
        52
      ]
    },
    {
      "name": "Engine_LB_Leg twist U",
      "translation": [
        -0.20160597562789628,
        1.5000000513909484e-07,
        -2.699999869237857e-07
      ],
      "rotation": [
        0.007606764037796383,
        1.024973691626822e-07,
        -7.200667822015225e-08,
        0.9999710681519028
      ]
    },
    {
      "name": "Engine_Blend_R_Thigh",
      "translation": [
        0.420632690190786,
        0.33699285984498273,
        0.25300380587577825
      ],
      "rotation": [
        0.4224592923803739,
        0.5669293652895452,
        0.642309853585338,
        0.29590084056461724
      ],
      "children": [
        54
      ]
    },
    {
      "name": "Engine_Blend_R_Calf",
      "translation": [
        0.8046652674674992,
        -5.0000000695327174e-08,
        -2.9000000262291437e-07
      ],
      "rotation": [
        -0.004511667423532796,
        -0.4673771568481416,
        -0.008492507070525306,
        0.884005721382837
      ],
      "children": [
        55
      ]
    },
    {
      "name": "Engine_Blend_R_Foot",
      "translation": [
        0.6088747978210463,
        -2.200000039920269e-07,
        6.399999961104186e-07
      ],
      "rotation": [
        0.0004209221085095628,
        0.3612749269505317,
        -0.04939855618510361,
        0.931149844344788
      ],
      "children": [
        56
      ]
    },
    {
      "name": "Engine_Base_R_Toe",
      "translation": [
        0.6382823586463889,
        1.3000000376184317e-07,
        9.199999906339684e-07
      ],
      "rotation": [
        -0.5838449442738257,
        0.26218760975859157,
        0.2625615811207152,
        0.7221108876971872
      ]
    },
    {
      "name": "Engine_Blend_L_Thigh",
      "translation": [
        0.4206315279011785,
        0.33699348568457377,
        -0.25300902128219604
      ],
      "rotation": [
        0.2969202030793697,
        0.6435147836633224,
        0.5654993041756959,
        0.4218265396807727
      ],
      "children": [
        58
      ]
    },
    {
      "name": "Engine_Blend_L_Calf",
      "translation": [
        0.8046648502349854,
        4.55999997939216e-06,
        5.19000013793347e-06
      ],
      "rotation": [
        0.0028758475165953,
        -0.4673364490393576,
        0.009615228628240092,
        0.8840225790555647
      ],
      "children": [
        59
      ]
    },
    {
      "name": "Engine_Blend_L_Foot",
      "translation": [
        0.608870267868042,
        6.399999962214409e-07,
        1.6200000341193288e-06
      ],
      "rotation": [
        3.9395888989066875e-05,
        0.3615406742755498,
        0.04898793234120014,
        0.9310684839325577
      ],
      "children": [
        60
      ]
    },
    {
      "name": "Engine_Base_L_Toe",
      "translation": [
        0.6382873654365513,
        -1.9999999989472883e-08,
        -1.1900000345121953e-06
      ],
      "rotation": [
        -0.7226732410633745,
        0.26269523124749,
        0.26183858576049324,
        0.5832453760011984
      ]
    },
    {
      "name": "MeshNode_LOD0",
      "mesh": 0,
      "skin": 0
    },
    {
      "name": "Correction_Root",
      "rotation": [
        -0.70710678,
        0.0,
        0.0,
        0.70710678
      ],
      "children": [
        0,
        61
      ]
    }
  ],
  "meshes": [
    {
      "name": "Mesh_LOD0",
      "primitives": [
        {
          "attributes": {
            "POSITION": 1,
            "JOINTS_0": 3,
            "WEIGHTS_0": 4,
            "TEXCOORD_0": 2
          },
          "indices": 5,
          "material": 0
        },
        {
          "attributes": {
            "POSITION": 1,
            "JOINTS_0": 3,
            "WEIGHTS_0": 4,
            "TEXCOORD_0": 2
          },
          "indices": 6,
          "material": 0
        }
      ]
    }
  ],
  "skins": [
    {
      "inverseBindMatrices": 0,
      "joints": [
        0,
        1,
        2,
        3,
        4,
        5,
        6,
        7,
        8,
        9,
        10,
        11,
        12,
        13,
        14,
        15,
        16,
        17,
        18,
        19,
        20,
        21,
        22,
        23,
        24,
        25,
        26,
        27,
        28,
        29,
        30,
        31,
        32,
        33,
        34,
        35,
        36,
        37,
        38,
        39,
        40,
        41,
        42,
        43,
        44,
        45,
        46,
        47,
        48,
        49,
        50,
        51,
        52,
        53,
        54,
        55,
        56,
        57,
        58,
        59,
        60
      ],
      "name": "Armature",
      "skeleton": 0
    }
  ],
  "materials": [
    {
      "name": "GRAPHICS\\_MATERIALS\\VGAULT-M-2009052261883088.xbm",
      "pbrMetallicRoughness": {
        "baseColorFactor": [
          1.0,
          1.0,
          1.0,
          1.0
        ],
        "metallicFactor": 0.0,
        "roughnessFactor": 1.0,
        "baseColorTexture": {
          "index": 0,
          "texCoord": 0
        }
      },
      "doubleSided": true
    }
  ],
  "textures": [
    {
      "sampler": 0,
      "source": 0
    }
  ],
  "images": [
    {
      "name": "direhorse_body_d",
      "mimeType": "image/png",
      "uri": "data:image/png;base64,"
    }
  ],
  "samplers": [
    {
      "magFilter": 9729,
      "minFilter": 9987,
      "wrapS": 10497,
      "wrapT": 10497
    }
  ],
  "accessors": [
    {
      "bufferView": 0,
      "componentType": 5126,
      "count": 61,
      "type": "MAT4"
    },
    {
      "bufferView": 1,
      "componentType": 5126,
      "count": 2260,
      "type": "VEC3",
      "min": [
        -0.7164220092818141,
        -2.036500135436654,
        -0.003814813680946827
      ],
      "max": [
        0.7162694167345762,
        2.852717670612037,
        4.5054475497454405
      ]
    },
    {
      "bufferView": 2,
      "componentType": 5126,
      "count": 2260,
      "type": "VEC2"
    },
    {
      "bufferView": 3,
      "componentType": 5123,
      "count": 2260,
      "type": "VEC4"
    },
    {
      "bufferView": 4,
      "componentType": 5126,
      "count": 2260,
      "type": "VEC4"
    },
    {
      "bufferView": 5,
      "componentType": 5123,
      "count": 9876,
      "type": "SCALAR"
    },
    {
      "bufferView": 6,
      "componentType": 5123,
      "count": 756,
      "type": "SCALAR"
    }
  ],
  "bufferViews": [
    {
      "buffer": 0,
      "byteOffset": 0,
      "byteLength": 3904
    },
    {
      "buffer": 0,
      "byteOffset": 3904,
      "byteLength": 27120,
      "target": 34962
    },
    {
      "buffer": 0,
      "byteOffset": 31024,
      "byteLength": 18080,
      "target": 34962
    },
    {
      "buffer": 0,
      "byteOffset": 49104,
      "byteLength": 18080,
      "target": 34962
    },
    {
      "buffer": 0,
      "byteOffset": 67184,
      "byteLength": 36160,
      "target": 34962
    },
    {
      "buffer": 0,
      "byteOffset": 103344,
      "byteLength": 19752,
      "target": 34963
    },
    {
      "buffer": 0,
      "byteOffset": 123096,
      "byteLength": 1512,
      "target": 34963
    }
  ],
  "buffers": [
    {
      "byteLength": 124608,
      "uri": "direhorse.bin"
    }
  ]
}