{
  "asset": {
    "version": "2.0",
    "generator": "XBG to GLTF Converter with Textures"
  },
  "scene": 0,
  "scenes": [
    {
      "name": "Scene",
      "nodes": [
        12
      ]
    }
  ],
  "nodes": [
    {
      "name": "TableLow01_BK",
      "children": [
        1
      ]
    },
    {
      "name": "TableLow01a_STATE",
      "translation": [
        0.009697570465505123,
        -0.002640079939737916,
        0.3178103268146515
      ],
      "children": [
        2,
        6,
        9,
        10
      ]
    },
    {
      "name": "TableLow010a_STATE1",
      "translation": [
        -0.015741370618343353,
        0.0,
        0.0
      ],
      "children": [
        3,
        4,
        5
      ]
    },
    {
      "name": "TLSt1_LegFX_01",
      "translation": [
        -0.18709340691566467,
        0.11835180222988129,
        0.15300783514976501
      ],
      "rotation": [
        -0.23191924062727093,
        -0.6687272691675575,
        -0.23146381575357206,
        0.667414255002913
      ]
    },
    {
      "name": "TLSt1_LegFX_02",
      "translation": [
        0.0898091122508049,
        -0.14865921437740326,
        0.15300783514976501
      ],
      "rotation": [
        0.29256975553940473,
        0.629880724306535,
        -0.30308830436440265,
        0.6525263878951205
      ]
    },
    {
      "name": "TLSt1_MiddleFX_01",
      "translation": [
        -0.01661602035164833,
        -0.10846900939941406,
        0.15300783514976501
      ]
    },
    {
      "name": "TableLow011b_STATE2",
      "translation": [
        0.0,
        0.0,
        0.17319802939891815
      ],
      "rotation": [
        0.014407093781493473,
        0.037336264179962685,
        0.02676881317845646,
        0.9988402623377425
      ],
      "children": [
        7,
        8
      ]
    },
    {
      "name": "TLSt2_KillFX_01",
      "translation": [
        0.0,
        1.734723475976807e-18,
        -0.032009560614824295
      ],
      "rotation": [
        0.0,
        0.0,
        -4.228388472693467e-18,
        1.0
      ]
    },
    {
      "name": "TLSt2_KillFX_02",
      "translation": [
        0.15931041538715365,
        -0.009883940219879152,
        -0.07588534802198404
      ],
      "rotation": [
        0.065209740572912,
        0.15985800629543148,
        -0.37203452558886685,
        0.9120216114492776
      ]
    },
    {
      "name": "TableLow013b_STATE2",
      "translation": [
        0.41826507449150085,
        0.5991952419281006,
        -0.023653680458664894
      ],
      "rotation": [
        -0.426696741091438,
        0.12805576301143076,
        0.0711884337663543,
        0.8924482164976625
      ]
    },
    {
      "name": "TableLow015b_STATE2",
      "translation": [
        -0.6281804442405701,
        -0.48903316259384155,
        0.008373740129172802
      ],
      "rotation": [
        0.20343161702192808,
        -0.1351638556187414,
        0.005938406930178277,
        0.9696963672105079
      ]
    },
    {
      "name": "MeshNode_LOD0",
      "mesh": 0,
      "skin": 0
    },
    {
      "name": "Correction_Root",
      "rotation": [
        -0.70710678,
        0.0,
        0.0,
        0.70710678
      ],
      "children": [
        0,
        11
      ]
    }
  ],
  "meshes": [
    {
      "name": "Mesh_LOD0",
      "primitives": [
        {
          "attributes": {
            "POSITION": 1,
            "JOINTS_0": 3,
            "WEIGHTS_0": 4,
            "TEXCOORD_0": 2
          },
          "indices": 5,
          "material": 0
        },
        {
          "attributes": {
            "POSITION": 1,
            "JOINTS_0": 3,
            "WEIGHTS_0": 4,
            "TEXCOORD_0": 2
          },
          "indices": 6,
          "material": 0
        },
        {
          "attributes": {
            "POSITION": 1,
            "JOINTS_0": 3,
            "WEIGHTS_0": 4,
            "TEXCOORD_0": 2
          },
          "indices": 7,
          "material": 0
        },
        {
          "attributes": {
            "POSITION": 1,
            "JOINTS_0": 3,
            "WEIGHTS_0": 4,
            "TEXCOORD_0": 2
          },
          "indices": 8,
          "material": 0
        }
      ]
    }
  ],
  "skins": [
    {
      "inverseBindMatrices": 0,
      "joints": [
        0,
        1,
        2,
        3,
        4,
        5,
        6,
        7,
        8,
        9,
        10
      ],
      "name": "Armature",
      "skeleton": 0
    }
  ],
  "materials": [
    {
      "name": "GRAPHICS\\_MATERIALS\\JCOOK-M-0911200752136655.xbm",
      "pbrMetallicRoughness": {
        "baseColorFactor": [
          1.0,
          1.0,
          1.0,
          1.0
        ],
        "metallicFactor": 0.0,
        "roughnessFactor": 1.0,
        "baseColorTexture": {
          "index": 0,
          "texCoord": 0
        }
      },
      "doubleSided": true
    }
  ],
  "textures": [
    {
      "sampler": 0,
      "source": 0
    }
  ],
  "images": [
    {
      "name": "plywood_02_d",
      "mimeType": "image/png",
      "uri": "data:image/png;base64,"
    }
  ],
  "samplers": [
    {
      "magFilter": 9729,
      "minFilter": 9987,
      "wrapS": 10497,
      "wrapT": 10497
    }
  ],
  "accessors": [
    {
      "bufferView": 0,
      "componentType": 5126,
      "count": 11,
      "type": "MAT4"
    },
    {
      "bufferView": 1,
      "componentType": 5126,
      "count": 3024,
      "type": "VEC3",
      "min": [
        -0.6082644117996097,
        -0.5829035304486752,
        -0.32273323740810156
      ],
      "max": [
        0.6082338932901621,
        0.5828730119392276,
        0.322702718898654
      ]
    },
    {
      "bufferView": 2,
      "componentType": 5126,
      "count": 3024,
      "type": "VEC2"
    },
    {
      "bufferView": 3,
      "componentType": 5123,
      "count": 3024,
      "type": "VEC4"
    },
    {
      "bufferView": 4,
      "componentType": 5126,
      "count": 3024,
      "type": "VEC4"
    },
    {
      "bufferView": 5,
      "componentType": 5123,
      "count": 6786,
      "type": "SCALAR"
    },
    {
      "bufferView": 6,
      "componentType": 5123,
      "count": 1986,
      "type": "SCALAR"
    },
    {
      "bufferView": 7,
      "componentType": 5123,
      "count": 870,
      "type": "SCALAR"
    },
    {
      "bufferView": 8,
      "componentType": 5123,
      "count": 1200,
      "type": "SCALAR"
    }
  ],
  "bufferViews": [
    {
      "buffer": 0,
      "byteOffset": 0,
      "byteLength": 704
    },
    {
      "buffer": 0,
      "byteOffset": 704,
      "byteLength": 36288,
      "target": 34962
    },
    {
      "buffer": 0,
      "byteOffset": 36992,
      "byteLength": 24192,
      "target": 34962
    },
    {
      "buffer": 0,
      "byteOffset": 61184,
      "byteLength": 24192,
      "target": 34962
    },
    {
      "buffer": 0,
      "byteOffset": 85376,
      "byteLength": 48384,
      "target": 34962
    },
    {
      "buffer": 0,
      "byteOffset": 133760,
      "byteLength": 13572,
      "target": 34963
    },
    {
      "buffer": 0,
      "byteOffset": 147332,
      "byteLength": 3972,
      "target": 34963
    },
    {
      "buffer": 0,
      "byteOffset": 151304,
      "byteLength": 1740,
      "target": 34963
    },
    {
      "buffer": 0,
      "byteOffset": 153044,
      "byteLength": 2400,
      "target": 34963
    }
  ],
  "buffers": [
    {
      "byteLength": 155444,
      "uri": "tablelow01_bk.bin"
    }
  ]
}