{
  "asset": {
    "version": "2.0",
    "generator": "XBG to GLTF Converter with Textures"
  },
  "scene": 0,
  "scenes": [
    {
      "name": "Scene",
      "nodes": [
        17
      ]
    }
  ],
  "nodes": [
    {
      "name": "banChurch_01_DoorFrame_BK",
      "children": [
        1
      ]
    },
    {
      "name": "StatePrim",
      "translation": [
        -2.3270280361175537,
        -2.9422225952148438,
        0.0
      ],
      "children": [
        2,
        3,
        4,
        5,
        6,
        7,
        8,
        15
      ]
    },
    {
      "name": "NMD_Node08",
      "translation": [
        1.5352548360824585,
        -6.41583251953125,
        1.3986523151397705
      ],
      "rotation": [
        -0.29215940072383095,
        -0.1934930173654427,
        0.34818210301516456,
        0.869466823373754
      ]
    },
    {
      "name": "NMD_Node04",
      "translation": [
        1.6910009384155273,
        -6.446470737457275,
        2.78313946723938
      ],
      "rotation": [
        -0.10016688752975318,
        -0.2122055771109624,
        0.5333539877448759,
        0.8126923850657943
      ]
    },
    {
      "name": "NMD_Node05",
      "translation": [
        2.3873000144958496,
        -6.446470737457275,
        2.9666404724121094
      ],
      "rotation": [
        0.300705849875221,
        0.0,
        0.0,
        0.9537169348663265
      ]
    },
    {
      "name": "NMD_Node09",
      "translation": [
        2.349834442138672,
        -6.048826694488525,
        1.9162949323654175
      ],
      "rotation": [
        0.6595760591286881,
        0.1595760437712251,
        0.1462244852927633,
        0.719800881660427
      ]
    },
    {
      "name": "NMD_Node07",
      "translation": [
        3.063858985900879,
        -6.455423355102539,
        1.5333813428878784
      ],
      "rotation": [
        0.07771487662954141,
        0.23254041678681364,
        -0.32726696525877075,
        0.9125687297094364
      ]
    },
    {
      "name": "NMD_Node06",
      "translation": [
        3.272156238555908,
        -6.872758865356445,
        3.105104923248291
      ],
      "rotation": [
        0.45080330938249547,
        0.09994067244507786,
        0.19198423602406292,
        0.8659851565142835
      ]
    },
    {
      "name": "State01Prim",
      "translation": [
        0.0,
        6.099999723119254e-07,
        0.30391111969947815
      ],
      "children": [
        9,
        10,
        11,
        12,
        13,
        14
      ]
    },
    {
      "name": "BaseLayer_02",
      "translation": [
        1.9892264604568481,
        -6.295682430267334,
        1.9531103372573853
      ]
    },
    {
      "name": "BaseLayer_03",
      "translation": [
        2.8605105876922607,
        -6.295682430267334,
        1.9531103372573853
      ]
    },
    {
      "name": "BaseLayer_00",
      "translation": [
        2.8605105876922607,
        -6.295682430267334,
        0.9136514663696289
      ]
    },
    {
      "name": "BaseLayer_01",
      "translation": [
        1.9892264604568481,
        -6.295682430267334,
        0.9136514663696289
      ]
    },
    {
      "name": "Wood_04",
      "translation": [
        2.4455904960632324,
        -6.295682430267334,
        0.9772287011146545
      ]
    },
    {
      "name": "Wood_05",
      "translation": [
        2.4455904960632324,
        -6.295682430267334,
        2.0143630504608154
      ]
    },
    {
      "name": "rbanChurch_01_DoorFrame01",
      "translation": [
        2.3270280361175537,
        2.942222833633423,
        0.0010693400399759412
      ]
    },
    {
      "name": "MeshNode_LOD0",
      "mesh": 0,
      "skin": 0
    },
    {
      "name": "Correction_Root",
      "rotation": [
        -0.70710678,
        0.0,
        0.0,
        0.70710678
      ],
      "children": [
        0,
        16
      ]
    }
  ],
  "meshes": [
    {
      "name": "Mesh_LOD0",
      "primitives": [
        {
          "attributes": {
            "POSITION": 1,
            "JOINTS_0": 3,
            "WEIGHTS_0": 4,
            "TEXCOORD_0": 2
          },
          "indices": 5,
          "material": 0
        },
        {
          "attributes": {
            "POSITION": 1,
            "JOINTS_0": 3,
            "WEIGHTS_0": 4,
            "TEXCOORD_0": 2
          },
          "indices": 6,
          "material": 1
        },
        {
          "attributes": {
            "POSITION": 1,
            "JOINTS_0": 3,
            "WEIGHTS_0": 4,
            "TEXCOORD_0": 2
          },
          "indices": 7,
          "material": 0
        },
        {
          "attributes": {
            "POSITION": 1,
            "JOINTS_0": 3,
            "WEIGHTS_0": 4,
            "TEXCOORD_0": 2
          },
          "indices": 8,
          "material": 1
        },
        {
          "attributes": {
            "POSITION": 1,
            "JOINTS_0": 3,
            "WEIGHTS_0": 4,
            "TEXCOORD_0": 2
          },
          "indices": 9,
          "material": 0
        },
        {
          "attributes": {
            "POSITION": 1,
            "JOINTS_0": 3,
            "WEIGHTS_0": 4,
            "TEXCOORD_0": 2
          },
          "indices": 10,
          "material": 1
        },
        {
          "attributes": {
            "POSITION": 1,
            "JOINTS_0": 3,
            "WEIGHTS_0": 4,
            "TEXCOORD_0": 2
          },
          "indices": 11,
          "material": 0
        },
        {
          "attributes": {
            "POSITION": 1,
            "JOINTS_0": 3,
            "WEIGHTS_0": 4,
            "TEXCOORD_0": 2
          },
          "indices": 12,
          "material": 1
        },
        {
          "attributes": {
            "POSITION": 1,
            "JOINTS_0": 3,
            "WEIGHTS_0": 4,
            "TEXCOORD_0": 2
          },
          "indices": 13,
          "material": 0
        },
        {
          "attributes": {
            "POSITION": 1,
            "JOINTS_0": 3,
            "WEIGHTS_0": 4,
            "TEXCOORD_0": 2
          },
          "indices": 14,
          "material": 1
        },
        {
          "attributes": {
            "POSITION": 1,
            "JOINTS_0": 3,
            "WEIGHTS_0": 4,
            "TEXCOORD_0": 2
          },
          "indices": 15,
          "material": 0
        },
        {
          "attributes": {
            "POSITION": 1,
            "JOINTS_0": 3,
            "WEIGHTS_0": 4,
            "TEXCOORD_0": 2
          },
          "indices": 16,
          "material": 1
        },
        {
          "attributes": {
            "POSITION": 1,
            "JOINTS_0": 3,
            "WEIGHTS_0": 4,
            "TEXCOORD_0": 2
          },
          "indices": 17,
          "material": 1
        },
        {
          "attributes": {
            "POSITION": 1,
            "JOINTS_0": 3,
            "WEIGHTS_0": 4,
            "TEXCOORD_0": 2
          },
          "indices": 18,
          "material": 2
        },
        {
          "attributes": {
            "POSITION": 1,
            "JOINTS_0": 3,
            "WEIGHTS_0": 4,
            "TEXCOORD_0": 2
          },
          "indices": 19,
          "material": 3
        },
        {
          "attributes": {
            "POSITION": 1,
            "JOINTS_0": 3,
            "WEIGHTS_0": 4,
            "TEXCOORD_0": 2
          },
          "indices": 20,
          "material": 2
        }
      ]
    }
  ],
  "skins": [
    {
      "inverseBindMatrices": 0,
      "joints": [
        0,
        1,
        2,
        3,
        4,
        5,
        6,
        7,
        8,
        9,
        10,
        11,
        12,
        13,
        14,
        15
      ],
      "name": "Armature",
      "skeleton": 0
    }
  ],
  "materials": [
    {
      "name": "GRAPHICS\\_MATERIALS\\TRODRIGUE-M-2007083049540756.xbm",
      "pbrMetallicRoughness": {
        "baseColorFactor": [
          1.0,
          1.0,
          1.0,
          1.0
        ],
        "metallicFactor": 0.0,
        "roughnessFactor": 1.0,
        "baseColorTexture": {
          "index": 0,
          "texCoord": 0
        }
      },
      "doubleSided": true
    },
    {
      "name": "GRAPHICS\\_MATERIALS\\TRODRIGUE-M-2008060334476520.xbm",
      "pbrMetallicRoughness": {
        "baseColorFactor": [
          1.0,
          1.0,
          1.0,
          1.0
        ],
        "metallicFactor": 0.0,
        "roughnessFactor": 1.0,
        "baseColorTexture": {
          "index": 1,
          "texCoord": 0
        }
      },
      "doubleSided": true
    },
    {
      "name": "GRAPHICS\\_MATERIALS\\TRODRIGUE-M-2008060259735195.xbm",
      "pbrMetallicRoughness": {
        "baseColorFactor": [
          1.0,
          1.0,
          1.0,
          1.0
        ],
        "metallicFactor": 0.0,
        "roughnessFactor": 1.0,
        "baseColorTexture": {
          "index": 2,
          "texCoord": 0
        }
      },
      "doubleSided": true
    },
    {
      "name": "GRAPHICS\\_MATERIALS\\TRODRIGUE-M-2007080759453429.xbm",
      "pbrMetallicRoughness": {
        "baseColorFactor": [
          1.0,
          1.0,
          1.0,
          1.0
        ],
        "metallicFactor": 0.0,
        "roughnessFactor": 1.0,
        "baseColorTexture": {
          "index": 3,
          "texCoord": 0
        }
      },
      "doubleSided": true
    }
  ],
  "textures": [
    {
      "sampler": 0,
      "source": 0
    },
    {
      "sampler": 0,
      "source": 1
    },
    {
      "sampler": 0,
      "source": 2
    },
    {
      "sampler": 0,
      "source": 3
    }
  ],
  "images": [
    {
      "name": "woodplank_01_d",
      "mimeType": "image/png",
      "uri": "data:image/png;base64,"
    },
    {
      "name": "woodplank_01_d",
      "mimeType": "image/png",
      "uri": "data:image/png;base64,"
    },
    {
      "name": "woodplank_02_d",
      "mimeType": "image/png",
      "uri": "data:image/png;base64,"
    },
    {
      "name": "metalshabby_01_d",
      "mimeType": "image/png",
      "uri": "data:image/png;base64,"
    }
  ],
  "samplers": [
    {
      "magFilter": 9729,
      "minFilter": 9987,
      "wrapS": 10497,
      "wrapT": 10497
    }
  ],
  "accessors": [
    {
      "bufferView": 0,
      "componentType": 5126,
      "count": 16,
      "type": "MAT4"
    },
    {
      "bufferView": 1,
      "componentType": 5126,
      "count": 8976,
      "type": "VEC3",
      "min": [
        -1.1706900224089622,
        -9.132663952186704,
        -0.539872432127595
      ],
      "max": [
        3.5807367134839296,
        0.10895107872784138,
        2.9847102239727974
      ]
    },
    {
      "bufferView": 2,
      "componentType": 5126,
      "count": 8976,
      "type": "VEC2"
    },
    {
      "bufferView": 3,
      "componentType": 5123,
      "count": 8976,
      "type": "VEC4"
    },
    {
      "bufferView": 4,
      "componentType": 5126,
      "count": 8976,
      "type": "VEC4"
    },
    {
      "bufferView": 5,
      "componentType": 5123,
      "count": 147,
      "type": "SCALAR"
    },
    {
      "bufferView": 6,
      "componentType": 5123,
      "count": 45,
      "type": "SCALAR"
    },
    {
      "bufferView": 7,
      "componentType": 5123,
      "count": 216,
      "type": "SCALAR"
    },
    {
      "bufferView": 8,
      "componentType": 5123,
      "count": 60,
      "type": "SCALAR"
    },
    {
      "bufferView": 9,
      "componentType": 5123,
      "count": 147,
      "type": "SCALAR"
    },
    {
      "bufferView": 10,
      "componentType": 5123,
      "count": 45,
      "type": "SCALAR"
    },
    {
      "bufferView": 11,
      "componentType": 5123,
      "count": 216,
      "type": "SCALAR"
    },
    {
      "bufferView": 12,
      "componentType": 5123,
      "count": 60,
      "type": "SCALAR"
    },
    {
      "bufferView": 13,
      "componentType": 5123,
      "count": 72,
      "type": "SCALAR"
    },
    {
      "bufferView": 14,
      "componentType": 5123,
      "count": 30,
      "type": "SCALAR"
    },
    {
      "bufferView": 15,
      "componentType": 5123,
      "count": 138,
      "type": "SCALAR"
    },
    {
      "bufferView": 16,
      "componentType": 5123,
      "count": 42,
      "type": "SCALAR"
    },
    {
      "bufferView": 17,
      "componentType": 5123,
      "count": 5838,
      "type": "SCALAR"
    },
    {
      "bufferView": 18,
      "componentType": 5123,
      "count": 2778,
      "type": "SCALAR"
    },
    {
      "bufferView": 19,
      "componentType": 5123,
      "count": 6882,
      "type": "SCALAR"
    },
    {
      "bufferView": 20,
      "componentType": 5123,
      "count": 2778,
      "type": "SCALAR"
    }
  ],
  "bufferViews": [
    {
      "buffer": 0,
      "byteOffset": 0,
      "byteLength": 1024
    },
    {
      "buffer": 0,
      "byteOffset": 1024,
      "byteLength": 107712,
      "target": 34962
    },
    {
      "buffer": 0,
      "byteOffset": 108736,
      "byteLength": 71808,
      "target": 34962
    },
    {
      "buffer": 0,
      "byteOffset": 180544,
      "byteLength": 71808,
      "target": 34962
    },
    {
      "buffer": 0,
      "byteOffset": 252352,
      "byteLength": 143616,
      "target": 34962
    },
    {
      "buffer": 0,
      "byteOffset": 395968,
      "byteLength": 294,
      "target": 34963
    },
    {
      "buffer": 0,
      "byteOffset": 396262,
      "byteLength": 90,
      "target": 34963
    },
    {
      "buffer": 0,
      "byteOffset": 396352,
      "byteLength": 432,
      "target": 34963
    },
    {
      "buffer": 0,
      "byteOffset": 396784,
      "byteLength": 120,
      "target": 34963
    },
    {
      "buffer": 0,
      "byteOffset": 396904,
      "byteLength": 294,
      "target": 34963
    },
    {
      "buffer": 0,
      "byteOffset": 397198,
      "byteLength": 90,
      "target": 34963
    },
    {
      "buffer": 0,
      "byteOffset": 397288,
      "byteLength": 432,
      "target": 34963
    },
    {
      "buffer": 0,
      "byteOffset": 397720,
      "byteLength": 120,
      "target": 34963
    },
    {
      "buffer": 0,
      "byteOffset": 397840,
      "byteLength": 144,
      "target": 34963
    },
    {
      "buffer": 0,
      "byteOffset": 397984,
      "byteLength": 60,
      "target": 34963
    },
    {
      "buffer": 0,
      "byteOffset": 398044,
      "byteLength": 276,
      "target": 34963
    },
    {
      "buffer": 0,
      "byteOffset": 398320,
      "byteLength": 84,
      "target": 34963
    },
    {
      "buffer": 0,
      "byteOffset": 398404,
      "byteLength": 11676,
      "target": 34963
    },
    {
      "buffer": 0,
      "byteOffset": 410080,
      "byteLength": 5556,
      "target": 34963
    },
    {
      "buffer": 0,
      "byteOffset": 415636,
      "byteLength": 13764,
      "target": 34963
    },
    {
      "buffer": 0,
      "byteOffset": 429400,
      "byteLength": 5556,
      "target": 34963
    }
  ],
  "buffers": [
    {
      "byteLength": 434956,
      "uri": "urbanchurch_01_doorframe_bk.bin"
    }
  ]
}