{
  "asset": {
    "version": "2.0",
    "generator": "XBG to GLTF Converter with Textures"
  },
  "scene": 0,
  "scenes": [
    {
      "name": "Scene",
      "nodes": [
        12
      ]
    }
  ],
  "nodes": [
    {
      "name": "UrbanSmall00_Gazebo02_BK",
      "children": [
        1
      ]
    },
    {
      "name": "StatePrim",
      "translation": [
        -4.230470180511475,
        0.0,
        0.0
      ],
      "children": [
        2,
        5,
        6,
        7,
        8,
        9,
        10
      ]
    },
    {
      "name": "State01Prim",
      "translation": [
        0.0,
        0.0,
        0.30293944478034973
      ],
      "children": [
        3,
        4
      ]
    },
    {
      "name": "banSmall00_Gazebo02_01_FX",
      "translation": [
        4.351362705230713,
        3.868278741836548,
        1.4971290826797485
      ]
    },
    {
      "name": "nSmall00_Gazebo02_01_FX01",
      "translation": [
        1.7181140184402466,
        3.868278741836548,
        1.4971290826797485
      ]
    },
    {
      "name": "Debris_02",
      "translation": [
        6.621192932128906,
        4.056758880615234,
        3.460139036178589
      ],
      "rotation": [
        0.007277933502710708,
        0.15227019955671178,
        0.12851436580572137,
        0.9799208518095082
      ]
    },
    {
      "name": "Debris_03",
      "translation": [
        4.3087944984436035,
        3.8740200996398926,
        1.8882802724838257
      ],
      "rotation": [
        0.6924087332939574,
        -0.4293265201263645,
        -0.4897725470108779,
        -0.3104379667295742
      ]
    },
    {
      "name": "Debris_04",
      "translation": [
        0.6868597269058228,
        3.8740200996398926,
        1.8882802724838257
      ],
      "rotation": [
        0.6924087332939574,
        -0.4293265201263645,
        -0.4897725470108779,
        -0.3104379667295742
      ]
    },
    {
      "name": "Debris_05",
      "translation": [
        7.602655410766602,
        3.8740200996398926,
        1.8958678245544434
      ],
      "rotation": [
        0.6029329963472,
        -0.4743376943383898,
        -0.5964719934048497,
        -0.2360015608620824
      ]
    },
    {
      "name": "Debris_06",
      "translation": [
        3.625464916229248,
        4.166220664978027,
        3.507481813430786
      ],
      "rotation": [
        0.0731065783564058,
        0.13377073230614522,
        -0.312759753466578,
        0.9375191495851086
      ]
    },
    {
      "name": "Debris_07",
      "translation": [
        1.8673269748687744,
        4.166220664978027,
        3.507481813430786
      ],
      "rotation": [
        0.0731065783564058,
        0.13377073230614522,
        -0.312759753466578,
        0.9375191495851086
      ]
    },
    {
      "name": "MeshNode_LOD0",
      "mesh": 0,
      "skin": 0
    },
    {
      "name": "Correction_Root",
      "rotation": [
        -0.70710678,
        0.0,
        0.0,
        0.70710678
      ],
      "children": [
        0,
        11
      ]
    }
  ],
  "meshes": [
    {
      "name": "Mesh_LOD0",
      "primitives": [
        {
          "attributes": {
            "POSITION": 1,
            "JOINTS_0": 3,
            "WEIGHTS_0": 4,
            "TEXCOORD_0": 2
          },
          "indices": 5,
          "material": 0
        },
        {
          "attributes": {
            "POSITION": 1,
            "JOINTS_0": 3,
            "WEIGHTS_0": 4,
            "TEXCOORD_0": 2
          },
          "indices": 6,
          "material": 1
        },
        {
          "attributes": {
            "POSITION": 1,
            "JOINTS_0": 3,
            "WEIGHTS_0": 4,
            "TEXCOORD_0": 2
          },
          "indices": 7,
          "material": 2
        },
        {
          "attributes": {
            "POSITION": 1,
            "JOINTS_0": 3,
            "WEIGHTS_0": 4,
            "TEXCOORD_0": 2
          },
          "indices": 8,
          "material": 1
        },
        {
          "attributes": {
            "POSITION": 1,
            "JOINTS_0": 3,
            "WEIGHTS_0": 4,
            "TEXCOORD_0": 2
          },
          "indices": 9,
          "material": 2
        },
        {
          "attributes": {
            "POSITION": 1,
            "JOINTS_0": 3,
            "WEIGHTS_0": 4,
            "TEXCOORD_0": 2
          },
          "indices": 10,
          "material": 2
        },
        {
          "attributes": {
            "POSITION": 1,
            "JOINTS_0": 3,
            "WEIGHTS_0": 4,
            "TEXCOORD_0": 2
          },
          "indices": 11,
          "material": 2
        },
        {
          "attributes": {
            "POSITION": 1,
            "JOINTS_0": 3,
            "WEIGHTS_0": 4,
            "TEXCOORD_0": 2
          },
          "indices": 12,
          "material": 1
        },
        {
          "attributes": {
            "POSITION": 1,
            "JOINTS_0": 3,
            "WEIGHTS_0": 4,
            "TEXCOORD_0": 2
          },
          "indices": 13,
          "material": 1
        }
      ]
    }
  ],
  "skins": [
    {
      "inverseBindMatrices": 0,
      "joints": [
        0,
        1,
        2,
        3,
        4,
        5,
        6,
        7,
        8,
        9,
        10
      ],
      "name": "Armature",
      "skeleton": 0
    }
  ],
  "materials": [
    {
      "name": "GRAPHICS\\_MATERIALS\\TRODRIGUE-M-2007080748875882.xbm",
      "pbrMetallicRoughness": {
        "baseColorFactor": [
          1.0,
          1.0,
          1.0,
          1.0
        ],
        "metallicFactor": 0.0,
        "roughnessFactor": 1.0,
        "baseColorTexture": {
          "index": 0,
          "texCoord": 0
        }
      },
      "doubleSided": true
    },
    {
      "name": "GRAPHICS\\_MATERIALS\\TRODRIGUE-M-2007061453539040.xbm",
      "pbrMetallicRoughness": {
        "baseColorFactor": [
          1.0,
          1.0,
          1.0,
          1.0
        ],
        "metallicFactor": 0.0,
        "roughnessFactor": 1.0,
        "baseColorTexture": {
          "index": 1,
          "texCoord": 0
        }
      },
      "doubleSided": true
    },
    {
      "name": "GRAPHICS\\_MATERIALS\\TRODRIGUE-M-2007032736518461.xbm",
      "pbrMetallicRoughness": {
        "baseColorFactor": [
          1.0,
          1.0,
          1.0,
          1.0
        ],
        "metallicFactor": 0.0,
        "roughnessFactor": 1.0,
        "baseColorTexture": {
          "index": 2,
          "texCoord": 0
        }
      },
      "doubleSided": true
    }
  ],
  "textures": [
    {
      "sampler": 0,
      "source": 0
    },
    {
      "sampler": 0,
      "source": 1
    },
    {
      "sampler": 0,
      "source": 2
    }
  ],
  "images": [
    {
      "name": "brickterracotta02_d",
      "mimeType": "image/png",
      "uri": "data:image/png;base64,"
    },
    {
      "name": "dirtrust_03_d",
      "mimeType": "image/png",
      "uri": "data:image/png;base64,"
    },
    {
      "name": "woodpaintwhite_d",
      "mimeType": "image/png",
      "uri": "data:image/png;base64,"
    }
  ],
  "samplers": [
    {
      "magFilter": 9729,
      "minFilter": 9987,
      "wrapS": 10497,
      "wrapT": 10497
    }
  ],
  "accessors": [
    {
      "bufferView": 0,
      "componentType": 5126,
      "count": 11,
      "type": "MAT4"
    },
    {
      "bufferView": 1,
      "componentType": 5126,
      "count": 1743,
      "type": "VEC3",
      "min": [
        -0.7086397893726826,
        -0.49055452086031437,
        -0.3510238956660032
      ],
      "max": [
        8.022461615502834,
        4.720694596879184,
        3.2910550218075514
      ]
    },
    {
      "bufferView": 2,
      "componentType": 5126,
      "count": 1743,
      "type": "VEC2"
    },
    {
      "bufferView": 3,
      "componentType": 5123,
      "count": 1743,
      "type": "VEC4"
    },
    {
      "bufferView": 4,
      "componentType": 5126,
      "count": 1743,
      "type": "VEC4"
    },
    {
      "bufferView": 5,
      "componentType": 5123,
      "count": 201,
      "type": "SCALAR"
    },
    {
      "bufferView": 6,
      "componentType": 5123,
      "count": 1878,
      "type": "SCALAR"
    },
    {
      "bufferView": 7,
      "componentType": 5123,
      "count": 1320,
      "type": "SCALAR"
    },
    {
      "bufferView": 8,
      "componentType": 5123,
      "count": 54,
      "type": "SCALAR"
    },
    {
      "bufferView": 9,
      "componentType": 5123,
      "count": 96,
      "type": "SCALAR"
    },
    {
      "bufferView": 10,
      "componentType": 5123,
      "count": 96,
      "type": "SCALAR"
    },
    {
      "bufferView": 11,
      "componentType": 5123,
      "count": 96,
      "type": "SCALAR"
    },
    {
      "bufferView": 12,
      "componentType": 5123,
      "count": 12,
      "type": "SCALAR"
    },
    {
      "bufferView": 13,
      "componentType": 5123,
      "count": 54,
      "type": "SCALAR"
    }
  ],
  "bufferViews": [
    {
      "buffer": 0,
      "byteOffset": 0,
      "byteLength": 704
    },
    {
      "buffer": 0,
      "byteOffset": 704,
      "byteLength": 20916,
      "target": 34962
    },
    {
      "buffer": 0,
      "byteOffset": 21620,
      "byteLength": 13944,
      "target": 34962
    },
    {
      "buffer": 0,
      "byteOffset": 35564,
      "byteLength": 13944,
      "target": 34962
    },
    {
      "buffer": 0,
      "byteOffset": 49508,
      "byteLength": 27888,
      "target": 34962
    },
    {
      "buffer": 0,
      "byteOffset": 77396,
      "byteLength": 402,
      "target": 34963
    },
    {
      "buffer": 0,
      "byteOffset": 77798,
      "byteLength": 3756,
      "target": 34963
    },
    {
      "buffer": 0,
      "byteOffset": 81554,
      "byteLength": 2640,
      "target": 34963
    },
    {
      "buffer": 0,
      "byteOffset": 84194,
      "byteLength": 108,
      "target": 34963
    },
    {
      "buffer": 0,
      "byteOffset": 84302,
      "byteLength": 192,
      "target": 34963
    },
    {
      "buffer": 0,
      "byteOffset": 84494,
      "byteLength": 192,
      "target": 34963
    },
    {
      "buffer": 0,
      "byteOffset": 84686,
      "byteLength": 192,
      "target": 34963
    },
    {
      "buffer": 0,
      "byteOffset": 84878,
      "byteLength": 24,
      "target": 34963
    },
    {
      "buffer": 0,
      "byteOffset": 84902,
      "byteLength": 108,
      "target": 34963
    }
  ],
  "buffers": [
    {
      "byteLength": 85010,
      "uri": "urbansmall00_gazebo02_bk.bin"
    }
  ]
}