{
  "asset": {
    "version": "2.0",
    "generator": "XBG to GLTF Converter with Textures"
  },
  "scene": 0,
  "scenes": [
    {
      "name": "Scene",
      "nodes": [
        8
      ]
    }
  ],
  "nodes": [
    {
      "name": "BuildingShelterStraw02",
      "children": [
        1
      ]
    },
    {
      "name": "dingShelterStraw02_States",
      "translation": [
        0.446608304977417,
        -0.5820214748382568,
        0.0
      ],
      "children": [
        2,
        6
      ]
    },
    {
      "name": "ingShelterStraw02_State01",
      "translation": [
        -0.446608304977417,
        0.5820214748382568,
        0.0
      ],
      "children": [
        3,
        4,
        5
      ]
    },
    {
      "name": "anchesShelter02Straw03_FX",
      "translation": [
        4.328115940093994,
        -0.20609374344348907,
        5.7119879722595215
      ]
    },
    {
      "name": "chesShelter02Straw03_FX01",
      "translation": [
        0.6299816966056824,
        -0.20609374344348907,
        5.7119879722595215
      ]
    },
    {
      "name": "chesShelter02Straw03_FX02",
      "translation": [
        -3.430534601211548,
        -0.20609374344348907,
        5.7119879722595215
      ]
    },
    {
      "name": "ingShelterStraw02_State02",
      "translation": [
        -0.446608304977417,
        0.5820214748382568,
        0.0
      ]
    },
    {
      "name": "MeshNode_LOD0",
      "mesh": 0,
      "skin": 0
    },
    {
      "name": "Correction_Root",
      "rotation": [
        -0.70710678,
        0.0,
        0.0,
        0.70710678
      ],
      "children": [
        0,
        7
      ]
    }
  ],
  "meshes": [
    {
      "name": "Mesh_LOD0",
      "primitives": [
        {
          "attributes": {
            "POSITION": 1,
            "JOINTS_0": 3,
            "WEIGHTS_0": 4,
            "TEXCOORD_0": 2
          },
          "indices": 5,
          "material": 0
        },
        {
          "attributes": {
            "POSITION": 1,
            "JOINTS_0": 3,
            "WEIGHTS_0": 4,
            "TEXCOORD_0": 2
          },
          "indices": 6,
          "material": 0
        }
      ]
    }
  ],
  "skins": [
    {
      "inverseBindMatrices": 0,
      "joints": [
        0,
        1,
        2,
        3,
        4,
        5,
        6
      ],
      "name": "Armature",
      "skeleton": 0
    }
  ],
  "materials": [
    {
      "name": "GRAPHICS\\_MATERIALS\\CBERGERONLYONNAIS-M-2007022161530681.xbm",
      "pbrMetallicRoughness": {
        "baseColorFactor": [
          1.0,
          1.0,
          1.0,
          1.0
        ],
        "metallicFactor": 0.0,
        "roughnessFactor": 1.0,
        "baseColorTexture": {
          "index": 0,
          "texCoord": 0
        }
      },
      "doubleSided": true
    }
  ],
  "textures": [
    {
      "sampler": 0,
      "source": 0
    }
  ],
  "images": [
    {
      "name": "strawstraightalpha_02_d",
      "mimeType": "image/png",
      "uri": "data:image/png;base64,"
    }
  ],
  "samplers": [
    {
      "magFilter": 9729,
      "minFilter": 9987,
      "wrapS": 10497,
      "wrapT": 10497
    }
  ],
  "accessors": [
    {
      "bufferView": 0,
      "componentType": 5126,
      "count": 7,
      "type": "MAT4"
    },
    {
      "bufferView": 1,
      "componentType": 5126,
      "count": 1600,
      "type": "VEC3",
      "min": [
        -6.939970085397363,
        -2.9376201638951898,
        4.770775470882654
      ],
      "max": [
        6.82525100838393,
        2.5253151012584567,
        5.907284762710333
      ]
    },
    {
      "bufferView": 2,
      "componentType": 5126,
      "count": 1600,
      "type": "VEC2"
    },
    {
      "bufferView": 3,
      "componentType": 5123,
      "count": 1600,
      "type": "VEC4"
    },
    {
      "bufferView": 4,
      "componentType": 5126,
      "count": 1600,
      "type": "VEC4"
    },
    {
      "bufferView": 5,
      "componentType": 5123,
      "count": 5520,
      "type": "SCALAR"
    },
    {
      "bufferView": 6,
      "componentType": 5123,
      "count": 6,
      "type": "SCALAR"
    }
  ],
  "bufferViews": [
    {
      "buffer": 0,
      "byteOffset": 0,
      "byteLength": 448
    },
    {
      "buffer": 0,
      "byteOffset": 448,
      "byteLength": 19200,
      "target": 34962
    },
    {
      "buffer": 0,
      "byteOffset": 19648,
      "byteLength": 12800,
      "target": 34962
    },
    {
      "buffer": 0,
      "byteOffset": 32448,
      "byteLength": 12800,
      "target": 34962
    },
    {
      "buffer": 0,
      "byteOffset": 45248,
      "byteLength": 25600,
      "target": 34962
    },
    {
      "buffer": 0,
      "byteOffset": 70848,
      "byteLength": 11040,
      "target": 34963
    },
    {
      "buffer": 0,
      "byteOffset": 81888,
      "byteLength": 12,
      "target": 34963
    }
  ],
  "buffers": [
    {
      "byteLength": 81900,
      "uri": "buildingshelterstraw02.bin"
    }
  ]
}