{
  "asset": {
    "version": "2.0",
    "generator": "XBG to GLTF Converter with Textures"
  },
  "scene": 0,
  "scenes": [
    {
      "name": "Scene",
      "nodes": [
        2
      ]
    }
  ],
  "nodes": [
    {
      "name": "RF_Plant_Parasol_Small_01"
    },
    {
      "name": "MeshNode_LOD0",
      "mesh": 0,
      "skin": 0
    },
    {
      "name": "Correction_Root",
      "rotation": [
        -0.70710678,
        0.0,
        0.0,
        0.70710678
      ],
      "children": [
        0,
        1
      ]
    }
  ],
  "meshes": [
    {
      "name": "Mesh_LOD0",
      "primitives": [
        {
          "attributes": {
            "POSITION": 1,
            "JOINTS_0": 3,
            "WEIGHTS_0": 4,
            "TEXCOORD_0": 2
          },
          "indices": 5,
          "material": 0
        }
      ]
    }
  ],
  "skins": [
    {
      "inverseBindMatrices": 0,
      "joints": [
        0
      ],
      "name": "Armature",
      "skeleton": 0
    }
  ],
  "materials": [
    {
      "name": "GRAPHICS\\_MATERIALS\\SLABRECHE-M-2009051435882667.xbm",
      "pbrMetallicRoughness": {
        "baseColorFactor": [
          1.0,
          1.0,
          1.0,
          1.0
        ],
        "metallicFactor": 0.0,
        "roughnessFactor": 1.0,
        "baseColorTexture": {
          "index": 0,
          "texCoord": 0
        }
      },
      "doubleSided": true
    }
  ],
  "textures": [
    {
      "sampler": 0,
      "source": 0
    }
  ],
  "images": [
    {
      "name": "rf_plante_parasol_feather_01_d",
      "mimeType": "image/png",
      "uri": "data:image/png;base64,"
    }
  ],
  "samplers": [
    {
      "magFilter": 9729,
      "minFilter": 9987,
      "wrapS": 10497,
      "wrapT": 10497
    }
  ],
  "accessors": [
    {
      "bufferView": 0,
      "componentType": 5126,
      "count": 1,
      "type": "MAT4"
    },
    {
      "bufferView": 1,
      "componentType": 5126,
      "count": 542,
      "type": "VEC3",
      "min": [
        -0.5517136137932539,
        -0.599627673625946,
        -0.49745170399546623
      ],
      "max": [
        0.42591631785035133,
        0.5797296054661274,
        1.1544541753828526
      ]
    },
    {
      "bufferView": 2,
      "componentType": 5126,
      "count": 542,
      "type": "VEC2"
    },
    {
      "bufferView": 3,
      "componentType": 5123,
      "count": 542,
      "type": "VEC4"
    },
    {
      "bufferView": 4,
      "componentType": 5126,
      "count": 542,
      "type": "VEC4"
    },
    {
      "bufferView": 5,
      "componentType": 5123,
      "count": 1272,
      "type": "SCALAR"
    }
  ],
  "bufferViews": [
    {
      "buffer": 0,
      "byteOffset": 0,
      "byteLength": 64
    },
    {
      "buffer": 0,
      "byteOffset": 64,
      "byteLength": 6504,
      "target": 34962
    },
    {
      "buffer": 0,
      "byteOffset": 6568,
      "byteLength": 4336,
      "target": 34962
    },
    {
      "buffer": 0,
      "byteOffset": 10904,
      "byteLength": 4336,
      "target": 34962
    },
    {
      "buffer": 0,
      "byteOffset": 15240,
      "byteLength": 8672,
      "target": 34962
    },
    {
      "buffer": 0,
      "byteOffset": 23912,
      "byteLength": 2544,
      "target": 34963
    }
  ],
  "buffers": [
    {
      "byteLength": 26456,
      "uri": "rf_plant_parasol_small_01.bin"
    }
  ]
}