{
  "asset": {
    "version": "2.0",
    "generator": "XBG to GLTF Converter with Textures"
  },
  "scene": 0,
  "scenes": [
    {
      "name": "Scene",
      "nodes": [
        6
      ]
    }
  ],
  "nodes": [
    {
      "name": "ant_Vein_Pod_02_Breakable",
      "children": [
        1
      ]
    },
    {
      "name": "in_Pod_02_Breakable_STATE",
      "children": [
        2,
        3
      ]
    },
    {
      "name": "n_Pod_02_Breakable_STATE2"
    },
    {
      "name": "n_Pod_02_Breakable_STATE1",
      "children": [
        4
      ]
    },
    {
      "name": "SwtichFX",
      "translation": [
        -0.18813377618789673,
        0.006785689853131771,
        3.639540672302246
      ],
      "rotation": [
        0.32765004962724187,
        0.11662789842224608,
        0.31440744762099626,
        0.8832844035755365
      ]
    },
    {
      "name": "MeshNode_LOD0",
      "mesh": 0,
      "skin": 0
    },
    {
      "name": "Correction_Root",
      "rotation": [
        -0.70710678,
        0.0,
        0.0,
        0.70710678
      ],
      "children": [
        0,
        5
      ]
    }
  ],
  "meshes": [
    {
      "name": "Mesh_LOD0",
      "primitives": [
        {
          "attributes": {
            "POSITION": 1,
            "JOINTS_0": 3,
            "WEIGHTS_0": 4,
            "TEXCOORD_0": 2
          },
          "indices": 5,
          "material": 0
        },
        {
          "attributes": {
            "POSITION": 1,
            "JOINTS_0": 3,
            "WEIGHTS_0": 4,
            "TEXCOORD_0": 2
          },
          "indices": 6,
          "material": 0
        }
      ]
    }
  ],
  "skins": [
    {
      "inverseBindMatrices": 0,
      "joints": [
        0,
        1,
        2,
        3,
        4
      ],
      "name": "Armature",
      "skeleton": 0
    }
  ],
  "materials": [
    {
      "name": "GRAPHICS\\_MATERIALS\\PTHERIAULT2-M-0407200856074447.xbm",
      "pbrMetallicRoughness": {
        "baseColorFactor": [
          1.0,
          1.0,
          1.0,
          1.0
        ],
        "metallicFactor": 0.0,
        "roughnessFactor": 1.0,
        "baseColorTexture": {
          "index": 0,
          "texCoord": 0
        }
      },
      "doubleSided": true
    }
  ],
  "textures": [
    {
      "sampler": 0,
      "source": 0
    }
  ],
  "images": [
    {
      "name": "rf_plant_vein_pod_02_d",
      "mimeType": "image/png",
      "uri": "data:image/png;base64,"
    }
  ],
  "samplers": [
    {
      "magFilter": 9729,
      "minFilter": 9987,
      "wrapS": 10497,
      "wrapT": 10497
    }
  ],
  "accessors": [
    {
      "bufferView": 0,
      "componentType": 5126,
      "count": 5,
      "type": "MAT4"
    },
    {
      "bufferView": 1,
      "componentType": 5126,
      "count": 1403,
      "type": "VEC3",
      "min": [
        -1.4159367643296719,
        -1.0224311035126448,
        -0.3148899804800749
      ],
      "max": [
        1.2183294156566262,
        1.2208929704502225,
        6.978209777735174
      ]
    },
    {
      "bufferView": 2,
      "componentType": 5126,
      "count": 1403,
      "type": "VEC2"
    },
    {
      "bufferView": 3,
      "componentType": 5123,
      "count": 1403,
      "type": "VEC4"
    },
    {
      "bufferView": 4,
      "componentType": 5126,
      "count": 1403,
      "type": "VEC4"
    },
    {
      "bufferView": 5,
      "componentType": 5123,
      "count": 2820,
      "type": "SCALAR"
    },
    {
      "bufferView": 6,
      "componentType": 5123,
      "count": 2208,
      "type": "SCALAR"
    }
  ],
  "bufferViews": [
    {
      "buffer": 0,
      "byteOffset": 0,
      "byteLength": 320
    },
    {
      "buffer": 0,
      "byteOffset": 320,
      "byteLength": 16836,
      "target": 34962
    },
    {
      "buffer": 0,
      "byteOffset": 17156,
      "byteLength": 11224,
      "target": 34962
    },
    {
      "buffer": 0,
      "byteOffset": 28380,
      "byteLength": 11224,
      "target": 34962
    },
    {
      "buffer": 0,
      "byteOffset": 39604,
      "byteLength": 22448,
      "target": 34962
    },
    {
      "buffer": 0,
      "byteOffset": 62052,
      "byteLength": 5640,
      "target": 34963
    },
    {
      "buffer": 0,
      "byteOffset": 67692,
      "byteLength": 4416,
      "target": 34963
    }
  ],
  "buffers": [
    {
      "byteLength": 72108,
      "uri": "rf_plant_vein_pod_02_breakable.bin"
    }
  ]
}