{
  "asset": {
    "version": "2.0",
    "generator": "XBG to GLTF Converter with Textures"
  },
  "scene": 0,
  "scenes": [
    {
      "name": "Scene",
      "nodes": [
        7
      ]
    }
  ],
  "nodes": [
    {
      "name": "NativeGTowerStrawRoof_BK",
      "children": [
        1
      ]
    },
    {
      "name": "StatePrim",
      "translation": [
        -1.205810546875,
        6.534470081329346,
        12.25783920288086
      ],
      "children": [
        2,
        3
      ]
    },
    {
      "name": "State02Prim",
      "translation": [
        0.0,
        0.0,
        0.4846752882003784
      ]
    },
    {
      "name": "State01Prim",
      "translation": [
        0.0,
        0.0,
        0.2608959972858429
      ],
      "children": [
        4,
        5
      ]
    },
    {
      "name": "RoofOutside_FX",
      "translation": [
        2.4399998892477015e-06,
        -4.573622703552246,
        -0.36781737208366394
      ]
    },
    {
      "name": "RoofOutside_FX01",
      "translation": [
        2.4399998892477015e-06,
        -5.601932048797607,
        -0.36781737208366394
      ]
    },
    {
      "name": "MeshNode_LOD0",
      "mesh": 0,
      "skin": 0
    },
    {
      "name": "Correction_Root",
      "rotation": [
        -0.70710678,
        0.0,
        0.0,
        0.70710678
      ],
      "children": [
        0,
        6
      ]
    }
  ],
  "meshes": [
    {
      "name": "Mesh_LOD0",
      "primitives": [
        {
          "attributes": {
            "POSITION": 1,
            "JOINTS_0": 3,
            "WEIGHTS_0": 4,
            "TEXCOORD_0": 2
          },
          "indices": 5,
          "material": 0
        },
        {
          "attributes": {
            "POSITION": 1,
            "JOINTS_0": 3,
            "WEIGHTS_0": 4,
            "TEXCOORD_0": 2
          },
          "indices": 6,
          "material": 0
        }
      ]
    }
  ],
  "skins": [
    {
      "inverseBindMatrices": 0,
      "joints": [
        0,
        1,
        2,
        3,
        4,
        5
      ],
      "name": "Armature",
      "skeleton": 0
    }
  ],
  "materials": [
    {
      "name": "GRAPHICS\\_MATERIALS\\CBERGERONLYONNAIS-M-2007081557961886.xbm",
      "pbrMetallicRoughness": {
        "baseColorFactor": [
          1.0,
          1.0,
          1.0,
          1.0
        ],
        "metallicFactor": 0.0,
        "roughnessFactor": 1.0,
        "baseColorTexture": {
          "index": 0,
          "texCoord": 0
        }
      },
      "doubleSided": true
    }
  ],
  "textures": [
    {
      "sampler": 0,
      "source": 0
    }
  ],
  "images": [
    {
      "name": "strawmill_d",
      "mimeType": "image/png",
      "uri": "data:image/png;base64,"
    }
  ],
  "samplers": [
    {
      "magFilter": 9729,
      "minFilter": 9987,
      "wrapS": 10497,
      "wrapT": 10497
    }
  ],
  "accessors": [
    {
      "bufferView": 0,
      "componentType": 5126,
      "count": 6,
      "type": "MAT4"
    },
    {
      "bufferView": 1,
      "componentType": 5126,
      "count": 2086,
      "type": "VEC3",
      "min": [
        -3.338572341017425,
        -8.483901478350163,
        -2.1239967020228505
      ],
      "max": [
        3.338297674432397,
        -2.113834038376808,
        1.388164920732379
      ]
    },
    {
      "bufferView": 2,
      "componentType": 5126,
      "count": 2086,
      "type": "VEC2"
    },
    {
      "bufferView": 3,
      "componentType": 5123,
      "count": 2086,
      "type": "VEC4"
    },
    {
      "bufferView": 4,
      "componentType": 5126,
      "count": 2086,
      "type": "VEC4"
    },
    {
      "bufferView": 5,
      "componentType": 5123,
      "count": 6,
      "type": "SCALAR"
    },
    {
      "bufferView": 6,
      "componentType": 5123,
      "count": 6960,
      "type": "SCALAR"
    }
  ],
  "bufferViews": [
    {
      "buffer": 0,
      "byteOffset": 0,
      "byteLength": 384
    },
    {
      "buffer": 0,
      "byteOffset": 384,
      "byteLength": 25032,
      "target": 34962
    },
    {
      "buffer": 0,
      "byteOffset": 25416,
      "byteLength": 16688,
      "target": 34962
    },
    {
      "buffer": 0,
      "byteOffset": 42104,
      "byteLength": 16688,
      "target": 34962
    },
    {
      "buffer": 0,
      "byteOffset": 58792,
      "byteLength": 33376,
      "target": 34962
    },
    {
      "buffer": 0,
      "byteOffset": 92168,
      "byteLength": 12,
      "target": 34963
    },
    {
      "buffer": 0,
      "byteOffset": 92180,
      "byteLength": 13920,
      "target": 34963
    }
  ],
  "buffers": [
    {
      "byteLength": 106100,
      "uri": "nativegtowerstrawroof_bk.bin"
    }
  ]
}