{
  "asset": {
    "version": "2.0",
    "generator": "XBG to GLTF Converter with Textures"
  },
  "scene": 0,
  "scenes": [
    {
      "name": "Scene",
      "nodes": [
        2
      ]
    }
  ],
  "nodes": [
    {
      "name": "BasketStraw02"
    },
    {
      "name": "MeshNode_LOD0",
      "mesh": 0,
      "skin": 0
    },
    {
      "name": "Correction_Root",
      "rotation": [
        -0.70710678,
        0.0,
        0.0,
        0.70710678
      ],
      "children": [
        0,
        1
      ]
    }
  ],
  "meshes": [
    {
      "name": "Mesh_LOD0",
      "primitives": [
        {
          "attributes": {
            "POSITION": 1,
            "JOINTS_0": 3,
            "WEIGHTS_0": 4,
            "TEXCOORD_0": 2
          },
          "indices": 5,
          "material": 0
        }
      ]
    }
  ],
  "skins": [
    {
      "inverseBindMatrices": 0,
      "joints": [
        0
      ],
      "name": "Armature",
      "skeleton": 0
    }
  ],
  "materials": [
    {
      "name": "GRAPHICS\\_MATERIALS\\ADOLBEC-M-2008042539854730.xbm",
      "pbrMetallicRoughness": {
        "baseColorFactor": [
          1.0,
          1.0,
          1.0,
          1.0
        ],
        "metallicFactor": 0.0,
        "roughnessFactor": 1.0,
        "baseColorTexture": {
          "index": 0,
          "texCoord": 0
        }
      },
      "doubleSided": true
    }
  ],
  "textures": [
    {
      "sampler": 0,
      "source": 0
    }
  ],
  "images": [
    {
      "name": "metalgrill_02_d",
      "mimeType": "image/png",
      "uri": "data:image/png;base64,"
    }
  ],
  "samplers": [
    {
      "magFilter": 9729,
      "minFilter": 9987,
      "wrapS": 10497,
      "wrapT": 10497
    }
  ],
  "accessors": [
    {
      "bufferView": 0,
      "componentType": 5126,
      "count": 1,
      "type": "MAT4"
    },
    {
      "bufferView": 1,
      "componentType": 5126,
      "count": 539,
      "type": "VEC3",
      "min": [
        -0.41618091333657503,
        -0.3883175142109394,
        -0.022827845066785812
      ],
      "max": [
        0.41697439458221197,
        0.3656117431819439,
        0.48564104083925486
      ]
    },
    {
      "bufferView": 2,
      "componentType": 5126,
      "count": 539,
      "type": "VEC2"
    },
    {
      "bufferView": 3,
      "componentType": 5123,
      "count": 539,
      "type": "VEC4"
    },
    {
      "bufferView": 4,
      "componentType": 5126,
      "count": 539,
      "type": "VEC4"
    },
    {
      "bufferView": 5,
      "componentType": 5123,
      "count": 2556,
      "type": "SCALAR"
    }
  ],
  "bufferViews": [
    {
      "buffer": 0,
      "byteOffset": 0,
      "byteLength": 64
    },
    {
      "buffer": 0,
      "byteOffset": 64,
      "byteLength": 6468,
      "target": 34962
    },
    {
      "buffer": 0,
      "byteOffset": 6532,
      "byteLength": 4312,
      "target": 34962
    },
    {
      "buffer": 0,
      "byteOffset": 10844,
      "byteLength": 4312,
      "target": 34962
    },
    {
      "buffer": 0,
      "byteOffset": 15156,
      "byteLength": 8624,
      "target": 34962
    },
    {
      "buffer": 0,
      "byteOffset": 23780,
      "byteLength": 5112,
      "target": 34963
    }
  ],
  "buffers": [
    {
      "byteLength": 28892,
      "uri": "basketstraw02.bin"
    }
  ]
}