{
  "asset": {
    "version": "2.0",
    "generator": "XBG to GLTF Converter with Textures"
  },
  "scene": 0,
  "scenes": [
    {
      "name": "Scene",
      "nodes": [
        3
      ]
    }
  ],
  "nodes": [
    {
      "name": "ColaBottleGas",
      "children": [
        1
      ]
    },
    {
      "name": "FCX_Ph01",
      "translation": [
        -0.00048431000323034823,
        0.0006101600010879338,
        0.18593165278434753
      ]
    },
    {
      "name": "MeshNode_LOD0",
      "mesh": 0,
      "skin": 0
    },
    {
      "name": "Correction_Root",
      "rotation": [
        -0.70710678,
        0.0,
        0.0,
        0.70710678
      ],
      "children": [
        0,
        2
      ]
    }
  ],
  "meshes": [
    {
      "name": "Mesh_LOD0",
      "primitives": [
        {
          "attributes": {
            "POSITION": 1,
            "JOINTS_0": 3,
            "WEIGHTS_0": 4,
            "TEXCOORD_0": 2
          },
          "indices": 5,
          "material": 0
        },
        {
          "attributes": {
            "POSITION": 1,
            "JOINTS_0": 3,
            "WEIGHTS_0": 4,
            "TEXCOORD_0": 2
          },
          "indices": 6,
          "material": 1
        }
      ]
    }
  ],
  "skins": [
    {
      "inverseBindMatrices": 0,
      "joints": [
        0,
        1
      ],
      "name": "Armature",
      "skeleton": 0
    }
  ],
  "materials": [
    {
      "name": "GRAPHICS\\_MATERIALS\\JSMORIN-M-2007020149967538.xbm",
      "pbrMetallicRoughness": {
        "baseColorFactor": [
          1.0,
          1.0,
          1.0,
          1.0
        ],
        "metallicFactor": 0.0,
        "roughnessFactor": 1.0,
        "baseColorTexture": {
          "index": 0,
          "texCoord": 0
        }
      },
      "doubleSided": true
    },
    {
      "name": "GRAPHICS\\_MATERIALS\\PLCOSSETTE-M-2007042747905529.xbm",
      "pbrMetallicRoughness": {
        "baseColorFactor": [
          1.0,
          1.0,
          1.0,
          1.0
        ],
        "metallicFactor": 0.0,
        "roughnessFactor": 1.0,
        "baseColorTexture": {
          "index": 1,
          "texCoord": 0
        }
      },
      "doubleSided": true
    }
  ],
  "textures": [
    {
      "sampler": 0,
      "source": 0
    },
    {
      "sampler": 0,
      "source": 1
    }
  ],
  "images": [
    {
      "name": "glassdirtymarks_d",
      "mimeType": "image/png",
      "uri": "data:image/png;base64,"
    },
    {
      "name": "glassopaque_01_d",
      "mimeType": "image/png",
      "uri": "data:image/png;base64,"
    }
  ],
  "samplers": [
    {
      "magFilter": 9729,
      "minFilter": 9987,
      "wrapS": 10497,
      "wrapT": 10497
    }
  ],
  "accessors": [
    {
      "bufferView": 0,
      "componentType": 5126,
      "count": 2,
      "type": "MAT4"
    },
    {
      "bufferView": 1,
      "componentType": 5126,
      "count": 549,
      "type": "VEC3",
      "min": [
        -0.08761864062398672,
        -0.08371227141469717,
        -0.0028077028691768646
      ],
      "max": [
        0.08194219786673784,
        0.08581804856657982,
        0.43476668559014797
      ]
    },
    {
      "bufferView": 2,
      "componentType": 5126,
      "count": 549,
      "type": "VEC2"
    },
    {
      "bufferView": 3,
      "componentType": 5123,
      "count": 549,
      "type": "VEC4"
    },
    {
      "bufferView": 4,
      "componentType": 5126,
      "count": 549,
      "type": "VEC4"
    },
    {
      "bufferView": 5,
      "componentType": 5123,
      "count": 738,
      "type": "SCALAR"
    },
    {
      "bufferView": 6,
      "componentType": 5123,
      "count": 1032,
      "type": "SCALAR"
    }
  ],
  "bufferViews": [
    {
      "buffer": 0,
      "byteOffset": 0,
      "byteLength": 128
    },
    {
      "buffer": 0,
      "byteOffset": 128,
      "byteLength": 6588,
      "target": 34962
    },
    {
      "buffer": 0,
      "byteOffset": 6716,
      "byteLength": 4392,
      "target": 34962
    },
    {
      "buffer": 0,
      "byteOffset": 11108,
      "byteLength": 4392,
      "target": 34962
    },
    {
      "buffer": 0,
      "byteOffset": 15500,
      "byteLength": 8784,
      "target": 34962
    },
    {
      "buffer": 0,
      "byteOffset": 24284,
      "byteLength": 1476,
      "target": 34963
    },
    {
      "buffer": 0,
      "byteOffset": 25760,
      "byteLength": 2064,
      "target": 34963
    }
  ],
  "buffers": [
    {
      "byteLength": 27824,
      "uri": "colabottlegas.bin"
    }
  ]
}