{
  "asset": {
    "version": "2.0",
    "generator": "XBG to GLTF Converter with Textures"
  },
  "scene": 0,
  "scenes": [
    {
      "name": "Scene",
      "nodes": [
        11
      ]
    }
  ],
  "nodes": [
    {
      "name": "SorghumBasket04_BK",
      "children": [
        1
      ]
    },
    {
      "name": "SorghumBasket04a_STATE",
      "translation": [
        0.0027557399589568377,
        0.0004766699858009815,
        0.18931445479393005
      ],
      "children": [
        2,
        7,
        8,
        9
      ]
    },
    {
      "name": "SorghumBasket040a_STATE1",
      "translation": [
        -0.00413811020553112,
        0.0,
        0.0
      ],
      "children": [
        3,
        4,
        5,
        6
      ]
    },
    {
      "name": "Straw_FX",
      "translation": [
        0.11333297193050385,
        -0.2467103749513626,
        0.049771498888731
      ],
      "rotation": [
        0.004088822246887747,
        0.2173846426119594,
        -0.4653892304202993,
        0.8579860515235445
      ]
    },
    {
      "name": "Straw_FX01",
      "translation": [
        -0.13132551312446594,
        0.25115299224853516,
        0.049771498888731
      ],
      "rotation": [
        -0.21480538898115029,
        0.03363696263310023,
        0.7866627557595288,
        0.5778312208646162
      ]
    },
    {
      "name": "Straw_FX02",
      "translation": [
        0.1244032084941864,
        0.2366049587726593,
        0.049771498888731
      ],
      "rotation": [
        -0.16514350167234115,
        0.14142285066460233,
        0.366051043158957,
        0.9048391207104954
      ]
    },
    {
      "name": "Straw_FX03",
      "translation": [
        -0.2515049874782562,
        -0.19305773079395294,
        0.1346764713525772
      ],
      "rotation": [
        -0.16514350167234115,
        0.14142285066460233,
        0.366051043158957,
        0.9048391207104954
      ]
    },
    {
      "name": "PartB_STATE2",
      "translation": [
        0.27215078473091125,
        0.14794540405273438,
        0.12039337307214737
      ]
    },
    {
      "name": "PartC_STATE2",
      "translation": [
        3.9670001569902524e-05,
        -5.190000138100004e-06,
        -0.12358486652374268
      ]
    },
    {
      "name": "PartA_STATE2",
      "translation": [
        -0.28171026706695557,
        -0.18780528008937836,
        0.07861229032278061
      ]
    },
    {
      "name": "MeshNode_LOD0",
      "mesh": 0,
      "skin": 0
    },
    {
      "name": "Correction_Root",
      "rotation": [
        -0.70710678,
        0.0,
        0.0,
        0.70710678
      ],
      "children": [
        0,
        10
      ]
    }
  ],
  "meshes": [
    {
      "name": "Mesh_LOD0",
      "primitives": [
        {
          "attributes": {
            "POSITION": 1,
            "JOINTS_0": 3,
            "WEIGHTS_0": 4,
            "TEXCOORD_0": 2
          },
          "indices": 5,
          "material": 1
        },
        {
          "attributes": {
            "POSITION": 1,
            "JOINTS_0": 3,
            "WEIGHTS_0": 4,
            "TEXCOORD_0": 2
          },
          "indices": 6,
          "material": 2
        },
        {
          "attributes": {
            "POSITION": 1,
            "JOINTS_0": 3,
            "WEIGHTS_0": 4,
            "TEXCOORD_0": 2
          },
          "indices": 7,
          "material": 0
        },
        {
          "attributes": {
            "POSITION": 1,
            "JOINTS_0": 3,
            "WEIGHTS_0": 4,
            "TEXCOORD_0": 2
          },
          "indices": 8,
          "material": 0
        },
        {
          "attributes": {
            "POSITION": 1,
            "JOINTS_0": 3,
            "WEIGHTS_0": 4,
            "TEXCOORD_0": 2
          },
          "indices": 9,
          "material": 0
        }
      ]
    }
  ],
  "skins": [
    {
      "inverseBindMatrices": 0,
      "joints": [
        0,
        1,
        2,
        3,
        4,
        5,
        6,
        7,
        8,
        9
      ],
      "name": "Armature",
      "skeleton": 0
    }
  ],
  "materials": [
    {
      "name": "GRAPHICS\\_MATERIALS\\HLEVASSEUR-M-2008051450477494.xbm",
      "pbrMetallicRoughness": {
        "baseColorFactor": [
          1.0,
          1.0,
          1.0,
          1.0
        ],
        "metallicFactor": 0.0,
        "roughnessFactor": 1.0,
        "baseColorTexture": {
          "index": 0,
          "texCoord": 0
        }
      },
      "doubleSided": true
    },
    {
      "name": "GRAPHICS\\_MATERIALS\\PFERNANDEZ-M-2007040367442156.xbm",
      "pbrMetallicRoughness": {
        "baseColorFactor": [
          1.0,
          1.0,
          1.0,
          1.0
        ],
        "metallicFactor": 0.0,
        "roughnessFactor": 1.0,
        "baseColorTexture": {
          "index": 1,
          "texCoord": 0
        }
      },
      "doubleSided": true
    },
    {
      "name": "GRAPHICS\\_MATERIALS\\PFERNANDEZ-M-2007040367448828.xbm",
      "pbrMetallicRoughness": {
        "baseColorFactor": [
          1.0,
          1.0,
          1.0,
          1.0
        ],
        "metallicFactor": 0.0,
        "roughnessFactor": 1.0,
        "baseColorTexture": {
          "index": 2,
          "texCoord": 0
        }
      },
      "doubleSided": true
    }
  ],
  "textures": [
    {
      "sampler": 0,
      "source": 0
    },
    {
      "sampler": 0,
      "source": 1
    },
    {
      "sampler": 0,
      "source": 2
    }
  ],
  "images": [
    {
      "name": "weaving_02_d",
      "mimeType": "image/png",
      "uri": "data:image/png;base64,"
    },
    {
      "name": "weaving_02_d",
      "mimeType": "image/png",
      "uri": "data:image/png;base64,"
    },
    {
      "name": "woodslick_01_d",
      "mimeType": "image/png",
      "uri": "data:image/png;base64,"
    }
  ],
  "samplers": [
    {
      "magFilter": 9729,
      "minFilter": 9987,
      "wrapS": 10497,
      "wrapT": 10497
    }
  ],
  "accessors": [
    {
      "bufferView": 0,
      "componentType": 5126,
      "count": 10,
      "type": "MAT4"
    },
    {
      "bufferView": 1,
      "componentType": 5126,
      "count": 630,
      "type": "VEC3",
      "min": [
        -0.4167912835255265,
        -0.4167912835255265,
        -0.18451490812003613
      ],
      "max": [
        0.41676076501607895,
        0.41676076501607895,
        0.18448438961058855
      ]
    },
    {
      "bufferView": 2,
      "componentType": 5126,
      "count": 630,
      "type": "VEC2"
    },
    {
      "bufferView": 3,
      "componentType": 5123,
      "count": 630,
      "type": "VEC4"
    },
    {
      "bufferView": 4,
      "componentType": 5126,
      "count": 630,
      "type": "VEC4"
    },
    {
      "bufferView": 5,
      "componentType": 5123,
      "count": 432,
      "type": "SCALAR"
    },
    {
      "bufferView": 6,
      "componentType": 5123,
      "count": 576,
      "type": "SCALAR"
    },
    {
      "bufferView": 7,
      "componentType": 5123,
      "count": 450,
      "type": "SCALAR"
    },
    {
      "bufferView": 8,
      "componentType": 5123,
      "count": 216,
      "type": "SCALAR"
    },
    {
      "bufferView": 9,
      "componentType": 5123,
      "count": 312,
      "type": "SCALAR"
    }
  ],
  "bufferViews": [
    {
      "buffer": 0,
      "byteOffset": 0,
      "byteLength": 640
    },
    {
      "buffer": 0,
      "byteOffset": 640,
      "byteLength": 7560,
      "target": 34962
    },
    {
      "buffer": 0,
      "byteOffset": 8200,
      "byteLength": 5040,
      "target": 34962
    },
    {
      "buffer": 0,
      "byteOffset": 13240,
      "byteLength": 5040,
      "target": 34962
    },
    {
      "buffer": 0,
      "byteOffset": 18280,
      "byteLength": 10080,
      "target": 34962
    },
    {
      "buffer": 0,
      "byteOffset": 28360,
      "byteLength": 864,
      "target": 34963
    },
    {
      "buffer": 0,
      "byteOffset": 29224,
      "byteLength": 1152,
      "target": 34963
    },
    {
      "buffer": 0,
      "byteOffset": 30376,
      "byteLength": 900,
      "target": 34963
    },
    {
      "buffer": 0,
      "byteOffset": 31276,
      "byteLength": 432,
      "target": 34963
    },
    {
      "buffer": 0,
      "byteOffset": 31708,
      "byteLength": 624,
      "target": 34963
    }
  ],
  "buffers": [
    {
      "byteLength": 32332,
      "uri": "sorghumbasket04_bk.bin"
    }
  ]
}