{
  "asset": {
    "version": "2.0",
    "generator": "XBG to GLTF Converter with Textures"
  },
  "scene": 0,
  "scenes": [
    {
      "name": "Scene",
      "nodes": [
        11
      ]
    }
  ],
  "nodes": [
    {
      "name": "SorghumBasket03_BK",
      "children": [
        1
      ]
    },
    {
      "name": "SorghumBasket03a_STATE",
      "translation": [
        0.026115719228982925,
        0.014387520030140877,
        0.17602725327014923
      ],
      "children": [
        2,
        7,
        8,
        9
      ]
    },
    {
      "name": "SorghumBasket030a_STATE1",
      "translation": [
        -0.025089170783758163,
        0.0032920700032263994,
        0.0
      ],
      "children": [
        3,
        4,
        5,
        6
      ]
    },
    {
      "name": "Sb_Break_FX01",
      "translation": [
        0.0,
        0.0,
        -0.09055755287408829
      ]
    },
    {
      "name": "Sb_Break_FX02",
      "translation": [
        -0.23524519801139832,
        0.16100555658340454,
        -0.09055755287408829
      ],
      "rotation": [
        -0.21922367834566586,
        -0.2652189436077318,
        -0.32564067870347646,
        0.8806577310552594
      ]
    },
    {
      "name": "Sb_Break_FX03",
      "translation": [
        0.27170318365097046,
        0.09948194026947021,
        -0.09055755287408829
      ],
      "rotation": [
        0.3402294870373393,
        -0.051420009832587335,
        0.9226429013681028,
        -0.17415497500397503
      ]
    },
    {
      "name": "Sb_Break_FX04",
      "translation": [
        0.19205810129642487,
        -0.2236999124288559,
        0.00229691993445158
      ],
      "rotation": [
        -0.026501810813875634,
        0.021633284166372467,
        0.8866434551922026,
        0.4611865548826732
      ]
    },
    {
      "name": "PartA_STATE03",
      "translation": [
        -0.3105761706829071,
        -0.17889006435871124,
        0.07134166359901428
      ],
      "rotation": [
        0.05647122057136435,
        0.012656223830129848,
        -0.0693083472935961,
        0.9959152445064203
      ]
    },
    {
      "name": "PartC_STATE03",
      "translation": [
        -0.015107420273125172,
        -0.002021180000156164,
        -0.08124785870313644
      ],
      "rotation": [
        0.023661418453136313,
        0.023487663458885186,
        -0.0005560605337947902,
        0.9994439242592553
      ]
    },
    {
      "name": "PartB_STATE03",
      "translation": [
        0.2705102562904358,
        0.14592956006526947,
        0.09988407045602798
      ],
      "rotation": [
        0.0,
        0.04082856798238362,
        0.0,
        0.9991661663790004
      ]
    },
    {
      "name": "MeshNode_LOD0",
      "mesh": 0,
      "skin": 0
    },
    {
      "name": "Correction_Root",
      "rotation": [
        -0.70710678,
        0.0,
        0.0,
        0.70710678
      ],
      "children": [
        0,
        10
      ]
    }
  ],
  "meshes": [
    {
      "name": "Mesh_LOD0",
      "primitives": [
        {
          "attributes": {
            "POSITION": 1,
            "JOINTS_0": 3,
            "WEIGHTS_0": 4,
            "TEXCOORD_0": 2
          },
          "indices": 5,
          "material": 0
        },
        {
          "attributes": {
            "POSITION": 1,
            "JOINTS_0": 3,
            "WEIGHTS_0": 4,
            "TEXCOORD_0": 2
          },
          "indices": 6,
          "material": 2
        },
        {
          "attributes": {
            "POSITION": 1,
            "JOINTS_0": 3,
            "WEIGHTS_0": 4,
            "TEXCOORD_0": 2
          },
          "indices": 7,
          "material": 1
        },
        {
          "attributes": {
            "POSITION": 1,
            "JOINTS_0": 3,
            "WEIGHTS_0": 4,
            "TEXCOORD_0": 2
          },
          "indices": 8,
          "material": 1
        },
        {
          "attributes": {
            "POSITION": 1,
            "JOINTS_0": 3,
            "WEIGHTS_0": 4,
            "TEXCOORD_0": 2
          },
          "indices": 9,
          "material": 1
        }
      ]
    }
  ],
  "skins": [
    {
      "inverseBindMatrices": 0,
      "joints": [
        0,
        1,
        2,
        3,
        4,
        5,
        6,
        7,
        8,
        9
      ],
      "name": "Armature",
      "skeleton": 0
    }
  ],
  "materials": [
    {
      "name": "GRAPHICS\\_MATERIALS\\ADOLBEC-M-2008042433070773.xbm",
      "pbrMetallicRoughness": {
        "baseColorFactor": [
          1.0,
          1.0,
          1.0,
          1.0
        ],
        "metallicFactor": 0.0,
        "roughnessFactor": 1.0,
        "baseColorTexture": {
          "index": 0,
          "texCoord": 0
        }
      },
      "doubleSided": true
    },
    {
      "name": "GRAPHICS\\_MATERIALS\\HLEVASSEUR-M-2008051450477494.xbm",
      "pbrMetallicRoughness": {
        "baseColorFactor": [
          1.0,
          1.0,
          1.0,
          1.0
        ],
        "metallicFactor": 0.0,
        "roughnessFactor": 1.0,
        "baseColorTexture": {
          "index": 1,
          "texCoord": 0
        }
      },
      "doubleSided": true
    },
    {
      "name": "GRAPHICS\\_MATERIALS\\PFERNANDEZ-M-2007040367448828.xbm",
      "pbrMetallicRoughness": {
        "baseColorFactor": [
          1.0,
          1.0,
          1.0,
          1.0
        ],
        "metallicFactor": 0.0,
        "roughnessFactor": 1.0,
        "baseColorTexture": {
          "index": 2,
          "texCoord": 0
        }
      },
      "doubleSided": true
    }
  ],
  "textures": [
    {
      "sampler": 0,
      "source": 0
    },
    {
      "sampler": 0,
      "source": 1
    },
    {
      "sampler": 0,
      "source": 2
    }
  ],
  "images": [
    {
      "name": "africanpattern06_d",
      "mimeType": "image/png",
      "uri": "data:image/png;base64,"
    },
    {
      "name": "weaving_02_d",
      "mimeType": "image/png",
      "uri": "data:image/png;base64,"
    },
    {
      "name": "woodslick_01_d",
      "mimeType": "image/png",
      "uri": "data:image/png;base64,"
    }
  ],
  "samplers": [
    {
      "magFilter": 9729,
      "minFilter": 9987,
      "wrapS": 10497,
      "wrapT": 10497
    }
  ],
  "accessors": [
    {
      "bufferView": 0,
      "componentType": 5126,
      "count": 10,
      "type": "MAT4"
    },
    {
      "bufferView": 1,
      "componentType": 5126,
      "count": 695,
      "type": "VEC3",
      "min": [
        -0.41630298737436533,
        -0.4051637314260006,
        -0.1826227605342865
      ],
      "max": [
        0.41627246886491776,
        0.405133212916553,
        0.18259224202483892
      ]
    },
    {
      "bufferView": 2,
      "componentType": 5126,
      "count": 695,
      "type": "VEC2"
    },
    {
      "bufferView": 3,
      "componentType": 5123,
      "count": 695,
      "type": "VEC4"
    },
    {
      "bufferView": 4,
      "componentType": 5126,
      "count": 695,
      "type": "VEC4"
    },
    {
      "bufferView": 5,
      "componentType": 5123,
      "count": 738,
      "type": "SCALAR"
    },
    {
      "bufferView": 6,
      "componentType": 5123,
      "count": 576,
      "type": "SCALAR"
    },
    {
      "bufferView": 7,
      "componentType": 5123,
      "count": 312,
      "type": "SCALAR"
    },
    {
      "bufferView": 8,
      "componentType": 5123,
      "count": 216,
      "type": "SCALAR"
    },
    {
      "bufferView": 9,
      "componentType": 5123,
      "count": 450,
      "type": "SCALAR"
    }
  ],
  "bufferViews": [
    {
      "buffer": 0,
      "byteOffset": 0,
      "byteLength": 640
    },
    {
      "buffer": 0,
      "byteOffset": 640,
      "byteLength": 8340,
      "target": 34962
    },
    {
      "buffer": 0,
      "byteOffset": 8980,
      "byteLength": 5560,
      "target": 34962
    },
    {
      "buffer": 0,
      "byteOffset": 14540,
      "byteLength": 5560,
      "target": 34962
    },
    {
      "buffer": 0,
      "byteOffset": 20100,
      "byteLength": 11120,
      "target": 34962
    },
    {
      "buffer": 0,
      "byteOffset": 31220,
      "byteLength": 1476,
      "target": 34963
    },
    {
      "buffer": 0,
      "byteOffset": 32696,
      "byteLength": 1152,
      "target": 34963
    },
    {
      "buffer": 0,
      "byteOffset": 33848,
      "byteLength": 624,
      "target": 34963
    },
    {
      "buffer": 0,
      "byteOffset": 34472,
      "byteLength": 432,
      "target": 34963
    },
    {
      "buffer": 0,
      "byteOffset": 34904,
      "byteLength": 900,
      "target": 34963
    }
  ],
  "buffers": [
    {
      "byteLength": 35804,
      "uri": "sorghumbasket03_bk.bin"
    }
  ]
}