{
  "asset": {
    "version": "2.0",
    "generator": "XBG to GLTF Converter with Textures"
  },
  "scene": 0,
  "scenes": [
    {
      "name": "Scene",
      "nodes": [
        13
      ]
    }
  ],
  "nodes": [
    {
      "name": "SorghumBasket02_BK",
      "children": [
        1
      ]
    },
    {
      "name": "SorghumBasket02a_STATE",
      "translation": [
        -0.0009799200342968106,
        0.01579519920051098,
        0.17602723836898804
      ],
      "children": [
        2,
        5,
        9,
        10,
        11
      ]
    },
    {
      "name": "Sb_STATE1",
      "children": [
        3,
        4
      ]
    },
    {
      "name": "GrainKill_FX02",
      "translation": [
        -0.15836188197135925,
        0.12308883666992188,
        -0.039775021374225616
      ],
      "rotation": [
        0.0,
        0.0,
        -0.3107357071244689,
        0.9504963547104515
      ]
    },
    {
      "name": "GrainKill_FX01",
      "translation": [
        0.11857540160417557,
        -0.18695124983787537,
        -0.039775021374225616
      ],
      "rotation": [
        0.0,
        0.0,
        -0.3107357071244689,
        0.9504963547104515
      ]
    },
    {
      "name": "Sb_STATE2",
      "translation": [
        -0.012051999568939209,
        0.004622189793735743,
        -0.012388530187308788
      ],
      "children": [
        6,
        7,
        8
      ]
    },
    {
      "name": "BasketBreak_FX01",
      "translation": [
        -0.17462873458862305,
        0.25812292098999023,
        0.08048391342163086
      ],
      "rotation": [
        -0.14461681073169383,
        -0.2338517580408415,
        -0.23142283892528048,
        0.9331895855845009
      ]
    },
    {
      "name": "BasketBreak_FX02",
      "translation": [
        0.0771448090672493,
        -0.3464255928993225,
        0.08048391342163086
      ],
      "rotation": [
        0.13604434724533515,
        -0.23894057993914347,
        0.708417473180665,
        0.6500338551333942
      ]
    },
    {
      "name": "BasketBreakMain_FX03",
      "translation": [
        0.06682488322257996,
        -0.001997540006414056,
        -0.09007555991411209
      ],
      "rotation": [
        0.06839413031696286,
        -0.10456521733068187,
        0.7527152925959241,
        0.6463807258849495
      ]
    },
    {
      "name": "PartB_STATE04",
      "translation": [
        0.27279019355773926,
        0.13680881261825562,
        0.08365046977996826
      ],
      "rotation": [
        0.0,
        0.04082856798238362,
        0.0,
        0.9991661663790004
      ]
    },
    {
      "name": "PartC_STATE04",
      "translation": [
        -0.012827480211853981,
        -0.011142229661345482,
        -0.04755648970603943
      ],
      "rotation": [
        0.023661418453136313,
        0.023487663458885186,
        -0.0005560605337947902,
        0.9994439242592553
      ]
    },
    {
      "name": "PartA_STATE04",
      "translation": [
        -0.30829620361328125,
        -0.18801112473011017,
        0.055108070373535156
      ],
      "rotation": [
        0.056471220600344575,
        0.012656223836656936,
        -0.06930835477962169,
        0.9959152439837395
      ]
    },
    {
      "name": "MeshNode_LOD0",
      "mesh": 0,
      "skin": 0
    },
    {
      "name": "Correction_Root",
      "rotation": [
        -0.70710678,
        0.0,
        0.0,
        0.70710678
      ],
      "children": [
        0,
        12
      ]
    }
  ],
  "meshes": [
    {
      "name": "Mesh_LOD0",
      "primitives": [
        {
          "attributes": {
            "POSITION": 1,
            "JOINTS_0": 3,
            "WEIGHTS_0": 4,
            "TEXCOORD_0": 2
          },
          "indices": 5,
          "material": 0
        },
        {
          "attributes": {
            "POSITION": 1,
            "JOINTS_0": 3,
            "WEIGHTS_0": 4,
            "TEXCOORD_0": 2
          },
          "indices": 6,
          "material": 1
        },
        {
          "attributes": {
            "POSITION": 1,
            "JOINTS_0": 3,
            "WEIGHTS_0": 4,
            "TEXCOORD_0": 2
          },
          "indices": 7,
          "material": 3
        },
        {
          "attributes": {
            "POSITION": 1,
            "JOINTS_0": 3,
            "WEIGHTS_0": 4,
            "TEXCOORD_0": 2
          },
          "indices": 8,
          "material": 1
        },
        {
          "attributes": {
            "POSITION": 1,
            "JOINTS_0": 3,
            "WEIGHTS_0": 4,
            "TEXCOORD_0": 2
          },
          "indices": 9,
          "material": 3
        },
        {
          "attributes": {
            "POSITION": 1,
            "JOINTS_0": 3,
            "WEIGHTS_0": 4,
            "TEXCOORD_0": 2
          },
          "indices": 10,
          "material": 2
        },
        {
          "attributes": {
            "POSITION": 1,
            "JOINTS_0": 3,
            "WEIGHTS_0": 4,
            "TEXCOORD_0": 2
          },
          "indices": 11,
          "material": 2
        },
        {
          "attributes": {
            "POSITION": 1,
            "JOINTS_0": 3,
            "WEIGHTS_0": 4,
            "TEXCOORD_0": 2
          },
          "indices": 12,
          "material": 2
        }
      ]
    }
  ],
  "skins": [
    {
      "inverseBindMatrices": 0,
      "joints": [
        0,
        1,
        2,
        3,
        4,
        5,
        6,
        7,
        8,
        9,
        10,
        11
      ],
      "name": "Armature",
      "skeleton": 0
    }
  ],
  "materials": [
    {
      "name": "GRAPHICS\\_MATERIALS\\JCGHIBAUDO-M-1406200739330919.xbm",
      "pbrMetallicRoughness": {
        "baseColorFactor": [
          1.0,
          1.0,
          1.0,
          1.0
        ],
        "metallicFactor": 0.0,
        "roughnessFactor": 1.0,
        "baseColorTexture": {
          "index": 0,
          "texCoord": 0
        }
      },
      "doubleSided": true
    },
    {
      "name": "GRAPHICS\\_MATERIALS\\ADOLBEC-M-2008041132290996.xbm",
      "pbrMetallicRoughness": {
        "baseColorFactor": [
          1.0,
          1.0,
          1.0,
          1.0
        ],
        "metallicFactor": 0.0,
        "roughnessFactor": 1.0,
        "baseColorTexture": {
          "index": 1,
          "texCoord": 0
        }
      },
      "doubleSided": true
    },
    {
      "name": "GRAPHICS\\_MATERIALS\\HLEVASSEUR-M-2008051450477494.xbm",
      "pbrMetallicRoughness": {
        "baseColorFactor": [
          1.0,
          1.0,
          1.0,
          1.0
        ],
        "metallicFactor": 0.0,
        "roughnessFactor": 1.0,
        "baseColorTexture": {
          "index": 2,
          "texCoord": 0
        }
      },
      "doubleSided": true
    },
    {
      "name": "GRAPHICS\\_MATERIALS\\PFERNANDEZ-M-2007040367448828.xbm",
      "pbrMetallicRoughness": {
        "baseColorFactor": [
          1.0,
          1.0,
          1.0,
          1.0
        ],
        "metallicFactor": 0.0,
        "roughnessFactor": 1.0,
        "baseColorTexture": {
          "index": 3,
          "texCoord": 0
        }
      },
      "doubleSided": true
    }
  ],
  "textures": [
    {
      "sampler": 0,
      "source": 0
    },
    {
      "sampler": 0,
      "source": 1
    },
    {
      "sampler": 0,
      "source": 2
    },
    {
      "sampler": 0,
      "source": 3
    }
  ],
  "images": [
    {
      "name": "sorghum_01_d",
      "mimeType": "image/png",
      "uri": "data:image/png;base64,"
    },
    {
      "name": "africanpattern03_d",
      "mimeType": "image/png",
      "uri": "data:image/png;base64,"
    },
    {
      "name": "weaving_02_d",
      "mimeType": "image/png",
      "uri": "data:image/png;base64,"
    },
    {
      "name": "woodslick_01_d",
      "mimeType": "image/png",
      "uri": "data:image/png;base64,"
    }
  ],
  "samplers": [
    {
      "magFilter": 9729,
      "minFilter": 9987,
      "wrapS": 10497,
      "wrapT": 10497
    }
  ],
  "accessors": [
    {
      "bufferView": 0,
      "componentType": 5126,
      "count": 12,
      "type": "MAT4"
    },
    {
      "bufferView": 1,
      "componentType": 5126,
      "count": 1011,
      "type": "VEC3",
      "min": [
        -0.41630298737436533,
        -0.40977202635258436,
        -0.1826227605342865
      ],
      "max": [
        0.42832728009670973,
        0.405133212916553,
        0.19498275686055422
      ]
    },
    {
      "bufferView": 2,
      "componentType": 5126,
      "count": 1011,
      "type": "VEC2"
    },
    {
      "bufferView": 3,
      "componentType": 5123,
      "count": 1011,
      "type": "VEC4"
    },
    {
      "bufferView": 4,
      "componentType": 5126,
      "count": 1011,
      "type": "VEC4"
    },
    {
      "bufferView": 5,
      "componentType": 5123,
      "count": 114,
      "type": "SCALAR"
    },
    {
      "bufferView": 6,
      "componentType": 5123,
      "count": 666,
      "type": "SCALAR"
    },
    {
      "bufferView": 7,
      "componentType": 5123,
      "count": 576,
      "type": "SCALAR"
    },
    {
      "bufferView": 8,
      "componentType": 5123,
      "count": 666,
      "type": "SCALAR"
    },
    {
      "bufferView": 9,
      "componentType": 5123,
      "count": 576,
      "type": "SCALAR"
    },
    {
      "bufferView": 10,
      "componentType": 5123,
      "count": 450,
      "type": "SCALAR"
    },
    {
      "bufferView": 11,
      "componentType": 5123,
      "count": 216,
      "type": "SCALAR"
    },
    {
      "bufferView": 12,
      "componentType": 5123,
      "count": 312,
      "type": "SCALAR"
    }
  ],
  "bufferViews": [
    {
      "buffer": 0,
      "byteOffset": 0,
      "byteLength": 768
    },
    {
      "buffer": 0,
      "byteOffset": 768,
      "byteLength": 12132,
      "target": 34962
    },
    {
      "buffer": 0,
      "byteOffset": 12900,
      "byteLength": 8088,
      "target": 34962
    },
    {
      "buffer": 0,
      "byteOffset": 20988,
      "byteLength": 8088,
      "target": 34962
    },
    {
      "buffer": 0,
      "byteOffset": 29076,
      "byteLength": 16176,
      "target": 34962
    },
    {
      "buffer": 0,
      "byteOffset": 45252,
      "byteLength": 228,
      "target": 34963
    },
    {
      "buffer": 0,
      "byteOffset": 45480,
      "byteLength": 1332,
      "target": 34963
    },
    {
      "buffer": 0,
      "byteOffset": 46812,
      "byteLength": 1152,
      "target": 34963
    },
    {
      "buffer": 0,
      "byteOffset": 47964,
      "byteLength": 1332,
      "target": 34963
    },
    {
      "buffer": 0,
      "byteOffset": 49296,
      "byteLength": 1152,
      "target": 34963
    },
    {
      "buffer": 0,
      "byteOffset": 50448,
      "byteLength": 900,
      "target": 34963
    },
    {
      "buffer": 0,
      "byteOffset": 51348,
      "byteLength": 432,
      "target": 34963
    },
    {
      "buffer": 0,
      "byteOffset": 51780,
      "byteLength": 624,
      "target": 34963
    }
  ],
  "buffers": [
    {
      "byteLength": 52404,
      "uri": "sorghumbasket02_bk.bin"
    }
  ]
}