{
  "asset": {
    "version": "2.0",
    "generator": "XBG to GLTF Converter with Textures"
  },
  "scene": 0,
  "scenes": [
    {
      "name": "Scene",
      "nodes": [
        6
      ]
    }
  ],
  "nodes": [
    {
      "name": "FLAME_THROWER_05",
      "children": [
        1,
        2,
        3,
        4
      ]
    },
    {
      "name": "FX_FIRE",
      "translation": [
        0.6000441908836365,
        0.020533230155706406,
        0.1687956601381302
      ],
      "rotation": [
        -1.7366458868254468e-07,
        1.6671801356771324e-07,
        -0.6946583988867545,
        0.7193397728862436
      ]
    },
    {
      "name": "FRAME",
      "translation": [
        -0.22459684312343597,
        0.004231229890137911,
        -0.02694839984178543
      ]
    },
    {
      "name": "FX_CASING",
      "translation": [
        0.05321567878127098,
        -0.083445243537426,
        0.22266671061515808
      ],
      "rotation": [
        -4.999999977062047e-08,
        0.30070587753597616,
        0.9537169261449177,
        7.54978995945654e-08
      ]
    },
    {
      "name": "CLIP",
      "translation": [
        0.11233244836330414,
        -0.12512685358524323,
        0.07235612720251083
      ]
    },
    {
      "name": "MeshNode_LOD0",
      "mesh": 0,
      "skin": 0
    },
    {
      "name": "Correction_Root",
      "rotation": [
        -0.70710678,
        0.0,
        0.0,
        0.70710678
      ],
      "children": [
        0,
        5
      ]
    }
  ],
  "meshes": [
    {
      "name": "Mesh_LOD0",
      "primitives": [
        {
          "attributes": {
            "POSITION": 1,
            "JOINTS_0": 3,
            "WEIGHTS_0": 4,
            "TEXCOORD_0": 2
          },
          "indices": 5,
          "material": 0
        },
        {
          "attributes": {
            "POSITION": 1,
            "JOINTS_0": 3,
            "WEIGHTS_0": 4,
            "TEXCOORD_0": 2
          },
          "indices": 6,
          "material": 1
        },
        {
          "attributes": {
            "POSITION": 1,
            "JOINTS_0": 3,
            "WEIGHTS_0": 4,
            "TEXCOORD_0": 2
          },
          "indices": 7,
          "material": 1
        }
      ]
    }
  ],
  "skins": [
    {
      "inverseBindMatrices": 0,
      "joints": [
        0,
        1,
        2,
        3,
        4
      ],
      "name": "Armature",
      "skeleton": 0
    }
  ],
  "materials": [
    {
      "name": "GRAPHICS\\_MATERIALS\\SDORE-M-2009062564123500.xbm",
      "pbrMetallicRoughness": {
        "baseColorFactor": [
          1.0,
          1.0,
          1.0,
          1.0
        ],
        "metallicFactor": 0.0,
        "roughnessFactor": 1.0,
        "baseColorTexture": {
          "index": 0,
          "texCoord": 0
        }
      },
      "doubleSided": true
    },
    {
      "name": "GRAPHICS\\_MATERIALS\\SDORE-M-2009062563683449.xbm",
      "pbrMetallicRoughness": {
        "baseColorFactor": [
          1.0,
          1.0,
          1.0,
          1.0
        ],
        "metallicFactor": 0.0,
        "roughnessFactor": 1.0,
        "baseColorTexture": {
          "index": 1,
          "texCoord": 0
        }
      },
      "doubleSided": true
    }
  ],
  "textures": [
    {
      "sampler": 0,
      "source": 0
    },
    {
      "sampler": 0,
      "source": 1
    }
  ],
  "images": [
    {
      "name": "flamer_05_gaz_d",
      "mimeType": "image/png",
      "uri": "data:image/png;base64,"
    },
    {
      "name": "flamer_05_d",
      "mimeType": "image/png",
      "uri": "data:image/png;base64,"
    }
  ],
  "samplers": [
    {
      "magFilter": 9729,
      "minFilter": 9987,
      "wrapS": 10497,
      "wrapT": 10497
    }
  ],
  "accessors": [
    {
      "bufferView": 0,
      "componentType": 5126,
      "count": 5,
      "type": "MAT4"
    },
    {
      "bufferView": 1,
      "componentType": 5126,
      "count": 760,
      "type": "VEC3",
      "min": [
        -0.045533616095781326,
        -0.10281685832887888,
        -0.1727652819827199
      ],
      "max": [
        0.8331858264282346,
        0.12585833296179771,
        0.23761711455881596
      ]
    },
    {
      "bufferView": 2,
      "componentType": 5126,
      "count": 760,
      "type": "VEC2"
    },
    {
      "bufferView": 3,
      "componentType": 5123,
      "count": 760,
      "type": "VEC4"
    },
    {
      "bufferView": 4,
      "componentType": 5126,
      "count": 760,
      "type": "VEC4"
    },
    {
      "bufferView": 5,
      "componentType": 5123,
      "count": 564,
      "type": "SCALAR"
    },
    {
      "bufferView": 6,
      "componentType": 5123,
      "count": 1653,
      "type": "SCALAR"
    },
    {
      "bufferView": 7,
      "componentType": 5123,
      "count": 3,
      "type": "SCALAR"
    }
  ],
  "bufferViews": [
    {
      "buffer": 0,
      "byteOffset": 0,
      "byteLength": 320
    },
    {
      "buffer": 0,
      "byteOffset": 320,
      "byteLength": 9120,
      "target": 34962
    },
    {
      "buffer": 0,
      "byteOffset": 9440,
      "byteLength": 6080,
      "target": 34962
    },
    {
      "buffer": 0,
      "byteOffset": 15520,
      "byteLength": 6080,
      "target": 34962
    },
    {
      "buffer": 0,
      "byteOffset": 21600,
      "byteLength": 12160,
      "target": 34962
    },
    {
      "buffer": 0,
      "byteOffset": 33760,
      "byteLength": 1128,
      "target": 34963
    },
    {
      "buffer": 0,
      "byteOffset": 34888,
      "byteLength": 3306,
      "target": 34963
    },
    {
      "buffer": 0,
      "byteOffset": 38194,
      "byteLength": 6,
      "target": 34963
    }
  ],
  "buffers": [
    {
      "byteLength": 38200,
      "uri": "flame_thrower_05.bin"
    }
  ]
}