{
  "asset": {
    "version": "2.0",
    "generator": "XBG to GLTF Converter with Textures"
  },
  "scene": 0,
  "scenes": [
    {
      "name": "Scene",
      "nodes": [
        6
      ]
    }
  ],
  "nodes": [
    {
      "name": "FLAME_THROWER_03",
      "children": [
        1,
        2,
        3,
        4
      ]
    },
    {
      "name": "FX_FIRE",
      "translation": [
        0.7097938656806946,
        -0.00013949000276625156,
        0.1177358403801918
      ],
      "rotation": [
        -1.697056291050108e-07,
        1.6970560899112813e-07,
        -0.7071067690849289,
        0.7071067932881252
      ]
    },
    {
      "name": "FRAME",
      "translation": [
        -0.22459684312343597,
        0.004231229890137911,
        -0.02694839984178543
      ]
    },
    {
      "name": "FX_CASING",
      "translation": [
        0.05321567878127098,
        -0.083445243537426,
        0.19068551063537598
      ],
      "rotation": [
        -4.999999977062047e-08,
        0.30070587753597616,
        0.9537169261449177,
        7.54978995945654e-08
      ]
    },
    {
      "name": "CLIP",
      "translation": [
        0.11233244836330414,
        -0.12512685358524323,
        0.07235612720251083
      ]
    },
    {
      "name": "MeshNode_LOD0",
      "mesh": 0,
      "skin": 0
    },
    {
      "name": "Correction_Root",
      "rotation": [
        -0.70710678,
        0.0,
        0.0,
        0.70710678
      ],
      "children": [
        0,
        5
      ]
    }
  ],
  "meshes": [
    {
      "name": "Mesh_LOD0",
      "primitives": [
        {
          "attributes": {
            "POSITION": 1,
            "JOINTS_0": 3,
            "WEIGHTS_0": 4,
            "TEXCOORD_0": 2
          },
          "indices": 5,
          "material": 0
        },
        {
          "attributes": {
            "POSITION": 1,
            "JOINTS_0": 3,
            "WEIGHTS_0": 4,
            "TEXCOORD_0": 2
          },
          "indices": 6,
          "material": 0
        }
      ]
    }
  ],
  "skins": [
    {
      "inverseBindMatrices": 0,
      "joints": [
        0,
        1,
        2,
        3,
        4
      ],
      "name": "Armature",
      "skeleton": 0
    }
  ],
  "materials": [
    {
      "name": "GRAPHICS\\_MATERIALS\\GRASSAM-M-2009032034467530.xbm",
      "pbrMetallicRoughness": {
        "baseColorFactor": [
          1.0,
          1.0,
          1.0,
          1.0
        ],
        "metallicFactor": 0.0,
        "roughnessFactor": 1.0,
        "baseColorTexture": {
          "index": 0,
          "texCoord": 0
        }
      },
      "doubleSided": true
    }
  ],
  "textures": [
    {
      "sampler": 0,
      "source": 0
    }
  ],
  "images": [
    {
      "name": "flamethrower_3rd_03_d",
      "mimeType": "image/png",
      "uri": "data:image/png;base64,"
    }
  ],
  "samplers": [
    {
      "magFilter": 9729,
      "minFilter": 9987,
      "wrapS": 10497,
      "wrapT": 10497
    }
  ],
  "accessors": [
    {
      "bufferView": 0,
      "componentType": 5126,
      "count": 5,
      "type": "MAT4"
    },
    {
      "bufferView": 1,
      "componentType": 5126,
      "count": 770,
      "type": "VEC3",
      "min": [
        -0.04034546948969364,
        -0.06137272249907255,
        -0.06292916648089886
      ],
      "max": [
        0.9262672802433372,
        0.12585833296179771,
        0.28067873138934374
      ]
    },
    {
      "bufferView": 2,
      "componentType": 5126,
      "count": 770,
      "type": "VEC2"
    },
    {
      "bufferView": 3,
      "componentType": 5123,
      "count": 770,
      "type": "VEC4"
    },
    {
      "bufferView": 4,
      "componentType": 5126,
      "count": 770,
      "type": "VEC4"
    },
    {
      "bufferView": 5,
      "componentType": 5123,
      "count": 1854,
      "type": "SCALAR"
    },
    {
      "bufferView": 6,
      "componentType": 5123,
      "count": 3,
      "type": "SCALAR"
    }
  ],
  "bufferViews": [
    {
      "buffer": 0,
      "byteOffset": 0,
      "byteLength": 320
    },
    {
      "buffer": 0,
      "byteOffset": 320,
      "byteLength": 9240,
      "target": 34962
    },
    {
      "buffer": 0,
      "byteOffset": 9560,
      "byteLength": 6160,
      "target": 34962
    },
    {
      "buffer": 0,
      "byteOffset": 15720,
      "byteLength": 6160,
      "target": 34962
    },
    {
      "buffer": 0,
      "byteOffset": 21880,
      "byteLength": 12320,
      "target": 34962
    },
    {
      "buffer": 0,
      "byteOffset": 34200,
      "byteLength": 3708,
      "target": 34963
    },
    {
      "buffer": 0,
      "byteOffset": 37908,
      "byteLength": 6,
      "target": 34963
    }
  ],
  "buffers": [
    {
      "byteLength": 37914,
      "uri": "flame_thrower_03.bin"
    }
  ]
}