{
  "asset": {
    "version": "2.0",
    "generator": "XBG to GLTF Converter with Textures"
  },
  "scene": 0,
  "scenes": [
    {
      "name": "Scene",
      "nodes": [
        5
      ]
    }
  ],
  "nodes": [
    {
      "name": "BoxWeapons_Explosive",
      "children": [
        1,
        2,
        3
      ]
    },
    {
      "name": "WeaponPlacement15",
      "translation": [
        0.0,
        0.0,
        0.6845880150794983
      ],
      "rotation": [
        0.70710676908493,
        0.0,
        0.0,
        0.7071067932881648
      ]
    },
    {
      "name": "pos_MOLOTOV",
      "translation": [
        -0.16304980218410492,
        0.15814252197742462,
        0.6385133266448975
      ],
      "rotation": [
        0.70710676908493,
        0.0,
        0.0,
        0.7071067932881648
      ]
    },
    {
      "name": "pos_M67",
      "translation": [
        0.04805944114923477,
        -0.036521658301353455,
        0.6385133266448975
      ],
      "rotation": [
        0.70710676908493,
        0.0,
        0.0,
        0.7071067932881648
      ]
    },
    {
      "name": "MeshNode_LOD0",
      "mesh": 0,
      "skin": 0
    },
    {
      "name": "Correction_Root",
      "rotation": [
        -0.70710678,
        0.0,
        0.0,
        0.70710678
      ],
      "children": [
        0,
        4
      ]
    }
  ],
  "meshes": [
    {
      "name": "Mesh_LOD0",
      "primitives": [
        {
          "attributes": {
            "POSITION": 1,
            "JOINTS_0": 3,
            "WEIGHTS_0": 4,
            "TEXCOORD_0": 2
          },
          "indices": 5,
          "material": 0
        },
        {
          "attributes": {
            "POSITION": 1,
            "JOINTS_0": 3,
            "WEIGHTS_0": 4,
            "TEXCOORD_0": 2
          },
          "indices": 6,
          "material": 1
        }
      ]
    }
  ],
  "skins": [
    {
      "inverseBindMatrices": 0,
      "joints": [
        0,
        1,
        2,
        3
      ],
      "name": "Armature",
      "skeleton": 0
    }
  ],
  "materials": [
    {
      "name": "GRAPHICS\\_MATERIALS\\MADESLONGCHAMPS-M-1307200729660929.xbm",
      "pbrMetallicRoughness": {
        "baseColorFactor": [
          1.0,
          1.0,
          1.0,
          1.0
        ],
        "metallicFactor": 0.0,
        "roughnessFactor": 1.0,
        "baseColorTexture": {
          "index": 0,
          "texCoord": 0
        }
      },
      "doubleSided": true
    },
    {
      "name": "GRAPHICS\\_MATERIALS\\SDORE2-M-2008020152962657.xbm",
      "pbrMetallicRoughness": {
        "baseColorFactor": [
          1.0,
          1.0,
          1.0,
          1.0
        ],
        "metallicFactor": 0.0,
        "roughnessFactor": 1.0,
        "baseColorTexture": {
          "index": 1,
          "texCoord": 0
        }
      },
      "doubleSided": true
    }
  ],
  "textures": [
    {
      "sampler": 0,
      "source": 0
    },
    {
      "sampler": 0,
      "source": 1
    }
  ],
  "images": [
    {
      "name": "strawroof3alpha_d",
      "mimeType": "image/png",
      "uri": "data:image/png;base64,"
    },
    {
      "name": "woodplank_01_d",
      "mimeType": "image/png",
      "uri": "data:image/png;base64,"
    }
  ],
  "samplers": [
    {
      "magFilter": 9729,
      "minFilter": 9987,
      "wrapS": 10497,
      "wrapT": 10497
    }
  ],
  "accessors": [
    {
      "bufferView": 0,
      "componentType": 5126,
      "count": 4,
      "type": "MAT4"
    },
    {
      "bufferView": 1,
      "componentType": 5126,
      "count": 313,
      "type": "VEC3",
      "min": [
        -0.8023926503956318,
        -0.4033631393685937,
        0.045991393737494946
      ],
      "max": [
        0.7913449499756098,
        0.4233222445473075,
        0.8837549965828657
      ]
    },
    {
      "bufferView": 2,
      "componentType": 5126,
      "count": 313,
      "type": "VEC2"
    },
    {
      "bufferView": 3,
      "componentType": 5123,
      "count": 313,
      "type": "VEC4"
    },
    {
      "bufferView": 4,
      "componentType": 5126,
      "count": 313,
      "type": "VEC4"
    },
    {
      "bufferView": 5,
      "componentType": 5123,
      "count": 72,
      "type": "SCALAR"
    },
    {
      "bufferView": 6,
      "componentType": 5123,
      "count": 486,
      "type": "SCALAR"
    }
  ],
  "bufferViews": [
    {
      "buffer": 0,
      "byteOffset": 0,
      "byteLength": 256
    },
    {
      "buffer": 0,
      "byteOffset": 256,
      "byteLength": 3756,
      "target": 34962
    },
    {
      "buffer": 0,
      "byteOffset": 4012,
      "byteLength": 2504,
      "target": 34962
    },
    {
      "buffer": 0,
      "byteOffset": 6516,
      "byteLength": 2504,
      "target": 34962
    },
    {
      "buffer": 0,
      "byteOffset": 9020,
      "byteLength": 5008,
      "target": 34962
    },
    {
      "buffer": 0,
      "byteOffset": 14028,
      "byteLength": 144,
      "target": 34963
    },
    {
      "buffer": 0,
      "byteOffset": 14172,
      "byteLength": 972,
      "target": 34963
    }
  ],
  "buffers": [
    {
      "byteLength": 15144,
      "uri": "boxweapons_explosive.bin"
    }
  ]
}