{
  "asset": {
    "version": "2.0",
    "generator": "XBG to GLTF Converter with Textures"
  },
  "scene": 0,
  "scenes": [
    {
      "name": "Scene",
      "nodes": [
        13
      ]
    }
  ],
  "nodes": [
    {
      "name": "ty_Structure_01_Breakable",
      "children": [
        1
      ]
    },
    {
      "name": "ucture_01_Breakable_STATE",
      "children": [
        2,
        4,
        6,
        8,
        10
      ]
    },
    {
      "name": "cture_01_Breakable_STATE1",
      "children": [
        3
      ]
    },
    {
      "name": "SwitchFX1"
    },
    {
      "name": "cture_01_Breakable_STATE2",
      "children": [
        5
      ]
    },
    {
      "name": "SwitchFX2"
    },
    {
      "name": "cture_01_Breakable_STATE3",
      "children": [
        7
      ]
    },
    {
      "name": "SwitchFX3"
    },
    {
      "name": "cture_01_Breakable_STATE4",
      "children": [
        9
      ]
    },
    {
      "name": "SwitchFX4"
    },
    {
      "name": "cture_01_Breakable_STATE5",
      "children": [
        11
      ]
    },
    {
      "name": "SwitchFX5"
    },
    {
      "name": "MeshNode_LOD0",
      "mesh": 0,
      "skin": 0
    },
    {
      "name": "Correction_Root",
      "rotation": [
        -0.70710678,
        0.0,
        0.0,
        0.70710678
      ],
      "children": [
        0,
        12
      ]
    }
  ],
  "meshes": [
    {
      "name": "Mesh_LOD0",
      "primitives": [
        {
          "attributes": {
            "POSITION": 1,
            "JOINTS_0": 3,
            "WEIGHTS_0": 4,
            "TEXCOORD_0": 2
          },
          "indices": 5,
          "material": 0
        },
        {
          "attributes": {
            "POSITION": 1,
            "JOINTS_0": 3,
            "WEIGHTS_0": 4,
            "TEXCOORD_0": 2
          },
          "indices": 6,
          "material": 1
        },
        {
          "attributes": {
            "POSITION": 1,
            "JOINTS_0": 3,
            "WEIGHTS_0": 4,
            "TEXCOORD_0": 2
          },
          "indices": 7,
          "material": 0
        },
        {
          "attributes": {
            "POSITION": 1,
            "JOINTS_0": 3,
            "WEIGHTS_0": 4,
            "TEXCOORD_0": 2
          },
          "indices": 8,
          "material": 1
        },
        {
          "attributes": {
            "POSITION": 1,
            "JOINTS_0": 3,
            "WEIGHTS_0": 4,
            "TEXCOORD_0": 2
          },
          "indices": 9,
          "material": 0
        },
        {
          "attributes": {
            "POSITION": 1,
            "JOINTS_0": 3,
            "WEIGHTS_0": 4,
            "TEXCOORD_0": 2
          },
          "indices": 10,
          "material": 1
        },
        {
          "attributes": {
            "POSITION": 1,
            "JOINTS_0": 3,
            "WEIGHTS_0": 4,
            "TEXCOORD_0": 2
          },
          "indices": 11,
          "material": 0
        },
        {
          "attributes": {
            "POSITION": 1,
            "JOINTS_0": 3,
            "WEIGHTS_0": 4,
            "TEXCOORD_0": 2
          },
          "indices": 12,
          "material": 1
        },
        {
          "attributes": {
            "POSITION": 1,
            "JOINTS_0": 3,
            "WEIGHTS_0": 4,
            "TEXCOORD_0": 2
          },
          "indices": 13,
          "material": 0
        },
        {
          "attributes": {
            "POSITION": 1,
            "JOINTS_0": 3,
            "WEIGHTS_0": 4,
            "TEXCOORD_0": 2
          },
          "indices": 14,
          "material": 1
        }
      ]
    }
  ],
  "skins": [
    {
      "inverseBindMatrices": 0,
      "joints": [
        0,
        1,
        2,
        3,
        4,
        5,
        6,
        7,
        8,
        9,
        10,
        11
      ],
      "name": "Armature",
      "skeleton": 0
    }
  ],
  "materials": [
    {
      "name": "GRAPHICS\\_MATERIALS\\SSEAUT-M-2009031047379667.xbm",
      "pbrMetallicRoughness": {
        "baseColorFactor": [
          1.0,
          1.0,
          1.0,
          1.0
        ],
        "metallicFactor": 0.0,
        "roughnessFactor": 1.0,
        "baseColorTexture": {
          "index": 0,
          "texCoord": 0
        }
      },
      "doubleSided": true
    },
    {
      "name": "GRAPHICS\\_MATERIALS\\SSEAUT-M-2009031151774078.xbm",
      "pbrMetallicRoughness": {
        "baseColorFactor": [
          1.0,
          1.0,
          1.0,
          1.0
        ],
        "metallicFactor": 0.0,
        "roughnessFactor": 1.0,
        "baseColorTexture": {
          "index": 1,
          "texCoord": 0
        }
      },
      "doubleSided": true
    }
  ],
  "textures": [
    {
      "sampler": 0,
      "source": 0
    },
    {
      "sampler": 0,
      "source": 1
    }
  ],
  "images": [
    {
      "name": "ht_deity_structure_01_d",
      "mimeType": "image/png",
      "uri": "data:image/png;base64,"
    },
    {
      "name": "ht_deity_structure_fabric_01_d",
      "mimeType": "image/png",
      "uri": "data:image/png;base64,"
    }
  ],
  "samplers": [
    {
      "magFilter": 9729,
      "minFilter": 9987,
      "wrapS": 10497,
      "wrapT": 10497
    }
  ],
  "accessors": [
    {
      "bufferView": 0,
      "componentType": 5126,
      "count": 12,
      "type": "MAT4"
    },
    {
      "bufferView": 1,
      "componentType": 5126,
      "count": 10081,
      "type": "VEC3",
      "min": [
        -3.3347575273364782,
        -2.015137178823352,
        -0.29389324598014355
      ],
      "max": [
        3.3323160465806723,
        1.3794366270303726,
        9.333475744351745
      ]
    },
    {
      "bufferView": 2,
      "componentType": 5126,
      "count": 10081,
      "type": "VEC2"
    },
    {
      "bufferView": 3,
      "componentType": 5123,
      "count": 10081,
      "type": "VEC4"
    },
    {
      "bufferView": 4,
      "componentType": 5126,
      "count": 10081,
      "type": "VEC4"
    },
    {
      "bufferView": 5,
      "componentType": 5123,
      "count": 1788,
      "type": "SCALAR"
    },
    {
      "bufferView": 6,
      "componentType": 5123,
      "count": 7944,
      "type": "SCALAR"
    },
    {
      "bufferView": 7,
      "componentType": 5123,
      "count": 2166,
      "type": "SCALAR"
    },
    {
      "bufferView": 8,
      "componentType": 5123,
      "count": 8190,
      "type": "SCALAR"
    },
    {
      "bufferView": 9,
      "componentType": 5123,
      "count": 1254,
      "type": "SCALAR"
    },
    {
      "bufferView": 10,
      "componentType": 5123,
      "count": 6768,
      "type": "SCALAR"
    },
    {
      "bufferView": 11,
      "componentType": 5123,
      "count": 324,
      "type": "SCALAR"
    },
    {
      "bufferView": 12,
      "componentType": 5123,
      "count": 4749,
      "type": "SCALAR"
    },
    {
      "bufferView": 13,
      "componentType": 5123,
      "count": 240,
      "type": "SCALAR"
    },
    {
      "bufferView": 14,
      "componentType": 5123,
      "count": 3063,
      "type": "SCALAR"
    }
  ],
  "bufferViews": [
    {
      "buffer": 0,
      "byteOffset": 0,
      "byteLength": 768
    },
    {
      "buffer": 0,
      "byteOffset": 768,
      "byteLength": 120972,
      "target": 34962
    },
    {
      "buffer": 0,
      "byteOffset": 121740,
      "byteLength": 80648,
      "target": 34962
    },
    {
      "buffer": 0,
      "byteOffset": 202388,
      "byteLength": 80648,
      "target": 34962
    },
    {
      "buffer": 0,
      "byteOffset": 283036,
      "byteLength": 161296,
      "target": 34962
    },
    {
      "buffer": 0,
      "byteOffset": 444332,
      "byteLength": 3576,
      "target": 34963
    },
    {
      "buffer": 0,
      "byteOffset": 447908,
      "byteLength": 15888,
      "target": 34963
    },
    {
      "buffer": 0,
      "byteOffset": 463796,
      "byteLength": 4332,
      "target": 34963
    },
    {
      "buffer": 0,
      "byteOffset": 468128,
      "byteLength": 16380,
      "target": 34963
    },
    {
      "buffer": 0,
      "byteOffset": 484508,
      "byteLength": 2508,
      "target": 34963
    },
    {
      "buffer": 0,
      "byteOffset": 487016,
      "byteLength": 13536,
      "target": 34963
    },
    {
      "buffer": 0,
      "byteOffset": 500552,
      "byteLength": 648,
      "target": 34963
    },
    {
      "buffer": 0,
      "byteOffset": 501200,
      "byteLength": 9498,
      "target": 34963
    },
    {
      "buffer": 0,
      "byteOffset": 510698,
      "byteLength": 480,
      "target": 34963
    },
    {
      "buffer": 0,
      "byteOffset": 511178,
      "byteLength": 6126,
      "target": 34963
    }
  ],
  "buffers": [
    {
      "byteLength": 517304,
      "uri": "ht_deity_structure_01_breakable.bin"
    }
  ]
}