{
  "asset": {
    "version": "2.0",
    "generator": "XBG to GLTF Converter with Textures"
  },
  "scene": 0,
  "scenes": [
    {
      "name": "Scene",
      "nodes": [
        9
      ]
    }
  ],
  "nodes": [
    {
      "name": "HutSm04WallStraw_01",
      "children": [
        1,
        2,
        3,
        4,
        5,
        6,
        7
      ]
    },
    {
      "name": "COL_HutSm04WallStraw_01",
      "translation": [
        -2.7334375381469727,
        1.512451171875,
        0.263029009103775
      ],
      "rotation": [
        0.0,
        0.0,
        0.5000000636899319,
        0.8660253670130361
      ]
    },
    {
      "name": "COL_HutSm04WallStraw_02",
      "translation": [
        1.0148143768310547,
        2.9545507431030273,
        0.263029009103775
      ],
      "rotation": [
        0.0,
        0.0,
        -0.1736481384685235,
        0.984807759923944
      ]
    },
    {
      "name": "COL_HutSm04WallStraw_03",
      "translation": [
        -1.1217577457427979,
        2.915628671646118,
        0.263029009103775
      ],
      "rotation": [
        0.0,
        0.0,
        0.17364819018379657,
        0.9848077508051467
      ]
    },
    {
      "name": "AV_HutSm04WallStraw_01_01",
      "translation": [
        -2.7334375381469727,
        1.512451171875,
        0.263029009103775
      ],
      "rotation": [
        0.0,
        0.0,
        0.5000000636899319,
        0.8660253670130361
      ]
    },
    {
      "name": "AV_HutSm04WallStraw_01_02",
      "translation": [
        1.0148143768310547,
        2.9545507431030273,
        0.263029009103775
      ],
      "rotation": [
        0.0,
        0.0,
        -0.1736481384685235,
        0.984807759923944
      ]
    },
    {
      "name": "AV_HutSm04WallStraw_01_03",
      "translation": [
        -1.1217577457427979,
        2.915628671646118,
        0.263029009103775
      ],
      "rotation": [
        0.0,
        0.0,
        0.17364819018379657,
        0.9848077508051467
      ]
    },
    {
      "name": "HutSm04WallStraw_01_LOD0"
    },
    {
      "name": "MeshNode_LOD0",
      "mesh": 0,
      "skin": 0
    },
    {
      "name": "Correction_Root",
      "rotation": [
        -0.70710678,
        0.0,
        0.0,
        0.70710678
      ],
      "children": [
        0,
        8
      ]
    }
  ],
  "meshes": [
    {
      "name": "Mesh_LOD0",
      "primitives": [
        {
          "attributes": {
            "POSITION": 1,
            "JOINTS_0": 3,
            "WEIGHTS_0": 4,
            "TEXCOORD_0": 2
          },
          "indices": 5,
          "material": 0
        }
      ]
    }
  ],
  "skins": [
    {
      "inverseBindMatrices": 0,
      "joints": [
        0,
        1,
        2,
        3,
        4,
        5,
        6,
        7
      ],
      "name": "Armature",
      "skeleton": 0
    }
  ],
  "materials": [
    {
      "name": "GRAPHICS\\_MATERIALS\\MADESLONGCHAMPS-M-1909200757503126.xbm",
      "pbrMetallicRoughness": {
        "baseColorFactor": [
          1.0,
          1.0,
          1.0,
          1.0
        ],
        "metallicFactor": 0.0,
        "roughnessFactor": 1.0,
        "baseColorTexture": {
          "index": 0,
          "texCoord": 0
        }
      },
      "doubleSided": true
    }
  ],
  "textures": [
    {
      "sampler": 0,
      "source": 0
    }
  ],
  "images": [
    {
      "name": "red",
      "mimeType": "image/png",
      "uri": "data:image/png;base64,"
    }
  ],
  "samplers": [
    {
      "magFilter": 9729,
      "minFilter": 9987,
      "wrapS": 10497,
      "wrapT": 10497
    }
  ],
  "accessors": [
    {
      "bufferView": 0,
      "componentType": 5126,
      "count": 8,
      "type": "MAT4"
    },
    {
      "bufferView": 1,
      "componentType": 5126,
      "count": 120,
      "type": "VEC3",
      "min": [
        -2.6356089944019914,
        0.3930478831753135,
        0.2772301398217678
      ],
      "max": [
        1.8160954602062702,
        2.650624101050198,
        2.4427014961838722
      ]
    },
    {
      "bufferView": 2,
      "componentType": 5126,
      "count": 120,
      "type": "VEC2"
    },
    {
      "bufferView": 3,
      "componentType": 5123,
      "count": 120,
      "type": "VEC4"
    },
    {
      "bufferView": 4,
      "componentType": 5126,
      "count": 120,
      "type": "VEC4"
    },
    {
      "bufferView": 5,
      "componentType": 5123,
      "count": 180,
      "type": "SCALAR"
    }
  ],
  "bufferViews": [
    {
      "buffer": 0,
      "byteOffset": 0,
      "byteLength": 512
    },
    {
      "buffer": 0,
      "byteOffset": 512,
      "byteLength": 1440,
      "target": 34962
    },
    {
      "buffer": 0,
      "byteOffset": 1952,
      "byteLength": 960,
      "target": 34962
    },
    {
      "buffer": 0,
      "byteOffset": 2912,
      "byteLength": 960,
      "target": 34962
    },
    {
      "buffer": 0,
      "byteOffset": 3872,
      "byteLength": 1920,
      "target": 34962
    },
    {
      "buffer": 0,
      "byteOffset": 5792,
      "byteLength": 360,
      "target": 34963
    }
  ],
  "buffers": [
    {
      "byteLength": 6152,
      "uri": "hutsm04wallstraw_01.bin"
    }
  ]
}