{
  "asset": {
    "version": "2.0",
    "generator": "XBG to GLTF Converter with Textures"
  },
  "scene": 0,
  "scenes": [
    {
      "name": "Scene",
      "nodes": [
        6
      ]
    }
  ],
  "nodes": [
    {
      "name": "Jungle_HutSm05Roof_01a_BK",
      "children": [
        1
      ]
    },
    {
      "name": "StatePrim01",
      "translation": [
        3.9377734661102295,
        2.4399998892477015e-06,
        0.0
      ],
      "children": [
        2,
        4
      ]
    },
    {
      "name": "State01Prim01",
      "translation": [
        0.0,
        0.0,
        0.2978906035423279
      ],
      "children": [
        3
      ]
    },
    {
      "name": "RoofOutside_FX",
      "translation": [
        -3.9953417778015137,
        -0.00909424014389515,
        3.7387499809265137
      ]
    },
    {
      "name": "State02Prim01",
      "translation": [
        -2.4399998892477015e-06,
        0.0,
        0.5595556497573853
      ]
    },
    {
      "name": "MeshNode_LOD0",
      "mesh": 0,
      "skin": 0
    },
    {
      "name": "Correction_Root",
      "rotation": [
        -0.70710678,
        0.0,
        0.0,
        0.70710678
      ],
      "children": [
        0,
        5
      ]
    }
  ],
  "meshes": [
    {
      "name": "Mesh_LOD0",
      "primitives": [
        {
          "attributes": {
            "POSITION": 1,
            "JOINTS_0": 3,
            "WEIGHTS_0": 4,
            "TEXCOORD_0": 2
          },
          "indices": 5,
          "material": 0
        },
        {
          "attributes": {
            "POSITION": 1,
            "JOINTS_0": 3,
            "WEIGHTS_0": 4,
            "TEXCOORD_0": 2
          },
          "indices": 6,
          "material": 1
        },
        {
          "attributes": {
            "POSITION": 1,
            "JOINTS_0": 3,
            "WEIGHTS_0": 4,
            "TEXCOORD_0": 2
          },
          "indices": 7,
          "material": 0
        }
      ]
    }
  ],
  "skins": [
    {
      "inverseBindMatrices": 0,
      "joints": [
        0,
        1,
        2,
        3,
        4
      ],
      "name": "Armature",
      "skeleton": 0
    }
  ],
  "materials": [
    {
      "name": "GRAPHICS\\_MATERIALS\\CBERGERONLYONNAIS-M-2007081449314227.xbm",
      "pbrMetallicRoughness": {
        "baseColorFactor": [
          1.0,
          1.0,
          1.0,
          1.0
        ],
        "metallicFactor": 0.0,
        "roughnessFactor": 1.0,
        "baseColorTexture": {
          "index": 0,
          "texCoord": 0
        }
      },
      "doubleSided": true
    },
    {
      "name": "GRAPHICS\\_MATERIALS\\PFERNANDEZ-M-2007012367571260.xbm",
      "pbrMetallicRoughness": {
        "baseColorFactor": [
          1.0,
          1.0,
          1.0,
          1.0
        ],
        "metallicFactor": 0.0,
        "roughnessFactor": 1.0,
        "baseColorTexture": {
          "index": 1,
          "texCoord": 0
        }
      },
      "doubleSided": true
    }
  ],
  "textures": [
    {
      "sampler": 0,
      "source": 0
    },
    {
      "sampler": 0,
      "source": 1
    }
  ],
  "images": [
    {
      "name": "roofstraw_d",
      "mimeType": "image/png",
      "uri": "data:image/png;base64,"
    },
    {
      "name": "dirt_02_d",
      "mimeType": "image/png",
      "uri": "data:image/png;base64,"
    }
  ],
  "samplers": [
    {
      "magFilter": 9729,
      "minFilter": 9987,
      "wrapS": 10497,
      "wrapT": 10497
    }
  ],
  "accessors": [
    {
      "bufferView": 0,
      "componentType": 5126,
      "count": 5,
      "type": "MAT4"
    },
    {
      "bufferView": 1,
      "componentType": 5126,
      "count": 2212,
      "type": "VEC3",
      "min": [
        -7.061738938093185,
        -3.2232428938150406,
        2.0027466639876366
      ],
      "max": [
        -0.9292275756597519,
        3.2046876400709152,
        5.474532298743725
      ]
    },
    {
      "bufferView": 2,
      "componentType": 5126,
      "count": 2212,
      "type": "VEC2"
    },
    {
      "bufferView": 3,
      "componentType": 5123,
      "count": 2212,
      "type": "VEC4"
    },
    {
      "bufferView": 4,
      "componentType": 5126,
      "count": 2212,
      "type": "VEC4"
    },
    {
      "bufferView": 5,
      "componentType": 5123,
      "count": 6960,
      "type": "SCALAR"
    },
    {
      "bufferView": 6,
      "componentType": 5123,
      "count": 432,
      "type": "SCALAR"
    },
    {
      "bufferView": 7,
      "componentType": 5123,
      "count": 6,
      "type": "SCALAR"
    }
  ],
  "bufferViews": [
    {
      "buffer": 0,
      "byteOffset": 0,
      "byteLength": 320
    },
    {
      "buffer": 0,
      "byteOffset": 320,
      "byteLength": 26544,
      "target": 34962
    },
    {
      "buffer": 0,
      "byteOffset": 26864,
      "byteLength": 17696,
      "target": 34962
    },
    {
      "buffer": 0,
      "byteOffset": 44560,
      "byteLength": 17696,
      "target": 34962
    },
    {
      "buffer": 0,
      "byteOffset": 62256,
      "byteLength": 35392,
      "target": 34962
    },
    {
      "buffer": 0,
      "byteOffset": 97648,
      "byteLength": 13920,
      "target": 34963
    },
    {
      "buffer": 0,
      "byteOffset": 111568,
      "byteLength": 864,
      "target": 34963
    },
    {
      "buffer": 0,
      "byteOffset": 112432,
      "byteLength": 12,
      "target": 34963
    }
  ],
  "buffers": [
    {
      "byteLength": 112444,
      "uri": "jungle_hutsm05roof_01a_bk.bin"
    }
  ]
}