{
  "asset": {
    "version": "2.0",
    "generator": "XBG to GLTF Converter with Textures"
  },
  "scene": 0,
  "scenes": [
    {
      "name": "Scene",
      "nodes": [
        6
      ]
    }
  ],
  "nodes": [
    {
      "name": "MediumStraw_FX01_BK",
      "children": [
        1
      ]
    },
    {
      "name": "StatePrim01",
      "translation": [
        -3.3818016052246094,
        -0.8433789014816284,
        -1.2775578498840332
      ],
      "children": [
        2,
        4
      ]
    },
    {
      "name": "State01Prim01",
      "translation": [
        0.0,
        0.0,
        0.14715339243412018
      ],
      "children": [
        3
      ]
    },
    {
      "name": "Strawpile_FX02",
      "translation": [
        3.450324535369873,
        0.8097363710403442,
        0.855091392993927
      ]
    },
    {
      "name": "State02Prim01",
      "translation": [
        0.0,
        0.0,
        0.29682135581970215
      ]
    },
    {
      "name": "MeshNode_LOD0",
      "mesh": 0,
      "skin": 0
    },
    {
      "name": "Correction_Root",
      "rotation": [
        -0.70710678,
        0.0,
        0.0,
        0.70710678
      ],
      "children": [
        0,
        5
      ]
    }
  ],
  "meshes": [
    {
      "name": "Mesh_LOD0",
      "primitives": [
        {
          "attributes": {
            "POSITION": 1,
            "JOINTS_0": 3,
            "WEIGHTS_0": 4,
            "TEXCOORD_0": 2
          },
          "indices": 5,
          "material": 0
        },
        {
          "attributes": {
            "POSITION": 1,
            "JOINTS_0": 3,
            "WEIGHTS_0": 4,
            "TEXCOORD_0": 2
          },
          "indices": 6,
          "material": 0
        }
      ]
    }
  ],
  "skins": [
    {
      "inverseBindMatrices": 0,
      "joints": [
        0,
        1,
        2,
        3,
        4
      ],
      "name": "Armature",
      "skeleton": 0
    }
  ],
  "materials": [
    {
      "name": "GRAPHICS\\_MATERIALS\\CBERGERONLYONNAIS-M-2007071750036103.xbm",
      "pbrMetallicRoughness": {
        "baseColorFactor": [
          1.0,
          1.0,
          1.0,
          1.0
        ],
        "metallicFactor": 0.0,
        "roughnessFactor": 1.0,
        "baseColorTexture": {
          "index": 0,
          "texCoord": 0
        }
      },
      "doubleSided": true
    }
  ],
  "textures": [
    {
      "sampler": 0,
      "source": 0
    }
  ],
  "images": [
    {
      "name": "hutstraw01_d",
      "mimeType": "image/png",
      "uri": "data:image/png;base64,"
    }
  ],
  "samplers": [
    {
      "magFilter": 9729,
      "minFilter": 9987,
      "wrapS": 10497,
      "wrapT": 10497
    }
  ],
  "accessors": [
    {
      "bufferView": 0,
      "componentType": 5126,
      "count": 5,
      "type": "MAT4"
    },
    {
      "bufferView": 1,
      "componentType": 5126,
      "count": 778,
      "type": "VEC3",
      "min": [
        0.5612353887408972,
        -2.123905146494508,
        0.23694570735096931
      ],
      "max": [
        5.499557476490736,
        4.2637409549206495,
        1.456465344876051
      ]
    },
    {
      "bufferView": 2,
      "componentType": 5126,
      "count": 778,
      "type": "VEC2"
    },
    {
      "bufferView": 3,
      "componentType": 5123,
      "count": 778,
      "type": "VEC4"
    },
    {
      "bufferView": 4,
      "componentType": 5126,
      "count": 778,
      "type": "VEC4"
    },
    {
      "bufferView": 5,
      "componentType": 5123,
      "count": 2076,
      "type": "SCALAR"
    },
    {
      "bufferView": 6,
      "componentType": 5123,
      "count": 6,
      "type": "SCALAR"
    }
  ],
  "bufferViews": [
    {
      "buffer": 0,
      "byteOffset": 0,
      "byteLength": 320
    },
    {
      "buffer": 0,
      "byteOffset": 320,
      "byteLength": 9336,
      "target": 34962
    },
    {
      "buffer": 0,
      "byteOffset": 9656,
      "byteLength": 6224,
      "target": 34962
    },
    {
      "buffer": 0,
      "byteOffset": 15880,
      "byteLength": 6224,
      "target": 34962
    },
    {
      "buffer": 0,
      "byteOffset": 22104,
      "byteLength": 12448,
      "target": 34962
    },
    {
      "buffer": 0,
      "byteOffset": 34552,
      "byteLength": 4152,
      "target": 34963
    },
    {
      "buffer": 0,
      "byteOffset": 38704,
      "byteLength": 12,
      "target": 34963
    }
  ],
  "buffers": [
    {
      "byteLength": 38716,
      "uri": "mediumstraw_fx01_bk.bin"
    }
  ]
}