{
  "asset": {
    "version": "2.0",
    "generator": "XBG to GLTF Converter with Textures"
  },
  "scene": 0,
  "scenes": [
    {
      "name": "Scene",
      "nodes": [
        17
      ]
    }
  ],
  "nodes": [
    {
      "name": "Boat_Drivable",
      "children": [
        1,
        2,
        3,
        4,
        5,
        6,
        7,
        8,
        9,
        10,
        11,
        12,
        13,
        14,
        15
      ]
    },
    {
      "name": "DRIVER_SITPOINT",
      "translation": [
        -0.03866678103804588,
        -0.09120833873748779,
        1.1047283411026
      ]
    },
    {
      "name": "CHASSIS",
      "translation": [
        -0.035905808210372925,
        0.510691225528717,
        0.7391729354858398
      ]
    },
    {
      "name": "PASSENGER_SITPOINT",
      "translation": [
        -0.5512201189994812,
        1.3310775756835938,
        0.802139937877655
      ]
    },
    {
      "name": "DRIVER_ENTRYPOINT_RIGHT",
      "translation": [
        1.4697271585464478,
        1.0432043075561523,
        0.507834792137146
      ],
      "rotation": [
        0.0,
        0.0,
        0.7071067690849299,
        0.707106793288165
      ]
    },
    {
      "name": "DRIVER_ENTRYPOINT_LEFT",
      "translation": [
        -1.544272780418396,
        1.0432043075561523,
        0.507834792137146
      ],
      "rotation": [
        0.0,
        0.0,
        -0.7071067690849299,
        0.707106793288165
      ]
    },
    {
      "name": "ASSENGER_ENTRYPOINT_RIGHT",
      "translation": [
        1.4697271585464478,
        1.0432043075561523,
        0.507834792137146
      ],
      "rotation": [
        0.0,
        0.0,
        0.7071067690849299,
        0.707106793288165
      ]
    },
    {
      "name": "PASSENGER_ENTRYPOINT_LEFT",
      "translation": [
        -1.544272780418396,
        1.0432043075561523,
        0.507834792137146
      ],
      "rotation": [
        0.0,
        0.0,
        -0.7071067690849299,
        0.707106793288165
      ]
    },
    {
      "name": "FX_FIRE_LEFT",
      "translation": [
        -1.2441624402999878,
        0.7843177914619446,
        1.1265411376953125
      ]
    },
    {
      "name": "FX_FIRE_RIGHT",
      "translation": [
        1.1878368854522705,
        0.784317672252655,
        1.1265411376953125
      ]
    },
    {
      "name": "DRIVER_ENTRYPOINT_INBOAT",
      "translation": [
        -0.04523468017578125,
        1.0432043075561523,
        1.0193735361099243
      ]
    },
    {
      "name": "SSENGER_ENTRYPOINT_INBOAT",
      "translation": [
        -0.04523468017578125,
        1.0432043075561523,
        1.0193735361099243
      ]
    },
    {
      "name": "FX_WATER_RIGHT",
      "translation": [
        0.9244298934936523,
        -2.0589137077331543,
        0.3752124309539795
      ],
      "rotation": [
        -1.9999999889559484e-08,
        0.2588190471264925,
        0.9659258257467455,
        -4.371138998579077e-08
      ]
    },
    {
      "name": "FX_WATER_LEFT",
      "translation": [
        -0.9767581224441528,
        -1.8648275136947632,
        0.3752124309539795
      ],
      "rotation": [
        -1.9999999889559484e-08,
        0.2588190471264925,
        0.9659258257467455,
        -4.371138998579077e-08
      ]
    },
    {
      "name": "CONTROLLER_Handle_Right",
      "translation": [
        0.39998993277549744,
        -0.0032711001113057137,
        1.286584496498108
      ]
    },
    {
      "name": "CONTROLLER_Handle_Left",
      "translation": [
        -0.4652857780456543,
        -0.003271060064435005,
        1.286584496498108
      ]
    },
    {
      "name": "MeshNode_LOD0",
      "mesh": 0,
      "skin": 0
    },
    {
      "name": "Correction_Root",
      "rotation": [
        -0.70710678,
        0.0,
        0.0,
        0.70710678
      ],
      "children": [
        0,
        16
      ]
    }
  ],
  "meshes": [
    {
      "name": "Mesh_LOD0",
      "primitives": [
        {
          "attributes": {
            "POSITION": 1,
            "JOINTS_0": 3,
            "WEIGHTS_0": 4,
            "TEXCOORD_0": 2
          },
          "indices": 5,
          "material": 0
        },
        {
          "attributes": {
            "POSITION": 1,
            "JOINTS_0": 3,
            "WEIGHTS_0": 4,
            "TEXCOORD_0": 2
          },
          "indices": 6,
          "material": 1
        },
        {
          "attributes": {
            "POSITION": 1,
            "JOINTS_0": 3,
            "WEIGHTS_0": 4,
            "TEXCOORD_0": 2
          },
          "indices": 7,
          "material": 2
        },
        {
          "attributes": {
            "POSITION": 1,
            "JOINTS_0": 3,
            "WEIGHTS_0": 4,
            "TEXCOORD_0": 2
          },
          "indices": 8,
          "material": 3
        }
      ]
    }
  ],
  "skins": [
    {
      "inverseBindMatrices": 0,
      "joints": [
        0,
        1,
        2,
        3,
        4,
        5,
        6,
        7,
        8,
        9,
        10,
        11,
        12,
        13,
        14,
        15
      ],
      "name": "Armature",
      "skeleton": 0
    }
  ],
  "materials": [
    {
      "name": "GRAPHICS\\_MATERIALS\\NSALAS-M-2009061251512094.xbm",
      "pbrMetallicRoughness": {
        "baseColorFactor": [
          1.0,
          1.0,
          1.0,
          1.0
        ],
        "metallicFactor": 0.0,
        "roughnessFactor": 1.0,
        "baseColorTexture": {
          "index": 0,
          "texCoord": 0
        }
      },
      "doubleSided": true
    },
    {
      "name": "GRAPHICS\\_MATERIALS\\DLAJEUNESSE-M-2008112059168188.xbm",
      "pbrMetallicRoughness": {
        "baseColorFactor": [
          1.0,
          1.0,
          1.0,
          1.0
        ],
        "metallicFactor": 0.0,
        "roughnessFactor": 1.0,
        "baseColorTexture": {
          "index": 1,
          "texCoord": 0
        }
      },
      "doubleSided": true
    },
    {
      "name": "GRAPHICS\\_MATERIALS\\DLAJEUNESSE-M-2008111839798549.xbm",
      "pbrMetallicRoughness": {
        "baseColorFactor": [
          1.0,
          1.0,
          1.0,
          1.0
        ],
        "metallicFactor": 0.0,
        "roughnessFactor": 1.0,
        "baseColorTexture": {
          "index": 2,
          "texCoord": 0
        }
      },
      "doubleSided": true
    },
    {
      "name": "GRAPHICS\\_MATERIALS\\JDAPRATO-M-2008100247857534.xbm",
      "pbrMetallicRoughness": {
        "baseColorFactor": [
          1.0,
          1.0,
          1.0,
          1.0
        ],
        "metallicFactor": 0.0,
        "roughnessFactor": 1.0,
        "baseColorTexture": {
          "index": 3,
          "texCoord": 0
        }
      },
      "doubleSided": true
    }
  ],
  "textures": [
    {
      "sampler": 0,
      "source": 0
    },
    {
      "sampler": 0,
      "source": 1
    },
    {
      "sampler": 0,
      "source": 2
    },
    {
      "sampler": 0,
      "source": 3
    }
  ],
  "images": [
    {
      "name": "station_table_main",
      "mimeType": "image/png",
      "uri": "data:image/png;base64,"
    },
    {
      "name": "boat_part_d",
      "mimeType": "image/png",
      "uri": "data:image/png;base64,"
    },
    {
      "name": "boat_tiling_d",
      "mimeType": "image/png",
      "uri": "data:image/png;base64,"
    },
    {
      "name": "z_wiptexture_d",
      "mimeType": "image/png",
      "uri": "data:image/png;base64,"
    }
  ],
  "samplers": [
    {
      "magFilter": 9729,
      "minFilter": 9987,
      "wrapS": 10497,
      "wrapT": 10497
    }
  ],
  "accessors": [
    {
      "bufferView": 0,
      "componentType": 5126,
      "count": 16,
      "type": "MAT4"
    },
    {
      "bufferView": 1,
      "componentType": 5126,
      "count": 9182,
      "type": "VEC3",
      "min": [
        -1.8903164751827717,
        -2.8844874389469624,
        -0.47889645025134087
      ],
      "max": [
        1.9044770635664463,
        3.050019834190607,
        1.5034638494253159
      ]
    },
    {
      "bufferView": 2,
      "componentType": 5126,
      "count": 9182,
      "type": "VEC2"
    },
    {
      "bufferView": 3,
      "componentType": 5123,
      "count": 9182,
      "type": "VEC4"
    },
    {
      "bufferView": 4,
      "componentType": 5126,
      "count": 9182,
      "type": "VEC4"
    },
    {
      "bufferView": 5,
      "componentType": 5123,
      "count": 228,
      "type": "SCALAR"
    },
    {
      "bufferView": 6,
      "componentType": 5123,
      "count": 10908,
      "type": "SCALAR"
    },
    {
      "bufferView": 7,
      "componentType": 5123,
      "count": 9642,
      "type": "SCALAR"
    },
    {
      "bufferView": 8,
      "componentType": 5123,
      "count": 654,
      "type": "SCALAR"
    }
  ],
  "bufferViews": [
    {
      "buffer": 0,
      "byteOffset": 0,
      "byteLength": 1024
    },
    {
      "buffer": 0,
      "byteOffset": 1024,
      "byteLength": 110184,
      "target": 34962
    },
    {
      "buffer": 0,
      "byteOffset": 111208,
      "byteLength": 73456,
      "target": 34962
    },
    {
      "buffer": 0,
      "byteOffset": 184664,
      "byteLength": 73456,
      "target": 34962
    },
    {
      "buffer": 0,
      "byteOffset": 258120,
      "byteLength": 146912,
      "target": 34962
    },
    {
      "buffer": 0,
      "byteOffset": 405032,
      "byteLength": 456,
      "target": 34963
    },
    {
      "buffer": 0,
      "byteOffset": 405488,
      "byteLength": 21816,
      "target": 34963
    },
    {
      "buffer": 0,
      "byteOffset": 427304,
      "byteLength": 19284,
      "target": 34963
    },
    {
      "buffer": 0,
      "byteOffset": 446588,
      "byteLength": 1308,
      "target": 34963
    }
  ],
  "buffers": [
    {
      "byteLength": 447896,
      "uri": "boat_drivable.bin"
    }
  ]
}