{
  "asset": {
    "version": "2.0",
    "generator": "XBG to GLTF Converter with Textures"
  },
  "scene": 0,
  "scenes": [
    {
      "name": "Scene",
      "nodes": [
        5
      ]
    }
  ],
  "nodes": [
    {
      "name": "RDA_TU_51_Gun",
      "children": [
        1,
        2,
        3
      ]
    },
    {
      "name": "RDA_TU_51_FX_CASING",
      "translation": [
        0.11417490988969803,
        0.0878959372639656,
        0.042236391454935074
      ],
      "rotation": [
        0.0922958704486832,
        -0.09229590271364056,
        -0.7010575552949895,
        0.7010572349144832
      ]
    },
    {
      "name": "RDA_TU_51_FX_FIRE",
      "translation": [
        -0.0009787699673324823,
        1.1723147630691528,
        0.0006571700214408338
      ]
    },
    {
      "name": "RDA_TU_51_FRAME"
    },
    {
      "name": "MeshNode_LOD0",
      "mesh": 0,
      "skin": 0
    },
    {
      "name": "Correction_Root",
      "rotation": [
        -0.70710678,
        0.0,
        0.0,
        0.70710678
      ],
      "children": [
        0,
        4
      ]
    }
  ],
  "meshes": [
    {
      "name": "Mesh_LOD0",
      "primitives": [
        {
          "attributes": {
            "POSITION": 1,
            "JOINTS_0": 3,
            "WEIGHTS_0": 4,
            "TEXCOORD_0": 2
          },
          "indices": 5,
          "material": 0
        },
        {
          "attributes": {
            "POSITION": 1,
            "JOINTS_0": 3,
            "WEIGHTS_0": 4,
            "TEXCOORD_0": 2
          },
          "indices": 6,
          "material": 1
        }
      ]
    }
  ],
  "skins": [
    {
      "inverseBindMatrices": 0,
      "joints": [
        0,
        1,
        2,
        3
      ],
      "name": "Armature",
      "skeleton": 0
    }
  ],
  "materials": [
    {
      "name": "GRAPHICS\\_MATERIALS\\XPERREAULT-M-2009091160590144.xbm",
      "pbrMetallicRoughness": {
        "baseColorFactor": [
          1.0,
          1.0,
          1.0,
          1.0
        ],
        "metallicFactor": 0.0,
        "roughnessFactor": 1.0,
        "baseColorTexture": {
          "index": 0,
          "texCoord": 0
        }
      },
      "doubleSided": true
    },
    {
      "name": "GRAPHICS\\_MATERIALS\\SGAGNON-M-2009051237852005.xbm",
      "pbrMetallicRoughness": {
        "baseColorFactor": [
          1.0,
          1.0,
          1.0,
          1.0
        ],
        "metallicFactor": 0.0,
        "roughnessFactor": 1.0,
        "baseColorTexture": {
          "index": 1,
          "texCoord": 0
        }
      },
      "doubleSided": true
    }
  ],
  "textures": [
    {
      "sampler": 0,
      "source": 0
    },
    {
      "sampler": 0,
      "source": 1
    }
  ],
  "images": [
    {
      "name": "corp_tu51_2_d",
      "mimeType": "image/png",
      "uri": "data:image/png;base64,"
    },
    {
      "name": "corp_tu51_d",
      "mimeType": "image/png",
      "uri": "data:image/png;base64,"
    }
  ],
  "samplers": [
    {
      "magFilter": 9729,
      "minFilter": 9987,
      "wrapS": 10497,
      "wrapT": 10497
    }
  ],
  "accessors": [
    {
      "bufferView": 0,
      "componentType": 5126,
      "count": 4,
      "type": "MAT4"
    },
    {
      "bufferView": 1,
      "componentType": 5126,
      "count": 5316,
      "type": "VEC3",
      "min": [
        -0.6709189116954803,
        -1.9361552763730288,
        -0.8269905690103769
      ],
      "max": [
        0.6783043909817934,
        1.1277199611067772,
        0.4861598554998636
      ]
    },
    {
      "bufferView": 2,
      "componentType": 5126,
      "count": 5316,
      "type": "VEC2"
    },
    {
      "bufferView": 3,
      "componentType": 5123,
      "count": 5316,
      "type": "VEC4"
    },
    {
      "bufferView": 4,
      "componentType": 5126,
      "count": 5316,
      "type": "VEC4"
    },
    {
      "bufferView": 5,
      "componentType": 5123,
      "count": 2289,
      "type": "SCALAR"
    },
    {
      "bufferView": 6,
      "componentType": 5123,
      "count": 15384,
      "type": "SCALAR"
    }
  ],
  "bufferViews": [
    {
      "buffer": 0,
      "byteOffset": 0,
      "byteLength": 256
    },
    {
      "buffer": 0,
      "byteOffset": 256,
      "byteLength": 63792,
      "target": 34962
    },
    {
      "buffer": 0,
      "byteOffset": 64048,
      "byteLength": 42528,
      "target": 34962
    },
    {
      "buffer": 0,
      "byteOffset": 106576,
      "byteLength": 42528,
      "target": 34962
    },
    {
      "buffer": 0,
      "byteOffset": 149104,
      "byteLength": 85056,
      "target": 34962
    },
    {
      "buffer": 0,
      "byteOffset": 234160,
      "byteLength": 4578,
      "target": 34963
    },
    {
      "buffer": 0,
      "byteOffset": 238738,
      "byteLength": 30768,
      "target": 34963
    }
  ],
  "buffers": [
    {
      "byteLength": 269506,
      "uri": "rda_tu_51_gun.bin"
    }
  ]
}