{
  "asset": {
    "version": "2.0",
    "generator": "XBG to GLTF Converter with Textures"
  },
  "scene": 0,
  "scenes": [
    {
      "name": "Scene",
      "nodes": [
        7
      ]
    }
  ],
  "nodes": [
    {
      "name": "DUAL_WASP_04",
      "children": [
        1,
        2,
        4,
        5
      ]
    },
    {
      "name": "DUAL_WASP_FRAME",
      "translation": [
        -0.10301406681537628,
        0.006382230203598738,
        -0.010416599921882153
      ]
    },
    {
      "name": "AL_WASP_FRONT_ACCESSORIES",
      "translation": [
        0.12363866716623306,
        0.006382190156728029,
        0.07485736906528473
      ],
      "children": [
        3
      ]
    },
    {
      "name": "DUAL_WASP_CLIP",
      "translation": [
        -0.013558270409703255,
        0.0,
        0.020329950377345085
      ]
    },
    {
      "name": "UAL_WASP_LOCK_ACCESSORIES",
      "translation": [
        0.03709666058421135,
        0.006382260005921125,
        0.12115687876939774
      ]
    },
    {
      "name": "DUAL_WASP_FX_FIRE",
      "translation": [
        0.23114247620105743,
        0.006524689961224794,
        0.09553103893995285
      ],
      "rotation": [
        1.6970560899112813e-07,
        1.697056291050108e-07,
        -0.7071067690849289,
        0.7071067932881252
      ]
    },
    {
      "name": "MeshNode_LOD0",
      "mesh": 0,
      "skin": 0
    },
    {
      "name": "Correction_Root",
      "rotation": [
        -0.70710678,
        0.0,
        0.0,
        0.70710678
      ],
      "children": [
        0,
        6
      ]
    }
  ],
  "meshes": [
    {
      "name": "Mesh_LOD0",
      "primitives": [
        {
          "attributes": {
            "POSITION": 1,
            "JOINTS_0": 3,
            "WEIGHTS_0": 4,
            "TEXCOORD_0": 2
          },
          "indices": 5,
          "material": 0
        },
        {
          "attributes": {
            "POSITION": 1,
            "JOINTS_0": 3,
            "WEIGHTS_0": 4,
            "TEXCOORD_0": 2
          },
          "indices": 6,
          "material": 0
        },
        {
          "attributes": {
            "POSITION": 1,
            "JOINTS_0": 3,
            "WEIGHTS_0": 4,
            "TEXCOORD_0": 2
          },
          "indices": 7,
          "material": 0
        },
        {
          "attributes": {
            "POSITION": 1,
            "JOINTS_0": 3,
            "WEIGHTS_0": 4,
            "TEXCOORD_0": 2
          },
          "indices": 8,
          "material": 0
        }
      ]
    }
  ],
  "skins": [
    {
      "inverseBindMatrices": 0,
      "joints": [
        0,
        1,
        2,
        3,
        4,
        5
      ],
      "name": "Armature",
      "skeleton": 0
    }
  ],
  "materials": [
    {
      "name": "GRAPHICS\\_MATERIALS\\SGAGNON-M-2009012748331213.xbm",
      "pbrMetallicRoughness": {
        "baseColorFactor": [
          1.0,
          1.0,
          1.0,
          1.0
        ],
        "metallicFactor": 0.0,
        "roughnessFactor": 1.0,
        "baseColorTexture": {
          "index": 0,
          "texCoord": 0
        }
      },
      "doubleSided": true
    }
  ],
  "textures": [
    {
      "sampler": 0,
      "source": 0
    }
  ],
  "images": [
    {
      "name": "wasp_3rd_04_d",
      "mimeType": "image/png",
      "uri": "data:image/png;base64,"
    }
  ],
  "samplers": [
    {
      "magFilter": 9729,
      "minFilter": 9987,
      "wrapS": 10497,
      "wrapT": 10497
    }
  ],
  "accessors": [
    {
      "bufferView": 0,
      "componentType": 5126,
      "count": 6,
      "type": "MAT4"
    },
    {
      "bufferView": 1,
      "componentType": 5126,
      "count": 779,
      "type": "VEC3",
      "min": [
        -0.09283730573952198,
        -0.023224585689604282,
        -0.048097170889377594
      ],
      "max": [
        0.3218482006341219,
        0.023194067180156708,
        0.11560411378741264
      ]
    },
    {
      "bufferView": 2,
      "componentType": 5126,
      "count": 779,
      "type": "VEC2"
    },
    {
      "bufferView": 3,
      "componentType": 5123,
      "count": 779,
      "type": "VEC4"
    },
    {
      "bufferView": 4,
      "componentType": 5126,
      "count": 779,
      "type": "VEC4"
    },
    {
      "bufferView": 5,
      "componentType": 5123,
      "count": 1032,
      "type": "SCALAR"
    },
    {
      "bufferView": 6,
      "componentType": 5123,
      "count": 84,
      "type": "SCALAR"
    },
    {
      "bufferView": 7,
      "componentType": 5123,
      "count": 528,
      "type": "SCALAR"
    },
    {
      "bufferView": 8,
      "componentType": 5123,
      "count": 30,
      "type": "SCALAR"
    }
  ],
  "bufferViews": [
    {
      "buffer": 0,
      "byteOffset": 0,
      "byteLength": 384
    },
    {
      "buffer": 0,
      "byteOffset": 384,
      "byteLength": 9348,
      "target": 34962
    },
    {
      "buffer": 0,
      "byteOffset": 9732,
      "byteLength": 6232,
      "target": 34962
    },
    {
      "buffer": 0,
      "byteOffset": 15964,
      "byteLength": 6232,
      "target": 34962
    },
    {
      "buffer": 0,
      "byteOffset": 22196,
      "byteLength": 12464,
      "target": 34962
    },
    {
      "buffer": 0,
      "byteOffset": 34660,
      "byteLength": 2064,
      "target": 34963
    },
    {
      "buffer": 0,
      "byteOffset": 36724,
      "byteLength": 168,
      "target": 34963
    },
    {
      "buffer": 0,
      "byteOffset": 36892,
      "byteLength": 1056,
      "target": 34963
    },
    {
      "buffer": 0,
      "byteOffset": 37948,
      "byteLength": 60,
      "target": 34963
    }
  ],
  "buffers": [
    {
      "byteLength": 38008,
      "uri": "dual_wasp_04.bin"
    }
  ]
}