{
  "asset": {
    "version": "2.0",
    "generator": "XBG to GLTF Converter with Textures"
  },
  "scene": 0,
  "scenes": [
    {
      "name": "Scene",
      "nodes": [
        7
      ]
    }
  ],
  "nodes": [
    {
      "name": "WASP_02",
      "children": [
        1,
        2,
        4,
        5
      ]
    },
    {
      "name": "WASP_FRAME",
      "translation": [
        -0.10291113704442978,
        0.00662360992282629,
        -0.013571780174970627
      ]
    },
    {
      "name": "WASP_FRONT_ACCESSORIES",
      "translation": [
        0.11452612280845642,
        0.00662360992282629,
        0.06243659183382988
      ],
      "children": [
        3
      ]
    },
    {
      "name": "WASP_CLIP",
      "translation": [
        -0.013558270409703255,
        0.0,
        0.020329950377345085
      ]
    },
    {
      "name": "WASP_LOCK_ACCESSORIES",
      "translation": [
        0.03719957917928696,
        0.00662360992282629,
        0.11800170689821243
      ]
    },
    {
      "name": "WASP_FX_FIRE",
      "translation": [
        0.23302584886550903,
        0.0072657098062336445,
        0.09223431348800659
      ],
      "rotation": [
        1.6970560899112813e-07,
        1.697056291050108e-07,
        -0.7071067690849289,
        0.7071067932881252
      ]
    },
    {
      "name": "MeshNode_LOD0",
      "mesh": 0,
      "skin": 0
    },
    {
      "name": "Correction_Root",
      "rotation": [
        -0.70710678,
        0.0,
        0.0,
        0.70710678
      ],
      "children": [
        0,
        6
      ]
    }
  ],
  "meshes": [
    {
      "name": "Mesh_LOD0",
      "primitives": [
        {
          "attributes": {
            "POSITION": 1,
            "JOINTS_0": 3,
            "WEIGHTS_0": 4,
            "TEXCOORD_0": 2
          },
          "indices": 5,
          "material": 0
        },
        {
          "attributes": {
            "POSITION": 1,
            "JOINTS_0": 3,
            "WEIGHTS_0": 4,
            "TEXCOORD_0": 2
          },
          "indices": 6,
          "material": 0
        },
        {
          "attributes": {
            "POSITION": 1,
            "JOINTS_0": 3,
            "WEIGHTS_0": 4,
            "TEXCOORD_0": 2
          },
          "indices": 7,
          "material": 0
        },
        {
          "attributes": {
            "POSITION": 1,
            "JOINTS_0": 3,
            "WEIGHTS_0": 4,
            "TEXCOORD_0": 2
          },
          "indices": 8,
          "material": 0
        }
      ]
    }
  ],
  "skins": [
    {
      "inverseBindMatrices": 0,
      "joints": [
        0,
        1,
        2,
        3,
        4,
        5
      ],
      "name": "Armature",
      "skeleton": 0
    }
  ],
  "materials": [
    {
      "name": "GRAPHICS\\_MATERIALS\\SGAGNON-M-2009012141012660.xbm",
      "pbrMetallicRoughness": {
        "baseColorFactor": [
          1.0,
          1.0,
          1.0,
          1.0
        ],
        "metallicFactor": 0.0,
        "roughnessFactor": 1.0,
        "baseColorTexture": {
          "index": 0,
          "texCoord": 0
        }
      },
      "doubleSided": true
    }
  ],
  "textures": [
    {
      "sampler": 0,
      "source": 0
    }
  ],
  "images": [
    {
      "name": "wasp_3rd_02_d",
      "mimeType": "image/png",
      "uri": "data:image/png;base64,"
    }
  ],
  "samplers": [
    {
      "magFilter": 9729,
      "minFilter": 9987,
      "wrapS": 10497,
      "wrapT": 10497
    }
  ],
  "accessors": [
    {
      "bufferView": 0,
      "componentType": 5126,
      "count": 6,
      "type": "MAT4"
    },
    {
      "bufferView": 1,
      "componentType": 5126,
      "count": 739,
      "type": "VEC3",
      "min": [
        -0.07242042291909456,
        -0.02056947536766529,
        -0.0456862086430192
      ],
      "max": [
        0.21103549282997847,
        0.020538956858217716,
        0.11560411378741264
      ]
    },
    {
      "bufferView": 2,
      "componentType": 5126,
      "count": 739,
      "type": "VEC2"
    },
    {
      "bufferView": 3,
      "componentType": 5123,
      "count": 739,
      "type": "VEC4"
    },
    {
      "bufferView": 4,
      "componentType": 5126,
      "count": 739,
      "type": "VEC4"
    },
    {
      "bufferView": 5,
      "componentType": 5123,
      "count": 708,
      "type": "SCALAR"
    },
    {
      "bufferView": 6,
      "componentType": 5123,
      "count": 84,
      "type": "SCALAR"
    },
    {
      "bufferView": 7,
      "componentType": 5123,
      "count": 741,
      "type": "SCALAR"
    },
    {
      "bufferView": 8,
      "componentType": 5123,
      "count": 30,
      "type": "SCALAR"
    }
  ],
  "bufferViews": [
    {
      "buffer": 0,
      "byteOffset": 0,
      "byteLength": 384
    },
    {
      "buffer": 0,
      "byteOffset": 384,
      "byteLength": 8868,
      "target": 34962
    },
    {
      "buffer": 0,
      "byteOffset": 9252,
      "byteLength": 5912,
      "target": 34962
    },
    {
      "buffer": 0,
      "byteOffset": 15164,
      "byteLength": 5912,
      "target": 34962
    },
    {
      "buffer": 0,
      "byteOffset": 21076,
      "byteLength": 11824,
      "target": 34962
    },
    {
      "buffer": 0,
      "byteOffset": 32900,
      "byteLength": 1416,
      "target": 34963
    },
    {
      "buffer": 0,
      "byteOffset": 34316,
      "byteLength": 168,
      "target": 34963
    },
    {
      "buffer": 0,
      "byteOffset": 34484,
      "byteLength": 1482,
      "target": 34963
    },
    {
      "buffer": 0,
      "byteOffset": 35966,
      "byteLength": 60,
      "target": 34963
    }
  ],
  "buffers": [
    {
      "byteLength": 36026,
      "uri": "wasp_02.bin"
    }
  ]
}