{
  "asset": {
    "version": "2.0",
    "generator": "XBG to GLTF Converter with Textures"
  },
  "scene": 0,
  "scenes": [
    {
      "name": "Scene",
      "nodes": [
        3
      ]
    }
  ],
  "nodes": [
    {
      "name": "Machetee_08",
      "children": [
        1
      ]
    },
    {
      "name": "Dual_Long_Blade_Frame",
      "translation": [
        0.22823776304721832,
        -0.18631595373153687,
        -0.2505538761615753
      ],
      "rotation": [
        -0.29983723565133313,
        -0.2935707607183233,
        0.10085635045832689,
        0.9020764035658978
      ]
    },
    {
      "name": "MeshNode_LOD0",
      "mesh": 0,
      "skin": 0
    },
    {
      "name": "Correction_Root",
      "rotation": [
        -0.70710678,
        0.0,
        0.0,
        0.70710678
      ],
      "children": [
        0,
        2
      ]
    }
  ],
  "meshes": [
    {
      "name": "Mesh_LOD0",
      "primitives": [
        {
          "attributes": {
            "POSITION": 1,
            "JOINTS_0": 3,
            "WEIGHTS_0": 4,
            "TEXCOORD_0": 2
          },
          "indices": 5,
          "material": 0
        }
      ]
    }
  ],
  "skins": [
    {
      "inverseBindMatrices": 0,
      "joints": [
        0,
        1
      ],
      "name": "Armature",
      "skeleton": 0
    }
  ],
  "materials": [
    {
      "name": "GRAPHICS\\_MATERIALS\\CSEAUT-M-2009071757873473.xbm",
      "pbrMetallicRoughness": {
        "baseColorFactor": [
          1.0,
          1.0,
          1.0,
          1.0
        ],
        "metallicFactor": 0.0,
        "roughnessFactor": 1.0,
        "baseColorTexture": {
          "index": 0,
          "texCoord": 0
        }
      },
      "doubleSided": true
    }
  ],
  "textures": [
    {
      "sampler": 0,
      "source": 0
    }
  ],
  "images": [
    {
      "name": "dual_long_blade_8_d",
      "mimeType": "image/png",
      "uri": "data:image/png;base64,"
    }
  ],
  "samplers": [
    {
      "magFilter": 9729,
      "minFilter": 9987,
      "wrapS": 10497,
      "wrapT": 10497
    }
  ],
  "accessors": [
    {
      "bufferView": 0,
      "componentType": 5126,
      "count": 2,
      "type": "MAT4"
    },
    {
      "bufferView": 1,
      "componentType": 5126,
      "count": 802,
      "type": "VEC3",
      "min": [
        -0.217596972361207,
        -0.059144871309399605,
        -0.2722861412912607
      ],
      "max": [
        0.37983336858451366,
        0.0673238318413496,
        1.5267189536243677
      ]
    },
    {
      "bufferView": 2,
      "componentType": 5126,
      "count": 802,
      "type": "VEC2"
    },
    {
      "bufferView": 3,
      "componentType": 5123,
      "count": 802,
      "type": "VEC4"
    },
    {
      "bufferView": 4,
      "componentType": 5126,
      "count": 802,
      "type": "VEC4"
    },
    {
      "bufferView": 5,
      "componentType": 5123,
      "count": 3360,
      "type": "SCALAR"
    }
  ],
  "bufferViews": [
    {
      "buffer": 0,
      "byteOffset": 0,
      "byteLength": 128
    },
    {
      "buffer": 0,
      "byteOffset": 128,
      "byteLength": 9624,
      "target": 34962
    },
    {
      "buffer": 0,
      "byteOffset": 9752,
      "byteLength": 6416,
      "target": 34962
    },
    {
      "buffer": 0,
      "byteOffset": 16168,
      "byteLength": 6416,
      "target": 34962
    },
    {
      "buffer": 0,
      "byteOffset": 22584,
      "byteLength": 12832,
      "target": 34962
    },
    {
      "buffer": 0,
      "byteOffset": 35416,
      "byteLength": 6720,
      "target": 34963
    }
  ],
  "buffers": [
    {
      "byteLength": 42136,
      "uri": "machetee_08.bin"
    }
  ]
}