{
  "asset": {
    "version": "2.0",
    "generator": "XBG to GLTF Converter with Textures"
  },
  "scene": 0,
  "scenes": [
    {
      "name": "Scene",
      "nodes": [
        3
      ]
    }
  ],
  "nodes": [
    {
      "name": "Machetee_06",
      "children": [
        1
      ]
    },
    {
      "name": "Dual_Long_Blade_Frame",
      "translation": [
        0.22823776304721832,
        -0.18631595373153687,
        -0.2505538761615753
      ],
      "rotation": [
        -0.29983723565133313,
        -0.2935707607183233,
        0.10085635045832689,
        0.9020764035658978
      ]
    },
    {
      "name": "MeshNode_LOD0",
      "mesh": 0,
      "skin": 0
    },
    {
      "name": "Correction_Root",
      "rotation": [
        -0.70710678,
        0.0,
        0.0,
        0.70710678
      ],
      "children": [
        0,
        2
      ]
    }
  ],
  "meshes": [
    {
      "name": "Mesh_LOD0",
      "primitives": [
        {
          "attributes": {
            "POSITION": 1,
            "JOINTS_0": 3,
            "WEIGHTS_0": 4,
            "TEXCOORD_0": 2
          },
          "indices": 5,
          "material": 0
        }
      ]
    }
  ],
  "skins": [
    {
      "inverseBindMatrices": 0,
      "joints": [
        0,
        1
      ],
      "name": "Armature",
      "skeleton": 0
    }
  ],
  "materials": [
    {
      "name": "GRAPHICS\\_MATERIALS\\CSEAUT-M-2009071757672734.xbm",
      "pbrMetallicRoughness": {
        "baseColorFactor": [
          1.0,
          1.0,
          1.0,
          1.0
        ],
        "metallicFactor": 0.0,
        "roughnessFactor": 1.0,
        "baseColorTexture": {
          "index": 0,
          "texCoord": 0
        }
      },
      "doubleSided": true
    }
  ],
  "textures": [
    {
      "sampler": 0,
      "source": 0
    }
  ],
  "images": [
    {
      "name": "dual_long_blade_6_d",
      "mimeType": "image/png",
      "uri": "data:image/png;base64,"
    }
  ],
  "samplers": [
    {
      "magFilter": 9729,
      "minFilter": 9987,
      "wrapS": 10497,
      "wrapT": 10497
    }
  ],
  "accessors": [
    {
      "bufferView": 0,
      "componentType": 5126,
      "count": 2,
      "type": "MAT4"
    },
    {
      "bufferView": 1,
      "componentType": 5126,
      "count": 578,
      "type": "VEC3",
      "min": [
        -0.2054506056010723,
        -0.06897183135151863,
        -0.2174748983234167
      ],
      "max": [
        0.25446333177387714,
        0.047120578587055206,
        1.5751823466271162
      ]
    },
    {
      "bufferView": 2,
      "componentType": 5126,
      "count": 578,
      "type": "VEC2"
    },
    {
      "bufferView": 3,
      "componentType": 5123,
      "count": 578,
      "type": "VEC4"
    },
    {
      "bufferView": 4,
      "componentType": 5126,
      "count": 578,
      "type": "VEC4"
    },
    {
      "bufferView": 5,
      "componentType": 5123,
      "count": 2574,
      "type": "SCALAR"
    }
  ],
  "bufferViews": [
    {
      "buffer": 0,
      "byteOffset": 0,
      "byteLength": 128
    },
    {
      "buffer": 0,
      "byteOffset": 128,
      "byteLength": 6936,
      "target": 34962
    },
    {
      "buffer": 0,
      "byteOffset": 7064,
      "byteLength": 4624,
      "target": 34962
    },
    {
      "buffer": 0,
      "byteOffset": 11688,
      "byteLength": 4624,
      "target": 34962
    },
    {
      "buffer": 0,
      "byteOffset": 16312,
      "byteLength": 9248,
      "target": 34962
    },
    {
      "buffer": 0,
      "byteOffset": 25560,
      "byteLength": 5148,
      "target": 34963
    }
  ],
  "buffers": [
    {
      "byteLength": 30708,
      "uri": "machetee_06.bin"
    }
  ]
}