{
  "asset": {
    "version": "2.0",
    "generator": "XBG to GLTF Converter with Textures"
  },
  "scene": 0,
  "scenes": [
    {
      "name": "Scene",
      "nodes": [
        18
      ]
    }
  ],
  "nodes": [
    {
      "name": "Chicken_B",
      "children": [
        1
      ]
    },
    {
      "name": "Pelvis",
      "translation": [
        -9.99999993922529e-09,
        -0.09673196822404861,
        0.3111269176006317
      ],
      "rotation": [
        -0.46111189096259514,
        -0.5360743879819597,
        0.4611118332931077,
        0.5360745461717713
      ],
      "children": [
        2,
        5,
        7,
        9,
        13
      ]
    },
    {
      "name": "Neck",
      "translation": [
        0.23359315097331998,
        5.000000058430487e-08,
        9.99999993922528e-09
      ],
      "rotation": [
        6.01726800834522e-09,
        -6.017267987111476e-09,
        -0.6017267698641839,
        0.7987020060252856
      ],
      "children": [
        3
      ]
    },
    {
      "name": "Head",
      "translation": [
        0.11685776710510243,
        9.999999925347502e-09,
        6.617444900424222e-24
      ],
      "rotation": [
        2.650821207278319e-08,
        -6.627053323246183e-09,
        0.6627053011151737,
        0.748880286744047
      ],
      "children": [
        4
      ]
    },
    {
      "name": "Head nub",
      "translation": [
        0.1063591912388801,
        -9.99999993922529e-09,
        6.617444900424222e-24
      ],
      "rotation": [
        -6.617444900424222e-24,
        -8.762944614233637e-24,
        -2.168404344971008e-19,
        1.0
      ]
    },
    {
      "name": "R Wing",
      "translation": [
        0.20954960584640503,
        0.020197629928588867,
        -0.06978999823331834
      ],
      "rotation": [
        0.021689838371981563,
        0.8590025331015315,
        0.47756952196679275,
        0.1832254096101118
      ],
      "children": [
        6
      ]
    },
    {
      "name": "R Wing nub",
      "translation": [
        0.25249600410461426,
        -9.99999993922529e-09,
        3.999999978465674e-08
      ],
      "rotation": [
        4.1633363423443376e-17,
        0.0,
        4.85722573273506e-17,
        1.0
      ]
    },
    {
      "name": "L Wing",
      "translation": [
        0.209549605846405,
        0.02019760012626648,
        0.06978855282068253
      ],
      "rotation": [
        0.1832253621804287,
        0.4775693389463637,
        0.8590026454349938,
        0.02168981496142699
      ],
      "children": [
        8
      ]
    },
    {
      "name": "L Wing nub",
      "translation": [
        0.25249603390693665,
        2.999999892949745e-08,
        2.999999892949745e-08
      ],
      "rotation": [
        4.163336342344337e-17,
        -9.714451465470118e-17,
        1.1796119636642288e-16,
        1.0
      ]
    },
    {
      "name": "R Thigh",
      "translation": [
        0.13095511496067047,
        0.09521100670099261,
        -0.032990001142024994
      ],
      "rotation": [
        0.5213289226596844,
        0.8533558193381734,
        3.599999988509985e-07,
        1.9470717977979583e-07
      ],
      "children": [
        10
      ]
    },
    {
      "name": "R Calf",
      "translation": [
        0.1415041238289298,
        -1.9997366301066632e-08,
        0.0
      ],
      "rotation": [
        2.728514234946259e-08,
        8.210980278054881e-08,
        0.19530027648590528,
        0.9807434945002295
      ],
      "children": [
        11
      ]
    },
    {
      "name": "R Foot",
      "translation": [
        0.07530476152246895,
        -1.999954113603153e-08,
        3.999999974996227e-08
      ],
      "rotation": [
        0.9994041868068336,
        -0.03451479953574773,
        -2.3599775801751726e-06,
        -6.397566134665561e-07
      ],
      "children": [
        12
      ]
    },
    {
      "name": "R Leg nub",
      "translation": [
        0.027294319123681687,
        9.627715291671279e-17,
        -9.999999946164184e-09
      ],
      "rotation": [
        -1.9883254335168742e-16,
        -1.2565779296303296e-12,
        7.670730370334944e-18,
        1.0
      ]
    },
    {
      "name": "L Thigh",
      "translation": [
        0.13095510005950925,
        0.09521099179983142,
        0.032993718981742866
      ],
      "rotation": [
        6.826850021466183e-08,
        1.0240274134101973e-07,
        0.8533562461770638,
        0.5213282239727439
      ],
      "children": [
        14
      ]
    },
    {
      "name": "L Calf",
      "translation": [
        0.14150413870811468,
        2.999999892255856e-08,
        6.938893903907228e-18
      ],
      "rotation": [
        9.765125560292763e-09,
        -1.9530250670674987e-09,
        -0.19530248573895806,
        0.980743054558218
      ],
      "children": [
        15
      ]
    },
    {
      "name": "L Foot",
      "translation": [
        0.07530490309000015,
        1.9999999876715857e-08,
        -9.99999993922529e-09
      ],
      "rotation": [
        3.210022798456279e-08,
        9.422970413874285e-08,
        0.03451613307968705,
        0.9994041407544875
      ],
      "children": [
        16
      ]
    },
    {
      "name": "L Leg nub",
      "translation": [
        0.02729431914043706,
        2.7755575615628914e-17,
        -9.99999993922529e-09
      ],
      "rotation": [
        1.6541217407732995e-14,
        -1.8139027137596128e-10,
        6.045361558354098e-14,
        1.0
      ]
    },
    {
      "name": "MeshNode_LOD0",
      "mesh": 0,
      "skin": 0
    },
    {
      "name": "Correction_Root",
      "rotation": [
        -0.70710678,
        0.0,
        0.0,
        0.70710678
      ],
      "children": [
        0,
        17
      ]
    }
  ],
  "meshes": [
    {
      "name": "Mesh_LOD0",
      "primitives": [
        {
          "attributes": {
            "POSITION": 1,
            "JOINTS_0": 3,
            "WEIGHTS_0": 4,
            "TEXCOORD_0": 2
          },
          "indices": 5,
          "material": 0
        }
      ]
    }
  ],
  "skins": [
    {
      "inverseBindMatrices": 0,
      "joints": [
        0,
        1,
        2,
        3,
        4,
        5,
        6,
        7,
        8,
        9,
        10,
        11,
        12,
        13,
        14,
        15,
        16
      ],
      "name": "Armature",
      "skeleton": 0
    }
  ],
  "materials": [
    {
      "name": "GRAPHICS\\_MATERIALS\\AAMANCIO-M-2007112938617280.xbm",
      "pbrMetallicRoughness": {
        "baseColorFactor": [
          1.0,
          1.0,
          1.0,
          1.0
        ],
        "metallicFactor": 0.0,
        "roughnessFactor": 1.0,
        "baseColorTexture": {
          "index": 0,
          "texCoord": 0
        }
      },
      "doubleSided": true
    }
  ],
  "textures": [
    {
      "sampler": 0,
      "source": 0
    }
  ],
  "images": [
    {
      "name": "char_chicken_03_d",
      "mimeType": "image/png",
      "uri": "data:image/png;base64,"
    }
  ],
  "samplers": [
    {
      "magFilter": 9729,
      "minFilter": 9987,
      "wrapS": 10497,
      "wrapT": 10497
    }
  ],
  "accessors": [
    {
      "bufferView": 0,
      "componentType": 5126,
      "count": 17,
      "type": "MAT4"
    },
    {
      "bufferView": 1,
      "componentType": 5126,
      "count": 312,
      "type": "VEC3",
      "min": [
        -0.14697714149951935,
        -0.2564165163785219,
        0.0
      ],
      "max": [
        0.14694662299007177,
        0.25638599786907434,
        0.5694448677822948
      ]
    },
    {
      "bufferView": 2,
      "componentType": 5126,
      "count": 312,
      "type": "VEC2"
    },
    {
      "bufferView": 3,
      "componentType": 5123,
      "count": 312,
      "type": "VEC4"
    },
    {
      "bufferView": 4,
      "componentType": 5126,
      "count": 312,
      "type": "VEC4"
    },
    {
      "bufferView": 5,
      "componentType": 5123,
      "count": 1464,
      "type": "SCALAR"
    }
  ],
  "bufferViews": [
    {
      "buffer": 0,
      "byteOffset": 0,
      "byteLength": 1088
    },
    {
      "buffer": 0,
      "byteOffset": 1088,
      "byteLength": 3744,
      "target": 34962
    },
    {
      "buffer": 0,
      "byteOffset": 4832,
      "byteLength": 2496,
      "target": 34962
    },
    {
      "buffer": 0,
      "byteOffset": 7328,
      "byteLength": 2496,
      "target": 34962
    },
    {
      "buffer": 0,
      "byteOffset": 9824,
      "byteLength": 4992,
      "target": 34962
    },
    {
      "buffer": 0,
      "byteOffset": 14816,
      "byteLength": 2928,
      "target": 34963
    }
  ],
  "buffers": [
    {
      "byteLength": 17744,
      "uri": "chicken_b.bin"
    }
  ]
}