{
  "asset": {
    "version": "2.0",
    "generator": "XBG to GLTF Converter with Textures"
  },
  "scene": 0,
  "scenes": [
    {
      "name": "Scene",
      "nodes": [
        2
      ]
    }
  ],
  "nodes": [
    {
      "name": "RF_BranchPile_C"
    },
    {
      "name": "MeshNode_LOD0",
      "mesh": 0,
      "skin": 0
    },
    {
      "name": "Correction_Root",
      "rotation": [
        -0.70710678,
        0.0,
        0.0,
        0.70710678
      ],
      "children": [
        0,
        1
      ]
    }
  ],
  "meshes": [
    {
      "name": "Mesh_LOD0",
      "primitives": [
        {
          "attributes": {
            "POSITION": 1,
            "JOINTS_0": 3,
            "WEIGHTS_0": 4,
            "TEXCOORD_0": 2
          },
          "indices": 5,
          "material": 0
        }
      ]
    }
  ],
  "skins": [
    {
      "inverseBindMatrices": 0,
      "joints": [
        0
      ],
      "name": "Armature",
      "skeleton": 0
    }
  ],
  "materials": [
    {
      "name": "GRAPHICS\\_MATERIALS\\DHAWEY-M-2008041860842686.xbm",
      "pbrMetallicRoughness": {
        "baseColorFactor": [
          1.0,
          1.0,
          1.0,
          1.0
        ],
        "metallicFactor": 0.0,
        "roughnessFactor": 1.0,
        "baseColorTexture": {
          "index": 0,
          "texCoord": 0
        }
      },
      "doubleSided": true
    }
  ],
  "textures": [
    {
      "sampler": 0,
      "source": 0
    }
  ],
  "images": [
    {
      "name": "rf_alpha_bark_corp_d",
      "mimeType": "image/png",
      "uri": "data:image/png;base64,"
    }
  ],
  "samplers": [
    {
      "magFilter": 9729,
      "minFilter": 9987,
      "wrapS": 10497,
      "wrapT": 10497
    }
  ],
  "accessors": [
    {
      "bufferView": 0,
      "componentType": 5126,
      "count": 1,
      "type": "MAT4"
    },
    {
      "bufferView": 1,
      "componentType": 5126,
      "count": 782,
      "type": "VEC3",
      "min": [
        -1.833185825496912,
        -1.3021637611091137,
        -0.5925473794341087
      ],
      "max": [
        1.3592944107949734,
        0.923123873770237,
        3.9283425360918045
      ]
    },
    {
      "bufferView": 2,
      "componentType": 5126,
      "count": 782,
      "type": "VEC2"
    },
    {
      "bufferView": 3,
      "componentType": 5123,
      "count": 782,
      "type": "VEC4"
    },
    {
      "bufferView": 4,
      "componentType": 5126,
      "count": 782,
      "type": "VEC4"
    },
    {
      "bufferView": 5,
      "componentType": 5123,
      "count": 3120,
      "type": "SCALAR"
    }
  ],
  "bufferViews": [
    {
      "buffer": 0,
      "byteOffset": 0,
      "byteLength": 64
    },
    {
      "buffer": 0,
      "byteOffset": 64,
      "byteLength": 9384,
      "target": 34962
    },
    {
      "buffer": 0,
      "byteOffset": 9448,
      "byteLength": 6256,
      "target": 34962
    },
    {
      "buffer": 0,
      "byteOffset": 15704,
      "byteLength": 6256,
      "target": 34962
    },
    {
      "buffer": 0,
      "byteOffset": 21960,
      "byteLength": 12512,
      "target": 34962
    },
    {
      "buffer": 0,
      "byteOffset": 34472,
      "byteLength": 6240,
      "target": 34963
    }
  ],
  "buffers": [
    {
      "byteLength": 40712,
      "uri": "rf_branchpile_c.bin"
    }
  ]
}