{
  "asset": {
    "version": "2.0",
    "generator": "XBG to GLTF Converter with Textures"
  },
  "scene": 0,
  "scenes": [
    {
      "name": "Scene",
      "nodes": [
        12
      ]
    }
  ],
  "nodes": [
    {
      "name": "Baja_Tickler_01_Breakable",
      "children": [
        1
      ]
    },
    {
      "name": "OF_Baja_Tickler_01_STATE",
      "children": [
        2,
        4,
        6,
        8,
        10
      ]
    },
    {
      "name": "OF_Baja_Tickler_01_STATE1",
      "children": [
        3
      ]
    },
    {
      "name": "SwitchFX1",
      "translation": [
        0.9091219902038574,
        0.0,
        3.7809743881225586
      ],
      "rotation": [
        0.7064337730451875,
        0.030843563445307448,
        -0.03084356337805002,
        0.7064337714900226
      ]
    },
    {
      "name": "OF_Baja_Tickler_01_STATE2",
      "children": [
        5
      ]
    },
    {
      "name": "SwitchFX2",
      "translation": [
        0.44908109307289124,
        0.0,
        3.784959554672241
      ],
      "rotation": [
        0.7064337730451875,
        0.030843563445307448,
        -0.03084356337805002,
        0.7064337714900226
      ]
    },
    {
      "name": "OF_Baja_Tickler_01_STATE3",
      "children": [
        7
      ]
    },
    {
      "name": "SwitchFX3",
      "translation": [
        -0.3230226933956146,
        0.0,
        4.192615032196045
      ],
      "rotation": [
        0.6830127227973943,
        -0.1830126912807667,
        0.18301272362119675,
        0.6830126763811429
      ]
    },
    {
      "name": "OF_Baja_Tickler_01_STATE4",
      "children": [
        9
      ]
    },
    {
      "name": "SwitchFX4",
      "translation": [
        1.849108099937439,
        0.0,
        1.7619857788085938
      ],
      "rotation": [
        0.7372773289272533,
        0.0,
        0.0,
        0.675590216218304
      ]
    },
    {
      "name": "OF_Baja_Tickler_01_STATE5"
    },
    {
      "name": "MeshNode_LOD0",
      "mesh": 0,
      "skin": 0
    },
    {
      "name": "Correction_Root",
      "rotation": [
        -0.70710678,
        0.0,
        0.0,
        0.70710678
      ],
      "children": [
        0,
        11
      ]
    }
  ],
  "meshes": [
    {
      "name": "Mesh_LOD0",
      "primitives": [
        {
          "attributes": {
            "POSITION": 1,
            "JOINTS_0": 3,
            "WEIGHTS_0": 4,
            "TEXCOORD_0": 2
          },
          "indices": 5,
          "material": 1
        },
        {
          "attributes": {
            "POSITION": 1,
            "JOINTS_0": 3,
            "WEIGHTS_0": 4,
            "TEXCOORD_0": 2
          },
          "indices": 6,
          "material": 2
        },
        {
          "attributes": {
            "POSITION": 1,
            "JOINTS_0": 3,
            "WEIGHTS_0": 4,
            "TEXCOORD_0": 2
          },
          "indices": 7,
          "material": 0
        },
        {
          "attributes": {
            "POSITION": 1,
            "JOINTS_0": 3,
            "WEIGHTS_0": 4,
            "TEXCOORD_0": 2
          },
          "indices": 8,
          "material": 1
        },
        {
          "attributes": {
            "POSITION": 1,
            "JOINTS_0": 3,
            "WEIGHTS_0": 4,
            "TEXCOORD_0": 2
          },
          "indices": 9,
          "material": 2
        },
        {
          "attributes": {
            "POSITION": 1,
            "JOINTS_0": 3,
            "WEIGHTS_0": 4,
            "TEXCOORD_0": 2
          },
          "indices": 10,
          "material": 0
        },
        {
          "attributes": {
            "POSITION": 1,
            "JOINTS_0": 3,
            "WEIGHTS_0": 4,
            "TEXCOORD_0": 2
          },
          "indices": 11,
          "material": 1
        },
        {
          "attributes": {
            "POSITION": 1,
            "JOINTS_0": 3,
            "WEIGHTS_0": 4,
            "TEXCOORD_0": 2
          },
          "indices": 12,
          "material": 2
        },
        {
          "attributes": {
            "POSITION": 1,
            "JOINTS_0": 3,
            "WEIGHTS_0": 4,
            "TEXCOORD_0": 2
          },
          "indices": 13,
          "material": 0
        },
        {
          "attributes": {
            "POSITION": 1,
            "JOINTS_0": 3,
            "WEIGHTS_0": 4,
            "TEXCOORD_0": 2
          },
          "indices": 14,
          "material": 1
        },
        {
          "attributes": {
            "POSITION": 1,
            "JOINTS_0": 3,
            "WEIGHTS_0": 4,
            "TEXCOORD_0": 2
          },
          "indices": 15,
          "material": 2
        },
        {
          "attributes": {
            "POSITION": 1,
            "JOINTS_0": 3,
            "WEIGHTS_0": 4,
            "TEXCOORD_0": 2
          },
          "indices": 16,
          "material": 0
        },
        {
          "attributes": {
            "POSITION": 1,
            "JOINTS_0": 3,
            "WEIGHTS_0": 4,
            "TEXCOORD_0": 2
          },
          "indices": 17,
          "material": 1
        },
        {
          "attributes": {
            "POSITION": 1,
            "JOINTS_0": 3,
            "WEIGHTS_0": 4,
            "TEXCOORD_0": 2
          },
          "indices": 18,
          "material": 2
        }
      ]
    }
  ],
  "skins": [
    {
      "inverseBindMatrices": 0,
      "joints": [
        0,
        1,
        2,
        3,
        4,
        5,
        6,
        7,
        8,
        9,
        10
      ],
      "name": "Armature",
      "skeleton": 0
    }
  ],
  "materials": [
    {
      "name": "GRAPHICS\\_MATERIALS\\XPERREAULT-M-2009070240065638.xbm",
      "pbrMetallicRoughness": {
        "baseColorFactor": [
          1.0,
          1.0,
          1.0,
          1.0
        ],
        "metallicFactor": 0.0,
        "roughnessFactor": 1.0,
        "baseColorTexture": {
          "index": 0,
          "texCoord": 0
        }
      },
      "doubleSided": true
    },
    {
      "name": "GRAPHICS\\_MATERIALS\\DLAJEUNESSE-M-2008070447258845.xbm",
      "pbrMetallicRoughness": {
        "baseColorFactor": [
          1.0,
          1.0,
          1.0,
          1.0
        ],
        "metallicFactor": 0.0,
        "roughnessFactor": 1.0,
        "baseColorTexture": {
          "index": 1,
          "texCoord": 0
        }
      },
      "doubleSided": true
    },
    {
      "name": "GRAPHICS\\_MATERIALS\\DLAJEUNESSE-M-2008070361379088.xbm",
      "pbrMetallicRoughness": {
        "baseColorFactor": [
          1.0,
          1.0,
          1.0,
          1.0
        ],
        "metallicFactor": 0.0,
        "roughnessFactor": 1.0,
        "baseColorTexture": {
          "index": 2,
          "texCoord": 0
        }
      },
      "doubleSided": true
    }
  ],
  "textures": [
    {
      "sampler": 0,
      "source": 0
    },
    {
      "sampler": 0,
      "source": 1
    },
    {
      "sampler": 0,
      "source": 2
    }
  ],
  "images": [
    {
      "name": "of_baja_tickler_breakable_d",
      "mimeType": "image/png",
      "uri": "data:image/png;base64,"
    },
    {
      "name": "of_baja_tickler_leaf_d",
      "mimeType": "image/png",
      "uri": "data:image/png;base64,"
    },
    {
      "name": "of_baja_tickler_moss_c_d",
      "mimeType": "image/png",
      "uri": "data:image/png;base64,"
    }
  ],
  "samplers": [
    {
      "magFilter": 9729,
      "minFilter": 9987,
      "wrapS": 10497,
      "wrapT": 10497
    }
  ],
  "accessors": [
    {
      "bufferView": 0,
      "componentType": 5126,
      "count": 11,
      "type": "MAT4"
    },
    {
      "bufferView": 1,
      "componentType": 5126,
      "count": 8652,
      "type": "VEC3",
      "min": [
        -9.518051689490676,
        -2.213202305138111,
        -0.0516983550041914
      ],
      "max": [
        6.673360386863351,
        2.050416575744748,
        13.138218317180872
      ]
    },
    {
      "bufferView": 2,
      "componentType": 5126,
      "count": 8652,
      "type": "VEC2"
    },
    {
      "bufferView": 3,
      "componentType": 5123,
      "count": 8652,
      "type": "VEC4"
    },
    {
      "bufferView": 4,
      "componentType": 5126,
      "count": 8652,
      "type": "VEC4"
    },
    {
      "bufferView": 5,
      "componentType": 5123,
      "count": 2538,
      "type": "SCALAR"
    },
    {
      "bufferView": 6,
      "componentType": 5123,
      "count": 5064,
      "type": "SCALAR"
    },
    {
      "bufferView": 7,
      "componentType": 5123,
      "count": 249,
      "type": "SCALAR"
    },
    {
      "bufferView": 8,
      "componentType": 5123,
      "count": 2502,
      "type": "SCALAR"
    },
    {
      "bufferView": 9,
      "componentType": 5123,
      "count": 5187,
      "type": "SCALAR"
    },
    {
      "bufferView": 10,
      "componentType": 5123,
      "count": 609,
      "type": "SCALAR"
    },
    {
      "bufferView": 11,
      "componentType": 5123,
      "count": 2046,
      "type": "SCALAR"
    },
    {
      "bufferView": 12,
      "componentType": 5123,
      "count": 4863,
      "type": "SCALAR"
    },
    {
      "bufferView": 13,
      "componentType": 5123,
      "count": 510,
      "type": "SCALAR"
    },
    {
      "bufferView": 14,
      "componentType": 5123,
      "count": 1776,
      "type": "SCALAR"
    },
    {
      "bufferView": 15,
      "componentType": 5123,
      "count": 3804,
      "type": "SCALAR"
    },
    {
      "bufferView": 16,
      "componentType": 5123,
      "count": 195,
      "type": "SCALAR"
    },
    {
      "bufferView": 17,
      "componentType": 5123,
      "count": 654,
      "type": "SCALAR"
    },
    {
      "bufferView": 18,
      "componentType": 5123,
      "count": 2787,
      "type": "SCALAR"
    }
  ],
  "bufferViews": [
    {
      "buffer": 0,
      "byteOffset": 0,
      "byteLength": 704
    },
    {
      "buffer": 0,
      "byteOffset": 704,
      "byteLength": 103824,
      "target": 34962
    },
    {
      "buffer": 0,
      "byteOffset": 104528,
      "byteLength": 69216,
      "target": 34962
    },
    {
      "buffer": 0,
      "byteOffset": 173744,
      "byteLength": 69216,
      "target": 34962
    },
    {
      "buffer": 0,
      "byteOffset": 242960,
      "byteLength": 138432,
      "target": 34962
    },
    {
      "buffer": 0,
      "byteOffset": 381392,
      "byteLength": 5076,
      "target": 34963
    },
    {
      "buffer": 0,
      "byteOffset": 386468,
      "byteLength": 10128,
      "target": 34963
    },
    {
      "buffer": 0,
      "byteOffset": 396596,
      "byteLength": 498,
      "target": 34963
    },
    {
      "buffer": 0,
      "byteOffset": 397094,
      "byteLength": 5004,
      "target": 34963
    },
    {
      "buffer": 0,
      "byteOffset": 402098,
      "byteLength": 10374,
      "target": 34963
    },
    {
      "buffer": 0,
      "byteOffset": 412472,
      "byteLength": 1218,
      "target": 34963
    },
    {
      "buffer": 0,
      "byteOffset": 413690,
      "byteLength": 4092,
      "target": 34963
    },
    {
      "buffer": 0,
      "byteOffset": 417782,
      "byteLength": 9726,
      "target": 34963
    },
    {
      "buffer": 0,
      "byteOffset": 427508,
      "byteLength": 1020,
      "target": 34963
    },
    {
      "buffer": 0,
      "byteOffset": 428528,
      "byteLength": 3552,
      "target": 34963
    },
    {
      "buffer": 0,
      "byteOffset": 432080,
      "byteLength": 7608,
      "target": 34963
    },
    {
      "buffer": 0,
      "byteOffset": 439688,
      "byteLength": 390,
      "target": 34963
    },
    {
      "buffer": 0,
      "byteOffset": 440078,
      "byteLength": 1308,
      "target": 34963
    },
    {
      "buffer": 0,
      "byteOffset": 441386,
      "byteLength": 5574,
      "target": 34963
    }
  ],
  "buffers": [
    {
      "byteLength": 446960,
      "uri": "of_baja_tickler_01_breakable.bin"
    }
  ]
}