{
  "asset": {
    "version": "2.0",
    "generator": "XBG to GLTF Converter with Textures"
  },
  "scene": 0,
  "scenes": [
    {
      "name": "Scene",
      "nodes": [
        8
      ]
    }
  ],
  "nodes": [
    {
      "name": "COMBAT_SHOTGUN",
      "children": [
        1,
        2,
        3,
        4,
        5,
        6
      ]
    },
    {
      "name": "COMBAT_SHOTGUN_FX_FIRE",
      "translation": [
        0.5217227935791016,
        0.0022399600129574537,
        0.13379763066768646
      ],
      "rotation": [
        -1.697056291050108e-07,
        1.6970560899112813e-07,
        -0.7071067690849289,
        0.7071067932881252
      ]
    },
    {
      "name": "COMBAT_SHOTGUN_FRAME",
      "translation": [
        -0.2615373432636261,
        0.00492716021835804,
        -0.0441807396709919
      ]
    },
    {
      "name": "COMBAT_SHOTGUN_CLIP",
      "translation": [
        -0.16424015164375305,
        0.006526949815452099,
        0.008658469654619694
      ]
    },
    {
      "name": "COMBAT_SHOTGUN_PUMP",
      "translation": [
        0.3020763397216797,
        0.005441389977931976,
        0.01975923962891102
      ]
    },
    {
      "name": "COMBAT_SHOTGUN_FX_CASING",
      "translation": [
        -0.08266881108283997,
        -0.04375915974378586,
        0.1644464135169983
      ],
      "rotation": [
        -1.999999986394099e-08,
        0.3007058233210231,
        0.9537169432388329,
        -4.37113895270942e-08
      ]
    },
    {
      "name": "COMBAT_SHOTGUN_CLIP_B",
      "translation": [
        0.1615380197763443,
        -0.013192540034651756,
        -0.010965259745717049
      ]
    },
    {
      "name": "MeshNode_LOD0",
      "mesh": 0,
      "skin": 0
    },
    {
      "name": "Correction_Root",
      "rotation": [
        -0.70710678,
        0.0,
        0.0,
        0.70710678
      ],
      "children": [
        0,
        7
      ]
    }
  ],
  "meshes": [
    {
      "name": "Mesh_LOD0",
      "primitives": [
        {
          "attributes": {
            "POSITION": 1,
            "JOINTS_0": 3,
            "WEIGHTS_0": 4,
            "TEXCOORD_0": 2
          },
          "indices": 5,
          "material": 1
        },
        {
          "attributes": {
            "POSITION": 1,
            "JOINTS_0": 3,
            "WEIGHTS_0": 4,
            "TEXCOORD_0": 2
          },
          "indices": 6,
          "material": 1
        },
        {
          "attributes": {
            "POSITION": 1,
            "JOINTS_0": 3,
            "WEIGHTS_0": 4,
            "TEXCOORD_0": 2
          },
          "indices": 7,
          "material": 1
        },
        {
          "attributes": {
            "POSITION": 1,
            "JOINTS_0": 3,
            "WEIGHTS_0": 4,
            "TEXCOORD_0": 2
          },
          "indices": 8,
          "material": 0
        }
      ]
    }
  ],
  "skins": [
    {
      "inverseBindMatrices": 0,
      "joints": [
        0,
        1,
        2,
        3,
        4,
        5,
        6
      ],
      "name": "Armature",
      "skeleton": 0
    }
  ],
  "materials": [
    {
      "name": "GRAPHICS\\_MATERIALS\\TGILLET-M-2008040859116669.xbm",
      "pbrMetallicRoughness": {
        "baseColorFactor": [
          1.0,
          1.0,
          1.0,
          1.0
        ],
        "metallicFactor": 0.0,
        "roughnessFactor": 1.0,
        "baseColorTexture": {
          "index": 0,
          "texCoord": 0
        }
      },
      "doubleSided": true
    },
    {
      "name": "GRAPHICS\\_MATERIALS\\SGAGNON-M-2009011641145542.xbm",
      "pbrMetallicRoughness": {
        "baseColorFactor": [
          1.0,
          1.0,
          1.0,
          1.0
        ],
        "metallicFactor": 0.0,
        "roughnessFactor": 1.0,
        "baseColorTexture": {
          "index": 1,
          "texCoord": 0
        }
      },
      "doubleSided": true
    }
  ],
  "textures": [
    {
      "sampler": 0,
      "source": 0
    },
    {
      "sampler": 0,
      "source": 1
    }
  ],
  "images": [
    {
      "name": "shotgun_a_d",
      "mimeType": "image/png",
      "uri": "data:image/png;base64,"
    },
    {
      "name": "shotgun_3rd_01_d",
      "mimeType": "image/png",
      "uri": "data:image/png;base64,"
    }
  ],
  "samplers": [
    {
      "magFilter": 9729,
      "minFilter": 9987,
      "wrapS": 10497,
      "wrapT": 10497
    }
  ],
  "accessors": [
    {
      "bufferView": 0,
      "componentType": 5126,
      "count": 7,
      "type": "MAT4"
    },
    {
      "bufferView": 1,
      "componentType": 5126,
      "count": 830,
      "type": "VEC3",
      "min": [
        -0.3621021145954728,
        -0.0474868007004261,
        -0.09991759993135929
      ],
      "max": [
        0.7765739914029837,
        0.03625598922371864,
        0.2297433391213417
      ]
    },
    {
      "bufferView": 2,
      "componentType": 5126,
      "count": 830,
      "type": "VEC2"
    },
    {
      "bufferView": 3,
      "componentType": 5123,
      "count": 830,
      "type": "VEC4"
    },
    {
      "bufferView": 4,
      "componentType": 5126,
      "count": 830,
      "type": "VEC4"
    },
    {
      "bufferView": 5,
      "componentType": 5123,
      "count": 1443,
      "type": "SCALAR"
    },
    {
      "bufferView": 6,
      "componentType": 5123,
      "count": 36,
      "type": "SCALAR"
    },
    {
      "bufferView": 7,
      "componentType": 5123,
      "count": 252,
      "type": "SCALAR"
    },
    {
      "bufferView": 8,
      "componentType": 5123,
      "count": 6,
      "type": "SCALAR"
    }
  ],
  "bufferViews": [
    {
      "buffer": 0,
      "byteOffset": 0,
      "byteLength": 448
    },
    {
      "buffer": 0,
      "byteOffset": 448,
      "byteLength": 9960,
      "target": 34962
    },
    {
      "buffer": 0,
      "byteOffset": 10408,
      "byteLength": 6640,
      "target": 34962
    },
    {
      "buffer": 0,
      "byteOffset": 17048,
      "byteLength": 6640,
      "target": 34962
    },
    {
      "buffer": 0,
      "byteOffset": 23688,
      "byteLength": 13280,
      "target": 34962
    },
    {
      "buffer": 0,
      "byteOffset": 36968,
      "byteLength": 2886,
      "target": 34963
    },
    {
      "buffer": 0,
      "byteOffset": 39854,
      "byteLength": 72,
      "target": 34963
    },
    {
      "buffer": 0,
      "byteOffset": 39926,
      "byteLength": 504,
      "target": 34963
    },
    {
      "buffer": 0,
      "byteOffset": 40430,
      "byteLength": 12,
      "target": 34963
    }
  ],
  "buffers": [
    {
      "byteLength": 40442,
      "uri": "combat_shotgun.bin"
    }
  ]
}