{
  "asset": {
    "version": "2.0",
    "generator": "XBG to GLTF Converter with Textures"
  },
  "scene": 0,
  "scenes": [
    {
      "name": "Scene",
      "nodes": [
        8
      ]
    }
  ],
  "nodes": [
    {
      "name": "COMBAT_SHOTGUN_05",
      "children": [
        1,
        2,
        3,
        4,
        5,
        6
      ]
    },
    {
      "name": "COMBAT_SHOTGUN_FX_FIRE",
      "translation": [
        0.4492639899253845,
        0.011661279946565628,
        0.11510708183050156
      ],
      "rotation": [
        -1.697056291050108e-07,
        1.6970560899112813e-07,
        -0.7071067690849289,
        0.7071067932881252
      ]
    },
    {
      "name": "COMBAT_SHOTGUN_FRAME",
      "translation": [
        -0.2615373432636261,
        0.00492716021835804,
        -0.0441807396709919
      ]
    },
    {
      "name": "COMBAT_SHOTGUN_CLIP",
      "translation": [
        -0.16424015164375305,
        0.006526949815452099,
        0.008658469654619694
      ]
    },
    {
      "name": "COMBAT_SHOTGUN_PUMP",
      "translation": [
        0.3020763397216797,
        0.005441389977931976,
        0.01975923962891102
      ]
    },
    {
      "name": "COMBAT_SHOTGUN_FX_CASING",
      "translation": [
        -0.002443110104650259,
        -0.04295814037322998,
        0.1321313977241516
      ],
      "rotation": [
        -1.0000000016934162e-08,
        0.1753760247798608,
        0.9845015235805435,
        -4.371138605641325e-08
      ]
    },
    {
      "name": "COMBAT_SHOTGUN_CLIP_B",
      "translation": [
        0.1615380197763443,
        -0.013192540034651756,
        -0.010965259745717049
      ]
    },
    {
      "name": "MeshNode_LOD0",
      "mesh": 0,
      "skin": 0
    },
    {
      "name": "Correction_Root",
      "rotation": [
        -0.70710678,
        0.0,
        0.0,
        0.70710678
      ],
      "children": [
        0,
        7
      ]
    }
  ],
  "meshes": [
    {
      "name": "Mesh_LOD0",
      "primitives": [
        {
          "attributes": {
            "POSITION": 1,
            "JOINTS_0": 3,
            "WEIGHTS_0": 4,
            "TEXCOORD_0": 2
          },
          "indices": 5,
          "material": 0
        },
        {
          "attributes": {
            "POSITION": 1,
            "JOINTS_0": 3,
            "WEIGHTS_0": 4,
            "TEXCOORD_0": 2
          },
          "indices": 6,
          "material": 0
        },
        {
          "attributes": {
            "POSITION": 1,
            "JOINTS_0": 3,
            "WEIGHTS_0": 4,
            "TEXCOORD_0": 2
          },
          "indices": 7,
          "material": 1
        },
        {
          "attributes": {
            "POSITION": 1,
            "JOINTS_0": 3,
            "WEIGHTS_0": 4,
            "TEXCOORD_0": 2
          },
          "indices": 8,
          "material": 0
        }
      ]
    }
  ],
  "skins": [
    {
      "inverseBindMatrices": 0,
      "joints": [
        0,
        1,
        2,
        3,
        4,
        5,
        6
      ],
      "name": "Armature",
      "skeleton": 0
    }
  ],
  "materials": [
    {
      "name": "GRAPHICS\\_MATERIALS\\GRASSAM-M-2009042747369847.xbm",
      "pbrMetallicRoughness": {
        "baseColorFactor": [
          1.0,
          1.0,
          1.0,
          1.0
        ],
        "metallicFactor": 0.0,
        "roughnessFactor": 1.0,
        "baseColorTexture": {
          "index": 0,
          "texCoord": 0
        }
      },
      "doubleSided": true
    },
    {
      "name": "GRAPHICS\\_MATERIALS\\GRASSAM-M-2009071055066763.xbm",
      "pbrMetallicRoughness": {
        "baseColorFactor": [
          1.0,
          1.0,
          1.0,
          1.0
        ],
        "metallicFactor": 0.0,
        "roughnessFactor": 1.0,
        "baseColorTexture": {
          "index": 1,
          "texCoord": 0
        }
      },
      "doubleSided": true
    }
  ],
  "textures": [
    {
      "sampler": 0,
      "source": 0
    },
    {
      "sampler": 0,
      "source": 1
    }
  ],
  "images": [
    {
      "name": "shotgun_3rd_05_d",
      "mimeType": "image/png",
      "uri": "data:image/png;base64,"
    },
    {
      "name": "shotgun_3rd_handle_d",
      "mimeType": "image/png",
      "uri": "data:image/png;base64,"
    }
  ],
  "samplers": [
    {
      "magFilter": 9729,
      "minFilter": 9987,
      "wrapS": 10497,
      "wrapT": 10497
    }
  ],
  "accessors": [
    {
      "bufferView": 0,
      "componentType": 5126,
      "count": 7,
      "type": "MAT4"
    },
    {
      "bufferView": 1,
      "componentType": 5126,
      "count": 606,
      "type": "VEC3",
      "min": [
        -0.3621021145954728,
        -0.02414014097303152,
        -0.11261329986155033
      ],
      "max": [
        0.721091341227293,
        0.03549302648752928,
        0.20447401329874992
      ]
    },
    {
      "bufferView": 2,
      "componentType": 5126,
      "count": 606,
      "type": "VEC2"
    },
    {
      "bufferView": 3,
      "componentType": 5123,
      "count": 606,
      "type": "VEC4"
    },
    {
      "bufferView": 4,
      "componentType": 5126,
      "count": 606,
      "type": "VEC4"
    },
    {
      "bufferView": 5,
      "componentType": 5123,
      "count": 1146,
      "type": "SCALAR"
    },
    {
      "bufferView": 6,
      "componentType": 5123,
      "count": 36,
      "type": "SCALAR"
    },
    {
      "bufferView": 7,
      "componentType": 5123,
      "count": 288,
      "type": "SCALAR"
    },
    {
      "bufferView": 8,
      "componentType": 5123,
      "count": 6,
      "type": "SCALAR"
    }
  ],
  "bufferViews": [
    {
      "buffer": 0,
      "byteOffset": 0,
      "byteLength": 448
    },
    {
      "buffer": 0,
      "byteOffset": 448,
      "byteLength": 7272,
      "target": 34962
    },
    {
      "buffer": 0,
      "byteOffset": 7720,
      "byteLength": 4848,
      "target": 34962
    },
    {
      "buffer": 0,
      "byteOffset": 12568,
      "byteLength": 4848,
      "target": 34962
    },
    {
      "buffer": 0,
      "byteOffset": 17416,
      "byteLength": 9696,
      "target": 34962
    },
    {
      "buffer": 0,
      "byteOffset": 27112,
      "byteLength": 2292,
      "target": 34963
    },
    {
      "buffer": 0,
      "byteOffset": 29404,
      "byteLength": 72,
      "target": 34963
    },
    {
      "buffer": 0,
      "byteOffset": 29476,
      "byteLength": 576,
      "target": 34963
    },
    {
      "buffer": 0,
      "byteOffset": 30052,
      "byteLength": 12,
      "target": 34963
    }
  ],
  "buffers": [
    {
      "byteLength": 30064,
      "uri": "combat_shotgun_05.bin"
    }
  ]
}