{
  "asset": {
    "version": "2.0",
    "generator": "XBG to GLTF Converter with Textures"
  },
  "scene": 0,
  "scenes": [
    {
      "name": "Scene",
      "nodes": [
        2
      ]
    }
  ],
  "nodes": [
    {
      "name": "OF_PlaintreeB_01"
    },
    {
      "name": "MeshNode_LOD0",
      "mesh": 0,
      "skin": 0
    },
    {
      "name": "Correction_Root",
      "rotation": [
        -0.70710678,
        0.0,
        0.0,
        0.70710678
      ],
      "children": [
        0,
        1
      ]
    }
  ],
  "meshes": [
    {
      "name": "Mesh_LOD0",
      "primitives": [
        {
          "attributes": {
            "POSITION": 1,
            "JOINTS_0": 3,
            "WEIGHTS_0": 4,
            "TEXCOORD_0": 2
          },
          "indices": 5,
          "material": 0
        },
        {
          "attributes": {
            "POSITION": 1,
            "JOINTS_0": 3,
            "WEIGHTS_0": 4,
            "TEXCOORD_0": 2
          },
          "indices": 6,
          "material": 1
        }
      ]
    }
  ],
  "skins": [
    {
      "inverseBindMatrices": 0,
      "joints": [
        0
      ],
      "name": "Armature",
      "skeleton": 0
    }
  ],
  "materials": [
    {
      "name": "GRAPHICS\\_MATERIALS\\SSEAUT-M-2008102834866408.xbm",
      "pbrMetallicRoughness": {
        "baseColorFactor": [
          1.0,
          1.0,
          1.0,
          1.0
        ],
        "metallicFactor": 0.0,
        "roughnessFactor": 1.0,
        "baseColorTexture": {
          "index": 0,
          "texCoord": 0
        }
      },
      "doubleSided": true
    },
    {
      "name": "GRAPHICS\\_MATERIALS\\SSEAUT-M-2008102756615224.xbm",
      "pbrMetallicRoughness": {
        "baseColorFactor": [
          1.0,
          1.0,
          1.0,
          1.0
        ],
        "metallicFactor": 0.0,
        "roughnessFactor": 1.0,
        "baseColorTexture": {
          "index": 1,
          "texCoord": 0
        }
      },
      "doubleSided": true
    }
  ],
  "textures": [
    {
      "sampler": 0,
      "source": 0
    },
    {
      "sampler": 0,
      "source": 1
    }
  ],
  "images": [
    {
      "name": "of_plaintreeb_leaves_01_d",
      "mimeType": "image/png",
      "uri": "data:image/png;base64,"
    },
    {
      "name": "of_plaintreeb_earth_01_d",
      "mimeType": "image/png",
      "uri": "data:image/png;base64,"
    }
  ],
  "samplers": [
    {
      "magFilter": 9729,
      "minFilter": 9987,
      "wrapS": 10497,
      "wrapT": 10497
    }
  ],
  "accessors": [
    {
      "bufferView": 0,
      "componentType": 5126,
      "count": 1,
      "type": "MAT4"
    },
    {
      "bufferView": 1,
      "componentType": 5126,
      "count": 1760,
      "type": "VEC3",
      "min": [
        -1.6900234976783395,
        -1.7741935467347503,
        -1.2676778454333544
      ],
      "max": [
        1.9006622498854995,
        0.9055757308378816,
        6.464217041619122
      ]
    },
    {
      "bufferView": 2,
      "componentType": 5126,
      "count": 1760,
      "type": "VEC2"
    },
    {
      "bufferView": 3,
      "componentType": 5123,
      "count": 1760,
      "type": "VEC4"
    },
    {
      "bufferView": 4,
      "componentType": 5126,
      "count": 1760,
      "type": "VEC4"
    },
    {
      "bufferView": 5,
      "componentType": 5123,
      "count": 2394,
      "type": "SCALAR"
    },
    {
      "bufferView": 6,
      "componentType": 5123,
      "count": 2958,
      "type": "SCALAR"
    }
  ],
  "bufferViews": [
    {
      "buffer": 0,
      "byteOffset": 0,
      "byteLength": 64
    },
    {
      "buffer": 0,
      "byteOffset": 64,
      "byteLength": 21120,
      "target": 34962
    },
    {
      "buffer": 0,
      "byteOffset": 21184,
      "byteLength": 14080,
      "target": 34962
    },
    {
      "buffer": 0,
      "byteOffset": 35264,
      "byteLength": 14080,
      "target": 34962
    },
    {
      "buffer": 0,
      "byteOffset": 49344,
      "byteLength": 28160,
      "target": 34962
    },
    {
      "buffer": 0,
      "byteOffset": 77504,
      "byteLength": 4788,
      "target": 34963
    },
    {
      "buffer": 0,
      "byteOffset": 82292,
      "byteLength": 5916,
      "target": 34963
    }
  ],
  "buffers": [
    {
      "byteLength": 88208,
      "uri": "of_plaintreeb_01.bin"
    }
  ]
}