{
  "asset": {
    "version": "2.0",
    "generator": "XBG to GLTF Converter with Textures"
  },
  "scene": 0,
  "scenes": [
    {
      "name": "Scene",
      "nodes": [
        8
      ]
    }
  ],
  "nodes": [
    {
      "name": "Dove_Mounted_Weapon",
      "children": [
        1,
        2,
        3,
        4,
        5,
        6
      ]
    },
    {
      "name": "FX_CASING",
      "translation": [
        0.4159254729747772,
        -0.19491469860076904,
        0.22113098204135895
      ],
      "rotation": [
        0.24184471476424765,
        -0.24184476396809665,
        -0.6644631057747882,
        0.6644629645100927
      ]
    },
    {
      "name": "FX_FIRE01",
      "translation": [
        0.23078151047229767,
        1.8939517736434937,
        0.18007750809192657
      ]
    },
    {
      "name": "FX_FIRE04",
      "translation": [
        -0.23168128728866577,
        1.8939526081085205,
        -0.041190799325704575
      ]
    },
    {
      "name": "FX_FIRE03",
      "translation": [
        -0.23168113827705383,
        1.8939526081085205,
        0.18007750809192657
      ]
    },
    {
      "name": "FX_FIRE02",
      "translation": [
        0.23078158497810364,
        1.8939517736434937,
        -0.041190799325704575
      ]
    },
    {
      "name": "FRAME",
      "rotation": [
        0.0,
        0.0,
        0.9999999999999991,
        -4.37113882867378e-08
      ]
    },
    {
      "name": "MeshNode_LOD0",
      "mesh": 0,
      "skin": 0
    },
    {
      "name": "Correction_Root",
      "rotation": [
        -0.70710678,
        0.0,
        0.0,
        0.70710678
      ],
      "children": [
        0,
        7
      ]
    }
  ],
  "meshes": [
    {
      "name": "Mesh_LOD0",
      "primitives": [
        {
          "attributes": {
            "POSITION": 1,
            "JOINTS_0": 3,
            "WEIGHTS_0": 4,
            "TEXCOORD_0": 2
          },
          "indices": 5,
          "material": 0
        },
        {
          "attributes": {
            "POSITION": 1,
            "JOINTS_0": 3,
            "WEIGHTS_0": 4,
            "TEXCOORD_0": 2
          },
          "indices": 6,
          "material": 1
        }
      ]
    }
  ],
  "skins": [
    {
      "inverseBindMatrices": 0,
      "joints": [
        0,
        1,
        2,
        3,
        4,
        5,
        6
      ],
      "name": "Armature",
      "skeleton": 0
    }
  ],
  "materials": [
    {
      "name": "GRAPHICS\\_MATERIALS\\DLAJEUNESSE-M-2009071737532498.xbm",
      "pbrMetallicRoughness": {
        "baseColorFactor": [
          1.0,
          1.0,
          1.0,
          1.0
        ],
        "metallicFactor": 0.0,
        "roughnessFactor": 1.0,
        "baseColorTexture": {
          "index": 0,
          "texCoord": 0
        }
      },
      "doubleSided": true
    },
    {
      "name": "GRAPHICS\\_MATERIALS\\DLAJEUNESSE-M-2009071736303749.xbm",
      "pbrMetallicRoughness": {
        "baseColorFactor": [
          1.0,
          1.0,
          1.0,
          1.0
        ],
        "metallicFactor": 0.0,
        "roughnessFactor": 1.0,
        "baseColorTexture": {
          "index": 1,
          "texCoord": 0
        }
      },
      "doubleSided": true
    }
  ],
  "textures": [
    {
      "sampler": 0,
      "source": 0
    },
    {
      "sampler": 0,
      "source": 1
    }
  ],
  "images": [
    {
      "name": "dove_part_02_d",
      "mimeType": "image/png",
      "uri": "data:image/png;base64,"
    },
    {
      "name": "dove_part_01_d",
      "mimeType": "image/png",
      "uri": "data:image/png;base64,"
    }
  ],
  "samplers": [
    {
      "magFilter": 9729,
      "minFilter": 9987,
      "wrapS": 10497,
      "wrapT": 10497
    }
  ],
  "accessors": [
    {
      "bufferView": 0,
      "componentType": 5126,
      "count": 7,
      "type": "MAT4"
    },
    {
      "bufferView": 1,
      "componentType": 5126,
      "count": 1645,
      "type": "VEC3",
      "min": [
        -0.4542374946177006,
        -1.8497878946363926,
        -0.16010010056197643
      ],
      "max": [
        0.4484389778226614,
        1.0107119958847761,
        0.35724967159330845
      ]
    },
    {
      "bufferView": 2,
      "componentType": 5126,
      "count": 1645,
      "type": "VEC2"
    },
    {
      "bufferView": 3,
      "componentType": 5123,
      "count": 1645,
      "type": "VEC4"
    },
    {
      "bufferView": 4,
      "componentType": 5126,
      "count": 1645,
      "type": "VEC4"
    },
    {
      "bufferView": 5,
      "componentType": 5123,
      "count": 3156,
      "type": "SCALAR"
    },
    {
      "bufferView": 6,
      "componentType": 5123,
      "count": 480,
      "type": "SCALAR"
    }
  ],
  "bufferViews": [
    {
      "buffer": 0,
      "byteOffset": 0,
      "byteLength": 448
    },
    {
      "buffer": 0,
      "byteOffset": 448,
      "byteLength": 19740,
      "target": 34962
    },
    {
      "buffer": 0,
      "byteOffset": 20188,
      "byteLength": 13160,
      "target": 34962
    },
    {
      "buffer": 0,
      "byteOffset": 33348,
      "byteLength": 13160,
      "target": 34962
    },
    {
      "buffer": 0,
      "byteOffset": 46508,
      "byteLength": 26320,
      "target": 34962
    },
    {
      "buffer": 0,
      "byteOffset": 72828,
      "byteLength": 6312,
      "target": 34963
    },
    {
      "buffer": 0,
      "byteOffset": 79140,
      "byteLength": 960,
      "target": 34963
    }
  ],
  "buffers": [
    {
      "byteLength": 80100,
      "uri": "dove_mounted_weapon.bin"
    }
  ]
}