{
  "asset": {
    "version": "2.0",
    "generator": "XBG to GLTF Converter with Textures"
  },
  "scene": 0,
  "scenes": [
    {
      "name": "Scene",
      "nodes": [
        6
      ]
    }
  ],
  "nodes": [
    {
      "name": "Leatherman",
      "children": [
        1,
        3
      ]
    },
    {
      "name": "Arm_Left_Mobile",
      "translation": [
        -0.024694260209798813,
        0.12080048024654388,
        0.08353801816701889
      ],
      "rotation": [
        -0.4999999552964971,
        0.500000074505776,
        0.5000001192092789,
        -0.4999998062848878
      ],
      "children": [
        2
      ]
    },
    {
      "name": "Arm_Left_Mobile_LOD0",
      "rotation": [
        1.3234889800848443e-23,
        -7.502067208651822e-28,
        -1.3234889800848443e-23,
        1.0
      ]
    },
    {
      "name": "Arm_Right_Static",
      "translation": [
        -0.024694260209798813,
        0.12080048024654388,
        0.08353801816701889
      ],
      "rotation": [
        -0.4999999552964971,
        0.500000074505776,
        0.5000001192092789,
        -0.4999998062848878
      ],
      "children": [
        4
      ]
    },
    {
      "name": "Arm_Right_Static_LOD0",
      "rotation": [
        1.3234889800848443e-23,
        -7.502067208651822e-28,
        -1.3234889800848443e-23,
        1.0
      ]
    },
    {
      "name": "MeshNode_LOD0",
      "mesh": 0,
      "skin": 0
    },
    {
      "name": "Correction_Root",
      "rotation": [
        -0.70710678,
        0.0,
        0.0,
        0.70710678
      ],
      "children": [
        0,
        5
      ]
    }
  ],
  "meshes": [
    {
      "name": "Mesh_LOD0",
      "primitives": [
        {
          "attributes": {
            "POSITION": 1,
            "JOINTS_0": 3,
            "WEIGHTS_0": 4,
            "TEXCOORD_0": 2
          },
          "indices": 5,
          "material": 0
        },
        {
          "attributes": {
            "POSITION": 1,
            "JOINTS_0": 3,
            "WEIGHTS_0": 4,
            "TEXCOORD_0": 2
          },
          "indices": 6,
          "material": 0
        }
      ]
    }
  ],
  "skins": [
    {
      "inverseBindMatrices": 0,
      "joints": [
        0,
        1,
        2,
        3,
        4
      ],
      "name": "Armature",
      "skeleton": 0
    }
  ],
  "materials": [
    {
      "name": "GRAPHICS\\_MATERIALS\\PFERNANDEZ-M-2007071841423445.xbm",
      "pbrMetallicRoughness": {
        "baseColorFactor": [
          1.0,
          1.0,
          1.0,
          1.0
        ],
        "metallicFactor": 0.0,
        "roughnessFactor": 1.0,
        "baseColorTexture": {
          "index": 0,
          "texCoord": 0
        }
      },
      "doubleSided": true
    }
  ],
  "textures": [
    {
      "sampler": 0,
      "source": 0
    }
  ],
  "images": [
    {
      "name": "metalscratchsafe_m",
      "mimeType": "image/png",
      "uri": "data:image/png;base64,"
    }
  ],
  "samplers": [
    {
      "magFilter": 9729,
      "minFilter": 9987,
      "wrapS": 10497,
      "wrapT": 10497
    }
  ],
  "accessors": [
    {
      "bufferView": 0,
      "componentType": 5126,
      "count": 5,
      "type": "MAT4"
    },
    {
      "bufferView": 1,
      "componentType": 5126,
      "count": 3266,
      "type": "VEC3",
      "min": [
        -0.015564439818263054,
        -0.15146336238831282,
        -0.012146366760134697
      ],
      "max": [
        0.01858577225357294,
        0.0557878352701664,
        0.0039674062281847
      ]
    },
    {
      "bufferView": 2,
      "componentType": 5126,
      "count": 3266,
      "type": "VEC2"
    },
    {
      "bufferView": 3,
      "componentType": 5123,
      "count": 3266,
      "type": "VEC4"
    },
    {
      "bufferView": 4,
      "componentType": 5126,
      "count": 3266,
      "type": "VEC4"
    },
    {
      "bufferView": 5,
      "componentType": 5123,
      "count": 4695,
      "type": "SCALAR"
    },
    {
      "bufferView": 6,
      "componentType": 5123,
      "count": 4569,
      "type": "SCALAR"
    }
  ],
  "bufferViews": [
    {
      "buffer": 0,
      "byteOffset": 0,
      "byteLength": 320
    },
    {
      "buffer": 0,
      "byteOffset": 320,
      "byteLength": 39192,
      "target": 34962
    },
    {
      "buffer": 0,
      "byteOffset": 39512,
      "byteLength": 26128,
      "target": 34962
    },
    {
      "buffer": 0,
      "byteOffset": 65640,
      "byteLength": 26128,
      "target": 34962
    },
    {
      "buffer": 0,
      "byteOffset": 91768,
      "byteLength": 52256,
      "target": 34962
    },
    {
      "buffer": 0,
      "byteOffset": 144024,
      "byteLength": 9390,
      "target": 34963
    },
    {
      "buffer": 0,
      "byteOffset": 153414,
      "byteLength": 9138,
      "target": 34963
    }
  ],
  "buffers": [
    {
      "byteLength": 162552,
      "uri": "leatherman.bin"
    }
  ]
}