{
  "asset": {
    "version": "2.0",
    "generator": "XBG to GLTF Converter with Textures"
  },
  "scene": 0,
  "scenes": [
    {
      "name": "Scene",
      "nodes": [
        11
      ]
    }
  ],
  "nodes": [
    {
      "name": "LiquidPropaneTank",
      "children": [
        1
      ]
    },
    {
      "name": "LiquidPropaneTank_state",
      "translation": [
        1.4689263105392456,
        1.1709129810333252,
        7.999999951380232e-08
      ],
      "children": [
        2,
        4,
        6,
        7,
        8,
        9
      ]
    },
    {
      "name": "LiquidPropaneTank_state02",
      "translation": [
        -1.4689263105392456,
        -1.1709129810333252,
        -7.999999951380232e-08
      ],
      "children": [
        3
      ]
    },
    {
      "name": "State02_FX",
      "translation": [
        0.0,
        -5.000000058430487e-08,
        1.2473907470703125
      ]
    },
    {
      "name": "LiquidPropaneTank_state01",
      "translation": [
        -1.4689263105392456,
        -1.1709129810333252,
        -7.999999951380232e-08
      ],
      "children": [
        5
      ]
    },
    {
      "name": "State01_FX",
      "translation": [
        0.0,
        -5.000000058430487e-08,
        1.2473907470703125
      ]
    },
    {
      "name": "LiquidPropaneTank_Part03",
      "translation": [
        0.47970548272132874,
        -1.1052027940750122,
        1.539882779121399
      ]
    },
    {
      "name": "LiquidPropaneTank_Part04",
      "translation": [
        -1.5778857469558716,
        -1.1709129810333252,
        1.9321846961975098
      ]
    },
    {
      "name": "LiquidPropaneTank_Part02",
      "translation": [
        -1.8593181371688843,
        -1.5324769020080566,
        1.8790096044540405
      ],
      "rotation": [
        0.0,
        0.0,
        0.9999999999999991,
        -4.37113882867378e-08
      ]
    },
    {
      "name": "LiquidPropaneTank_Part01",
      "translation": [
        -3.2631914615631104,
        -0.7551888227462769,
        1.6775881052017212
      ]
    },
    {
      "name": "MeshNode_LOD0",
      "mesh": 0,
      "skin": 0
    },
    {
      "name": "Correction_Root",
      "rotation": [
        -0.70710678,
        0.0,
        0.0,
        0.70710678
      ],
      "children": [
        0,
        10
      ]
    }
  ],
  "meshes": [
    {
      "name": "Mesh_LOD0",
      "primitives": [
        {
          "attributes": {
            "POSITION": 1,
            "JOINTS_0": 3,
            "WEIGHTS_0": 4,
            "TEXCOORD_0": 2
          },
          "indices": 5,
          "material": 0
        },
        {
          "attributes": {
            "POSITION": 1,
            "JOINTS_0": 3,
            "WEIGHTS_0": 4,
            "TEXCOORD_0": 2
          },
          "indices": 6,
          "material": 1
        },
        {
          "attributes": {
            "POSITION": 1,
            "JOINTS_0": 3,
            "WEIGHTS_0": 4,
            "TEXCOORD_0": 2
          },
          "indices": 7,
          "material": 0
        },
        {
          "attributes": {
            "POSITION": 1,
            "JOINTS_0": 3,
            "WEIGHTS_0": 4,
            "TEXCOORD_0": 2
          },
          "indices": 8,
          "material": 1
        },
        {
          "attributes": {
            "POSITION": 1,
            "JOINTS_0": 3,
            "WEIGHTS_0": 4,
            "TEXCOORD_0": 2
          },
          "indices": 9,
          "material": 1
        },
        {
          "attributes": {
            "POSITION": 1,
            "JOINTS_0": 3,
            "WEIGHTS_0": 4,
            "TEXCOORD_0": 2
          },
          "indices": 10,
          "material": 1
        },
        {
          "attributes": {
            "POSITION": 1,
            "JOINTS_0": 3,
            "WEIGHTS_0": 4,
            "TEXCOORD_0": 2
          },
          "indices": 11,
          "material": 1
        },
        {
          "attributes": {
            "POSITION": 1,
            "JOINTS_0": 3,
            "WEIGHTS_0": 4,
            "TEXCOORD_0": 2
          },
          "indices": 12,
          "material": 1
        }
      ]
    }
  ],
  "skins": [
    {
      "inverseBindMatrices": 0,
      "joints": [
        0,
        1,
        2,
        3,
        4,
        5,
        6,
        7,
        8,
        9
      ],
      "name": "Armature",
      "skeleton": 0
    }
  ],
  "materials": [
    {
      "name": "GRAPHICS\\_MATERIALS\\FBOIVIN2-M-2007062733491512.xbm",
      "pbrMetallicRoughness": {
        "baseColorFactor": [
          1.0,
          1.0,
          1.0,
          1.0
        ],
        "metallicFactor": 0.0,
        "roughnessFactor": 1.0,
        "baseColorTexture": {
          "index": 0,
          "texCoord": 0
        }
      },
      "doubleSided": true
    },
    {
      "name": "GRAPHICS\\_MATERIALS\\MADESLONGCHAMPS-M-1507200763094380.xbm",
      "pbrMetallicRoughness": {
        "baseColorFactor": [
          1.0,
          1.0,
          1.0,
          1.0
        ],
        "metallicFactor": 0.0,
        "roughnessFactor": 1.0,
        "baseColorTexture": {
          "index": 1,
          "texCoord": 0
        }
      },
      "doubleSided": true
    }
  ],
  "textures": [
    {
      "sampler": 0,
      "source": 0
    },
    {
      "sampler": 0,
      "source": 1
    }
  ],
  "images": [
    {
      "name": "concrete_13_d",
      "mimeType": "image/png",
      "uri": "data:image/png;base64,"
    },
    {
      "name": "metalpaint02_d",
      "mimeType": "image/png",
      "uri": "data:image/png;base64,"
    }
  ],
  "samplers": [
    {
      "magFilter": 9729,
      "minFilter": 9987,
      "wrapS": 10497,
      "wrapT": 10497
    }
  ],
  "accessors": [
    {
      "bufferView": 0,
      "componentType": 5126,
      "count": 10,
      "type": "MAT4"
    },
    {
      "bufferView": 1,
      "componentType": 5126,
      "count": 5648,
      "type": "VEC3",
      "min": [
        -2.266731770709157,
        -0.9748832657933235,
        -0.39918210357427597
      ],
      "max": [
        2.164555801078677,
        0.8280281983315945,
        2.2006286792457104
      ]
    },
    {
      "bufferView": 2,
      "componentType": 5126,
      "count": 5648,
      "type": "VEC2"
    },
    {
      "bufferView": 3,
      "componentType": 5123,
      "count": 5648,
      "type": "VEC4"
    },
    {
      "bufferView": 4,
      "componentType": 5126,
      "count": 5648,
      "type": "VEC4"
    },
    {
      "bufferView": 5,
      "componentType": 5123,
      "count": 645,
      "type": "SCALAR"
    },
    {
      "bufferView": 6,
      "componentType": 5123,
      "count": 6546,
      "type": "SCALAR"
    },
    {
      "bufferView": 7,
      "componentType": 5123,
      "count": 645,
      "type": "SCALAR"
    },
    {
      "bufferView": 8,
      "componentType": 5123,
      "count": 7461,
      "type": "SCALAR"
    },
    {
      "bufferView": 9,
      "componentType": 5123,
      "count": 192,
      "type": "SCALAR"
    },
    {
      "bufferView": 10,
      "componentType": 5123,
      "count": 2016,
      "type": "SCALAR"
    },
    {
      "bufferView": 11,
      "componentType": 5123,
      "count": 216,
      "type": "SCALAR"
    },
    {
      "bufferView": 12,
      "componentType": 5123,
      "count": 204,
      "type": "SCALAR"
    }
  ],
  "bufferViews": [
    {
      "buffer": 0,
      "byteOffset": 0,
      "byteLength": 640
    },
    {
      "buffer": 0,
      "byteOffset": 640,
      "byteLength": 67776,
      "target": 34962
    },
    {
      "buffer": 0,
      "byteOffset": 68416,
      "byteLength": 45184,
      "target": 34962
    },
    {
      "buffer": 0,
      "byteOffset": 113600,
      "byteLength": 45184,
      "target": 34962
    },
    {
      "buffer": 0,
      "byteOffset": 158784,
      "byteLength": 90368,
      "target": 34962
    },
    {
      "buffer": 0,
      "byteOffset": 249152,
      "byteLength": 1290,
      "target": 34963
    },
    {
      "buffer": 0,
      "byteOffset": 250442,
      "byteLength": 13092,
      "target": 34963
    },
    {
      "buffer": 0,
      "byteOffset": 263534,
      "byteLength": 1290,
      "target": 34963
    },
    {
      "buffer": 0,
      "byteOffset": 264824,
      "byteLength": 14922,
      "target": 34963
    },
    {
      "buffer": 0,
      "byteOffset": 279746,
      "byteLength": 384,
      "target": 34963
    },
    {
      "buffer": 0,
      "byteOffset": 280130,
      "byteLength": 4032,
      "target": 34963
    },
    {
      "buffer": 0,
      "byteOffset": 284162,
      "byteLength": 432,
      "target": 34963
    },
    {
      "buffer": 0,
      "byteOffset": 284594,
      "byteLength": 408,
      "target": 34963
    }
  ],
  "buffers": [
    {
      "byteLength": 285002,
      "uri": "liquidpropanetank.bin"
    }
  ]
}