{
  "asset": {
    "version": "2.0",
    "generator": "XBG to GLTF Converter with Textures"
  },
  "scene": 0,
  "scenes": [
    {
      "name": "Scene",
      "nodes": [
        10
      ]
    }
  ],
  "nodes": [
    {
      "name": "ThinPropaneTank",
      "children": [
        1
      ]
    },
    {
      "name": "ThinPropaneTank_State",
      "translation": [
        0.3206620216369629,
        0.3015347421169281,
        0.0
      ],
      "children": [
        2,
        4,
        6,
        8
      ]
    },
    {
      "name": "ThinPropaneTank_State01",
      "translation": [
        -0.3206620216369629,
        -0.3015347421169281,
        0.0
      ],
      "children": [
        3
      ]
    },
    {
      "name": "State01_FX",
      "translation": [
        0.0,
        -5.99999978589949e-08,
        1.4901865720748901
      ]
    },
    {
      "name": "ThinPropaneTank_State02",
      "translation": [
        -0.3206620216369629,
        -0.3015347421169281,
        0.0
      ],
      "children": [
        5
      ]
    },
    {
      "name": "State02_FX",
      "translation": [
        0.0,
        -5.000000058430487e-08,
        0.7812948226928711
      ]
    },
    {
      "name": "ropaneTank_State03_Part01",
      "translation": [
        -0.3206620216369629,
        -0.3015347421169281,
        1.4442297220230103
      ],
      "children": [
        7
      ]
    },
    {
      "name": "State03_FX",
      "translation": [
        0.0,
        -5.000000058430487e-08,
        -0.6629348397254944
      ]
    },
    {
      "name": "ropaneTank_State03_Part02",
      "translation": [
        -0.3206620216369629,
        -0.3015347421169281,
        0.0
      ]
    },
    {
      "name": "MeshNode_LOD0",
      "mesh": 0,
      "skin": 0
    },
    {
      "name": "Correction_Root",
      "rotation": [
        -0.70710678,
        0.0,
        0.0,
        0.70710678
      ],
      "children": [
        0,
        9
      ]
    }
  ],
  "meshes": [
    {
      "name": "Mesh_LOD0",
      "primitives": [
        {
          "attributes": {
            "POSITION": 1,
            "JOINTS_0": 3,
            "WEIGHTS_0": 4,
            "TEXCOORD_0": 2
          },
          "indices": 5,
          "material": 0
        },
        {
          "attributes": {
            "POSITION": 1,
            "JOINTS_0": 3,
            "WEIGHTS_0": 4,
            "TEXCOORD_0": 2
          },
          "indices": 6,
          "material": 1
        },
        {
          "attributes": {
            "POSITION": 1,
            "JOINTS_0": 3,
            "WEIGHTS_0": 4,
            "TEXCOORD_0": 2
          },
          "indices": 7,
          "material": 1
        },
        {
          "attributes": {
            "POSITION": 1,
            "JOINTS_0": 3,
            "WEIGHTS_0": 4,
            "TEXCOORD_0": 2
          },
          "indices": 8,
          "material": 1
        },
        {
          "attributes": {
            "POSITION": 1,
            "JOINTS_0": 3,
            "WEIGHTS_0": 4,
            "TEXCOORD_0": 2
          },
          "indices": 9,
          "material": 1
        }
      ]
    }
  ],
  "skins": [
    {
      "inverseBindMatrices": 0,
      "joints": [
        0,
        1,
        2,
        3,
        4,
        5,
        6,
        7,
        8
      ],
      "name": "Armature",
      "skeleton": 0
    }
  ],
  "materials": [
    {
      "name": "GRAPHICS\\_MATERIALS\\MADESLONGCHAMPS-M-1311200728134477.xbm",
      "pbrMetallicRoughness": {
        "baseColorFactor": [
          1.0,
          1.0,
          1.0,
          1.0
        ],
        "metallicFactor": 0.0,
        "roughnessFactor": 1.0,
        "baseColorTexture": {
          "index": 0,
          "texCoord": 0
        }
      },
      "doubleSided": true
    },
    {
      "name": "GRAPHICS\\_MATERIALS\\MADESLONGCHAMPS-M-1107200748572092.xbm",
      "pbrMetallicRoughness": {
        "baseColorFactor": [
          1.0,
          1.0,
          1.0,
          1.0
        ],
        "metallicFactor": 0.0,
        "roughnessFactor": 1.0,
        "baseColorTexture": {
          "index": 1,
          "texCoord": 0
        }
      },
      "doubleSided": true
    }
  ],
  "textures": [
    {
      "sampler": 0,
      "source": 0
    },
    {
      "sampler": 0,
      "source": 1
    }
  ],
  "images": [
    {
      "name": "plasticbarrel_m",
      "mimeType": "image/png",
      "uri": "data:image/png;base64,"
    },
    {
      "name": "metalgalvanize02_d",
      "mimeType": "image/png",
      "uri": "data:image/png;base64,"
    }
  ],
  "samplers": [
    {
      "magFilter": 9729,
      "minFilter": 9987,
      "wrapS": 10497,
      "wrapT": 10497
    }
  ],
  "accessors": [
    {
      "bufferView": 0,
      "componentType": 5126,
      "count": 9,
      "type": "MAT4"
    },
    {
      "bufferView": 1,
      "componentType": 5126,
      "count": 2170,
      "type": "VEC3",
      "min": [
        -0.15875728614628315,
        -0.15875728614628315,
        -0.10504470951855183
      ],
      "max": [
        0.158696249127388,
        0.158696249127388,
        1.5627307947725058
      ]
    },
    {
      "bufferView": 2,
      "componentType": 5126,
      "count": 2170,
      "type": "VEC2"
    },
    {
      "bufferView": 3,
      "componentType": 5123,
      "count": 2170,
      "type": "VEC4"
    },
    {
      "bufferView": 4,
      "componentType": 5126,
      "count": 2170,
      "type": "VEC4"
    },
    {
      "bufferView": 5,
      "componentType": 5123,
      "count": 552,
      "type": "SCALAR"
    },
    {
      "bufferView": 6,
      "componentType": 5123,
      "count": 2226,
      "type": "SCALAR"
    },
    {
      "bufferView": 7,
      "componentType": 5123,
      "count": 1866,
      "type": "SCALAR"
    },
    {
      "bufferView": 8,
      "componentType": 5123,
      "count": 1284,
      "type": "SCALAR"
    },
    {
      "bufferView": 9,
      "componentType": 5123,
      "count": 768,
      "type": "SCALAR"
    }
  ],
  "bufferViews": [
    {
      "buffer": 0,
      "byteOffset": 0,
      "byteLength": 576
    },
    {
      "buffer": 0,
      "byteOffset": 576,
      "byteLength": 26040,
      "target": 34962
    },
    {
      "buffer": 0,
      "byteOffset": 26616,
      "byteLength": 17360,
      "target": 34962
    },
    {
      "buffer": 0,
      "byteOffset": 43976,
      "byteLength": 17360,
      "target": 34962
    },
    {
      "buffer": 0,
      "byteOffset": 61336,
      "byteLength": 34720,
      "target": 34962
    },
    {
      "buffer": 0,
      "byteOffset": 96056,
      "byteLength": 1104,
      "target": 34963
    },
    {
      "buffer": 0,
      "byteOffset": 97160,
      "byteLength": 4452,
      "target": 34963
    },
    {
      "buffer": 0,
      "byteOffset": 101612,
      "byteLength": 3732,
      "target": 34963
    },
    {
      "buffer": 0,
      "byteOffset": 105344,
      "byteLength": 2568,
      "target": 34963
    },
    {
      "buffer": 0,
      "byteOffset": 107912,
      "byteLength": 1536,
      "target": 34963
    }
  ],
  "buffers": [
    {
      "byteLength": 109448,
      "uri": "thinpropanetank.bin"
    }
  ]
}