{
  "asset": {
    "version": "2.0",
    "generator": "XBG to GLTF Converter with Textures"
  },
  "scene": 0,
  "scenes": [
    {
      "name": "Scene",
      "nodes": [
        10
      ]
    }
  ],
  "nodes": [
    {
      "name": "G3KA4",
      "children": [
        1,
        2,
        3,
        4,
        5,
        6,
        7,
        8
      ]
    },
    {
      "name": "ACCESSORY",
      "translation": [
        -0.030181650072336197,
        0.4145885407924652,
        0.15297916531562805
      ],
      "rotation": [
        0.0,
        0.0,
        0.7071067094802831,
        0.7071068528928046
      ]
    },
    {
      "name": "CLIP",
      "translation": [
        -0.001933429972268641,
        0.1974378526210785,
        -0.036356110125780106
      ],
      "rotation": [
        0.0,
        0.0,
        0.7071067094802831,
        0.7071068528928046
      ]
    },
    {
      "name": "FRAME",
      "translation": [
        -0.0019334000535309315,
        -0.16589833796024323,
        0.0
      ],
      "rotation": [
        0.0,
        0.0,
        0.7071067094802831,
        0.7071068528928046
      ]
    },
    {
      "name": "FX_CASING",
      "translation": [
        -0.01653115078806877,
        0.1828853338956833,
        0.1346912980079651
      ],
      "rotation": [
        0.27059805279287047,
        0.2705980195215323,
        0.6532814475210467,
        0.653281524470775
      ]
    },
    {
      "name": "FX_FIRE",
      "translation": [
        -0.0019334700191393495,
        0.6990119218826294,
        0.12055453658103943
      ]
    },
    {
      "name": "SLIDE",
      "translation": [
        -0.013119730167090893,
        0.18489506840705872,
        0.138815239071846
      ],
      "rotation": [
        0.0,
        0.0,
        0.7071067094802831,
        0.7071068528928046
      ]
    },
    {
      "name": "ACCESSORY02",
      "translation": [
        -0.001756759942509234,
        0.2886504530906677,
        0.13589678704738617
      ],
      "rotation": [
        0.0,
        0.0,
        0.7071067690849299,
        0.707106793288165
      ]
    },
    {
      "name": "Weapon_Break"
    },
    {
      "name": "MeshNode_LOD0",
      "mesh": 0,
      "skin": 0
    },
    {
      "name": "Correction_Root",
      "rotation": [
        -0.70710678,
        0.0,
        0.0,
        0.70710678
      ],
      "children": [
        0,
        9
      ]
    }
  ],
  "meshes": [
    {
      "name": "Mesh_LOD0",
      "primitives": [
        {
          "attributes": {
            "POSITION": 1,
            "JOINTS_0": 3,
            "WEIGHTS_0": 4,
            "TEXCOORD_0": 2
          },
          "indices": 5,
          "material": 1
        },
        {
          "attributes": {
            "POSITION": 1,
            "JOINTS_0": 3,
            "WEIGHTS_0": 4,
            "TEXCOORD_0": 2
          },
          "indices": 6,
          "material": 1
        },
        {
          "attributes": {
            "POSITION": 1,
            "JOINTS_0": 3,
            "WEIGHTS_0": 4,
            "TEXCOORD_0": 2
          },
          "indices": 7,
          "material": 0
        },
        {
          "attributes": {
            "POSITION": 1,
            "JOINTS_0": 3,
            "WEIGHTS_0": 4,
            "TEXCOORD_0": 2
          },
          "indices": 8,
          "material": 1
        },
        {
          "attributes": {
            "POSITION": 1,
            "JOINTS_0": 3,
            "WEIGHTS_0": 4,
            "TEXCOORD_0": 2
          },
          "indices": 9,
          "material": 1
        },
        {
          "attributes": {
            "POSITION": 1,
            "JOINTS_0": 3,
            "WEIGHTS_0": 4,
            "TEXCOORD_0": 2
          },
          "indices": 10,
          "material": 0
        },
        {
          "attributes": {
            "POSITION": 1,
            "JOINTS_0": 3,
            "WEIGHTS_0": 4,
            "TEXCOORD_0": 2
          },
          "indices": 11,
          "material": 1
        }
      ]
    }
  ],
  "skins": [
    {
      "inverseBindMatrices": 0,
      "joints": [
        0,
        1,
        2,
        3,
        4,
        5,
        6,
        7,
        8
      ],
      "name": "Armature",
      "skeleton": 0
    }
  ],
  "materials": [
    {
      "name": "GRAPHICS\\_MATERIALS\\SDORE2-M-2008052063473318.xbm",
      "pbrMetallicRoughness": {
        "baseColorFactor": [
          1.0,
          1.0,
          1.0,
          1.0
        ],
        "metallicFactor": 0.0,
        "roughnessFactor": 1.0,
        "baseColorTexture": {
          "index": 0,
          "texCoord": 0
        }
      },
      "doubleSided": true
    },
    {
      "name": "GRAPHICS\\_MATERIALS\\EFREDETTE-M-2007041849655777.xbm",
      "pbrMetallicRoughness": {
        "baseColorFactor": [
          1.0,
          1.0,
          1.0,
          1.0
        ],
        "metallicFactor": 0.0,
        "roughnessFactor": 1.0,
        "baseColorTexture": {
          "index": 1,
          "texCoord": 0
        }
      },
      "doubleSided": true
    }
  ],
  "textures": [
    {
      "sampler": 0,
      "source": 0
    },
    {
      "sampler": 0,
      "source": 1
    }
  ],
  "images": [
    {
      "name": "clay02_d",
      "mimeType": "image/png",
      "uri": "data:image/png;base64,"
    },
    {
      "name": "dirtrust_03_d",
      "mimeType": "image/png",
      "uri": "data:image/png;base64,"
    }
  ],
  "samplers": [
    {
      "magFilter": 9729,
      "minFilter": 9987,
      "wrapS": 10497,
      "wrapT": 10497
    }
  ],
  "accessors": [
    {
      "bufferView": 0,
      "componentType": 5126,
      "count": 9,
      "type": "MAT4"
    },
    {
      "bufferView": 1,
      "componentType": 5126,
      "count": 6019,
      "type": "VEC3",
      "min": [
        -0.1562852868810296,
        -0.02844325080513954,
        -0.052278206683695316
      ],
      "max": [
        0.44404431246221066,
        0.028748435899615288,
        0.17273476347327232
      ]
    },
    {
      "bufferView": 2,
      "componentType": 5126,
      "count": 6019,
      "type": "VEC2"
    },
    {
      "bufferView": 3,
      "componentType": 5123,
      "count": 6019,
      "type": "VEC4"
    },
    {
      "bufferView": 4,
      "componentType": 5126,
      "count": 6019,
      "type": "VEC4"
    },
    {
      "bufferView": 5,
      "componentType": 5123,
      "count": 462,
      "type": "SCALAR"
    },
    {
      "bufferView": 6,
      "componentType": 5123,
      "count": 870,
      "type": "SCALAR"
    },
    {
      "bufferView": 7,
      "componentType": 5123,
      "count": 948,
      "type": "SCALAR"
    },
    {
      "bufferView": 8,
      "componentType": 5123,
      "count": 9990,
      "type": "SCALAR"
    },
    {
      "bufferView": 9,
      "componentType": 5123,
      "count": 36,
      "type": "SCALAR"
    },
    {
      "bufferView": 10,
      "componentType": 5123,
      "count": 762,
      "type": "SCALAR"
    },
    {
      "bufferView": 11,
      "componentType": 5123,
      "count": 3153,
      "type": "SCALAR"
    }
  ],
  "bufferViews": [
    {
      "buffer": 0,
      "byteOffset": 0,
      "byteLength": 576
    },
    {
      "buffer": 0,
      "byteOffset": 576,
      "byteLength": 72228,
      "target": 34962
    },
    {
      "buffer": 0,
      "byteOffset": 72804,
      "byteLength": 48152,
      "target": 34962
    },
    {
      "buffer": 0,
      "byteOffset": 120956,
      "byteLength": 48152,
      "target": 34962
    },
    {
      "buffer": 0,
      "byteOffset": 169108,
      "byteLength": 96304,
      "target": 34962
    },
    {
      "buffer": 0,
      "byteOffset": 265412,
      "byteLength": 924,
      "target": 34963
    },
    {
      "buffer": 0,
      "byteOffset": 266336,
      "byteLength": 1740,
      "target": 34963
    },
    {
      "buffer": 0,
      "byteOffset": 268076,
      "byteLength": 1896,
      "target": 34963
    },
    {
      "buffer": 0,
      "byteOffset": 269972,
      "byteLength": 19980,
      "target": 34963
    },
    {
      "buffer": 0,
      "byteOffset": 289952,
      "byteLength": 72,
      "target": 34963
    },
    {
      "buffer": 0,
      "byteOffset": 290024,
      "byteLength": 1524,
      "target": 34963
    },
    {
      "buffer": 0,
      "byteOffset": 291548,
      "byteLength": 6306,
      "target": 34963
    }
  ],
  "buffers": [
    {
      "byteLength": 297854,
      "uri": "g3ka4.bin"
    }
  ]
}